<?xml version="1.0" encoding="UTF-8"?>
<svg width="16px" height="16px" viewBox="0 0 16 16" version="1.1" xmlns="http://www.w3.org/2000/svg" xmlns:xlink="http://www.w3.org/1999/xlink">
    <title>instagram</title>
    <defs>
        <path d="M15.0017847,9.89780208 C12.731623,9.89780208 10.900502,11.7293317 10.900502,14 C10.900502,16.2706683 12.731623,18.1021979 15.0017847,18.1021979 C17.2719465,18.1021979 19.1030675,16.2706683 19.1030675,14 C19.1030675,11.7293317 17.2719465,9.89780208 15.0017847,9.89780208 Z M15.0017847,16.6669642 C13.5347462,16.6669642 12.3354155,15.4709361 12.3354155,14 C12.3354155,12.5290639 13.5311768,11.3330358 15.0017847,11.3330358 C16.4723926,11.3330358 17.6681539,12.5290639 17.6681539,14 C17.6681539,15.4709361 16.4688232,16.6669642 15.0017847,16.6669642 L15.0017847,16.6669642 Z M20.22744,9.73000112 C20.22744,10.2619659 19.7991076,10.6868236 19.270831,10.6868236 C18.7389849,10.6868236 18.314222,10.2583956 18.314222,9.73000112 C18.314222,9.2016066 18.7425544,8.77317862 19.270831,8.77317862 C19.7991076,8.77317862 20.22744,9.2016066 20.22744,9.73000112 Z M22.9437814,10.7011045 C22.8831009,9.41939083 22.5904071,8.28405668 21.6516453,7.34865558 C20.7164529,6.41325449 19.581372,6.12049537 18.2999442,6.05623117 C16.9792526,5.98125628 13.0207474,5.98125628 11.7000558,6.05623117 C10.4221974,6.11692514 9.28711656,6.40968426 8.34835471,7.34508535 C7.40959286,8.28048644 7.12046849,9.4158206 7.05621863,10.6975343 C6.98126046,12.0185206 6.98126046,15.9779092 7.05621863,17.2988955 C7.11689905,18.5806092 7.40959286,19.7159433 8.34835471,20.6513444 C9.28711656,21.5867455 10.418628,21.8795046 11.7000558,21.9437688 C13.0207474,22.0187437 16.9792526,22.0187437 18.2999442,21.9437688 C19.581372,21.8830749 20.7164529,21.5903157 21.6516453,20.6513444 C22.5868377,19.7159433 22.8795315,18.5806092 22.9437814,17.2988955 C23.0187395,15.9779092 23.0187395,12.0220908 22.9437814,10.7011045 Z M21.2375906,18.716278 C20.9591746,19.4160437 20.4201896,19.9551489 19.7170106,20.2371974 C18.6640268,20.6549146 16.1654211,20.5585184 15.0017847,20.5585184 C13.8381484,20.5585184 11.3359732,20.6513444 10.2865588,20.2371974 C9.58694925,19.9587192 9.04796431,19.419614 8.76597881,18.716278 C8.34835471,17.6630592 8.4447295,15.163896 8.4447295,14 C8.4447295,12.836104 8.35192415,10.3333705 8.76597881,9.28372197 C9.04439487,8.58395626 9.58337981,8.04485105 10.2865588,7.76280263 C11.3395427,7.34508535 13.8381484,7.44148165 15.0017847,7.44148165 C16.1654211,7.44148165 18.6675962,7.34865558 19.7170106,7.76280263 C20.4166202,8.04128082 20.9556051,8.58038603 21.2375906,9.28372197 C21.6552147,10.3369408 21.5588399,12.836104 21.5588399,14 C21.5588399,15.163896 21.6552147,17.6666295 21.2375906,18.716278 Z" id="path-1"></path>
    </defs>
    <g id="Symbols" stroke="none" stroke-width="1" fill="none" fill-rule="evenodd">
        <g id="FOOTER" transform="translate(-1145.000000, -58.000000)">
            <g id="Group-26-Copy">
                <g transform="translate(768.000000, 52.000000)">
                    <g id="Group-27-Copy" transform="translate(268.000000, 0.000000)">
                        <g id="Group-29-Copy-3" transform="translate(102.000000, 0.000000)">
                            <mask id="mask-2" fill="white">
                                <use xlink:href="#path-1"></use>
                            </mask>
                            <use id="instagram" fill="#FFFFFF" fill-rule="nonzero" xlink:href="#path-1"></use>
                        </g>
                    </g>
                </g>
            </g>
        </g>
    </g>
</svg>