<?xml version="1.0" encoding="UTF-8"?>
<svg width="16px" height="13px" viewBox="0 0 16 13" version="1.1" xmlns="http://www.w3.org/2000/svg" xmlns:xlink="http://www.w3.org/1999/xlink">
    <title>twitter</title>
    <defs>
        <path d="M21.3553686,12.239832 C21.3655249,12.3820127 21.3655249,12.5242246 21.3655249,12.6664053 C21.3655249,17.0031046 18.0660432,22 12.0355509,22 C10.1776687,22 8.45178692,21.4616953 7,20.5273605 C7.26396978,20.5578099 7.51775202,20.5679701 7.79187809,20.5679701 C9.32485283,20.5679701 10.7360458,20.0500172 11.8629565,19.166421 C10.4213259,19.1359403 9.21319615,18.1914139 8.79694452,16.8914046 C9,16.921854 9.20303986,16.9421745 9.41625944,16.9421745 C9.71066684,16.9421745 10.0051055,16.9015335 10.2792003,16.8304744 C8.77666319,16.5257613 7.64972129,15.2054627 7.64972129,13.6109317 L7.64972129,13.570322 C8.08625424,13.8140738 8.59391248,13.9664147 9.13194583,13.9867039 C8.24869238,13.3976294 7.67003387,12.3921729 7.67003387,11.2546647 C7.67003387,10.6453009 7.83244075,10.0867071 8.11672311,9.59920353 C9.73094817,11.5898273 12.1573639,12.8898054 14.8781558,13.0320174 C14.8274056,12.7882656 14.7969367,12.5343849 14.7969367,12.2804729 C14.7969367,10.4726395 16.2588799,9 18.076137,9 C19.020297,9 19.8730815,9.3960927 20.4720839,10.0359372 C21.2131805,9.89375645 21.9238395,9.619524 22.5533108,9.24375176 C22.3096223,10.0054877 21.7918703,10.6453322 21.1116801,11.0515539 C21.771589,10.9804948 22.4111852,10.7976419 23,10.5437611 C22.5533733,11.1937346 21.9949648,11.7726176 21.3553686,12.239832 Z" id="path-1"></path>
    </defs>
    <g id="Symbols" stroke="none" stroke-width="1" fill="none" fill-rule="evenodd">
        <g id="FOOTER" transform="translate(-1077.000000, -61.000000)">
            <g id="Group-26-Copy">
                <g transform="translate(768.000000, 52.000000)">
                    <g id="Group-27-Copy" transform="translate(268.000000, 0.000000)">
                        <g id="Group-29-Copy" transform="translate(34.000000, 0.000000)">
                            <mask id="mask-2" fill="white">
                                <use xlink:href="#path-1"></use>
                            </mask>
                            <use id="twitter" fill="#FFFFFF" xlink:href="#path-1"></use>
                        </g>
                    </g>
                </g>
            </g>
        </g>
    </g>
</svg>