<?xml version="1.0" encoding="UTF-8"?>
<svg width="17px" height="12px" viewBox="0 0 17 12" version="1.1" xmlns="http://www.w3.org/2000/svg" xmlns:xlink="http://www.w3.org/1999/xlink">
    <title>youtube</title>
    <defs>
        <path d="M23.6447685,10.8775937 C23.4492542,10.1385312 22.8732014,9.55646875 22.1417894,9.3589375 C20.8160525,9 15.5,9 15.5,9 C15.5,9 10.1839787,9 8.85821062,9.3589375 C8.12679855,9.5565 7.55074579,10.1385312 7.3552315,10.8775937 C7,12.2171875 7,15.012125 7,15.012125 C7,15.012125 7,17.8070625 7.3552315,19.1466562 C7.55074579,19.8857188 8.12679855,20.4435312 8.85821062,20.6410625 C10.1839787,21 15.5,21 15.5,21 C15.5,21 20.8160213,21 22.1417894,20.6410625 C22.8732014,20.4435312 23.4492542,19.8857188 23.6447685,19.1466562 C24,17.8070625 24,15.012125 24,15.012125 C24,15.012125 24,12.2171875 23.6447685,10.8775937 Z M13.7613516,17.5497187 L13.7613516,12.4745313 L18.2045157,15.0121875 L13.7613516,17.5497187 Z" id="path-1"></path>
    </defs>
    <g id="Symbols" stroke="none" stroke-width="1" fill="none" fill-rule="evenodd">
        <g id="FOOTER" transform="translate(-1043.000000, -61.000000)">
            <g id="Group-26-Copy">
                <g transform="translate(768.000000, 52.000000)">
                    <g id="Group-27-Copy" transform="translate(268.000000, 0.000000)">
                        <g id="Group-29">
                            <mask id="mask-2" fill="white">
                                <use xlink:href="#path-1"></use>
                            </mask>
                            <use id="youtube" fill="#FFFFFF" fill-rule="nonzero" xlink:href="#path-1"></use>
                        </g>
                    </g>
                </g>
            </g>
        </g>
    </g>
</svg>