<?xml version="1.0" encoding="UTF-8"?>
<svg width="483px" height="163px" viewBox="0 0 483 163" version="1.1" xmlns="http://www.w3.org/2000/svg" xmlns:xlink="http://www.w3.org/1999/xlink">
    <title>13th</title>
    <g id="Desktop--🖥" stroke="none" stroke-width="1" fill="none" fill-rule="evenodd">
        <g id="Menu-Ouvert" transform="translate(-482.000000, -174.000000)" fill="#AA203F" fill-rule="nonzero">
            <g id="HERO-HEADER" transform="translate(-1.000000, 0.000000)">
                <g id="TEXTE-" transform="translate(213.500000, 124.000000)">
                    <path d="M381.6705,210 L381.6705,176.55 L347.9975,176.55 L347.9975,50.555 L312.5405,50.555 L269.5015,90.918 L292.0245,115.002 L301.6135,106.305 C305.8505,102.291 307.8575,97.831 307.8575,97.831 L308.3035,97.831 C308.3035,97.831 308.088535,103.85001 308.080718,109.7674 L308.0805,176.55 L274.6305,176.55 L274.6305,210 L381.6705,210 Z M451.9155,212.676 C492.5015,212.676 512.1255,185.47 512.1255,159.379 C512.1255,138.194 499.8605,118.57 477.1145,113.441 L505.8815,74.862 L505.8815,50.555 L414.4515,50.555 C403.0785,50.555 400.1795,55.461 400.1795,66.834 L400.1795,97.608 L435.8595,97.608 L435.8595,88.911 C435.8595,85.789 437.6435,84.005 440.7655,84.005 L444.1105,84.005 C454.1455,84.005 459.2745,82.89 459.2745,82.89 L459.2745,83.336 C459.2745,83.336 453.2535,88.019 446.7865,98.277 L429.1695,125.706 L436.9745,144.661 L448.3475,144.661 C462.8425,144.661 471.7625,151.574 471.7625,160.048 C471.7625,168.968 464.4035,175.881 451.2465,175.881 C428.9465,175.881 414.0055,160.048 414.0055,160.048 L395.2735,190.153 C395.2735,190.153 414.8975,212.676 451.9155,212.676 Z M600.2105,210.446 L600.2105,176.996 C600.2105,176.996 598.330895,177.204845 595.380118,177.218319 L595.0815,177.219 C587.7225,177.219 574.5655,175.435 574.5655,162.501 L574.5655,125.26 L598.6495,125.26 L598.6495,95.155 L574.5655,95.155 L574.5655,64.158 L537.1015,64.158 L537.1015,95.155 L521.2685,95.155 L521.2685,125.26 L535.9865,125.26 L535.9865,167.63 C535.9865,206.209 571.4435,211.115 589.7295,211.115 C595.9735,211.115 600.2105,210.446 600.2105,210.446 Z M662.2045,210 L662.2045,159.156 C662.2045,153.804 662.6505,148.898 664.2115,144.438 C667.5565,134.403 675.3615,127.49 687.1805,127.49 C695.6545,127.49 699.8915,131.95 699.8915,142.654 L699.8915,193.721 C699.8915,205.094 704.7975,210 716.1705,210 L751.8505,210 L751.8505,177.665 L743.3765,177.665 C740.2545,177.665 738.4705,175.881 738.4705,172.759 L738.4705,135.518 C738.4705,103.183 720.4075,92.479 697.2155,92.479 C682.0515,92.479 668.6715,99.392 662.2045,110.765 L661.7585,110.765 C661.7585,110.765 662.2045,106.751 662.2045,100.953 L662.2045,66.834 C662.2045,55.461 657.2985,50.555 645.9255,50.555 L610.2455,50.555 L610.2455,82.89 L618.7195,82.89 C621.8415,82.89 623.6255,84.674 623.6255,87.796 L623.6255,210 L662.2045,210 Z" id="13th"></path>
                </g>
            </g>
        </g>
    </g>
</svg>