<?xml version="1.0" encoding="UTF-8"?>
<svg width="704px" height="783px" viewBox="0 0 704 783" version="1.1" xmlns="http://www.w3.org/2000/svg" xmlns:xlink="http://www.w3.org/1999/xlink">
    <!-- Generator: Sketch 61.2 (89653) - https://sketch.com -->
    <title>Fill 1</title>
    <desc>Created with Sketch.</desc>
    <g id="Desktop--🖥" stroke="none" stroke-width="1" fill="none" fill-rule="evenodd" opacity="0.11328125">
        <g id="MILIPOLQATAR-PAGESRESULTATRECHERCHE" transform="translate(0.000000, -1748.000000)" fill="#A6945D">
            <path d="M474.353961,2237.43034 C473.461911,2236.04242 472.119589,2234.9809 470.511068,2234.43879 L502.242544,2117.71424 C502.522903,2117.77384 502.800429,2117.83913 503.094947,2117.85899 C505.70313,2118.02929 508.042282,2116.60731 509.189203,2114.43034 L604.193895,2156.82867 C603.896545,2157.59501 603.675656,2158.39824 603.619018,2159.26392 C603.51707,2160.79376 603.868226,2162.23561 604.511068,2163.51284 L474.353961,2237.43034 Z M474.511068,2335.60046 C472.299526,2335.84924 470.327377,2336.8896 468.859666,2338.43034 L431.733686,2306.71081 C432.486066,2305.72982 432.967704,2304.52833 433.056051,2303.20527 C433.204248,2300.95493 432.181124,2298.89684 430.511068,2297.61336 L464.630376,2247.43034 C465.605051,2248.00706 466.710822,2248.39154 467.92204,2248.47353 C468.115835,2248.48483 468.29823,2248.45374 468.489175,2248.45374 L474.511068,2335.60046 Z M509.449123,2362.79285 C509.235133,2363.30366 509.080272,2363.84254 509.043669,2364.42352 C508.98454,2365.29358 509.173189,2366.11313 509.511068,2366.85408 L461.729364,2393.43034 C460.957874,2392.22067 459.842874,2391.24676 458.511068,2390.64614 L472.910339,2353.48877 C473.645226,2353.73295 474.399822,2353.91819 475.207915,2353.97152 C478.795063,2354.20447 481.999281,2352.32682 483.694306,2349.43034 L509.449123,2362.79285 Z M397.415687,2596.43034 C397.148634,2596.37667 396.887263,2596.31451 396.611686,2596.29756 C396.123036,2596.26649 395.654272,2596.31451 395.194031,2596.39644 L367.32957,2489.33911 L356.511068,2447.75358 C361.085067,2446.40035 364.565284,2442.36893 364.891998,2437.35437 C364.994273,2435.78361 364.772676,2434.27218 364.295389,2432.8681 L442.249401,2403.6311 L448.124574,2401.43034 C448.959826,2403.29774 450.528055,2404.76397 452.511068,2405.45329 L397.415687,2596.43034 Z M292.883744,2577.28677 C292.920526,2577.04958 292.985603,2576.82368 292.99975,2576.57801 C293.175175,2573.87284 291.732167,2571.45005 289.511068,2570.20477 L348.793202,2447.43034 C350.007026,2447.96121 351.311391,2448.33395 352.711957,2448.42431 C353.843728,2448.49773 354.927398,2448.35936 355.982774,2448.12781 L363.678812,2477.81122 L394.511068,2596.69733 C392.782289,2597.28185 391.418505,2598.66549 390.861108,2600.43034 L292.883744,2577.28677 Z M222.511068,2528.01073 C222.748814,2527.58773 222.921464,2527.12525 222.955427,2526.60637 C222.992222,2525.98879 222.816742,2525.43043 222.556353,2524.91719 L344.525983,2443.43034 C345.5732,2444.87137 346.91477,2446.08115 348.511068,2446.92151 L289.215951,2569.51838 C288.550827,2569.24766 287.848909,2569.05026 287.093214,2568.9995 C284.837453,2568.85568 282.779813,2569.82858 281.429752,2571.43034 L222.511068,2528.01073 Z M184.194816,2499.20816 C184.969965,2498.05486 185.483891,2496.70934 185.583269,2495.22531 C185.764989,2492.45795 184.532701,2489.92803 182.511068,2488.31398 L192.267152,2474.8079 L222.165746,2433.43034 C222.864232,2433.86 223.653577,2434.14833 224.511068,2434.2614 L224.136271,2440.42083 L219.136135,2522.43816 C218.281484,2522.4947 217.526211,2522.84521 216.958337,2523.43034 L184.194816,2499.20816 Z M125.173712,2587.43034 C124.785358,2587.26371 124.365822,2587.14509 123.917939,2587.11684 C123.475725,2587.08578 123.047685,2587.14791 122.645157,2587.26371 L64.5110679,2442.90407 C66.6087481,2441.9664 68.3577599,2440.41019 69.5199881,2438.43034 L170.48077,2492.01058 C170.055565,2492.90589 169.777764,2493.88876 169.706896,2494.93658 C169.505633,2498.02074 171.070389,2500.78293 173.511068,2502.33631 L125.173712,2587.43034 Z M71.328356,2613.43034 C70.1176344,2611.04039 67.7414519,2609.31997 64.8702313,2609.13069 C64.7768813,2609.12787 64.68636,2609.14482 64.5873524,2609.14199 L62.8561337,2538.94358 L60.5110679,2444.00382 C61.5520621,2443.93884 62.5675973,2443.76934 63.5180703,2443.43034 L121.511068,2587.77935 C120.38521,2588.3839 119.581834,2589.52802 119.494142,2590.8925 C119.460196,2591.3784 119.530916,2591.84452 119.666698,2592.2824 L71.328356,2613.43034 Z M-166.42635,2532.10929 C-166.157564,2531.27087 -165.953852,2530.40413 -165.894436,2529.48073 C-165.702042,2526.51794 -166.712113,2523.76192 -168.488932,2521.6602 L-124.116545,2481.02517 C-122.206747,2482.96826 -119.637715,2484.27121 -116.703699,2484.46665 C-112.943519,2484.71025 -109.5172,2483.09006 -107.242419,2480.43034 L58.5110679,2611.96594 C58.1885242,2612.42197 57.9225672,2612.90916 57.7018794,2613.43034 L-166.42635,2532.10929 Z M-195.488932,2506.32128 C-193.890191,2504.89829 -192.822481,2502.87511 -192.672775,2500.57014 C-192.613458,2499.64309 -192.743391,2498.75548 -192.963712,2497.90168 L-127.56786,2477.43034 C-127.098972,2478.74907 -126.38434,2479.95509 -125.488932,2481.00614 L-169.784792,2521.43034 C-171.609503,2519.58468 -174.061283,2518.34767 -176.854843,2518.16733 C-179.569313,2517.9898 -182.091708,2518.85205 -184.111319,2520.35958 L-195.488932,2506.32128 Z M-461.038997,2481.49205 C-460.866381,2480.93607 -460.736211,2480.36023 -460.696594,2479.75036 C-460.606041,2478.37743 -460.917317,2477.08676 -461.488932,2475.94076 L-315.45541,2392.43034 C-313.771692,2395.11663 -310.890978,2396.99732 -307.492415,2397.22141 C-306.567078,2397.27815 -305.678527,2397.17319 -304.812615,2397.00016 L-266.488932,2553.28434 C-267.035079,2553.51695 -267.485014,2553.91408 -267.779311,2554.43034 L-461.038997,2481.49205 Z M-528.361309,2454.42763 C-528.10039,2453.68628 -527.899029,2452.91664 -527.845143,2452.09324 C-527.757225,2450.73787 -528.009635,2449.44759 -528.488932,2448.26483 L-492.714684,2431.86183 L-430.701071,2403.43034 C-430.182069,2404.38391 -429.416329,2405.17619 -428.488932,2405.75342 L-438.395342,2424.25313 L-464.430509,2472.87358 C-465.244462,2472.49442 -466.13499,2472.24258 -467.085075,2472.18033 C-470.230282,2471.9766 -473.040832,2473.75074 -474.319902,2476.43034 L-528.361309,2454.42763 Z M-632.013647,2507.43034 C-632.646661,2506.50367 -633.484057,2505.72719 -634.488932,2505.19159 L-584.568784,2395.94327 C-584.103249,2396.1133 -583.615004,2396.24366 -583.095535,2396.27767 C-581.906149,2396.35418 -580.793406,2396.02545 -579.862335,2395.43034 L-542.488932,2444.6404 C-544.265915,2446.12535 -545.463816,2448.29325 -545.628457,2450.78422 C-545.739164,2452.47604 -545.338917,2454.0715 -544.595196,2455.46293 L-632.013647,2507.43034 Z M-565.701853,2282.82775 C-564.382961,2282.89537 -563.18294,2282.34035 -562.365,2281.43034 L-530.717256,2304.29881 C-531.158774,2305.0116 -531.453119,2305.82582 -531.512554,2306.71892 C-531.631424,2308.53611 -530.819145,2310.19554 -529.488932,2311.24641 L-542.731625,2330.92 L-580.099284,2386.43034 C-580.529481,2386.18805 -580.99364,2386.00492 -581.488932,2385.88941 L-565.701853,2282.82775 Z M-603.488932,2251.1884 C-602.865587,2250.18943 -602.446246,2249.04734 -602.364078,2247.79301 C-602.344244,2247.47312 -602.378245,2247.16445 -602.398078,2246.85016 L-496.854439,2234.43034 C-496.775104,2234.79514 -496.653269,2235.14309 -496.488932,2235.4686 L-561.951489,2275.43034 C-562.665502,2274.50994 -563.747856,2273.87295 -565.011546,2273.79158 C-566.385739,2273.70459 -567.640929,2274.29106 -568.476778,2275.25636 L-603.488932,2251.1884 Z M-515.89798,2199.43034 C-514.942278,2201.01373 -513.257075,2202.12098 -511.2665,2202.24776 C-510.367349,2202.30975 -509.507782,2202.14352 -508.724559,2201.83078 L-495.488932,2228.99916 C-496.707594,2229.7345 -497.561505,2231.0277 -497.660468,2232.55474 C-497.671778,2232.69279 -497.649158,2232.82239 -497.649158,2232.96045 L-602.960186,2245.43034 C-603.064804,2244.83587 -603.25142,2244.26957 -603.488932,2243.73144 L-515.89798,2199.43034 Z M-455.76873,2189.43034 C-455.562493,2190.37916 -455.124593,2191.24891 -454.488932,2191.94923 L-489.905137,2229.43034 C-490.597301,2228.88816 -491.450499,2228.54083 -492.394103,2228.4787 C-493.05519,2228.43352 -493.688026,2228.54647 -494.272834,2228.76391 L-507.488932,2201.54753 C-505.853165,2200.60154 -504.70615,2198.89028 -504.573367,2196.86557 C-504.556416,2196.6086 -504.584668,2196.36292 -504.601619,2196.1116 L-455.76873,2189.43034 Z M-359.881163,2161.43034 C-359.243525,2163.19967 -358.039099,2164.68919 -356.488932,2165.73213 L-370.383758,2188.5723 C-370.976052,2188.27836 -371.633527,2188.09181 -372.333511,2188.04942 C-375.022924,2187.87135 -377.335422,2189.81309 -377.706668,2192.43034 L-407.49425,2190.74863 L-445.361405,2188.61187 C-445.369906,2188.24161 -445.409582,2187.88549 -445.488932,2187.53784 L-359.881163,2161.43034 Z M-308.488932,2012.65239 C-307.123754,2012.24426 -305.928163,2011.47051 -304.98978,2010.43034 L-278.483279,2031.9366 L-208.488932,2088.73204 C-209.356654,2089.92809 -209.924772,2091.36789 -210.026524,2092.95507 C-210.03783,2093.14213 -210.009565,2093.32069 -210.006739,2093.50775 L-229.40753,2094.58476 L-280.682262,2097.43034 C-281.089271,2093.65513 -284.133364,2090.59698 -288.045179,2090.34189 C-288.712222,2090.29655 -289.356654,2090.36457 -289.986954,2090.48077 L-308.488932,2012.65239 Z M-190.905643,1770.0746 C-188.279242,1770.23329 -185.944351,1768.71155 -184.901639,1766.43034 L-166.530843,1773.5375 C-166.732659,1774.1581 -166.88402,1774.8042 -166.926065,1775.48715 C-167.144698,1778.84519 -165.297528,1781.84901 -162.488932,1783.2489 L-174.457699,1811.42247 L-202.927667,1878.43034 C-203.429402,1878.24331 -203.947955,1878.10162 -204.488932,1878.00527 L-190.905643,1770.0746 Z M-7.26095139,1756.43034 C-6.90454891,1758.29462 -5.91454202,1759.94141 -4.48893211,1761.11365 L-125.699718,1925.43034 C-126.921669,1924.61966 -128.341622,1924.07168 -129.914319,1923.96999 C-130.480037,1923.93609 -131.037269,1923.96151 -131.580359,1924.03213 L-156.488932,1784.36915 C-153.125737,1783.58672 -150.506462,1780.71968 -150.271689,1777.09563 C-150.246232,1776.69452 -150.280175,1776.3019 -150.314118,1775.90644 L-7.26095139,1756.43034 Z M472.44653,1794.48026 C472.395703,1794.73734 472.330758,1794.99158 472.313816,1795.26278 C472.212162,1796.83063 472.680898,1798.28832 473.511068,1799.4861 L354.429658,1893.43034 C353.009333,1891.80034 350.964968,1890.71555 348.641057,1890.563 C347.246145,1890.4726 345.927473,1890.76075 344.733045,1891.28619 L283.365401,1768.28718 L272.511068,1746.53777 C273.284764,1746.04905 273.877743,1745.31173 274.202469,1744.43034 L472.44653,1794.48026 Z M564.511068,1875.07998 C563.709094,1876.07044 563.184836,1877.29861 563.096988,1878.66828 C563.068649,1879.10408 563.085652,1879.53139 563.139495,1879.95305 L516.970763,1889.43034 C516.267973,1886.89759 514.049086,1884.95063 511.271934,1884.77235 C510.571978,1884.72424 509.900361,1884.82328 509.259916,1884.99025 L491.330283,1831.22519 L481.511068,1801.78869 C482.298872,1801.46891 483.012997,1801.00764 483.62227,1800.43034 L564.511068,1875.07998 Z M460.652156,2029.43034 C459.848702,2029.16969 459.019964,2028.97704 458.140659,2028.91754 C457.9412,2028.90338 457.755787,2028.94021 457.556329,2028.93737 L454.511068,1927.09949 C456.879292,1926.83034 458.792412,1924.8953 458.949732,1922.41345 C459.005918,1921.5805 458.834551,1920.79005 458.52553,1920.07326 L505.521993,1894.538 L505.718643,1894.43034 C506.381633,1895.49561 507.350835,1896.33989 508.511068,1896.85836 L460.652156,2029.43034 Z M500.511068,2106.4979 C499.045936,2107.58482 498.027697,2109.26049 497.900417,2111.22486 C497.87779,2111.58151 497.903246,2111.92966 497.937187,2112.27215 L268.819368,2150.43034 C268.743,2150.13031 268.641176,2149.84443 268.511068,2149.5727 L448.696867,2044.43034 C450.4505,2047.17877 453.417534,2049.10352 456.919144,2049.32997 C459.116842,2049.47432 461.204231,2048.93369 462.972006,2047.89489 L500.511068,2106.4979 Z M225.874027,2434.57389 C228.838961,2434.54292 231.324857,2432.35544 231.70752,2429.43034 L342.776326,2435.75913 C342.725305,2438.08175 343.351739,2440.26924 344.511068,2442.12452 L222.430055,2523.43034 C221.948182,2522.87854 221.265057,2522.53789 220.511068,2522.39713 L224.502107,2457.06531 L225.874027,2434.57389 Z M181.941499,2488.43034 C181.202172,2487.94837 180.394861,2487.56906 179.511068,2487.34661 L189.691684,2435.15623 C189.921131,2435.19045 190.139246,2435.25605 190.377191,2435.27031 C195.059594,2435.57832 199.093316,2432.0904 199.577703,2427.43034 L219.383733,2428.53689 C219.412059,2430.33361 220.216538,2431.95351 221.511068,2433.04295 L218.842693,2436.77898 L181.941499,2488.43034 Z M63.5110679,2608.82285 C61.4425423,2608.98688 59.5975647,2609.95126 58.2817447,2611.43034 L-107.488932,2480.10555 C-106.232536,2478.39739 -105.411917,2476.33571 -105.264772,2474.06194 C-105.199688,2473.05797 -105.307218,2472.09076 -105.48832,2471.14618 L49.0115809,2435.43034 C50.2113823,2439.83367 54.0541425,2443.21322 58.8674968,2443.52714 C59.0570881,2443.53845 59.2410199,2443.50452 59.4306112,2443.50734 L62.6678112,2574.64831 L63.5110679,2608.82285 Z M-264.753472,2552.76081 C-264.892177,2552.75514 -265.013898,2552.80336 -265.149772,2552.81755 L-303.488932,2396.49285 C-302.062253,2396.07581 -300.745972,2395.38641 -299.644826,2394.43034 L-206.488932,2493.61775 C-207.83352,2495.01355 -208.736517,2496.8491 -208.869561,2498.93713 C-209.013927,2501.10744 -208.300588,2503.12455 -207.060736,2504.71611 L-263.219227,2553.43034 C-263.643833,2553.07004 -264.156192,2552.80053 -264.753472,2552.76081 L-264.753472,2552.76081 Z M-528.844516,2447.43034 C-529.985259,2445.24582 -532.00697,2443.59122 -534.488932,2442.98237 L-522.680554,2382.86422 C-522.542197,2382.88114 -522.415134,2382.92342 -522.273953,2382.93187 C-519.235738,2383.12919 -516.567418,2381.20117 -515.677978,2378.43034 L-431.782589,2399.42152 C-431.824943,2399.65547 -431.884239,2399.88097 -431.901181,2400.12339 C-431.960477,2401.05357 -431.802354,2401.94711 -431.488932,2402.76737 L-505.292704,2436.62328 L-528.844516,2447.43034 Z M-288.985157,2105.5819 C-288.566102,2105.60999 -288.161109,2105.57348 -287.756115,2105.53696 L-287.488932,2107.37394 C-290.686692,2108.02278 -293.195401,2110.71363 -293.420397,2114.12355 C-293.518833,2115.65436 -293.147589,2117.10653 -292.427601,2118.33679 L-317.587812,2134.95101 L-344.061439,2152.43034 C-344.204874,2152.23372 -344.328622,2152.01745 -344.488932,2151.83487 L-293.856327,2103.43034 C-292.568224,2104.64376 -290.889189,2105.45832 -288.985157,2105.5819 L-288.985157,2105.5819 Z M-287.60148,1939.55977 C-285.301647,1939.7096 -283.259873,1938.3979 -282.352417,1936.43034 L-226.129883,1957.04444 L-214.556991,1961.28769 C-214.633558,1961.56756 -214.684602,1961.85873 -214.704453,1962.15839 C-214.741318,1962.74074 -214.65908,1963.3033 -214.488932,1963.83194 L-248.552539,1978.24372 L-303.36001,2001.43034 C-304.207914,1999.71439 -305.66835,1998.36593 -307.488932,1997.66202 L-304.65597,1988.96633 L-288.506099,1939.40712 C-288.211176,1939.48062 -287.913418,1939.53716 -287.60148,1939.55977 L-287.60148,1939.55977 Z M-206.488932,1895.41491 L-210.221138,1957.86903 C-211.955065,1957.92834 -213.464434,1958.93366 -214.183587,1960.43034 L-257.361206,1944.6502 L-282.130777,1935.59949 C-282.028447,1935.24368 -281.963069,1934.87374 -281.937487,1934.49533 C-281.874951,1933.52955 -282.090982,1932.62024 -282.488932,1931.80695 L-213.023846,1891.43034 C-211.599752,1893.60195 -209.254687,1895.1184 -206.488932,1895.41491 L-206.488932,1895.41491 Z M24.2856766,1740.77523 C25.5910277,1740.85699 26.7890122,1740.35513 27.65077,1739.50365 L152.458719,1843.13606 L187.511068,1872.24144 C187.465861,1872.30065 187.434781,1872.37113 187.3924,1872.43034 L7.9687884,1758.93825 C8.5395263,1757.92888 8.92378549,1756.79263 9.00289768,1755.55489 C9.12721683,1753.64611 8.54235174,1751.87266 7.51106789,1750.42909 L21.4206854,1739.43034 C22.1524731,1740.1916 23.1498517,1740.70192 24.2856766,1740.77523 L24.2856766,1740.77523 Z M267.511068,1745.91553 L197.319587,1869.61583 C196.355232,1869.13536 195.283412,1868.83011 194.140892,1868.75663 C191.544768,1868.58705 189.177715,1869.65823 187.540291,1871.43034 L27.5110679,1738.34943 C27.8928507,1737.79264 28.1473726,1737.14258 28.2350413,1736.43034 L265.763351,1742.80939 C265.859504,1744.08406 266.515605,1745.20612 267.511068,1745.91553 L267.511068,1745.91553 Z M344.511068,1891.65915 C342.399849,1892.85192 340.869569,1894.93714 340.393482,1897.43034 L202.328265,1878.16472 C202.333933,1878.09955 202.35377,1878.04289 202.359437,1877.97773 C202.563475,1874.8499 200.979352,1872.04222 198.511068,1870.46697 L268.867085,1746.43034 C269.309166,1746.623 269.779585,1746.75899 270.28401,1746.79016 C270.904624,1746.82982 271.499732,1746.72499 272.043832,1746.51817 L291.194996,1784.87376 L344.511068,1891.65915 Z M457.330265,1918.43034 C456.678806,1917.43973 455.694505,1916.68054 454.511068,1916.33904 L478.020498,1801.58557 C478.179807,1801.60815 478.333426,1801.65612 478.501269,1801.66741 C479.246607,1801.71257 479.966341,1801.60815 480.654783,1801.43034 L508.511068,1884.41071 C506.317727,1885.29972 504.704725,1887.34587 504.539727,1889.84922 C504.468607,1890.93015 504.70188,1891.95746 505.125755,1892.88034 L496.09067,1897.70924 L457.330265,1918.43034 Z M470.623092,2233.77946 C470.278772,2233.70873 469.937298,2233.62668 469.575905,2233.60688 C467.034769,2233.43996 464.707055,2234.57161 463.247254,2236.43034 L424.467195,2209.77436 C425.005016,2208.88036 425.372101,2207.87037 425.446087,2206.76135 C425.57414,2204.77814 424.808669,2202.96184 423.511068,2201.6463 L500.615887,2116.43034 C501.173628,2116.86603 501.816738,2117.19421 502.511068,2117.43185 L487.51467,2172.1414 L470.623092,2233.77946 Z M360.511068,2426.52404 L394.51494,2376.64472 C395.750257,2377.39888 397.164482,2377.91013 398.712178,2378.01182 C402.330095,2378.24626 405.567477,2376.35096 407.268522,2373.43034 L448.511068,2394.68816 C448.153252,2395.48469 447.906189,2396.34054 447.843713,2397.26135 C447.781237,2398.21324 447.920388,2399.13123 448.190169,2399.98708 L364.378888,2431.43034 C363.549663,2429.47291 362.223473,2427.77251 360.511068,2426.52404 L360.511068,2426.52404 Z M-193.363188,2496.43034 C-194.228389,2494.10932 -196.103939,2492.27619 -198.488932,2491.43013 L-175.148441,2415.42009 L-163.863835,2378.66724 C-163.522309,2378.74903 -163.177936,2378.81953 -162.816487,2378.84209 C-161.863059,2378.90414 -160.952321,2378.74621 -160.112735,2378.43034 L-158.134728,2382.74807 L-121.488932,2462.70357 C-125.043654,2464.46619 -127.607949,2467.95478 -127.886862,2472.17098 C-127.972244,2473.47955 -127.784404,2474.73454 -127.454262,2475.93031 L-188.843654,2495.02588 L-193.363188,2496.43034 Z M-526.995605,2312.1178 C-526.91693,2312.12346 -526.843874,2312.10932 -526.765199,2312.10932 L-523.488932,2369.71463 C-526.517934,2370.08523 -528.95406,2372.57198 -529.161988,2375.74901 C-529.195706,2376.29219 -529.145129,2376.80991 -529.055214,2377.32197 L-577.749645,2389.43034 C-578.075585,2388.43734 -578.685319,2387.56882 -579.488932,2386.92663 L-529.243473,2311.43034 C-528.571923,2311.81227 -527.816077,2312.06688 -526.995605,2312.1178 L-526.995605,2312.1178 Z M-377.488932,2194.30268 L-481.36565,2228.96042 L-488.767428,2231.43034 C-488.954171,2231.014 -489.186184,2230.61735 -489.488932,2230.27696 L-454.022077,2192.9355 C-453.17042,2193.61909 -452.115044,2194.06638 -450.940832,2194.13952 C-448.049158,2194.33081 -445.559264,2192.24347 -445.177291,2189.43034 L-377.630403,2193.23088 C-377.619086,2193.5994 -377.573815,2193.95667 -377.488932,2194.30268 L-377.488932,2194.30268 Z M-209.488932,2094.18701 L-239.298932,2102.06723 L-278.50406,2112.43034 C-279.409445,2109.55042 -281.950727,2107.37825 -285.089958,2107.16823 C-285.476368,2107.14234 -285.848676,2107.17686 -286.223804,2107.21138 L-286.488932,2105.3298 C-283.059189,2104.63068 -280.365599,2101.68746 -280.125855,2097.95593 C-280.114573,2097.77468 -280.145599,2097.5963 -280.145599,2097.41505 L-209.618676,2093.43034 C-209.590471,2093.68928 -209.539701,2093.9367 -209.488932,2094.18701 L-209.488932,2094.18701 Z M-303.026312,2005.20288 C-302.952471,2004.10429 -303.122873,2003.05383 -303.475038,2002.08265 L-214.493777,1964.43034 C-213.772407,1965.76394 -212.409188,1966.71247 -210.784686,1966.81724 C-210.719365,1966.8229 -210.662564,1966.80874 -210.600083,1966.81157 L-202.488932,2084.79428 C-204.471279,2085.03212 -206.234944,2086.00614 -207.521481,2087.43034 L-304.488932,2009.20369 C-303.665321,2008.06829 -303.122873,2006.70354 -303.026312,2005.20288 L-303.026312,2005.20288 Z M-159.115433,1783.94551 C-158.59396,1783.97947 -158.083884,1783.95117 -157.585207,1783.89173 L-132.488932,1923.84683 C-134.666013,1924.34218 -136.53534,1925.6301 -137.76066,1927.43034 L-198.547959,1890.77719 C-197.940998,1889.67326 -197.542056,1888.43913 -197.453719,1887.1031 C-197.208655,1883.37523 -199.308798,1880.04647 -202.488932,1878.50663 L-161.380852,1783.43034 C-160.665606,1783.69359 -159.916166,1783.89456 -159.115433,1783.94551 L-159.115433,1783.94551 Z M267.220198,2148.43034 C266.405132,2147.2791 265.108951,2146.47774 263.586362,2146.37616 C262.474137,2146.30561 261.435494,2146.62729 260.577977,2147.20291 L204.511068,2077.72738 C206.044977,2076.36168 207.066639,2074.42036 207.210974,2072.21098 C207.239274,2071.82723 207.199653,2071.44913 207.171352,2071.07384 L446.418653,2040.43034 C446.611099,2041.56184 446.987501,2042.63126 447.511068,2043.6132 L310.973386,2122.99285 L267.220198,2148.43034 Z M497.87263,2113.43034 C498.141458,2114.57812 498.710242,2115.61253 499.511068,2116.43723 L422.835548,2201.80038 C421.805511,2200.97852 420.523624,2200.44573 419.108738,2200.35504 C416.188413,2200.16233 413.61049,2201.8854 412.523857,2204.43034 L268.511068,2153.23115 C268.584642,2152.93642 268.641237,2152.63884 268.661046,2152.3271 C268.675195,2152.09188 268.655386,2151.86233 268.635578,2151.62994 L366.025033,2135.40241 L497.87263,2113.43034 Z M427.478926,2296.52611 C427.279231,2296.51189 427.090946,2296.54317 426.896956,2296.54601 L425.695929,2282.93129 L419.511068,2212.91841 C421.234157,2212.65681 422.760402,2211.74973 423.807378,2210.43034 L462.693837,2237.22757 C462.086192,2238.21427 461.675389,2239.34314 461.595511,2240.58007 C461.424343,2243.15629 462.596842,2245.50503 464.511068,2246.95522 L430.36025,2297.43034 C429.504411,2296.93273 428.534461,2296.59719 427.478926,2296.52611 L427.478926,2296.52611 Z M466.568831,2344.06326 C466.503902,2345.08248 466.645053,2346.05947 466.893478,2346.99423 L408.197279,2365.43034 C407.370134,2363.18355 405.687615,2361.345 403.511068,2360.31452 L424.999884,2309.02394 C425.539081,2309.20694 426.095216,2309.34772 426.688049,2309.38432 C428.661339,2309.51384 430.465248,2308.73394 431.749722,2307.43034 L468.511068,2339.00937 C467.407268,2340.41432 466.695867,2342.14869 466.568831,2344.06326 L466.568831,2344.06326 Z M455.302617,2390.74955 C452.398392,2390.55999 449.801209,2392.07928 448.412476,2394.43034 L407.511068,2373.13494 C407.967406,2372.14189 408.274448,2371.05547 408.353321,2369.8955 C408.41811,2368.87416 408.274448,2367.89243 408.026561,2366.95313 L466.595575,2348.43034 C467.449096,2350.76443 469.229378,2352.65151 471.511068,2353.66437 L457.105434,2391.11735 C456.527969,2390.93062 455.933603,2390.79199 455.302617,2390.74955 L455.302617,2390.74955 Z M199.310039,2427.33141 C199.338146,2422.75724 195.855702,2418.88831 191.265846,2418.58525 C189.787424,2418.48612 188.393322,2418.80617 187.134133,2419.3868 L155.511068,2357.68222 C156.140662,2357.32252 156.736528,2356.90617 157.284613,2356.43034 L220.511068,2425.12504 C219.684725,2426.01156 219.131019,2427.14731 218.967999,2428.43034 L212.598978,2428.0763 L199.310039,2427.33141 Z M71.3707689,2434.43034 L101.088236,2438.92259 L129.272336,2443.18728 C129.258242,2443.30808 129.218781,2443.42046 129.210325,2443.54407 C128.880538,2448.57854 132.708321,2452.9247 137.759417,2453.2534 C139.943903,2453.39668 141.973361,2452.72804 143.630752,2451.55652 L146.60729,2455.36046 L172.511068,2488.45814 C171.865587,2489.01721 171.332855,2489.69147 170.887501,2490.43034 L70.5110679,2437.14142 C70.9197782,2436.30141 71.1875539,2435.37992 71.3707689,2434.43034 L71.3707689,2434.43034 Z M-104.880744,2470.43034 C-105.802554,2467.0339 -108.237149,2464.25755 -111.488932,2462.89333 L-90.1855144,2406.72373 C-89.5917106,2406.90975 -88.9781133,2407.0535 -88.3277568,2407.09578 C-84.5698271,2407.341 -81.2643194,2404.90007 -80.277474,2401.43034 L-55.4197165,2407.05069 L49.5110679,2430.78353 C49.4347217,2431.20914 49.3272715,2431.62912 49.2961675,2432.07164 C49.2339595,2433.02434 49.3357544,2433.94039 49.5054126,2434.83672 L-15.0551972,2449.72189 L-104.880744,2470.43034 Z M-198.880739,2491.66472 C-199.367042,2491.54002 -199.867482,2491.4465 -200.387713,2491.40965 C-202.680689,2491.25945 -204.812506,2492.04732 -206.435401,2493.43034 L-299.488932,2394.34008 C-297.843418,2392.65381 -296.737927,2390.42623 -296.571114,2387.89258 C-296.54284,2387.4533 -296.590905,2387.03386 -296.616351,2386.60875 L-168.557479,2373.43034 C-168.172961,2375.68909 -166.612267,2377.55674 -164.488932,2378.35878 L-190.602277,2464.39534 L-198.880739,2491.66472 Z M-516.020067,2377.2151 C-515.9777,2376.96726 -515.915561,2376.72795 -515.898614,2376.47156 C-515.825178,2375.35482 -516.062434,2374.30075 -516.488932,2373.34924 L-475.754171,2351.43034 C-474.655446,2353.21941 -472.760214,2354.47004 -470.520396,2354.61818 C-468.879368,2354.72644 -467.354145,2354.20225 -466.125493,2353.28208 L-430.573667,2395.7268 L-430.488932,2395.82651 C-431.220474,2396.53872 -431.779723,2397.42755 -432.101715,2398.43034 L-490.257915,2383.73038 L-516.020067,2377.2151 Z M-377.547007,2195.43034 C-376.978917,2196.74437 -375.87948,2197.7736 -374.488932,2198.23605 L-401.319156,2308.26191 C-401.641357,2308.19988 -401.955078,2308.12092 -402.291409,2308.09837 C-404.696605,2307.94328 -406.906785,2308.87099 -408.500827,2310.43034 L-489.488932,2236.39925 C-488.96889,2235.71404 -488.635384,2234.8822 -488.576032,2233.96576 C-488.544942,2233.50895 -488.607121,2233.07188 -488.706042,2232.64891 L-429.147071,2212.70727 L-377.547007,2195.43034 Z M-351.932703,2166.57391 C-349.513504,2166.7327 -347.261832,2165.90192 -345.56385,2164.43034 L-265.488932,2248.28484 C-265.818307,2248.63643 -266.110768,2249.01637 -266.366318,2249.43034 L-367.816505,2194.59346 C-367.583671,2194.0604 -367.418984,2193.49049 -367.379232,2192.88087 C-367.259975,2191.06054 -368.114645,2189.416 -369.488932,2188.4151 L-355.57002,2165.50213 C-354.476837,2166.09757 -353.25588,2166.48885 -351.932703,2166.57391 L-351.932703,2166.57391 Z M-286.053325,2122.39939 C-283.757825,2122.54743 -281.663288,2121.63129 -280.191451,2120.10906 L-253.488932,2142.55988 C-254.295612,2143.61567 -254.819246,2144.90328 -254.912651,2146.32217 C-254.929634,2146.5903 -254.895669,2146.85006 -254.884347,2147.11261 L-330.884913,2155.20976 L-342.362411,2156.43034 C-342.540729,2155.31869 -342.922841,2154.26849 -343.488932,2153.33002 L-291.527426,2119.43034 C-290.265043,2121.10061 -288.32335,2122.25136 -286.053325,2122.39939 L-286.053325,2122.39939 Z M-209.340217,2095.43034 C-208.710058,2097.44806 -207.323145,2099.13567 -205.488932,2100.13741 L-222.798616,2137.2561 C-223.212158,2137.10242 -223.64258,2136.98574 -224.103946,2136.95444 C-225.988797,2136.82922 -227.676724,2137.85658 -228.526313,2139.43034 L-278.488932,2117.51714 C-278.249809,2116.8569 -278.064137,2116.1682 -278.019126,2115.42827 C-277.974115,2114.75665 -278.050071,2114.10779 -278.173853,2113.47316 L-248.0725,2105.58441 L-209.340217,2095.43034 Z M-206.747415,1895.34716 C-203.640874,1895.38395 -200.870329,1893.84439 -199.227364,1891.43034 L-138.488932,1928.07695 C-139.072654,1929.14672 -139.459904,1930.34384 -139.545327,1931.64001 C-139.61936,1932.76921 -139.457057,1933.85879 -139.123908,1934.87196 L-207.086259,1960.43034 C-207.726929,1959.12851 -208.971254,1958.17761 -210.488932,1957.94554 L-208.823188,1930.09762 L-206.747415,1895.34716 Z M-0.488932106,1762.69869 L-12.0989709,1958.55757 C-17.3468785,1958.4361 -21.9058388,1961.70159 -23.6211193,1966.43034 L-122.574373,1934.70762 C-122.429779,1934.16243 -122.330548,1933.60311 -122.290855,1933.0212 C-122.100899,1930.11728 -123.385233,1927.46478 -125.488932,1925.75294 L-3.99604272,1761.43034 C-2.96970962,1762.10547 -1.78460676,1762.5518 -0.488932106,1762.69869 L-0.488932106,1762.69869 Z M186.511068,1873.13656 C185.915376,1874.1874 185.517307,1875.3682 185.435435,1876.65351 C185.345093,1878.06029 185.641527,1879.39079 186.186402,1880.59136 L116.738888,1916.43034 C115.722542,1914.7552 113.943935,1913.58289 111.840663,1913.44447 C110.564584,1913.35972 109.359084,1913.67046 108.328622,1914.2665 L5.51106789,1761.17893 C6.17169305,1760.6874 6.75326904,1760.10548 7.23038721,1759.43034 L142.065675,1844.94729 L186.511068,1873.13656 Z M451.099718,2030.43034 L353.511068,1904.62114 C354.767477,1903.53937 355.709074,1902.09417 356.16002,1900.43034 L443.561265,1919.57288 L448.71169,1920.70292 C448.69751,1920.81649 448.663476,1920.92154 448.657804,1921.03511 C448.473455,1923.82898 450.589213,1926.24238 453.379972,1926.42694 C453.402661,1926.42694 453.419678,1926.4241 453.439531,1926.4241 L456.511068,2028.48259 C454.505919,2028.62455 452.659593,2029.31734 451.099718,2030.43034 L451.099718,2030.43034 Z M231.511068,2427.34001 L285.002049,2405.43034 C286.430542,2408.49725 289.411498,2410.73488 293.032036,2410.97101 C296.556777,2411.19871 299.726509,2409.47551 301.56918,2406.74875 C302.622939,2408.10088 304.206396,2409.02854 306.049067,2409.15504 L343.511068,2431.02255 C342.792595,2432.35219 342.330519,2433.83926 342.178372,2435.43034 L231.787187,2429.111 C231.778734,2428.49537 231.694208,2427.90223 231.511068,2427.34001 L231.511068,2427.34001 Z M177.835312,2486.97063 C176.701677,2486.89685 175.61003,2487.06428 174.599555,2487.43034 L157.511068,2445.5826 C160.469713,2444.1751 162.625018,2441.25793 162.851745,2437.71362 C162.910526,2436.77718 162.792964,2435.88046 162.594228,2435.00645 L182.411835,2429.43034 C183.32714,2432.234 185.611203,2434.41904 188.511068,2435.1455 L178.451113,2487.07563 C178.246779,2487.04441 178.050842,2486.98482 177.835312,2486.97063 L177.835312,2486.97063 Z M-80.3019326,2400.10346 C-80.2538874,2399.8359 -80.1860588,2399.57961 -80.1662755,2399.30361 C-80.0504017,2397.52366 -80.5647682,2395.862 -81.4889321,2394.48479 L-48.1427239,2369.68382 C-47.472917,2370.40199 -46.5459269,2370.88359 -45.4861059,2370.95118 C-44.1210565,2371.04131 -42.8718808,2370.43297 -42.0890263,2369.43034 L50.5110679,2426.85336 C50.0447467,2427.65884 49.6575587,2428.50939 49.4116802,2429.43034 L0.289683061,2418.32539 L-80.3019326,2400.10346 Z M-156.625056,2374.43034 L-95.8614565,2396.13777 C-96.026243,2396.69167 -96.1455712,2397.2683 -96.1825061,2397.8705 C-96.4069567,2401.26211 -94.4295187,2404.2674 -91.4889321,2405.56837 L-112.89413,2462.16901 C-113.823185,2461.85939 -114.786333,2461.61795 -115.811987,2461.54977 C-117.630321,2461.43331 -119.354897,2461.7827 -120.934574,2462.43034 L-159.488932,2377.54926 C-158.216098,2376.86753 -157.207491,2375.77392 -156.625056,2374.43034 L-156.625056,2374.43034 Z M-419.490375,2398.43034 C-419.983883,2395.67152 -422.323794,2393.48454 -425.293353,2393.29485 C-425.769844,2393.26417 -426.232153,2393.29764 -426.685954,2393.36459 L-432.488932,2368.16135 C-430.211419,2367.50582 -428.39338,2365.73169 -427.775076,2363.43034 L-316.488932,2385.32243 C-316.537148,2385.62091 -316.6194,2385.91102 -316.639254,2386.22065 C-316.670452,2386.66697 -316.622236,2387.09656 -316.593874,2387.53451 L-362.288781,2392.37152 L-419.490375,2398.43034 Z M-465.488932,2353.41653 C-464.888842,2352.85387 -464.394482,2352.18431 -464.040143,2351.43034 L-441.016681,2360.2641 C-441.188135,2360.78175 -441.313868,2361.3219 -441.353874,2361.89019 C-441.602483,2365.64594 -438.71062,2368.88968 -434.898618,2369.13443 C-434.364252,2369.16819 -433.844173,2369.12881 -433.338383,2369.04722 L-427.488932,2394.46819 C-428.200468,2394.67638 -428.849137,2395.00553 -429.434939,2395.43034 L-446.391775,2375.66973 L-465.488932,2353.41653 Z M339.511068,1898.97765 L156.344314,1918.43034 C156.20544,1917.78495 155.922023,1917.19074 155.511068,1916.69888 L187.868789,1883.11866 C189.195181,1884.27866 190.87301,1885.05484 192.766236,1885.17993 C196.991983,1885.45287 200.648063,1882.49602 201.421792,1878.43034 L339.508234,1897.76079 C339.502565,1897.83186 339.479892,1897.89157 339.474224,1897.9598 C339.45155,1898.30667 339.491229,1898.63931 339.511068,1898.97765 L339.511068,1898.97765 Z M207.901891,2070.43034 C207.591027,2068.71359 206.73474,2067.19167 205.511068,2066.0227 L310.430324,1943.75509 L343.311204,1905.43034 C344.594222,1906.42425 346.179626,1907.05956 347.917636,1907.17533 C349.907162,1907.30521 351.758213,1906.70379 353.27014,1905.64494 L450.511068,2030.75874 C448.383066,2032.55172 446.950268,2035.15791 446.755272,2038.15093 C446.718533,2038.70153 446.766576,2039.23237 446.811792,2039.76885 L362.174966,2050.62842 L207.901891,2070.43034 Z M420.336871,2301.43034 L277.345243,2263.15461 L220.511068,2247.93922 C220.601546,2247.52154 220.694851,2247.10386 220.723125,2246.66914 C220.762709,2246.05541 220.737262,2245.45588 220.658094,2244.87057 L411.5577,2208.43034 C412.258902,2211.17792 414.619807,2213.29756 417.591436,2213.49077 C417.795011,2213.50498 417.992931,2213.47657 418.193679,2213.47089 L425.511068,2297.04047 C423.09927,2297.40984 421.108759,2299.12317 420.336871,2301.43034 L420.336871,2301.43034 Z M401.997375,2360.2286 C401.197641,2359.9347 400.358344,2359.71146 399.462529,2359.65494 C396.201422,2359.443 393.245515,2360.97181 391.453885,2363.43034 L219.511068,2250.21631 C219.844526,2249.65678 220.11864,2249.06334 220.322106,2248.43034 L263.001904,2259.80176 L420.035192,2301.63356 C419.978674,2301.9105 419.913678,2302.18179 419.893896,2302.47003 C419.715864,2305.18007 421.219251,2307.61034 423.511068,2308.74635 L412.603035,2334.84919 L401.997375,2360.2286 Z M354.310118,2424.8464 C350.277424,2424.57843 346.589018,2426.42284 344.2947,2429.43034 L311.511068,2405.85495 C312.030323,2405.00544 312.380256,2404.03619 312.447985,2402.97288 C312.49596,2402.22884 312.391544,2401.51616 312.196823,2400.83769 L334.866266,2392.61909 L390.545104,2372.43034 C391.177241,2373.97828 392.190353,2375.32667 393.511068,2376.32442 L359.717146,2426.66515 C358.131159,2425.656 356.310944,2424.97753 354.310118,2424.8464 L354.310118,2424.8464 Z M147.693696,2444.44781 C147.716208,2444.09913 147.673998,2443.76759 147.659928,2443.43034 C149.199183,2444.96226 151.230888,2445.99401 153.54962,2446.14549 C154.877825,2446.23695 156.152565,2446.02545 157.328815,2445.59389 L173.824453,2486.0553 L174.511068,2487.73869 C174.100225,2487.93876 173.711893,2488.1674 173.34326,2488.43034 L144.511068,2450.88985 C146.314839,2449.32078 147.52767,2447.04578 147.693696,2444.44781 L147.693696,2444.44781 Z M70.5649156,2431.85653 L155.148304,2426.43034 C155.210654,2426.8685 155.343857,2427.27474 155.511068,2427.66937 C155.032107,2427.55911 154.547478,2427.45174 154.040176,2427.41692 C148.867963,2427.07162 144.398605,2431.08758 144.061348,2436.38609 C144.035841,2436.76912 144.078353,2437.13763 144.098191,2437.50905 C142.584788,2436.01177 140.592423,2435.00198 138.325152,2434.85109 C133.660241,2434.53771 129.61883,2437.85726 128.728926,2442.43034 L70.5110679,2433.38573 C70.5309065,2433.20582 70.5875883,2433.04043 70.5989247,2432.86052 C70.6215974,2432.52102 70.5734179,2432.19313 70.5649156,2431.85653 L70.5649156,2431.85653 Z M-522.181231,2310.43034 L-519.314557,2312.52443 L-475.488932,2344.52796 C-476.082622,2345.44307 -476.481242,2346.50133 -476.557574,2347.66627 C-476.633906,2348.79753 -476.390775,2349.86703 -475.946921,2350.82985 L-516.722111,2372.43034 C-517.79358,2370.71522 -519.639673,2369.5194 -521.819363,2369.37624 C-521.946582,2369.36782 -522.068147,2369.39308 -522.195367,2369.39027 L-525.488932,2312.22968 C-524.17716,2312.05564 -523.018051,2311.39036 -522.181231,2310.43034 L-522.181231,2310.43034 Z M-249.488932,2154.23057 L-260.197575,2246.69084 C-262.160353,2246.57733 -263.986787,2247.24987 -265.375786,2248.43034 L-345.488932,2164.50015 C-344.105614,2163.05293 -343.173934,2161.15736 -343.03475,2159.00072 C-343.009185,2158.62614 -343.051793,2158.26576 -343.071676,2157.8997 L-255.272167,2148.43034 C-254.777922,2151.36735 -252.479967,2153.7056 -249.488932,2154.23057 L-249.488932,2154.23057 Z M-205.017244,2100.05604 C-204.225527,2100.3787 -203.38557,2100.61645 -202.48602,2100.67589 C-199.219833,2100.88817 -196.291332,2099.12768 -194.832757,2096.43034 L-169.361607,2108.44807 L-69.4889321,2155.56796 C-69.7329739,2156.15951 -69.9060733,2156.77936 -70.011068,2157.43034 L-220.156347,2141.13594 C-220.122294,2139.38111 -221.053058,2137.83007 -222.488932,2136.98663 L-212.837931,2116.59102 L-205.017244,2100.05604 Z M-207.107592,1966.43034 L-158.905985,2008.89845 L-129.488932,2034.81708 C-130.114706,2035.64569 -130.516788,2036.65811 -130.590408,2037.76669 C-130.66686,2038.95162 -130.355389,2040.06868 -129.774919,2041.00475 L-195.005514,2088.43034 C-196.375988,2086.74485 -198.400552,2085.59386 -200.745082,2085.44397 C-200.965943,2085.42983 -201.181142,2085.46094 -201.402003,2085.46377 L-209.488932,1967.60679 C-208.577171,1967.45691 -207.75885,1967.03836 -207.107592,1966.43034 L-207.107592,1966.43034 Z M-138.982148,1935.43034 C-137.718342,1938.31186 -134.96069,1940.42554 -131.595275,1940.64654 C-131.399314,1940.65788 -131.214713,1940.62671 -131.021592,1940.62671 L-126.488932,2031.906 C-127.698777,2032.059 -128.783662,2032.6115 -129.627146,2033.43034 L-180.239011,1988.88154 L-207.488932,1964.90004 C-206.99477,1964.22854 -206.673848,1963.41537 -206.614208,1962.52003 C-206.580128,1961.99869 -206.653968,1961.50002 -206.784609,1961.02118 L-199.710138,1958.34933 L-138.982148,1935.43034 Z M0.117989578,1762.54091 C1.63156618,1762.55222 3.06577921,1762.16507 4.28741126,1761.43034 L107.511068,1914.5674 C106.153384,1915.62145 105.218028,1917.20677 105.096148,1919.05489 C105.042294,1919.88287 105.161339,1920.68542 105.410768,1921.42863 L-1.7357166,1965.43034 C-3.46470859,1961.64649 -7.07858531,1958.88561 -11.4889321,1958.47021 L-2.26291743,1802.71922 L0.117989578,1762.54091 Z M259.932395,2148.43034 L249.826783,2142.42173 L220.063217,2124.71408 C220.444294,2123.97638 220.684232,2123.14858 220.740688,2122.26446 C220.966512,2118.78994 218.33002,2115.78845 214.843866,2115.56039 C214.234142,2115.52097 213.649823,2115.59699 213.076795,2115.72088 L202.511068,2079.54534 C203.261932,2079.28349 203.939403,2078.88648 204.574532,2078.43034 L260.511068,2147.77711 C260.299358,2147.97702 260.107408,2148.19383 259.932395,2148.43034 L259.932395,2148.43034 Z M411.310375,2207.17253 L220.440126,2243.43034 C219.89458,2241.15752 218.47277,2239.22957 216.511068,2238.03096 L252.926935,2171.26242 L261.330596,2155.853 C261.833742,2156.07067 262.370808,2156.22615 262.950273,2156.2629 C265.022215,2156.39859 266.856718,2155.20846 267.670796,2153.43034 L411.511068,2204.49828 C411.383868,2204.94776 411.296242,2205.4142 411.262322,2205.90325 C411.234055,2206.33294 411.256668,2206.75698 411.310375,2207.17253 L411.310375,2207.17253 Z M311.689704,2400.43034 C311.065833,2398.99555 309.942301,2397.83974 308.511068,2397.19636 L383.511068,2374.43034 L345.39002,2388.22888 L311.689704,2400.43034 Z M307.511068,2408.66739 C309.030129,2408.40251 310.363591,2407.59349 311.311577,2406.43034 L344.511068,2430.26048 C344.476803,2430.31806 344.442539,2430.37276 344.405419,2430.43034 L335.71079,2425.3027 L307.511068,2408.66739 Z M182.164942,2426.43034 L164.714849,2426.05446 C164.555148,2423.62831 162.641598,2421.63215 160.146283,2421.47269 C159.969473,2421.46129 159.798365,2421.48408 159.624406,2421.48692 L151.511068,2358.36435 C152.537712,2358.19635 153.50732,2357.86318 154.425596,2357.43034 L186.511068,2419.46798 C184.084196,2420.87754 182.375975,2423.42329 182.164942,2426.43034 L182.164942,2426.43034 Z M-305.488932,2377.8413 L-303.736963,2364.18751 C-303.629062,2364.19604 -303.52684,2364.23299 -303.4161,2364.24152 C-297.288468,2364.64226 -291.992808,2360.33353 -290.913799,2354.43034 L-168.497451,2372.46107 C-168.497451,2372.49234 -168.508809,2372.5236 -168.511648,2372.56055 C-168.525846,2372.78224 -168.497451,2372.9954 -168.488932,2373.21425 L-297.072666,2386.43034 C-297.694516,2382.07898 -301.084874,2378.59448 -305.488932,2377.8413 L-305.488932,2377.8413 Z M-21.4889321,1977.70567 L-57.7968627,2008.43034 C-59.2538105,2006.87127 -61.2726433,2005.82813 -63.5710067,2005.67871 C-65.6858399,2005.53775 -67.6482018,2006.20028 -69.2350326,2007.35619 L-124.488932,1938.85861 C-123.452692,1937.93952 -122.670571,1936.75823 -122.170804,1935.43034 L-23.6291772,1967.09102 C-23.8550606,1967.88606 -24.0075318,1968.7093 -24.0640027,1969.56354 C-24.2644742,1972.62812 -23.2536461,1975.47279 -21.4889321,1977.70567 L-21.4889321,1977.70567 Z M199.951813,2063.75237 C199.090753,2063.69568 198.266514,2063.8119 197.473433,2064.00747 L154.511068,1922.49393 C155.856474,1921.92138 156.844994,1920.64023 156.946961,1919.0813 C156.952626,1918.9906 156.938464,1918.9084 156.938464,1918.82337 L339.964709,1899.43034 C340.259283,1901.30105 341.182656,1902.96202 342.511068,1904.22333 L204.39307,2065.43034 C203.155296,2064.47231 201.628614,2063.86291 199.951813,2063.75237 L199.951813,2063.75237 Z M259.511068,2149.61241 C259.386188,2149.87358 259.278337,2150.14622 259.198869,2150.43034 L256.911299,2149.99411 L201.864878,2139.51311 C201.881907,2139.37822 201.921641,2139.25195 201.932994,2139.11706 C202.043683,2137.38075 201.484562,2135.76785 200.511068,2134.49073 L208.446608,2127.45939 L209.726625,2126.32289 C210.779588,2127.38477 212.184485,2128.09938 213.785216,2128.20557 C216.09833,2128.36055 218.181551,2127.22692 219.410481,2125.43034 L242.513233,2139.36388 L259.511068,2149.61241 Z M215.848718,2238.43034 C214.862608,2237.95062 213.777886,2237.63554 212.617093,2237.56174 C211.783126,2237.50497 210.98015,2237.61283 210.199714,2237.78315 L203.511068,2212.7469 C205.567812,2212.01738 207.103327,2210.10702 207.25547,2207.77655 C207.345629,2206.3459 206.886383,2205.02313 206.083407,2203.97001 L259.885592,2155.43034 C260.079997,2155.61769 260.285671,2155.78233 260.511068,2155.93561 L235.13422,2202.81187 L215.848718,2238.43034 Z M161.511068,2432.13026 C163.328592,2431.71073 164.749412,2430.10008 164.87602,2428.05817 L164.87602,2428.0523 L181.897724,2427.44208 L182.322563,2427.43034 C182.356325,2427.84987 182.423849,2428.25767 182.511068,2428.66253 L162.594267,2434.43034 C162.335425,2433.60595 161.961229,2432.84317 161.511068,2432.13026 L161.511068,2432.13026 Z M70.7890264,2431.43034 C70.3245772,2426.84086 67.0054641,2423.02897 62.5110679,2421.92174 L78.2655268,2346.43332 C78.344823,2346.44178 78.4212872,2346.46713 78.5034154,2346.47277 C79.7410028,2346.55165 80.8907979,2346.14595 81.7885444,2345.43034 L156.511068,2423.08813 C155.825722,2423.86291 155.366937,2424.84898 155.293305,2425.96466 C155.287641,2426.03228 155.301801,2426.09707 155.298969,2426.16187 L147.400499,2426.65491 L70.7890264,2431.43034 Z M-41.130408,2366.66543 L42.4734652,2345.43034 C43.5038692,2348.76471 46.4793371,2351.29296 50.1774993,2351.53536 C50.5303774,2351.55791 50.8663173,2351.51563 51.2107263,2351.49872 L58.5110679,2421.7036 C55.4029178,2422.14612 52.7182214,2423.919 51.0102916,2426.43034 L-41.4889321,2368.96256 C-41.2715592,2368.51159 -41.130408,2368.02116 -41.0965317,2367.49127 C-41.0767705,2367.20942 -41.0908856,2366.93601 -41.130408,2366.66543 L-41.130408,2366.66543 Z M-87.4716583,2391.61153 C-88.8734247,2391.51805 -90.1985763,2391.83251 -91.3790112,2392.3991 L-128.488932,2324.88649 C-127.912903,2324.50404 -127.424838,2324.0111 -127.041764,2323.43034 L-48.7301267,2365.94195 C-48.891869,2366.33574 -49.0110475,2366.75218 -49.0422609,2367.19979 C-49.096175,2368.03552 -48.8861938,2368.82875 -48.4889321,2369.49734 L-81.9525578,2394.43034 C-83.2833846,2392.83255 -85.2328047,2391.75602 -87.4716583,2391.61153 L-87.4716583,2391.61153 Z M-158.488932,2366.77264 L-147.796069,2348.54158 L-133.657445,2324.43034 C-133.087384,2324.70726 -132.455238,2324.88527 -131.786405,2324.93048 C-130.928493,2324.98417 -130.121377,2324.80615 -129.390459,2324.47838 L-92.4889321,2391.80504 C-93.8519971,2392.65556 -94.9243877,2393.91862 -95.5565338,2395.43034 L-155.912372,2373.83393 C-155.791023,2373.40443 -155.706361,2372.95798 -155.675318,2372.49175 C-155.522925,2370.13516 -156.671512,2368.0131 -158.488932,2366.77264 L-158.488932,2366.77264 Z M-427.429291,2362.02719 L-313.434833,2353.43034 C-312.852621,2358.74133 -308.808371,2363.04546 -303.488932,2363.92397 L-305.241251,2377.62359 C-305.312253,2377.61788 -305.380414,2377.59506 -305.454256,2377.59221 C-310.498208,2377.25849 -314.900306,2380.66129 -316.050532,2385.43034 L-427.488932,2363.04546 C-427.466212,2362.88288 -427.420771,2362.73171 -427.40941,2362.56342 C-427.39805,2362.38087 -427.426451,2362.20688 -427.429291,2362.02719 L-427.429291,2362.02719 Z M-463.009914,2347.98064 C-462.942288,2346.95261 -463.131078,2345.9726 -463.488932,2345.07731 L-409.619152,2319.43034 C-409.08378,2320.416 -408.368071,2321.29152 -407.488932,2321.98064 L-430.901632,2355.48748 C-431.817401,2354.92545 -432.85997,2354.54418 -434.003977,2354.47075 C-436.900626,2354.28153 -439.476051,2355.93936 -440.628511,2358.43034 L-463.32832,2349.56504 C-463.167708,2349.0595 -463.046545,2348.53419 -463.009914,2347.98064 L-463.009914,2347.98064 Z M-520.754608,2307.43034 L-410.104177,2315.75303 C-410.132529,2316.9036 -409.911381,2318.00377 -409.488932,2319.00876 L-463.695651,2344.43034 C-464.767367,2342.53233 -466.749191,2341.18581 -469.1081,2341.03184 C-471.322413,2340.89187 -473.341095,2341.83808 -474.665147,2343.39735 L-521.488932,2309.39834 C-521.120353,2308.81046 -520.868017,2308.147 -520.754608,2307.43034 L-520.754608,2307.43034 Z M-194.488932,2088.86905 L-129.199599,2041.43034 C-128.264303,2042.52225 -126.915209,2043.25208 -125.370554,2043.35392 C-124.472102,2043.41049 -123.618999,2043.23228 -122.845254,2042.89565 L-65.4889321,2152.16875 C-66.8011808,2152.94384 -67.8781884,2154.07536 -68.6065856,2155.43034 L-193.794546,2096.3229 C-193.468609,2095.53084 -193.230534,2094.69352 -193.171015,2093.79397 C-193.054811,2091.97789 -193.567807,2090.28062 -194.488932,2088.86905 L-194.488932,2088.86905 Z M-130.488932,1941.05545 C-128.905338,1940.90256 -127.45276,1940.32217 -126.222341,1939.43034 L-70.4889321,2008.21977 C-72.1551241,2009.68916 -73.2630705,2011.78141 -73.4197211,2014.16527 C-73.493774,2015.29775 -73.3314271,2016.39059 -73.0010369,2017.40982 L-121.098445,2035.43034 C-121.927269,2033.675 -123.644728,2032.39531 -125.732452,2032.25941 C-125.800809,2032.25658 -125.869166,2032.27073 -125.94037,2032.2679 L-129.711376,1956.61284 L-130.488932,1941.05545 Z M105.525775,1922.43034 C105.789086,1922.95636 106.111854,1923.44863 106.511068,1923.87901 L54.647285,1978.14624 C53.9734352,1977.62303 53.1410325,1977.28829 52.2236908,1977.2264 C50.1002146,1977.08857 48.2315555,1978.46972 47.6879456,1980.43034 L-0.891527466,1971.98871 C-0.849057942,1971.70179 -0.766950195,1971.43175 -0.747131084,1971.13639 C-0.633879019,1969.40643 -0.919840482,1967.7468 -1.48893211,1966.22219 L17.4892826,1958.45566 L105.525775,1922.43034 Z M390.508219,2371.25521 L307.305739,2396.17585 C307.090438,2396.13921 306.880803,2396.08282 306.657003,2396.06873 C305.03658,2395.96442 303.529474,2396.49723 302.350984,2397.43034 C301.059179,2394.01644 297.872158,2391.48491 293.976911,2391.23119 C292.296997,2391.12125 290.707736,2391.49055 289.282784,2392.15585 L240.39814,2299.23343 L216.511068,2253.82374 C217.545079,2253.21764 218.431779,2252.39729 219.140006,2251.43034 L391.511068,2364.37385 C390.79151,2365.57477 390.304249,2366.94202 390.207931,2368.43614 C390.145607,2369.41436 390.278753,2370.35311 390.508219,2371.25521 L390.508219,2371.25521 Z M160.93073,2351.3238 C161.2186,2350.44466 161.438737,2349.53149 161.500827,2348.56727 C161.768941,2344.41831 159.728446,2340.68623 156.511068,2338.53943 L159.753847,2333.19937 L208.183857,2253.43034 C209.267605,2254.02305 210.475533,2254.41441 211.787885,2254.50232 C213.300617,2254.60158 214.731504,2254.27261 216.01281,2253.6714 L288.511068,2392.82763 C286.733043,2393.86842 285.341668,2395.49057 284.528857,2397.43034 L229.359286,2376.85 L160.93073,2351.3238 Z M-266.740605,2256.43034 C-266.028064,2257.82646 -264.902703,2258.98137 -263.488932,2259.68227 L-296.330827,2337.36243 L-297.753081,2340.71934 C-298.844512,2340.29938 -299.992494,2339.98156 -301.222474,2339.90211 C-306.507149,2339.55592 -311.16411,2342.74825 -313.02746,2347.43034 L-394.299487,2318.21125 C-394.124179,2317.6267 -393.99694,2317.02512 -393.957354,2316.39233 C-393.878183,2315.1835 -394.084594,2314.02858 -394.488932,2312.96447 L-339.199185,2288.49841 L-266.740605,2256.43034 Z M-66.4889321,2166.13475 L-102.891554,2227.79107 C-103.737009,2227.35582 -104.675775,2227.08166 -105.682403,2227.01383 C-107.972765,2226.86404 -110.05954,2227.83347 -111.473344,2229.43034 L-220.488932,2144.06396 C-220.17224,2143.57501 -219.943204,2143.0267 -219.824444,2142.43034 L-70.2468228,2158.69868 C-70.4249621,2161.77938 -68.8952263,2164.54353 -66.4889321,2166.13475 L-66.4889321,2166.13475 Z M-21.2279232,1978.43034 C-19.2847144,1980.57582 -16.5743753,1982.00898 -13.4889321,1982.29562 L-15.0372944,2010.24647 C-18.5457874,2010.26066 -21.4958547,2012.90562 -21.8907012,2016.43034 L-55.7008416,2014.67366 C-55.6952009,2012.67859 -56.3523383,2010.83677 -57.4889321,2009.34685 L-36.6410377,1991.57 L-21.2279232,1978.43034 Z M259.511068,2154.68218 L205.118616,2203.43034 C204.187199,2202.53515 202.962401,2201.9336 201.572397,2201.84237 C201.401495,2201.83097 201.239138,2201.85663 201.071084,2201.85948 L195.511068,2145.4765 C198.174293,2145.04601 200.353295,2143.06461 201.016965,2140.43034 L258.554016,2151.27531 C258.548319,2151.33232 258.528381,2151.38079 258.525532,2151.44066 C258.448626,2152.65516 258.833156,2153.77843 259.511068,2154.68218 L259.511068,2154.68218 Z M157.487893,2422.43034 L82.5110679,2344.7142 C83.0708509,2344.0798 83.4544585,2343.30441 83.6135847,2342.43034 L92.0444283,2343.17753 L139.216803,2347.34205 C138.907075,2353.41261 143.550148,2358.62884 149.685029,2359.02358 C150.276069,2359.06306 150.85006,2359.01512 151.421209,2358.96437 L159.511068,2421.48014 C158.75806,2421.64086 158.070408,2421.96511 157.487893,2422.43034 L157.487893,2422.43034 Z M164.612998,2426.60634 L175.511068,2426.85534 L164.511068,2427.25434 C164.55637,2427.04134 164.590347,2426.82534 164.612998,2426.60634 L164.612998,2426.60634 Z M-161.524598,2365.76201 C-161.85171,2365.74227 -162.167638,2365.77047 -162.483567,2365.79585 L-171.488932,2306.25205 C-170.496413,2305.98415 -169.657664,2305.32428 -169.157211,2304.43034 L-153.796927,2311.00089 L-136.367729,2318.45127 C-136.499133,2318.85452 -136.599783,2319.26624 -136.627741,2319.70897 C-136.747962,2321.54196 -135.878459,2323.20011 -134.488932,2324.18992 L-159.081043,2366.43034 C-159.821938,2366.05529 -160.646708,2365.81841 -161.524598,2365.76201 L-161.524598,2365.76201 Z M-290.488932,2348.2317 L-233.990898,2326.58948 L-176.14465,2304.43034 C-175.546697,2305.6005 -174.384639,2306.44119 -172.985656,2306.53208 C-172.84745,2306.54344 -172.714885,2306.52356 -172.576679,2306.51788 L-169.38384,2327.5949 L-163.488932,2366.4941 C-165.908947,2367.03373 -167.835369,2368.9395 -168.362808,2371.43034 L-289.964314,2353.4122 C-289.94457,2353.22759 -289.888159,2353.06002 -289.874057,2352.87256 C-289.769697,2351.24798 -289.99816,2349.68019 -290.488932,2348.2317 L-290.488932,2348.2317 Z M-263.160742,2260.37011 C-262.531803,2260.59385 -261.877366,2260.76661 -261.1776,2260.81193 C-258.415366,2260.99319 -255.942105,2259.6026 -254.545406,2257.43034 L-190.963037,2293.13807 L-176.488932,2301.26633 C-176.65325,2301.65717 -176.772238,2302.07349 -176.800569,2302.52097 C-176.828899,2302.94296 -176.772238,2303.34796 -176.670248,2303.73596 L-291.565003,2347.43034 C-292.70956,2344.71998 -294.803191,2342.50524 -297.488932,2341.2506 L-290.494107,2324.77033 L-263.160742,2260.37011 Z M151.511068,1922.59209 L127.644343,1990.92563 L119.435748,2014.43034 C119.125351,2014.34811 118.800844,2014.28856 118.465051,2014.26587 C118.383219,2014.2602 118.304209,2014.27722 118.216733,2014.27438 L112.511068,1925.47595 C115.386475,1925.09314 117.686236,1922.72253 117.88094,1919.7054 C117.883762,1919.69406 117.88094,1919.68272 117.88094,1919.67137 L149.264921,1919.43034 C149.420119,1920.81981 150.28641,1922.00795 151.511068,1922.59209 L151.511068,1922.59209 Z M192.678245,2067.43034 L177.727395,2057.84711 L121.97827,2022.11418 C122.318966,2021.48113 122.540418,2020.77744 122.588683,2020.01723 C122.733479,2017.79593 121.441675,2015.82615 119.511068,2014.96985 L151.789118,1923.43034 C152.004892,1923.47839 152.220666,1923.5236 152.447796,1923.53773 C152.79417,1923.56034 153.132026,1923.5236 153.458526,1923.46143 L196.511068,2064.53361 C194.963743,2065.09035 193.635031,2066.11056 192.678245,2067.43034 L192.678245,2067.43034 Z M195.0957,2131.82705 C192.914528,2131.82142 190.938107,2132.81878 189.684005,2134.43034 L102.511068,2076.20286 C103.113947,2075.2055 103.520606,2074.07571 103.600232,2072.83887 C103.603076,2072.80506 103.594544,2072.77125 103.597388,2072.73744 L191.336235,2072.43034 C191.552362,2076.32683 194.546852,2079.53586 198.511068,2079.99792 L196.557398,2109.65119 L195.0957,2131.82705 Z M206.118832,2239.43034 L195.590541,2229.57403 C196.661773,2228.22637 197.367688,2226.54393 197.485798,2224.66856 C197.664337,2221.82005 196.472247,2219.22688 194.511068,2217.51607 L198.999257,2211.43034 C199.760107,2211.94387 200.639066,2212.28717 201.611416,2212.34958 C202.086604,2212.38363 202.542564,2212.32972 202.987537,2212.24461 L209.511068,2237.26275 C208.211855,2237.69683 207.063714,2238.44868 206.118832,2239.43034 L206.118832,2239.43034 Z M151.046813,2336.00434 C149.008729,2335.87445 147.080889,2336.34037 145.370707,2337.1875 L124.158804,2298.30422 L97.5110679,2249.44176 C99.9109754,2247.98187 101.595716,2245.43483 101.830336,2242.43034 L120.633851,2243.02051 L203.697787,2245.62967 C203.745842,2248.54662 205.218577,2251.13319 207.511068,2252.68909 L155.756172,2337.43034 C154.345626,2336.64534 152.768302,2336.11729 151.046813,2336.00434 L151.046813,2336.00434 Z M-43.4889321,2363.19634 L-31.3826303,2325.42036 C-30.8876296,2325.54946 -30.3813147,2325.63927 -29.8551997,2325.67576 C-26.1893663,2325.91151 -22.9676191,2323.68031 -21.7513318,2320.43034 L42.5110679,2340.40165 C42.3752963,2340.92086 42.2762962,2341.45691 42.2423533,2342.0098 C42.1886103,2342.79563 42.2791247,2343.54778 42.4290392,2344.28309 L-41.3561864,2365.43034 C-41.7295583,2364.43122 -42.4989308,2363.62574 -43.4889321,2363.19634 L-43.4889321,2363.19634 Z M-126.051618,2319.88963 L-120.609171,2319.73859 L-37.68874,2317.43034 C-37.437637,2320.6106 -35.3836705,2323.30071 -32.4889321,2324.40069 L-35.7701999,2334.82487 L-44.5757346,2362.78607 C-44.7534817,2362.75187 -44.9255861,2362.70913 -45.1117973,2362.69773 C-46.5563451,2362.60369 -47.8598238,2363.31041 -48.6300613,2364.43034 L-126.488932,2321.67354 C-126.251936,2321.13779 -126.088296,2320.55931 -126.048796,2319.94092 C-126.048796,2319.92098 -126.051618,2319.90388 -126.051618,2319.88963 L-126.051618,2319.88963 Z M-21.8295083,2017.18692 C-21.8014321,2020.07293 -20.0438637,2022.56733 -17.4889321,2023.59744 L-59.2297768,2151.43034 C-59.7604165,2151.27994 -60.3191323,2151.18629 -60.8918862,2151.14657 C-60.9845376,2151.14089 -61.0743813,2151.16075 -61.1642251,2151.15792 L-63.4889321,2023.24272 C-59.3252358,2022.96178 -55.9055581,2019.70686 -55.4816079,2015.43034 L-37.636393,2016.36113 L-21.8295083,2017.18692 Z M48.5110679,1983.02011 L41.9992669,1986.50054 L-8.36729086,2013.43034 C-9.4422727,2011.63445 -11.2995712,2010.37247 -13.4889321,2010.11265 L-11.9468116,1981.98369 C-6.18918628,1982.1036 -1.26453123,1978.04357 -0.0966844665,1972.43034 L48.1874477,1980.99866 C48.1874477,1981.01864 48.1818195,1981.03577 48.1790054,1981.05005 C48.13398,1981.75242 48.2662422,1982.41196 48.5110679,1983.02011 L48.5110679,1983.02011 Z M111.349294,1925.85298 C111.480517,1925.86145 111.606034,1925.84169 111.737257,1925.84169 L114.093565,1961.94956 L117.511068,2014.24276 C116.053352,2014.45446 114.79247,2015.27022 113.982311,2016.43034 L56.1928568,1983.57421 C56.40966,1983.10564 56.5551463,1982.59756 56.592231,1982.0556 C56.6692532,1980.85313 56.2527629,1979.7297 55.5110679,1978.88854 L107.769189,1924.43034 C108.750508,1925.23763 109.980011,1925.76548 111.349294,1925.85298 L111.349294,1925.85298 Z M192.511068,2068.07735 C192.439992,2068.19976 192.351858,2068.30509 192.289312,2068.43034 L175.961795,2061.17692 L114.270903,2033.77164 C114.438642,2033.30478 114.563735,2032.82084 114.597851,2032.30274 C114.720102,2030.42106 113.881408,2028.70449 112.511068,2027.62274 L115.061265,2023.79961 C115.715162,2024.16684 116.448663,2024.40881 117.244712,2024.46289 C119.047192,2024.57961 120.693306,2023.7626 121.713954,2022.43034 L137.089056,2032.34259 L192.511068,2068.07735 Z M79.1855059,2336.72728 C78.6907909,2336.69611 78.2159782,2336.76129 77.7582247,2336.87181 L56.5110679,2273.99745 C57.3810839,2273.64039 58.1515884,2273.10763 58.7913061,2272.43034 L127.60787,2329.48116 L141.511068,2341.00921 C140.325458,2342.53665 139.574856,2344.39848 139.313282,2346.43034 L83.6436274,2341.49663 C83.6436274,2339.00002 81.718788,2336.89448 79.1855059,2336.72728 L79.1855059,2336.72728 Z M-169.488932,2299.88091 L-110.724416,2239.43034 C-110.071227,2239.99409 -109.319496,2240.43381 -108.488932,2240.7326 L-130.25534,2314.83147 C-130.483393,2314.78637 -130.708631,2314.73 -130.945131,2314.7159 C-133.011687,2314.5806 -134.864267,2315.7081 -135.770848,2317.43034 L-168.773802,2303.41842 C-168.692154,2303.14782 -168.633029,2302.86313 -168.616136,2302.56998 C-168.548565,2301.55242 -168.889237,2300.60814 -169.488932,2299.88091 L-169.488932,2299.88091 Z M-252.79237,2252.92729 L-113.217647,2235.43034 C-112.9723,2236.7608 -112.3688,2237.96671 -111.488932,2238.93766 L-170.338574,2299.62924 C-170.925152,2299.16782 -171.649916,2298.87342 -172.450821,2298.81964 C-173.824205,2298.73188 -175.067865,2299.38579 -175.815189,2300.43034 L-253.488932,2256.62993 C-253.082839,2255.79769 -252.823391,2254.87486 -252.758529,2253.89258 C-252.735968,2253.56422 -252.772629,2253.25 -252.79237,2252.92729 L-252.79237,2252.92729 Z M-61.9724073,2168.00526 C-59.4275802,2168.17504 -57.1020863,2167.14507 -55.4598995,2165.43034 L-24.4889321,2192.53774 C-25.2369144,2193.52243 -25.7149482,2194.73066 -25.8021191,2196.05774 C-25.8639823,2196.99433 -25.7149482,2197.89131 -25.4140681,2198.71755 L-99.1465664,2231.43034 C-99.6948993,2230.36076 -100.499121,2229.45529 -101.488932,2228.78468 L-65.2877124,2167.05735 C-64.2866533,2167.58648 -63.1703038,2167.92886 -61.9724073,2168.00526 L-61.9724073,2168.00526 Z M48.8956756,1984.43034 C49.6308299,1985.54682 50.8513562,1986.33091 52.2876035,1986.42466 C53.5563832,1986.50705 54.7286562,1986.03546 55.5887015,1985.22864 L72.7782541,2000.36784 L105.511068,2029.19739 C105.028534,2029.84227 104.702114,2030.60364 104.534647,2031.43034 L-7.8587999,2017.98432 C-7.78783906,2016.81102 -8.0376212,2015.70307 -8.48893211,2014.70307 L14.2156965,2002.72296 L48.8956756,1984.43034 Z M189.511068,2135.88968 C188.992115,2136.77221 188.640475,2137.77072 188.566744,2138.86257 C188.544058,2139.24444 188.56958,2139.61782 188.609281,2139.98837 L131.459267,2149.43034 C130.815539,2146.67526 128.461819,2144.53398 125.484222,2144.34163 C124.690196,2144.28789 123.924529,2144.40104 123.204234,2144.61601 L99.5110679,2079.79508 C100.724793,2079.27461 101.791057,2078.47411 102.585082,2077.43034 L153.045428,2111.36827 L189.511068,2135.88968 Z M199.247851,2202.43034 L175.511068,2156.71633 C177.263989,2155.60864 178.491035,2153.68942 178.63572,2151.42849 C178.70528,2150.30942 178.479905,2149.25299 178.068107,2148.29338 L189.133772,2142.43034 C190.221697,2144.28408 192.141563,2145.58254 194.409231,2145.73061 C194.63739,2145.7477 194.854418,2145.71638 195.079794,2145.70783 L200.511068,2202.02884 C200.068664,2202.10857 199.648519,2202.2481 199.247851,2202.43034 L199.247851,2202.43034 Z M101.511068,2241.08888 L178.26583,2226.79952 L180.24123,2226.43034 C181.090256,2230.06493 184.158069,2232.88387 188.032457,2233.13858 C190.607835,2233.30743 192.968127,2232.29147 194.663348,2230.5772 L205.511068,2240.52222 C204.407334,2241.87303 203.688493,2243.55581 203.538498,2245.43034 L101.550689,2242.18784 C101.545029,2241.82152 101.559179,2241.44661 101.511068,2241.08888 L101.511068,2241.08888 Z M141.936512,2340.43034 L59.5110679,2271.80166 C60.2219739,2270.82636 60.6864702,2269.64975 60.7714391,2268.35407 C60.8620725,2266.99317 60.5278617,2265.69749 59.8877631,2264.60027 L67.5831081,2259.4147 L85.3755842,2247.43034 C86.9050234,2249.49153 89.264325,2250.91763 92.0286448,2251.09625 C93.654382,2251.20398 95.1923181,2250.83541 96.5603165,2250.16914 L144.511068,2338.26142 C143.539591,2338.8398 142.689902,2339.59113 141.936512,2340.43034 L141.936512,2340.43034 Z M-21.8060089,2319.28932 C-21.6813258,2318.80533 -21.5906472,2318.31001 -21.5566428,2317.79488 C-21.4546293,2316.24949 -21.8173437,2314.79467 -22.4889321,2313.51534 L48.8156167,2271.43034 C49.864088,2272.96441 51.5388084,2274.03713 53.5110679,2274.2579 L50.6943639,2333.76391 C46.9963774,2333.76957 43.8056242,2336.08483 42.5757957,2339.43034 L-12.9025041,2322.07159 L-21.8060089,2319.28932 Z M-129.488932,2315.24693 L-121.944641,2289.53224 L-107.655398,2240.8484 C-107.285386,2240.93048 -106.91255,2241.01257 -106.522766,2241.03521 C-104.652935,2241.15975 -102.915855,2240.53139 -101.56856,2239.43034 L-35.4889321,2311.52488 C-36.799509,2312.86086 -37.6835835,2314.63555 -37.8135114,2316.6565 C-37.821985,2316.76971 -37.7993888,2316.87727 -37.8022134,2316.98766 L-126.263331,2319.43034 C-126.47517,2317.52545 -127.73773,2315.92624 -129.488932,2315.24693 L-129.488932,2315.24693 Z M113.048704,2017.48928 C112.776108,2018.06303 112.600056,2018.69075 112.554624,2019.35824 C112.438202,2021.12494 113.224755,2022.7411 114.511068,2023.76647 L111.961159,2027.58108 C111.268311,2027.18911 110.487437,2026.92779 109.638414,2026.87383 C108.022715,2026.76873 106.540474,2027.38509 105.464288,2028.43034 L55.5110679,1984.46159 C55.5195865,1984.45023 55.5224261,1984.43886 55.5309447,1984.43034 L85.5732972,2001.69973 L113.048704,2017.48928 Z M189.524319,2215.60754 C187.319646,2215.46318 185.271636,2216.17929 183.653736,2217.43034 L151.030842,2179.75149 L129.511068,2154.89454 C129.664882,2154.75018 129.810151,2154.59451 129.949724,2154.43034 L197.471396,2203.86403 C196.987166,2204.63391 196.659598,2205.51135 196.596933,2206.48219 C196.480148,2208.29084 197.243523,2209.93533 198.511068,2211.05335 L193.85391,2217.13032 C192.606304,2216.27835 191.145067,2215.71226 189.524319,2215.60754 L189.524319,2215.60754 Z M-25.5638002,2198.99235 C-24.5488098,2200.95795 -22.592134,2202.36724 -20.2463784,2202.52415 C-17.3846695,2202.70958 -14.8612906,2200.98077 -13.8350226,2198.43034 L1.51106789,2203.59681 C1.30806982,2204.32143 1.1614601,2205.06887 1.11071058,2205.8534 C1.05150281,2206.78057 1.15018243,2207.6735 1.31652807,2208.54932 L-93.1537006,2230.95828 L-99.3507806,2232.43034 C-99.3958913,2232.27629 -99.4353632,2232.12224 -99.4889321,2231.97389 L-92.212015,2228.72452 L-25.5638002,2198.99235 Z M-55.4889321,2164.44939 C-54.4776171,2163.18217 -53.8289025,2161.61284 -53.7127571,2159.88126 C-53.7014258,2159.70782 -53.7325868,2159.54277 -53.7297539,2159.37213 L118.343932,2151.43034 C118.377926,2151.71847 118.440248,2151.98702 118.511068,2152.26117 L-13.6142598,2193.43034 C-14.5065965,2191.17005 -16.6425391,2189.49721 -19.2543946,2189.32937 C-21.2147026,2189.20349 -23.0107073,2189.96438 -24.2939726,2191.24278 L-41.4098412,2176.5425 L-55.4889321,2164.44939 Z M-15.2235311,2023.93509 C-12.4871785,2024.11033 -10.0357452,2022.66321 -8.75501933,2020.43034 L89.3756608,2069.11522 C89.0484268,2069.884 88.8142853,2070.70931 88.7578657,2071.59115 C88.6675943,2072.93652 88.9666184,2074.21123 89.5110679,2075.34462 L71.933529,2085.00528 L-54.3956872,2154.43034 C-55.3378952,2152.8956 -56.773775,2151.71134 -58.4889321,2151.04431 L-16.5465716,2023.70898 C-16.1206033,2023.82203 -15.6805302,2023.904 -15.2235311,2023.93509 L-15.2235311,2023.93509 Z M177.338012,2147.46235 C176.25104,2145.647 174.335499,2144.37257 172.080103,2144.22247 C168.431586,2143.98458 165.28302,2146.75999 165.024619,2150.43034 L131.522303,2150.16696 C131.516685,2150.0735 131.519494,2149.97721 131.511068,2149.88376 L188.117848,2140.43034 C188.210536,2140.84666 188.342545,2141.24881 188.511068,2141.6368 L186.418578,2142.72431 L177.338012,2147.46235 Z M54.4949759,2261.85094 C53.1238393,2261.76003 51.825755,2262.10944 50.7299696,2262.77134 L18.5110679,2215.21707 C19.8344395,2214.22281 20.9386541,2212.95015 21.6776068,2211.43034 L83.8423578,2239.24419 C83.5192416,2240.0879 83.2747971,2240.97421 83.2129836,2241.92587 C83.0893565,2243.86042 83.5838648,2245.68703 84.5110679,2247.22956 L59.229331,2264.43034 C58.1223067,2262.97872 56.4477218,2261.97877 54.4949759,2261.85094 L54.4949759,2261.85094 Z M2.47123615,2209.43034 C3.3316433,2212.52863 5.55341833,2215.05768 8.51106789,2216.31228 L-26.6609045,2309.95483 C-27.2750767,2309.75942 -27.9118912,2309.61215 -28.5826691,2309.56684 C-30.7365173,2309.42807 -32.7346997,2310.15308 -34.2772059,2311.43034 L-100.488932,2239.30023 C-99.3539872,2238.12492 -98.5898098,2236.57861 -98.4765983,2234.81989 C-98.4369743,2234.24498 -98.4879194,2233.68423 -98.5813189,2233.14047 L-20.3210624,2214.78013 L2.47123615,2209.43034 Z M-26.4889321,2310.47468 L-1.91488817,2245.22566 L8.90122249,2216.50177 C9.7413364,2216.78028 10.6127766,2216.99059 11.535478,2217.05311 C13.850775,2217.2009 16.0293755,2216.5785 17.8576912,2215.43034 L50.5110679,2262.99941 C49.0814503,2264.12199 48.0989442,2265.80444 47.9707912,2267.75688 C47.8938995,2268.98746 48.175836,2270.14699 48.6998393,2271.1701 L-22.9604537,2313.43034 C-23.8233503,2312.13724 -25.0365318,2311.1056 -26.4889321,2310.47468 L-26.4889321,2310.47468 Z M93.2067066,2232.45783 C89.4432603,2232.21258 86.0714849,2234.28165 84.484934,2237.43034 L21.6898742,2209.83062 C22.0872214,2208.83838 22.3795555,2207.78975 22.4533486,2206.66783 C22.5697146,2204.89757 22.1950728,2203.22034 21.5110679,2201.70659 L68.4917063,2178.53535 L119.380539,2153.43034 C120.08725,2154.64528 121.191307,2155.59525 122.511068,2156.15621 L95.2303395,2232.8412 C94.5832311,2232.64669 93.9105789,2232.50575 93.2067066,2232.45783 L93.2067066,2232.45783 Z M-13.4861036,2194.10267 L118.437527,2152.43034 C118.460155,2152.48697 118.48844,2152.53511 118.511068,2152.59174 L20.976226,2201.08534 C19.2989311,2198.03007 16.167792,2195.85542 12.4313559,2195.60907 C7.69080562,2195.30043 3.52161045,2198.19997 1.92351325,2202.43034 L-13.4889321,2197.29952 C-13.3871064,2196.9031 -13.3107372,2196.49536 -13.2852808,2196.07062 C-13.2400249,2195.38821 -13.3305366,2194.73411 -13.4861036,2194.10267 L-13.4861036,2194.10267 Z M197.260933,2203.43034 L131.237497,2155.00708 L130.511068,2154.47449 C131.085454,2153.58591 131.474009,2152.55999 131.552847,2151.43034 L165.140359,2151.69383 C165.320558,2154.99586 167.925005,2157.72046 171.320641,2157.94191 C172.45252,2158.01759 173.522455,2157.77652 174.488212,2157.33924 L198.511068,2202.34835 C198.04086,2202.64548 197.624148,2203.01268 197.260933,2203.43034 L197.260933,2203.43034 Z M90.1766291,2076.43034 C91.4300777,2078.43366 93.5853289,2079.83711 96.1290924,2080.00122 C97.067761,2080.06347 97.9695634,2079.92765 98.8231563,2079.67016 L122.511068,2144.50902 C120.33313,2145.46823 118.730871,2147.54794 118.566391,2150.08604 C118.560719,2150.19356 118.577735,2150.29259 118.577735,2150.39729 L-53.6835488,2158.43034 C-53.7799679,2157.42869 -54.0635536,2156.48079 -54.4889321,2155.60646 L29.8948218,2109.42275 L90.1766291,2076.43034 Z M107.511068,2037.01828 L98.5492082,2064.83395 C98.090352,2064.71557 97.6201659,2064.63102 97.1301527,2064.5972 C94.1249273,2064.40272 91.4341035,2065.98953 90.04054,2068.43034 L-8.48893211,2019.88468 C-8.29349332,2019.42527 -8.15187101,2018.93767 -8.06123274,2018.43034 L104.112133,2031.76743 C104.015829,2034.11524 105.432052,2036.16991 107.511068,2037.01828 L107.511068,2037.01828 Z M182.511068,2217.66206 C180.989583,2219.093 179.96769,2221.06194 179.820083,2223.30412 C179.783181,2223.88439 179.80589,2224.45056 179.879693,2225.00266 L100.910069,2239.43034 C100.243,2236.58537 98.2304388,2234.25023 95.5110679,2233.1545 L122.795612,2156.52326 C123.235594,2156.6472 123.689769,2156.73171 124.163813,2156.75988 C125.813035,2156.86973 127.340198,2156.34581 128.557954,2155.43034 L143.565588,2172.7368 L182.511068,2217.66206 Z M77.5110679,2337.64117 C75.9091175,2338.34202 74.7335856,2339.86054 74.612575,2341.70955 C74.6096938,2341.73804 74.6154562,2341.76937 74.6154562,2341.79786 L59.4487895,2342.43034 C59.0713516,2338.30214 55.7867771,2334.94031 51.5110679,2334.53576 L54.3749863,2274.64687 C54.931059,2274.63832 55.4669633,2274.56709 55.9826991,2274.43034 L59.5438693,2284.88618 L77.5110679,2337.64117 Z M191.960318,2071.12414 L104.368451,2071.43034 C104.192438,2068.44978 102.261976,2065.91307 99.5110679,2064.86805 L108.499071,2037.12718 C108.797157,2037.1946 109.095243,2037.25359 109.407524,2037.27606 C111.616199,2037.41933 113.594923,2036.23947 114.585704,2034.43034 L192.511068,2068.64081 C192.227176,2069.37963 192.00858,2070.15497 191.954641,2070.9893 C191.951802,2071.03705 191.960318,2071.07919 191.960318,2071.12414 L191.960318,2071.12414 Z M-224.435482,2145.91786 C-222.968202,2146.01647 -221.628388,2145.42202 -220.696468,2144.43034 L-111.488932,2229.52042 C-112.202744,2230.5459 -112.678618,2231.75451 -112.766429,2233.09272 C-112.786257,2233.40262 -112.752266,2233.70688 -112.732438,2234.01115 L-252.925635,2251.43034 C-253.387347,2248.93424 -255.126555,2246.87481 -257.488932,2245.97047 L-225.160624,2145.79954 C-224.925519,2145.85307 -224.684749,2145.90378 -224.435482,2145.91786 L-224.435482,2145.91786 Z M-430.488932,2356.97843 L-406.896468,2323.1991 C-405.786535,2323.89649 -404.514796,2324.36616 -403.118154,2324.45725 C-399.544226,2324.69351 -396.390427,2322.56718 -395.081784,2319.43034 L-313.488932,2348.74637 C-313.77848,2349.65725 -313.99706,2350.60228 -314.06235,2351.6014 C-314.087899,2352.02838 -314.033963,2352.43827 -314.016931,2352.85386 L-427.956809,2361.43034 C-428.200937,2359.64275 -429.134871,2358.06579 -430.488932,2356.97843 L-430.488932,2356.97843 Z M60.4001288,2421.24591 C59.9054933,2421.21186 59.4309883,2421.26577 58.9507316,2421.29699 L51.5110679,2350.60644 C55.5199165,2350.00208 58.7120412,2346.7249 58.9881169,2342.57097 C58.9967443,2342.39505 58.9679864,2342.23048 58.9708622,2342.06024 L74.1061348,2341.43034 C74.3505768,2343.2945 75.6964456,2344.8352 77.5110679,2345.37714 L61.510183,2421.43034 C61.1420822,2421.36792 60.7826087,2421.27145 60.4001288,2421.24591 L60.4001288,2421.24591 Z M-122.488932,2042.53939 C-121.047669,2041.63467 -120.037938,2040.09016 -119.919478,2038.26098 C-119.877171,2037.6071 -119.970246,2036.97577 -120.145116,2036.37825 L-81.2451019,2021.72511 L-72.5016243,2018.43034 C-71.2436917,2021.31926 -68.488086,2023.43592 -65.1260778,2023.65576 C-65.0245406,2023.66421 -64.9258239,2023.64448 -64.8214663,2023.6473 L-64.009169,2067.9252 L-62.4889321,2150.68909 C-63.5212266,2150.75955 -64.4971115,2151.01603 -65.3968435,2151.43034 L-81.1435647,2121.39972 L-122.488932,2042.53939 Z M207.348628,2122.1776 C207.243645,2123.76451 207.760048,2125.23585 208.662336,2126.40842 L199.446517,2134.43034 C198.416548,2133.39871 197.057441,2132.7025 195.511068,2132.50238 L196.055845,2124.20986 L198.918764,2080.6502 C199.596899,2080.66147 200.252334,2080.57973 200.887908,2080.43034 L211.511068,2116.66429 C209.2213,2117.49862 207.516033,2119.60416 207.348628,2122.1776 L207.348628,2122.1776 Z M-241.261362,2147.93016 C-241.224424,2147.361 -241.272728,2146.80873 -241.366494,2146.27056 L-229.148481,2143.43034 C-228.71943,2144.70957 -227.74483,2145.74083 -226.488932,2146.27056 L-258.909287,2246.43034 C-259.096819,2246.38244 -259.295717,2246.36835 -259.488932,2246.33454 L-248.77686,2154.52634 C-244.875621,2154.74048 -241.517088,2151.80446 -241.261362,2147.93016 L-241.261362,2147.93016 Z M187.511068,1882.91197 L172.102968,1898.83518 L155.08388,1916.42168 C154.47017,1915.942 153.711556,1915.63261 152.876229,1915.57868 C150.708355,1915.43677 148.841653,1917.04612 148.625718,1919.18908 L117.002604,1919.43034 C116.94862,1918.72643 116.778145,1918.05941 116.511068,1917.43497 L186.383092,1881.43034 C186.69847,1881.96963 187.087722,1882.45783 187.511068,1882.91197 L187.511068,1882.91197 Z M-373.176912,2197.74687 C-371.275174,2197.87162 -369.565873,2196.92176 -368.589534,2195.43034 L-267.488932,2250.26133 C-267.868148,2251.06942 -268.120015,2251.9484 -268.182274,2252.89259 C-268.250193,2253.9672 -268.074735,2254.99645 -267.720989,2255.94064 L-395.576108,2312.43034 C-396.569427,2310.46257 -398.318347,2308.93713 -400.488932,2308.28499 L-373.629707,2197.67031 C-373.479719,2197.69583 -373.33256,2197.73552 -373.176912,2197.74687 L-373.176912,2197.74687 Z M-492.927195,2237.58986 C-491.656149,2237.67429 -490.475689,2237.22118 -489.595298,2236.43034 L-408.488932,2310.31856 C-409.437263,2311.46119 -410.062879,2312.87119 -410.263868,2314.43034 L-520.745849,2306.06606 C-520.754342,2304.09038 -521.838553,2302.34829 -523.488932,2301.43644 L-494.113317,2237.33375 C-493.736815,2237.46603 -493.346159,2237.56453 -492.927195,2237.58986 L-492.927195,2237.58986 Z M230.980882,2426.43034 C230.069862,2424.59994 228.256283,2423.27721 226.070399,2423.13337 C224.527588,2423.03466 223.091956,2423.54514 221.97786,2424.44483 L158.511068,2356.02063 C159.532087,2355.00249 160.34439,2353.78975 160.908489,2352.43034 L284.426453,2398.27774 C284.189531,2399.01667 284.01184,2399.77816 283.958251,2400.58478 C283.870815,2401.94418 284.076712,2403.24999 284.511068,2404.4571 L281.259036,2405.79112 L230.980882,2426.43034 Z M-279.488932,2119.59756 C-279.214221,2119.23227 -278.964998,2118.84415 -278.758257,2118.43034 L-253.742542,2129.35762 L-228.488932,2140.39049 C-228.610711,2140.7672 -228.707002,2141.15817 -228.735323,2141.57198 C-228.755147,2141.90587 -228.740987,2142.23406 -228.695674,2142.55369 L-240.876427,2145.43034 C-241.703392,2142.64216 -244.155969,2140.52177 -247.206113,2140.322 C-249.383979,2140.17931 -251.372095,2141.06114 -252.773972,2142.53086 L-275.416409,2123.09063 L-279.488932,2119.59756 Z M477.511068,1801.43825 L456.778721,1903.47813 L454.050183,1916.90301 C453.965005,1916.89165 453.882666,1916.86609 453.791809,1916.85757 C451.403984,1916.70137 449.305763,1918.23499 448.630017,1920.43034 L355.944899,1900.14392 C355.990327,1899.86844 356.064148,1899.59863 356.084023,1899.30895 C356.21463,1897.28968 355.595669,1895.41241 354.511068,1893.88163 L474.254426,1799.43034 C475.109046,1800.38176 476.227718,1801.09461 477.511068,1801.43825 L477.511068,1801.43825 Z M-561.341524,2276.60834 L-495.846791,2236.43034 C-495.47827,2236.91278 -495.021871,2237.31905 -494.488932,2237.62657 L-523.908268,2301.89274 C-524.376006,2301.72064 -524.863588,2301.59086 -525.382353,2301.55983 C-527.137081,2301.44698 -528.735896,2302.19462 -529.796104,2303.43034 L-561.488932,2280.53557 C-561.168602,2279.98824 -560.955994,2279.3732 -560.910637,2278.70456 C-560.862446,2277.95409 -561.032533,2277.24313 -561.341524,2276.60834 L-561.341524,2276.60834 Z M-536.261376,2443.00379 C-536.492208,2442.97272 -536.71178,2442.90492 -536.951057,2442.88797 C-538.977877,2442.7552 -540.86676,2443.35972 -542.420655,2444.43034 L-579.488932,2395.3682 C-578.481152,2394.46989 -577.811176,2393.19023 -577.715465,2391.7326 C-577.69013,2391.31735 -577.721095,2390.91622 -577.785841,2390.52074 L-529.001421,2378.43034 C-528.339889,2380.52356 -526.653688,2382.18176 -524.488932,2382.75238 L-531.827708,2420.30887 L-536.261376,2443.00379 Z M-461.118584,2475.43034 C-461.72528,2474.49877 -462.532327,2473.72481 -463.488932,2473.14223 L-427.724899,2406.37873 C-427.056122,2406.67706 -426.330909,2406.88533 -425.554902,2406.93599 C-422.086858,2407.16114 -419.090061,2404.54092 -418.864313,2401.0792 C-418.850204,2400.85686 -418.881244,2400.64015 -418.88971,2400.42062 L-316.538658,2389.43034 C-316.369347,2390.55048 -315.996864,2391.59744 -315.488932,2392.57404 L-359.123084,2417.39716 L-461.118584,2475.43034 Z M612.759326,2151.70924 C609.349506,2151.48578 606.287743,2153.364 604.830434,2156.2266 L509.915769,2113.98069 C510.122339,2113.41213 510.283634,2112.82094 510.32608,2112.19015 C510.555287,2108.65434 507.872707,2105.60223 504.33555,2105.37028 C503.065003,2105.28542 501.86237,2105.59091 500.82386,2106.16513 L463.25359,2047.57245 C465.797513,2045.79322 467.568922,2042.95043 467.786811,2039.61262 C468.095251,2034.94535 465.307971,2030.83249 461.207698,2029.14944 L509.417738,1896.78836 C509.853515,1896.91565 510.306271,1897.00617 510.778836,1897.03446 C514.282036,1897.26358 517.307013,1894.6103 517.536221,1891.1056 C517.564518,1890.66999 517.54754,1890.24286 517.493775,1889.82705 L563.595669,1880.34824 C564.300271,1882.88837 566.518776,1884.83731 569.297566,1885.01552 C572.812086,1885.24464 575.845552,1882.58571 576.07476,1879.07535 C576.303968,1875.56499 573.644025,1872.53268 570.129506,1872.30073 C568.284525,1872.18193 566.586689,1872.86929 565.344439,1874.04884 L484.572745,1799.43185 C485.424492,1798.38525 485.979118,1797.08689 486.072499,1795.64428 C486.313026,1791.94724 483.514427,1788.75652 479.815975,1788.51608 C476.683469,1788.31242 473.930146,1790.30379 473.013314,1793.16638 L274.35807,1743.054 C274.375048,1742.94085 274.403346,1742.83336 274.411835,1742.71739 C274.56464,1740.40355 272.81021,1738.40652 270.498324,1738.25661 C268.27133,1738.10952 266.355605,1739.73033 266.075462,1741.91405 L28.4039577,1735.52413 C28.2539823,1733.36021 26.5476576,1731.58382 24.323493,1731.43956 C21.898418,1731.28398 19.8072506,1733.11695 19.6487859,1735.5411 C19.586532,1736.51981 19.8581856,1737.4363 20.3562174,1738.20569 L6.45377424,1749.21763 C5.10116528,1747.6845 3.16280307,1746.66053 0.961276353,1746.51627 C-3.46158516,1746.22775 -7.28171507,1749.57687 -7.57034711,1753.99805 C-7.59581464,1754.40255 -7.55902821,1754.79007 -7.52790122,1755.18043 L-150.638457,1774.68398 C-151.306272,1771.16231 -154.257676,1768.39306 -158.001403,1768.14696 C-161.464988,1767.9235 -164.53524,1769.93184 -165.865212,1772.92456 L-184.411235,1765.83313 C-184.269749,1765.37206 -184.167879,1764.89684 -184.133922,1764.399 C-183.907544,1760.93673 -186.5307,1757.94685 -189.994284,1757.72056 C-193.457869,1757.49426 -196.448889,1760.11925 -196.675267,1763.58152 C-196.881837,1766.76941 -194.663332,1769.52452 -191.610058,1770.12419 L-205.320079,1877.85337 C-205.362525,1877.85054 -205.402141,1877.83357 -205.444587,1877.83074 C-210.362651,1877.51111 -214.60724,1881.23361 -214.926999,1886.15264 C-215.037358,1887.847 -214.641196,1889.45084 -213.905468,1890.85385 L-283.055478,1931.29791 C-283.960991,1929.99956 -285.40981,1929.09439 -287.113305,1928.98407 C-290.081688,1928.79172 -292.648249,1931.0405 -292.8435,1934.01341 C-292.996305,1936.37817 -291.592761,1938.46288 -289.518572,1939.32279 L-308.452268,1997.59018 C-308.927662,1997.46289 -309.417204,1997.3752 -309.926555,1997.34126 C-314.173974,1997.06688 -317.838469,2000.28305 -318.115782,2004.52603 C-318.393095,2008.77184 -315.175697,2012.43777 -310.928278,2012.71781 C-310.28593,2012.75741 -309.66622,2012.69518 -309.057829,2012.58769 L-290.537274,2090.26245 C-293.641483,2091.17893 -296.004304,2093.92555 -296.225023,2097.34256 C-296.369339,2099.50365 -295.622291,2101.51765 -294.314958,2103.03947 L-345.261342,2151.79127 C-346.704502,2150.41938 -348.591929,2149.49724 -350.731202,2149.35863 C-355.595501,2149.04182 -359.794814,2152.72473 -360.108914,2157.58718 C-360.171167,2158.5376 -360.041,2159.4456 -359.817452,2160.31965 L-445.323278,2186.45922 C-446.075985,2184.54422 -447.864372,2183.12707 -450.05458,2182.98564 C-453.073897,2182.79046 -455.680075,2185.07601 -455.878155,2188.09418 C-455.895134,2188.32613 -455.866837,2188.54677 -455.855518,2188.77306 L-504.767329,2195.46565 C-505.296488,2192.96229 -507.413123,2191.00203 -510.092873,2190.82949 C-513.32442,2190.61451 -516.1117,2193.06412 -516.32393,2196.29161 C-516.386184,2197.23072 -516.199422,2198.12175 -515.857025,2198.93357 L-603.502124,2243.4028 C-604.718906,2241.31242 -606.917603,2239.84435 -609.512462,2239.67464 C-613.65518,2239.40309 -617.231954,2242.54289 -617.500778,2246.68403 C-617.560202,2247.60052 -617.430034,2248.48023 -617.181019,2249.31468 C-617.362121,2249.58057 -617.500778,2249.87758 -617.523415,2250.22268 C-617.591329,2251.24099 -616.818814,2252.1207 -615.797283,2252.18576 C-615.732199,2252.19142 -615.675604,2252.16313 -615.61335,2252.1603 C-614.345633,2253.58594 -612.543098,2254.53354 -610.491547,2254.66649 C-607.916496,2254.83621 -605.559334,2253.68212 -604.082218,2251.79258 L-569.140763,2276.03129 C-569.435054,2276.55742 -569.627476,2277.14861 -569.669921,2277.79354 C-569.802919,2279.84148 -568.44182,2281.64051 -566.517607,2282.13552 L-582.298988,2385.59627 C-582.310307,2385.59627 -582.324455,2385.59061 -582.338604,2385.59061 C-585.284349,2385.39826 -587.828272,2387.63007 -588.020694,2390.57469 C-588.15935,2392.70467 -587.0218,2394.61118 -585.27303,2395.5814 L-635.039418,2504.64005 C-635.681766,2504.39396 -636.355241,2504.2101 -637.073991,2504.16201 C-640.9111,2503.91026 -644.224709,2506.81811 -644.473725,2510.65377 C-644.72557,2514.48942 -641.819442,2517.79894 -637.982333,2518.05069 C-634.145225,2518.29961 -630.831616,2515.39458 -630.579771,2511.55893 C-630.494879,2510.24927 -630.800489,2509.01315 -631.363605,2507.92695 L-544.216537,2456.05514 C-542.756399,2458.25583 -540.351132,2459.79179 -537.512917,2459.97565 C-533.800316,2460.21609 -530.498026,2458.10308 -529.01525,2454.92368 L-475.091994,2476.91927 C-475.304223,2477.53309 -475.465518,2478.16953 -475.510793,2478.84841 C-475.779617,2482.96127 -472.65843,2486.51688 -468.544008,2486.78561 C-465.33227,2486.99493 -462.482736,2485.12802 -461.251805,2482.34462 L-267.96738,2555.08622 C-267.992848,2555.20785 -268.055102,2555.31534 -268.063591,2555.44263 C-268.159801,2556.93333 -267.027911,2558.22036 -265.536646,2558.3222 C-264.04255,2558.41837 -262.755025,2557.28691 -262.655985,2555.79338 C-262.616368,2555.20785 -262.81162,2554.68172 -263.097422,2554.21782 L-206.96132,2505.64988 C-205.543628,2507.13492 -203.605265,2508.12778 -201.398079,2508.27204 C-199.332379,2508.40782 -197.413825,2507.76288 -195.863135,2506.63142 L-184.479148,2520.71245 C-186.604272,2522.56804 -188.021965,2525.23546 -188.220046,2528.27909 C-188.616208,2534.34089 -184.017903,2539.57672 -177.953801,2539.96991 C-173.10365,2540.28954 -168.825105,2537.38735 -167.087653,2533.11891 L57.0719104,2614.32949 C56.9021269,2614.89239 56.7747892,2615.47509 56.7380028,2616.08608 C56.4550302,2620.4026 59.7261933,2624.13077 64.0471846,2624.41363 C68.3653463,2624.69367 72.0920953,2621.42092 72.3750679,2617.1044 C72.4514704,2615.95879 72.2590491,2614.85845 71.8798658,2613.84579 L120.211583,2592.68182 C120.831293,2593.75388 121.954695,2594.5063 123.281836,2594.59399 C125.395641,2594.73259 127.223644,2593.12875 127.362301,2591.01575 C127.450022,2589.65234 126.804845,2588.41339 125.771995,2587.66662 L174.004672,2502.47896 C174.95263,2502.95418 176.008118,2503.25401 177.131519,2503.32756 C179.859375,2503.50576 182.346704,2502.31207 183.968137,2500.35465 L216.597706,2524.57922 C216.357179,2525.00351 216.181736,2525.47024 216.150609,2525.99354 C216.028931,2527.84348 217.432475,2529.4445 219.283116,2529.5633 C220.313136,2529.63119 221.232797,2529.1984 221.897782,2528.50538 L280.826823,2572.07227 C280.209943,2573.0227 279.796803,2574.12021 279.714741,2575.32522 C279.471385,2579.09015 282.323748,2582.3431 286.090113,2582.58919 C289.32449,2582.80134 292.165535,2580.72228 293.065388,2577.74937 L391.047475,2600.93017 C391.016348,2601.1112 390.971073,2601.28375 390.956924,2601.47044 C390.750354,2604.65267 393.16411,2607.40778 396.353211,2607.61427 C399.542312,2607.82359 402.295635,2605.40792 402.505035,2602.22003 C402.674819,2599.60353 401.061875,2597.30384 398.718862,2596.4411 L453.595736,2405.22711 C453.972089,2405.31197 454.356932,2405.394 454.761583,2405.42228 C458.898642,2405.691 462.466926,2402.55686 462.73858,2398.42137 C462.826301,2397.07493 462.523521,2395.80204 461.971724,2394.66492 L509.997831,2367.87194 C510.855238,2369.14766 512.255953,2370.03586 513.905683,2370.14334 C516.732579,2370.33004 519.174632,2368.18592 519.361394,2365.3601 C519.545326,2362.53144 517.403224,2360.09315 514.576328,2359.90646 C512.632306,2359.77917 510.892025,2360.76637 509.918599,2362.30232 L484.043586,2348.83794 C484.510491,2347.8366 484.82176,2346.74474 484.898163,2345.57651 C485.226411,2340.50474 481.386473,2336.12599 476.312775,2335.79786 C476.038291,2335.77806 475.780786,2335.81766 475.509133,2335.82332 L469.532752,2248.62732 C472.968039,2248.19736 475.729851,2245.38851 475.964718,2241.80178 C476.05244,2240.46383 475.74683,2239.19942 475.192203,2238.07645 L605.243574,2164.41271 C606.615991,2166.56532 608.939196,2168.07016 611.6812,2168.24836 C616.248378,2168.54537 620.195845,2165.08593 620.492967,2160.51766 C620.792918,2155.95222 617.329333,2152.00625 612.759326,2151.70924 L612.759326,2151.70924 Z" id="Fill-1" transform="translate(-11.988932, 2177.930343) rotate(-150.000000) translate(11.988932, -2177.930343) "></path>
        </g>
    </g>
</svg>