<?xml version="1.0" encoding="UTF-8"?>
<svg width="334px" height="185px" viewBox="0 0 334 185" version="1.1" xmlns="http://www.w3.org/2000/svg" xmlns:xlink="http://www.w3.org/1999/xlink">
    <!-- Generator: Sketch 61.2 (89653) - https://sketch.com -->
    <title>Fill 1</title>
    <desc>Created with Sketch.</desc>
    <g id="Desktop--🖥" stroke="none" stroke-width="1" fill="none" fill-rule="evenodd" opacity="0.72281901">
        <g id="MILIPOLQATAR-PAGEPARTENAIRES" transform="translate(-1106.000000, -229.000000)" fill="#A6945D">
            <g id="HERO-HEADER" transform="translate(-1.000000, 0.000000)">
                <g id="HERO-BANNER">
                    <path d="M1839.84289,735 C1838.95084,733.612078 1837.60852,732.550558 1836,732.008446 L1867.73148,615.283898 C1868.01183,615.343502 1868.28936,615.408783 1868.58388,615.428651 C1871.19206,615.598948 1873.53121,614.176966 1874.67814,612 L1969.68283,654.398329 C1969.38548,655.164667 1969.16459,655.967902 1969.10795,656.833579 C1969.006,658.363416 1969.35716,659.805266 1970,661.082495 L1839.84289,735 Z M1840,833.17012 C1837.78846,833.418901 1835.81631,834.459256 1834.3486,836 L1797.22262,804.280468 C1797.975,803.299481 1798.45664,802.097984 1798.54498,800.774923 C1798.69318,798.524589 1797.67006,796.466495 1796,795.183013 L1830.11931,745 C1831.09398,745.576719 1832.19975,745.961198 1833.41097,746.043182 C1833.60477,746.054491 1833.78716,746.023393 1833.97811,746.023393 L1840,833.17012 Z M1874.93806,860.362506 C1874.72407,860.873318 1874.5692,861.412196 1874.5326,861.993175 C1874.47347,862.863239 1874.66212,863.682784 1875,864.423742 L1827.2183,891 C1826.44681,889.79033 1825.33181,888.816419 1824,888.215794 L1838.39927,851.05843 C1839.13416,851.302609 1839.88875,851.487848 1840.69685,851.541175 C1844.28399,851.774128 1847.48821,849.896473 1849.18324,847 L1874.93806,860.362506 Z M1762.90462,1094 C1762.63757,1093.94632 1762.37619,1093.88417 1762.10062,1093.86722 C1761.61197,1093.83614 1761.1432,1093.88417 1760.68296,1093.9661 L1732.8185,986.908771 L1722,945.323235 C1726.574,943.97001 1730.05422,939.938587 1730.38093,934.924026 C1730.48321,933.353268 1730.26161,931.841838 1729.78432,930.437761 L1807.73833,901.200756 L1813.61351,899 C1814.44876,900.867394 1816.01699,902.333623 1818,903.022949 L1762.90462,1094 Z M1658.37268,1074.85643 C1658.40946,1074.61923 1658.47454,1074.39333 1658.48868,1074.14767 C1658.66411,1071.4425 1657.2211,1069.01971 1655,1067.77443 L1714.28213,945 C1715.49596,945.530868 1716.80032,945.903604 1718.20089,945.993965 C1719.33266,946.067383 1720.41633,945.929018 1721.47171,945.69747 L1729.16774,975.380876 L1760,1094.26698 C1758.27122,1094.8515 1756.90744,1096.23515 1756.35004,1098 L1658.37268,1074.85643 Z M1588,1025.58039 C1588.23775,1025.15739 1588.4104,1024.69491 1588.44436,1024.17603 C1588.48115,1023.55845 1588.30567,1023.00009 1588.04529,1022.48685 L1710.01492,941 C1711.06213,942.441022 1712.4037,943.650804 1714,944.491165 L1654.70488,1067.08804 C1654.03976,1066.81732 1653.33784,1066.61992 1652.58215,1066.56916 C1650.32638,1066.42534 1648.26875,1067.39824 1646.91868,1069 L1588,1025.58039 Z M1549.68375,996.77782 C1550.4589,995.624517 1550.97282,994.278997 1551.0722,992.794968 C1551.25392,990.027608 1550.02163,987.497692 1548,985.883633 L1557.75608,972.377556 L1587.65468,931 C1588.35316,931.429662 1589.14251,931.717987 1590,931.831056 L1589.6252,937.990483 L1584.62507,1020.00782 C1583.77042,1020.06436 1583.01514,1020.41487 1582.44727,1021 L1549.68375,996.77782 Z M1490.66264,1085 C1490.27429,1084.83336 1489.85475,1084.71474 1489.40687,1084.6865 C1488.96466,1084.65543 1488.53662,1084.71757 1488.13409,1084.83336 L1430,940.473728 C1432.09768,939.536053 1433.84669,937.979851 1435.00892,936 L1535.9697,989.580237 C1535.5445,990.475548 1535.2667,991.458412 1535.19583,992.506236 C1534.99456,995.590397 1536.55932,998.352585 1539,999.905963 L1490.66264,1085 Z M1436.81729,1111 C1435.60657,1108.61005 1433.23038,1106.88963 1430.35916,1106.70035 C1430.26581,1106.69753 1430.17529,1106.71448 1430.07628,1106.71165 L1428.34507,1036.51324 L1426,941.573475 C1427.04099,941.5085 1428.05653,941.339 1429.007,941 L1487,1085.349 C1485.87414,1085.95355 1485.07077,1087.09768 1484.98307,1088.46215 C1484.94913,1088.94805 1485.01985,1089.41418 1485.15563,1089.85205 L1436.81729,1111 Z M1199.06258,1029.67895 C1199.33137,1028.84053 1199.53508,1027.97378 1199.5945,1027.05039 C1199.78689,1024.08759 1198.77682,1021.33157 1197,1019.22986 L1241.37239,978.594825 C1243.28219,980.537919 1245.85122,981.840869 1248.78523,982.036311 C1252.54541,982.279906 1255.97173,980.659717 1258.24651,978 L1424,1109.5356 C1423.67746,1109.99163 1423.4115,1110.47882 1423.19081,1111 L1199.06258,1029.67895 Z M1170,1003.89094 C1171.59874,1002.46795 1172.66645,1000.44476 1172.81616,998.139801 C1172.87547,997.212744 1172.74554,996.325136 1172.52522,995.471342 L1237.92107,975 C1238.38996,976.318732 1239.10459,977.524752 1240,978.575793 L1195.70414,1019 C1193.87943,1017.15434 1191.42765,1015.91732 1188.63409,1015.73698 C1185.91962,1015.55946 1183.39722,1016.42171 1181.37761,1017.92923 L1170,1003.89094 Z M904.449935,979.061705 C904.622551,978.505726 904.752721,977.92989 904.792338,977.320014 C904.882891,975.947085 904.571615,974.656417 904,973.510418 L1050.03352,890 C1051.71724,892.68629 1054.59795,894.566976 1057.99652,894.79107 C1058.92185,894.847802 1059.8104,894.742847 1060.67632,894.569813 L1099,1050.854 C1098.45385,1051.0866 1098.00392,1051.48373 1097.70962,1052 L904.449935,979.061705 Z M837.127623,951.997287 C837.388542,951.25594 837.589904,950.486298 837.643789,949.662894 C837.731707,948.307531 837.479297,947.017249 837,945.83449 L872.774248,929.43149 L934.787862,901 C935.306863,901.953564 936.072604,902.745843 937,903.323075 L927.09359,921.822784 L901.058423,970.443234 C900.24447,970.064072 899.353942,969.812241 898.403857,969.74999 C895.25865,969.546261 892.4481,971.3204 891.16903,974 L837.127623,951.997287 Z M733.475285,1005 C732.842271,1004.07333 732.004875,1003.29685 731,1002.76125 L780.920148,893.51293 C781.385683,893.682961 781.873928,893.813319 782.393397,893.847326 C783.582783,893.92384 784.695526,893.595112 785.626597,893 L823,942.21006 C821.223018,943.695005 820.025116,945.862912 819.860475,948.353879 C819.749769,950.045696 820.150015,951.641162 820.893737,953.032589 L733.475285,1005 Z M799.787079,780.397408 C801.105971,780.465025 802.305992,779.910006 803.123932,779 L834.771676,801.86847 C834.330158,802.581261 834.035813,803.395476 833.976378,804.288578 C833.857508,806.105772 834.669787,807.765194 836,808.816067 L822.757307,828.489656 L785.389648,884 C784.959451,883.757707 784.495292,883.574579 784,883.459068 L799.787079,780.397408 Z M762,748.758059 C762.623345,747.759086 763.042686,746.617001 763.124854,745.362672 C763.144688,745.042776 763.110687,744.734104 763.090854,744.419821 L868.634493,732 C868.713828,732.364794 868.835664,732.712751 869,733.038259 L803.537443,773 C802.82343,772.079598 801.741076,771.442612 800.477386,771.361235 C799.103194,771.274245 797.848003,771.860721 797.012154,772.826021 L762,748.758059 Z M849.590952,697 C850.546654,698.583389 852.231857,699.690635 854.222432,699.817419 C855.121583,699.879402 855.98115,699.713174 856.764373,699.400441 L870,726.568812 C868.781338,727.304159 867.927427,728.597354 867.828464,730.124395 C867.817154,730.262449 867.839774,730.39205 867.839774,730.530104 L762.528746,743 C762.424128,742.405525 762.237512,741.839223 762,741.301096 L849.590952,697 Z M909.720203,687 C909.926439,687.948818 910.364339,688.818567 911,689.518885 L875.583795,727 C874.891631,726.457819 874.038433,726.110484 873.094829,726.048359 C872.433742,726.003177 871.800906,726.116131 871.216098,726.333569 L858,699.11719 C859.635768,698.171197 860.782783,696.459936 860.915565,694.435228 C860.932516,694.178256 860.904264,693.93258 860.887313,693.681257 L909.720203,687 Z M1005.60777,659 C1006.24541,660.769329 1007.44983,662.258844 1009,663.301787 L995.105174,686.141958 C994.51288,685.848012 993.855405,685.66147 993.155421,685.619074 C990.466009,685.44101 988.153511,687.38275 987.782264,690 L957.994682,688.31829 L920.127527,686.181528 C920.119026,685.811269 920.07935,685.455142 920,685.107495 L1005.60777,659 Z M1057,510.222048 C1058.36518,509.813917 1059.56077,509.040168 1060.49915,508 L1087.00565,529.506255 L1157,586.301701 C1156.13228,587.497752 1155.56416,588.937549 1155.46241,590.524726 C1155.4511,590.711787 1155.47937,590.890344 1155.48219,591.077404 L1136.0814,592.154418 L1084.80667,595 C1084.39966,591.224785 1081.35557,588.166634 1077.44375,587.911552 C1076.77671,587.866204 1076.13228,587.934226 1075.50198,588.05043 L1057,510.222048 Z M1174.58329,267.644258 C1177.20969,267.80295 1179.54458,266.281203 1180.58729,264 L1198.95809,271.107153 C1198.75627,271.727753 1198.60491,272.373858 1198.56287,273.056802 C1198.34423,276.414847 1200.1914,279.418668 1203,280.818561 L1191.03123,308.992131 L1162.56127,376 C1162.05953,375.81297 1161.54098,375.67128 1161,375.574931 L1174.58329,267.644258 Z M1358.22798,254 C1358.58438,255.864282 1359.57439,257.511065 1361,258.683303 L1239.78921,423 C1238.56726,422.18932 1237.14731,421.641334 1235.57461,421.539646 C1235.0089,421.50575 1234.45166,421.531172 1233.90857,421.601788 L1209,281.93881 C1212.36319,281.156376 1214.98247,278.289336 1215.21724,274.665285 C1215.2427,274.264182 1215.20876,273.871553 1215.17481,273.476099 L1358.22798,254 Z M1837.93546,292.04992 C1837.88464,292.306992 1837.81969,292.561239 1837.80275,292.832436 C1837.70109,294.400292 1838.16983,295.857974 1839,297.05576 L1719.91859,391 C1718.49827,389.369995 1716.4539,388.285208 1714.12999,388.13266 C1712.73508,388.042261 1711.41641,388.330407 1710.22198,388.855851 L1648.85433,265.856837 L1638,244.107425 C1638.7737,243.618705 1639.36667,242.881389 1639.6914,242 L1837.93546,292.04992 Z M1930,372.649634 C1929.19803,373.640095 1928.67377,374.868267 1928.58592,376.237933 C1928.55758,376.673736 1928.57458,377.101049 1928.62843,377.522703 L1882.45969,387 C1881.75691,384.46725 1879.53802,382.520286 1876.76087,382.342003 C1876.06091,382.293895 1875.38929,382.392941 1874.74885,382.559905 L1856.81922,328.794849 L1847,299.358347 C1847.7878,299.038569 1848.50193,298.577297 1849.1112,298 L1930,372.649634 Z M1826.14109,527 C1825.33763,526.739349 1824.5089,526.546695 1823.62959,526.487198 C1823.43013,526.473033 1823.24472,526.509864 1823.04526,526.50703 L1820,424.66915 C1822.36822,424.4 1824.28134,422.464953 1824.43866,419.983106 C1824.49485,419.150157 1824.32348,418.359706 1824.01446,417.642917 L1871.01092,392.10766 L1871.20757,392 C1871.87056,393.065268 1872.83977,393.909549 1874,394.428017 L1826.14109,527 Z M1866,604.067559 C1864.53487,605.154477 1863.51663,606.830142 1863.38935,608.794521 C1863.36672,609.151166 1863.39218,609.499319 1863.42612,609.841812 L1634.3083,648 C1634.23193,647.699965 1634.13011,647.414083 1634,647.142354 L1814.1858,542 C1815.93943,544.748431 1818.90647,546.673182 1822.40808,546.899623 C1824.60577,547.04398 1826.69316,546.503351 1828.46094,545.464552 L1866,604.067559 Z M1591.36296,932.14355 C1594.32789,932.112582 1596.81379,929.925095 1597.19645,927 L1708.26526,933.328791 C1708.21424,935.651412 1708.84067,937.838899 1710,939.694181 L1587.91899,1021 C1587.43711,1020.4482 1586.75399,1020.10755 1586,1019.96679 L1589.99104,954.63497 L1591.36296,932.14355 Z M1547.43043,986 C1546.6911,985.518023 1545.88379,985.138716 1545,984.916265 L1555.18062,932.725887 C1555.41006,932.76011 1555.62818,932.825705 1555.86612,932.839964 C1560.54853,933.147973 1564.58225,929.660059 1565.06664,925 L1584.87266,926.10655 C1584.90099,927.903268 1585.70547,929.523166 1587,930.612605 L1584.33162,934.348637 L1547.43043,986 Z M1429,1106.39251 C1426.93147,1106.55654 1425.0865,1107.52091 1423.77068,1109 L1258,977.675204 C1259.2564,975.967043 1260.07701,973.905372 1260.22416,971.631594 C1260.28924,970.627625 1260.18171,969.660421 1260.00061,968.715842 L1414.50051,933 C1415.70031,937.403323 1419.54307,940.78288 1424.35643,941.096798 C1424.54602,941.10811 1424.72995,941.074173 1424.91954,941.077001 L1428.15674,1072.21797 L1429,1106.39251 Z M1100.73546,1050.33047 C1100.59675,1050.32479 1100.47503,1050.37302 1100.33916,1050.38721 L1062,894.062503 C1063.42668,893.645463 1064.74296,892.956071 1065.84411,892 L1159,991.187403 C1157.65541,992.58321 1156.75241,994.418753 1156.61937,996.506789 C1156.47501,998.677099 1157.18834,1000.69421 1158.4282,1002.28577 L1102.26971,1051 C1101.8451,1050.6397 1101.33274,1050.37018 1100.73546,1050.33047 L1100.73546,1050.33047 Z M836.644416,945 C835.503673,942.815474 833.481962,941.160873 831,940.552024 L842.808378,880.433882 C842.946735,880.450795 843.073798,880.493076 843.214979,880.501532 C846.253194,880.698844 848.921514,878.770824 849.810955,876 L933.706344,896.991176 C933.663989,897.225132 933.604693,897.450631 933.587752,897.693043 C933.528456,898.623228 933.686578,899.516769 934,900.337024 L860.196228,934.192941 L836.644416,945 Z M1076.50377,603.151562 C1076.92283,603.17965 1077.32782,603.143136 1077.73282,603.106621 L1078,604.943594 C1074.80224,605.592433 1072.29353,608.28329 1072.06854,611.693207 C1071.9701,613.224018 1072.34134,614.676182 1073.06133,615.906449 L1047.90112,632.520665 L1021.42749,650 C1021.28406,649.803382 1021.16031,649.587102 1021,649.404529 L1071.6326,601 C1072.92071,602.213414 1074.59974,603.027974 1076.50377,603.151562 L1076.50377,603.151562 Z M1077.88745,437.129431 C1080.18728,437.279259 1082.22906,435.967555 1083.13651,434 L1139.35905,454.6141 L1150.93194,458.857348 C1150.85537,459.137216 1150.80433,459.428391 1150.78448,459.728048 C1150.74761,460.310399 1150.82985,460.872961 1151,461.4016 L1116.93639,475.813378 L1062.12892,499 C1061.28102,497.284043 1059.82058,495.935589 1058,495.231679 L1060.83296,486.535989 L1076.98283,436.976776 C1077.27776,437.050276 1077.57551,437.106815 1077.88745,437.129431 L1077.88745,437.129431 Z M1159,392.984571 L1155.26779,455.438692 C1153.53387,455.497995 1152.0245,456.503315 1151.30534,458 L1108.12773,442.219858 L1083.35816,433.16915 C1083.46049,432.813334 1083.52586,432.443399 1083.55145,432.064991 C1083.61398,431.099206 1083.39795,430.189899 1083,429.376606 L1152.46509,389 C1153.88918,391.171605 1156.23424,392.688058 1159,392.984571 L1159,392.984571 Z M1389.77461,238.344887 C1391.07996,238.426651 1392.27794,237.924786 1393.1397,237.073306 L1517.94765,340.705715 L1553,369.811096 C1552.95479,369.870304 1552.92371,369.940791 1552.88133,370 L1373.45772,256.507907 C1374.02846,255.498537 1374.41272,254.362291 1374.49183,253.124544 C1374.61615,251.215764 1374.03128,249.442317 1373,247.998749 L1386.90962,237 C1387.64141,237.761257 1388.63878,238.271581 1389.77461,238.344887 L1389.77461,238.344887 Z M1633,243.485188 L1562.80852,367.185491 C1561.84416,366.705014 1560.77234,366.39977 1559.62982,366.326285 C1557.0337,366.156705 1554.66665,367.227887 1553.02922,369 L1393,235.919083 C1393.38178,235.362295 1393.6363,234.712237 1393.72397,234 L1631.25228,240.379043 C1631.34844,241.653721 1632.00454,242.775777 1633,243.485188 L1633,243.485188 Z M1710,389.228812 C1707.88878,390.421581 1706.3585,392.506802 1705.88241,395 L1567.8172,375.734375 C1567.82286,375.669212 1567.8427,375.612549 1567.84837,375.547385 C1568.05241,372.419555 1566.46828,369.611873 1564,368.036625 L1634.35602,244 C1634.7981,244.192656 1635.26852,244.328649 1635.77294,244.359814 C1636.39356,244.399478 1636.98866,244.294651 1637.53276,244.087829 L1656.68393,282.443421 L1710,389.228812 Z M1822.8192,416 C1822.16774,415.009383 1821.18344,414.250193 1820,413.908698 L1843.50943,299.155225 C1843.66874,299.177803 1843.82236,299.225782 1843.9902,299.237071 C1844.73554,299.282227 1845.45527,299.177803 1846.14372,299 L1874,381.980365 C1871.80666,382.86938 1870.19366,384.915525 1870.02866,387.418878 C1869.95754,388.499807 1870.19081,389.527113 1870.61469,390.449995 L1861.5796,395.278898 L1822.8192,416 Z M1836.11202,731.349114 C1835.7677,731.278386 1835.42623,731.196341 1835.06484,731.176537 C1832.5237,731.009619 1830.19599,732.141267 1828.73619,734 L1789.95613,707.344021 C1790.49395,706.450019 1790.86103,705.440023 1790.93502,704.331007 C1791.06307,702.347793 1790.2976,700.531498 1789,699.215956 L1866.10482,614 C1866.66256,614.435685 1867.30567,614.763863 1868,615.001509 L1853.0036,669.711052 L1836.11202,731.349114 Z M1726,924.093698 L1760.00387,874.214376 C1761.23919,874.96854 1762.65341,875.47979 1764.20111,875.581475 C1767.81903,875.815915 1771.05641,873.920619 1772.75745,871 L1814,892.257816 C1813.64218,893.054349 1813.39512,893.910198 1813.33264,894.831012 C1813.27017,895.782897 1813.40932,896.700886 1813.6791,897.556735 L1729.86782,929 C1729.0386,927.042564 1727.7124,925.342164 1726,924.093698 L1726,924.093698 Z M1172.12574,994 C1171.26054,991.678975 1169.38499,989.845845 1167,988.999785 L1190.34049,912.989747 L1201.6251,876.236897 C1201.96662,876.318683 1202.311,876.389188 1202.67245,876.411749 C1203.62587,876.473794 1204.53661,876.315862 1205.3762,876 L1207.3542,880.317727 L1244,960.273225 C1240.44528,962.03585 1237.88098,965.524438 1237.60207,969.740637 C1237.51669,971.04921 1237.70453,972.304199 1238.03467,973.499964 L1176.64528,992.59554 L1172.12574,994 Z M838.493327,809.687461 C838.572002,809.69312 838.645058,809.678974 838.723733,809.678974 L842,867.284284 C838.970998,867.654891 836.534872,870.141634 836.326944,873.318668 C836.293226,873.861848 836.343803,874.379565 836.433718,874.891625 L787.739288,887 C787.413347,886.007 786.803613,885.138479 786,884.496282 L836.245459,809 C836.91701,809.381923 837.672855,809.636538 838.493327,809.687461 L838.493327,809.687461 Z M988,691.872338 L884.123282,726.530074 L876.721504,729 C876.534762,728.583657 876.302749,728.187006 876,727.846618 L911.466855,690.505157 C912.318513,691.188747 913.373888,691.636035 914.5481,691.709176 C917.439774,691.900469 919.929669,689.813128 920.311641,687 L987.858529,690.800536 C987.869846,691.169056 987.915117,691.526323 988,691.872338 L988,691.872338 Z M1156,591.756663 L1126.19,599.636887 L1086.98487,610 C1086.07949,607.120079 1083.53821,604.94791 1080.39897,604.737886 C1080.01256,604.711993 1079.64026,604.746517 1079.26513,604.781042 L1079,602.899455 C1082.42974,602.200333 1085.12333,599.257117 1085.36308,595.525591 C1085.37436,595.344337 1085.34333,595.16596 1085.34333,594.984706 L1155.87026,591 C1155.89846,591.258934 1155.94923,591.50636 1156,591.756663 L1156,591.756663 Z M1062.46262,502.772542 C1062.53646,501.673949 1062.36606,500.623489 1062.01389,499.65231 L1150.99516,462 C1151.71653,463.333602 1153.07974,464.28213 1154.70425,464.386893 C1154.76957,464.392555 1154.82637,464.378398 1154.88885,464.38123 L1163,582.363942 C1161.01765,582.601782 1159.25399,583.575792 1157.96745,585 L1061,506.773348 C1061.82361,505.637946 1062.36606,504.273198 1062.46262,502.772542 L1062.46262,502.772542 Z M1206.3735,281.515165 C1206.89497,281.549132 1207.40505,281.520826 1207.90372,281.461384 L1233,421.416488 C1230.82292,421.911839 1228.95359,423.199752 1227.72827,425 L1166.94097,388.346844 C1167.54793,387.242919 1167.94688,386.008787 1168.03521,384.672754 C1168.28028,380.944882 1166.18013,377.616123 1163,376.076288 L1204.10808,281 C1204.82333,281.263244 1205.57277,281.464215 1206.3735,281.515165 L1206.3735,281.515165 Z M1632.70913,646 C1631.89406,644.848752 1630.59788,644.047394 1629.07529,643.945813 C1627.96307,643.875271 1626.92443,644.196943 1626.06691,644.772567 L1570,575.297035 C1571.53391,573.931339 1572.55557,571.99002 1572.69991,569.78064 C1572.72821,569.396891 1572.68859,569.018785 1572.66028,568.643501 L1811.90759,538 C1812.10003,539.131496 1812.47643,540.200914 1813,541.182861 L1676.46232,620.562508 L1632.70913,646 Z M1863.36156,611 C1863.63039,612.147773 1864.19917,613.182186 1865,614.006883 L1788.32448,699.37004 C1787.29444,698.548178 1786.01256,698.015385 1784.59767,697.924696 C1781.67734,697.731984 1779.09942,699.455061 1778.01279,702 L1634,650.80081 C1634.07357,650.506073 1634.13017,650.208502 1634.14998,649.896761 C1634.16413,649.661538 1634.14432,649.431984 1634.12451,649.199595 L1731.51397,632.972065 L1863.36156,611 Z M1792.96786,794.095764 C1792.76816,794.081547 1792.57988,794.112825 1792.38589,794.115669 L1791.18486,780.500948 L1785,710.48807 C1786.72309,710.226468 1788.24933,709.319388 1789.29631,708 L1828.18277,734.797228 C1827.57512,735.783926 1827.16432,736.912799 1827.08444,738.149725 C1826.91328,740.725945 1828.08577,743.074683 1830,744.524873 L1795.84918,795 C1794.99334,794.502386 1794.02339,794.166852 1792.96786,794.095764 L1792.96786,794.095764 Z M1832.05776,841.632913 C1831.99283,842.652136 1832.13398,843.629126 1832.38241,844.563883 L1773.68621,863 C1772.85907,860.753204 1771.17655,858.91466 1769,857.884175 L1790.48882,806.593592 C1791.02801,806.776602 1791.58415,806.917379 1792.17698,806.953981 C1794.15027,807.083495 1795.95418,806.303592 1797.23865,805 L1834,836.579029 C1832.8962,837.983981 1832.1848,839.71835 1832.05776,841.632913 L1832.05776,841.632913 Z M1820.79155,888.319208 C1817.88732,888.129651 1815.29014,889.648933 1813.90141,892 L1773,870.704594 C1773.45634,869.711544 1773.76338,868.625131 1773.84225,867.465158 C1773.90704,866.443816 1773.76338,865.462083 1773.51549,864.522787 L1832.08451,846 C1832.93803,848.334092 1834.71831,850.22117 1837,851.234024 L1822.59437,888.687004 C1822.0169,888.500277 1821.42254,888.361646 1820.79155,888.319208 L1820.79155,888.319208 Z M1564.79897,924.901066 C1564.82708,920.326895 1561.34463,916.457968 1556.75478,916.154911 C1555.27636,916.055781 1553.88225,916.375831 1552.62306,916.956453 L1521,855.251878 C1521.62959,854.892176 1522.22546,854.475827 1522.77354,854 L1586,922.694701 C1585.17366,923.581212 1584.61995,924.716966 1584.45693,926 L1578.08791,925.645962 L1564.79897,924.901066 Z M1436.8597,932 L1466.57717,936.492249 L1494.76127,940.756936 C1494.74717,940.87774 1494.70771,940.990117 1494.69926,941.113731 C1494.36947,946.148196 1498.19725,950.494356 1503.24835,950.823057 C1505.43283,950.966337 1507.46229,950.297697 1509.11968,949.126173 L1512.09622,952.930116 L1538,986.027793 C1537.35452,986.586866 1536.82179,987.261125 1536.37643,988 L1436,934.711082 C1436.40871,933.871068 1436.67649,932.949581 1436.8597,932 L1436.8597,932 Z M1260.60819,968 C1259.68638,964.603554 1257.25178,961.827206 1254,960.46299 L1275.30342,904.293382 C1275.89722,904.479412 1276.51082,904.623162 1277.16118,904.665441 C1280.9191,904.910662 1284.22461,902.46973 1285.21146,899 L1310.06922,904.620343 L1415,928.353186 C1414.92365,928.778799 1414.8162,929.198775 1414.7851,929.641299 C1414.72289,930.593995 1414.82469,931.510049 1414.99434,932.406373 L1350.43373,947.291544 L1260.60819,968 Z M1166.60819,989.234377 C1166.12189,989.109678 1165.62145,989.016154 1165.10122,988.979311 C1162.80824,988.829106 1160.67643,989.616976 1159.05353,991 L1066,891.909735 C1067.64551,890.223466 1068.75101,887.995891 1068.91782,885.462236 C1068.94609,885.022956 1068.89803,884.603514 1068.87258,884.178404 L1196.93145,871 C1197.31597,873.25875 1198.87666,875.126399 1201,875.92844 L1174.88665,961.964999 L1166.60819,989.234377 Z M849.468865,874.784762 C849.511232,874.536914 849.573371,874.297612 849.590318,874.041217 C849.663755,872.924476 849.426498,871.870409 849,870.918899 L889.734761,849 C890.833487,850.789065 892.728718,852.039702 894.968537,852.187841 C896.609564,852.296096 898.134787,851.771912 899.363439,850.85174 L934.915265,893.29646 L935,893.396169 C934.268458,894.108377 933.709209,894.997212 933.387218,896 L875.231017,881.300036 L849.468865,874.784762 Z M987.941925,693 C988.510015,694.314028 989.609452,695.343256 991,695.805703 L964.169776,805.831572 C963.847576,805.769536 963.533854,805.690582 963.197523,805.668023 C960.792327,805.512934 958.582148,806.440649 956.988105,808 L876,733.968909 C876.520042,733.283697 876.853548,732.451855 876.9129,731.535419 C876.94399,731.078611 876.881811,730.641542 876.78289,730.218571 L936.341861,710.276929 L987.941925,693 Z M1013.55623,664.143572 C1015.97543,664.302355 1018.2271,663.471579 1019.92508,662 L1100,745.854493 C1099.67063,746.206084 1099.37816,746.58603 1099.12261,747 L997.672427,692.16312 C997.905261,691.630062 998.069948,691.060144 998.1097,690.45053 C998.228957,688.630195 997.374287,686.985656 996,685.984755 L1009.91891,663.071786 C1011.01209,663.667223 1012.23305,664.05851 1013.55623,664.143572 L1013.55623,664.143572 Z M1079.43561,619.96905 C1081.73111,620.117083 1083.82564,619.200951 1085.29748,617.67872 L1112,640.129539 C1111.19332,641.185325 1110.66969,642.472937 1110.57628,643.891825 C1110.5593,644.159961 1110.59326,644.419718 1110.60459,644.682268 L1034.60402,652.779422 L1023.12652,654 C1022.9482,652.888352 1022.56609,651.838152 1022,650.899675 L1073.96151,617 C1075.22389,618.670265 1077.16558,619.821016 1079.43561,619.96905 L1079.43561,619.96905 Z M1156.14871,593 C1156.77887,595.017722 1158.16579,596.705323 1160,597.707069 L1142.69032,634.825755 C1142.27677,634.672078 1141.84635,634.555397 1141.38499,634.524093 C1139.50013,634.398875 1137.81221,635.426234 1136.96262,637 L1087,615.086799 C1087.23912,614.426557 1087.42479,613.737857 1087.46981,612.99793 C1087.51482,612.326305 1087.43886,611.677446 1087.31508,611.042817 L1117.41643,603.154065 L1156.14871,593 Z M1158.74152,392.91682 C1161.84806,392.953611 1164.6186,391.414052 1166.26157,389 L1227,425.64661 C1226.41628,426.716378 1226.02903,427.913498 1225.94361,429.209671 C1225.86957,430.33887 1226.03188,431.428448 1226.36502,432.441614 L1158.40267,458 C1157.762,456.698167 1156.51768,455.747262 1155,455.515196 L1156.66574,427.667282 L1158.74152,392.91682 Z M1365,260.268344 L1353.38996,456.127227 C1348.14205,456.00576 1343.58309,459.271252 1341.86781,464 L1242.91456,432.277273 C1243.05915,431.732083 1243.15838,431.172769 1243.19808,430.590856 C1243.38803,427.686941 1242.1037,425.034435 1240,423.322594 L1361.49289,259 C1362.51922,259.675132 1363.70433,260.121453 1365,260.268344 L1365,260.268344 Z M1552,370.706215 C1551.40431,371.757062 1551.00624,372.937853 1550.92437,374.223164 C1550.83402,375.629944 1551.13046,376.960452 1551.67533,378.161017 L1482.22782,414 C1481.21147,412.324859 1479.43287,411.152542 1477.3296,411.014124 C1476.05352,410.929379 1474.84802,411.240113 1473.81755,411.836158 L1371,258.748588 C1371.66063,258.257062 1372.2422,257.675141 1372.71932,257 L1507.55461,342.516949 L1552,370.706215 Z M1816.58865,528 L1719,402.190801 C1720.25641,401.109029 1721.19801,399.663827 1721.64895,398 L1809.0502,417.142533 L1814.20062,418.272572 C1814.18644,418.386144 1814.15241,418.491198 1814.14674,418.60477 C1813.96239,421.398637 1816.07815,423.812039 1818.8689,423.996593 C1818.89159,423.996593 1818.90861,423.993754 1818.92846,423.993754 L1822,526.052243 C1819.99485,526.194208 1818.14853,526.886996 1816.58865,528 L1816.58865,528 Z M1597,924.90967 L1650.49098,903 C1651.91947,906.066904 1654.90043,908.304535 1658.52097,908.540667 C1662.04571,908.768366 1665.21544,907.045165 1667.05811,904.318403 C1668.11187,905.67054 1669.69533,906.598201 1671.538,906.7247 L1709,928.592204 C1708.28153,929.921852 1707.81945,931.408921 1707.6673,933 L1597.27612,926.68066 C1597.26767,926.06503 1597.18314,925.471889 1597,924.90967 L1597,924.90967 Z M1543.32424,984.540291 C1542.19061,984.46651 1541.09896,984.633935 1540.08849,985 L1523,943.152258 C1525.95865,941.744753 1528.11395,938.827585 1528.34068,935.283282 C1528.39946,934.346837 1528.2819,933.45012 1528.08316,932.576105 L1547.90077,927 C1548.81607,929.80366 1551.10014,931.988698 1554,932.715152 L1543.94005,984.645286 C1543.73571,984.614071 1543.53977,984.554479 1543.32424,984.540291 L1543.32424,984.540291 Z M1285.187,897.673113 C1285.23504,897.405558 1285.30287,897.149268 1285.32266,896.873263 C1285.43853,895.093316 1284.92416,893.431656 1284,892.05445 L1317.34621,867.253474 C1318.01602,867.971649 1318.94301,868.453248 1320.00283,868.520841 C1321.36788,868.610965 1322.61705,868.002629 1323.39991,867 L1416,924.423019 C1415.53368,925.228502 1415.14649,926.079046 1414.90061,927 L1365.77862,915.895043 L1285.187,897.673113 Z M1208.86388,872 L1269.62748,893.707424 C1269.46269,894.26133 1269.34336,894.83796 1269.30643,895.440155 C1269.08198,898.831762 1271.05941,901.837056 1274,903.138025 L1252.5948,959.73867 C1251.66575,959.429051 1250.7026,959.187605 1249.67694,959.119432 C1247.85861,959.00297 1246.13404,959.352356 1244.55436,960 L1206,875.118915 C1207.27283,874.437185 1208.28144,873.343577 1208.86388,872 L1208.86388,872 Z M945.998557,896 C945.505049,893.241173 943.165139,891.054196 940.195579,890.864509 C939.719088,890.833825 939.256779,890.867299 938.802978,890.934247 L933,865.731011 C935.277513,865.075476 937.095552,863.301347 937.713856,861 L1049,882.892086 C1048.95178,883.190563 1048.86953,883.480673 1048.84968,883.790308 C1048.81848,884.23663 1048.8667,884.666215 1048.89506,885.104168 L1003.20015,889.941181 L945.998557,896 Z M900,850.986189 C900.60009,850.423529 901.09445,849.753964 901.448789,849 L924.472251,857.83376 C924.300797,858.351407 924.175064,858.89156 924.135058,859.459847 C923.886449,863.215601 926.778313,866.459335 930.590314,866.704092 C931.12468,866.737852 931.644759,866.698465 932.150549,866.61688 L938,892.037852 C937.288464,892.246036 936.639795,892.575192 936.053993,893 L919.097157,873.239386 L900,850.986189 Z M1705,396.547303 L1521.83325,416 C1521.69437,415.354609 1521.41095,414.760395 1521,414.268534 L1553.35772,380.688322 C1554.68411,381.848319 1556.36194,382.624494 1558.25517,382.749591 C1562.48092,383.022532 1566.137,380.065676 1566.91072,376 L1704.99717,395.330443 C1704.9915,395.401521 1704.96882,395.461227 1704.96316,395.529462 C1704.94048,395.876324 1704.98016,396.20897 1705,396.547303 L1705,396.547303 Z M1573.39082,568 C1573.07996,566.28325 1572.22367,564.761329 1571,563.592357 L1675.91926,441.324748 L1708.80014,403 C1710.08315,403.993908 1711.66856,404.629218 1713.40657,404.744986 C1715.39609,404.874872 1717.24715,404.273444 1718.75907,403.214594 L1816,528.328393 C1813.872,530.121381 1812.4392,532.727565 1812.2442,535.720583 C1812.20747,536.271186 1812.25551,536.802023 1812.30072,537.338507 L1727.6639,548.19808 L1573.39082,568 Z M1785.8258,799 L1642.83417,760.724268 L1586,745.508875 C1586.09048,745.091198 1586.18378,744.673521 1586.21206,744.238795 C1586.25164,743.625065 1586.22619,743.025542 1586.14703,742.440225 L1777.04663,706 C1777.74783,708.747579 1780.10874,710.867221 1783.08037,711.060432 C1783.28394,711.074639 1783.48186,711.046225 1783.68261,711.040543 L1791,794.610125 C1788.5882,794.9795 1786.59769,796.692829 1785.8258,799 L1785.8258,799 Z M1767.48631,857.798255 C1766.68657,857.504362 1765.84728,857.281116 1764.95146,857.224598 C1761.69035,857.012655 1758.73445,858.541467 1756.94282,861 L1585,747.785969 C1585.33346,747.226441 1585.60757,746.633002 1585.81104,746 L1628.49084,757.371422 L1785.52412,799.203219 C1785.46761,799.480157 1785.40261,799.751444 1785.38283,800.039685 C1785.2048,802.749724 1786.70818,805.179998 1789,806.316009 L1778.09197,832.418848 L1767.48631,857.798255 Z M1719.79905,922.416054 C1715.76636,922.148087 1712.07795,923.992498 1709.78363,927 L1677,903.424606 C1677.51926,902.575094 1677.86919,901.605851 1677.93692,900.542536 C1677.98489,899.7985 1677.88048,899.085821 1677.68576,898.407352 L1700.3552,890.188747 L1756.03404,870 C1756.66617,871.547937 1757.67929,872.896324 1759,873.894074 L1725.20608,924.234809 C1723.62009,923.225656 1721.79988,922.547187 1719.79905,922.416054 L1719.79905,922.416054 Z M1513.18263,942.017466 C1513.20514,941.668784 1513.16293,941.33725 1513.14886,941 C1514.68812,942.531915 1516.71982,943.563671 1519.03855,943.715148 C1520.36676,943.806605 1521.6415,943.59511 1522.81775,943.163544 L1539.31339,983.62496 L1540,985.308352 C1539.58916,985.508415 1539.20083,985.737059 1538.83219,986 L1510,948.459511 C1511.80377,946.890441 1513.0166,944.615433 1513.18263,942.017466 L1513.18263,942.017466 Z M1436.05385,929.426188 L1520.63724,924 C1520.69959,924.438157 1520.83279,924.844396 1521,925.239028 C1520.52104,925.128763 1520.03641,925.0214 1519.52911,924.98658 C1514.3569,924.641277 1509.88754,928.657236 1509.55028,933.955749 C1509.52477,934.338774 1509.56728,934.707291 1509.58712,935.078709 C1508.07372,933.581429 1506.08136,932.571636 1503.81408,932.420747 C1499.14917,932.107363 1495.10776,935.426913 1494.21786,940 L1436,930.955386 C1436.01984,930.775481 1436.07652,930.610083 1436.08786,930.430178 C1436.11053,930.090678 1436.06235,929.762786 1436.05385,929.426188 L1436.05385,929.426188 Z M843.307701,808 L846.174375,810.094082 L890,842.097614 C889.40631,843.012722 889.00769,844.070992 888.931358,845.235931 C888.855027,846.367184 889.098157,847.436682 889.542011,848.399511 L848.766821,870 C847.695352,868.284873 845.849259,867.089057 843.669569,866.945896 C843.54235,866.937475 843.420785,866.962738 843.293566,866.959931 L840,809.799339 C841.311772,809.6253 842.470881,808.960022 843.307701,808 L843.307701,808 Z M1116,651.800227 L1105.29136,744.260499 C1103.32858,744.146992 1101.50215,744.819523 1100.11315,746 L1020,662.069807 C1021.38332,660.622588 1022.315,658.727015 1022.45418,656.570375 C1022.47975,656.1958 1022.43714,655.835414 1022.41726,655.469353 L1110.21676,646 C1110.71101,648.937003 1113.00897,651.275255 1116,651.800227 L1116,651.800227 Z M1160.47169,597.625696 C1161.2634,597.948357 1162.10336,598.186108 1163.00291,598.245546 C1166.2691,598.457823 1169.1976,596.697337 1170.65618,594 L1196.12733,606.017725 L1296,653.137621 C1295.75596,653.729167 1295.58286,654.349016 1295.47786,655 L1145.33259,638.705596 C1145.36664,636.95077 1144.43587,635.399731 1143,634.556282 L1152.651,614.160681 L1160.47169,597.625696 Z M1158.38134,464 L1206.58295,506.468104 L1236,532.386741 C1235.37423,533.215345 1234.97214,534.22777 1234.89852,535.336347 C1234.82207,536.52128 1235.13354,537.63834 1235.71401,538.574409 L1170.48342,586 C1169.11294,584.314511 1167.08838,583.163514 1164.74385,583.01363 C1164.52299,582.99949 1164.30779,583.030598 1164.08693,583.033426 L1156,465.176449 C1156.91176,465.026565 1157.73008,464.60802 1158.38134,464 L1158.38134,464 Z M1226.50678,433 C1227.77059,435.88152 1230.52824,437.995201 1233.89366,438.216202 C1234.08962,438.227536 1234.27422,438.196369 1234.46734,438.196369 L1239,529.475656 C1237.79015,529.628657 1236.70527,530.181161 1235.86179,531 L1185.24992,486.451197 L1158,462.4697 C1158.49416,461.798196 1158.81508,460.985024 1158.87472,460.089684 C1158.9088,459.568347 1158.83496,459.069677 1158.70432,458.590841 L1165.77879,455.918989 L1226.50678,433 Z M1365.60692,260.110569 C1367.1205,260.121873 1368.55471,259.734728 1369.77634,259 L1473,412.137055 C1471.64232,413.191107 1470.70696,414.776423 1470.58508,416.624546 C1470.53123,417.452528 1470.65027,418.255077 1470.8997,418.998282 L1363.75322,463 C1362.02422,459.216152 1358.41035,456.455271 1354,456.039867 L1363.22601,300.288877 L1365.60692,260.110569 Z M1625.42133,646 L1615.31572,639.991392 L1585.55215,622.283738 C1585.93323,621.546036 1586.17316,620.718233 1586.22962,619.834118 C1586.45544,616.359599 1583.81895,613.358111 1580.3328,613.130043 C1579.72307,613.090624 1579.13876,613.166647 1578.56573,613.290535 L1568,577.114999 C1568.75086,576.853143 1569.42834,576.456136 1570.06346,576 L1626,645.346768 C1625.78829,645.54668 1625.59634,645.763485 1625.42133,646 L1625.42133,646 Z M1776.79931,704.742187 L1585.92906,741 C1585.38351,738.727173 1583.9617,736.799227 1582,735.600622 L1618.41587,668.832082 L1626.81953,653.422653 C1627.32267,653.640324 1627.85974,653.795804 1628.43921,653.832553 C1630.51115,653.968244 1632.34565,652.77812 1633.15973,651 L1777,702.06794 C1776.8728,702.517417 1776.78517,702.983855 1776.75125,703.472909 C1776.72299,703.902598 1776.7456,704.326633 1776.79931,704.742187 L1776.79931,704.742187 Z M1677.17864,898 C1676.55477,896.565203 1675.43123,895.409395 1674,894.766013 L1749,872 L1710.87895,885.798533 L1677.17864,898 Z M1673,906.237044 C1674.51906,905.972169 1675.85252,905.163148 1676.80051,904 L1710,927.830134 C1709.96574,927.887716 1709.93147,927.942418 1709.89435,928 L1701.19972,922.872361 L1673,906.237044 Z M1547.65387,924 L1530.20378,923.624118 C1530.04408,921.19797 1528.13053,919.201808 1525.63522,919.042342 C1525.4584,919.030952 1525.2873,919.053733 1525.11334,919.05658 L1517,855.93401 C1518.02664,855.766002 1518.99625,855.432834 1519.91453,855 L1552,917.037638 C1549.57313,918.447196 1547.86491,920.992943 1547.65387,924 L1547.65387,924 Z M1060,875.41096 L1061.75197,861.757172 C1061.85987,861.765699 1061.96209,861.802647 1062.07283,861.811173 C1068.20046,862.211919 1073.49612,857.903189 1074.57513,852 L1196.99148,870.030731 C1196.99148,870.061995 1196.98012,870.093259 1196.97728,870.130207 C1196.96309,870.351896 1196.99148,870.565059 1197,870.783906 L1068.41627,884 C1067.79442,879.648637 1064.40406,876.164135 1060,875.41096 L1060,875.41096 Z M1344,475.275325 L1307.69207,506 C1306.23512,504.44093 1304.21629,503.397791 1301.91793,503.248368 C1299.80309,503.107404 1297.84073,503.769938 1296.2539,504.925849 L1241,436.428262 C1242.03624,435.509172 1242.81836,434.327888 1243.31813,433 L1341.85975,464.66068 C1341.63387,465.455722 1341.4814,466.278956 1341.42493,467.133202 C1341.22446,470.197775 1342.23529,473.042444 1344,475.275325 L1344,475.275325 Z M1565.44074,561.32203 C1564.57968,561.265342 1563.75545,561.381552 1562.96236,561.577127 L1520,420.063586 C1521.34541,419.491036 1522.33393,418.209883 1522.43589,416.650958 C1522.44156,416.560257 1522.4274,416.478059 1522.4274,416.393027 L1705.45364,397 C1705.74821,398.87071 1706.67159,400.531674 1708,401.792986 L1569.882,563 C1568.64423,562.04197 1567.11755,561.432572 1565.44074,561.32203 L1565.44074,561.32203 Z M1625,647.182069 C1624.87512,647.443233 1624.76727,647.715876 1624.6878,648 L1622.40023,647.56377 L1567.35381,637.082769 C1567.37084,636.947882 1567.41057,636.821605 1567.42193,636.686718 C1567.53261,634.950408 1566.97349,633.337504 1566,632.060383 L1573.93554,625.029044 L1575.21556,623.89255 C1576.26852,624.954425 1577.67342,625.669039 1579.27415,625.775227 C1581.58726,625.930203 1583.67048,624.796579 1584.89941,623 L1608.00216,636.933532 L1625,647.182069 Z M1581.33765,736 C1580.35154,735.52028 1579.26682,735.205198 1578.10603,735.131395 C1577.27206,735.074624 1576.46908,735.18249 1575.68865,735.352804 L1569,710.316553 C1571.05674,709.587038 1572.59226,707.676676 1572.7444,705.346204 C1572.83456,703.915561 1572.37532,702.592784 1571.57234,701.539672 L1625.37452,653 C1625.56893,653.187346 1625.7746,653.351984 1626,653.505267 L1600.62315,700.381532 L1581.33765,736 Z M1527,929.699916 C1528.81752,929.280386 1530.23834,927.66974 1530.36495,925.627829 L1530.36495,925.621961 L1547.38666,925.011735 L1547.8115,925 C1547.84526,925.419531 1547.91278,925.827326 1548,926.232188 L1528.0832,932 C1527.82436,931.175608 1527.45016,930.412825 1527,929.699916 L1527,929.699916 Z M1436.27796,929 C1435.81351,924.410516 1432.4944,920.598624 1428,919.4914 L1443.75446,844.002981 C1443.83376,844.011433 1443.91022,844.03679 1443.99235,844.042424 C1445.22993,844.12131 1446.37973,843.71561 1447.27748,843 L1522,920.657789 C1521.31465,921.432563 1520.85587,922.41864 1520.78224,923.534316 C1520.77657,923.601933 1520.79073,923.666732 1520.7879,923.731532 L1512.88943,924.22457 L1436.27796,929 Z M1324.35852,864.235089 L1407.9624,843 C1408.9928,846.334366 1411.96827,848.862621 1415.66643,849.105018 C1416.01931,849.127566 1416.35525,849.085288 1416.69966,849.068376 L1424,919.273262 C1420.89185,919.715777 1418.20715,921.488656 1416.49922,924 L1324,866.532222 C1324.21737,866.081251 1324.35852,865.590821 1324.3924,865.06093 C1324.41216,864.779073 1324.39805,864.505672 1324.35852,864.235089 L1324.35852,864.235089 Z M1278.01727,889.181191 C1276.61551,889.087702 1275.29036,889.402163 1274.10992,889.968757 L1237,822.456149 C1237.57603,822.073697 1238.06409,821.58076 1238.44717,821 L1316.75881,863.511611 C1316.59706,863.905395 1316.47788,864.321842 1316.44667,864.769452 C1316.39276,865.605179 1316.60274,866.398412 1317,867.066994 L1283.53637,892 C1282.20555,890.402203 1280.25613,889.325672 1278.01727,889.181191 L1278.01727,889.181191 Z M1207,864.342301 L1217.69286,846.111235 L1231.83149,822 C1232.40155,822.276913 1233.03369,822.454929 1233.70253,822.500139 C1234.56044,822.553827 1235.36755,822.375811 1236.09847,822.048036 L1273,889.374697 C1271.63694,890.225216 1270.56454,891.48828 1269.9324,893 L1209.57656,871.40359 C1209.69791,870.974092 1209.78257,870.52764 1209.81361,870.061408 C1209.96601,867.70482 1208.81742,865.58276 1207,864.342301 L1207,864.342301 Z M938.059641,859.596845 L1052.0541,851 C1052.63631,856.31099 1056.68056,860.615117 1062,861.493627 L1060.24768,875.193244 C1060.17668,875.187539 1060.10852,875.164721 1060.03468,875.161868 C1054.99072,874.828149 1050.58863,878.230947 1049.4384,883 L938,860.615117 C938.022721,860.452536 938.068162,860.301364 938.079522,860.133078 C938.090882,859.95053 938.062481,859.77654 938.059641,859.596845 L938.059641,859.596845 Z M902.479018,845.550293 C902.546644,844.522268 902.357854,843.542255 902,842.646969 L955.86978,817 C956.405152,817.985662 957.120861,818.861177 958,819.550293 L934.5873,853.057137 C933.671531,852.495112 932.628962,852.113839 931.484955,852.040408 C928.588306,851.851184 926.012881,853.509016 924.860421,856 L902.160612,847.134695 C902.321224,846.629155 902.442387,846.103845 902.479018,845.550293 L902.479018,845.550293 Z M844.734324,805 L955.384756,813.32269 C955.356403,814.473254 955.577551,815.573428 956,816.578422 L901.793282,842 C900.721565,840.10199 898.739741,838.755466 896.380832,838.601498 C894.166519,838.461527 892.147837,839.407732 890.823786,840.967012 L844,806.967996 C844.36858,806.380117 844.620915,805.716653 844.734324,805 L844.734324,805 Z M1171,586.43871 L1236.28933,539 C1237.22463,540.091911 1238.57372,540.821737 1240.11838,540.923573 C1241.01683,540.980149 1241.86993,540.801935 1242.64368,540.46531 L1300,649.738412 C1298.68775,650.513499 1297.61074,651.645012 1296.88235,653 L1171.69439,593.892556 C1172.02032,593.100496 1172.2584,592.263176 1172.31792,591.363623 C1172.43412,589.547543 1171.92112,587.850273 1171,586.43871 L1171,586.43871 Z M1235,438.625103 C1236.58359,438.472219 1238.03617,437.891825 1239.26659,437 L1295,505.78943 C1293.33381,507.258818 1292.22586,509.351068 1292.06921,511.73493 C1291.99516,512.867406 1292.1575,513.960245 1292.4879,514.979474 L1244.39049,533 C1243.56166,531.244662 1241.8442,529.964964 1239.75648,529.829067 C1239.68812,529.826236 1239.61977,529.840392 1239.54856,529.83756 L1235.77756,454.182494 L1235,438.625103 Z M1471.01471,420 C1471.27802,420.52602 1471.60079,421.018284 1472,421.448664 L1420.13622,475.715893 C1419.46237,475.192686 1418.62996,474.857947 1417.71262,474.796062 C1415.58915,474.658228 1413.72049,476.039381 1413.17688,478 L1364.5974,469.558368 C1364.63987,469.271449 1364.72198,469.001406 1364.7418,468.706048 C1364.85505,466.97609 1364.56909,465.316456 1364,463.791842 L1382.97821,456.025316 L1471.01471,420 Z M1755.99715,868.82487 L1672.79467,893.745511 C1672.57937,893.708863 1672.36973,893.652481 1672.14594,893.638386 C1670.52551,893.53408 1669.01841,894.066885 1667.83992,895 C1666.54811,891.586098 1663.36109,889.054567 1659.46584,888.80085 C1657.78593,888.690906 1656.19667,889.060205 1654.77172,889.725507 L1605.88707,796.803089 L1582,751.393396 C1583.03401,750.787295 1583.92071,749.966943 1584.62894,749 L1757,861.943503 C1756.28044,863.144429 1755.79318,864.511682 1755.69686,866.005793 C1755.63454,866.984012 1755.76769,867.922765 1755.99715,868.82487 L1755.99715,868.82487 Z M1526.41966,848.893456 C1526.70753,848.014318 1526.92767,847.101148 1526.98976,846.136932 C1527.25787,841.987967 1525.21738,838.255884 1522,836.109085 L1525.24278,830.769029 L1573.67279,751 C1574.75654,751.592709 1575.96447,751.984068 1577.27682,752.071981 C1578.78955,752.171239 1580.22044,751.842271 1581.50174,751.241054 L1654,890.397286 C1652.22198,891.438072 1650.8306,893.060224 1650.01779,895 L1594.84822,874.419659 L1526.41966,848.893456 Z M1098.74833,754 C1099.46087,755.396115 1100.58623,756.551031 1102,757.251926 L1069.1581,834.932084 L1067.73585,838.289002 C1066.64442,837.869032 1065.49644,837.551218 1064.26646,837.471764 C1058.98178,837.125573 1054.32482,840.317908 1052.46147,845 L971.189445,815.78091 C971.364753,815.196358 971.491992,814.59478 971.531578,813.961988 C971.610749,812.753157 971.404338,811.598241 971,810.53413 L1026.28975,786.068072 L1098.74833,754 Z M1299,663.704405 L1262.59738,725.36073 C1261.75192,724.925476 1260.81316,724.651322 1259.80653,724.58349 C1257.51617,724.433695 1255.42939,725.403125 1254.01559,727 L1145,641.633617 C1145.31669,641.144662 1145.54573,640.596355 1145.66449,640 L1295.24211,656.268339 C1295.06397,659.349035 1296.59371,662.113183 1299,663.704405 L1299,663.704405 Z M1344.26101,476 C1346.20422,478.145482 1348.91456,479.578641 1352,479.865273 L1350.45164,507.816131 C1346.94314,507.830321 1343.99308,510.47528 1343.59823,514 L1309.78809,512.243316 C1309.79373,510.248245 1309.13659,508.406423 1308,506.916505 L1328.84789,489.139656 L1344.26101,476 Z M1625,652.251833 L1570.60755,701 C1569.67613,700.104806 1568.45133,699.503258 1567.06133,699.412028 C1566.89043,699.400624 1566.72807,699.426283 1566.56002,699.429134 L1561,643.046158 C1563.66322,642.615667 1565.84223,640.634266 1566.5059,638 L1624.04295,648.844963 C1624.03725,648.901982 1624.01731,648.950448 1624.01446,649.010318 C1623.93756,650.224817 1624.32209,651.348086 1625,652.251833 L1625,652.251833 Z M1522.97682,920 L1448,842.283861 C1448.55978,841.649455 1448.94339,840.87407 1449.10252,840 L1457.53336,840.747189 L1504.70573,844.911712 C1504.39601,850.982272 1509.03908,856.198499 1515.17396,856.59324 C1515.765,856.632714 1516.33899,856.584781 1516.91014,856.534029 L1525,919.049801 C1524.24699,919.210517 1523.55934,919.534769 1522.97682,920 L1522.97682,920 Z M1530.10193,924.176 L1541,924.425 L1530,924.824 C1530.0453,924.611 1530.07928,924.395 1530.10193,924.176 L1530.10193,924.176 Z M1203.96433,863.331666 C1203.63722,863.311926 1203.32129,863.340126 1203.00536,863.365505 L1194,803.821705 C1194.99252,803.553807 1195.83127,802.893933 1196.33172,802 L1211.69201,808.570545 L1229.1212,816.020922 C1228.9898,816.424179 1228.88915,816.835896 1228.86119,817.278632 C1228.74097,819.111616 1229.61047,820.769763 1231,821.759574 L1206.40789,864 C1205.66699,863.624943 1204.84222,863.388065 1203.96433,863.331666 L1203.96433,863.331666 Z M1075,845.801357 L1131.49803,824.159135 L1189.34428,802 C1189.94223,803.170157 1191.10429,804.010852 1192.50328,804.101738 C1192.64148,804.113099 1192.77405,804.093217 1192.91225,804.087537 L1196.10509,825.164561 L1202,864.063756 C1199.57999,864.603391 1197.65356,866.509156 1197.12612,869 L1075.52462,850.981857 C1075.54436,850.797245 1075.60077,850.629674 1075.61488,850.442221 C1075.71924,848.817635 1075.49077,847.249852 1075,845.801357 L1075,845.801357 Z M1102.32819,757.93977 C1102.95713,758.163509 1103.61157,758.33627 1104.31133,758.381585 C1107.07357,758.562842 1109.54683,757.172258 1110.94353,755 L1174.5259,790.707722 L1189,798.835987 C1188.83568,799.226824 1188.71669,799.643149 1188.68836,800.090629 C1188.66003,800.512619 1188.71669,800.917616 1188.81868,801.30562 L1073.92393,845 C1072.77937,842.289634 1070.68574,840.074895 1068,838.820253 L1074.99483,822.339984 L1102.32819,757.93977 Z M1517,420.161752 L1493.13328,488.495284 L1484.92468,512 C1484.61428,511.917766 1484.28978,511.858217 1483.95398,511.835532 C1483.87215,511.829861 1483.79314,511.846875 1483.70567,511.844039 L1478,423.045609 C1480.87541,422.662796 1483.17517,420.292192 1483.36987,417.275058 C1483.37269,417.263716 1483.36987,417.252373 1483.36987,417.24103 L1514.75385,417 C1514.90905,418.389469 1515.77534,419.577607 1517,420.161752 L1517,420.161752 Z M1558.16718,565 L1543.21633,555.416768 L1487.4672,519.683832 C1487.8079,519.050791 1488.02935,518.347097 1488.07762,517.586882 C1488.22241,515.365585 1486.93061,513.395808 1485,512.539506 L1517.27805,421 C1517.49382,421.048043 1517.7096,421.093261 1517.93673,421.107391 C1518.2831,421.13 1518.62096,421.093261 1518.94746,421.031087 L1562,562.10327 C1560.45268,562.660007 1559.12396,563.680221 1558.16718,565 L1558.16718,565 Z M1560.58463,629.39671 C1558.40346,629.391075 1556.42704,630.38844 1555.17294,632 L1468,573.772517 C1468.60288,572.775152 1469.00954,571.645369 1469.08916,570.408525 C1469.09201,570.374716 1469.08348,570.340907 1469.08632,570.307098 L1556.82517,570 C1557.04129,573.896483 1560.03578,577.105517 1564,577.567572 L1562.04633,607.220849 L1560.58463,629.39671 Z M1571.60776,737 L1561.07947,727.143682 C1562.1507,725.796028 1562.85662,724.113588 1562.97473,722.238221 C1563.15327,719.389705 1561.96118,716.796535 1560,715.085723 L1564.48819,709 C1565.24904,709.513527 1566.128,709.856824 1567.10035,709.919242 C1567.57554,709.953288 1568.0315,709.899382 1568.47647,709.814267 L1575,734.832404 C1573.70079,735.266491 1572.55265,736.01834 1571.60776,737 L1571.60776,737 Z M1516.53575,833.573998 C1514.49766,833.444104 1512.56982,833.910026 1510.85964,834.757156 L1489.64774,795.873882 L1463,747.011414 C1465.39991,745.551526 1467.08465,743.004488 1467.31927,740 L1486.12278,740.590167 L1569.18672,743.199328 C1569.23477,746.11628 1570.70751,748.702851 1573,750.258746 L1521.2451,835 C1519.83456,834.214993 1518.25723,833.686948 1516.53575,833.573998 L1516.53575,833.573998 Z M1322,860.765997 L1334.1063,822.990021 C1334.6013,823.119122 1335.10762,823.208931 1335.63373,823.245416 C1339.29957,823.481165 1342.52131,821.249969 1343.7376,818 L1408,837.971311 C1407.86423,838.49052 1407.76523,839.026569 1407.73129,839.579456 C1407.67754,840.365286 1407.76806,841.117438 1407.91797,841.85275 L1324.13275,863 C1323.75937,862.000873 1322.99,861.195397 1322,860.765997 L1322,860.765997 Z M1239.43731,817.459286 L1244.87976,817.308252 L1327.80019,815 C1328.0513,818.180258 1330.10526,820.870369 1333,821.970351 L1329.71873,832.394531 L1320.9132,860.355727 C1320.73545,860.32153 1320.56335,860.278785 1320.37713,860.267386 C1318.93259,860.173346 1317.62911,860.88007 1316.85887,862 L1239,819.243194 C1239.237,818.707452 1239.40064,818.128964 1239.44014,817.51058 C1239.44014,817.490632 1239.43731,817.473534 1239.43731,817.459286 L1239.43731,817.459286 Z M1343.65942,514.756578 C1343.6875,517.642587 1345.44507,520.136985 1348,521.167094 L1306.25916,649 C1305.72852,648.849598 1305.1698,648.755952 1304.59705,648.716223 C1304.50439,648.710548 1304.41455,648.730412 1304.32471,648.727574 L1302,520.812374 C1306.1637,520.531435 1309.58337,517.276515 1310.00732,513 L1327.85254,513.930788 L1343.65942,514.756578 Z M1414,480.589763 L1407.4882,484.070195 L1357.12164,511 C1356.04666,509.204109 1354.18936,507.942131 1352,507.682312 L1353.54212,479.553343 C1359.29975,479.673259 1364.2244,475.613231 1365.39225,470 L1413.67638,478.568315 C1413.67638,478.588301 1413.67075,478.605432 1413.66794,478.619708 C1413.62291,479.322075 1413.75517,479.981616 1414,480.589763 L1414,480.589763 Z M1476.83823,423.422637 C1476.96945,423.431105 1477.09497,423.411346 1477.22619,423.411346 L1479.5825,459.519222 L1483,511.812414 C1481.54228,512.024116 1480.2814,512.839874 1479.47124,514 L1421.68179,481.143865 C1421.89859,480.675298 1422.04408,480.167214 1422.08116,479.625257 C1422.15819,478.42279 1421.7417,477.299359 1421,476.458197 L1473.25812,422 C1474.23944,422.80729 1475.46894,423.335133 1476.83823,423.422637 L1476.83823,423.422637 Z M1558,565.647008 C1557.92892,565.769416 1557.84079,565.874745 1557.77824,566 L1541.45073,558.746581 L1479.75984,531.341296 C1479.92757,530.874435 1480.05267,530.390494 1480.08678,529.872393 C1480.20903,527.990717 1479.37034,526.274151 1478,525.192401 L1480.5502,521.369268 C1481.20409,521.736494 1481.9376,521.978464 1482.73364,522.032552 C1484.53612,522.149267 1486.18224,521.332261 1487.20289,520 L1502.57799,529.912247 L1558,565.647008 Z M1444.67444,834.29694 C1444.17972,834.265768 1443.70491,834.330946 1443.24716,834.441466 L1422,771.567112 C1422.87002,771.210049 1423.64052,770.677287 1424.28024,770 L1493.0968,827.050818 L1507,838.578869 C1505.81439,840.106307 1505.06379,841.968138 1504.80221,844 L1449.13256,839.066289 C1449.13256,836.569678 1447.20772,834.464137 1444.67444,834.29694 L1444.67444,834.29694 Z M1196,797.450564 L1254.76452,737 C1255.41771,737.563747 1256.16944,738.003469 1257,738.302255 L1235.23359,812.401127 C1235.00554,812.356028 1234.7803,812.299653 1234.5438,812.285559 C1232.47725,812.15026 1230.62467,813.277754 1229.71808,815 L1196.71513,800.988075 C1196.79678,800.717476 1196.8559,800.432784 1196.8728,800.139636 C1196.94037,799.122073 1196.5997,798.177797 1196,797.450564 L1196,797.450564 Z M1112.69656,750.496951 L1252.27128,733 C1252.51663,734.330459 1253.12013,735.536364 1254,736.507316 L1195.15036,797.198894 C1194.56378,796.737479 1193.83902,796.44308 1193.03811,796.389295 C1191.66473,796.301542 1190.42107,796.955448 1189.67374,798 L1112,754.199591 C1112.40609,753.367346 1112.66554,752.444517 1112.7304,751.462242 C1112.75296,751.133873 1112.7163,750.819659 1112.69656,750.496951 L1112.69656,750.496951 Z M1303.51652,665.57492 C1306.06135,665.744695 1308.38685,664.714727 1310.02903,663 L1341,690.107395 C1340.25202,691.09209 1339.77398,692.300322 1339.68681,693.627395 C1339.62495,694.563987 1339.77398,695.460965 1340.07486,696.287203 L1266.34237,729 C1265.79403,727.930418 1264.98981,727.024952 1264,726.354341 L1300.20122,664.62701 C1301.20228,665.156141 1302.31863,665.498521 1303.51652,665.57492 L1303.51652,665.57492 Z M1414.38461,482 C1415.11976,483.116477 1416.34029,483.900568 1417.77654,483.994318 C1419.04532,484.076705 1420.21759,483.605114 1421.07763,482.798295 L1438.26719,497.9375 L1471,526.767045 C1470.51747,527.411932 1470.19105,528.173295 1470.02358,529 L1357.63013,515.553977 C1357.70109,514.380682 1357.45131,513.272727 1357,512.272727 L1379.70463,500.292614 L1414.38461,482 Z M1555,633.459338 C1554.48105,634.341872 1554.12941,635.340379 1554.05568,636.432231 C1554.03299,636.814096 1554.05851,637.187475 1554.09821,637.558026 L1496.9482,647 C1496.30447,644.244912 1493.95075,642.103638 1490.97315,641.911291 C1490.17913,641.857547 1489.41346,641.970692 1488.69317,642.185668 L1465,577.364736 C1466.21373,576.844268 1467.27999,576.043765 1468.07401,575 L1518.53436,608.937927 L1555,633.459338 Z M1564.73678,700 L1541,654.285985 C1542.75292,653.178302 1543.97997,651.259076 1544.12465,648.998149 C1544.19421,647.879076 1543.96884,646.822647 1543.55704,645.863035 L1554.6227,640 C1555.71063,641.853733 1557.6305,643.1522 1559.89816,643.300271 C1560.12632,643.317356 1560.34335,643.286033 1560.56873,643.27749 L1566,699.5985 C1565.5576,699.678231 1565.13745,699.817759 1564.73678,700 L1564.73678,700 Z M1467,738.658533 L1543.75476,724.369182 L1545.73016,724 C1546.57919,727.634584 1549.647,730.453532 1553.52139,730.708239 C1556.09677,730.87709 1558.45706,729.861124 1560.15228,728.146859 L1571,738.091881 C1569.89627,739.442687 1569.17742,741.125471 1569.02743,743 L1467.03962,739.757494 C1467.03396,739.391173 1467.04811,739.016268 1467,738.658533 L1467,738.658533 Z M1507.42544,838 L1425,769.371319 C1425.71091,768.396012 1426.1754,767.219407 1426.26037,765.923724 C1426.351,764.562832 1426.01679,763.267148 1425.3767,762.169929 L1433.07204,756.984361 L1450.86452,745 C1452.39396,747.061185 1454.75326,748.487287 1457.51758,748.665905 C1459.14331,748.773642 1460.68125,748.405067 1462.04925,747.738796 L1510,835.831077 C1509.02852,836.409457 1508.17883,837.160783 1507.42544,838 L1507.42544,838 Z M1343.68292,816.85898 C1343.80761,816.374984 1343.89828,815.879667 1343.93229,815.364537 C1344.0343,813.819147 1343.67159,812.364329 1343,811.084995 L1414.30455,769 C1415.35302,770.534069 1417.02774,771.606785 1419,771.827555 L1416.1833,831.333569 C1412.48531,831.33923 1409.29456,833.654485 1408.06473,837 L1352.58643,819.641249 L1343.68292,816.85898 Z M1236,812.816586 L1243.54429,787.101896 L1257.83353,738.418058 C1258.20355,738.500142 1258.57638,738.582225 1258.96617,738.604868 C1260.836,738.729408 1262.57308,738.101047 1263.92037,737 L1330,809.094537 C1328.68942,810.430512 1327.80535,812.205208 1327.67542,814.226153 C1327.66695,814.339372 1327.68954,814.446929 1327.68672,814.557317 L1239.2256,817 C1239.01376,815.095103 1237.7512,813.495896 1236,812.816586 L1236,812.816586 Z M1478.53764,515.058937 C1478.26504,515.63269 1478.08899,516.260409 1478.04356,516.927894 C1477.92713,518.694597 1478.71369,520.310761 1480,521.336131 L1477.45009,525.150733 C1476.75724,524.758763 1475.97637,524.49745 1475.12735,524.443483 C1473.51165,524.33839 1472.02941,524.954748 1470.95322,526 L1421,482.031244 C1421.00852,482.019883 1421.01136,482.008521 1421.01988,482 L1451.06223,499.269382 L1478.53764,515.058937 Z M1555.01325,713.177195 C1552.80858,713.032842 1550.76057,713.748944 1549.14267,715 L1516.51977,677.321143 L1495,652.464193 C1495.15381,652.31984 1495.29908,652.164166 1495.43866,652 L1562.96033,701.433687 C1562.4761,702.203567 1562.14853,703.081005 1562.08587,704.051847 C1561.96908,705.8605 1562.73246,707.504987 1564,708.623012 L1559.34284,714.699973 C1558.09524,713.84801 1556.634,713.281921 1555.01325,713.177195 L1555.01325,713.177195 Z M1339.92513,696.562007 C1340.94012,698.527605 1342.8968,699.936902 1345.24255,700.093808 C1348.10426,700.279241 1350.62764,698.550428 1351.65391,696 L1367,701.166471 C1366.797,701.891089 1366.65039,702.63853 1366.59964,703.423058 C1366.54043,704.350227 1366.63911,705.243162 1366.80546,706.11898 L1272.33523,728.527941 L1266.13815,730 C1266.09304,729.845947 1266.05357,729.691895 1266,729.543548 L1273.27692,726.294177 L1339.92513,696.562007 Z M1310,662.019049 C1311.01131,660.751832 1311.66003,659.182496 1311.77618,657.450912 C1311.78751,657.277474 1311.75635,657.112428 1311.75918,656.941788 L1483.83286,649 C1483.86686,649.288131 1483.92918,649.55668 1484,649.830825 L1351.87467,691 C1350.98234,688.73971 1348.84639,687.066871 1346.23454,686.899028 C1344.27423,686.773145 1342.47822,687.534035 1341.19496,688.812442 L1324.07909,674.112162 L1310,662.019049 Z M1350.2654,521.504746 C1353.00175,521.679983 1355.45319,520.232862 1356.73391,518 L1454.86459,566.684877 C1454.53736,567.45366 1454.30322,568.278971 1454.2468,569.16081 C1454.15653,570.50618 1454.45555,571.78089 1455,572.91428 L1437.42246,582.574942 L1311.09324,652 C1310.15104,650.46526 1308.71516,649.280996 1307,648.613963 L1348.94236,521.278633 C1349.36833,521.39169 1349.8084,521.473655 1350.2654,521.504746 L1350.2654,521.504746 Z M1542.82694,645.032002 C1541.73997,643.216653 1539.82443,641.942226 1537.56904,641.792127 C1533.92052,641.554234 1530.77195,644.329652 1530.51355,648 L1497.01123,647.736619 C1497.00562,647.643161 1497.00843,647.546871 1497,647.453413 L1553.60678,638 C1553.69947,638.416313 1553.83148,638.818465 1554,639.206457 L1551.90751,640.293968 L1542.82694,645.032002 Z M1419.98391,759.420593 C1418.61277,759.329689 1417.31469,759.679102 1416.2189,760.340998 L1384,712.786729 C1385.32337,711.792464 1386.42759,710.519805 1387.16654,709 L1449.33129,736.81385 C1449.00817,737.657555 1448.76373,738.543871 1448.70192,739.495524 C1448.57829,741.43008 1449.0728,743.256686 1450,744.799217 L1424.71826,762 C1423.61124,760.548373 1421.93665,759.548427 1419.98391,759.420593 L1419.98391,759.420593 Z M1367.96017,707 C1368.82058,710.09829 1371.04235,712.627332 1374,713.881941 L1338.82803,807.524489 C1338.21386,807.329076 1337.57704,807.181808 1336.90626,807.136495 C1334.75241,806.997723 1332.75423,807.722734 1331.21173,809 L1265,736.869891 C1266.13494,735.69458 1266.89912,734.148267 1267.01233,732.389549 C1267.05196,731.814638 1267.00101,731.253887 1266.90761,730.710129 L1345.16787,712.349789 L1367.96017,707 Z M1339,808.044341 L1363.57404,742.795319 L1374.39015,714.071427 C1375.23027,714.349941 1376.10171,714.560247 1377.02441,714.622771 C1379.33971,714.770554 1381.51831,714.14816 1383.34662,713 L1416,760.569063 C1414.57038,761.691645 1413.58788,763.374097 1413.45972,765.326538 C1413.38283,766.557115 1413.66477,767.716643 1414.18877,768.739756 L1342.52848,811 C1341.66558,809.706899 1340.4524,808.67526 1339,808.044341 L1339,808.044341 Z M1458.69564,730.027484 C1454.93219,729.782241 1451.56042,731.851304 1449.97387,735 L1387.17881,707.400282 C1387.57615,706.408034 1387.86849,705.359408 1387.94228,704.237491 C1388.05865,702.46723 1387.684,700.789993 1387,699.276251 L1433.98064,676.105004 L1484.86947,651 C1485.57618,652.21494 1486.68024,653.164905 1488,653.725863 L1460.71927,730.410853 C1460.07216,730.21635 1459.39951,730.075405 1458.69564,730.027484 L1458.69564,730.027484 Z M1352.00283,691.67233 L1483.92646,650 C1483.94909,650.056632 1483.97737,650.104768 1484,650.1614 L1386.46516,698.655001 C1384.78786,695.599728 1381.65672,693.425076 1377.92029,693.178729 C1373.17974,692.870087 1369.01054,695.769623 1367.41245,700 L1352,694.869181 C1352.10183,694.47276 1352.17819,694.065013 1352.20365,693.640276 C1352.24891,692.957866 1352.1584,692.303772 1352.00283,691.67233 L1352.00283,691.67233 Z M1562.74987,701 L1496.72643,652.576734 L1496,652.044149 C1496.57439,651.155571 1496.96294,650.129643 1497.04178,649 L1530.62929,649.26349 C1530.80949,652.565522 1533.41394,655.290119 1536.80957,655.511563 C1537.94145,655.587246 1539.01139,655.346181 1539.97714,654.9089 L1564,699.91801 C1563.52979,700.215137 1563.11308,700.582341 1562.74987,701 L1562.74987,701 Z M1455.66556,574 C1456.91901,576.003313 1459.07426,577.406763 1461.61802,577.570876 C1462.55669,577.633126 1463.4585,577.497308 1464.31209,577.239821 L1488,642.078675 C1485.82206,643.037888 1484.2198,645.117598 1484.05532,647.655694 C1484.04965,647.763216 1484.06667,647.86225 1484.06667,647.966943 L1311.80538,656 C1311.70896,654.998344 1311.42538,654.050449 1311,653.176121 L1395.38375,606.992409 L1455.66556,574 Z M1473,534.587937 L1464.03814,562.403608 C1463.57928,562.285231 1463.1091,562.200676 1462.61908,562.166855 C1459.61386,561.972379 1456.92304,563.559188 1455.52947,566 L1357,517.45434 C1357.19544,516.994927 1357.33706,516.507328 1357.4277,516 L1469.60106,529.337091 C1469.50476,531.684893 1470.92098,533.739572 1473,534.587937 L1473,534.587937 Z M1548,715.231716 C1546.47851,716.662654 1545.45662,718.631602 1545.30901,720.87378 C1545.27211,721.454042 1545.29482,722.020221 1545.36863,722.572315 L1466.399,737 C1465.73193,734.155025 1463.71937,731.819892 1461,730.724154 L1488.28454,654.092921 C1488.72453,654.216861 1489.1787,654.301365 1489.65275,654.329533 C1491.30197,654.439388 1492.82913,653.915462 1494.04689,653 L1509.05452,670.306462 L1548,715.231716 Z M1443,835.210826 C1441.39805,835.911681 1440.22252,837.430199 1440.10151,839.279202 C1440.09863,839.307692 1440.10439,839.339031 1440.10439,839.367521 L1424.93772,840 C1424.56028,835.871795 1421.27571,832.509972 1417,832.105413 L1419.86392,772.216524 C1420.41999,772.207977 1420.9559,772.136752 1421.47163,772 L1425.0328,782.45584 L1443,835.210826 Z M1557.44925,568.693797 L1469.85738,569 C1469.68137,566.019437 1467.75091,563.482727 1465,562.437704 L1473.988,534.696834 C1474.28609,534.764255 1474.58418,534.823248 1474.89646,534.845722 C1477.10513,534.988991 1479.08385,533.809126 1480.07464,532 L1558,566.210462 C1557.71611,566.949283 1557.49751,567.724622 1557.44357,568.558955 C1557.44073,568.606712 1557.44925,568.64885 1557.44925,568.693797 L1557.44925,568.693797 Z M1141.05345,643.48752 C1142.52073,643.586124 1143.86054,642.99168 1144.79246,642 L1254,727.090074 C1253.28619,728.115561 1252.81031,729.324171 1252.7225,730.662375 C1252.70268,730.972275 1252.73667,731.27654 1252.75649,731.580806 L1112.5633,749 C1112.10159,746.503897 1110.36238,744.444471 1108,743.540126 L1140.32831,643.369194 C1140.56341,643.422722 1140.80418,643.473433 1141.05345,643.48752 L1141.05345,643.48752 Z M935,854.548085 L958.592464,820.768756 C959.702397,821.466147 960.974136,821.935818 962.370778,822.026906 C965.944706,822.263165 969.098505,820.136835 970.407148,817 L1052,846.316028 C1051.71045,847.226906 1051.49187,848.171942 1051.42658,849.171061 C1051.40103,849.598035 1051.45497,850.00793 1051.472,850.423517 L937.532123,859 C937.287995,857.212403 936.354062,855.635446 935,854.548085 L935,854.548085 Z M1425.88906,918.81557 C1425.39443,918.781522 1424.91992,918.835432 1424.43966,918.866643 L1417,848.176095 C1421.00885,847.571733 1424.20097,844.294556 1424.47705,840.140628 C1424.48568,839.96471 1424.45692,839.800142 1424.45979,839.629899 L1439.59507,839 C1439.83951,840.86416 1441.18538,842.404859 1443,842.946799 L1426.99912,919 C1426.63101,918.937578 1426.27154,918.841107 1425.88906,918.81557 L1425.88906,918.81557 Z M1243,540.109051 C1244.44126,539.204327 1245.45099,537.659815 1245.56945,535.830638 C1245.61176,535.176757 1245.51869,534.545424 1245.34382,533.947912 L1284.24383,519.294772 L1292.98731,516 C1294.24524,518.888915 1297.00085,521.005573 1300.36285,521.225413 C1300.46439,521.233868 1300.56311,521.214139 1300.66747,521.216957 L1301.47976,565.494861 L1303,648.258747 C1301.96771,648.329208 1300.99182,648.585687 1300.09209,649 L1284.34537,618.969378 L1243,540.109051 Z M1572.83756,619.74726 C1572.73258,621.334168 1573.24898,622.805512 1574.15127,623.978077 L1564.93545,632 C1563.90548,630.968368 1562.54637,630.272158 1561,630.072033 L1561.54478,621.779518 L1564.4077,578.219856 C1565.08583,578.231131 1565.74127,578.149389 1566.37684,578 L1577,614.233949 C1574.71023,615.068274 1573.00497,617.173818 1572.83756,619.74726 L1572.83756,619.74726 Z M1124.22757,645.499822 C1124.26451,644.930652 1124.2162,644.378389 1124.12244,643.840213 L1136.34045,641 C1136.7695,642.279223 1137.7441,643.310491 1139,643.840213 L1106.57965,744 C1106.39211,743.9521 1106.19322,743.938011 1106,743.904199 L1116.71207,652.095992 C1120.61331,652.310135 1123.97184,649.374121 1124.22757,645.499822 L1124.22757,645.499822 Z M1553,380.481625 L1537.5919,396.40484 L1520.57281,413.991336 C1519.9591,413.511652 1519.20049,413.202271 1518.36516,413.148342 C1516.19729,413.006424 1514.33059,414.615775 1514.11465,416.758739 L1482.49154,417 C1482.43755,416.296086 1482.26708,415.629071 1482,415.004631 L1551.87202,379 C1552.1874,379.539289 1552.57665,380.027487 1553,380.481625 L1553,380.481625 Z M992.31202,695.316523 C994.213758,695.441281 995.923059,694.491421 996.899398,693 L1098,747.830991 C1097.62078,748.63908 1097.36892,749.518054 1097.30666,750.462243 C1097.23874,751.53686 1097.4142,752.566111 1097.76794,753.5103 L969.912824,810 C968.919506,808.032231 967.170585,806.506786 965,805.854643 L991.859225,695.239967 C992.009213,695.265486 992.156372,695.305181 992.31202,695.316523 L992.31202,695.316523 Z M872.561737,735.159517 C873.832784,735.243947 875.013243,734.790835 875.893634,734 L957,807.888219 C956.051669,809.03085 955.426054,810.440844 955.225064,812 L844.743083,803.635721 C844.73459,801.66004 843.650379,799.917951 842,799.006098 L871.375615,734.90341 C871.752117,735.035685 872.142773,735.134187 872.561737,735.159517 L872.561737,735.159517 Z M1596.46981,924 C1595.55879,922.169601 1593.74522,920.846863 1591.55933,920.703026 C1590.01652,920.604314 1588.58089,921.114795 1587.46679,922.014483 L1524,853.590289 C1525.02102,852.572147 1525.83332,851.359402 1526.39742,850 L1649.91539,895.847397 C1649.67846,896.586325 1649.50077,897.347816 1649.44718,898.154433 C1649.35975,899.513835 1649.56564,900.819651 1650,902.026755 L1646.74797,903.360774 L1596.46981,924 Z M1086,617.167213 C1086.27471,616.801924 1086.52393,616.413804 1086.73068,616 L1111.74639,626.92728 L1137,637.960152 C1136.87822,638.336857 1136.78193,638.72783 1136.75361,639.141634 C1136.73378,639.475531 1136.74795,639.803721 1136.79326,640.123348 L1124.61251,643 C1123.78554,640.211817 1121.33296,638.091428 1118.28282,637.891661 C1116.10495,637.748969 1114.11684,638.6308 1112.71496,640.100518 L1090.07252,620.66029 L1086,617.167213 Z M1843,299.00791 L1822.26765,401.047788 L1819.53911,414.472668 C1819.45394,414.461307 1819.3716,414.435747 1819.28074,414.427227 C1816.89292,414.271025 1814.7947,415.804647 1814.11895,418 L1721.43383,397.713578 C1721.47926,397.438094 1721.55308,397.16829 1721.57296,396.878606 C1721.70356,394.859336 1721.0846,392.982068 1720,391.451285 L1839.74336,297 C1840.59798,297.951414 1841.71665,298.664265 1843,299.00791 L1843,299.00791 Z M804.147409,774.177994 L869.642141,734 C870.010662,734.482441 870.467062,734.888706 871,735.196227 L841.580664,799.462397 C841.112926,799.290298 840.625344,799.160519 840.106579,799.129485 C838.351851,799.016633 836.753036,799.764275 835.692828,801 L804,778.10523 C804.32033,777.5579 804.532938,776.942858 804.578295,776.274213 C804.626486,775.523749 804.456399,774.812784 804.147409,774.177994 L804.147409,774.177994 Z M829.227557,940.573446 C828.996724,940.542373 828.777152,940.474576 828.537875,940.457627 C826.511055,940.324859 824.622172,940.929379 823.068277,942 L786,892.937853 C787.00778,892.039548 787.677756,890.759887 787.773467,889.30226 C787.798802,888.887006 787.767837,888.485876 787.703091,888.090395 L836.487512,876 C837.149043,878.09322 838.835244,879.751412 841,880.322034 L833.661224,917.878531 L829.227557,940.573446 Z M904.370348,973 C903.763652,972.068429 902.956605,971.294466 902,970.711883 L937.764033,903.948392 C938.43281,904.246719 939.158023,904.454986 939.93403,904.505645 C943.402074,904.730798 946.398871,902.11058 946.624619,898.648853 C946.638728,898.426514 946.607688,898.209805 946.599222,897.99028 L1048.95027,887 C1049.11959,888.120136 1049.49207,889.167098 1050,890.143699 L1006.36585,914.966816 L904.370348,973 Z M1978.24826,649.278897 C1974.83844,649.055434 1971.77667,650.933658 1970.31937,653.796253 L1875.4047,611.550348 C1875.61127,610.981789 1875.77257,610.390601 1875.81501,609.759811 C1876.04422,606.223997 1873.36164,603.171883 1869.82448,602.939933 C1868.55394,602.855074 1867.3513,603.160568 1866.31279,603.734784 L1828.74252,545.142103 C1831.28645,543.362881 1833.05785,540.520087 1833.27574,537.182278 C1833.58418,532.515004 1830.7969,528.402145 1826.69663,526.719098 L1874.90667,394.358021 C1875.34245,394.48531 1875.7952,394.575827 1876.26777,394.604114 C1879.77097,394.833234 1882.79595,392.17996 1883.02515,388.675261 C1883.05345,388.239649 1883.03647,387.812522 1882.98271,387.39671 L1929.0846,377.9179 C1929.7892,380.458029 1932.00771,382.40697 1934.7865,382.585175 C1938.30102,382.814295 1941.33448,380.155363 1941.56369,376.645007 C1941.7929,373.134651 1939.13296,370.102337 1935.61844,369.870387 C1933.77346,369.751584 1932.07562,370.438946 1930.83337,371.618494 L1850.06168,297.001503 C1850.91342,295.954903 1851.46805,294.656552 1851.56143,293.213939 C1851.80196,289.516892 1849.00336,286.326174 1845.30491,286.085738 C1842.1724,285.882076 1839.41908,287.873446 1838.50225,290.736041 L1639.847,240.623656 C1639.86398,240.51051 1639.89228,240.403021 1639.90077,240.287047 C1640.05357,237.97321 1638.29914,235.976182 1635.98726,235.826264 C1633.76026,235.679174 1631.84454,237.299991 1631.56439,239.48371 L1393.89289,233.093787 C1393.74291,230.929868 1392.03659,229.153475 1389.81243,229.009214 C1387.38735,228.853638 1385.29618,230.686604 1385.13772,233.110758 C1385.07546,234.089472 1385.34712,235.005955 1385.84515,235.775348 L1371.94271,246.787287 C1370.5901,245.254158 1368.65174,244.230186 1366.45021,244.085925 C1362.02735,243.797403 1358.20722,247.146526 1357.91858,251.567708 C1357.89312,251.972205 1357.9299,252.35973 1357.96103,252.750084 L1214.85048,272.253634 C1214.18266,268.731963 1211.23126,265.962714 1207.48753,265.716621 C1204.02394,265.493158 1200.95369,267.5015 1199.62372,270.494213 L1181.0777,263.402784 C1181.21918,262.941714 1181.32105,262.466501 1181.35501,261.968658 C1181.58139,258.506389 1178.95823,255.516505 1175.49465,255.290213 C1172.03106,255.063921 1169.04004,257.688909 1168.81367,261.151178 C1168.6071,264.339068 1170.8256,267.094174 1173.87887,267.693848 L1160.16885,375.42303 C1160.12641,375.420201 1160.08679,375.403229 1160.04434,375.400401 C1155.12628,375.080763 1150.88169,378.803268 1150.56193,383.722293 C1150.45157,385.416655 1150.84774,387.0205 1151.58346,388.423511 L1082.43345,428.867566 C1081.52794,427.569215 1080.07912,426.664047 1078.37563,426.553729 C1075.40724,426.361381 1072.84068,428.610159 1072.64543,431.583071 C1072.49263,433.947824 1073.89617,436.032539 1075.97036,436.892449 L1057.03666,495.159836 C1056.56127,495.032547 1056.07173,494.944858 1055.56238,494.910915 C1051.31496,494.636535 1047.65046,497.852712 1047.37315,502.095689 C1047.09584,506.341494 1050.31324,510.007426 1054.56065,510.287463 C1055.203,510.327064 1055.82271,510.264833 1056.4311,510.157345 L1074.95166,587.832107 C1071.84745,588.74859 1069.48463,591.49521 1069.26391,594.912221 C1069.11959,597.073311 1069.86664,599.08731 1071.17397,600.609125 L1020.22759,649.360928 C1018.78443,647.989033 1016.897,647.066892 1014.75773,646.928288 C1009.89343,646.611479 1005.69412,650.294383 1005.38002,655.156835 C1005.31776,656.107262 1005.44793,657.015259 1005.67148,657.889312 L920.165654,684.028878 C919.412947,682.113881 917.62456,680.696727 915.434352,680.555294 C912.415035,680.360117 909.808857,682.645667 909.610777,685.663838 C909.593798,685.895787 909.622096,686.116422 909.633414,686.342714 L860.721603,693.035303 C860.192444,690.531947 858.075809,688.571692 855.396059,688.399144 C852.164512,688.184166 849.377232,690.633778 849.165003,693.861269 C849.102749,694.800382 849.289511,695.691407 849.631907,696.50323 L761.986808,740.972455 C760.770026,738.882082 758.571329,737.414012 755.976471,737.244293 C751.833752,736.972743 748.256978,740.112545 747.988154,744.253691 C747.92873,745.170174 748.058898,746.049884 748.307914,746.884336 C748.126811,747.15023 747.988154,747.447238 747.965517,747.792333 C747.897603,748.810648 748.670118,749.690358 749.691649,749.755417 C749.756733,749.761075 749.813328,749.732788 749.875582,749.72996 C751.143299,751.1556 752.945834,752.103198 754.997385,752.236144 C757.572436,752.405864 759.929598,751.251774 761.406715,749.362235 L796.348169,773.600947 C796.053878,774.127076 795.861457,774.718264 795.819011,775.363197 C795.686014,777.41114 797.047112,779.210163 798.971325,779.705176 L783.189944,883.165923 C783.178625,883.165923 783.164477,883.160266 783.150328,883.160266 C780.204583,882.967918 777.66066,885.199724 777.468238,888.14435 C777.329582,890.274324 778.467132,892.180835 780.215902,893.151062 L730.449514,1002.20971 C729.807166,1001.96362 729.133691,1001.77975 728.414941,1001.73167 C724.577832,1001.47992 721.264223,1004.38777 721.015208,1008.22342 C720.763362,1012.05907 723.66949,1015.3686 727.506599,1015.62035 C731.343707,1015.86927 734.657316,1012.96424 734.909162,1009.12859 C734.994053,1007.81893 734.688443,1006.5828 734.125328,1005.4966 L821.272395,953.624797 C822.732533,955.825487 825.1378,957.361445 827.976015,957.545307 C831.688616,957.785743 834.990906,955.67274 836.473682,952.493336 L890.396938,974.488928 C890.184709,975.102745 890.023414,975.739192 889.978139,976.418068 C889.709315,980.530927 892.830502,984.086542 896.944924,984.355263 C900.156663,984.564584 903.006196,982.697674 904.237127,979.914281 L1097.52155,1052.65588 C1097.49608,1052.77751 1097.43383,1052.885 1097.42534,1053.01229 C1097.32913,1054.50298 1098.46102,1055.79002 1099.95229,1055.89185 C1101.44638,1055.98803 1102.73391,1054.85657 1102.83295,1053.36304 C1102.87256,1052.77751 1102.67731,1052.25138 1102.39151,1051.78748 L1158.52761,1003.21954 C1159.9453,1004.70458 1161.88367,1005.69744 1164.09085,1005.8417 C1166.15655,1005.97747 1168.07511,1005.33254 1169.6258,1004.20108 L1181.00978,1018.28211 C1178.88466,1020.1377 1177.46697,1022.80512 1177.26889,1025.84875 C1176.87272,1031.91055 1181.47103,1037.14638 1187.53513,1037.53956 C1192.38528,1037.8592 1196.66383,1034.95701 1198.40128,1030.68857 L1422.56084,1111.89915 C1422.39106,1112.46205 1422.26372,1113.04475 1422.22693,1113.65574 C1421.94396,1117.97226 1425.21513,1121.70042 1429.53612,1121.98329 C1433.85428,1122.26332 1437.58103,1118.99058 1437.864,1114.67405 C1437.9404,1113.52845 1437.74798,1112.4281 1437.3688,1111.41545 L1485.70052,1090.25148 C1486.32023,1091.32354 1487.44363,1092.07596 1488.77077,1092.16365 C1490.88457,1092.30225 1492.71258,1090.69841 1492.85123,1088.5854 C1492.93895,1087.22199 1492.29378,1085.98304 1491.26093,1085.23628 L1539.4936,1000.04862 C1540.44156,1000.52383 1541.49705,1000.82367 1542.62045,1000.89722 C1545.34831,1001.07542 1547.83564,999.88173 1549.45707,997.924303 L1582.08664,1022.14887 C1581.84611,1022.57317 1581.67067,1023.0399 1581.63954,1023.5632 C1581.51786,1025.41314 1582.92141,1027.01415 1584.77205,1027.13296 C1585.80207,1027.20084 1586.72173,1026.76806 1587.38671,1026.07504 L1646.31576,1069.64193 C1645.69888,1070.59235 1645.28574,1071.68987 1645.20367,1072.89488 C1644.96032,1076.65981 1647.81268,1079.91276 1651.57905,1080.15885 C1654.81342,1080.371 1657.65447,1078.29194 1658.55432,1075.31903 L1756.53641,1098.49983 C1756.50528,1098.68086 1756.46,1098.85341 1756.44586,1099.0401 C1756.23929,1102.22233 1758.65304,1104.97744 1761.84214,1105.18393 C1765.03124,1105.39325 1767.78457,1102.97758 1767.99397,1099.78969 C1768.16375,1097.17319 1766.55081,1094.8735 1764.20779,1094.01076 L1819.08467,902.796763 C1819.46102,902.881622 1819.84586,902.963653 1820.25051,902.99194 C1824.38757,903.260662 1827.95586,900.126516 1828.22751,895.991028 C1828.31523,894.64459 1828.01245,893.371697 1827.46066,892.234579 L1875.48676,865.441595 C1876.34417,866.717317 1877.74488,867.605513 1879.39461,867.713002 C1882.22151,867.899693 1884.66356,865.755575 1884.85033,862.929753 C1885.03426,860.101101 1882.89216,857.662804 1880.06526,857.476113 C1878.12124,857.348824 1876.38096,858.336023 1875.40753,859.871981 L1849.53252,846.407601 C1849.99942,845.406258 1850.31069,844.314399 1850.3871,843.146166 C1850.71534,838.074394 1846.87541,833.695642 1841.80171,833.367519 C1841.52722,833.347718 1841.26972,833.387319 1840.99806,833.392977 L1835.02168,746.196974 C1838.45697,745.767019 1841.21878,742.958169 1841.45365,739.371439 C1841.54137,738.033487 1841.23576,736.76908 1840.68114,735.646105 L1970.73251,661.98237 C1972.10492,664.134974 1974.42813,665.639816 1977.17013,665.818021 C1981.73731,666.11503 1985.68478,662.655589 1985.9819,658.087317 C1986.28185,653.521874 1982.81827,649.575906 1978.24826,649.278897 L1978.24826,649.278897 Z" id="Fill-1"></path>
                </g>
            </g>
        </g>
    </g>
</svg>