<?xml version="1.0" encoding="UTF-8"?>
<svg width="420px" height="255px" viewBox="0 0 420 255" version="1.1" xmlns="http://www.w3.org/2000/svg" xmlns:xlink="http://www.w3.org/1999/xlink">
    <title>Fill 1</title>
    <g id="Desktop--🖥" stroke="none" stroke-width="1" fill="none" fill-rule="evenodd" opacity="0.11328125">
        <g id="MILIPOLQATAR-ALLINONE" transform="translate(0.000000, -2954.000000)" fill="#A6945D">
            <g id="Group-24-Copy-2" transform="translate(0.000000, 2871.000000)">
                <g id="Group-23">
                    <path d="M672.353961,720.430343 C671.461911,719.042421 670.119589,717.980901 668.511068,717.438788 L700.242544,600.714241 C700.522903,600.773845 700.800429,600.839125 701.094947,600.858993 C703.70313,601.029291 706.042282,599.607309 707.189203,597.430343 L802.193895,639.828672 C801.896545,640.59501 801.675656,641.398245 801.619018,642.263922 C801.51707,643.793759 801.868226,645.235609 802.511068,646.512838 L672.353961,720.430343 Z M672.511068,818.600463 C670.299526,818.849244 668.327377,819.889599 666.859666,821.430343 L629.733686,789.710811 C630.486066,788.729824 630.967704,787.528327 631.056051,786.205266 C631.204248,783.954932 630.181124,781.896838 628.511068,780.613356 L662.630376,730.430343 C663.605051,731.007062 664.710822,731.391541 665.92204,731.473525 C666.115835,731.484833 666.29823,731.453736 666.489175,731.453736 L672.511068,818.600463 Z M707.449123,845.792848 C707.235133,846.30366 707.080272,846.842539 707.043669,847.423518 C706.98454,848.293582 707.173189,849.113126 707.511068,849.854085 L659.729364,876.430343 C658.957874,875.220673 657.842874,874.246762 656.511068,873.646137 L670.910339,836.488772 C671.645226,836.732952 672.399822,836.918191 673.207915,836.971518 C676.795063,837.20447 679.999281,835.326815 681.694306,832.430343 L707.449123,845.792848 Z M595.415687,1079.43034 C595.148634,1079.37667 594.887263,1079.31451 594.611686,1079.29756 C594.123036,1079.26649 593.654272,1079.31451 593.194031,1079.39644 L565.32957,972.339114 L554.511068,930.753578 C559.085067,929.400353 562.565284,925.368929 562.891998,920.354369 C562.994273,918.783611 562.772676,917.27218 562.295389,915.868104 L640.249401,886.631099 L646.124574,884.430343 C646.959826,886.297737 648.528055,887.763966 650.511068,888.453291 L595.415687,1079.43034 Z M490.883744,1060.28677 C490.920526,1060.04958 490.985603,1059.82368 490.99975,1059.57801 C491.175175,1056.87284 489.732167,1054.45005 487.511068,1053.20477 L546.793202,930.430343 C548.007026,930.96121 549.311391,931.333947 550.711957,931.424308 C551.843728,931.497726 552.927398,931.359361 553.982774,931.127812 L561.678812,960.811219 L592.511068,1079.69733 C590.782289,1080.28185 589.418505,1081.66549 588.861108,1083.43034 L490.883744,1060.28677 Z M420.511068,1011.01073 C420.748814,1010.58773 420.921464,1010.12525 420.955427,1009.60637 C420.992222,1008.98879 420.816742,1008.43043 420.556353,1007.91719 L542.525983,926.430343 C543.5732,927.871365 544.91477,929.081147 546.511068,929.921508 L487.215951,1052.51838 C486.550827,1052.24766 485.848909,1052.05026 485.093214,1051.9995 C482.837453,1051.85568 480.779813,1052.82858 479.429752,1054.43034 L420.511068,1011.01073 Z M382.194816,982.208162 C382.969965,981.05486 383.483891,979.70934 383.583269,978.225311 C383.764989,975.45795 382.532701,972.928034 380.511068,971.313976 L390.267152,957.807899 L420.165746,916.430343 C420.864232,916.860005 421.653577,917.14833 422.511068,917.261399 L422.136271,923.420826 L417.136135,1005.43816 C416.281484,1005.4947 415.526211,1005.84521 414.958337,1006.43034 L382.194816,982.208162 Z M323.173712,1070.43034 C322.785358,1070.26371 322.365822,1070.14509 321.917939,1070.11684 C321.475725,1070.08578 321.047685,1070.14791 320.645157,1070.26371 L262.511068,925.904071 C264.608748,924.966396 266.35776,923.410193 267.519988,921.430343 L368.48077,975.01058 C368.055565,975.905891 367.777764,976.888755 367.706896,977.936579 C367.505633,981.02074 369.070389,983.782928 371.511068,985.336306 L323.173712,1070.43034 Z M269.328356,1096.43034 C268.117634,1094.04039 265.741452,1092.31997 262.870231,1092.13069 C262.776881,1092.12787 262.68636,1092.14482 262.587352,1092.14199 L260.856134,1021.94358 L258.511068,927.003818 C259.552062,926.938843 260.567597,926.769343 261.51807,926.430343 L319.511068,1070.77935 C318.38521,1071.3839 317.581834,1072.52802 317.494142,1073.8925 C317.460196,1074.3784 317.530916,1074.84452 317.666698,1075.2824 L269.328356,1096.43034 Z M31.5736497,1015.10929 C31.8424361,1014.27087 32.0461479,1013.40413 32.1055638,1012.48073 C32.2979582,1009.51794 31.2878873,1006.76192 29.5110679,1004.6602 L73.8834551,964.025168 C75.7932531,965.968262 78.362285,967.271212 81.2963005,967.466654 C85.0564805,967.710249 88.4827995,966.09006 90.7575811,963.430343 L256.511068,1094.96594 C256.188524,1095.42197 255.922567,1095.90916 255.701879,1096.43034 L31.5736497,1015.10929 Z M2.51106789,989.321281 C4.10980892,987.89829 5.17751935,985.875107 5.32722478,983.570144 C5.38654203,982.643087 5.25660901,981.755479 5.03628781,980.901684 L70.4321396,960.430343 C70.9010283,961.749075 71.6156599,962.955095 72.5110679,964.006135 L28.215208,1004.43034 C26.3904965,1002.58468 23.938717,1001.34767 21.1451572,1001.16733 C18.430687,1000.9898 15.9082917,1001.85205 13.8886807,1003.35958 L2.51106789,989.321281 Z M-263.038997,964.492048 C-262.866381,963.936069 -262.736211,963.360232 -262.696594,962.750357 C-262.606041,961.377427 -262.917317,960.08676 -263.488932,958.940761 L-117.45541,875.430343 C-115.771692,878.116632 -112.890978,879.997319 -109.492415,880.221413 C-108.567078,880.278145 -107.678527,880.17319 -106.812615,880.000155 L-68.4889321,1036.28434 C-69.0350793,1036.51695 -69.485014,1036.91408 -69.7793109,1037.43034 L-263.038997,964.492048 Z M-330.361309,937.42763 C-330.10039,936.686283 -329.899029,935.916641 -329.845143,935.093237 C-329.757225,933.737874 -330.009635,932.447592 -330.488932,931.264832 L-294.714684,914.861832 L-232.701071,886.430343 C-232.182069,887.383907 -231.416329,888.176186 -230.488932,888.753417 L-240.395342,907.253127 L-266.430509,955.873577 C-267.244462,955.494415 -268.13499,955.242584 -269.085075,955.180333 C-272.230282,954.976604 -275.040832,956.750743 -276.319902,959.430343 L-330.361309,937.42763 Z M-434.013647,990.430343 C-434.646661,989.503669 -435.484057,988.72719 -436.488932,988.19159 L-386.568784,878.943272 C-386.103249,879.113304 -385.615004,879.243662 -385.095535,879.277668 C-383.906149,879.354183 -382.793406,879.025454 -381.862335,878.430343 L-344.488932,927.640403 C-346.265915,929.125348 -347.463816,931.293255 -347.628457,933.784222 C-347.739164,935.476039 -347.338917,937.071505 -346.595196,938.462932 L-434.013647,990.430343 Z M-367.701853,765.827751 C-366.382961,765.895367 -365.18294,765.340348 -364.365,764.430343 L-332.717256,787.298813 C-333.158774,788.011603 -333.453119,788.825819 -333.512554,789.71892 C-333.631424,791.536114 -332.819145,793.195536 -331.488932,794.24641 L-344.731625,813.919999 L-382.099284,869.430343 C-382.529481,869.18805 -382.99364,869.004922 -383.488932,868.889411 L-367.701853,765.827751 Z M-405.488932,734.188402 C-404.865587,733.189428 -404.446246,732.047344 -404.364078,730.793015 C-404.344244,730.473119 -404.378245,730.164447 -404.398078,729.850163 L-298.854439,717.430343 C-298.775104,717.795136 -298.653269,718.143093 -298.488932,718.468602 L-363.951489,758.430343 C-364.665502,757.50994 -365.747856,756.872955 -367.011546,756.791577 C-368.385739,756.704588 -369.640929,757.291064 -370.476778,758.256364 L-405.488932,734.188402 Z M-317.89798,682.430343 C-316.942278,684.013732 -315.257075,685.120978 -313.2665,685.247762 C-312.367349,685.309745 -311.507782,685.143517 -310.724559,684.830784 L-297.488932,711.999155 C-298.707594,712.734502 -299.561505,714.027697 -299.660468,715.554738 C-299.671778,715.692791 -299.649158,715.822393 -299.649158,715.960446 L-404.960186,728.430343 C-405.064804,727.835867 -405.25142,727.269566 -405.488932,726.731439 L-317.89798,682.430343 Z M-257.76873,672.430343 C-257.562493,673.37916 -257.124593,674.24891 -256.488932,674.949227 L-291.905137,712.430343 C-292.597301,711.888161 -293.450499,711.540826 -294.394103,711.478701 C-295.05519,711.43352 -295.688026,711.546474 -296.272834,711.763911 L-309.488932,684.547533 C-307.853165,683.601539 -306.70615,681.890279 -306.573367,679.86557 C-306.556416,679.608599 -306.584668,679.362923 -306.601619,679.111599 L-257.76873,672.430343 Z M-161.881163,644.430343 C-161.243525,646.199672 -160.039099,647.689187 -158.488932,648.73213 L-172.383758,671.572301 C-172.976052,671.278355 -173.633527,671.091813 -174.333511,671.049416 C-177.022924,670.871353 -179.335422,672.813093 -179.706668,675.430343 L-209.49425,673.748632 L-247.361405,671.611871 C-247.369906,671.241612 -247.409582,670.885485 -247.488932,670.537837 L-161.881163,644.430343 Z M-110.488932,495.652391 C-109.123754,495.24426 -107.928163,494.470511 -106.98978,493.430343 L-80.4832792,514.936598 L-10.4889321,571.732043 C-11.356654,572.928095 -11.9247716,574.367892 -12.026524,575.955069 C-12.0378298,576.142129 -12.0095652,576.320687 -12.0067388,576.507747 L-31.4075302,577.58476 L-82.6822617,580.430343 C-83.0892713,576.655128 -86.133364,573.596977 -90.0451786,573.341895 C-90.7122221,573.296547 -91.356654,573.364569 -91.9869536,573.480773 L-110.488932,495.652391 Z M7.09435674,253.074601 C9.72075823,253.233293 12.0556488,251.711546 13.098361,249.430343 L31.4691565,256.537496 C31.2673413,257.158096 31.1159798,257.804201 31.073935,258.487145 C30.8553017,261.84519 32.7024721,264.84901 35.5110679,266.248904 L23.5423012,294.422474 L-4.92766676,361.430343 C-5.42940194,361.243312 -5.94795506,361.101623 -6.48893211,361.005274 L7.09435674,253.074601 Z M190.739049,239.430343 C191.095451,241.294625 192.085458,242.941407 193.511068,244.113645 L72.300282,408.430343 C71.0783307,407.619663 69.6583779,407.071677 68.0856813,406.969988 C67.5199631,406.936092 66.9627306,406.961514 66.4196411,407.032131 L41.5110679,267.369153 C44.8742627,266.586719 47.4935381,263.719679 47.7283111,260.095628 C47.7537685,259.694525 47.7198254,259.301896 47.6858823,258.906442 L190.739049,239.430343 Z M670.44653,277.480263 C670.395703,277.737335 670.330758,277.991582 670.313816,278.262779 C670.212162,279.830635 670.680898,281.288317 671.511068,282.486103 L552.429658,376.430343 C551.009333,374.800337 548.964968,373.715551 546.641057,373.563002 C545.246145,373.472604 543.927473,373.76075 542.733045,374.286194 L481.365401,251.28718 L470.511068,229.537767 C471.284764,229.049048 471.877743,228.311732 472.202469,227.430343 L670.44653,277.480263 Z M762.511068,358.079977 C761.709094,359.070438 761.184836,360.29861 761.096988,361.668276 C761.068649,362.104079 761.085652,362.531392 761.139495,362.953045 L714.970763,372.430343 C714.267973,369.897592 712.049086,367.950629 709.271934,367.772346 C708.571978,367.724238 707.900361,367.823284 707.259916,367.990247 L689.330283,314.225192 L679.511068,284.788689 C680.298872,284.468912 681.012997,284.00764 681.62227,283.430343 L762.511068,358.079977 Z M658.652156,512.430343 C657.848702,512.169692 657.019964,511.977037 656.140659,511.917541 C655.9412,511.903375 655.755787,511.940206 655.556329,511.937373 L652.511068,410.099493 C654.879292,409.830343 656.792412,407.895296 656.949732,405.413449 C657.005918,404.5805 656.834551,403.790049 656.52553,403.07326 L703.521993,377.538003 L703.718643,377.430343 C704.381633,378.49561 705.350835,379.339892 706.511068,379.85836 L658.652156,512.430343 Z M698.511068,589.497901 C697.045936,590.58482 696.027697,592.260485 695.900417,594.224863 C695.87779,594.581508 695.903246,594.929662 695.937187,595.272154 L466.819368,633.430343 C466.743,633.130308 466.641176,632.844426 466.511068,632.572696 L646.696867,527.430343 C648.4505,530.178774 651.417534,532.103525 654.919144,532.329966 C657.116842,532.474323 659.204231,531.933694 660.972006,530.894895 L698.511068,589.497901 Z M423.874027,917.573893 C426.838961,917.542925 429.324857,915.355438 429.70752,912.430343 L540.776326,918.759134 C540.725305,921.081755 541.351739,923.269242 542.511068,925.124524 L420.430055,1006.43034 C419.948182,1005.87854 419.265057,1005.53789 418.511068,1005.39713 L422.502107,940.065312 L423.874027,917.573893 Z M379.941499,971.430343 C379.202172,970.948366 378.394861,970.569059 377.511068,970.346608 L387.691684,918.15623 C387.921131,918.190453 388.139246,918.256048 388.377191,918.270307 C393.059594,918.578316 397.093316,915.090402 397.577703,910.430343 L417.383733,911.536893 C417.412059,913.333611 418.216538,914.953509 419.511068,916.042947 L416.842693,919.77898 L379.941499,971.430343 Z M261.511068,1091.82285 C259.442542,1091.98688 257.597565,1092.95126 256.281745,1094.43034 L90.5110679,963.105547 C91.7674637,961.397386 92.5880826,959.335715 92.7352281,957.061937 C92.8003116,956.057968 92.6927823,955.090764 92.5116802,954.146185 L247.011581,918.430343 C248.211382,922.833666 252.054143,926.213223 256.867497,926.52714 C257.057088,926.538453 257.24102,926.504516 257.430611,926.507344 L260.667811,1057.64831 L261.511068,1091.82285 Z M-66.7534723,1035.76081 C-66.8921772,1035.75514 -67.0138978,1035.80336 -67.149772,1035.81755 L-105.488932,879.492846 C-104.062253,879.075806 -102.745972,878.386414 -101.644826,877.430343 L-8.48893211,976.617746 C-9.83352019,978.013553 -10.7365172,979.849096 -10.8695607,981.937132 C-11.013927,984.107442 -10.3005876,986.124553 -9.06073588,987.716113 L-65.2192266,1036.43034 C-65.6438333,1036.07004 -66.1561922,1035.80053 -66.7534723,1035.76081 L-66.7534723,1035.76081 Z M-330.844516,930.430343 C-331.985259,928.245817 -334.00697,926.591215 -336.488932,925.982367 L-324.680554,865.864225 C-324.542197,865.881137 -324.415134,865.923418 -324.273953,865.931875 C-321.235738,866.129187 -318.567418,864.201167 -317.677978,861.430343 L-233.782589,882.421519 C-233.824943,882.655475 -233.884239,882.880974 -233.901181,883.123386 C-233.960477,884.053571 -233.802354,884.947112 -233.488932,885.767366 L-307.292704,919.623284 L-330.844516,930.430343 Z M-90.9851575,588.581905 C-90.5661019,588.609993 -90.1611086,588.573478 -89.7561152,588.536964 L-89.4889321,590.373937 C-92.686692,591.022776 -95.1954007,593.713633 -95.420397,597.12355 C-95.5188329,598.654361 -95.147589,600.106525 -94.4276009,601.336792 L-119.587812,617.951008 L-146.061439,635.430343 C-146.204874,635.233725 -146.328622,635.017445 -146.488932,634.834871 L-95.8563274,586.430343 C-94.5682236,587.643756 -92.8891887,588.458316 -90.9851575,588.581905 L-90.9851575,588.581905 Z M-89.6014798,422.559773 C-87.3016475,422.709602 -85.2598728,421.397898 -84.3524174,419.430343 L-28.1298835,440.044443 L-16.5569913,444.287691 C-16.6335578,444.567558 -16.6846022,444.858734 -16.7044528,445.15839 C-16.7413181,445.740742 -16.65908,446.303304 -16.4889321,446.831943 L-50.5525394,461.243721 L-105.36001,484.430343 C-106.207914,482.714386 -107.66835,481.365932 -109.488932,480.662022 L-106.65597,471.966332 L-90.5060994,422.407118 C-90.2111764,422.480619 -89.9134175,422.537158 -89.6014798,422.559773 L-89.6014798,422.559773 Z M-8.48893211,378.414913 L-12.2211384,440.869035 C-13.9550652,440.928337 -15.4644342,441.933658 -16.1835875,443.430343 L-59.3612065,427.6502 L-84.1307767,418.599492 C-84.0284466,418.243677 -83.9630691,417.873741 -83.9374865,417.495334 C-83.8749515,416.529549 -84.0909817,415.620242 -84.4889321,414.806949 L-15.0238463,374.430343 C-13.5997523,376.601948 -11.2546874,378.1184 -8.48893211,378.414913 L-8.48893211,378.414913 Z M222.285677,223.77523 C223.591028,223.856994 224.789012,223.355129 225.65077,222.503649 L350.458719,326.136058 L385.511068,355.241438 C385.465861,355.300647 385.434781,355.371134 385.3924,355.430343 L205.968788,241.93825 C206.539526,240.92888 206.923785,239.792634 207.002898,238.554887 C207.127217,236.646106 206.542352,234.87266 205.511068,233.429092 L219.420685,222.430343 C220.152473,223.191599 221.149852,223.701923 222.285677,223.77523 L222.285677,223.77523 Z M465.511068,228.915531 L395.319587,352.615834 C394.355232,352.135357 393.283412,351.830112 392.140892,351.756628 C389.544768,351.587047 387.177715,352.658229 385.540291,354.430343 L225.511068,221.349426 C225.892851,220.792637 226.147373,220.14258 226.235041,219.430343 L463.763351,225.809386 C463.859504,227.084064 464.515605,228.20612 465.511068,228.915531 L465.511068,228.915531 Z M542.511068,374.659155 C540.399849,375.851924 538.869569,377.937144 538.393482,380.430343 L400.328265,361.164718 C400.333933,361.099555 400.35377,361.042891 400.359437,360.977728 C400.563475,357.849897 398.979352,355.042216 396.511068,353.466968 L466.867085,229.430343 C467.309166,229.622999 467.779585,229.758992 468.28401,229.790157 C468.904624,229.829821 469.499732,229.724994 470.043832,229.518171 L489.194996,267.873764 L542.511068,374.659155 Z M655.330265,401.430343 C654.678806,400.439726 653.694505,399.680536 652.511068,399.339041 L676.020498,284.585568 C676.179807,284.608146 676.333426,284.656124 676.501269,284.667413 C677.246607,284.71257 677.966341,284.608146 678.654783,284.430343 L706.511068,367.410708 C704.317727,368.299722 702.704725,370.345868 702.539727,372.849221 C702.468607,373.93015 702.70188,374.957456 703.125755,375.880338 L694.09067,380.709241 L655.330265,401.430343 Z M668.623092,716.779456 C668.278772,716.708728 667.937298,716.626684 667.575905,716.60688 C665.034769,716.439962 662.707055,717.57161 661.247254,719.430343 L622.467195,692.774364 C623.005016,691.880362 623.372101,690.870365 623.446087,689.76135 C623.57414,687.778136 622.808669,685.96184 621.511068,684.646299 L698.615887,599.430343 C699.173628,599.866027 699.816738,600.194205 700.511068,600.431852 L685.51467,655.141395 L668.623092,716.779456 Z M558.511068,909.524041 L592.51494,859.644719 C593.750257,860.398883 595.164482,860.910132 596.712178,861.011817 C600.330095,861.246258 603.567477,859.350962 605.268522,856.430343 L646.511068,877.688159 C646.153252,878.484692 645.906189,879.340541 645.843713,880.261355 C645.781237,881.213239 645.920388,882.131229 646.190169,882.987078 L562.378888,914.430343 C561.549663,912.472906 560.223473,910.772507 558.511068,909.524041 L558.511068,909.524041 Z M4.63681175,979.430343 C3.77161123,977.109318 1.89606143,975.276188 -0.488932106,974.430128 L22.8515595,898.42009 L34.1361649,861.66724 C34.4776914,861.749025 34.822064,861.81953 35.1835129,861.842092 C36.1369411,861.904136 37.0476785,861.746205 37.8872645,861.430343 L39.8652723,865.748069 L76.5110679,945.703568 C72.956346,947.466193 70.3920511,950.954781 70.1131378,955.17098 C70.0277561,956.479553 70.2155957,957.734542 70.545738,958.930307 L9.15634603,978.025883 L4.63681175,979.430343 Z M-328.995605,795.117804 C-328.91693,795.123462 -328.843874,795.109317 -328.765199,795.109317 L-325.488932,852.714627 C-328.517934,853.085234 -330.95406,855.571977 -331.161988,858.749011 C-331.195706,859.29219 -331.145129,859.809908 -331.055214,860.321968 L-379.749645,872.430343 C-380.075585,871.437343 -380.685319,870.568822 -381.488932,869.926625 L-331.243473,794.430343 C-330.571923,794.812266 -329.816077,795.066881 -328.995605,795.117804 L-328.995605,795.117804 Z M-179.488932,677.30268 L-283.36565,711.960416 L-290.767428,714.430343 C-290.954171,714.014 -291.186184,713.617349 -291.488932,713.27696 L-256.022077,675.9355 C-255.17042,676.61909 -254.115044,677.066378 -252.940832,677.139519 C-250.049158,677.330812 -247.559264,675.243471 -247.177291,672.430343 L-179.630403,676.230879 C-179.619086,676.599398 -179.573815,676.956666 -179.488932,677.30268 L-179.488932,677.30268 Z M-11.4889321,577.187005 L-41.2989321,585.06723 L-80.5040603,595.430343 C-81.4094449,592.550422 -83.950727,590.378253 -87.0899577,590.168229 C-87.476368,590.142336 -87.8486757,590.17686 -88.2238039,590.211385 L-88.4889321,588.329798 C-85.0591885,587.630676 -82.3655988,584.68746 -82.1258552,580.955933 C-82.1145731,580.77468 -82.1455988,580.596303 -82.1455988,580.415049 L-11.6186757,576.430343 C-11.5904706,576.689277 -11.5397013,576.936703 -11.4889321,577.187005 L-11.4889321,577.187005 Z M-105.026312,488.202885 C-104.952471,487.104291 -105.122873,486.053832 -105.475038,485.082653 L-16.4937769,447.430343 C-15.772407,448.763945 -14.4091883,449.712473 -12.784686,449.817235 C-12.7193651,449.822898 -12.6625643,449.808741 -12.6000834,449.811573 L-4.48893211,567.794285 C-6.47127932,568.032125 -8.23494352,569.006135 -9.52148118,570.430343 L-106.488932,492.203691 C-105.665321,491.068289 -105.122873,489.703541 -105.026312,488.202885 L-105.026312,488.202885 Z M38.8845668,266.945508 C39.4060404,266.979475 39.9161157,266.951169 40.4147927,266.891727 L65.5110679,406.846831 C63.3339867,407.342182 61.4646604,408.630095 60.2393398,410.430343 L-0.547959177,373.777187 C0.0590019462,372.673261 0.45794353,371.439129 0.546280595,370.103097 C0.79134471,366.375225 -1.30879777,363.046465 -4.48893211,361.506631 L36.6191485,266.430343 C37.3343938,266.693587 38.083834,266.894558 38.8845668,266.945508 L38.8845668,266.945508 Z M465.220198,631.430343 C464.405132,630.279095 463.108951,629.477737 461.586362,629.376156 C460.474137,629.305614 459.435494,629.627286 458.577977,630.20291 L402.511068,560.727377 C404.044977,559.361682 405.066639,557.420362 405.210974,555.210983 C405.239274,554.827234 405.199653,554.449128 405.171352,554.073844 L644.418653,523.430343 C644.611099,524.561839 644.987501,525.631257 645.511068,526.613204 L508.973386,605.992851 L465.220198,631.430343 Z M695.87263,596.430343 C696.141458,597.578116 696.710242,598.612529 697.511068,599.437225 L620.835548,684.800383 C619.805511,683.978521 618.523624,683.445727 617.108738,683.355039 C614.188413,683.162327 611.61049,684.885404 610.523857,687.430343 L466.511068,636.231153 C466.584642,635.936416 466.641237,635.638845 466.661046,635.327104 C466.675195,635.091881 466.655386,634.862327 466.635578,634.629938 L564.025033,618.402408 L695.87263,596.430343 Z M625.478926,779.526107 C625.279231,779.511889 625.090946,779.543168 624.896956,779.546012 L623.695929,765.931291 L617.511068,695.918413 C619.234157,695.65681 620.760402,694.749731 621.807378,693.430343 L660.693837,720.227571 C660.086192,721.214269 659.675389,722.343142 659.595511,723.580068 C659.424343,726.156287 660.596842,728.505026 662.511068,729.955215 L628.36025,780.430343 C627.504411,779.932729 626.534461,779.597195 625.478926,779.526107 L625.478926,779.526107 Z M664.568831,827.063255 C664.503902,828.082479 664.645053,829.059469 664.893478,829.994226 L606.197279,848.430343 C605.370134,846.183547 603.687615,844.345003 601.511068,843.314518 L622.999884,792.023935 C623.539081,792.206945 624.095216,792.347721 624.688049,792.384323 C626.661339,792.513838 628.465248,791.733935 629.749722,790.430343 L666.511068,822.009372 C665.407268,823.414323 664.695867,825.148692 664.568831,827.063255 L664.568831,827.063255 Z M653.302617,873.749551 C650.398392,873.559994 647.801209,875.079276 646.412476,877.430343 L605.511068,856.134937 C605.967406,855.141887 606.274448,854.055473 606.353321,852.895501 C606.41811,851.874159 606.274448,850.892425 606.026561,849.95313 L664.595575,831.430343 C665.449096,833.764435 667.229378,835.651513 669.511068,836.664367 L655.105434,874.117347 C654.527969,873.93062 653.933603,873.791989 653.302617,873.749551 L653.302617,873.749551 Z M397.310039,910.331409 C397.338146,905.757238 393.855702,901.888311 389.265846,901.585254 C387.787424,901.486123 386.393322,901.806174 385.134133,902.386796 L353.511068,840.682221 C354.140662,840.322519 354.736528,839.90617 355.284613,839.430343 L418.511068,908.125044 C417.684725,909.011555 417.131019,910.147309 416.967999,911.430343 L410.598978,911.076305 L397.310039,910.331409 Z M269.370769,917.430343 L299.088236,921.922592 L327.272336,926.187279 C327.258242,926.308083 327.218781,926.42046 327.210325,926.544074 C326.880538,931.578539 330.708321,935.924699 335.759417,936.2534 C337.943903,936.39668 339.973361,935.72804 341.630752,934.556515 L344.60729,938.360459 L370.511068,971.458136 C369.865587,972.017209 369.332855,972.691468 368.887501,973.430343 L268.511068,920.141425 C268.919778,919.301411 269.187554,918.379924 269.370769,917.430343 L269.370769,917.430343 Z M93.1192557,953.430343 C92.1974461,950.033897 89.7628505,947.257549 86.5110679,945.893333 L107.814486,889.723725 C108.408289,889.909755 109.021887,890.053505 109.672243,890.095784 C113.430173,890.341005 116.735681,887.900073 117.722526,884.430343 L142.580284,890.050686 L247.511068,913.783529 C247.434722,914.209142 247.327271,914.629117 247.296167,915.071642 C247.233959,916.024338 247.335754,916.940392 247.505413,917.836715 L182.944803,932.721887 L93.1192557,953.430343 Z M-0.880739093,974.66472 C-1.36704218,974.540021 -1.86748199,974.446497 -2.38771321,974.409654 C-4.68068883,974.259449 -6.81250587,975.047319 -8.43540107,976.430343 L-101.488932,877.340078 C-99.8434182,875.653809 -98.7379268,873.426233 -98.5711136,870.892579 C-98.5428401,870.453299 -98.590905,870.033857 -98.6163511,869.608747 L29.4425205,856.430343 C29.8270392,858.689093 31.3877329,860.556742 33.5110679,861.358783 L7.39772283,947.395342 L-0.880739093,974.66472 Z M-318.020067,860.215105 C-317.9777,859.967256 -317.915561,859.727955 -317.898614,859.47156 C-317.825178,858.354818 -318.062434,857.300751 -318.488932,856.349242 L-277.754171,834.430343 C-276.655446,836.219408 -274.760214,837.470045 -272.520396,837.618184 C-270.879368,837.726439 -269.354145,837.202255 -268.125493,836.282082 L-232.573667,878.726803 L-232.488932,878.826512 C-233.220474,879.53872 -233.779723,880.427555 -234.101715,881.430343 L-292.257915,866.730379 L-318.020067,860.215105 Z M-179.547007,678.430343 C-178.978917,679.744371 -177.87948,680.773599 -176.488932,681.236046 L-203.319156,791.261915 C-203.641357,791.199879 -203.955078,791.120925 -204.291409,791.098366 C-206.696605,790.943277 -208.906785,791.870992 -210.500827,793.430343 L-291.488932,719.399251 C-290.96889,718.714039 -290.635384,717.882198 -290.576032,716.965762 C-290.544942,716.508954 -290.607121,716.071885 -290.706042,715.648914 L-231.147071,695.707272 L-179.547007,678.430343 Z M-153.932703,649.573915 C-151.513504,649.732698 -149.261832,648.901922 -147.56385,647.430343 L-67.4889321,731.284836 C-67.8183066,731.636427 -68.1107685,732.016373 -68.3663176,732.430343 L-169.816505,677.593462 C-169.583671,677.060405 -169.418984,676.490487 -169.379232,675.880873 C-169.259975,674.060538 -170.114645,672.415999 -171.488932,671.415098 L-157.57002,648.502129 C-156.476837,649.097565 -155.25588,649.488852 -153.932703,649.573915 L-153.932703,649.573915 Z M-88.053325,605.399392 C-85.7578254,605.547426 -83.6632882,604.631294 -82.1914512,603.109062 L-55.4889321,625.559882 C-56.295612,626.615668 -56.8192463,627.90328 -56.9126513,629.322167 C-56.9296341,629.590304 -56.8956686,629.85006 -56.8843468,630.11261 L-132.884913,638.209765 L-144.362411,639.430343 C-144.540729,638.318695 -144.922841,637.268495 -145.488932,636.330018 L-93.5274263,602.430343 C-92.2650431,604.100608 -90.3233504,605.251359 -88.053325,605.399392 L-88.053325,605.399392 Z M-11.3402173,578.430343 C-10.7100582,580.448065 -9.32314537,582.135666 -7.48893211,583.137412 L-24.7986165,620.256098 C-25.2121584,620.102421 -25.6425796,619.98574 -26.1039462,619.954436 C-27.9887972,619.829217 -29.6767235,620.856577 -30.5263131,622.430343 L-80.4889321,600.517142 C-80.2498092,599.8569 -80.0641373,599.168199 -80.0191259,598.428273 C-79.9741146,597.756648 -80.0500713,597.107789 -80.1738525,596.47316 L-50.0724999,588.584408 L-11.3402173,578.430343 Z M-8.74741506,378.347163 C-5.64087389,378.383954 -2.87032893,376.844395 -1.22736444,374.430343 L59.5110679,411.076953 C58.9273457,412.14672 58.5400958,413.343841 58.4546731,414.640014 C58.38064,415.769213 58.5429432,416.858791 58.876092,417.871957 L-9.08625869,443.430343 C-9.72692942,442.128509 -10.9712543,441.177605 -12.4889321,440.945539 L-10.8231882,413.097625 L-8.74741506,378.347163 Z M197.511068,245.698687 L185.901029,441.55757 C180.653121,441.436103 176.094161,444.701594 174.378881,449.430343 L75.4256271,417.707616 C75.570221,417.162426 75.6694521,416.603112 75.7091445,416.021199 C75.8991012,413.117284 74.6147672,410.464778 72.5110679,408.752937 L194.003957,244.430343 C195.03029,245.105475 196.215393,245.551796 197.511068,245.698687 L197.511068,245.698687 Z M384.511068,356.136557 C383.915376,357.187405 383.517307,358.368196 383.435435,359.653507 C383.345093,361.060286 383.641527,362.390795 384.186402,363.59136 L314.738888,399.430343 C313.722542,397.755202 311.943935,396.582885 309.840663,396.444467 C308.564584,396.359721 307.359084,396.670456 306.328622,397.266501 L203.511068,244.17893 C204.171693,243.687405 204.753269,243.105484 205.230387,242.430343 L340.065675,327.947292 L384.511068,356.136557 Z M649.099718,513.430343 L551.511068,387.621143 C552.767477,386.539372 553.709074,385.09417 554.16002,383.430343 L641.561265,402.572875 L646.71169,403.702915 C646.69751,403.816487 646.663476,403.921541 646.657804,404.035113 C646.473455,406.82898 648.589213,409.242381 651.379972,409.426936 C651.402661,409.426936 651.419678,409.424096 651.439531,409.424096 L654.511068,511.482586 C652.505919,511.624551 650.659593,512.317339 649.099718,513.430343 L649.099718,513.430343 Z M429.511068,910.340013 L483.002049,888.430343 C484.430542,891.497247 487.411498,893.734878 491.032036,893.97101 C494.556777,894.198709 497.726509,892.475508 499.56918,889.748746 C500.622939,891.100883 502.206396,892.028544 504.049067,892.155043 L541.511068,914.022547 C540.792595,915.352194 540.330519,916.839263 540.178372,918.430343 L429.787187,912.111002 C429.778734,911.495373 429.694208,910.902232 429.511068,910.340013 L429.511068,910.340013 Z M375.835312,969.970633 C374.701677,969.896853 373.61003,970.064278 372.599555,970.430343 L355.511068,928.582601 C358.469713,927.175095 360.625018,924.257927 360.851745,920.713625 C360.910526,919.77718 360.792964,918.880463 360.594228,918.006447 L380.411835,912.430343 C381.32714,915.234002 383.611203,917.419041 386.511068,918.145495 L376.451113,970.075629 C376.246779,970.044414 376.050842,969.984822 375.835312,969.970633 L375.835312,969.970633 Z M117.698067,883.103456 C117.746113,882.8359 117.813941,882.579611 117.833725,882.303606 C117.949598,880.523659 117.435232,878.861999 116.511068,877.484793 L149.857276,852.683816 C150.527083,853.401991 151.454073,853.883591 152.513894,853.951184 C153.878944,854.041308 155.128119,853.432971 155.910974,852.430343 L248.511068,909.853362 C248.044747,910.658844 247.657559,911.509389 247.41168,912.430343 L198.289683,901.325386 L117.698067,883.103456 Z M41.3749436,857.430343 L102.138543,879.137767 C101.973757,879.691673 101.854429,880.268303 101.817494,880.870498 C101.593043,884.262105 103.570481,887.267399 106.511068,888.568367 L85.1058703,945.169013 C84.1768154,944.859394 83.2136667,944.617948 82.1880128,944.549775 C80.3696791,944.433312 78.6451032,944.782699 77.0654257,945.430343 L38.5110679,860.549258 C39.7839015,859.867528 40.7925085,858.773919 41.3749436,857.430343 L41.3749436,857.430343 Z M-221.490375,881.430343 C-221.983883,878.671516 -224.323794,876.484539 -227.293353,876.294852 C-227.769844,876.264168 -228.232153,876.297642 -228.685954,876.36459 L-234.488932,851.161354 C-232.211419,850.505819 -230.39338,848.73169 -229.775076,846.430343 L-118.488932,868.322429 C-118.537148,868.620906 -118.6194,868.911015 -118.639254,869.220651 C-118.670452,869.666973 -118.622236,870.096558 -118.593874,870.534511 L-164.288781,875.371524 L-221.490375,881.430343 Z M-267.488932,836.416532 C-266.888842,835.853872 -266.394482,835.184307 -266.040143,834.430343 L-243.016681,843.264102 C-243.188135,843.781749 -243.313868,844.321903 -243.353874,844.890189 C-243.602483,848.645944 -240.71062,851.889678 -236.898618,852.134435 C-236.364252,852.168194 -235.844173,852.128808 -235.338383,852.047223 L-229.488932,877.468194 C-230.200468,877.676379 -230.849137,878.005535 -231.434939,878.430343 L-248.391775,858.669729 L-267.488932,836.416532 Z M537.511068,381.977645 L354.344314,401.430343 C354.20544,400.784952 353.922023,400.190738 353.511068,399.698876 L385.868789,366.118665 C387.195181,367.278662 388.87301,368.054836 390.766236,368.179934 C394.991983,368.452875 398.648063,365.496019 399.421792,361.430343 L537.508234,380.760786 C537.502565,380.831864 537.479892,380.89157 537.474224,380.959805 C537.45155,381.306667 537.491229,381.639313 537.511068,381.977645 L537.511068,381.977645 Z M405.901891,553.430343 C405.591027,551.713593 404.73474,550.191671 403.511068,549.0227 L508.430324,426.755091 L541.311204,388.430343 C542.594222,389.424251 544.179626,390.059561 545.917636,390.175329 C547.907162,390.305214 549.758213,389.703787 551.27014,388.644937 L648.511068,513.758736 C646.383066,515.551723 644.950268,518.157908 644.755272,521.150926 C644.718533,521.701528 644.766576,522.232366 644.811792,522.76885 L560.174966,533.628423 L405.901891,553.430343 Z M618.336871,784.430343 L475.345243,746.15461 L418.511068,730.939218 C418.601546,730.521541 418.694851,730.103863 418.723125,729.669138 C418.762709,729.055408 418.737262,728.455884 418.658094,727.870568 L609.5577,691.430343 C610.258902,694.177922 612.619807,696.297563 615.591436,696.490775 C615.795011,696.504982 615.992931,696.476568 616.193679,696.470885 L623.511068,780.040468 C621.09927,780.409842 619.108759,782.123172 618.336871,784.430343 L618.336871,784.430343 Z M599.997375,843.228598 C599.197641,842.934705 598.358344,842.711458 597.462529,842.65494 C594.201422,842.442998 591.245515,843.97181 589.453885,846.430343 L417.511068,733.216312 C417.844526,732.656783 418.11864,732.063344 418.322106,731.430343 L461.001904,742.801764 L618.035192,784.633562 C617.978674,784.9105 617.913678,785.181786 617.893896,785.470028 C617.715864,788.180066 619.219251,790.61034 621.511068,791.746352 L610.603035,817.84919 L599.997375,843.228598 Z M552.310118,907.846397 C548.277424,907.57843 544.589018,909.422841 542.2947,912.430343 L509.511068,888.854949 C510.030323,888.005437 510.380256,887.036194 510.447985,885.972878 C510.49596,885.228842 510.391544,884.516164 510.196823,883.837695 L532.866266,875.61909 L588.545104,855.430343 C589.177241,856.97828 590.190353,858.326667 591.511068,859.324416 L557.717146,909.665151 C556.131159,908.655999 554.310944,907.97753 552.310118,907.846397 L552.310118,907.846397 Z M345.693696,927.447809 C345.716208,927.099127 345.673998,926.767593 345.659928,926.430343 C347.199183,927.962258 349.230888,928.994014 351.54962,929.14549 C352.877825,929.236948 354.152565,929.025452 355.328815,928.593887 L371.824453,969.055303 L372.511068,970.738695 C372.100225,970.938758 371.711893,971.167402 371.34326,971.430343 L342.511068,933.889854 C344.314839,932.320784 345.52767,930.045776 345.693696,927.447809 L345.693696,927.447809 Z M268.564916,914.856531 L353.148304,909.430343 C353.210654,909.8685 353.343857,910.274739 353.511068,910.669371 C353.032107,910.559106 352.547478,910.451743 352.040176,910.416922 C346.867963,910.07162 342.398605,914.087579 342.061348,919.386092 C342.035841,919.769117 342.078353,920.137633 342.098191,920.509052 C340.584788,919.011772 338.592423,918.001979 336.325152,917.85109 C331.660241,917.537706 327.61883,920.857256 326.728926,925.430343 L268.511068,916.385729 C268.530907,916.205823 268.587588,916.040426 268.598925,915.860521 C268.621597,915.521021 268.573418,915.193128 268.564916,914.856531 L268.564916,914.856531 Z M-324.181231,793.430343 L-321.314557,795.524425 L-277.488932,827.527957 C-278.082622,828.443065 -278.481242,829.501335 -278.557574,830.666273 C-278.633906,831.797527 -278.390775,832.867025 -277.946921,833.829854 L-318.722111,855.430343 C-319.79358,853.715216 -321.639673,852.5194 -323.819363,852.376239 C-323.946582,852.367817 -324.068147,852.393081 -324.195367,852.390274 L-327.488932,795.229682 C-326.17716,795.055643 -325.018051,794.390365 -324.181231,793.430343 L-324.181231,793.430343 Z M-51.4889321,637.23057 L-62.1975749,729.690842 C-64.1603526,729.577335 -65.9867869,730.249866 -67.375786,731.430343 L-147.488932,647.50015 C-146.105614,646.052931 -145.173934,644.157358 -145.03475,642.000717 C-145.009185,641.626143 -145.051793,641.265757 -145.071676,640.899696 L-57.2721673,631.430343 C-56.7779223,634.367346 -54.4799668,636.705598 -51.4889321,637.23057 L-51.4889321,637.23057 Z M-7.01724414,583.056039 C-6.22552724,583.3787 -5.38556953,583.616451 -4.48602022,583.675888 C-1.21983331,583.888166 1.70866791,582.127679 3.16724313,579.430343 L28.6383932,591.448067 L128.511068,638.567963 C128.267026,639.159509 128.093927,639.779359 127.988932,640.430343 L-22.1563468,624.135939 C-22.1222945,622.381113 -23.0530584,620.830074 -24.4889321,619.986625 L-14.8379315,599.591024 L-7.01724414,583.056039 Z M-9.10759207,449.430343 L39.0940148,491.898447 L68.5110679,517.817084 C67.8852936,518.645688 67.4832124,519.658113 67.4095919,520.76669 C67.3331399,521.951622 67.6446112,523.068683 68.2250806,524.004752 L2.99448558,571.430343 C1.62401165,569.744854 -0.400552111,568.593857 -2.7450819,568.443973 C-2.9659434,568.429833 -3.18114178,568.460941 -3.40200328,568.463769 L-11.4889321,450.606792 C-10.5771705,450.456907 -9.75885035,450.038363 -9.10759207,449.430343 L-9.10759207,449.430343 Z M59.0178524,418.430343 C60.281658,421.311862 63.0393102,423.425543 66.4047252,423.646545 C66.6006861,423.657878 66.7852869,423.626711 66.9784077,423.626711 L71.5110679,514.905999 C70.3012225,515.059 69.2163377,515.611504 68.3728539,516.430343 L17.760989,471.88154 L-9.48893211,447.900043 C-8.99476991,447.228539 -8.67384848,446.415366 -8.61420822,445.520027 C-8.58012807,444.99869 -8.6539684,444.50002 -8.78460898,444.021184 L-1.71013753,441.349332 L59.0178524,418.430343 Z M198.11799,245.540912 C199.631566,245.552216 201.065779,245.165071 202.287411,244.430343 L305.511068,397.567398 C304.153384,398.62145 303.218028,400.206766 303.096148,402.054889 C303.042294,402.882871 303.161339,403.68542 303.410768,404.428625 L196.264283,448.430343 C194.535291,444.646495 190.921415,441.885614 186.511068,441.47021 L195.737083,285.719219 L198.11799,245.540912 Z M457.932395,631.430343 L447.826783,625.421735 L418.063217,607.71408 C418.444294,606.976379 418.684232,606.148576 418.740688,605.26446 C418.966512,601.789942 416.33002,598.788454 412.843866,598.560386 C412.234142,598.520967 411.649823,598.596989 411.076795,598.720878 L400.511068,562.545342 C401.261932,562.283486 401.939403,561.886479 402.574532,561.430343 L458.511068,630.777111 C458.299358,630.977022 458.107408,631.193828 457.932395,631.430343 L457.932395,631.430343 Z M609.310375,690.17253 L418.440126,726.430343 C417.89458,724.157516 416.47277,722.22957 414.511068,721.030965 L450.926935,654.262425 L459.330596,638.852996 C459.833742,639.070667 460.370808,639.226146 460.950273,639.262896 C463.022215,639.398587 464.856718,638.208463 465.670796,636.430343 L609.511068,687.498283 C609.383868,687.94776 609.296242,688.414198 609.262322,688.903252 C609.234055,689.33294 609.256668,689.756975 609.310375,690.17253 L609.310375,690.17253 Z M509.689704,883.430343 C509.065833,881.995546 507.942301,880.839737 506.511068,880.196356 L581.511068,857.430343 L543.39002,871.228876 L509.689704,883.430343 Z M505.511068,891.667387 C507.030129,891.402512 508.363591,890.593491 509.311577,889.430343 L542.511068,913.260477 C542.476803,913.318059 542.442539,913.372761 542.405419,913.430343 L533.71079,908.302704 L505.511068,891.667387 Z M380.164942,909.430343 L362.714849,909.054461 C362.555148,906.628312 360.641598,904.63215 358.146283,904.472685 C357.969473,904.461295 357.798365,904.484076 357.624406,904.486923 L349.511068,841.364353 C350.537712,841.196345 351.50732,840.863177 352.425596,840.430343 L384.511068,902.467981 C382.084196,903.877539 380.375975,906.423286 380.164942,909.430343 L380.164942,909.430343 Z M-107.488932,860.841303 L-105.736963,847.187515 C-105.629062,847.196041 -105.52684,847.23299 -105.4161,847.241516 C-99.2884678,847.642262 -93.9928079,843.333531 -92.9137995,837.430343 L29.5025494,855.461074 C29.5025494,855.492338 29.4911914,855.523602 29.4883519,855.56055 C29.4741544,855.782239 29.5025494,855.995402 29.5110679,856.214249 L-99.0726661,869.430343 C-99.6945158,865.078979 -103.084874,861.594478 -107.488932,860.841303 L-107.488932,860.841303 Z M176.511068,460.705668 L140.203137,491.430343 C138.746189,489.871273 136.727357,488.828134 134.428993,488.678711 C132.31416,488.537746 130.351798,489.200281 128.764967,490.356191 L73.5110679,421.858605 C74.5473079,420.939515 75.3294291,419.758231 75.8291961,418.430343 L174.370823,450.091023 C174.144939,450.886064 173.992468,451.709298 173.935997,452.563545 C173.735526,455.628118 174.746354,458.472787 176.511068,460.705668 L176.511068,460.705668 Z M397.951813,546.752373 C397.090753,546.695684 396.266514,546.811895 395.473433,547.007469 L352.511068,405.493929 C353.856474,404.921379 354.844994,403.640226 354.946961,402.081301 C354.952626,401.9906 354.938464,401.908402 354.938464,401.823369 L537.964709,382.430343 C538.259283,384.301053 539.182656,385.962016 540.511068,387.223328 L402.39307,548.430343 C401.155296,547.472313 399.628614,546.862915 397.951813,546.752373 L397.951813,546.752373 Z M457.511068,632.612411 C457.386188,632.873575 457.278337,633.146219 457.198869,633.430343 L454.911299,632.994113 L399.864878,622.513112 C399.881907,622.378225 399.921641,622.251948 399.932994,622.117061 C400.043683,620.38075 399.484562,618.767847 398.511068,617.490726 L406.446608,610.459387 L407.726625,609.322892 C408.779588,610.384768 410.184485,611.099382 411.785216,611.20557 C414.09833,611.360546 416.181551,610.226922 417.410481,608.430343 L440.513233,622.363875 L457.511068,632.612411 Z M413.848718,721.430343 C412.862608,720.950623 411.777886,720.635541 410.617093,720.561738 C409.783126,720.504967 408.98015,720.612833 408.199714,720.783147 L401.511068,695.746895 C403.567812,695.017381 405.103327,693.107019 405.25547,690.776547 C405.345629,689.345904 404.886383,688.023127 404.083407,686.970014 L457.885592,638.430343 C458.079997,638.617689 458.285671,638.782326 458.511068,638.93561 L433.13422,685.811875 L413.848718,721.430343 Z M359.511068,915.130259 C361.328592,914.710728 362.749412,913.100083 362.87602,911.058172 L362.87602,911.052304 L379.897724,910.442078 L380.322563,910.430343 C380.356325,910.849873 380.423849,911.257669 380.511068,911.662531 L360.594267,917.430343 C360.335425,916.605951 359.961229,915.843168 359.511068,915.130259 L359.511068,915.130259 Z M268.789026,914.430343 C268.324577,909.840859 265.005464,906.028967 260.511068,904.921743 L276.265527,829.433324 C276.344823,829.441776 276.421287,829.467132 276.503415,829.472767 C277.741003,829.551653 278.890798,829.145953 279.788544,828.430343 L354.511068,906.088131 C353.825722,906.862906 353.366937,907.848983 353.293305,908.964659 C353.287641,909.032276 353.301801,909.097075 353.298969,909.161874 L345.400499,909.654913 L268.789026,914.430343 Z M156.869592,849.665432 L240.473465,828.430343 C241.503869,831.764708 244.479337,834.292964 248.177499,834.535361 C248.530377,834.557909 248.866317,834.515631 249.210726,834.498719 L256.511068,904.703605 C253.402918,905.14612 250.718221,906.918999 249.010292,909.430343 L156.511068,851.962565 C156.728441,851.511594 156.869592,851.021163 156.903468,850.491273 C156.923229,850.209416 156.909114,849.936015 156.869592,849.665432 L156.869592,849.665432 Z M110.528342,874.611533 C109.126575,874.518045 107.801424,874.832505 106.620989,875.3991 L69.5110679,807.886492 C70.0870974,807.50404 70.5751618,807.011103 70.9582356,806.430343 L149.269873,848.941954 C149.108131,849.335737 148.988952,849.752185 148.957739,850.199795 C148.903825,851.035522 149.113806,851.828755 149.511068,852.497337 L116.047442,877.430343 C114.716615,875.832545 112.767195,874.756015 110.528342,874.611533 L110.528342,874.611533 Z M39.5110679,849.772644 L50.2039315,831.541578 L64.3425555,807.430343 C64.9126158,807.707256 65.5447618,807.885272 66.2135949,807.930482 C67.0715075,807.984169 67.8786225,807.806154 68.6095414,807.478379 L105.511068,874.805039 C104.148003,875.655559 103.075612,876.918622 102.443466,878.430343 L42.0876275,856.833933 C42.208977,856.404434 42.2936394,855.957982 42.3246823,855.491751 C42.4770746,853.135162 41.3284878,851.013102 39.5110679,849.772644 L39.5110679,849.772644 Z M-229.429291,845.027187 L-115.434833,836.430343 C-114.852621,841.741333 -110.808371,846.04546 -105.488932,846.92397 L-107.241251,860.623586 C-107.312253,860.617882 -107.380414,860.595063 -107.454256,860.592211 C-112.498208,860.258491 -116.900306,863.66129 -118.050532,868.430343 L-229.488932,846.04546 C-229.466212,845.882879 -229.420771,845.731707 -229.40941,845.563421 C-229.39805,845.380873 -229.426451,845.206883 -229.429291,845.027187 L-229.429291,845.027187 Z M-265.009914,830.980636 C-264.942288,829.952611 -265.131078,828.972598 -265.488932,828.077312 L-211.619152,802.430343 C-211.08378,803.416004 -210.368071,804.29152 -209.488932,804.980636 L-232.901632,838.487479 C-233.817401,837.925455 -234.85997,837.544182 -236.003977,837.470751 C-238.900626,837.281527 -241.476051,838.939359 -242.628511,841.430343 L-265.32832,832.565038 C-265.167708,832.059498 -265.046545,831.534188 -265.009914,830.980636 L-265.009914,830.980636 Z M-322.754608,790.430343 L-212.104177,798.753033 C-212.132529,799.903597 -211.911381,801.003771 -211.488932,802.008765 L-265.695651,827.430343 C-266.767367,825.532333 -268.749191,824.185809 -271.1081,824.031841 C-273.322413,823.89187 -275.341095,824.838075 -276.665147,826.397355 L-323.488932,792.398339 C-323.120353,791.810459 -322.868017,791.146996 -322.754608,790.430343 L-322.754608,790.430343 Z M3.51106789,571.869052 L68.8004011,524.430343 C69.7356971,525.522253 71.0847908,526.25208 72.6294465,526.353916 C73.5278975,526.410492 74.3810009,526.232278 75.1547458,525.895653 L132.511068,635.168755 C131.198819,635.943842 130.121812,637.075355 129.393414,638.430343 L4.20545436,579.322899 C4.53139086,578.530839 4.76946622,577.693519 4.82898506,576.793966 C4.94518851,574.977886 4.4321928,573.280616 3.51106789,571.869052 L3.51106789,571.869052 Z M67.5110679,424.055446 C69.0946623,423.902562 70.5472399,423.322168 71.7776586,422.430343 L127.511068,491.219773 C125.844876,492.689161 124.736929,494.78141 124.580279,497.165273 C124.506226,498.297749 124.668573,499.390588 124.998963,500.409817 L76.9015549,518.430343 C76.0727312,516.675005 74.3552718,515.395307 72.2675475,515.25941 C72.1991909,515.256578 72.1308343,515.270734 72.0596296,515.267903 L68.2886241,439.612837 L67.5110679,424.055446 Z M303.525775,405.430343 C303.789086,405.956362 304.111854,406.448627 304.511068,406.879007 L252.647285,461.146236 C251.973435,460.623029 251.141033,460.288289 250.223691,460.226405 C248.100215,460.088571 246.231556,461.469724 245.687946,463.430343 L197.108473,454.988711 C197.150942,454.701791 197.23305,454.431749 197.252869,454.136391 C197.366121,452.406433 197.08016,450.746798 196.511068,449.222185 L215.489283,441.455659 L303.525775,405.430343 Z M588.508219,854.255212 L505.305739,879.175854 C505.090438,879.139206 504.880803,879.082824 504.657003,879.068729 C503.03658,878.964423 501.529474,879.497228 500.350984,880.430343 C499.059179,877.01644 495.872158,874.484909 491.976911,874.231192 C490.296997,874.121248 488.707736,874.490547 487.282784,875.15585 L438.39814,782.233432 L414.511068,736.823739 C415.545079,736.217638 416.431779,735.397286 417.140006,734.430343 L589.511068,847.373845 C588.79151,848.574772 588.304249,849.942025 588.207931,851.436135 C588.145607,852.414355 588.278753,853.353108 588.508219,854.255212 L588.508219,854.255212 Z M358.93073,834.323798 C359.2186,833.44466 359.438737,832.531491 359.500827,831.567275 C359.768941,827.41831 357.728446,823.686226 354.511068,821.539428 L357.753847,816.199372 L406.183857,736.430343 C407.267605,737.023052 408.475533,737.41441 409.787885,737.502324 C411.300617,737.601582 412.731504,737.272614 414.01281,736.671397 L486.511068,875.827629 C484.733043,876.868415 483.341668,878.490567 482.528857,880.430343 L427.359286,859.850001 L358.93073,834.323798 Z M-68.7406049,739.430343 C-68.0280644,740.826457 -66.9027029,741.981373 -65.4889321,742.682268 L-98.3308272,820.362427 L-99.7530806,823.719345 C-100.844512,823.299375 -101.992494,822.98156 -103.222474,822.902107 C-108.507149,822.555916 -113.16411,825.748251 -115.02746,830.430343 L-196.299487,801.211253 C-196.124179,800.626701 -195.99694,800.025123 -195.957354,799.392331 C-195.878183,798.1835 -196.084594,797.028584 -196.488932,795.964472 L-141.199185,771.498415 L-68.7406049,739.430343 Z M131.511068,649.134748 L95.1084459,710.791073 C94.2629912,710.355819 93.3242255,710.081665 92.3175971,710.013833 C90.0272348,709.864038 87.9404603,710.833468 86.5266565,712.430343 L-22.4889321,627.06396 C-22.17224,626.575005 -21.9432038,626.026698 -21.8244443,625.430343 L127.753177,641.698681 C127.575038,644.779378 129.104774,647.543526 131.511068,649.134748 L131.511068,649.134748 Z M176.772077,461.430343 C178.715286,463.575824 181.425625,465.008984 184.511068,465.295615 L182.962706,493.246474 C179.454213,493.260664 176.504145,495.905623 176.109299,499.430343 L142.299158,497.673659 C142.304799,495.678588 141.647662,493.836765 140.511068,492.346848 L161.358962,474.569999 L176.772077,461.430343 Z M457.511068,637.682176 L403.118616,686.430343 C402.187199,685.535149 400.962401,684.933601 399.572397,684.842371 C399.401495,684.830967 399.239138,684.856626 399.071084,684.859477 L393.511068,628.476501 C396.174293,628.046009 398.353295,626.064608 399.016965,623.430343 L456.554016,634.275306 C456.548319,634.332325 456.528381,634.380791 456.525532,634.44066 C456.448626,635.65516 456.833156,636.778429 457.511068,637.682176 L457.511068,637.682176 Z M355.487893,905.430343 L280.511068,827.714204 C281.070851,827.079798 281.454459,826.304413 281.613585,825.430343 L290.044428,826.177532 L337.216803,830.342055 C336.907075,836.412615 341.550148,841.628841 347.685029,842.023583 C348.276069,842.063057 348.85006,842.015124 349.421209,841.964372 L357.511068,904.480144 C356.75806,904.64086 356.070408,904.965112 355.487893,905.430343 L355.487893,905.430343 Z M362.612998,909.606343 L373.511068,909.855343 L362.511068,910.254343 C362.55637,910.041343 362.590347,909.825343 362.612998,909.606343 L362.612998,909.606343 Z M36.4754022,848.762008 C36.1482902,848.742269 35.8323615,848.770468 35.5164329,848.795848 L26.5110679,789.252048 C27.5035872,788.98415 28.3423358,788.324275 28.8427892,787.430343 L44.2030733,794.000888 L61.6322709,801.451265 C61.5008669,801.854522 61.4002171,802.266238 61.3722588,802.708975 C61.2520381,804.541959 62.1215409,806.200105 63.5110679,807.189917 L38.9189567,849.430343 C38.178062,849.055286 37.3532925,848.818408 36.4754022,848.762008 L36.4754022,848.762008 Z M-92.4889321,831.231699 L-35.9908976,809.589478 L21.8553502,787.430343 C22.4533026,788.6005 23.6153609,789.441195 25.0143437,789.532081 C25.1525497,789.543442 25.2851146,789.52356 25.4233205,789.51788 L28.6161604,810.594904 L34.5110679,849.494099 C32.0910532,850.033734 30.1646313,851.939499 29.6371922,854.430343 L-91.9643135,836.4122 C-91.9445698,836.227587 -91.8881592,836.060016 -91.8740566,835.872564 C-91.769697,834.247977 -91.9981599,832.680194 -92.4889321,831.231699 L-92.4889321,831.231699 Z M-65.160742,743.370112 C-64.5318026,743.593852 -63.8773657,743.766613 -63.1775999,743.811928 C-60.4153662,743.993185 -57.9421047,742.6026 -56.545406,740.430343 L7.03696347,776.138065 L21.5110679,784.26633 C21.3467504,784.657166 21.2277619,785.073492 21.1994313,785.520972 C21.1711007,785.942962 21.2277619,786.347959 21.329752,786.735963 L-93.5650033,830.430343 C-94.7095596,827.719977 -96.8031911,825.505237 -99.4889321,824.250596 L-92.4941065,807.770326 L-65.160742,743.370112 Z M349.511068,405.592094 L325.644343,473.925627 L317.435748,497.430343 C317.125351,497.348109 316.800844,497.28856 316.465051,497.265875 C316.383219,497.260204 316.304209,497.277218 316.216733,497.274382 L310.511068,408.475952 C313.386475,408.093139 315.686236,405.722534 315.88094,402.705401 C315.883762,402.694058 315.88094,402.682716 315.88094,402.671373 L347.264921,402.430343 C347.420119,403.819812 348.28641,405.00795 349.511068,405.592094 L349.511068,405.592094 Z M390.678245,550.430343 L375.727395,540.847111 L319.97827,505.114175 C320.318966,504.481134 320.540418,503.77744 320.588683,503.017225 C320.733479,500.795927 319.441675,498.826151 317.511068,497.969849 L349.789118,406.430343 C350.004892,406.478386 350.220666,406.523603 350.447796,406.537734 C350.79417,406.560342 351.132026,406.523603 351.458526,406.46143 L394.511068,547.533612 C392.963743,548.09035 391.635031,549.110564 390.678245,550.430343 L390.678245,550.430343 Z M393.0957,614.827053 C390.914528,614.821418 388.938107,615.818782 387.684005,617.430343 L300.511068,559.202859 C301.113947,558.205495 301.520606,557.075712 301.600232,555.838868 C301.603076,555.805059 301.594544,555.77125 301.597388,555.737441 L389.336235,555.430343 C389.552362,559.326826 392.546852,562.535859 396.511068,562.997915 L394.557398,592.651192 L393.0957,614.827053 Z M404.118832,722.430343 L393.590541,712.574025 C394.661773,711.226371 395.367688,709.543931 395.485798,707.668563 C395.664337,704.820048 394.472247,702.226877 392.511068,700.516066 L396.999257,694.430343 C397.760107,694.94387 398.639066,695.287167 399.611416,695.349585 C400.086604,695.383631 400.542564,695.329725 400.987537,695.24461 L407.511068,720.262747 C406.211855,720.696834 405.063714,721.448683 404.118832,722.430343 L404.118832,722.430343 Z M349.046813,819.00434 C347.008729,818.874447 345.080889,819.340369 343.370707,820.187499 L322.158804,781.304224 L295.511068,732.441757 C297.910975,730.981869 299.595716,728.434831 299.830336,725.430343 L318.633851,726.02051 L401.697787,728.629671 C401.745842,731.546623 403.218577,734.133193 405.511068,735.689089 L353.756172,820.430343 C352.345626,819.645336 350.768302,819.117291 349.046813,819.00434 L349.046813,819.00434 Z M154.511068,846.19634 L166.61737,808.420364 C167.11237,808.549465 167.618685,808.639274 168.1448,808.675759 C171.810634,808.911508 175.032381,806.680312 176.248668,803.430343 L240.511068,823.401654 C240.375296,823.920863 240.276296,824.456911 240.242353,825.009799 C240.18861,825.795629 240.279125,826.547781 240.429039,827.283093 L156.643814,848.430343 C156.270442,847.431216 155.501069,846.62574 154.511068,846.19634 L154.511068,846.19634 Z M71.9483822,802.889629 L77.390829,802.738595 L160.31126,800.430343 C160.562363,803.610601 162.616329,806.300712 165.511068,807.400694 L162.2298,817.824874 L153.424265,845.786069 C153.246518,845.751873 153.074414,845.709128 152.888203,845.697729 C151.443655,845.603689 150.140176,846.310413 149.369939,847.430343 L71.5110679,804.673537 C71.748064,804.137794 71.9117042,803.559307 71.9512036,802.940923 C71.9512036,802.920975 71.9483822,802.903877 71.9483822,802.889629 L71.9483822,802.889629 Z M176.170492,500.186921 C176.198568,503.07293 177.956136,505.567328 180.511068,506.597437 L138.770223,634.430343 C138.239584,634.279941 137.680868,634.186295 137.108114,634.146566 C137.015462,634.140891 136.925619,634.160755 136.835775,634.157917 L134.511068,506.242716 C138.674764,505.961777 142.094442,502.706858 142.518392,498.430343 L160.363607,499.36113 L176.170492,500.186921 Z M246.511068,466.020106 L239.999267,469.500538 L189.632709,496.430343 C188.557727,494.634451 186.700429,493.372474 184.511068,493.112655 L186.053188,464.983685 C191.810814,465.103602 196.735469,461.043574 197.903316,455.430343 L246.187448,463.998658 C246.187448,464.018644 246.18182,464.035775 246.179005,464.05005 C246.13398,464.752418 246.266242,465.411958 246.511068,466.020106 L246.511068,466.020106 Z M309.349294,408.85298 C309.480517,408.861448 309.606034,408.841689 309.737257,408.841689 L312.093565,444.949565 L315.511068,497.242756 C314.053352,497.454458 312.79247,498.270216 311.982311,499.430343 L254.192857,466.574208 C254.40966,466.105641 254.555146,465.597557 254.592231,465.0556 C254.669253,463.853133 254.252763,462.729702 253.511068,461.888539 L305.769189,407.430343 C306.750508,408.237633 307.980011,408.765476 309.349294,408.85298 L309.349294,408.85298 Z M390.511068,551.077351 C390.439992,551.199759 390.351858,551.305088 390.289312,551.430343 L373.961795,544.176924 L312.270903,516.771639 C312.438642,516.304778 312.563735,515.820837 312.597851,515.302736 C312.720102,513.42106 311.881408,511.704493 310.511068,510.622743 L313.061265,506.799611 C313.715162,507.166836 314.448663,507.408807 315.244712,507.462894 C317.047192,507.579609 318.693306,506.762603 319.713954,505.430343 L335.089056,515.34259 L390.511068,551.077351 Z M277.185506,819.727283 C276.690791,819.696111 276.215978,819.761289 275.758225,819.871809 L254.511068,756.997455 C255.381084,756.640391 256.151588,756.10763 256.791306,755.430343 L325.60787,812.48116 L339.511068,824.009212 C338.325458,825.53665 337.574856,827.398481 337.313282,829.430343 L281.643627,824.496632 C281.643627,822.000021 279.718788,819.894479 277.185506,819.727283 L277.185506,819.727283 Z M28.5110679,782.880907 L87.2755837,722.430343 C87.9287731,722.99409 88.6805039,723.433812 89.5110679,723.732598 L67.7446597,797.83147 C67.5166065,797.786371 67.2913688,797.729996 67.0548692,797.715902 C64.9883133,797.580603 63.1357333,798.708096 62.2291515,800.430343 L29.2261976,786.418417 C29.3078463,786.147819 29.3669712,785.863127 29.383864,785.569979 C29.4514353,784.552416 29.1107633,783.60814 28.5110679,782.880907 L28.5110679,782.880907 Z M-54.7923698,735.927294 L84.7823526,718.430343 C85.0277005,719.760802 85.6311998,720.966707 86.5110679,721.937659 L27.6614264,782.629237 C27.0748476,782.167822 26.3500844,781.873423 25.5491788,781.819638 C24.1757949,781.731884 22.9321352,782.385791 22.1848113,783.430343 L-55.4889321,739.629933 C-55.0828391,738.797689 -54.8233908,737.87486 -54.7585288,736.892585 C-54.735968,736.564216 -54.7726292,736.250001 -54.7923698,735.927294 L-54.7923698,735.927294 Z M136.027593,651.005262 C138.57242,651.175037 140.897914,650.145069 142.540101,648.430343 L173.511068,675.537738 C172.763086,676.522433 172.285052,677.730664 172.197881,679.057738 C172.136018,679.99433 172.285052,680.891307 172.585932,681.717545 L98.8534336,714.430343 C98.3051007,713.360761 97.5008791,712.455295 96.5110679,711.784684 L132.712288,650.057352 C133.713347,650.586484 134.829696,650.928864 136.027593,651.005262 L136.027593,651.005262 Z M246.895676,467.430343 C247.63083,468.54682 248.851356,469.330911 250.287604,469.424661 C251.556383,469.507047 252.728656,469.035456 253.588702,468.228638 L270.778254,483.367843 L303.511068,512.197388 C303.028534,512.842275 302.702114,513.603638 302.534647,514.430343 L190.1412,500.98432 C190.212161,499.811025 189.962379,498.70307 189.511068,497.70307 L212.215697,485.722956 L246.895676,467.430343 Z M387.511068,618.889681 C386.992115,619.772214 386.640475,620.770722 386.566744,621.862573 C386.544058,622.244439 386.56958,622.617818 386.609281,622.988369 L329.459267,632.430343 C328.815539,629.675255 326.461819,627.533981 323.484222,627.341634 C322.690196,627.28789 321.924529,627.401035 321.204234,627.616011 L297.511068,562.795079 C298.724793,562.274611 299.791057,561.474108 300.585082,560.430343 L351.045428,594.36827 L387.511068,618.889681 Z M397.247851,685.430343 L373.511068,639.716328 C375.263989,638.608645 376.491035,636.689419 376.63572,634.428492 C376.70528,633.309418 376.479905,632.25299 376.068107,631.293377 L387.133772,625.430343 C388.221697,627.284075 390.141563,628.582542 392.409231,628.730613 C392.63739,628.747698 392.854418,628.716376 393.079794,628.707833 L398.511068,685.028843 C398.068664,685.108574 397.648519,685.248102 397.247851,685.430343 L397.247851,685.430343 Z M299.511068,724.088876 L376.26583,709.799525 L378.24123,709.430343 C379.090256,713.064926 382.158069,715.883875 386.032457,716.138582 C388.607835,716.307433 390.968127,715.291466 392.663348,713.577202 L403.511068,723.522224 C402.407334,724.87303 401.688493,726.555813 401.538498,728.430343 L299.550689,725.187836 C299.545029,724.821516 299.559179,724.44661 299.511068,724.088876 L299.511068,724.088876 Z M339.936512,823.430343 L257.511068,754.801662 C258.221974,753.826355 258.68647,752.64975 258.771439,751.354067 C258.862073,749.993174 258.527862,748.697491 257.887763,747.600271 L265.583108,742.414703 L283.375584,730.430343 C284.905023,732.491528 287.264325,733.91763 290.028645,734.096247 C291.654382,734.203985 293.192318,733.83541 294.560317,733.169139 L342.511068,821.26142 C341.539591,821.8398 340.689902,822.591126 339.936512,823.430343 L339.936512,823.430343 Z M176.193991,802.289323 C176.318674,801.805327 176.409353,801.31001 176.443357,800.79488 C176.545371,799.24949 176.182656,797.794672 175.511068,796.515338 L246.815617,754.430343 C247.864088,755.964411 249.538808,757.037127 251.511068,757.257897 L248.694364,816.763912 C244.996377,816.769573 241.805624,819.084828 240.575796,822.430343 L185.097496,805.071591 L176.193991,802.289323 Z M68.5110679,798.246929 L76.0553588,772.532239 L90.3446015,723.848401 C90.7146136,723.930484 91.0874501,724.012568 91.4772338,724.035211 C93.3470655,724.159751 95.0841448,723.53139 96.4314405,722.430343 L162.511068,794.52488 C161.200491,795.860855 160.316416,797.635551 160.186489,799.656496 C160.178015,799.769714 160.200611,799.877272 160.197787,799.98766 L71.7366689,802.430343 C71.5248299,800.525446 70.2622698,798.926239 68.5110679,798.246929 L68.5110679,798.246929 Z M311.048704,500.48928 C310.776108,501.063033 310.600056,501.690752 310.554624,502.358236 C310.438202,504.12494 311.224755,505.741104 312.511068,506.766473 L309.961159,510.581075 C309.268311,510.189106 308.487437,509.927793 307.638414,509.873826 C306.022715,509.768733 304.540474,510.385091 303.464288,511.430343 L253.511068,467.461587 C253.519587,467.450225 253.522426,467.438864 253.530945,467.430343 L283.573297,484.699725 L311.048704,500.48928 Z M387.524319,698.607538 C385.319646,698.463185 383.271636,699.179287 381.653736,700.430343 L349.030842,662.751486 L327.511068,637.894535 C327.664882,637.750183 327.810151,637.594508 327.949724,637.430343 L395.471396,686.86403 C394.987166,687.63391 394.659598,688.511347 394.596933,689.482189 C394.480148,691.290842 395.243523,692.93533 396.511068,694.053355 L391.85391,700.130316 C390.606304,699.278352 389.145067,698.712264 387.524319,698.607538 L387.524319,698.607538 Z M172.4362,681.99235 C173.45119,683.957948 175.407866,685.367245 177.753622,685.52415 C180.615331,685.709584 183.138709,683.980771 184.164977,681.430343 L199.511068,686.596814 C199.30807,687.321432 199.16146,688.068873 199.110711,688.8534 C199.051503,689.780569 199.150182,690.673504 199.316528,691.549322 L104.846299,713.958284 L98.6492194,715.430343 C98.6041087,715.27629 98.5646368,715.122237 98.5110679,714.97389 L105.787985,711.72452 L172.4362,681.99235 Z M142.511068,647.449392 C143.522383,646.182174 144.171098,644.612839 144.287243,642.881255 C144.298574,642.707817 144.267413,642.542771 144.270246,642.37213 L316.343932,634.430343 C316.377926,634.718474 316.440248,634.987023 316.511068,635.261167 L184.38574,676.430343 C183.493404,674.170052 181.357461,672.497214 178.745605,672.32937 C176.785297,672.203488 174.989293,672.964378 173.706027,674.242785 L156.590159,659.542505 L142.511068,647.449392 Z M182.776469,506.935089 C185.512821,507.110326 187.964255,505.663205 189.244981,503.430343 L287.375661,552.115219 C287.048427,552.884002 286.814285,553.709313 286.757866,554.591153 C286.667594,555.936523 286.966618,557.211233 287.511068,558.344622 L269.933529,568.005285 L143.604313,637.430343 C142.662105,635.895603 141.226225,634.711338 139.511068,634.044306 L181.453428,506.708976 C181.879397,506.822032 182.31947,506.903998 182.776469,506.935089 L182.776469,506.935089 Z M375.338012,630.462345 C374.25104,628.646995 372.335499,627.372569 370.080103,627.22247 C366.431586,626.984577 363.28302,629.759994 363.024619,633.430343 L329.522303,633.166961 C329.516685,633.073503 329.519494,632.977213 329.511068,632.883755 L386.117848,623.430343 C386.210536,623.846655 386.342545,624.248808 386.511068,624.6368 L384.418578,625.724311 L375.338012,630.462345 Z M252.494976,744.850936 C251.123839,744.760031 249.825755,745.109444 248.72997,745.771341 L216.511068,698.217072 C217.83444,697.222807 218.938654,695.950148 219.677607,694.430343 L281.842358,722.244193 C281.519242,723.087898 281.274797,723.974214 281.212984,724.925867 C281.089357,726.860423 281.583865,728.687029 282.511068,730.22956 L257.229331,747.430343 C256.122307,745.978716 254.447722,744.97877 252.494976,744.850936 L252.494976,744.850936 Z M200.471236,692.430343 C201.331643,695.528632 203.553418,698.057675 206.511068,699.312284 L171.339096,792.954832 C170.724923,792.759419 170.088109,792.612151 169.417331,792.566838 C167.263483,792.428066 165.2653,793.153077 163.722794,794.430343 L97.5110679,722.300234 C98.6460128,721.124923 99.4101902,719.57861 99.5234017,717.819892 C99.5630257,717.244981 99.5120806,716.68423 99.4186811,716.140472 L177.678938,697.780132 L200.471236,692.430343 Z M171.511068,793.474683 L196.085112,728.225662 L206.901222,699.501769 C207.741336,699.780283 208.612777,699.99059 209.535478,700.053113 C211.850775,700.200896 214.029375,699.578503 215.857691,698.430343 L248.511068,745.999406 C247.08145,747.121988 246.098944,748.80444 245.970791,750.756881 C245.893899,751.987458 246.175836,753.146986 246.699839,754.170099 L175.039546,796.430343 C174.17665,795.137242 172.963468,794.105603 171.511068,793.474683 L171.511068,793.474683 Z M291.206707,715.457827 C287.44326,715.212584 284.071485,717.281647 282.484934,720.430343 L219.689874,692.830625 C220.087221,691.838377 220.379556,690.789751 220.453349,689.667834 C220.569715,687.897573 220.195073,686.220336 219.511068,684.706594 L266.491706,661.535346 L317.380539,636.430343 C318.08725,637.645283 319.191307,638.595248 320.511068,639.156206 L293.23034,715.841196 C292.583231,715.646692 291.910579,715.505748 291.206707,715.457827 L291.206707,715.457827 Z M184.513896,677.102673 L316.437527,635.430343 C316.460155,635.486974 316.48844,635.535111 316.511068,635.591743 L218.976226,684.085343 C217.298931,681.030071 214.167792,678.855419 210.431356,678.609072 C205.690806,678.30043 201.52161,681.199966 199.923513,685.430343 L184.511068,680.299524 C184.612894,679.903103 184.689263,679.495356 184.714719,679.070619 C184.759975,678.388209 184.669463,677.734114 184.513896,677.102673 L184.513896,677.102673 Z M395.260933,686.430343 L329.237497,638.007077 L328.511068,637.474491 C329.085454,636.585914 329.474009,635.559985 329.552847,634.430343 L363.140359,634.693833 C363.320558,637.995865 365.925005,640.720462 369.320641,640.941906 C370.45252,641.017589 371.522455,640.776524 372.488212,640.339243 L396.511068,685.348353 C396.04086,685.645479 395.624148,686.012683 395.260933,686.430343 L395.260933,686.430343 Z M288.176629,559.430343 C289.430078,561.433655 291.585329,562.837106 294.129092,563.001219 C295.067761,563.063469 295.969563,562.927651 296.823156,562.670163 L320.511068,627.509018 C318.33313,628.468231 316.730871,630.547941 316.566391,633.086036 C316.560719,633.193559 316.577735,633.292593 316.577735,633.397286 L144.316451,641.430343 C144.220032,640.428686 143.936446,639.480791 143.511068,638.606464 L227.894822,592.422751 L288.176629,559.430343 Z M305.511068,520.01828 L296.549208,547.83395 C296.090352,547.715574 295.620166,547.631019 295.130153,547.597197 C292.124927,547.402722 289.434103,548.989531 288.04054,551.430343 L189.511068,502.884683 C189.706507,502.42527 189.848129,501.937671 189.938767,501.430343 L302.112133,514.767434 C302.015829,517.115236 303.432052,519.169914 305.511068,520.01828 L305.511068,520.01828 Z M380.511068,700.662059 C378.989583,702.092997 377.96769,704.061945 377.820083,706.304123 C377.783181,706.884385 377.80589,707.450563 377.879693,708.002658 L298.910069,722.430343 C298.243,719.585368 296.230439,717.250235 293.511068,716.154497 L320.795612,639.523264 C321.235594,639.647203 321.689769,639.731708 322.163813,639.759876 C323.813035,639.869731 325.340198,639.345805 326.557954,638.430343 L341.565588,655.736805 L380.511068,700.662059 Z M275.511068,820.641169 C273.909118,821.342024 272.733586,822.860542 272.612575,824.709545 C272.609694,824.738035 272.615456,824.769374 272.615456,824.797864 L257.44879,825.430343 C257.071352,821.302138 253.786777,817.940314 249.511068,817.535756 L252.374986,757.646867 C252.931059,757.63832 253.466963,757.567095 253.982699,757.430343 L257.543869,767.886183 L275.511068,820.641169 Z M389.960318,554.12414 L302.368451,554.430343 C302.192438,551.449779 300.261976,548.91307 297.511068,547.868047 L306.499071,520.127177 C306.797157,520.194598 307.095243,520.253591 307.407524,520.276064 C309.616199,520.419334 311.594923,519.239469 312.585704,517.430343 L390.511068,551.640805 C390.227176,552.379625 390.00858,553.154965 389.954641,553.989298 C389.951802,554.037055 389.960318,554.079193 389.960318,554.12414 L389.960318,554.12414 Z M-26.4354816,628.917863 C-24.9682018,629.016467 -23.6283885,628.422023 -22.6964676,627.430343 L86.5110679,712.520417 C85.7972561,713.545904 85.3213816,714.754513 85.2335714,716.092718 C85.2137433,716.402618 85.2477344,716.706883 85.2675625,717.011148 L-54.9256354,734.430343 C-55.387347,731.93424 -57.1265551,729.874814 -59.4889321,728.970469 L-27.1606237,628.799537 C-26.925519,628.853065 -26.6847492,628.903776 -26.4354816,628.917863 L-26.4354816,628.917863 Z M-232.488932,839.978428 L-208.896468,806.199099 C-207.786535,806.89649 -206.514796,807.366161 -205.118154,807.457249 C-201.544226,807.693508 -198.390427,805.567178 -197.081784,802.430343 L-115.488932,831.746371 C-115.77848,832.657249 -115.99706,833.602285 -116.06235,834.601403 C-116.087899,835.028377 -116.033963,835.438272 -116.016931,835.85386 L-229.956809,844.430343 C-230.200937,842.642745 -231.134871,841.065788 -232.488932,839.978428 L-232.488932,839.978428 Z M258.400129,904.245913 C257.905493,904.211864 257.430988,904.265775 256.950732,904.296986 L249.511068,833.606438 C253.519916,833.002075 256.712041,829.724899 256.988117,825.570971 C256.996744,825.395053 256.967986,825.230485 256.970862,825.060242 L272.106135,824.430343 C272.350577,826.294503 273.696446,827.835202 275.511068,828.377142 L259.510183,904.430343 C259.142082,904.36792 258.782609,904.271449 258.400129,904.245913 L258.400129,904.245913 Z M75.5110679,525.539394 C76.9523315,524.63467 77.9620621,523.090158 78.0805221,521.260981 C78.1228293,520.6071 78.0297536,519.975767 77.854884,519.378254 L116.754898,504.725115 L125.498376,501.430343 C126.756308,504.319258 129.511914,506.435916 132.873922,506.655755 C132.975459,506.664211 133.074176,506.644482 133.178534,506.6473 L133.990831,550.925204 L135.511068,633.68909 C134.478773,633.759551 133.502889,634.01603 132.603156,634.430343 L116.856435,604.399721 L75.5110679,525.539394 Z M405.348628,605.177602 C405.243645,606.764511 405.760048,608.235855 406.662336,609.40842 L397.446517,617.430343 C396.416548,616.398711 395.057441,615.702501 393.511068,615.502375 L394.055845,607.20986 L396.918764,563.650199 C397.596899,563.661473 398.252334,563.579732 398.887908,563.430343 L409.511068,599.664292 C407.2213,600.498617 405.516033,602.604161 405.348628,605.177602 L405.348628,605.177602 Z M-43.2613619,630.930165 C-43.2244238,630.360995 -43.2727275,629.808732 -43.3664937,629.270556 L-31.1484809,626.430343 C-30.7194298,627.709566 -29.7448302,628.740834 -28.4889321,629.270556 L-60.9092869,729.430343 C-61.0968191,729.382442 -61.295717,729.368354 -61.4889321,729.334542 L-50.7768605,637.526335 C-46.8756206,637.740478 -43.5170878,634.804464 -43.2613619,630.930165 L-43.2613619,630.930165 Z M385.511068,365.911968 L370.102968,381.835183 L353.08388,399.421678 C352.47017,398.941995 351.711556,398.632613 350.876229,398.578685 C348.708355,398.436766 346.841653,400.046118 346.625718,402.189082 L315.002604,402.430343 C314.94862,401.726429 314.778145,401.059414 314.511068,400.434974 L384.383092,364.430343 C384.69847,364.969632 385.087722,365.45783 385.511068,365.911968 L385.511068,365.911968 Z M-175.176912,680.746866 C-173.275174,680.871623 -171.565873,679.921764 -170.589534,678.430343 L-69.4889321,733.261333 C-69.8681478,734.069423 -70.1200149,734.948397 -70.1822742,735.892586 C-70.2501935,736.967203 -70.0747355,737.996454 -69.7209895,738.940642 L-197.576108,795.430343 C-198.569427,793.462574 -200.318347,791.937128 -202.488932,791.284986 L-175.629707,680.67031 C-175.479719,680.695828 -175.33256,680.735524 -175.176912,680.746866 L-175.176912,680.746866 Z M-294.927195,720.589859 C-293.656149,720.67429 -292.475689,720.221178 -291.595298,719.430343 L-210.488932,793.318562 C-211.437263,794.461193 -212.062879,795.871187 -212.263868,797.430343 L-322.745849,789.066064 C-322.754342,787.090382 -323.838553,785.348293 -325.488932,784.436441 L-296.113317,720.333752 C-295.736815,720.466027 -295.346159,720.56453 -294.927195,720.589859 L-294.927195,720.589859 Z M428.980882,909.430343 C428.069862,907.599944 426.256283,906.277206 424.070399,906.133369 C422.527588,906.034657 421.091956,906.545138 419.97786,907.444826 L356.511068,839.020632 C357.532087,838.00249 358.34439,836.789745 358.908489,835.430343 L482.426453,881.27774 C482.189531,882.016668 482.01184,882.778159 481.958251,883.584775 C481.870815,884.944178 482.076712,886.249994 482.511068,887.457098 L479.259036,888.791117 L428.980882,909.430343 Z M-81.4889321,602.597556 C-81.2142209,602.232266 -80.9649983,601.844147 -80.7582569,601.430343 L-55.7425416,612.357623 L-30.4889321,623.390495 C-30.6107113,623.767199 -30.7070019,624.158173 -30.7353226,624.571977 C-30.7551471,624.905874 -30.7409867,625.234063 -30.6956736,625.553691 L-42.8764266,628.430343 C-43.7033923,625.64216 -46.155969,623.521771 -49.2061134,623.322003 C-51.3839788,623.179312 -53.3720951,624.061143 -54.7739721,625.530861 L-77.4164088,606.090632 L-81.4889321,602.597556 Z M675.511068,284.438253 L654.778721,386.478131 L652.050183,399.90301 C651.965005,399.89165 651.882666,399.86609 651.791809,399.85757 C649.403984,399.701367 647.305763,401.23499 646.630017,403.430343 L553.944899,383.143921 C553.990327,382.868437 554.064148,382.598633 554.084023,382.308949 C554.21463,380.289679 553.595669,378.412411 552.511068,376.881628 L672.254426,282.430343 C673.109046,283.381757 674.227718,284.094608 675.511068,284.438253 L675.511068,284.438253 Z M-363.341524,759.608337 L-297.846791,719.430343 C-297.47827,719.912783 -297.021871,720.319049 -296.488932,720.62657 L-325.908268,784.89274 C-326.376006,784.720641 -326.863588,784.590862 -327.382353,784.559827 C-329.137081,784.446976 -330.735896,785.194618 -331.796104,786.430343 L-363.488932,763.535573 C-363.168602,762.988242 -362.955994,762.373201 -362.910637,761.704555 C-362.862446,760.954092 -363.032533,760.243127 -363.341524,759.608337 L-363.341524,759.608337 Z M-338.261376,926.003789 C-338.492208,925.972716 -338.71178,925.904919 -338.951057,925.88797 C-340.977877,925.755202 -342.86676,926.359721 -344.420655,927.430343 L-381.488932,878.368196 C-380.481152,877.469891 -379.811176,876.19023 -379.715465,874.732603 C-379.69013,874.317348 -379.721095,873.916218 -379.785841,873.520738 L-331.001421,861.430343 C-330.339889,863.523563 -328.653688,865.181755 -326.488932,865.752377 L-333.827708,903.308874 L-338.261376,926.003789 Z M-263.118584,958.430343 C-263.72528,957.498772 -264.532327,956.724809 -265.488932,956.142226 L-229.724899,889.378734 C-229.056122,889.677062 -228.330909,889.885329 -227.554902,889.935988 C-224.086858,890.161141 -221.090061,887.540923 -220.864313,884.079196 C-220.850204,883.856857 -220.881244,883.640147 -220.88971,883.420623 L-118.538658,872.430343 C-118.369347,873.550479 -117.996864,874.59744 -117.488932,875.574041 L-161.123084,900.397159 L-263.118584,958.430343 Z M810.759326,634.70924 C807.349506,634.485777 804.287743,636.364001 802.830434,639.226596 L707.915769,596.98069 C708.122339,596.412131 708.283634,595.820943 708.32608,595.190154 C708.555287,591.65434 705.872707,588.602225 702.33555,588.370276 C701.065003,588.285416 699.86237,588.590911 698.82386,589.165127 L661.25359,530.572446 C663.797513,528.793224 665.568922,525.95043 665.786811,522.612621 C666.095251,517.945347 663.307971,513.832488 659.207698,512.14944 L707.417738,379.788364 C707.853515,379.915653 708.306271,380.00617 708.778836,380.034457 C712.282036,380.263577 715.307013,377.610302 715.536221,374.105604 C715.564518,373.669991 715.54754,373.242865 715.493775,372.827053 L761.595669,363.348243 C762.300271,365.888372 764.518776,367.837312 767.297566,368.015518 C770.812086,368.244638 773.845552,365.585706 774.07476,362.07535 C774.303968,358.564994 771.644025,355.53268 768.129506,355.30073 C766.284525,355.181927 764.586689,355.869289 763.344439,357.048837 L682.572745,282.431846 C683.424492,281.385245 683.979118,280.086894 684.072499,278.644282 C684.313026,274.947235 681.514427,271.756517 677.815975,271.516081 C674.683469,271.312418 671.930146,273.303789 671.013314,276.166384 L472.35807,226.053999 C472.375048,225.940853 472.403346,225.833364 472.411835,225.717389 C472.56464,223.403553 470.81021,221.406525 468.498324,221.256606 C466.27133,221.109517 464.355605,222.730334 464.075462,224.914052 L226.403958,218.524129 C226.253982,216.360211 224.547658,214.583818 222.323493,214.439557 C219.898418,214.283981 217.807251,216.116947 217.648786,218.541101 C217.586532,219.519815 217.858186,220.436298 218.356217,221.205691 L204.453774,232.21763 C203.101165,230.684501 201.162803,229.660529 198.961276,229.516268 C194.538415,229.227746 190.718285,232.576869 190.429653,236.99805 C190.404185,237.402548 190.440972,237.790073 190.472099,238.180427 L47.3615432,257.683977 C46.6937279,254.162306 43.7423238,251.393056 39.9985965,251.146964 C36.5350121,250.9235 33.4647595,252.931843 32.1347883,255.924556 L13.5887651,248.833127 C13.7302514,248.372057 13.8321215,247.896844 13.8660782,247.399001 C14.0924563,243.936732 11.4693004,240.946848 8.00571595,240.720555 C4.5421315,240.494263 1.55111127,243.119252 1.3247332,246.581521 C1.11816321,249.769411 3.33666828,252.524517 6.38994248,253.124191 L-7.3200793,360.853373 C-7.36252519,360.850544 -7.40214135,360.833572 -7.44458724,360.830743 C-12.3626508,360.511106 -16.6072396,364.233611 -16.9269986,369.152635 C-17.0373579,370.846997 -16.6411963,372.450843 -15.9054676,373.853854 L-85.0554784,414.297909 C-85.9609906,412.999558 -87.4098103,412.094389 -89.1133053,411.984072 C-92.0816877,411.791724 -94.648249,414.040501 -94.8435001,417.013414 C-94.9963053,419.378166 -93.5927613,421.462882 -91.5185722,422.322792 L-110.452268,480.590179 C-110.927662,480.462889 -111.417204,480.375201 -111.926555,480.341257 C-116.173974,480.066878 -119.838469,483.283055 -120.115782,487.526031 C-120.393095,491.771837 -117.175697,495.437769 -112.928278,495.717805 C-112.28593,495.757406 -111.66622,495.695176 -111.057829,495.587687 L-92.5372735,573.26245 C-95.6414828,574.178933 -98.0043039,576.925553 -98.2250225,580.342564 C-98.3693385,582.503653 -97.6222909,584.517653 -96.3149576,586.039467 L-147.261342,634.791271 C-148.704502,633.419375 -150.591929,632.497235 -152.731202,632.358631 C-157.595501,632.041822 -161.794814,635.724726 -162.108914,640.587177 C-162.171167,641.537604 -162.041,642.445601 -161.817452,643.319655 L-247.323278,669.45922 C-248.075985,667.544224 -249.864372,666.127069 -252.05458,665.985637 C-255.073897,665.79046 -257.680075,668.07601 -257.878155,671.094181 C-257.895134,671.32613 -257.866837,671.546765 -257.855518,671.773057 L-306.767329,678.465646 C-307.296488,675.96229 -309.413123,674.002034 -312.092873,673.829487 C-315.32442,673.614509 -318.1117,676.064121 -318.32393,679.291612 C-318.386184,680.230724 -318.199422,681.121749 -317.857025,681.933572 L-405.502124,726.402798 C-406.718906,724.312425 -408.917603,722.844355 -411.512462,722.674636 C-415.65518,722.403085 -419.231954,725.542888 -419.500778,729.684034 C-419.560202,730.600517 -419.430034,731.480227 -419.181019,732.314679 C-419.362121,732.580572 -419.500778,732.877581 -419.523415,733.222676 C-419.591329,734.240991 -418.818814,735.120701 -417.797283,735.18576 C-417.732199,735.191417 -417.675604,735.163131 -417.61335,735.160302 C-416.345633,736.585943 -414.543098,737.533541 -412.491547,737.666487 C-409.916496,737.836206 -407.559334,736.682117 -406.082218,734.792578 L-371.140763,759.03129 C-371.435054,759.557419 -371.627476,760.148607 -371.669921,760.79354 C-371.802919,762.841483 -370.44182,764.640505 -368.517607,765.135519 L-384.298988,868.596266 C-384.310307,868.596266 -384.324455,868.590609 -384.338604,868.590609 C-387.284349,868.398261 -389.828272,870.630066 -390.020694,873.574692 C-390.15935,875.704667 -389.0218,877.611178 -387.27303,878.581405 L-437.039418,987.640053 C-437.681766,987.39396 -438.355241,987.210098 -439.073991,987.162011 C-442.9111,986.910261 -446.224709,989.818114 -446.473725,993.653765 C-446.72557,997.489416 -443.819442,1000.79894 -439.982333,1001.05069 C-436.145225,1001.29961 -432.831616,998.394585 -432.579771,994.558934 C-432.494879,993.249268 -432.800489,992.013147 -433.363605,990.926945 L-346.216537,939.055139 C-344.756399,941.25583 -342.351132,942.791788 -339.512917,942.97565 C-335.800316,943.216085 -332.498026,941.103083 -331.01525,937.923679 L-277.091994,959.919271 C-277.304223,960.533088 -277.465518,961.169535 -277.510793,961.848411 C-277.779617,965.96127 -274.65843,969.516884 -270.544008,969.785606 C-267.33227,969.994926 -264.482736,968.128017 -263.251805,965.344624 L-69.9673801,1038.08622 C-69.9928476,1038.20785 -70.0551016,1038.31534 -70.0635908,1038.44263 C-70.1598014,1039.93333 -69.0279111,1041.22036 -67.5366456,1041.3222 C-66.0425503,1041.41837 -64.7550251,1040.28691 -64.6559847,1038.79338 C-64.6163685,1038.20785 -64.8116196,1037.68172 -65.0974219,1037.21782 L-8.9613203,988.649881 C-7.54362764,990.134923 -5.60526543,991.12778 -3.39807926,991.272041 C-1.33237938,991.407816 0.586174748,990.762884 2.13686452,989.631423 L13.5208516,1003.71245 C11.3957275,1005.56804 9.97803487,1008.23546 9.77995406,1011.27909 C9.38379244,1017.34089 13.982097,1022.57672 20.0461995,1022.96991 C24.8963496,1023.28954 29.1748951,1020.38735 30.9123468,1016.11891 L255.07191,1097.32949 C254.902127,1097.89239 254.774789,1098.47509 254.738003,1099.08608 C254.45503,1103.4026 257.726193,1107.13077 262.047185,1107.41363 C266.365346,1107.69367 270.092095,1104.42092 270.375068,1100.1044 C270.45147,1098.95879 270.259049,1097.85845 269.879866,1096.84579 L318.211583,1075.68182 C318.831293,1076.75388 319.954695,1077.5063 321.281836,1077.59399 C323.395641,1077.73259 325.223644,1076.12875 325.362301,1074.01575 C325.450022,1072.65234 324.804845,1071.41339 323.771995,1070.66662 L372.004672,985.478963 C372.95263,985.954177 374.008118,986.254014 375.131519,986.327559 C377.859375,986.505764 380.346704,985.312073 381.968137,983.354646 L414.597706,1007.57922 C414.357179,1008.00351 414.181736,1008.47024 414.150609,1008.99354 C414.028931,1010.84348 415.432475,1012.4445 417.283116,1012.5633 C418.313136,1012.63119 419.232797,1012.1984 419.897782,1011.50538 L478.826823,1055.07227 C478.209943,1056.0227 477.796803,1057.12021 477.714741,1058.32522 C477.471385,1062.09015 480.323748,1065.3431 484.090113,1065.58919 C487.32449,1065.80134 490.165535,1063.72228 491.065388,1060.74937 L589.047475,1083.93017 C589.016348,1084.1112 588.971073,1084.28375 588.956924,1084.47044 C588.750354,1087.65267 591.16411,1090.40778 594.353211,1090.61427 C597.542312,1090.82359 600.295635,1088.40792 600.505035,1085.22003 C600.674819,1082.60353 599.061875,1080.30384 596.718862,1079.4411 L651.595736,888.227106 C651.972089,888.311965 652.356932,888.393996 652.761583,888.422283 C656.898642,888.691004 660.466926,885.556859 660.73858,881.421371 C660.826301,880.074933 660.523521,878.80204 659.971724,877.664922 L707.997831,850.871938 C708.855238,852.147659 710.255953,853.035856 711.905683,853.143345 C714.732579,853.330036 717.174632,851.185918 717.361394,848.360095 C717.545326,845.531444 715.403224,843.093147 712.576328,842.906456 C710.632306,842.779167 708.892025,843.766366 707.918599,845.302323 L682.043586,831.837944 C682.510491,830.836601 682.82176,829.744742 682.898163,828.576509 C683.226411,823.504737 679.386473,819.125985 674.312775,818.797862 C674.038291,818.778061 673.780786,818.817662 673.509133,818.823319 L667.532752,731.627317 C670.968039,731.197362 673.729851,728.388511 673.964718,724.801782 C674.05244,723.46383 673.74683,722.199422 673.192203,721.076448 L803.243574,647.412713 C804.615991,649.565316 806.939196,651.070159 809.6812,651.248364 C814.248378,651.545372 818.195845,648.085932 818.492967,643.51766 C818.792918,638.952217 815.329333,635.006249 810.759326,634.70924 L810.759326,634.70924 Z" id="Fill-1" transform="translate(186.011068, 660.930343) rotate(-150.000000) translate(-186.011068, -660.930343) "></path>
                </g>
            </g>
        </g>
    </g>
</svg>