<?xml version="1.0" encoding="UTF-8"?>
<svg width="101px" height="47px" viewBox="0 0 101 47" version="1.1" xmlns="http://www.w3.org/2000/svg" xmlns:xlink="http://www.w3.org/1999/xlink">
    <title>Group 6</title>
    <g id="Symbols" stroke="none" stroke-width="1" fill="none" fill-rule="evenodd">
        <g id="MENU" transform="translate(-138.000000, -84.000000)">
            <g id="Group" transform="translate(138.000000, 84.000000)">
                <g id="Group-6" transform="translate(0.861043, 0.894801)">
                    <g id="FLECHE" transform="translate(49.261116, 11.781670)" stroke="#A6945D" stroke-linecap="square" stroke-width="0.839999936">
                        <line x1="0.251420455" y1="0.251470588" x2="2.51420455" y2="2.51470588" id="Line-2"></line>
                        <line x1="0.251420455" y1="2.76617647" x2="2.51420455" y2="5.02941176" id="Line-2" transform="translate(1.257102, 3.772059) scale(1, -1) translate(-1.257102, -3.772059) "></line>
                    </g>
                    <path d="M17.7458386,25.2251981 L17.7458386,19.9331985 L12.418559,19.9331985 L12.418559,5.32907052e-15 L6.80903948,5.32907052e-15 L-1.42108547e-14,6.38567951 L3.56327973,10.1959192 L5.08031961,8.81999932 C5.75063956,8.18495937 6.06815953,7.47935943 6.06815953,7.47935943 L6.13871953,7.47935943 C6.13871953,7.47935943 6.10746804,8.35440102 6.1037914,9.25150249 L6.10343953,19.9331985 L0.811439938,19.9331985 L0.811439938,25.2251981 L17.7458386,25.2251981 Z M29.3529579,25.683838 C35.8797574,25.683838 39.0902372,21.3443984 39.0902372,17.0049587 C39.0902372,12.3479991 35.8444774,8.64359934 29.5293579,8.64359934 C28.612078,8.64359934 27.730078,8.78471933 27.730078,8.78471933 L27.659518,8.78471933 C27.659518,8.78471933 27.730078,8.29079936 27.765358,7.7968794 L27.871198,6.06815953 C27.906478,5.57423957 28.153438,5.29199959 28.647358,5.29199959 L31.1169578,5.29199959 C31.6108777,5.29199959 31.8931177,5.57423957 31.8931177,6.06815953 L31.8931177,7.44407943 L37.5379173,7.44407943 L37.5379173,2.5754398 C37.5379173,0.776159941 36.7617573,5.32907052e-15 34.9624775,5.32907052e-15 L24.8723982,5.32907052e-15 C23.0731184,5.32907052e-15 22.4380784,0.776159941 22.2969584,2.5754398 L21.5207985,13.7239189 L23.4259184,14.7823189 C23.4259184,14.7823189 25.4015982,13.8297589 28.082878,13.8297589 C30.4466378,13.8297589 32.7045576,14.6059189 32.7045576,16.8991187 C32.7045576,18.4161586 31.5403177,19.8273585 29.3529579,19.8273585 C26.0930862,19.8273585 23.7427471,17.6632978 23.4847814,17.4159766 L23.4611984,17.3930387 L23.4611984,17.3930387 L20.5682386,22.2616783 L20.5725905,22.2662599 L20.6374781,22.3318203 C21.1318242,22.8193865 24.2531217,25.683838 29.3529579,25.683838 Z M79.4152745,25.2251981 L79.4152745,19.9331985 L74.0879949,19.9331985 L74.0879949,5.32907052e-15 L68.4784754,5.32907052e-15 L61.6694359,6.38567951 L65.2327156,10.1959192 L66.7497555,8.81999932 C67.4200754,8.18495937 67.7375954,7.47935943 67.7375954,7.47935943 L67.8081554,7.47935943 C67.8081554,7.47935943 67.7806883,8.24843895 67.7742254,9.08376272 L67.7728754,9.41975928 L67.7728754,9.41975928 L67.7728754,19.9331985 L62.4808758,19.9331985 L62.4808758,25.2251981 L79.4152745,25.2251981 Z M88.270554,25.2251981 L99.9129531,4.30415967 L99.9129531,5.32907052e-15 L83.4724744,5.32907052e-15 C81.6731945,5.32907052e-15 81.2145545,0.776159941 81.2145545,2.5754398 L81.2145545,7.44407943 L86.8593541,7.44407943 L86.8593541,6.06815953 C86.8593541,5.57423957 87.1415941,5.29199959 87.635514,5.29199959 L91.4104738,5.29199959 C92.3983137,5.29199959 92.8312559,5.22797293 92.9748924,5.19951664 L93.0195126,5.18978923 C93.0289981,5.18746627 93.0333536,5.1861596 93.0333536,5.1861596 L93.0333536,5.2567196 C93.0333536,5.2567196 92.3630337,5.85647955 91.4104738,7.54991942 L81.4262345,25.2251981 L88.270554,25.2251981 Z" id="1517" fill="#FFFFFF" fill-rule="nonzero"></path>
                    <path d="M8.02871939,45.2251981 L8.02871939,36.8923987 L10.6226392,45.2251981 L12.3429591,45.2251981 L14.9906389,36.8923987 L14.9906389,45.2251981 L17.0603987,45.2251981 L17.0603987,35.5080788 L13.7541589,35.5080788 L11.5365591,42.5775183 L9.48023928,35.5080788 L6.07991954,35.5080788 L6.07991954,45.2251981 L8.02871939,45.2251981 Z M20.1515985,45.2251981 L20.8773585,43.1285582 L24.7211982,43.1285582 L25.4200781,45.2251981 L27.516718,45.2251981 L24.1432782,35.5080788 L21.6703184,35.5080788 L18.1624787,45.2251981 L20.1515985,45.2251981 Z M24.1970382,41.5560783 L21.4149584,41.5560783 L22.8530383,37.4165587 L24.1970382,41.5560783 Z M30.8632778,45.2251981 L30.8632778,41.3007184 L32.6911177,41.3007184 C33.0405576,41.3007184 33.5512776,41.3007184 33.7394376,41.8517583 C33.8738376,42.2280783 34.1695175,44.6875981 34.2635975,45.2251981 L36.5618374,45.2251981 C36.4543174,45.0639181 36.3736774,44.9563981 36.2661574,44.5263181 C36.1989574,44.2575181 36.1183174,43.7871182 35.9704774,42.6447183 C35.7957574,41.3813584 35.6882374,40.5480784 34.2232775,40.4136784 C34.6936775,40.2792784 36.2527174,39.8491985 36.2527174,38.0347986 C36.2527174,37.4031187 36.0107974,36.6907987 35.4059975,36.1666388 C34.6264775,35.4946388 33.5378376,35.4946388 32.4626377,35.5080788 L28.739758,35.5080788 L28.739758,45.2251981 L30.8632778,45.2251981 Z M32.4760777,39.7551185 L30.7960778,39.7551185 L30.7960778,37.0402387 L32.1938377,37.0402387 C32.8523977,37.0402387 33.2421576,37.0402387 33.5647176,37.2687187 C33.7528776,37.3896787 34.0754376,37.6987986 34.0754376,38.3573586 C34.0754376,39.0427985 33.6856776,39.3787985 33.5378376,39.4863185 C33.2018376,39.7551185 32.7179977,39.7551185 32.4760777,39.7551185 Z M41.789997,45.453678 C42.677037,45.453678 43.7656769,45.2520781 44.6258368,44.3650381 C45.4053568,43.5586382 45.4591168,42.6581583 45.4994368,42.0802383 L43.3087169,42.0802383 C43.2683969,43.3704782 42.435117,43.9215182 41.5615171,43.9215182 C39.6630088,43.9215182 39.5405244,41.51036 39.5326222,40.726117 L39.5320772,40.5883984 L39.5320772,40.5883984 C39.5320772,38.5858386 40.1771972,36.9730387 41.7227971,36.9730387 C43.1339969,36.9730387 43.2549569,38.3439186 43.2952769,38.6799186 L45.4187968,38.6799186 C45.4187968,36.7445587 43.9269569,35.4543188 41.803437,35.4543188 C39.0751173,35.4543188 37.3547974,37.4971987 37.3547974,40.5749584 C37.3547974,42.9807182 38.4434373,45.453678 41.789997,45.453678 Z M48.9803966,45.2251981 L48.9803966,40.9647184 L52.6763963,40.9647184 L52.6763963,45.2251981 L54.7595961,45.2251981 L54.7595961,35.5080788 L52.6495163,35.5080788 L52.6495163,39.3922385 L48.9803966,39.3922385 L48.9803966,35.5080788 L46.8971967,35.5080788 L46.8971967,45.2251981 L48.9803966,45.2251981 Z M70.4978352,45.2251981 L70.4978352,43.6661582 C70.4652962,43.6675729 70.4343954,43.6688387 70.4034711,43.6700027 L70.3089659,43.6732358 C70.0642184,43.6807895 69.7246816,43.6852571 68.5893553,43.7064782 C67.5275954,43.7199182 67.3663154,43.7333582 66.0088755,43.7602382 C70.0677552,40.4943184 70.4440752,39.2443985 70.4440752,38.2767186 C70.4440752,36.8251987 69.3151153,35.7231188 67.2722354,35.7231188 C66.1298355,35.7231188 65.1352756,36.0725588 64.5976756,36.7445587 C64.0466357,37.4299987 64.0466357,38.1288786 64.0466357,38.5051986 L66.1029555,38.5051986 C66.1163955,38.2363986 66.2104755,37.1343187 67.2856754,37.1343187 C67.9845554,37.1343187 68.4011953,37.6181586 68.4011953,38.3304786 C68.4011953,38.7605586 68.2802353,39.0562385 67.7560754,39.6879185 C67.2587954,40.2927184 66.7749555,40.7227984 66.3448755,41.1125584 L63.9122357,43.3301582 L63.9122357,45.2251981 L70.4978352,45.2251981 Z M74.9330349,45.3730381 C77.7554347,45.3730381 78.2527147,42.5103183 78.2527147,40.3330384 C78.2527147,38.5723986 77.8898347,37.6584786 77.4059947,36.9461587 C77.0565548,36.4219987 76.2770348,35.7096788 74.9599149,35.7096788 C71.9493551,35.7096788 71.6939952,39.3115985 71.6939952,40.5615184 C71.6939952,43.0613582 72.5272751,45.3730381 74.9330349,45.3730381 Z M74.9867949,43.7871182 C73.978795,43.7871182 73.736875,42.2952783 73.736875,40.6959184 C73.736875,40.4674384 73.736875,39.0293585 74.045995,38.0751186 C74.140075,37.7928786 74.395435,37.2687187 74.9733549,37.2687187 C75.7125549,37.2687187 75.9410348,38.1019986 75.9947948,38.3573586 C76.1695148,38.9755985 76.2367148,40.0776785 76.2367148,40.6690384 C76.2367148,41.9592783 76.0619948,43.7871182 74.9867949,43.7871182 Z M85.7119142,45.2251981 L85.7119142,43.6661582 C85.6793752,43.6675729 85.6484744,43.6688387 85.6175501,43.6700027 L85.5230449,43.6732358 C85.2782974,43.6807895 84.9387605,43.6852571 83.8034343,43.7064782 C82.7416744,43.7199182 82.5803944,43.7333582 81.2229545,43.7602382 C85.2818342,40.4943184 85.6581542,39.2443985 85.6581542,38.2767186 C85.6581542,36.8251987 84.5291943,35.7231188 82.4863144,35.7231188 C81.3439145,35.7231188 80.3493546,36.0725588 79.8117546,36.7445587 C79.2607147,37.4299987 79.2607147,38.1288786 79.2607147,38.5051986 L81.3170345,38.5051986 C81.3304745,38.2363986 81.4245545,37.1343187 82.4997544,37.1343187 C83.1986344,37.1343187 83.6152743,37.6181586 83.6152743,38.3304786 C83.6152743,38.7605586 83.4943143,39.0562385 82.9701544,39.6879185 C82.4728744,40.2927184 81.9890345,40.7227984 81.5589545,41.1125584 L79.1263147,43.3301582 L79.1263147,45.2251981 L85.7119142,45.2251981 Z M91.8943138,45.2251981 L91.8943138,35.8440788 L90.1605539,35.8440788 C89.381034,36.4085587 88.547754,36.8789587 87.6741541,37.2552787 L87.6741541,39.1234385 C88.695594,38.7067986 89.475114,38.2229586 89.8648739,37.9272786 L89.8648739,45.2251981 L91.8943138,45.2251981 Z" id="MARCH2021" fill="#A6945D" fill-rule="nonzero"></path>
                </g>
            </g>
        </g>
    </g>
</svg>