<svg id="Calque_1" data-name="Calque 1" xmlns="http://www.w3.org/2000/svg" xmlns:xlink="http://www.w3.org/1999/xlink" viewBox="0 0 148.82 67.56"><defs><style>.cls-1,.cls-3{fill:none;}.cls-2{clip-path:url(#clip-path);}.cls-3{stroke:#a7945d;stroke-linecap:square;stroke-width:1.2px;}.cls-3,.cls-5{stroke-miterlimit:10;}.cls-4{fill:#fff;}.cls-5{fill:#a7945d;stroke:#a7955d;stroke-width:0.75px;}</style><clipPath id="clip-path" transform="translate(-4.58 -3.42)"><rect class="cls-1" x="-144.17" y="-46.24" width="300" height="126"/></clipPath></defs><g class="cls-2"><line class="cls-3" x1="73.74" y1="23.11" x2="76.97" y2="26.37"/><line class="cls-3" x1="73.74" y1="29.62" x2="76.97" y2="26.37"/></g><g class="cls-2"><path class="cls-4" d="M23,14.68c0-3-2.23-4.89-5.47-4.89-3,0-4.94,1.54-4.94,3v1.65H6.33V10.69c0-5,6.59-7.27,11.47-7.27C24.39,3.42,30,7.56,30,14.57,30,27.31,11.8,28.06,11.8,34.91c0,.69.43,1,1.44,1h11a1.06,1.06,0,0,0,1.17-1.17V32.41h6.26v5.74c0,2.54-1.06,3.61-3.61,3.61H8.46c-3.3,0-3.88-1.44-3.88-5C4.58,23.12,23,23.86,23,14.68Z" transform="translate(-4.58 -3.42)"/><path class="cls-4" d="M34.63,27.84,50.24,4.06h8.18v22.3h5.79v5.89H58.42v9.51h-7V32.25H34.63ZM51.57,15.9a40.47,40.47,0,0,1,.27-4.09h-.11a38.93,38.93,0,0,1-2,3.4l-5.89,8.71c-1,1.43-1.91,2.49-1.91,2.49v.11s1.54-.16,3.29-.16h6.37Z" transform="translate(-4.58 -3.42)"/><path class="cls-4" d="M114,14.68c0-3-2.23-4.89-5.47-4.89-3,0-4.94,1.54-4.94,3v1.65H97.33V10.69c0-5,6.59-7.27,11.47-7.27,6.59,0,12.22,4.14,12.22,11.15,0,12.74-18.22,13.49-18.22,20.34,0,.69.43,1,1.44,1h11a1.06,1.06,0,0,0,1.17-1.17V32.41h6.26v5.74c0,2.54-1.06,3.61-3.61,3.61H99.46c-3.3,0-3.88-1.44-3.88-5C95.58,23.12,114,23.86,114,14.68Z" transform="translate(-4.58 -3.42)"/><path class="cls-4" d="M126.43,24.87c0-10,5.68-21.45,17.36-21.45A17.78,17.78,0,0,1,151.55,5l-2,5.9a13.73,13.73,0,0,0-5.31-1.17c-5.9,0-9.08,4.94-10,10.25h.1c1.28-1.65,4.3-2.77,7-2.77,7.44,0,12.05,5.79,12.05,12.54,0,7-4.93,12.63-12.37,12.63C133.17,42.39,126.43,36,126.43,24.87ZM141,36.13c3.56,0,5.68-2.82,5.68-6.37,0-3.77-2.39-6.91-6.9-6.91-3.35,0-6.16,1.81-6.16,4.09C133.6,31.67,137.05,36.13,141,36.13Z" transform="translate(-4.58 -3.42)"/></g><path class="cls-5" d="M25.89,70.3V54.63h3.84l4.43,12.91,4.53-12.91h3.59V70.3H40.15V56.19L35,70.3H32.94L28,56.28v14Z" transform="translate(-4.58 -3.42)"/><path class="cls-5" d="M47.49,70.3l6.6-15.67h2.32L62.75,70.3H60.39l-1.7-4.08H51.42L49.73,70.3Zm7.67-13.52-3,7.68H58Z" transform="translate(-4.58 -3.42)"/><path class="cls-5" d="M69.55,70.3V64.14l-6.12-9.51h2.69l4.63,7.68,4.68-7.68h2.44l-6.13,9.61V70.3Z" transform="translate(-4.58 -3.42)"/><path class="cls-5" d="M86.86,70.3v-2l3.93-3.87a21.61,21.61,0,0,0,2.32-2.58,4.72,4.72,0,0,0,1.1-2.67,2.92,2.92,0,0,0-.08-.71,3.41,3.41,0,0,0-.31-.78,1.64,1.64,0,0,0-.73-.69,2.78,2.78,0,0,0-1.28-.27,2.89,2.89,0,0,0-1.18.22,2,2,0,0,0-.73.52,2,2,0,0,0-.37.72,3.79,3.79,0,0,0-.16.66c0,.16,0,.33,0,.5H87.07a4.36,4.36,0,0,1,1.39-3.3A4.89,4.89,0,0,1,91.72,55,5.17,5.17,0,0,1,95,56.07a4,4,0,0,1,1.34,3.31,5.28,5.28,0,0,1-.07,1,4.2,4.2,0,0,1-.46,1.09,11,11,0,0,1-1.16,1.7c-.46.58-1.39,1.56-2.78,3l-2.62,2.5h7.14V70.3Z" transform="translate(-4.58 -3.42)"/><path class="cls-5" d="M99.69,63c0-.4,0-.79,0-1.15a13.36,13.36,0,0,1,.14-1.4,10.16,10.16,0,0,1,.32-1.54,8.58,8.58,0,0,1,.57-1.44,4.7,4.7,0,0,1,.89-1.27,4.18,4.18,0,0,1,1.31-.85,4.67,4.67,0,0,1,1.78-.34,4.48,4.48,0,0,1,2.24.55,4.25,4.25,0,0,1,1.48,1.32,6.86,6.86,0,0,1,.83,1.89,11.57,11.57,0,0,1,.4,2,18.72,18.72,0,0,1,.09,1.89q0,4.88-2.08,6.83a4.54,4.54,0,0,1-5.44.45,4.76,4.76,0,0,1-1.58-1.79A11.59,11.59,0,0,1,99.69,63Zm2.08-.11q0,6,2.93,5.95c2,0,3-2,3-6a12.14,12.14,0,0,0-.65-4.52,2.28,2.28,0,0,0-2.25-1.58Q101.77,56.71,101.77,62.85Z" transform="translate(-4.58 -3.42)"/><path class="cls-5" d="M113.87,70.3v-2l3.93-3.87a21.61,21.61,0,0,0,2.32-2.58,4.75,4.75,0,0,0,1.11-2.67,2.94,2.94,0,0,0-.09-.71,3.41,3.41,0,0,0-.31-.78,1.64,1.64,0,0,0-.73-.69,2.78,2.78,0,0,0-1.28-.27,2.89,2.89,0,0,0-1.18.22,2,2,0,0,0-.73.52,2,2,0,0,0-.37.72,3.79,3.79,0,0,0-.16.66c0,.16,0,.33,0,.5h-2.28a4.36,4.36,0,0,1,1.39-3.3A4.89,4.89,0,0,1,118.73,55a5.17,5.17,0,0,1,3.3,1.07,4,4,0,0,1,1.34,3.31,5.28,5.28,0,0,1-.07,1,4.2,4.2,0,0,1-.46,1.09,11,11,0,0,1-1.16,1.7c-.46.58-1.39,1.56-2.78,3l-2.62,2.5h7.14V70.3Z" transform="translate(-4.58 -3.42)"/><path class="cls-5" d="M127.85,70.3v-2l3.93-3.87a20.78,20.78,0,0,0,2.32-2.58,4.75,4.75,0,0,0,1.11-2.67,2.94,2.94,0,0,0-.09-.71,3.86,3.86,0,0,0-.3-.78,1.66,1.66,0,0,0-.74-.69,2.75,2.75,0,0,0-1.28-.27,2.81,2.81,0,0,0-1.17.22,2,2,0,0,0-.74.52,2.23,2.23,0,0,0-.37.72,2.91,2.91,0,0,0-.15.66,4.1,4.1,0,0,0,0,.5h-2.28a4.29,4.29,0,0,1,1.39-3.3A4.87,4.87,0,0,1,132.71,55a5.13,5.13,0,0,1,3.3,1.07,4,4,0,0,1,1.35,3.31,5.18,5.18,0,0,1-.08,1,4.47,4.47,0,0,1-.45,1.09,11.16,11.16,0,0,1-1.17,1.7c-.46.58-1.38,1.56-2.77,3l-2.63,2.5h7.14V70.3Z" transform="translate(-4.58 -3.42)"/></svg>