<svg id="Calque_1" data-name="Calque 1" xmlns="http://www.w3.org/2000/svg" xmlns:xlink="http://www.w3.org/1999/xlink" viewBox="0 0 151.42 71.62"><defs><style>.cls-1,.cls-3{fill:none;}.cls-2{clip-path:url(#clip-path);}.cls-3{stroke:#a7945d;stroke-linecap:square;stroke-miterlimit:10;stroke-width:1.2px;}.cls-4{clip-path:url(#clip-path-2);}.cls-5{fill:#a7945d;}.cls-6{fill:#fff;}</style><clipPath id="clip-path" transform="translate(-1.98 -3.42)"><rect class="cls-1" x="-144.17" y="-46.24" width="300" height="126"/></clipPath><clipPath id="clip-path-2" transform="translate(-1.98 -3.42)"><path class="cls-1" d="M139.64,69.71V67.48h-.26l-2.47.05c-1.51,0-1.74,0-3.68.08,5.8-4.67,6.33-6.45,6.33-7.84,0-2.07-1.61-3.64-4.53-3.64a4.82,4.82,0,0,0-3.82,1.45,3.73,3.73,0,0,0-.79,2.52h2.94c0-.38.15-2,1.69-2a1.54,1.54,0,0,1,1.59,1.71,2.77,2.77,0,0,1-.92,1.94,18.42,18.42,0,0,1-2,2L130.23,67v2.71Zm-17.42-2c-1.44,0-1.79-2.14-1.79-4.42a14.31,14.31,0,0,1,.44-3.74,1.49,1.49,0,0,1,1.33-1.16c1,0,1.38,1.19,1.46,1.56a15,15,0,0,1,.34,3.3C124,65,123.75,67.66,122.22,67.66Zm-.08,2.26c4,0,4.74-4.09,4.74-7.2a7.89,7.89,0,0,0-1.21-4.84,4.08,4.08,0,0,0-3.49-1.76c-4.3,0-4.67,5.14-4.67,6.93C117.51,66.62,118.7,69.92,122.14,69.92Zm-8.43-.21V67.48c-.45,0-.68,0-2.73.06-1.52,0-1.75,0-3.69.08,5.8-4.67,6.34-6.45,6.34-7.84,0-2.07-1.61-3.64-4.53-3.64a4.81,4.81,0,0,0-3.82,1.45,3.73,3.73,0,0,0-.79,2.52h2.94c0-.38.15-2,1.69-2a1.55,1.55,0,0,1,1.59,1.71,2.77,2.77,0,0,1-.92,1.94,17.58,17.58,0,0,1-2,2L104.3,67v2.71Zm-37,0V63.62H82v6.09h3V55.83h-3v5.55H76.67V55.83h-3V69.71ZM64.29,70a5.46,5.46,0,0,0,4.06-1.56,4.71,4.71,0,0,0,1.24-3.26H66.46A2.43,2.43,0,0,1,64,67.85c-2.9,0-2.9-3.94-2.9-4.76,0-2.86.92-5.17,3.13-5.17,2,0,2.19,2,2.24,2.44h3c0-2.77-2.13-4.61-5.17-4.61-3.89,0-6.35,2.92-6.35,7.32C58,66.5,59.51,70,64.29,70ZM49,61.9h-2.5V58h2a3.3,3.3,0,0,1,1.95.32,1.76,1.76,0,0,1,.73,1.56,1.91,1.91,0,0,1-.76,1.61A2.38,2.38,0,0,1,49,61.9Zm-2.41,7.81V64.1H49.2c.49,0,1.22,0,1.49.79.2.54.62,4,.75,4.82h3.29a2.44,2.44,0,0,1-.43-1c-.09-.38-.21-1-.42-2.69-.25-1.8-.4-3-2.5-3.18a3.48,3.48,0,0,0,1.69-6.07c-1.11-1-2.66-1-4.2-.94H43.55V69.71ZM35,64.47H31L33,58.55Zm-5.78,5.24,1-3h5.49l1,3h3L34.88,55.83H31.35l-5,13.88Zm-19.42,0V57.81l3.71,11.9h2.46l3.78-11.9v11.9h3V55.83H17.94l-3.17,10.1-2.93-10.1H7V69.71Z"/></clipPath></defs><g class="cls-2"><line class="cls-3" x1="76.34" y1="23.11" x2="79.58" y2="26.37"/><line class="cls-3" x1="76.34" y1="29.62" x2="79.58" y2="26.37"/></g><g class="cls-4"><g class="cls-2"><rect class="cls-5" y="47.33" width="142.66" height="24.28"/></g></g><g class="cls-2"><path class="cls-5" d="M143.9,69.65V67l3.51-3.16a20.42,20.42,0,0,0,2-2,4.8,4.8,0,0,0,.74-1.05,2.1,2.1,0,0,0,.19-.88,1.77,1.77,0,0,0-.43-1.23,1.54,1.54,0,0,0-1.18-.47,1.66,1.66,0,0,0-.92.24,1.33,1.33,0,0,0-.52.61,3.82,3.82,0,0,0-.2.61,2.76,2.76,0,0,0-.07.49h-3a3.82,3.82,0,0,1,.8-2.5,4.69,4.69,0,0,1,3.86-1.46,5.05,5.05,0,0,1,3.36,1,3.25,3.25,0,0,1,1.22,2.62,3.55,3.55,0,0,1-.2,1.17,7.09,7.09,0,0,1-.79,1.48,14.23,14.23,0,0,1-2,2.19c-.91.87-2.06,1.85-3.46,3l1.81,0,1.92,0c1.65,0,2.57,0,2.75,0v2.21Z" transform="translate(-1.98 -3.42)"/><path class="cls-6" d="M23,14.68c0-3-2.23-4.89-5.47-4.89-3,0-4.94,1.54-4.94,3v1.65H6.33V10.69c0-5,6.59-7.27,11.47-7.27C24.39,3.42,30,7.56,30,14.57,30,27.31,11.8,28.06,11.8,34.91c0,.69.43,1,1.44,1h11a1.06,1.06,0,0,0,1.17-1.17V32.41h6.26v5.74c0,2.54-1.06,3.61-3.61,3.61H8.46c-3.3,0-3.88-1.44-3.88-5C4.58,23.12,23,23.86,23,14.68Z" transform="translate(-1.98 -3.42)"/><path class="cls-6" d="M34.63,27.84,50.24,4.06h8.18v22.3h5.79v5.89H58.42v9.51h-7V32.25H34.63ZM51.57,15.9a40.47,40.47,0,0,1,.27-4.09h-.11a38.93,38.93,0,0,1-2,3.4l-5.89,8.71c-1,1.43-1.91,2.49-1.91,2.49v.11s1.54-.16,3.29-.16h6.37Z" transform="translate(-1.98 -3.42)"/><path class="cls-6" d="M114,14.68c0-3-2.23-4.89-5.47-4.89-3,0-4.94,1.54-4.94,3v1.65H97.33V10.69c0-5,6.59-7.27,11.47-7.27,6.59,0,12.22,4.14,12.22,11.15,0,12.74-18.22,13.49-18.22,20.34,0,.69.43,1,1.44,1h11a1.06,1.06,0,0,0,1.17-1.17V32.41h6.26v5.74c0,2.54-1.06,3.61-3.61,3.61H99.46c-3.3,0-3.88-1.44-3.88-5C95.58,23.12,114,23.86,114,14.68Z" transform="translate(-1.98 -3.42)"/><path class="cls-6" d="M126.43,24.87c0-10,5.68-21.45,17.36-21.45A17.78,17.78,0,0,1,151.55,5l-2,5.9a13.73,13.73,0,0,0-5.31-1.17c-5.9,0-9.08,4.94-10,10.25h.1c1.28-1.65,4.3-2.77,7-2.77,7.44,0,12.05,5.79,12.05,12.54,0,7-4.93,12.63-12.37,12.63C133.17,42.39,126.43,36,126.43,24.87ZM141,36.13c3.56,0,5.68-2.82,5.68-6.37,0-3.77-2.39-6.91-6.9-6.91-3.35,0-6.16,1.81-6.16,4.09C133.6,31.67,137.05,36.13,141,36.13Z" transform="translate(-1.98 -3.42)"/></g></svg>