<svg id="Calque_1" data-name="Calque 1" xmlns="http://www.w3.org/2000/svg" xmlns:xlink="http://www.w3.org/1999/xlink" viewBox="0 0 61.29 35.02"><defs><style>.cls-1,.cls-3,.cls-8{fill:none;}.cls-2{clip-path:url(#clip-path);}.cls-3{stroke:#a7945d;stroke-linecap:square;stroke-width:0.84px;}.cls-3,.cls-8{stroke-miterlimit:10;}.cls-4{clip-path:url(#clip-path-2);}.cls-5,.cls-6{fill:#a7945d;}.cls-6{font-size:8.87px;font-family:UniversLT-65Bd, Univers LT;}.cls-7,.cls-8{font-size:20.67px;font-family:Museo-700, Museo;font-weight:700;}.cls-7{fill:#fff;}.cls-8{stroke:#fff;stroke-width:0.73px;}</style><clipPath id="clip-path" transform="translate(0.38 -0.15)"><rect class="cls-1" x="-1.08" width="64.59" height="34.24"/></clipPath><clipPath id="clip-path-2" transform="translate(0.38 -0.15)"><path class="cls-1" d="M54.28,31.8v-1h-.12l-1.11,0c-.68,0-.79,0-1.67,0,2.63-2.11,2.87-2.92,2.87-3.54,0-.94-.73-1.65-2-1.65a2.17,2.17,0,0,0-1.73.66,1.7,1.7,0,0,0-.35,1.14h1.33c0-.18.06-.89.76-.89a.7.7,0,0,1,.72.77c0,.28-.08.47-.42.88a7.94,7.94,0,0,1-.91.92L50,30.57V31.8Zm-6.92-.93c-.65,0-.81-1-.81-2a6.41,6.41,0,0,1,.2-1.69.67.67,0,0,1,.6-.52c.48,0,.62.54.66.7a7,7,0,0,1,.15,1.49C48.16,29.69,48.05,30.87,47.36,30.87Zm0,1c1.82,0,2.15-1.85,2.15-3.25a3.6,3.6,0,0,0-.55-2.19,1.86,1.86,0,0,0-1.58-.8c-2,0-2.11,2.33-2.11,3.13C45.23,30.4,45.77,31.89,47.32,31.89Zm-2.86-.09v-1h-.13l-1.11,0c-.68,0-.79,0-1.66,0,2.62-2.11,2.86-2.92,2.86-3.54,0-.94-.73-1.65-2.05-1.65a2.15,2.15,0,0,0-1.72.66,1.67,1.67,0,0,0-.36,1.14h1.33c0-.18.07-.89.76-.89a.7.7,0,0,1,.72.77,1.29,1.29,0,0,1-.41.88,8.83,8.83,0,0,1-.92.92L40.2,30.57V31.8Zm-13.9,0V29H33V31.8h1.34V25.52H32.93V28H30.56V25.52H29.21V31.8Zm-4.65.14a2.48,2.48,0,0,0,1.84-.7,2.17,2.17,0,0,0,.56-1.47H26.89A1.09,1.09,0,0,1,25.77,31c-1.23,0-1.31-1.55-1.31-2.06V28.8c0-1.29.42-2.33,1.42-2.33s1,.88,1,1.1h1.37a2.11,2.11,0,0,0-2.34-2.08c-1.76,0-2.87,1.31-2.87,3.3C23.05,30.35,23.75,31.94,25.91,31.94Zm-6-3.68H18.81V26.51h.9a1.47,1.47,0,0,1,.89.15.79.79,0,0,1,.33.7.86.86,0,0,1-.35.73A1.11,1.11,0,0,1,19.9,28.26Zm-1,3.54V29.26H20c.22,0,.55,0,.67.36s.28,1.83.34,2.18h1.49a1.07,1.07,0,0,1-.19-.45,10.93,10.93,0,0,1-.2-1.22C22,29.31,22,28.78,21,28.69A1.57,1.57,0,0,0,21.79,26a2.72,2.72,0,0,0-1.9-.43H17.48V31.8Zm-4.31-2.37h-1.8l.93-2.68ZM11.94,31.8l.46-1.36h2.49l.45,1.36h1.35l-2.18-6.28H12.92L10.65,31.8Zm-7.83,0V26.41L5.78,31.8H6.89L8.6,26.41V31.8H9.94V25.52H7.8L6.37,30.09,5,25.52H2.85V31.8Z"/></clipPath></defs><g class="cls-2"><line class="cls-3" x1="31.28" y1="10.2" x2="32.75" y2="11.67"/><line class="cls-3" x1="31.28" y1="13.13" x2="32.75" y2="11.67"/></g><g class="cls-4"><g class="cls-2"><rect class="cls-5" y="22.1" width="57.9" height="12.92"/></g></g><g class="cls-2"><text class="cls-6" transform="translate(55.45 31.74)">2</text><text class="cls-7" transform="translate(1.89 17.93)"><tspan xml:space="preserve">24  26</tspan></text><text class="cls-8" transform="translate(1.89 17.93)"><tspan xml:space="preserve">24  26</tspan></text></g></svg>