<?xml version="1.0" encoding="UTF-8"?>
<svg width="103px" height="47px" viewBox="0 0 103 47" version="1.1" xmlns="http://www.w3.org/2000/svg" xmlns:xlink="http://www.w3.org/1999/xlink">
    <title>Group</title>
    <g id="Symbols" stroke="none" stroke-width="1" fill="none" fill-rule="evenodd">
        <g id="MENU" transform="translate(-137.000000, -84.000000)" fill-rule="nonzero">
            <g id="Group" transform="translate(137.000000, 84.000000)">
                <g id="FLECHE" transform="translate(47.122159, 11.676471)" fill="#A6945D">
                    <polygon id="Line-2" points="0.657450807 1.25141137 1.25147967 0.657500941 4.10817419 3.5147651 3.51414533 4.10867553"></polygon>
                    <polygon id="Line-2" transform="translate(2.382812, 4.897794) scale(1, -1) translate(-2.382812, -4.897794) " points="1.25147967 3.17220682 4.10817419 6.02947098 3.51414533 6.62338141 0.657450807 3.76611726"></polygon>
                </g>
                <path d="M16.8374022,26.1199988 C18.6366821,26.1199988 19.412842,25.3438389 19.412842,23.544559 L19.412842,18.6759194 L13.7680424,18.6759194 L13.7680424,20.0518393 C13.7680424,20.5457593 13.4858025,20.8279992 12.9918825,20.8279992 L8.08796287,20.8279992 C7.31180293,20.8279992 7.02956295,20.7221593 7.02956295,20.2987993 C7.02956295,17.5116795 18.3191621,16.4885596 18.3191621,8.19776021 C18.3191621,2.94104062 13.8386024,0.471440807 9.71084275,0.471440807 C5.97116303,0.471440807 1.45532338,2.20016067 1.45532338,5.69288041 L1.45532338,8.65640018 L7.10012295,8.65640018 L7.10012295,7.63328026 C7.10012295,6.99824031 7.87628289,6.18680037 9.46388277,6.18680037 C10.8750827,6.18680037 11.9687626,6.89240031 11.9687626,8.30360021 C11.9687626,13.4191998 0.432203458,13.1369598 0.432203458,22.1333591 C0.432203458,24.9557589 0.679163439,26.1199988 3.28988324,26.1199988 L16.8374022,26.1199988 Z M31.9725212,26.5433588 C37.4409208,26.5433588 40.5808405,22.3097591 40.5808405,18.0408795 C40.5808405,13.7014398 37.5820408,9.39728012 32.3253212,9.39728012 C31.1258013,9.39728012 29.5382014,9.85592009 28.9384414,10.2792801 L28.8678814,10.2792801 C29.6440414,7.95080023 31.3374812,6.11624037 34.230441,6.11624037 C36.0297209,6.11624037 37.6878808,6.85712032 37.6878808,6.85712032 L39.3460406,1.56512072 C39.3460406,1.56512072 37.2998008,0.471440807 33.7718011,0.471440807 C25.9396417,0.471440807 21.741322,7.73912025 21.741322,14.6539997 C21.741322,22.7683991 26.8922016,26.5433588 31.9725212,26.5433588 Z M31.9725212,20.8985592 C30.2085213,20.8985592 28.1622815,18.8875994 28.1622815,15.8887996 C28.1622815,14.7245597 29.3618014,14.3717597 30.7024413,14.3717597 C33.4190011,14.3717597 34.512681,16.2768796 34.512681,18.0761595 C34.512681,19.5579193 33.5248411,20.8985592 31.9725212,20.8985592 Z M78.2245981,26.1199988 C80.023878,26.1199988 80.8000379,25.3438389 80.8000379,23.544559 L80.8000379,18.6759194 L75.1552383,18.6759194 L75.1552383,20.0518393 C75.1552383,20.5457593 74.8729984,20.8279992 74.3790784,20.8279992 L69.4751588,20.8279992 C68.6989988,20.8279992 68.4167589,20.7221593 68.4167589,20.2987993 C68.4167589,17.5116795 79.706358,16.4885596 79.706358,8.19776021 C79.706358,2.94104062 75.2257983,0.471440807 71.0980386,0.471440807 C67.3583589,0.471440807 62.8425193,2.20016067 62.8425193,5.69288041 L62.8425193,8.65640018 L68.4873189,8.65640018 L68.4873189,7.63328026 C68.4873189,6.99824031 69.2634788,6.18680037 70.8510787,6.18680037 C72.2622786,6.18680037 73.3559585,6.89240031 73.3559585,8.30360021 C73.3559585,13.4191998 61.8193994,13.1369598 61.8193994,22.1333591 C61.8193994,24.9557589 62.0663593,26.1199988 64.6770791,26.1199988 L78.2245981,26.1199988 Z M92.5482772,26.5433588 C98.5458767,26.5433588 101.968036,22.6978391 101.968036,18.8523194 C101.968036,16.7002396 100.980197,14.5481597 98.8986767,13.1016798 L98.8986767,13.0311198 C98.8986767,13.0311198 101.156596,10.98488 101.156596,7.70384025 C101.156596,3.64664056 97.7697168,0.471440807 92.7246771,0.471440807 C87.2562776,0.471440807 84.2927578,4.03472053 84.2927578,7.73912025 C84.2927578,10.9496 86.5506776,12.6430399 86.5506776,12.6430399 L86.5506776,12.7135999 C86.5506776,12.7135999 83.1990779,15.1126397 83.1990779,18.6759194 C83.1990779,23.0506391 87.0445976,26.5433588 92.5482772,26.5433588 Z M93.8536371,10.63208 C93.5361171,10.63208 92.9010771,10.34984 92.6188372,10.2087201 C91.2781973,9.60896011 90.3256373,8.90336016 90.3256373,7.88024024 C90.3256373,6.96296031 91.2076373,6.11624037 92.7246771,6.11624037 C94.171157,6.11624037 95.158997,6.89240031 95.158997,8.16248022 C95.158997,9.43256012 94.559237,10.63208 93.8536371,10.63208 Z M92.5482772,20.8985592 C90.6784373,20.8985592 89.4789174,19.8048793 89.4789174,18.2525594 C89.4789174,16.7707996 90.3961973,15.2890397 91.1370773,15.2890397 C91.4545972,15.2890397 91.8426772,15.5007197 92.9010771,15.9946396 C94.453397,16.7002396 95.6176369,17.4058395 95.6176369,18.5347994 C95.6176369,19.9107193 94.382837,20.8985592 92.5482772,20.8985592 Z" id="2628" fill="#FFFFFF"></path>
                <path d="M5.30000301,46.3619188 C6.10640294,46.3619188 7.67888282,46.1871988 8.75408274,44.9775989 C9.54704268,44.090559 9.97712265,42.5852791 9.97712265,41.1740792 C9.97712265,40.2198393 9.77552266,38.7011194 8.74064274,37.5183995 C7.78640282,36.4431996 6.36176292,36.2012796 5.326883,36.2012796 C1.83248327,36.2012796 0.663203362,38.8220794 0.663203362,41.4025592 C0.663203362,42.2895991 0.797603351,43.902399 1.85936327,45.0313589 C2.7464032,45.9587189 4.0232031,46.3619188 5.30000301,46.3619188 Z M5.326883,44.8297589 C4.35920308,44.8297589 3.86192312,44.453439 3.56624314,44.050239 C2.98832318,43.2975991 2.84048319,42.2627191 2.84048319,41.3353592 C2.84048319,40.2332793 3.00176318,39.1849594 3.55280314,38.5129594 C3.94256311,38.0156795 4.56080306,37.6931195 5.340323,37.6931195 C6.33488293,37.6931195 7.15472286,38.2172794 7.55792283,39.4134394 C7.75952282,40.0047993 7.79984281,40.6767993 7.79984281,41.1471992 C7.79984281,42.6927991 7.46384284,43.445439 7.14128287,43.929279 C6.7515229,44.534079 6.17360294,44.8297589 5.326883,44.8297589 Z M15.5816023,46.3484788 C16.4686422,46.3484788 17.5572821,46.1468788 18.4174421,45.2598389 C19.196962,44.453439 19.250722,43.552959 19.291042,42.9750391 L17.1003222,42.9750391 C17.0600022,44.265279 16.2267223,44.8163189 15.3531223,44.8163189 C13.3236825,44.8163189 13.3236825,42.0611192 13.3236825,41.4831992 C13.3236825,39.4806394 13.9688024,37.8678395 15.5144023,37.8678395 C16.9256022,37.8678395 17.0465622,39.2387194 17.0868822,39.5747193 L19.210402,39.5747193 C19.210402,37.6393595 17.7185621,36.3491196 15.5950423,36.3491196 C12.8667225,36.3491196 11.1464026,38.3919994 11.1464026,41.4697592 C11.1464026,43.875519 12.2350426,46.3484788 15.5816023,46.3484788 Z M24.9627217,46.1199988 L24.9627217,38.0156795 L27.8523214,38.0156795 L27.8523214,36.4028796 L19.976482,36.4028796 L19.976482,38.0156795 L22.8660818,38.0156795 L22.8660818,46.1199988 L24.9627217,46.1199988 Z M32.7982411,46.3619188 C33.6046411,46.3619188 35.177121,46.1871988 36.2523209,44.9775989 C37.0452808,44.090559 37.4753608,42.5852791 37.4753608,41.1740792 C37.4753608,40.2198393 37.2737608,38.7011194 36.2388809,37.5183995 C35.284641,36.4431996 33.8600011,36.2012796 32.8251211,36.2012796 C29.3307214,36.2012796 28.1614415,38.8220794 28.1614415,41.4025592 C28.1614415,42.2895991 28.2958415,43.902399 29.3576014,45.0313589 C30.2446413,45.9587189 31.5214412,46.3619188 32.7982411,46.3619188 Z M32.8251211,44.8297589 C31.8574412,44.8297589 31.3601613,44.453439 31.0644813,44.050239 C30.4865613,43.2975991 30.3387213,42.2627191 30.3387213,41.3353592 C30.3387213,40.2332793 30.5000013,39.1849594 31.0510413,38.5129594 C31.4408012,38.0156795 32.0590412,37.6931195 32.8385611,37.6931195 C33.8331211,37.6931195 34.652961,38.2172794 35.056161,39.4134394 C35.257761,40.0047993 35.298081,40.6767993 35.298081,41.1471992 C35.298081,42.6927991 34.962081,43.445439 34.639521,43.929279 C34.249761,44.534079 33.6718411,44.8297589 32.8251211,44.8297589 Z M45.1764803,45.7302389 C45.9291202,45.3539189 46.6011202,44.587839 46.6011202,43.445439 C46.6011202,42.4239991 46.0232002,41.3487992 44.5448003,41.0799992 L44.5448003,41.0531192 C45.1092803,40.9052792 45.5796802,40.4751993 45.6468802,40.3945593 C46.1441602,39.9375993 46.2113602,39.3059194 46.2113602,38.9430394 C46.2113602,38.3785594 46.0097602,37.4377595 45.1227203,36.8732795 C44.4403819,36.4514704 43.4602958,36.4190235 42.8695721,36.4165276 L39.1016007,36.4163196 L39.1016007,46.1199988 L42.7304005,46.1199988 C43.1067204,46.1199988 44.4238403,46.1199988 45.1764803,45.7302389 Z M42.6219901,40.3675766 L41.0907206,40.3676793 L41.0907206,37.9081595 L42.5019205,37.9081595 C43.1873604,37.9081595 44.2088004,37.9081595 44.2088004,39.1177594 C44.2088004,40.3133349 43.2250636,40.3653165 42.6219901,40.3675766 L42.6219901,40.3675766 Z M42.5019205,44.560959 L41.0907206,44.560959 L41.0907206,41.8729592 L42.5297071,41.8736679 C43.4734281,41.8818188 44.5313603,41.9837048 44.5313603,43.2572791 C44.5313603,44.560959 43.4561604,44.560959 42.5019205,44.560959 Z M54.9339196,46.1199988 L54.9339196,44.507199 L50.36432,44.507199 L50.36432,41.8863992 L54.5038396,41.8863992 L54.5038396,40.3004793 L50.36432,40.3004793 L50.36432,37.9887995 L54.7860796,37.9887995 L54.7860796,36.4028796 L48.2811201,36.4028796 L48.2811201,46.1199988 L54.9339196,46.1199988 Z M58.5627194,46.1199988 L58.5627194,42.1955191 L60.3905593,42.1955191 C60.7399993,42.1955191 61.2507192,42.1955191 61.4388792,42.7465591 C61.5732792,43.1228791 61.8689592,45.5823989 61.9630392,46.1199988 L64.261279,46.1199988 C64.153759,45.9587189 64.073119,45.8511989 63.965599,45.4211189 C63.898399,45.1523189 63.817759,44.681919 63.669919,43.539519 C63.495199,42.2761591 63.387679,41.4428792 61.9227192,41.3084792 C62.3931191,41.1740792 63.952159,40.7439993 63.952159,38.9295994 C63.952159,38.2979194 63.710239,37.5855995 63.1054391,37.0614395 C62.3259191,36.3894396 61.2372792,36.3894396 60.1620793,36.4028796 L56.4391996,36.4028796 L56.4391996,46.1199988 L58.5627194,46.1199988 Z M60.1755193,40.6499193 L58.4955194,40.6499193 L58.4955194,37.9350395 L59.8932793,37.9350395 C60.5518393,37.9350395 60.9415992,37.9350395 61.2641592,38.1635195 C61.4523192,38.2844794 61.7748792,38.5935994 61.7748792,39.2521594 C61.7748792,39.9375993 61.3851192,40.2735993 61.2372792,40.3811193 C60.9012792,40.6499193 60.4174393,40.6499193 60.1755193,40.6499193 Z M79.3947181,46.1199988 L79.3947181,44.560959 C79.0855981,44.574399 78.9243181,44.574399 77.4862382,44.601279 C76.4244783,44.614719 76.2631983,44.628159 74.9057584,44.655039 C78.9646381,41.3891192 79.3409581,40.1391993 79.3409581,39.1715194 C79.3409581,37.7199995 78.2119982,36.6179196 76.1691183,36.6179196 C75.0267184,36.6179196 74.0321585,36.9673595 73.4945585,37.6393595 C72.9435186,38.3247994 72.9435186,39.0236794 72.9435186,39.3999994 L74.9998384,39.3999994 C75.0132784,39.1311994 75.1073584,38.0291195 76.1825583,38.0291195 C76.8814383,38.0291195 77.2980782,38.5129594 77.2980782,39.2252794 C77.2980782,39.6553593 77.1771182,39.9510393 76.6529583,40.5827193 C76.1556783,41.1875192 75.6718384,41.6175992 75.2417584,42.0073592 L72.8091186,44.224959 L72.8091186,46.1199988 L79.3947181,46.1199988 Z M83.8299178,46.2678388 C86.6523176,46.2678388 87.1495976,43.405119 87.1495976,41.2278392 C87.1495976,39.4671994 86.7867176,38.5532794 86.3028776,37.8409595 C85.9534376,37.3167995 85.1739177,36.6044796 83.8567978,36.6044796 C80.846238,36.6044796 80.5908781,40.2063993 80.5908781,41.4563192 C80.5908781,43.956159 81.424158,46.2678388 83.8299178,46.2678388 Z M83.8836778,44.681919 C82.8756779,44.681919 82.6337579,43.1900791 82.6337579,41.5907192 C82.6337579,41.3622392 82.6337579,39.9241593 82.9428779,38.9699194 C83.0369579,38.6876794 83.2923179,38.1635195 83.8702378,38.1635195 C84.6094378,38.1635195 84.8379177,38.9967994 84.8916777,39.2521594 C85.0663977,39.8703993 85.1335977,40.9724792 85.1335977,41.5638392 C85.1335977,42.8540791 84.9588777,44.681919 83.8836778,44.681919 Z M94.6087971,46.1199988 L94.6087971,44.560959 C94.2996771,44.574399 94.1383971,44.574399 92.7003172,44.601279 C91.6385573,44.614719 91.4772773,44.628159 90.1198374,44.655039 C94.1787171,41.3891192 94.5550371,40.1391993 94.5550371,39.1715194 C94.5550371,37.7199995 93.4260772,36.6179196 91.3831973,36.6179196 C90.2407974,36.6179196 89.2462375,36.9673595 88.7086375,37.6393595 C88.1575976,38.3247994 88.1575976,39.0236794 88.1575976,39.3999994 L90.2139174,39.3999994 C90.2273574,39.1311994 90.3214374,38.0291195 91.3966373,38.0291195 C92.0955173,38.0291195 92.5121572,38.5129594 92.5121572,39.2252794 C92.5121572,39.6553593 92.3911972,39.9510393 91.8670373,40.5827193 C91.3697573,41.1875192 90.8859174,41.6175992 90.4558374,42.0073592 L88.0231976,44.224959 L88.0231976,46.1199988 L94.6087971,46.1199988 Z M99.0439968,46.2678388 C101.866397,46.2678388 102.363677,43.405119 102.363677,41.2278392 C102.363677,39.4671994 102.000797,38.5532794 101.516957,37.8409595 C101.167517,37.3167995 100.387997,36.6044796 99.0708768,36.6044796 C96.060317,36.6044796 95.8049571,40.2063993 95.8049571,41.4563192 C95.8049571,43.956159 96.638237,46.2678388 99.0439968,46.2678388 Z M99.0977568,44.681919 C98.0897569,44.681919 97.8478369,43.1900791 97.8478369,41.5907192 C97.8478369,41.3622392 97.8478369,39.9241593 98.1569569,38.9699194 C98.2510369,38.6876794 98.5063968,38.1635195 99.0843168,38.1635195 C99.8235167,38.1635195 100.051997,38.9967994 100.105757,39.2521594 C100.280477,39.8703993 100.347677,40.9724792 100.347677,41.5638392 C100.347677,42.8540791 100.172957,44.681919 99.0977568,44.681919 Z" id="OCTOBER2020" fill="#A6945D"></path>
            </g>
        </g>
    </g>
</svg>