<svg id="Calque_1" data-name="Calque 1" xmlns="http://www.w3.org/2000/svg" xmlns:xlink="http://www.w3.org/1999/xlink" viewBox="0 0 94.68 54.02"><defs><style>.cls-1,.cls-3,.cls-8{fill:none;}.cls-2{clip-path:url(#clip-path);}.cls-3{stroke:#a7945d;stroke-linecap:square;stroke-width:0.84px;}.cls-3,.cls-8{stroke-miterlimit:10;}.cls-4{clip-path:url(#clip-path-2);}.cls-5,.cls-6{fill:#a7945d;}.cls-6{font-size:13.74px;font-family:UniversLT-65Bd, Univers LT;}.cls-7,.cls-8{font-size:32px;font-family:Museo-700, Museo;font-weight:700;}.cls-7{fill:#fff;}.cls-8{stroke:#fff;stroke-width:0.73px;}</style><clipPath id="clip-path" transform="translate(3.23 -0.43)"><rect class="cls-1" x="-4.31" width="100" height="53"/></clipPath><clipPath id="clip-path-2" transform="translate(3.23 -0.43)"><path class="cls-1" d="M81.4,49.23V47.67h-.19l-1.72,0c-1.06,0-1.22,0-2.58,0,4.06-3.27,4.44-4.52,4.44-5.48,0-1.45-1.13-2.56-3.17-2.56a3.39,3.39,0,0,0-2.68,1A2.64,2.64,0,0,0,75,42.51H77c0-.27.1-1.38,1.18-1.38a1.08,1.08,0,0,1,1.11,1.2,2,2,0,0,1-.64,1.36,13.52,13.52,0,0,1-1.41,1.42l-2.43,2.22v1.9ZM70.68,47.79c-1,0-1.25-1.49-1.25-3.09a10,10,0,0,1,.31-2.62,1,1,0,0,1,.92-.81c.74,0,1,.83,1,1.09a10.27,10.27,0,0,1,.25,2.31C71.93,46,71.75,47.79,70.68,47.79Zm-.06,1.58c2.83,0,3.32-2.86,3.32-5A5.56,5.56,0,0,0,73.1,41a2.86,2.86,0,0,0-2.45-1.24c-3,0-3.27,3.6-3.27,4.85C67.38,47.06,68.22,49.37,70.62,49.37Zm-4.43-.14V47.67H66l-1.72,0c-1.06,0-1.22,0-2.58,0,4.06-3.27,4.43-4.52,4.43-5.48,0-1.45-1.13-2.56-3.17-2.56a3.36,3.36,0,0,0-2.67,1,2.64,2.64,0,0,0-.55,1.77h2c0-.27.11-1.38,1.19-1.38a1.09,1.09,0,0,1,1.11,1.2,2,2,0,0,1-.64,1.36A13.52,13.52,0,0,1,62,45.11L59.6,47.33v1.9Zm-21.52,0V45h3.7v4.27h2.08V39.51H48.34v3.88H44.67V39.51H42.59v9.72Zm-7.19.22a3.83,3.83,0,0,0,2.84-1.08,3.38,3.38,0,0,0,.87-2.29H39a1.71,1.71,0,0,1-1.75,1.84c-1.9,0-2-2.41-2-3.19v-.14c0-2,.65-3.62,2.19-3.62s1.53,1.37,1.57,1.71h2.13c0-1.94-1.49-3.23-3.62-3.23-2.73,0-4.45,2-4.45,5.12C33,47,34.13,49.45,37.48,49.45Zm-9.31-5.69H26.49V41h1.39a2.27,2.27,0,0,1,1.37.23,1.21,1.21,0,0,1,.52,1.09,1.35,1.35,0,0,1-.54,1.13A1.71,1.71,0,0,1,28.17,43.76Zm-1.62,5.47V45.3h1.83c.35,0,.86,0,1.05.55.13.38.43,2.84.52,3.38h2.3a1.69,1.69,0,0,1-.29-.7,18.25,18.25,0,0,1-.3-1.89c-.17-1.26-.28-2.09-1.75-2.23a2.42,2.42,0,0,0,2-2.38,2.45,2.45,0,0,0-.84-1.86,4.2,4.2,0,0,0-3-.66H24.43v9.72Zm-6.66-3.67H17.1l1.44-4.14Zm-4.05,3.67.73-2.1h3.84l.7,2.1h2.1l-3.38-9.72H17.36l-3.51,9.72Zm-12.12,0V40.89l2.59,8.34H8l2.65-8.34v8.34h2.07V39.51H9.44L7.23,46.58,5.17,39.51H1.77v9.72Z"/></clipPath></defs><g class="cls-2"><line class="cls-3" x1="48.43" y1="15.6" x2="50.7" y2="17.86"/><line class="cls-3" x1="48.43" y1="20.13" x2="50.7" y2="17.86"/></g><g class="cls-4"><g class="cls-2"><rect class="cls-5" y="34.02" width="89.63" height="20"/></g></g><g class="cls-2"><text class="cls-6" transform="translate(85.92 48.57)">2</text><text class="cls-7" transform="translate(2.92 27.57)"><tspan xml:space="preserve">24  26</tspan></text><text class="cls-8" transform="translate(2.92 27.57)"><tspan xml:space="preserve">24  26</tspan></text></g></svg>