<?xml version="1.0" encoding="UTF-8"?>
<svg width="140px" height="30px" viewBox="0 0 140 30" version="1.1" xmlns="http://www.w3.org/2000/svg" xmlns:xlink="http://www.w3.org/1999/xlink">
    <title>days</title>
    <g id="Page-1" stroke="none" stroke-width="1" fill="none" fill-rule="evenodd">
        <g id="days">
            <rect id="Rectangle-Copy" x="0" y="0" width="140" height="30"></rect>
            <path d="M47.30425,23 C52.50175,23 55.82815,19.9046 55.82815,14.7071 C55.82815,9.5096 52.50175,6.4835 47.30425,6.4835 L40.51285,6.4835 L40.51285,9.9485 L42.01435,9.9485 L42.01435,21.3137 C42.01435,22.4918 42.52255,23 43.70065,23 L47.30425,23 Z M47.14255,19.535 L46.65745,19.535 C46.33405,19.535 46.14925,19.3502 46.14925,19.0268 L46.14925,9.9485 L47.14255,9.9485 C49.79905,9.9485 51.53155,11.5655 51.53155,14.7071 C51.53155,17.8718 49.86835,19.535 47.14255,19.535 Z M59.27005,23 C60.42505,23 60.88705,22.6535 61.21045,21.6602 L61.92655,19.535 L66.73135,19.535 L67.44745,21.6602 C67.77085,22.6535 68.23285,23 69.38785,23 L72.04435,23 L72.04435,19.535 L71.60545,19.535 C71.23585,19.535 71.12035,19.4195 70.98175,19.0268 L66.47725,6.4835 L62.18065,6.4835 L57.67615,19.0268 C57.53755,19.4195 57.42205,19.535 57.05245,19.535 L56.61355,19.535 L56.61355,23 L59.27005,23 Z M65.85355,16.1855 L62.80435,16.1855 L63.63595,13.4366 C63.95935,12.3971 64.30585,10.7108 64.30585,10.7108 L64.35205,10.7108 C64.35205,10.7108 64.69855,12.3971 65.02195,13.4366 L65.85355,16.1855 Z M81.65395,23 L81.65395,15.7697 L85.16515,10.4567 C85.46545,9.9947 85.48855,9.9485 85.99675,9.9485 L86.66665,9.9485 L86.66665,6.4835 L84.40285,6.4835 C83.38645,6.4835 82.83205,6.6452 82.27765,7.5923 L80.61445,10.4336 C79.99075,11.4962 79.62115,12.2816 79.62115,12.2816 L79.57495,12.2816 C79.57495,12.2816 79.20535,11.4962 78.58165,10.4336 L76.89535,7.5923 C76.34095,6.6452 75.78655,6.4835 74.77015,6.4835 L72.50635,6.4835 L72.50635,9.9485 L73.17625,9.9485 C73.68445,9.9485 73.70755,9.9947 74.00785,10.4567 L77.51905,15.7697 L77.51905,23 L81.65395,23 Z M93.57355,23.2772 C97.29265,23.2772 99.44095,20.921 99.44095,18.1721 C99.44095,12.7436 91.95655,13.0208 91.95655,11.0111 C91.95655,10.2488 92.81125,9.9023 93.64285,9.9023 C94.40515,9.9023 95.25985,10.2719 95.25985,10.8725 L95.25985,11.5886 L98.95585,11.5886 L98.95585,9.7868 C98.95585,7.2689 95.88355,6.2063 93.68905,6.2063 C90.40885,6.2063 87.79855,8.1929 87.79855,11.1728 C87.79855,16.3472 95.28295,16.5551 95.28295,18.38 C95.28295,19.304 94.45135,19.6043 93.61975,19.6043 C91.54075,19.6043 89.83135,17.6639 89.83135,17.6639 L87.54445,20.5514 L87.5642704,20.5757041 C87.7884972,20.8458537 89.90835,23.2772 93.57355,23.2772 Z" id="DAYS" fill-opacity="0.04" fill="#0B1626" fill-rule="nonzero"></path>
        </g>
    </g>
</svg>