<?xml version="1.0" encoding="UTF-8"?>
<svg width="137px" height="40px" viewBox="0 0 137 40" version="1.1" xmlns="http://www.w3.org/2000/svg" xmlns:xlink="http://www.w3.org/1999/xlink">
    <title>DAYS</title>
    <g id="Rollover" stroke="none" stroke-width="1" fill="none" fill-rule="evenodd" fill-opacity="0.04">
        <g id="MILIPOLQATAR-HOMEPAGE01" transform="translate(-653.000000, -806.000000)" fill="#0B1626" fill-rule="nonzero">
            <g id="DATE-+-LINKS" transform="translate(-2.000000, 573.000000)">
                <g id="DATE" transform="translate(258.488932, 178.000000)">
                    <g id="Group-7-Copy" transform="translate(238.000000, 0.000000)">
                        <path d="M174.9275,94 C186.8525,94 194.4845,86.898 194.4845,74.973 C194.4845,63.048 186.8525,56.105 174.9275,56.105 L159.3455,56.105 L159.3455,64.055 L162.7905,64.055 L162.7905,90.131 C162.7905,92.834 163.9565,94 166.6595,94 L174.9275,94 Z M174.5565,86.05 L173.4435,86.05 C172.7015,86.05 172.2775,85.626 172.2775,84.884 L172.2775,64.055 L174.5565,64.055 C180.6515,64.055 184.6265,67.765 184.6265,74.973 C184.6265,82.234 180.8105,86.05 174.5565,86.05 Z M202.3815,94 C205.0315,94 206.0915,93.205 206.8335,90.926 L208.4765,86.05 L219.5005,86.05 L221.1435,90.926 C221.8855,93.205 222.9455,94 225.5955,94 L231.6905,94 L231.6905,86.05 L230.6835,86.05 C229.8355,86.05 229.5705,85.785 229.2525,84.884 L218.9175,56.105 L209.0595,56.105 L198.7245,84.884 C198.4065,85.785 198.1415,86.05 197.2935,86.05 L196.2865,86.05 L196.2865,94 L202.3815,94 Z M217.4865,78.365 L210.4905,78.365 L212.3985,72.058 C213.1405,69.673 213.9355,65.804 213.9355,65.804 L214.0415,65.804 C214.0415,65.804 214.8365,69.673 215.5785,72.058 L217.4865,78.365 Z M253.7385,94 L253.7385,77.411 L261.7945,65.221 C262.4835,64.161 262.5365,64.055 263.7025,64.055 L265.2395,64.055 L265.2395,56.105 L260.0455,56.105 C257.7135,56.105 256.4415,56.476 255.1695,58.649 L251.3535,65.168 C249.9225,67.606 249.0745,69.408 249.0745,69.408 L248.9685,69.408 C248.9685,69.408 248.1205,67.606 246.6895,65.168 L242.8205,58.649 C241.5485,56.476 240.2765,56.105 237.9445,56.105 L232.7505,56.105 L232.7505,64.055 L234.2875,64.055 C235.4535,64.055 235.5065,64.161 236.1955,65.221 L244.2515,77.411 L244.2515,94 L253.7385,94 Z M281.0865,94.636 C289.6195,94.636 294.5485,89.23 294.5485,82.923 C294.5485,70.468 277.3765,71.104 277.3765,66.493 C277.3765,64.744 279.3375,63.949 281.2455,63.949 C282.9945,63.949 284.9555,64.797 284.9555,66.175 L284.9555,67.818 L293.4355,67.818 L293.4355,63.684 C293.4355,57.907 286.3865,55.469 281.3515,55.469 C273.8255,55.469 267.8365,60.027 267.8365,66.864 C267.8365,78.736 285.0085,79.213 285.0085,83.4 C285.0085,85.52 283.1005,86.209 281.1925,86.209 C276.4225,86.209 272.5005,81.757 272.5005,81.757 L267.2535,88.382 C267.2535,88.382 272.1825,94.636 281.0865,94.636 Z" id="DAYS"></path>
                    </g>
                </g>
            </g>
        </g>
    </g>
</svg>