<?xml version="1.0" encoding="UTF-8"?>
<svg width="55px" height="17px" viewBox="0 0 55 17" version="1.1" xmlns="http://www.w3.org/2000/svg" xmlns:xlink="http://www.w3.org/1999/xlink">
    <title>DAYS</title>
    <g id="Mobile-📱" stroke="none" stroke-width="1" fill="none" fill-rule="evenodd" fill-opacity="0.04">
        <g id="MILIPOLQATAR-Mobile-HOMEPAGE" transform="translate(-153.000000, -952.000000)" fill="#0B1626" fill-rule="nonzero">
            <g id="Group-8" transform="translate(1.000000, 581.000000)">
                <g id="DATE" transform="translate(-86.000000, 325.000000)">
                    <g id="Group-7-Copy" transform="translate(113.599997, 0.000000)">
                        <path d="M131.485215,61.8653946 C136.226655,61.8653946 139.322663,59.0075406 139.322663,54.1578491 C139.322663,49.3081575 136.226655,46.4936044 131.485215,46.4936044 L125.228247,46.4936044 L125.228247,48.8967997 L126.635524,48.8967997 L126.635524,60.3931668 C126.635524,61.4323864 127.068532,61.8653946 128.107752,61.8653946 L131.485215,61.8653946 Z M131.333663,59.4621992 L129.948036,59.4621992 C129.644931,59.4621992 129.471727,59.2889959 129.471727,58.9858902 L129.471727,48.8967997 L131.333663,48.8967997 C134.36472,48.8967997 136.378208,50.7370845 136.378208,54.1578491 C136.378208,57.6219145 134.408021,59.4621992 131.333663,59.4621992 Z M141.920712,61.8653946 C143.003233,61.8653946 143.37129,61.5839393 143.717696,60.6096709 L144.670314,57.9250202 L149.866412,57.9250202 L150.81903,60.6096709 C151.165437,61.5839393 151.555144,61.8653946 152.637665,61.8653946 L154.326397,61.8653946 L154.326397,59.4621992 L153.97999,59.4621992 C153.611933,59.4621992 153.43873,59.3755976 153.308827,58.9858902 L148.762242,46.4936044 L145.796136,46.4936044 L141.227899,58.9858902 C141.097997,59.3755976 140.924794,59.4621992 140.556737,59.4621992 L140.21033,59.4621992 L140.21033,61.8653946 L141.920712,61.8653946 Z M149.2169,55.586776 L145.319827,55.586776 L146.640502,51.7330033 C146.921957,50.8886374 147.246713,49.43806 147.246713,49.43806 L147.290014,49.43806 C147.290014,49.43806 147.61477,50.8886374 147.896225,51.7330033 L149.2169,55.586776 Z M162.640154,61.8653946 L162.640154,55.1537679 L166.277422,49.4164096 C166.558878,48.9834014 166.68878,48.8967997 167.165089,48.8967997 L167.663048,48.8967997 L167.663048,46.4936044 L166.212471,46.4936044 C165.216552,46.4936044 164.761894,46.6451572 164.198983,47.6194256 L162.185495,50.9968894 C161.644235,51.9062066 161.254527,52.7289221 161.254527,52.7289221 L161.211227,52.7289221 C161.211227,52.7289221 160.821519,51.8845562 160.280259,50.9968894 L158.245121,47.6194256 C157.66056,46.6451572 157.227551,46.4936044 156.231633,46.4936044 L154.781055,46.4936044 L154.781055,48.8967997 L155.279015,48.8967997 C155.755324,48.8967997 155.885226,48.9834014 156.166681,49.4164096 L159.80395,55.1537679 L159.80395,61.8653946 L162.640154,61.8653946 Z M173.855065,62.1251995 C177.080976,62.1251995 178.964562,60.0467602 178.964562,57.6002641 C178.964562,52.5557188 171.733325,53.0753286 171.733325,50.4556292 C171.733325,49.4813608 172.685943,48.8101981 173.984968,48.8101981 C175.002537,48.8101981 176.020106,49.2865071 176.020106,50.0009706 L176.020106,50.6937837 L178.574854,50.6937837 L178.574854,49.2648567 C178.574854,47.0781654 175.803602,46.2337995 174.006618,46.2337995 C171.040512,46.2337995 168.875471,48.0740842 168.875471,50.5638812 C168.875471,55.3486215 176.106708,55.1321175 176.106708,57.7518169 C176.106708,58.9425894 175.067488,59.5704512 173.898366,59.5704512 C171.754976,59.5704512 170.174496,57.7518169 170.174496,57.7518169 L168.572366,59.7436545 C168.572366,59.7436545 170.455951,62.1251995 173.855065,62.1251995 Z" id="DAYS"></path>
                    </g>
                </g>
            </g>
        </g>
    </g>
</svg>