<?xml version="1.0" encoding="UTF-8"?>
<svg width="238px" height="330px" viewBox="0 0 238 330" version="1.1" xmlns="http://www.w3.org/2000/svg" xmlns:xlink="http://www.w3.org/1999/xlink">
    <!-- Generator: Sketch 61.2 (89653) - https://sketch.com -->
    <title>Fill 1</title>
    <desc>Created with Sketch.</desc>
    <g id="Symbols" stroke="none" stroke-width="1" fill="none" fill-rule="evenodd" opacity="0.280761719">
        <g id="FOOTER" transform="translate(-1204.000000, -16.000000)" fill="#FFFFFF">
            <g id="Fill-1">
                <path d="M1996.84289,496 C1995.95084,494.612078 1994.60852,493.550558 1993,493.008446 L2024.73148,376.283898 C2025.01183,376.343502 2025.28936,376.408783 2025.58388,376.428651 C2028.19206,376.598948 2030.53121,375.176966 2031.67814,373 L2126.68283,415.398329 C2126.38548,416.164667 2126.16459,416.967902 2126.10795,417.833579 C2126.006,419.363416 2126.35716,420.805266 2127,422.082495 L1996.84289,496 Z M1997,594.17012 C1994.78846,594.418901 1992.81631,595.459256 1991.3486,597 L1954.22262,565.280468 C1954.975,564.299481 1955.45664,563.097984 1955.54498,561.774923 C1955.69318,559.524589 1954.67006,557.466495 1953,556.183013 L1987.11931,506 C1988.09398,506.576719 1989.19975,506.961198 1990.41097,507.043182 C1990.60477,507.054491 1990.78716,507.023393 1990.97811,507.023393 L1997,594.17012 Z M2031.93806,621.362506 C2031.72407,621.873318 2031.5692,622.412196 2031.5326,622.993175 C2031.47347,623.863239 2031.66212,624.682784 2032,625.423742 L1984.2183,652 C1983.44681,650.79033 1982.33181,649.816419 1981,649.215794 L1995.39927,612.05843 C1996.13416,612.302609 1996.88875,612.487848 1997.69685,612.541175 C2001.28399,612.774128 2004.48821,610.896473 2006.18324,608 L2031.93806,621.362506 Z M1919.90462,855 C1919.63757,854.946323 1919.37619,854.884171 1919.10062,854.86722 C1918.61197,854.836144 1918.1432,854.884171 1917.68296,854.966099 L1889.8185,747.908771 L1879,706.323235 C1883.574,704.97001 1887.05422,700.938587 1887.38093,695.924026 C1887.48321,694.353268 1887.26161,692.841838 1886.78432,691.437761 L1964.73833,662.200756 L1970.61351,660 C1971.44876,661.867394 1973.01699,663.333623 1975,664.022949 L1919.90462,855 Z M1815.37268,835.856431 C1815.40946,835.619235 1815.47454,835.393334 1815.48868,835.147666 C1815.66411,832.4425 1814.2211,830.019711 1812,828.774431 L1871.28213,706 C1872.49596,706.530868 1873.80032,706.903604 1875.20089,706.993965 C1876.33266,707.067383 1877.41633,706.929018 1878.47171,706.69747 L1886.16774,736.380876 L1917,855.266984 C1915.27122,855.851503 1913.90744,857.235148 1913.35004,859 L1815.37268,835.856431 Z M1745,786.580392 C1745.23775,786.157391 1745.4104,785.694911 1745.44436,785.17603 C1745.48115,784.558449 1745.30567,784.000088 1745.04529,783.486847 L1867.01492,702 C1868.06213,703.441022 1869.4037,704.650804 1871,705.491165 L1811.70488,828.088037 C1811.03976,827.817317 1810.33784,827.619916 1809.58215,827.569156 C1807.32638,827.425336 1805.26875,828.398237 1803.91868,830 L1745,786.580392 Z M1706.68375,757.77782 C1707.4589,756.624517 1707.97282,755.278997 1708.0722,753.794968 C1708.25392,751.027608 1707.02163,748.497692 1705,746.883633 L1714.75608,733.377556 L1744.65468,692 C1745.35316,692.429662 1746.14251,692.717987 1747,692.831056 L1746.6252,698.990483 L1741.62507,781.007821 C1740.77042,781.064355 1740.01514,781.414869 1739.44727,782 L1706.68375,757.77782 Z M1647.66264,846 C1647.27429,845.833365 1646.85475,845.714743 1646.40687,845.6865 C1645.96466,845.655433 1645.53662,845.717568 1645.13409,845.833365 L1587,701.473728 C1589.09768,700.536053 1590.84669,698.979851 1592.00892,697 L1692.9697,750.580237 C1692.5445,751.475548 1692.2667,752.458412 1692.19583,753.506236 C1691.99456,756.590397 1693.55932,759.352585 1696,760.905963 L1647.66264,846 Z M1593.81729,872 C1592.60657,869.61005 1590.23038,867.889626 1587.35916,867.700351 C1587.26581,867.697526 1587.17529,867.714476 1587.07628,867.711651 L1585.34507,797.513236 L1583,702.573475 C1584.04099,702.5085 1585.05653,702.339 1586.007,702 L1644,846.349004 C1642.87414,846.953554 1642.07077,848.097679 1641.98307,849.462153 C1641.94913,849.948053 1642.01985,850.414178 1642.15563,850.852053 L1593.81729,872 Z M1356.06258,790.678948 C1356.33137,789.840528 1356.53508,788.973783 1356.5945,788.050389 C1356.78689,785.087595 1355.77682,782.331573 1354,780.229858 L1398.37239,739.594825 C1400.28219,741.537919 1402.85122,742.840869 1405.78523,743.036311 C1409.54541,743.279906 1412.97173,741.659717 1415.24651,739 L1581,870.535598 C1580.67746,870.99163 1580.4115,871.47882 1580.19081,872 L1356.06258,790.678948 Z M1327,764.890938 C1328.59874,763.467947 1329.66645,761.444765 1329.81616,759.139801 C1329.87547,758.212744 1329.74554,757.325136 1329.52522,756.471342 L1394.92107,736 C1395.38996,737.318732 1396.10459,738.524752 1397,739.575793 L1352.70414,780 C1350.87943,778.154339 1348.42765,776.917323 1345.63409,776.736984 C1342.91962,776.559462 1340.39722,777.42171 1338.37761,778.929235 L1327,764.890938 Z M1061.44993,740.061705 C1061.62255,739.505726 1061.75272,738.92989 1061.79234,738.320014 C1061.88289,736.947085 1061.57162,735.656417 1061,734.510418 L1207.03352,651 C1208.71724,653.68629 1211.59795,655.566976 1214.99652,655.79107 C1215.92185,655.847802 1216.8104,655.742847 1217.67632,655.569813 L1256,811.854001 C1255.45385,812.086605 1255.00392,812.483733 1254.70962,813 L1061.44993,740.061705 Z M994.127623,712.997287 C994.388542,712.25594 994.589904,711.486298 994.643789,710.662894 C994.731707,709.307531 994.479297,708.017249 994,706.83449 L1029.77425,690.43149 L1091.78786,662 C1092.30686,662.953564 1093.0726,663.745843 1094,664.323075 L1084.09359,682.822784 L1058.05842,731.443234 C1057.24447,731.064072 1056.35394,730.812241 1055.40386,730.74999 C1052.25865,730.546261 1049.4481,732.3204 1048.16903,735 L994.127623,712.997287 Z M890.475285,766 C889.842271,765.073326 889.004875,764.296847 888,763.761247 L937.920148,654.51293 C938.385683,654.682961 938.873928,654.813319 939.393397,654.847326 C940.582783,654.92384 941.695526,654.595112 942.626597,654 L980,703.21006 C978.223018,704.695005 977.025116,706.862912 976.860475,709.353879 C976.749769,711.045696 977.150015,712.641162 977.893737,714.032589 L890.475285,766 Z M956.787079,541.397408 C958.105971,541.465025 959.305992,540.910006 960.123932,540 L991.771676,562.86847 C991.330158,563.581261 991.035813,564.395476 990.976378,565.288578 C990.857508,567.105772 991.669787,568.765194 993,569.816067 L979.757307,589.489656 L942.389648,645 C941.959451,644.757707 941.495292,644.574579 941,644.459068 L956.787079,541.397408 Z M919,509.758059 C919.623345,508.759086 920.042686,507.617001 920.124854,506.362672 C920.144688,506.042776 920.110687,505.734104 920.090854,505.419821 L1025.63449,493 C1025.71383,493.364794 1025.83566,493.712751 1026,494.038259 L960.537443,534 C959.82343,533.079598 958.741076,532.442612 957.477386,532.361235 C956.103194,532.274245 954.848003,532.860721 954.012154,533.826021 L919,509.758059 Z M1006.59095,458 C1007.54665,459.583389 1009.23186,460.690635 1011.22243,460.817419 C1012.12158,460.879402 1012.98115,460.713174 1013.76437,460.400441 L1027,487.568812 C1025.78134,488.304159 1024.92743,489.597354 1024.82846,491.124395 C1024.81715,491.262449 1024.83977,491.39205 1024.83977,491.530104 L919.528746,504 C919.424128,503.405525 919.237512,502.839223 919,502.301096 L1006.59095,458 Z M1066.7202,448 C1066.92644,448.948818 1067.36434,449.818567 1068,450.518885 L1032.5838,488 C1031.89163,487.457819 1031.03843,487.110484 1030.09483,487.048359 C1029.43374,487.003177 1028.80091,487.116131 1028.2161,487.333569 L1015,460.11719 C1016.63577,459.171197 1017.78278,457.459936 1017.91557,455.435228 C1017.93252,455.178256 1017.90426,454.93258 1017.88731,454.681257 L1066.7202,448 Z M1162.60777,420 C1163.24541,421.769329 1164.44983,423.258844 1166,424.301787 L1152.10517,447.141958 C1151.51288,446.848012 1150.85541,446.66147 1150.15542,446.619074 C1147.46601,446.44101 1145.15351,448.38275 1144.78226,451 L1114.99468,449.31829 L1077.12753,447.181528 C1077.11903,446.811269 1077.07935,446.455142 1077,446.107495 L1162.60777,420 Z M1214,271.222048 C1215.36518,270.813917 1216.56077,270.040168 1217.49915,269 L1244.00565,290.506255 L1314,347.301701 C1313.13228,348.497752 1312.56416,349.937549 1312.46241,351.524726 C1312.4511,351.711787 1312.47937,351.890344 1312.48219,352.077404 L1293.0814,353.154418 L1241.80667,356 C1241.39966,352.224785 1238.35557,349.166634 1234.44375,348.911552 C1233.77671,348.866204 1233.13228,348.934226 1232.50198,349.05043 L1214,271.222048 Z M1331.58329,28.6442578 C1334.20969,28.8029502 1336.54458,27.2812033 1337.58729,25 L1355.95809,32.1071528 C1355.75627,32.7277535 1355.60491,33.3738583 1355.56287,34.0568024 C1355.34423,37.4148471 1357.1914,40.4186676 1360,41.8185613 L1348.03123,69.9921312 L1319.56127,137 C1319.05953,136.81297 1318.54098,136.67128 1318,136.574931 L1331.58329,28.6442578 Z M1515.22798,15 C1515.58438,16.8642821 1516.57439,18.5110647 1518,19.6833027 L1396.78921,184 C1395.56726,183.18932 1394.14731,182.641334 1392.57461,182.539646 C1392.0089,182.50575 1391.45166,182.531172 1390.90857,182.601788 L1366,42.93881 C1369.36319,42.1563764 1371.98247,39.2893365 1372.21724,35.665285 C1372.2427,35.2641818 1372.20876,34.8715527 1372.17481,34.4760989 L1515.22798,15 Z M1994.93546,53.0499204 C1994.88464,53.3069923 1994.81969,53.5612392 1994.80275,53.8324359 C1994.70109,55.400292 1995.16983,56.8579744 1996,58.0557599 L1876.91859,152 C1875.49827,150.369995 1873.4539,149.285208 1871.12999,149.13266 C1869.73508,149.042261 1868.41641,149.330407 1867.22198,149.855851 L1805.85433,26.8568368 L1795,5.10742454 C1795.7737,4.61870545 1796.36667,3.88138935 1796.6914,3 L1994.93546,53.0499204 Z M2087,133.649634 C2086.19803,134.640095 2085.67377,135.868267 2085.58592,137.237933 C2085.55758,137.673736 2085.57458,138.101049 2085.62843,138.522703 L2039.45969,148 C2038.75691,145.46725 2036.53802,143.520286 2033.76087,143.342003 C2033.06091,143.293895 2032.38929,143.392941 2031.74885,143.559905 L2013.81922,89.794849 L2004,60.3583466 C2004.7878,60.0385692 2005.50193,59.5772973 2006.1112,59 L2087,133.649634 Z M1983.14109,288 C1982.33763,287.739349 1981.5089,287.546695 1980.62959,287.487198 C1980.43013,287.473033 1980.24472,287.509864 1980.04526,287.50703 L1977,185.66915 C1979.36822,185.4 1981.28134,183.464953 1981.43866,180.983106 C1981.49485,180.150157 1981.32348,179.359706 1981.01446,178.642917 L2028.01092,153.10766 L2028.20757,153 C2028.87056,154.065268 2029.83977,154.909549 2031,155.428017 L1983.14109,288 Z M2023,365.067559 C2021.53487,366.154477 2020.51663,367.830142 2020.38935,369.794521 C2020.36672,370.151166 2020.39218,370.499319 2020.42612,370.841812 L1791.3083,409 C1791.23193,408.699965 1791.13011,408.414083 1791,408.142354 L1971.1858,303 C1972.93943,305.748431 1975.90647,307.673182 1979.40808,307.899623 C1981.60577,308.04398 1983.69316,307.503351 1985.46094,306.464552 L2023,365.067559 Z M1748.36296,693.14355 C1751.32789,693.112582 1753.81379,690.925095 1754.19645,688 L1865.26526,694.328791 C1865.21424,696.651412 1865.84067,698.838899 1867,700.694181 L1744.91899,782 C1744.43711,781.448202 1743.75399,781.10755 1743,780.966785 L1746.99104,715.63497 L1748.36296,693.14355 Z M1704.43043,747 C1703.6911,746.518023 1702.88379,746.138716 1702,745.916265 L1712.18062,693.725887 C1712.41006,693.76011 1712.62818,693.825705 1712.86612,693.839964 C1717.54853,694.147973 1721.58225,690.660059 1722.06664,686 L1741.87266,687.10655 C1741.90099,688.903268 1742.70547,690.523166 1744,691.612605 L1741.33162,695.348637 L1704.43043,747 Z M1586,867.392509 C1583.93147,867.556538 1582.0865,868.520913 1580.77068,870 L1415,738.675204 C1416.2564,736.967043 1417.07701,734.905372 1417.22416,732.631594 C1417.28924,731.627625 1417.18171,730.660421 1417.00061,729.715842 L1571.50051,694 C1572.70031,698.403323 1576.54307,701.78288 1581.35643,702.096798 C1581.54602,702.10811 1581.72995,702.074173 1581.91954,702.077001 L1585.15674,833.217971 L1586,867.392509 Z M1257.73546,811.330467 C1257.59675,811.324793 1257.47503,811.373022 1257.33916,811.387207 L1219,655.062503 C1220.42668,654.645463 1221.74296,653.956071 1222.84411,653 L1316,752.187403 C1314.65541,753.58321 1313.75241,755.418753 1313.61937,757.506789 C1313.47501,759.677099 1314.18834,761.69421 1315.4282,763.28577 L1259.26971,812 C1258.8451,811.6397 1258.33274,811.370185 1257.73546,811.330467 L1257.73546,811.330467 Z M993.644416,706 C992.503673,703.815474 990.481962,702.160873 988,701.552024 L999.808378,641.433882 C999.946735,641.450795 1000.0738,641.493076 1000.21498,641.501532 C1003.25319,641.698844 1005.92151,639.770824 1006.81095,637 L1090.70634,657.991176 C1090.66399,658.225132 1090.60469,658.450631 1090.58775,658.693043 C1090.52846,659.623228 1090.68658,660.516769 1091,661.337024 L1017.19623,695.192941 L993.644416,706 Z M1233.50377,364.151562 C1233.92283,364.17965 1234.32782,364.143136 1234.73282,364.106621 L1235,365.943594 C1231.80224,366.592433 1229.29353,369.28329 1229.06854,372.693207 C1228.9701,374.224018 1229.34134,375.676182 1230.06133,376.906449 L1204.90112,393.520665 L1178.42749,411 C1178.28406,410.803382 1178.16031,410.587102 1178,410.404529 L1228.6326,362 C1229.92071,363.213414 1231.59974,364.027974 1233.50377,364.151562 L1233.50377,364.151562 Z M1234.88745,198.129431 C1237.18728,198.279259 1239.22906,196.967555 1240.13651,195 L1296.35905,215.6141 L1307.93194,219.857348 C1307.85537,220.137216 1307.80433,220.428391 1307.78448,220.728048 C1307.74761,221.310399 1307.82985,221.872961 1308,222.4016 L1273.93639,236.813378 L1219.12892,260 C1218.28102,258.284043 1216.82058,256.935589 1215,256.231679 L1217.83296,247.535989 L1233.98283,197.976776 C1234.27776,198.050276 1234.57551,198.106815 1234.88745,198.129431 L1234.88745,198.129431 Z M1316,153.984571 L1312.26779,216.438692 C1310.53387,216.497995 1309.0245,217.503315 1308.30534,219 L1265.12773,203.219858 L1240.35816,194.16915 C1240.46049,193.813334 1240.52586,193.443399 1240.55145,193.064991 C1240.61398,192.099206 1240.39795,191.189899 1240,190.376606 L1309.46509,150 C1310.88918,152.171605 1313.23424,153.688058 1316,153.984571 L1316,153.984571 Z M1546.77461,-0.655113203 C1548.07996,-0.573348597 1549.27794,-1.07521411 1550.1397,-1.9266938 L1674.94765,101.705715 L1710,130.811096 C1709.95479,130.870304 1709.92371,130.940791 1709.88133,131 L1530.45772,17.5079072 C1531.02846,16.4985373 1531.41272,15.3622912 1531.49183,14.1245442 C1531.61615,12.2157636 1531.03128,10.4423175 1530,8.99874926 L1543.90962,-2 C1544.64141,-1.23874332 1545.63878,-0.728419401 1546.77461,-0.655113203 L1546.77461,-0.655113203 Z M1790,4.4851879 L1719.80852,128.185491 C1718.84416,127.705014 1717.77234,127.39977 1716.62982,127.326285 C1714.0337,127.156705 1711.66665,128.227887 1710.02922,130 L1550,-3.08091699 C1550.38178,-3.63770543 1550.6363,-4.28776301 1550.72397,-5 L1788.25228,1.37904323 C1788.34844,2.65372134 1789.00454,3.77577724 1790,4.4851879 L1790,4.4851879 Z M1867,150.228812 C1864.88878,151.421581 1863.3585,153.506802 1862.88241,156 L1724.8172,136.734375 C1724.82286,136.669212 1724.8427,136.612549 1724.84837,136.547385 C1725.05241,133.419555 1723.46828,130.611873 1721,129.036625 L1791.35602,5 C1791.7981,5.19265625 1792.26852,5.32864889 1792.77294,5.35981387 C1793.39356,5.39947839 1793.98866,5.29465073 1794.53276,5.08782858 L1813.68393,43.4434208 L1867,150.228812 Z M1979.8192,177 C1979.16774,176.009383 1978.18344,175.250193 1977,174.908698 L2000.50943,60.1552248 C2000.66874,60.177803 2000.82236,60.2257816 2000.9902,60.2370706 C2001.73554,60.2822269 2002.45527,60.177803 2003.14372,60 L2031,142.980365 C2028.80666,143.86938 2027.19366,145.915525 2027.02866,148.418878 C2026.95754,149.499807 2027.19081,150.527113 2027.61469,151.449995 L2018.5796,156.278898 L1979.8192,177 Z M1993.11202,492.349114 C1992.7677,492.278386 1992.42623,492.196341 1992.06484,492.176537 C1989.5237,492.009619 1987.19599,493.141267 1985.73619,495 L1946.95613,468.344021 C1947.49395,467.450019 1947.86103,466.440023 1947.93502,465.331007 C1948.06307,463.347793 1947.2976,461.531498 1946,460.215956 L2023.10482,375 C2023.66256,375.435685 2024.30567,375.763863 2025,376.001509 L2010.0036,430.711052 L1993.11202,492.349114 Z M1883,685.093698 L1917.00387,635.214376 C1918.23919,635.96854 1919.65341,636.47979 1921.20111,636.581475 C1924.81903,636.815915 1928.05641,634.920619 1929.75745,632 L1971,653.257816 C1970.64218,654.054349 1970.39512,654.910198 1970.33264,655.831012 C1970.27017,656.782897 1970.40932,657.700886 1970.6791,658.556735 L1886.86782,690 C1886.0386,688.042564 1884.7124,686.342164 1883,685.093698 L1883,685.093698 Z M1329.12574,755 C1328.26054,752.678975 1326.38499,750.845845 1324,749.999785 L1347.34049,673.989747 L1358.6251,637.236897 C1358.96662,637.318683 1359.311,637.389188 1359.67245,637.411749 C1360.62587,637.473794 1361.53661,637.315862 1362.3762,637 L1364.3542,641.317727 L1401,721.273225 C1397.44528,723.03585 1394.88098,726.524438 1394.60207,730.740637 C1394.51669,732.04921 1394.70453,733.304199 1395.03467,734.499964 L1333.64528,753.59554 L1329.12574,755 Z M995.493327,570.687461 C995.572002,570.69312 995.645058,570.678974 995.723733,570.678974 L999,628.284284 C995.970998,628.654891 993.534872,631.141634 993.326944,634.318668 C993.293226,634.861848 993.343803,635.379565 993.433718,635.891625 L944.739288,648 C944.413347,647.007 943.803613,646.138479 943,645.496282 L993.245459,570 C993.91701,570.381923 994.672855,570.636538 995.493327,570.687461 L995.493327,570.687461 Z M1145,452.872338 L1041.12328,487.530074 L1033.7215,490 C1033.53476,489.583657 1033.30275,489.187006 1033,488.846618 L1068.46686,451.505157 C1069.31851,452.188747 1070.37389,452.636035 1071.5481,452.709176 C1074.43977,452.900469 1076.92967,450.813128 1077.31164,448 L1144.85853,451.800536 C1144.86985,452.169056 1144.91512,452.526323 1145,452.872338 L1145,452.872338 Z M1313,352.756663 L1283.19,360.636887 L1243.98487,371 C1243.07949,368.120079 1240.53821,365.94791 1237.39897,365.737886 C1237.01256,365.711993 1236.64026,365.746517 1236.26513,365.781042 L1236,363.899455 C1239.42974,363.200333 1242.12333,360.257117 1242.36308,356.525591 C1242.37436,356.344337 1242.34333,356.16596 1242.34333,355.984706 L1312.87026,352 C1312.89846,352.258934 1312.94923,352.50636 1313,352.756663 L1313,352.756663 Z M1219.46262,263.772542 C1219.53646,262.673949 1219.36606,261.623489 1219.01389,260.65231 L1307.99516,223 C1308.71653,224.333602 1310.07974,225.28213 1311.70425,225.386893 C1311.76957,225.392555 1311.82637,225.378398 1311.88885,225.38123 L1320,343.363942 C1318.01765,343.601782 1316.25399,344.575792 1314.96745,346 L1218,267.773348 C1218.82361,266.637946 1219.36606,265.273198 1219.46262,263.772542 L1219.46262,263.772542 Z M1363.3735,42.5151652 C1363.89497,42.5491322 1364.40505,42.5208264 1364.90372,42.4613842 L1390,182.416488 C1387.82292,182.911839 1385.95359,184.199752 1384.72827,186 L1323.94097,149.346844 C1324.54793,148.242919 1324.94688,147.008787 1325.03521,145.672754 C1325.28028,141.944882 1323.18013,138.616123 1320,137.076288 L1361.10808,42 C1361.82333,42.2632438 1362.57277,42.4642148 1363.3735,42.5151652 L1363.3735,42.5151652 Z M1789.70913,407 C1788.89406,405.848752 1787.59788,405.047394 1786.07529,404.945813 C1784.96307,404.875271 1783.92443,405.196943 1783.06691,405.772567 L1727,336.297035 C1728.53391,334.931339 1729.55557,332.99002 1729.69991,330.78064 C1729.72821,330.396891 1729.68859,330.018785 1729.66028,329.643501 L1968.90759,299 C1969.10003,300.131496 1969.47643,301.200914 1970,302.182861 L1833.46232,381.562508 L1789.70913,407 Z M2020.36156,372 C2020.63039,373.147773 2021.19917,374.182186 2022,375.006883 L1945.32448,460.37004 C1944.29444,459.548178 1943.01256,459.015385 1941.59767,458.924696 C1938.67734,458.731984 1936.09942,460.455061 1935.01279,463 L1791,411.80081 C1791.07357,411.506073 1791.13017,411.208502 1791.14998,410.896761 C1791.16413,410.661538 1791.14432,410.431984 1791.12451,410.199595 L1888.51397,393.972065 L2020.36156,372 Z M1949.96786,555.095764 C1949.76816,555.081547 1949.57988,555.112825 1949.38589,555.115669 L1948.18486,541.500948 L1942,471.48807 C1943.72309,471.226468 1945.24933,470.319388 1946.29631,469 L1985.18277,495.797228 C1984.57512,496.783926 1984.16432,497.912799 1984.08444,499.149725 C1983.91328,501.725945 1985.08577,504.074683 1987,505.524873 L1952.84918,556 C1951.99334,555.502386 1951.02339,555.166852 1949.96786,555.095764 L1949.96786,555.095764 Z M1989.05776,602.632913 C1988.99283,603.652136 1989.13398,604.629126 1989.38241,605.563883 L1930.68621,624 C1929.85907,621.753204 1928.17655,619.91466 1926,618.884175 L1947.48882,567.593592 C1948.02801,567.776602 1948.58415,567.917379 1949.17698,567.953981 C1951.15027,568.083495 1952.95418,567.303592 1954.23865,566 L1991,597.579029 C1989.8962,598.983981 1989.1848,600.71835 1989.05776,602.632913 L1989.05776,602.632913 Z M1977.79155,649.319208 C1974.88732,649.129651 1972.29014,650.648933 1970.90141,653 L1930,631.704594 C1930.45634,630.711544 1930.76338,629.625131 1930.84225,628.465158 C1930.90704,627.443816 1930.76338,626.462083 1930.51549,625.522787 L1989.08451,607 C1989.93803,609.334092 1991.71831,611.22117 1994,612.234024 L1979.59437,649.687004 C1979.0169,649.500277 1978.42254,649.361646 1977.79155,649.319208 L1977.79155,649.319208 Z M1721.79897,685.901066 C1721.82708,681.326895 1718.34463,677.457968 1713.75478,677.154911 C1712.27636,677.055781 1710.88225,677.375831 1709.62306,677.956453 L1678,616.251878 C1678.62959,615.892176 1679.22546,615.475827 1679.77354,615 L1743,683.694701 C1742.17366,684.581212 1741.61995,685.716966 1741.45693,687 L1735.08791,686.645962 L1721.79897,685.901066 Z M1593.8597,693 L1623.57717,697.492249 L1651.76127,701.756936 C1651.74717,701.87774 1651.70771,701.990117 1651.69926,702.113731 C1651.36947,707.148196 1655.19725,711.494356 1660.24835,711.823057 C1662.43283,711.966337 1664.46229,711.297697 1666.11968,710.126173 L1669.09622,713.930116 L1695,747.027793 C1694.35452,747.586866 1693.82179,748.261125 1693.37643,749 L1593,695.711082 C1593.40871,694.871068 1593.67649,693.949581 1593.8597,693 L1593.8597,693 Z M1417.60819,729 C1416.68638,725.603554 1414.25178,722.827206 1411,721.46299 L1432.30342,665.293382 C1432.89722,665.479412 1433.51082,665.623162 1434.16118,665.665441 C1437.9191,665.910662 1441.22461,663.46973 1442.21146,660 L1467.06922,665.620343 L1572,689.353186 C1571.92365,689.778799 1571.8162,690.198775 1571.7851,690.641299 C1571.72289,691.593995 1571.82469,692.510049 1571.99434,693.406373 L1507.43373,708.291544 L1417.60819,729 Z M1323.60819,750.234377 C1323.12189,750.109678 1322.62145,750.016154 1322.10122,749.979311 C1319.80824,749.829106 1317.67643,750.616976 1316.05353,752 L1223,652.909735 C1224.64551,651.223466 1225.75101,648.995891 1225.91782,646.462236 C1225.94609,646.022956 1225.89803,645.603514 1225.87258,645.178404 L1353.93145,632 C1354.31597,634.25875 1355.87666,636.126399 1358,636.92844 L1331.88665,722.964999 L1323.60819,750.234377 Z M1006.46886,635.784762 C1006.51123,635.536914 1006.57337,635.297612 1006.59032,635.041217 C1006.66375,633.924476 1006.4265,632.870409 1006,631.918899 L1046.73476,610 C1047.83349,611.789065 1049.72872,613.039702 1051.96854,613.187841 C1053.60956,613.296096 1055.13479,612.771912 1056.36344,611.85174 L1091.91527,654.29646 L1092,654.396169 C1091.26846,655.108377 1090.70921,655.997212 1090.38722,657 L1032.23102,642.300036 L1006.46886,635.784762 Z M1144.94193,454 C1145.51001,455.314028 1146.60945,456.343256 1148,456.805703 L1121.16978,566.831572 C1120.84758,566.769536 1120.53385,566.690582 1120.19752,566.668023 C1117.79233,566.512934 1115.58215,567.440649 1113.9881,569 L1033,494.968909 C1033.52004,494.283697 1033.85355,493.451855 1033.9129,492.535419 C1033.94399,492.078611 1033.88181,491.641542 1033.78289,491.218571 L1093.34186,471.276929 L1144.94193,454 Z M1170.55623,425.143572 C1172.97543,425.302355 1175.2271,424.471579 1176.92508,423 L1257,506.854493 C1256.67063,507.206084 1256.37816,507.58603 1256.12261,508 L1154.67243,453.16312 C1154.90526,452.630062 1155.06995,452.060144 1155.1097,451.45053 C1155.22896,449.630195 1154.37429,447.985656 1153,446.984755 L1166.91891,424.071786 C1168.01209,424.667223 1169.23305,425.05851 1170.55623,425.143572 L1170.55623,425.143572 Z M1236.43561,380.96905 C1238.73111,381.117083 1240.82564,380.200951 1242.29748,378.67872 L1269,401.129539 C1268.19332,402.185325 1267.66969,403.472937 1267.57628,404.891825 C1267.5593,405.159961 1267.59326,405.419718 1267.60459,405.682268 L1191.60402,413.779422 L1180.12652,415 C1179.9482,413.888352 1179.56609,412.838152 1179,411.899675 L1230.96151,378 C1232.22389,379.670265 1234.16558,380.821016 1236.43561,380.96905 L1236.43561,380.96905 Z M1313.14871,354 C1313.77887,356.017722 1315.16579,357.705323 1317,358.707069 L1299.69032,395.825755 C1299.27677,395.672078 1298.84635,395.555397 1298.38499,395.524093 C1296.50013,395.398875 1294.81221,396.426234 1293.96262,398 L1244,376.086799 C1244.23912,375.426557 1244.42479,374.737857 1244.46981,373.99793 C1244.51482,373.326305 1244.43886,372.677446 1244.31508,372.042817 L1274.41643,364.154065 L1313.14871,354 Z M1315.74152,153.91682 C1318.84806,153.953611 1321.6186,152.414052 1323.26157,150 L1384,186.64661 C1383.41628,187.716378 1383.02903,188.913498 1382.94361,190.209671 C1382.86957,191.33887 1383.03188,192.428448 1383.36502,193.441614 L1315.40267,219 C1314.762,217.698167 1313.51768,216.747262 1312,216.515196 L1313.66574,188.667282 L1315.74152,153.91682 Z M1522,21.2683441 L1510.38996,217.127227 C1505.14205,217.00576 1500.58309,220.271252 1498.86781,225 L1399.91456,193.277273 C1400.05915,192.732083 1400.15838,192.172769 1400.19808,191.590856 C1400.38803,188.686941 1399.1037,186.034435 1397,184.322594 L1518.49289,20 C1519.51922,20.6751319 1520.70433,21.1214535 1522,21.2683441 L1522,21.2683441 Z M1709,131.706215 C1708.40431,132.757062 1708.00624,133.937853 1707.92437,135.223164 C1707.83402,136.629944 1708.13046,137.960452 1708.67533,139.161017 L1639.22782,175 C1638.21147,173.324859 1636.43287,172.152542 1634.3296,172.014124 C1633.05352,171.929379 1631.84802,172.240113 1630.81755,172.836158 L1528,19.7485876 C1528.66063,19.2570621 1529.2422,18.6751412 1529.71932,18 L1664.55461,103.516949 L1709,131.706215 Z M1973.58865,289 L1876,163.190801 C1877.25641,162.109029 1878.19801,160.663827 1878.64895,159 L1966.0502,178.142533 L1971.20062,179.272572 C1971.18644,179.386144 1971.15241,179.491198 1971.14674,179.60477 C1970.96239,182.398637 1973.07815,184.812039 1975.8689,184.996593 C1975.89159,184.996593 1975.90861,184.993754 1975.92846,184.993754 L1979,287.052243 C1976.99485,287.194208 1975.14853,287.886996 1973.58865,289 L1973.58865,289 Z M1754,685.90967 L1807.49098,664 C1808.91947,667.066904 1811.90043,669.304535 1815.52097,669.540667 C1819.04571,669.768366 1822.21544,668.045165 1824.05811,665.318403 C1825.11187,666.67054 1826.69533,667.598201 1828.538,667.7247 L1866,689.592204 C1865.28153,690.921852 1864.81945,692.408921 1864.6673,694 L1754.27612,687.68066 C1754.26767,687.06503 1754.18314,686.471889 1754,685.90967 L1754,685.90967 Z M1700.32424,745.540291 C1699.19061,745.46651 1698.09896,745.633935 1697.08849,746 L1680,704.152258 C1682.95865,702.744753 1685.11395,699.827585 1685.34068,696.283282 C1685.39946,695.346837 1685.2819,694.45012 1685.08316,693.576105 L1704.90077,688 C1705.81607,690.80366 1708.10014,692.988698 1711,693.715152 L1700.94005,745.645286 C1700.73571,745.614071 1700.53977,745.554479 1700.32424,745.540291 L1700.32424,745.540291 Z M1442.187,658.673113 C1442.23504,658.405558 1442.30287,658.149268 1442.32266,657.873263 C1442.43853,656.093316 1441.92416,654.431656 1441,653.05445 L1474.34621,628.253474 C1475.01602,628.971649 1475.94301,629.453248 1477.00283,629.520841 C1478.36788,629.610965 1479.61705,629.002629 1480.39991,628 L1573,685.423019 C1572.53368,686.228502 1572.14649,687.079046 1571.90061,688 L1522.77862,676.895043 L1442.187,658.673113 Z M1365.86388,633 L1426.62748,654.707424 C1426.46269,655.26133 1426.34336,655.83796 1426.30643,656.440155 C1426.08198,659.831762 1428.05941,662.837056 1431,664.138025 L1409.5948,720.73867 C1408.66575,720.429051 1407.7026,720.187605 1406.67694,720.119432 C1404.85861,720.00297 1403.13404,720.352356 1401.55436,721 L1363,636.118915 C1364.27283,635.437185 1365.28144,634.343577 1365.86388,633 L1365.86388,633 Z M1102.99856,657 C1102.50505,654.241173 1100.16514,652.054196 1097.19558,651.864509 C1096.71909,651.833825 1096.25678,651.867299 1095.80298,651.934247 L1090,626.731011 C1092.27751,626.075476 1094.09555,624.301347 1094.71386,622 L1206,643.892086 C1205.95178,644.190563 1205.86953,644.480673 1205.84968,644.790308 C1205.81848,645.23663 1205.8667,645.666215 1205.89506,646.104168 L1160.20015,650.941181 L1102.99856,657 Z M1057,611.986189 C1057.60009,611.423529 1058.09445,610.753964 1058.44879,610 L1081.47225,618.83376 C1081.3008,619.351407 1081.17506,619.89156 1081.13506,620.459847 C1080.88645,624.215601 1083.77831,627.459335 1087.59031,627.704092 C1088.12468,627.737852 1088.64476,627.698465 1089.15055,627.61688 L1095,653.037852 C1094.28846,653.246036 1093.6398,653.575192 1093.05399,654 L1076.09716,634.239386 L1057,611.986189 Z M1862,157.547303 L1678.83325,177 C1678.69437,176.354609 1678.41095,175.760395 1678,175.268534 L1710.35772,141.688322 C1711.68411,142.848319 1713.36194,143.624494 1715.25517,143.749591 C1719.48092,144.022532 1723.137,141.065676 1723.91072,137 L1861.99717,156.330443 C1861.9915,156.401521 1861.96882,156.461227 1861.96316,156.529462 C1861.94048,156.876324 1861.98016,157.20897 1862,157.547303 L1862,157.547303 Z M1730.39082,329 C1730.07996,327.28325 1729.22367,325.761329 1728,324.592357 L1832.91926,202.324748 L1865.80014,164 C1867.08315,164.993908 1868.66856,165.629218 1870.40657,165.744986 C1872.39609,165.874872 1874.24715,165.273444 1875.75907,164.214594 L1973,289.328393 C1970.872,291.121381 1969.4392,293.727565 1969.2442,296.720583 C1969.20747,297.271186 1969.25551,297.802023 1969.30072,298.338507 L1884.6639,309.19808 L1730.39082,329 Z M1942.8258,560 L1799.83417,521.724268 L1743,506.508875 C1743.09048,506.091198 1743.18378,505.673521 1743.21206,505.238795 C1743.25164,504.625065 1743.22619,504.025542 1743.14703,503.440225 L1934.04663,467 C1934.74783,469.747579 1937.10874,471.867221 1940.08037,472.060432 C1940.28394,472.074639 1940.48186,472.046225 1940.68261,472.040543 L1948,555.610125 C1945.5882,555.9795 1943.59769,557.692829 1942.8258,560 L1942.8258,560 Z M1924.48631,618.798255 C1923.68657,618.504362 1922.84728,618.281116 1921.95146,618.224598 C1918.69035,618.012655 1915.73445,619.541467 1913.94282,622 L1742,508.785969 C1742.33346,508.226441 1742.60757,507.633002 1742.81104,507 L1785.49084,518.371422 L1942.52412,560.203219 C1942.46761,560.480157 1942.40261,560.751444 1942.38283,561.039685 C1942.2048,563.749724 1943.70818,566.179998 1946,567.316009 L1935.09197,593.418848 L1924.48631,618.798255 Z M1876.79905,683.416054 C1872.76636,683.148087 1869.07795,684.992498 1866.78363,688 L1834,664.424606 C1834.51926,663.575094 1834.86919,662.605851 1834.93692,661.542536 C1834.98489,660.7985 1834.88048,660.085821 1834.68576,659.407352 L1857.3552,651.188747 L1913.03404,631 C1913.66617,632.547937 1914.67929,633.896324 1916,634.894074 L1882.20608,685.234809 C1880.62009,684.225656 1878.79988,683.547187 1876.79905,683.416054 L1876.79905,683.416054 Z M1670.18263,703.017466 C1670.20514,702.668784 1670.16293,702.33725 1670.14886,702 C1671.68812,703.531915 1673.71982,704.563671 1676.03855,704.715148 C1677.36676,704.806605 1678.6415,704.59511 1679.81775,704.163544 L1696.31339,744.62496 L1697,746.308352 C1696.58916,746.508415 1696.20083,746.737059 1695.83219,747 L1667,709.459511 C1668.80377,707.890441 1670.0166,705.615433 1670.18263,703.017466 L1670.18263,703.017466 Z M1593.05385,690.426188 L1677.63724,685 C1677.69959,685.438157 1677.83279,685.844396 1678,686.239028 C1677.52104,686.128763 1677.03641,686.0214 1676.52911,685.98658 C1671.3569,685.641277 1666.88754,689.657236 1666.55028,694.955749 C1666.52477,695.338774 1666.56728,695.707291 1666.58712,696.078709 C1665.07372,694.581429 1663.08136,693.571636 1660.81408,693.420747 C1656.14917,693.107363 1652.10776,696.426913 1651.21786,701 L1593,691.955386 C1593.01984,691.775481 1593.07652,691.610083 1593.08786,691.430178 C1593.11053,691.090678 1593.06235,690.762786 1593.05385,690.426188 L1593.05385,690.426188 Z M1000.3077,569 L1003.17438,571.094082 L1047,603.097614 C1046.40631,604.012722 1046.00769,605.070992 1045.93136,606.235931 C1045.85503,607.367184 1046.09816,608.436682 1046.54201,609.399511 L1005.76682,631 C1004.69535,629.284873 1002.84926,628.089057 1000.66957,627.945896 C1000.54235,627.937475 1000.42078,627.962738 1000.29357,627.959931 L997,570.799339 C998.311772,570.6253 999.470881,569.960022 1000.3077,569 L1000.3077,569 Z M1273,412.800227 L1262.29136,505.260499 C1260.32858,505.146992 1258.50215,505.819523 1257.11315,507 L1177,423.069807 C1178.38332,421.622588 1179.315,419.727015 1179.45418,417.570375 C1179.47975,417.1958 1179.43714,416.835414 1179.41726,416.469353 L1267.21676,407 C1267.71101,409.937003 1270.00897,412.275255 1273,412.800227 L1273,412.800227 Z M1317.47169,358.625696 C1318.2634,358.948357 1319.10336,359.186108 1320.00291,359.245546 C1323.2691,359.457823 1326.1976,357.697337 1327.65618,355 L1353.12733,367.017725 L1453,414.137621 C1452.75596,414.729167 1452.58286,415.349016 1452.47786,416 L1302.33259,399.705596 C1302.36664,397.95077 1301.43587,396.399731 1300,395.556282 L1309.651,375.160681 L1317.47169,358.625696 Z M1315.38134,225 L1363.58295,267.468104 L1393,293.386741 C1392.37423,294.215345 1391.97214,295.22777 1391.89852,296.336347 C1391.82207,297.52128 1392.13354,298.63834 1392.71401,299.574409 L1327.48342,347 C1326.11294,345.314511 1324.08838,344.163514 1321.74385,344.01363 C1321.52299,343.99949 1321.30779,344.030598 1321.08693,344.033426 L1313,226.176449 C1313.91176,226.026565 1314.73008,225.60802 1315.38134,225 L1315.38134,225 Z M1383.50678,194 C1384.77059,196.88152 1387.52824,198.995201 1390.89366,199.216202 C1391.08962,199.227536 1391.27422,199.196369 1391.46734,199.196369 L1396,290.475656 C1394.79015,290.628657 1393.70527,291.181161 1392.86179,292 L1342.24992,247.451197 L1315,223.4697 C1315.49416,222.798196 1315.81508,221.985024 1315.87472,221.089684 C1315.9088,220.568347 1315.83496,220.069677 1315.70432,219.590841 L1322.77879,216.918989 L1383.50678,194 Z M1522.60692,21.1105693 C1524.1205,21.1218728 1525.55471,20.7347278 1526.77634,20 L1630,173.137055 C1628.64232,174.191107 1627.70696,175.776423 1627.58508,177.624546 C1627.53123,178.452528 1627.65027,179.255077 1627.8997,179.998282 L1520.75322,224 C1519.02422,220.216152 1515.41035,217.455271 1511,217.039867 L1520.22601,61.2888766 L1522.60692,21.1105693 Z M1782.42133,407 L1772.31572,400.991392 L1742.55215,383.283738 C1742.93323,382.546036 1743.17316,381.718233 1743.22962,380.834118 C1743.45544,377.359599 1740.81895,374.358111 1737.3328,374.130043 C1736.72307,374.090624 1736.13876,374.166647 1735.56573,374.290535 L1725,338.114999 C1725.75086,337.853143 1726.42834,337.456136 1727.06346,337 L1783,406.346768 C1782.78829,406.54668 1782.59634,406.763485 1782.42133,407 L1782.42133,407 Z M1933.79931,465.742187 L1742.92906,502 C1742.38351,499.727173 1740.9617,497.799227 1739,496.600622 L1775.41587,429.832082 L1783.81953,414.422653 C1784.32267,414.640324 1784.85974,414.795804 1785.43921,414.832553 C1787.51115,414.968244 1789.34565,413.77812 1790.15973,412 L1934,463.06794 C1933.8728,463.517417 1933.78517,463.983855 1933.75125,464.472909 C1933.72299,464.902598 1933.7456,465.326633 1933.79931,465.742187 L1933.79931,465.742187 Z M1834.17864,659 C1833.55477,657.565203 1832.43123,656.409395 1831,655.766013 L1906,633 L1867.87895,646.798533 L1834.17864,659 Z M1830,667.237044 C1831.51906,666.972169 1832.85252,666.163148 1833.80051,665 L1867,688.830134 C1866.96574,688.887716 1866.93147,688.942418 1866.89435,689 L1858.19972,683.872361 L1830,667.237044 Z M1704.65387,685 L1687.20378,684.624118 C1687.04408,682.19797 1685.13053,680.201808 1682.63522,680.042342 C1682.4584,680.030952 1682.2873,680.053733 1682.11334,680.05658 L1674,616.93401 C1675.02664,616.766002 1675.99625,616.432834 1676.91453,616 L1709,678.037638 C1706.57313,679.447196 1704.86491,681.992943 1704.65387,685 L1704.65387,685 Z M1217,636.41096 L1218.75197,622.757172 C1218.85987,622.765699 1218.96209,622.802647 1219.07283,622.811173 C1225.20046,623.211919 1230.49612,618.903189 1231.57513,613 L1353.99148,631.030731 C1353.99148,631.061995 1353.98012,631.093259 1353.97728,631.130207 C1353.96309,631.351896 1353.99148,631.565059 1354,631.783906 L1225.41627,645 C1224.79442,640.648637 1221.40406,637.164135 1217,636.41096 L1217,636.41096 Z M1501,236.275325 L1464.69207,267 C1463.23512,265.44093 1461.21629,264.397791 1458.91793,264.248368 C1456.80309,264.107404 1454.84073,264.769938 1453.2539,265.925849 L1398,197.428262 C1399.03624,196.509172 1399.81836,195.327888 1400.31813,194 L1498.85975,225.66068 C1498.63387,226.455722 1498.4814,227.278956 1498.42493,228.133202 C1498.22446,231.197775 1499.23529,234.042444 1501,236.275325 L1501,236.275325 Z M1722.44074,322.32203 C1721.57968,322.265342 1720.75545,322.381552 1719.96236,322.577127 L1677,181.063586 C1678.34541,180.491036 1679.33393,179.209883 1679.43589,177.650958 C1679.44156,177.560257 1679.4274,177.478059 1679.4274,177.393027 L1862.45364,158 C1862.74821,159.87071 1863.67159,161.531674 1865,162.792986 L1726.882,324 C1725.64423,323.04197 1724.11755,322.432572 1722.44074,322.32203 L1722.44074,322.32203 Z M1782,408.182069 C1781.87512,408.443233 1781.76727,408.715876 1781.6878,409 L1779.40023,408.56377 L1724.35381,398.082769 C1724.37084,397.947882 1724.41057,397.821605 1724.42193,397.686718 C1724.53261,395.950408 1723.97349,394.337504 1723,393.060383 L1730.93554,386.029044 L1732.21556,384.89255 C1733.26852,385.954425 1734.67342,386.669039 1736.27415,386.775227 C1738.58726,386.930203 1740.67048,385.796579 1741.89941,384 L1765.00216,397.933532 L1782,408.182069 Z M1738.33765,497 C1737.35154,496.52028 1736.26682,496.205198 1735.10603,496.131395 C1734.27206,496.074624 1733.46908,496.18249 1732.68865,496.352804 L1726,471.316553 C1728.05674,470.587038 1729.59226,468.676676 1729.7444,466.346204 C1729.83456,464.915561 1729.37532,463.592784 1728.57234,462.539672 L1782.37452,414 C1782.56893,414.187346 1782.7746,414.351984 1783,414.505267 L1757.62315,461.381532 L1738.33765,497 Z M1684,690.699916 C1685.81752,690.280386 1687.23834,688.66974 1687.36495,686.627829 L1687.36495,686.621961 L1704.38666,686.011735 L1704.8115,686 C1704.84526,686.419531 1704.91278,686.827326 1705,687.232188 L1685.0832,693 C1684.82436,692.175608 1684.45016,691.412825 1684,690.699916 L1684,690.699916 Z M1593.27796,690 C1592.81351,685.410516 1589.4944,681.598624 1585,680.4914 L1600.75446,605.002981 C1600.83376,605.011433 1600.91022,605.03679 1600.99235,605.042424 C1602.22993,605.12131 1603.37973,604.71561 1604.27748,604 L1679,681.657789 C1678.31465,682.432563 1677.85587,683.41864 1677.78224,684.534316 C1677.77657,684.601933 1677.79073,684.666732 1677.7879,684.731532 L1669.88943,685.22457 L1593.27796,690 Z M1481.35852,625.235089 L1564.9624,604 C1565.9928,607.334366 1568.96827,609.862621 1572.66643,610.105018 C1573.01931,610.127566 1573.35525,610.085288 1573.69966,610.068376 L1581,680.273262 C1577.89185,680.715777 1575.20715,682.488656 1573.49922,685 L1481,627.532222 C1481.21737,627.081251 1481.35852,626.590821 1481.3924,626.06093 C1481.41216,625.779073 1481.39805,625.505672 1481.35852,625.235089 L1481.35852,625.235089 Z M1435.01727,650.181191 C1433.61551,650.087702 1432.29036,650.402163 1431.10992,650.968757 L1394,583.456149 C1394.57603,583.073697 1395.06409,582.58076 1395.44717,582 L1473.75881,624.511611 C1473.59706,624.905395 1473.47788,625.321842 1473.44667,625.769452 C1473.39276,626.605179 1473.60274,627.398412 1474,628.066994 L1440.53637,653 C1439.20555,651.402203 1437.25613,650.325672 1435.01727,650.181191 L1435.01727,650.181191 Z M1364,625.342301 L1374.69286,607.111235 L1388.83149,583 C1389.40155,583.276913 1390.03369,583.454929 1390.70253,583.500139 C1391.56044,583.553827 1392.36755,583.375811 1393.09847,583.048036 L1430,650.374697 C1428.63694,651.225216 1427.56454,652.48828 1426.9324,654 L1366.57656,632.40359 C1366.69791,631.974092 1366.78257,631.52764 1366.81361,631.061408 C1366.96601,628.70482 1365.81742,626.58276 1364,625.342301 L1364,625.342301 Z M1095.05964,620.596845 L1209.0541,612 C1209.63631,617.31099 1213.68056,621.615117 1219,622.493627 L1217.24768,636.193244 C1217.17668,636.187539 1217.10852,636.164721 1217.03468,636.161868 C1211.99072,635.828149 1207.58863,639.230947 1206.4384,644 L1095,621.615117 C1095.02272,621.452536 1095.06816,621.301364 1095.07952,621.133078 C1095.09088,620.95053 1095.06248,620.77654 1095.05964,620.596845 L1095.05964,620.596845 Z M1059.47902,606.550293 C1059.54664,605.522268 1059.35785,604.542255 1059,603.646969 L1112.86978,578 C1113.40515,578.985662 1114.12086,579.861177 1115,580.550293 L1091.5873,614.057137 C1090.67153,613.495112 1089.62896,613.113839 1088.48496,613.040408 C1085.58831,612.851184 1083.01288,614.509016 1081.86042,617 L1059.16061,608.134695 C1059.32122,607.629155 1059.44239,607.103845 1059.47902,606.550293 L1059.47902,606.550293 Z M1001.73432,566 L1112.38476,574.32269 C1112.3564,575.473254 1112.57755,576.573428 1113,577.578422 L1058.79328,603 C1057.72157,601.10199 1055.73974,599.755466 1053.38083,599.601498 C1051.16652,599.461527 1049.14784,600.407732 1047.82379,601.967012 L1001,567.967996 C1001.36858,567.380117 1001.62091,566.716653 1001.73432,566 L1001.73432,566 Z M1328,347.43871 L1393.28933,300 C1394.22463,301.091911 1395.57372,301.821737 1397.11838,301.923573 C1398.01683,301.980149 1398.86993,301.801935 1399.64368,301.46531 L1457,410.738412 C1455.68775,411.513499 1454.61074,412.645012 1453.88235,414 L1328.69439,354.892556 C1329.02032,354.100496 1329.2584,353.263176 1329.31792,352.363623 C1329.43412,350.547543 1328.92112,348.850273 1328,347.43871 L1328,347.43871 Z M1392,199.625103 C1393.58359,199.472219 1395.03617,198.891825 1396.26659,198 L1452,266.78943 C1450.33381,268.258818 1449.22586,270.351068 1449.06921,272.73493 C1448.99516,273.867406 1449.1575,274.960245 1449.4879,275.979474 L1401.39049,294 C1400.56166,292.244662 1398.8442,290.964964 1396.75648,290.829067 C1396.68812,290.826236 1396.61977,290.840392 1396.54856,290.83756 L1392.77756,215.182494 L1392,199.625103 Z M1628.01471,181 C1628.27802,181.52602 1628.60079,182.018284 1629,182.448664 L1577.13622,236.715893 C1576.46237,236.192686 1575.62996,235.857947 1574.71262,235.796062 C1572.58915,235.658228 1570.72049,237.039381 1570.17688,239 L1521.5974,230.558368 C1521.63987,230.271449 1521.72198,230.001406 1521.7418,229.706048 C1521.85505,227.97609 1521.56909,226.316456 1521,224.791842 L1539.97821,217.025316 L1628.01471,181 Z M1912.99715,629.82487 L1829.79467,654.745511 C1829.57937,654.708863 1829.36973,654.652481 1829.14594,654.638386 C1827.52551,654.53408 1826.01841,655.066885 1824.83992,656 C1823.54811,652.586098 1820.36109,650.054567 1816.46584,649.80085 C1814.78593,649.690906 1813.19667,650.060205 1811.77172,650.725507 L1762.88707,557.803089 L1739,512.393396 C1740.03401,511.787295 1740.92071,510.966943 1741.62894,510 L1914,622.943503 C1913.28044,624.144429 1912.79318,625.511682 1912.69686,627.005793 C1912.63454,627.984012 1912.76769,628.922765 1912.99715,629.82487 L1912.99715,629.82487 Z M1683.41966,609.893456 C1683.70753,609.014318 1683.92767,608.101148 1683.98976,607.136932 C1684.25787,602.987967 1682.21738,599.255884 1679,597.109085 L1682.24278,591.769029 L1730.67279,512 C1731.75654,512.592709 1732.96447,512.984068 1734.27682,513.071981 C1735.78955,513.171239 1737.22044,512.842271 1738.50174,512.241054 L1811,651.397286 C1809.22198,652.438072 1807.8306,654.060224 1807.01779,656 L1751.84822,635.419659 L1683.41966,609.893456 Z M1255.74833,515 C1256.46087,516.396115 1257.58623,517.551031 1259,518.251926 L1226.1581,595.932084 L1224.73585,599.289002 C1223.64442,598.869032 1222.49644,598.551218 1221.26646,598.471764 C1215.98178,598.125573 1211.32482,601.317908 1209.46147,606 L1128.18945,576.78091 C1128.36475,576.196358 1128.49199,575.59478 1128.53158,574.961988 C1128.61075,573.753157 1128.40434,572.598241 1128,571.53413 L1183.28975,547.068072 L1255.74833,515 Z M1456,424.704405 L1419.59738,486.36073 C1418.75192,485.925476 1417.81316,485.651322 1416.80653,485.58349 C1414.51617,485.433695 1412.42939,486.403125 1411.01559,488 L1302,402.633617 C1302.31669,402.144662 1302.54573,401.596355 1302.66449,401 L1452.24211,417.268339 C1452.06397,420.349035 1453.59371,423.113183 1456,424.704405 L1456,424.704405 Z M1501.26101,237 C1503.20422,239.145482 1505.91456,240.578641 1509,240.865273 L1507.45164,268.816131 C1503.94314,268.830321 1500.99308,271.47528 1500.59823,275 L1466.78809,273.243316 C1466.79373,271.248245 1466.13659,269.406423 1465,267.916505 L1485.84789,250.139656 L1501.26101,237 Z M1782,413.251833 L1727.60755,462 C1726.67613,461.104806 1725.45133,460.503258 1724.06133,460.412028 C1723.89043,460.400624 1723.72807,460.426283 1723.56002,460.429134 L1718,404.046158 C1720.66322,403.615667 1722.84223,401.634266 1723.5059,399 L1781.04295,409.844963 C1781.03725,409.901982 1781.01731,409.950448 1781.01446,410.010318 C1780.93756,411.224817 1781.32209,412.348086 1782,413.251833 L1782,413.251833 Z M1679.97682,681 L1605,603.283861 C1605.55978,602.649455 1605.94339,601.87407 1606.10252,601 L1614.53336,601.747189 L1661.70573,605.911712 C1661.39601,611.982272 1666.03908,617.198499 1672.17396,617.59324 C1672.765,617.632714 1673.33899,617.584781 1673.91014,617.534029 L1682,680.049801 C1681.24699,680.210517 1680.55934,680.534769 1679.97682,681 L1679.97682,681 Z M1687.10193,685.176 L1698,685.425 L1687,685.824 C1687.0453,685.611 1687.07928,685.395 1687.10193,685.176 L1687.10193,685.176 Z M1360.96433,624.331666 C1360.63722,624.311926 1360.32129,624.340126 1360.00536,624.365505 L1351,564.821705 C1351.99252,564.553807 1352.83127,563.893933 1353.33172,563 L1368.69201,569.570545 L1386.1212,577.020922 C1385.9898,577.424179 1385.88915,577.835896 1385.86119,578.278632 C1385.74097,580.111616 1386.61047,581.769763 1388,582.759574 L1363.40789,625 C1362.66699,624.624943 1361.84222,624.388065 1360.96433,624.331666 L1360.96433,624.331666 Z M1232,606.801357 L1288.49803,585.159135 L1346.34428,563 C1346.94223,564.170157 1348.10429,565.010852 1349.50328,565.101738 C1349.64148,565.113099 1349.77405,565.093217 1349.91225,565.087537 L1353.10509,586.164561 L1359,625.063756 C1356.57999,625.603391 1354.65356,627.509156 1354.12612,630 L1232.52462,611.981857 C1232.54436,611.797245 1232.60077,611.629674 1232.61488,611.442221 C1232.71924,609.817635 1232.49077,608.249852 1232,606.801357 L1232,606.801357 Z M1259.32819,518.93977 C1259.95713,519.163509 1260.61157,519.33627 1261.31133,519.381585 C1264.07357,519.562842 1266.54683,518.172258 1267.94353,516 L1331.5259,551.707722 L1346,559.835987 C1345.83568,560.226824 1345.71669,560.643149 1345.68836,561.090629 C1345.66003,561.512619 1345.71669,561.917616 1345.81868,562.30562 L1230.92393,606 C1229.77937,603.289634 1227.68574,601.074895 1225,599.820253 L1231.99483,583.339984 L1259.32819,518.93977 Z M1674,181.161752 L1650.13328,249.495284 L1641.92468,273 C1641.61428,272.917766 1641.28978,272.858217 1640.95398,272.835532 C1640.87215,272.829861 1640.79314,272.846875 1640.70567,272.844039 L1635,184.045609 C1637.87541,183.662796 1640.17517,181.292192 1640.36987,178.275058 C1640.37269,178.263716 1640.36987,178.252373 1640.36987,178.24103 L1671.75385,178 C1671.90905,179.389469 1672.77534,180.577607 1674,181.161752 L1674,181.161752 Z M1715.16718,326 L1700.21633,316.416768 L1644.4672,280.683832 C1644.8079,280.050791 1645.02935,279.347097 1645.07762,278.586882 C1645.22241,276.365585 1643.93061,274.395808 1642,273.539506 L1674.27805,182 C1674.49382,182.048043 1674.7096,182.093261 1674.93673,182.107391 C1675.2831,182.13 1675.62096,182.093261 1675.94746,182.031087 L1719,323.10327 C1717.45268,323.660007 1716.12396,324.680221 1715.16718,326 L1715.16718,326 Z M1717.58463,390.39671 C1715.40346,390.391075 1713.42704,391.38844 1712.17294,393 L1625,334.772517 C1625.60288,333.775152 1626.00954,332.645369 1626.08916,331.408525 C1626.09201,331.374716 1626.08348,331.340907 1626.08632,331.307098 L1713.82517,331 C1714.04129,334.896483 1717.03578,338.105517 1721,338.567572 L1719.04633,368.220849 L1717.58463,390.39671 Z M1728.60776,498 L1718.07947,488.143682 C1719.1507,486.796028 1719.85662,485.113588 1719.97473,483.238221 C1720.15327,480.389705 1718.96118,477.796535 1717,476.085723 L1721.48819,470 C1722.24904,470.513527 1723.128,470.856824 1724.10035,470.919242 C1724.57554,470.953288 1725.0315,470.899382 1725.47647,470.814267 L1732,495.832404 C1730.70079,496.266491 1729.55265,497.01834 1728.60776,498 L1728.60776,498 Z M1673.53575,594.573998 C1671.49766,594.444104 1669.56982,594.910026 1667.85964,595.757156 L1646.64774,556.873882 L1620,508.011414 C1622.39991,506.551526 1624.08465,504.004488 1624.31927,501 L1643.12278,501.590167 L1726.18672,504.199328 C1726.23477,507.11628 1727.70751,509.702851 1730,511.258746 L1678.2451,596 C1676.83456,595.214993 1675.25723,594.686948 1673.53575,594.573998 L1673.53575,594.573998 Z M1479,621.765997 L1491.1063,583.990021 C1491.6013,584.119122 1492.10762,584.208931 1492.63373,584.245416 C1496.29957,584.481165 1499.52131,582.249969 1500.7376,579 L1565,598.971311 C1564.86423,599.49052 1564.76523,600.026569 1564.73129,600.579456 C1564.67754,601.365286 1564.76806,602.117438 1564.91797,602.85275 L1481.13275,624 C1480.75937,623.000873 1479.99,622.195397 1479,621.765997 L1479,621.765997 Z M1396.43731,578.459286 L1401.87976,578.308252 L1484.80019,576 C1485.0513,579.180258 1487.10526,581.870369 1490,582.970351 L1486.71873,593.394531 L1477.9132,621.355727 C1477.73545,621.32153 1477.56335,621.278785 1477.37713,621.267386 C1475.93259,621.173346 1474.62911,621.88007 1473.85887,623 L1396,580.243194 C1396.237,579.707452 1396.40064,579.128964 1396.44014,578.51058 C1396.44014,578.490632 1396.43731,578.473534 1396.43731,578.459286 L1396.43731,578.459286 Z M1500.65942,275.756578 C1500.6875,278.642587 1502.44507,281.136985 1505,282.167094 L1463.25916,410 C1462.72852,409.849598 1462.1698,409.755952 1461.59705,409.716223 C1461.50439,409.710548 1461.41455,409.730412 1461.32471,409.727574 L1459,281.812374 C1463.1637,281.531435 1466.58337,278.276515 1467.00732,274 L1484.85254,274.930788 L1500.65942,275.756578 Z M1571,241.589763 L1564.4882,245.070195 L1514.12164,272 C1513.04666,270.204109 1511.18936,268.942131 1509,268.682312 L1510.54212,240.553343 C1516.29975,240.673259 1521.2244,236.613231 1522.39225,231 L1570.67638,239.568315 C1570.67638,239.588301 1570.67075,239.605432 1570.66794,239.619708 C1570.62291,240.322075 1570.75517,240.981616 1571,241.589763 L1571,241.589763 Z M1633.83823,184.422637 C1633.96945,184.431105 1634.09497,184.411346 1634.22619,184.411346 L1636.5825,220.519222 L1640,272.812414 C1638.54228,273.024116 1637.2814,273.839874 1636.47124,275 L1578.68179,242.143865 C1578.89859,241.675298 1579.04408,241.167214 1579.08116,240.625257 C1579.15819,239.42279 1578.7417,238.299359 1578,237.458197 L1630.25812,183 C1631.23944,183.80729 1632.46894,184.335133 1633.83823,184.422637 L1633.83823,184.422637 Z M1715,326.647008 C1714.92892,326.769416 1714.84079,326.874745 1714.77824,327 L1698.45073,319.746581 L1636.75984,292.341296 C1636.92757,291.874435 1637.05267,291.390494 1637.08678,290.872393 C1637.20903,288.990717 1636.37034,287.274151 1635,286.192401 L1637.5502,282.369268 C1638.20409,282.736494 1638.9376,282.978464 1639.73364,283.032552 C1641.53612,283.149267 1643.18224,282.332261 1644.20289,281 L1659.57799,290.912247 L1715,326.647008 Z M1601.67444,595.29694 C1601.17972,595.265768 1600.70491,595.330946 1600.24716,595.441466 L1579,532.567112 C1579.87002,532.210049 1580.64052,531.677287 1581.28024,531 L1650.0968,588.050818 L1664,599.578869 C1662.81439,601.106307 1662.06379,602.968138 1661.80221,605 L1606.13256,600.066289 C1606.13256,597.569678 1604.20772,595.464137 1601.67444,595.29694 L1601.67444,595.29694 Z M1353,558.450564 L1411.76452,498 C1412.41771,498.563747 1413.16944,499.003469 1414,499.302255 L1392.23359,573.401127 C1392.00554,573.356028 1391.7803,573.299653 1391.5438,573.285559 C1389.47725,573.15026 1387.62467,574.277754 1386.71808,576 L1353.71513,561.988075 C1353.79678,561.717476 1353.8559,561.432784 1353.8728,561.139636 C1353.94037,560.122073 1353.5997,559.177797 1353,558.450564 L1353,558.450564 Z M1269.69656,511.496951 L1409.27128,494 C1409.51663,495.330459 1410.12013,496.536364 1411,497.507316 L1352.15036,558.198894 C1351.56378,557.737479 1350.83902,557.44308 1350.03811,557.389295 C1348.66473,557.301542 1347.42107,557.955448 1346.67374,559 L1269,515.199591 C1269.40609,514.367346 1269.66554,513.444517 1269.7304,512.462242 C1269.75296,512.133873 1269.7163,511.819659 1269.69656,511.496951 L1269.69656,511.496951 Z M1460.51652,426.57492 C1463.06135,426.744695 1465.38685,425.714727 1467.02903,424 L1498,451.107395 C1497.25202,452.09209 1496.77398,453.300322 1496.68681,454.627395 C1496.62495,455.563987 1496.77398,456.460965 1497.07486,457.287203 L1423.34237,490 C1422.79403,488.930418 1421.98981,488.024952 1421,487.354341 L1457.20122,425.62701 C1458.20228,426.156141 1459.31863,426.498521 1460.51652,426.57492 L1460.51652,426.57492 Z M1571.38461,243 C1572.11976,244.116477 1573.34029,244.900568 1574.77654,244.994318 C1576.04532,245.076705 1577.21759,244.605114 1578.07763,243.798295 L1595.26719,258.9375 L1628,287.767045 C1627.51747,288.411932 1627.19105,289.173295 1627.02358,290 L1514.63013,276.553977 C1514.70109,275.380682 1514.45131,274.272727 1514,273.272727 L1536.70463,261.292614 L1571.38461,243 Z M1712,394.459338 C1711.48105,395.341872 1711.12941,396.340379 1711.05568,397.432231 C1711.03299,397.814096 1711.05851,398.187475 1711.09821,398.558026 L1653.9482,408 C1653.30447,405.244912 1650.95075,403.103638 1647.97315,402.911291 C1647.17913,402.857547 1646.41346,402.970692 1645.69317,403.185668 L1622,338.364736 C1623.21373,337.844268 1624.27999,337.043765 1625.07401,336 L1675.53436,369.937927 L1712,394.459338 Z M1721.73678,461 L1698,415.285985 C1699.75292,414.178302 1700.97997,412.259076 1701.12465,409.998149 C1701.19421,408.879076 1700.96884,407.822647 1700.55704,406.863035 L1711.6227,401 C1712.71063,402.853733 1714.6305,404.1522 1716.89816,404.300271 C1717.12632,404.317356 1717.34335,404.286033 1717.56873,404.27749 L1723,460.5985 C1722.5576,460.678231 1722.13745,460.817759 1721.73678,461 L1721.73678,461 Z M1624,499.658533 L1700.75476,485.369182 L1702.73016,485 C1703.57919,488.634584 1706.647,491.453532 1710.52139,491.708239 C1713.09677,491.87709 1715.45706,490.861124 1717.15228,489.146859 L1728,499.091881 C1726.89627,500.442687 1726.17742,502.125471 1726.02743,504 L1624.03962,500.757494 C1624.03396,500.391173 1624.04811,500.016268 1624,499.658533 L1624,499.658533 Z M1664.42544,599 L1582,530.371319 C1582.71091,529.396012 1583.1754,528.219407 1583.26037,526.923724 C1583.351,525.562832 1583.01679,524.267148 1582.3767,523.169929 L1590.07204,517.984361 L1607.86452,506 C1609.39396,508.061185 1611.75326,509.487287 1614.51758,509.665905 C1616.14331,509.773642 1617.68125,509.405067 1619.04925,508.738796 L1667,596.831077 C1666.02852,597.409457 1665.17883,598.160783 1664.42544,599 L1664.42544,599 Z M1500.68292,577.85898 C1500.80761,577.374984 1500.89828,576.879667 1500.93229,576.364537 C1501.0343,574.819147 1500.67159,573.364329 1500,572.084995 L1571.30455,530 C1572.35302,531.534069 1574.02774,532.606785 1576,532.827555 L1573.1833,592.333569 C1569.48531,592.33923 1566.29456,594.654485 1565.06473,598 L1509.58643,580.641249 L1500.68292,577.85898 Z M1393,573.816586 L1400.54429,548.101896 L1414.83353,499.418058 C1415.20355,499.500142 1415.57638,499.582225 1415.96617,499.604868 C1417.836,499.729408 1419.57308,499.101047 1420.92037,498 L1487,570.094537 C1485.68942,571.430512 1484.80535,573.205208 1484.67542,575.226153 C1484.66695,575.339372 1484.68954,575.446929 1484.68672,575.557317 L1396.2256,578 C1396.01376,576.095103 1394.7512,574.495896 1393,573.816586 L1393,573.816586 Z M1635.53764,276.058937 C1635.26504,276.63269 1635.08899,277.260409 1635.04356,277.927894 C1634.92713,279.694597 1635.71369,281.310761 1637,282.336131 L1634.45009,286.150733 C1633.75724,285.758763 1632.97637,285.49745 1632.12735,285.443483 C1630.51165,285.33839 1629.02941,285.954748 1627.95322,287 L1578,243.031244 C1578.00852,243.019883 1578.01136,243.008521 1578.01988,243 L1608.06223,260.269382 L1635.53764,276.058937 Z M1712.01325,474.177195 C1709.80858,474.032842 1707.76057,474.748944 1706.14267,476 L1673.51977,438.321143 L1652,413.464193 C1652.15381,413.31984 1652.29908,413.164166 1652.43866,413 L1719.96033,462.433687 C1719.4761,463.203567 1719.14853,464.081005 1719.08587,465.051847 C1718.96908,466.8605 1719.73246,468.504987 1721,469.623012 L1716.34284,475.699973 C1715.09524,474.84801 1713.634,474.281921 1712.01325,474.177195 L1712.01325,474.177195 Z M1496.92513,457.562007 C1497.94012,459.527605 1499.8968,460.936902 1502.24255,461.093808 C1505.10426,461.279241 1507.62764,459.550428 1508.65391,457 L1524,462.166471 C1523.797,462.891089 1523.65039,463.63853 1523.59964,464.423058 C1523.54043,465.350227 1523.63911,466.243162 1523.80546,467.11898 L1429.33523,489.527941 L1423.13815,491 C1423.09304,490.845947 1423.05357,490.691895 1423,490.543548 L1430.27692,487.294177 L1496.92513,457.562007 Z M1467,423.019049 C1468.01131,421.751832 1468.66003,420.182496 1468.77618,418.450912 C1468.78751,418.277474 1468.75635,418.112428 1468.75918,417.941788 L1640.83286,410 C1640.86686,410.288131 1640.92918,410.55668 1641,410.830825 L1508.87467,452 C1507.98234,449.73971 1505.84639,448.066871 1503.23454,447.899028 C1501.27423,447.773145 1499.47822,448.534035 1498.19496,449.812442 L1481.07909,435.112162 L1467,423.019049 Z M1507.2654,282.504746 C1510.00175,282.679983 1512.45319,281.232862 1513.73391,279 L1611.86459,327.684877 C1611.53736,328.45366 1611.30322,329.278971 1611.2468,330.16081 C1611.15653,331.50618 1611.45555,332.78089 1612,333.91428 L1594.42246,343.574942 L1468.09324,413 C1467.15104,411.46526 1465.71516,410.280996 1464,409.613963 L1505.94236,282.278633 C1506.36833,282.39169 1506.8084,282.473655 1507.2654,282.504746 L1507.2654,282.504746 Z M1699.82694,406.032002 C1698.73997,404.216653 1696.82443,402.942226 1694.56904,402.792127 C1690.92052,402.554234 1687.77195,405.329652 1687.51355,409 L1654.01123,408.736619 C1654.00562,408.643161 1654.00843,408.546871 1654,408.453413 L1710.60678,399 C1710.69947,399.416313 1710.83148,399.818465 1711,400.206457 L1708.90751,401.293968 L1699.82694,406.032002 Z M1576.98391,520.420593 C1575.61277,520.329689 1574.31469,520.679102 1573.2189,521.340998 L1541,473.786729 C1542.32337,472.792464 1543.42759,471.519805 1544.16654,470 L1606.33129,497.81385 C1606.00817,498.657555 1605.76373,499.543871 1605.70192,500.495524 C1605.57829,502.43008 1606.0728,504.256686 1607,505.799217 L1581.71826,523 C1580.61124,521.548373 1578.93665,520.548427 1576.98391,520.420593 L1576.98391,520.420593 Z M1524.96017,468 C1525.82058,471.09829 1528.04235,473.627332 1531,474.881941 L1495.82803,568.524489 C1495.21386,568.329076 1494.57704,568.181808 1493.90626,568.136495 C1491.75241,567.997723 1489.75423,568.722734 1488.21173,570 L1422,497.869891 C1423.13494,496.69458 1423.89912,495.148267 1424.01233,493.389549 C1424.05196,492.814638 1424.00101,492.253887 1423.90761,491.710129 L1502.16787,473.349789 L1524.96017,468 Z M1496,569.044341 L1520.57404,503.795319 L1531.39015,475.071427 C1532.23027,475.349941 1533.10171,475.560247 1534.02441,475.622771 C1536.33971,475.770554 1538.51831,475.14816 1540.34662,474 L1573,521.569063 C1571.57038,522.691645 1570.58788,524.374097 1570.45972,526.326538 C1570.38283,527.557115 1570.66477,528.716643 1571.18877,529.739756 L1499.52848,572 C1498.66558,570.706899 1497.4524,569.67526 1496,569.044341 L1496,569.044341 Z M1615.69564,491.027484 C1611.93219,490.782241 1608.56042,492.851304 1606.97387,496 L1544.17881,468.400282 C1544.57615,467.408034 1544.86849,466.359408 1544.94228,465.237491 C1545.05865,463.46723 1544.684,461.789993 1544,460.276251 L1590.98064,437.105004 L1641.86947,412 C1642.57618,413.21494 1643.68024,414.164905 1645,414.725863 L1617.71927,491.410853 C1617.07216,491.21635 1616.39951,491.075405 1615.69564,491.027484 L1615.69564,491.027484 Z M1509.00283,452.67233 L1640.92646,411 C1640.94909,411.056632 1640.97737,411.104768 1641,411.1614 L1543.46516,459.655001 C1541.78786,456.599728 1538.65672,454.425076 1534.92029,454.178729 C1530.17974,453.870087 1526.01054,456.769623 1524.41245,461 L1509,455.869181 C1509.10183,455.47276 1509.17819,455.065013 1509.20365,454.640276 C1509.24891,453.957866 1509.1584,453.303772 1509.00283,452.67233 L1509.00283,452.67233 Z M1719.74987,462 L1653.72643,413.576734 L1653,413.044149 C1653.57439,412.155571 1653.96294,411.129643 1654.04178,410 L1687.62929,410.26349 C1687.80949,413.565522 1690.41394,416.290119 1693.80957,416.511563 C1694.94145,416.587246 1696.01139,416.346181 1696.97714,415.9089 L1721,460.91801 C1720.52979,461.215137 1720.11308,461.582341 1719.74987,462 L1719.74987,462 Z M1612.66556,335 C1613.91901,337.003313 1616.07426,338.406763 1618.61802,338.570876 C1619.55669,338.633126 1620.4585,338.497308 1621.31209,338.239821 L1645,403.078675 C1642.82206,404.037888 1641.2198,406.117598 1641.05532,408.655694 C1641.04965,408.763216 1641.06667,408.86225 1641.06667,408.966943 L1468.80538,417 C1468.70896,415.998344 1468.42538,415.050449 1468,414.176121 L1552.38375,367.992409 L1612.66556,335 Z M1630,295.587937 L1621.03814,323.403608 C1620.57928,323.285231 1620.1091,323.200676 1619.61908,323.166855 C1616.61386,322.972379 1613.92304,324.559188 1612.52947,327 L1514,278.45434 C1514.19544,277.994927 1514.33706,277.507328 1514.4277,277 L1626.60106,290.337091 C1626.50476,292.684893 1627.92098,294.739572 1630,295.587937 L1630,295.587937 Z M1705,476.231716 C1703.47851,477.662654 1702.45662,479.631602 1702.30901,481.87378 C1702.27211,482.454042 1702.29482,483.020221 1702.36863,483.572315 L1623.399,498 C1622.73193,495.155025 1620.71937,492.819892 1618,491.724154 L1645.28454,415.092921 C1645.72453,415.216861 1646.1787,415.301365 1646.65275,415.329533 C1648.30197,415.439388 1649.82913,414.915462 1651.04689,414 L1666.05452,431.306462 L1705,476.231716 Z M1600,596.210826 C1598.39805,596.911681 1597.22252,598.430199 1597.10151,600.279202 C1597.09863,600.307692 1597.10439,600.339031 1597.10439,600.367521 L1581.93772,601 C1581.56028,596.871795 1578.27571,593.509972 1574,593.105413 L1576.86392,533.216524 C1577.41999,533.207977 1577.9559,533.136752 1578.47163,533 L1582.0328,543.45584 L1600,596.210826 Z M1714.44925,329.693797 L1626.85738,330 C1626.68137,327.019437 1624.75091,324.482727 1622,323.437704 L1630.988,295.696834 C1631.28609,295.764255 1631.58418,295.823248 1631.89646,295.845722 C1634.10513,295.988991 1636.08385,294.809126 1637.07464,293 L1715,327.210462 C1714.71611,327.949283 1714.49751,328.724622 1714.44357,329.558955 C1714.44073,329.606712 1714.44925,329.64885 1714.44925,329.693797 L1714.44925,329.693797 Z M1298.05345,404.48752 C1299.52073,404.586124 1300.86054,403.99168 1301.79246,403 L1411,488.090074 C1410.28619,489.115561 1409.81031,490.324171 1409.7225,491.662375 C1409.70268,491.972275 1409.73667,492.27654 1409.75649,492.580806 L1269.5633,510 C1269.10159,507.503897 1267.36238,505.444471 1265,504.540126 L1297.32831,404.369194 C1297.56341,404.422722 1297.80418,404.473433 1298.05345,404.48752 L1298.05345,404.48752 Z M1092,615.548085 L1115.59246,581.768756 C1116.7024,582.466147 1117.97414,582.935818 1119.37078,583.026906 C1122.94471,583.263165 1126.09851,581.136835 1127.40715,578 L1209,607.316028 C1208.71045,608.226906 1208.49187,609.171942 1208.42658,610.171061 C1208.40103,610.598035 1208.45497,611.00793 1208.472,611.423517 L1094.53212,620 C1094.28799,618.212403 1093.35406,616.635446 1092,615.548085 L1092,615.548085 Z M1582.88906,679.81557 C1582.39443,679.781522 1581.91992,679.835432 1581.43966,679.866643 L1574,609.176095 C1578.00885,608.571733 1581.20097,605.294556 1581.47705,601.140628 C1581.48568,600.96471 1581.45692,600.800142 1581.45979,600.629899 L1596.59507,600 C1596.83951,601.86416 1598.18538,603.404859 1600,603.946799 L1583.99912,680 C1583.63101,679.937578 1583.27154,679.841107 1582.88906,679.81557 L1582.88906,679.81557 Z M1400,301.109051 C1401.44126,300.204327 1402.45099,298.659815 1402.56945,296.830638 C1402.61176,296.176757 1402.51869,295.545424 1402.34382,294.947912 L1441.24383,280.294772 L1449.98731,277 C1451.24524,279.888915 1454.00085,282.005573 1457.36285,282.225413 C1457.46439,282.233868 1457.56311,282.214139 1457.66747,282.216957 L1458.47976,326.494861 L1460,409.258747 C1458.96771,409.329208 1457.99182,409.585687 1457.09209,410 L1441.34537,379.969378 L1400,301.109051 Z M1729.83756,380.74726 C1729.73258,382.334168 1730.24898,383.805512 1731.15127,384.978077 L1721.93545,393 C1720.90548,391.968368 1719.54637,391.272158 1718,391.072033 L1718.54478,382.779518 L1721.4077,339.219856 C1722.08583,339.231131 1722.74127,339.149389 1723.37684,339 L1734,375.233949 C1731.71023,376.068274 1730.00497,378.173818 1729.83756,380.74726 L1729.83756,380.74726 Z M1281.22757,406.499822 C1281.26451,405.930652 1281.2162,405.378389 1281.12244,404.840213 L1293.34045,402 C1293.7695,403.279223 1294.7441,404.310491 1296,404.840213 L1263.57965,505 C1263.39211,504.9521 1263.19322,504.938011 1263,504.904199 L1273.71207,413.095992 C1277.61331,413.310135 1280.97184,410.374121 1281.22757,406.499822 L1281.22757,406.499822 Z M1710,141.481625 L1694.5919,157.40484 L1677.57281,174.991336 C1676.9591,174.511652 1676.20049,174.202271 1675.36516,174.148342 C1673.19729,174.006424 1671.33059,175.615775 1671.11465,177.758739 L1639.49154,178 C1639.43755,177.296086 1639.26708,176.629071 1639,176.004631 L1708.87202,140 C1709.1874,140.539289 1709.57665,141.027487 1710,141.481625 L1710,141.481625 Z M1149.31202,456.316523 C1151.21376,456.441281 1152.92306,455.491421 1153.8994,454 L1255,508.830991 C1254.62078,509.63908 1254.36892,510.518054 1254.30666,511.462243 C1254.23874,512.53686 1254.4142,513.566111 1254.76794,514.5103 L1126.91282,571 C1125.91951,569.032231 1124.17059,567.506786 1122,566.854643 L1148.85923,456.239967 C1149.00921,456.265486 1149.15637,456.305181 1149.31202,456.316523 L1149.31202,456.316523 Z M1029.56174,496.159517 C1030.83278,496.243947 1032.01324,495.790835 1032.89363,495 L1114,568.888219 C1113.05167,570.03085 1112.42605,571.440844 1112.22506,573 L1001.74308,564.635721 C1001.73459,562.66004 1000.65038,560.917951 999,560.006098 L1028.37562,495.90341 C1028.75212,496.035685 1029.14277,496.134187 1029.56174,496.159517 L1029.56174,496.159517 Z M1753.46981,685 C1752.55879,683.169601 1750.74522,681.846863 1748.55933,681.703026 C1747.01652,681.604314 1745.58089,682.114795 1744.46679,683.014483 L1681,614.590289 C1682.02102,613.572147 1682.83332,612.359402 1683.39742,611 L1806.91539,656.847397 C1806.67846,657.586325 1806.50077,658.347816 1806.44718,659.154433 C1806.35975,660.513835 1806.56564,661.819651 1807,663.026755 L1803.74797,664.360774 L1753.46981,685 Z M1243,378.167213 C1243.27471,377.801924 1243.52393,377.413804 1243.73068,377 L1268.74639,387.92728 L1294,398.960152 C1293.87822,399.336857 1293.78193,399.72783 1293.75361,400.141634 C1293.73378,400.475531 1293.74795,400.803721 1293.79326,401.123348 L1281.61251,404 C1280.78554,401.211817 1278.33296,399.091428 1275.28282,398.891661 C1273.10495,398.748969 1271.11684,399.6308 1269.71496,401.100518 L1247.07252,381.66029 L1243,378.167213 Z M2000,60.0079099 L1979.26765,162.047788 L1976.53911,175.472668 C1976.45394,175.461307 1976.3716,175.435747 1976.28074,175.427227 C1973.89292,175.271025 1971.7947,176.804647 1971.11895,179 L1878.43383,158.713578 C1878.47926,158.438094 1878.55308,158.16829 1878.57296,157.878606 C1878.70356,155.859336 1878.0846,153.982068 1877,152.451285 L1996.74336,58 C1997.59798,58.9514142 1998.71665,59.6642648 2000,60.0079099 L2000,60.0079099 Z M961.147409,535.177994 L1026.64214,495 C1027.01066,495.482441 1027.46706,495.888706 1028,496.196227 L998.580664,560.462397 C998.112926,560.290298 997.625344,560.160519 997.106579,560.129485 C995.351851,560.016633 993.753036,560.764275 992.692828,562 L961,539.10523 C961.32033,538.5579 961.532938,537.942858 961.578295,537.274213 C961.626486,536.523749 961.456399,535.812784 961.147409,535.177994 L961.147409,535.177994 Z M986.227557,701.573446 C985.996724,701.542373 985.777152,701.474576 985.537875,701.457627 C983.511055,701.324859 981.622172,701.929379 980.068277,703 L943,653.937853 C944.00778,653.039548 944.677756,651.759887 944.773467,650.30226 C944.798802,649.887006 944.767837,649.485876 944.703091,649.090395 L993.487512,637 C994.149043,639.09322 995.835244,640.751412 998,641.322034 L990.661224,678.878531 L986.227557,701.573446 Z M1061.37035,734 C1060.76365,733.068429 1059.9566,732.294466 1059,731.711883 L1094.76403,664.948392 C1095.43281,665.246719 1096.15802,665.454986 1096.93403,665.505645 C1100.40207,665.730798 1103.39887,663.11058 1103.62462,659.648853 C1103.63873,659.426514 1103.60769,659.209805 1103.59922,658.99028 L1205.95027,648 C1206.11959,649.120136 1206.49207,650.167098 1207,651.143699 L1163.36585,675.966816 L1061.37035,734 Z M2135.24826,410.278897 C2131.83844,410.055434 2128.77667,411.933658 2127.31937,414.796253 L2032.4047,372.550348 C2032.61127,371.981789 2032.77257,371.390601 2032.81501,370.759811 C2033.04422,367.223997 2030.36164,364.171883 2026.82448,363.939933 C2025.55394,363.855074 2024.3513,364.160568 2023.31279,364.734784 L1985.74252,306.142103 C1988.28645,304.362881 1990.05785,301.520087 1990.27574,298.182278 C1990.58418,293.515004 1987.7969,289.402145 1983.69663,287.719098 L2031.90667,155.358021 C2032.34245,155.48531 2032.7952,155.575827 2033.26777,155.604114 C2036.77097,155.833234 2039.79595,153.17996 2040.02515,149.675261 C2040.05345,149.239649 2040.03647,148.812522 2039.98271,148.39671 L2086.0846,138.9179 C2086.7892,141.458029 2089.00771,143.40697 2091.7865,143.585175 C2095.30102,143.814295 2098.33448,141.155363 2098.56369,137.645007 C2098.7929,134.134651 2096.13296,131.102337 2092.61844,130.870387 C2090.77346,130.751584 2089.07562,131.438946 2087.83337,132.618494 L2007.06168,58.0015035 C2007.91342,56.9549025 2008.46805,55.6565516 2008.56143,54.2139395 C2008.80196,50.5168924 2006.00336,47.3261738 2002.30491,47.0857384 C1999.1724,46.8820755 1996.41908,48.873446 1995.50225,51.736041 L1796.847,1.62365606 C1796.86398,1.51051001 1796.89228,1.40302126 1796.90077,1.28704656 C1797.05357,-1.02679014 1795.29914,-3.0238179 1792.98726,-3.17373641 C1790.76026,-3.32082627 1788.84454,-1.70000913 1788.56439,0.483709615 L1550.89289,-5.90621349 C1550.74291,-8.07013167 1549.03659,-9.84652463 1546.81243,-9.99078584 C1544.38735,-10.1463617 1542.29618,-8.31339567 1542.13772,-5.88924158 C1542.07546,-4.91052826 1542.34712,-3.99404526 1542.84515,-3.22465213 L1528.94271,7.78728706 C1527.5901,6.2541581 1525.65174,5.23018636 1523.45021,5.08592515 C1519.02735,4.79740272 1515.20722,8.14652576 1514.91858,12.5677076 C1514.89312,12.9722047 1514.9299,13.35973 1514.96103,13.7500838 L1371.85048,33.253634 C1371.18266,29.7319632 1368.23126,26.9627137 1364.48753,26.716621 C1361.02394,26.4931576 1357.95369,28.5014999 1356.62372,31.4942129 L1338.0777,24.4027843 C1338.21918,23.9417142 1338.32105,23.4665008 1338.35501,22.9686581 C1338.58139,19.5063891 1335.95823,16.5165047 1332.49465,16.2902126 C1329.03106,16.0639205 1326.04004,18.6889089 1325.81367,22.1511779 C1325.6071,25.3390679 1327.8256,28.0941742 1330.87887,28.6938482 L1317.16885,136.42303 C1317.12641,136.420201 1317.08679,136.403229 1317.04434,136.400401 C1312.12628,136.080763 1307.88169,139.803268 1307.56193,144.722293 C1307.45157,146.416655 1307.84774,148.0205 1308.58346,149.423511 L1239.43345,189.867566 C1238.52794,188.569215 1237.07912,187.664047 1235.37563,187.553729 C1232.40724,187.361381 1229.84068,189.610159 1229.64543,192.583071 C1229.49263,194.947824 1230.89617,197.032539 1232.97036,197.892449 L1214.03666,256.159836 C1213.56127,256.032547 1213.07173,255.944858 1212.56238,255.910915 C1208.31496,255.636535 1204.65046,258.852712 1204.37315,263.095689 C1204.09584,267.341494 1207.31324,271.007426 1211.56065,271.287463 C1212.203,271.327064 1212.82271,271.264833 1213.4311,271.157345 L1231.95166,348.832107 C1228.84745,349.74859 1226.48463,352.49521 1226.26391,355.912221 C1226.11959,358.073311 1226.86664,360.08731 1228.17397,361.609125 L1177.22759,410.360928 C1175.78443,408.989033 1173.897,408.066892 1171.75773,407.928288 C1166.89343,407.611479 1162.69412,411.294383 1162.38002,416.156835 C1162.31776,417.107262 1162.44793,418.015259 1162.67148,418.889312 L1077.16565,445.028878 C1076.41295,443.113881 1074.62456,441.696727 1072.43435,441.555294 C1069.41503,441.360117 1066.80886,443.645667 1066.61078,446.663838 C1066.5938,446.895787 1066.6221,447.116422 1066.63341,447.342714 L1017.7216,454.035303 C1017.19244,451.531947 1015.07581,449.571692 1012.39606,449.399144 C1009.16451,449.184166 1006.37723,451.633778 1006.165,454.861269 C1006.10275,455.800382 1006.28951,456.691407 1006.63191,457.50323 L918.986808,501.972455 C917.770026,499.882082 915.571329,498.414012 912.976471,498.244293 C908.833752,497.972743 905.256978,501.112545 904.988154,505.253691 C904.92873,506.170174 905.058898,507.049884 905.307914,507.884336 C905.126811,508.15023 904.988154,508.447238 904.965517,508.792333 C904.897603,509.810648 905.670118,510.690358 906.691649,510.755417 C906.756733,510.761075 906.813328,510.732788 906.875582,510.72996 C908.143299,512.1556 909.945834,513.103198 911.997385,513.236144 C914.572436,513.405864 916.929598,512.251774 918.406715,510.362235 L953.348169,534.600947 C953.053878,535.127076 952.861457,535.718264 952.819011,536.363197 C952.686014,538.41114 954.047112,540.210163 955.971325,540.705176 L940.189944,644.165923 C940.178625,644.165923 940.164477,644.160266 940.150328,644.160266 C937.204583,643.967918 934.66066,646.199724 934.468238,649.14435 C934.329582,651.274324 935.467132,653.180835 937.215902,654.151062 L887.449514,763.20971 C886.807166,762.963617 886.133691,762.779755 885.414941,762.731668 C881.577832,762.479918 878.264223,765.387771 878.015208,769.223422 C877.763362,773.059073 880.66949,776.368595 884.506599,776.620345 C888.343707,776.869267 891.657316,773.964242 891.909162,770.128591 C891.994053,768.818925 891.688443,767.582805 891.125328,766.496603 L978.272395,714.624797 C979.732533,716.825487 982.1378,718.361445 984.976015,718.545307 C988.688616,718.785743 991.990906,716.67274 993.473682,713.493336 L1047.39694,735.488928 C1047.18471,736.102745 1047.02341,736.739192 1046.97814,737.418068 C1046.70931,741.530927 1049.8305,745.086542 1053.94492,745.355263 C1057.15666,745.564584 1060.0062,743.697674 1061.23713,740.914281 L1254.52155,813.655876 C1254.49608,813.777508 1254.43383,813.884996 1254.42534,814.012286 C1254.32913,815.502985 1255.46102,816.790021 1256.95229,816.891853 C1258.44638,816.988027 1259.73391,815.856566 1259.83295,814.363039 C1259.87256,813.777508 1259.67731,813.251379 1259.39151,812.78748 L1315.52761,764.219538 C1316.9453,765.70458 1318.88367,766.697437 1321.09085,766.841698 C1323.15655,766.977473 1325.07511,766.332541 1326.6258,765.20108 L1338.00978,779.282106 C1335.88466,781.137701 1334.46697,783.805119 1334.26889,786.848748 C1333.87272,792.910548 1338.47103,798.146381 1344.53513,798.539564 C1349.38528,798.859201 1353.66383,795.957005 1355.40128,791.68857 L1579.56084,872.899147 C1579.39106,873.462048 1579.26372,874.044751 1579.22693,874.655739 C1578.94396,878.972261 1582.21513,882.700423 1586.53612,882.983288 C1590.85428,883.263325 1594.58103,879.990575 1594.864,875.674054 C1594.9404,874.52845 1594.74798,873.428105 1594.3688,872.415447 L1642.70052,851.251479 C1643.32023,852.323538 1644.44363,853.075959 1645.77077,853.163647 C1647.88457,853.302251 1649.71258,851.698406 1649.85123,849.585403 C1649.93895,848.221994 1649.29378,846.983044 1648.26093,846.23628 L1696.4936,761.04862 C1697.44156,761.523834 1698.49705,761.823671 1699.62045,761.897216 C1702.34831,762.075421 1704.83564,760.88173 1706.45707,758.924303 L1739.08664,783.148872 C1738.84611,783.57317 1738.67067,784.039897 1738.63954,784.563198 C1738.51786,786.413136 1739.92141,788.014152 1741.77205,788.132956 C1742.80207,788.200843 1743.72173,787.76806 1744.38671,787.07504 L1803.31576,830.641926 C1802.69888,831.592353 1802.28574,832.68987 1802.20367,833.894875 C1801.96032,837.65981 1804.81268,840.912759 1808.57905,841.158852 C1811.81342,841.371 1814.65447,839.291942 1815.55432,836.319029 L1913.53641,859.499826 C1913.50528,859.68086 1913.46,859.853407 1913.44586,860.040098 C1913.23929,863.222331 1915.65304,865.977437 1918.84214,866.183929 C1922.03124,866.393249 1924.78457,863.977581 1924.99397,860.789691 C1925.16375,858.173189 1923.55081,855.873495 1921.20779,855.010757 L1976.08467,663.796763 C1976.46102,663.881622 1976.84586,663.963653 1977.25051,663.99194 C1981.38757,664.260662 1984.95586,661.126516 1985.22751,656.991028 C1985.31523,655.64459 1985.01245,654.371697 1984.46066,653.234579 L2032.48676,626.441595 C2033.34417,627.717317 2034.74488,628.605513 2036.39461,628.713002 C2039.22151,628.899693 2041.66356,626.755575 2041.85033,623.929753 C2042.03426,621.101101 2039.89216,618.662804 2037.06526,618.476113 C2035.12124,618.348824 2033.38096,619.336023 2032.40753,620.871981 L2006.53252,607.407601 C2006.99942,606.406258 2007.31069,605.314399 2007.3871,604.146166 C2007.71534,599.074394 2003.87541,594.695642 1998.80171,594.367519 C1998.52722,594.347718 1998.26972,594.387319 1997.99806,594.392977 L1992.02168,507.196974 C1995.45697,506.767019 1998.21878,503.958169 1998.45365,500.371439 C1998.54137,499.033487 1998.23576,497.76908 1997.68114,496.646105 L2127.73251,422.98237 C2129.10492,425.134974 2131.42813,426.639816 2134.17013,426.818021 C2138.73731,427.11503 2142.68478,423.655589 2142.9819,419.087317 C2143.28185,414.521874 2139.81827,410.575906 2135.24826,410.278897 L2135.24826,410.278897 Z"></path>
            </g>
        </g>
    </g>
</svg>