<?xml version="1.0" encoding="UTF-8"?>
<svg width="75px" height="17px" viewBox="0 0 75 17" version="1.1" xmlns="http://www.w3.org/2000/svg" xmlns:xlink="http://www.w3.org/1999/xlink">
    <title>HOURS</title>
    <g id="Mobile-📱" stroke="none" stroke-width="1" fill="none" fill-rule="evenodd" fill-opacity="0.04">
        <g id="MILIPOLQATAR-Mobile-HOMEPAGE" transform="translate(-249.000000, -952.000000)" fill="#0B1626" fill-rule="nonzero">
            <g id="Group-8" transform="translate(1.000000, 581.000000)">
                <g id="DATE" transform="translate(-86.000000, 325.000000)">
                    <g id="Group-7-Copy-2" transform="translate(320.799994, 0.000000)">
                        <path d="M18.2024782,61.8653946 L18.2024782,55.4135728 L24.9790561,55.4135728 L24.9790561,61.8653946 L27.8152597,61.8653946 L27.8152597,49.3731087 C27.8152597,49.070003 27.988463,48.8967997 28.2915687,48.8967997 L29.2225363,48.8967997 L29.2225363,46.4936044 L26.4512839,46.4936044 C25.4337147,46.4936044 24.9790561,46.948263 24.9790561,47.9658322 L24.9790561,53.0103774 L18.2024782,53.0103774 L18.2024782,47.9658322 C18.2024782,46.948263 17.76947,46.4936044 16.7302504,46.4936044 L13.9589981,46.4936044 L13.9589981,48.8967997 L14.8899657,48.8967997 C15.1930714,48.8967997 15.3662747,49.070003 15.3662747,49.3731087 L15.3662747,61.8653946 L18.2024782,61.8653946 Z M38.5538624,62.1251995 C43.0787978,62.1251995 46.4995624,58.5961829 46.4995624,54.0712474 C46.4995624,49.6762145 43.0787978,46.2337995 38.5538624,46.2337995 C34.028927,46.2337995 30.6081624,49.6762145 30.6081624,54.0712474 C30.6081624,58.5961829 34.028927,62.1251995 38.5538624,62.1251995 Z M38.5538624,59.4838496 C35.7826101,59.4838496 33.552618,57.1456055 33.552618,54.0712474 C33.552618,51.1267918 35.7826101,48.8751493 38.5538624,48.8751493 C41.3251147,48.8751493 43.5551068,51.1267918 43.5551068,54.0712474 C43.5551068,57.1456055 41.3251147,59.4838496 38.5538624,59.4838496 Z M55.1813763,62.1251995 C58.7969946,62.1251995 61.2001899,59.7869553 61.2001899,56.3878412 L61.2001899,49.3731087 C61.2001899,49.070003 61.3733932,48.8967997 61.6764989,48.8967997 L62.6074665,48.8967997 L62.6074665,46.4936044 L59.8362142,46.4936044 C58.7969946,46.4936044 58.3639864,46.948263 58.3639864,47.9658322 L58.3639864,56.2795891 C58.3639864,58.3147275 57.0866123,59.4838496 55.1597259,59.4838496 C53.2328395,59.4838496 51.9554654,58.3147275 51.9554654,56.3012395 L51.9554654,47.9658322 C51.9554654,46.948263 51.5224572,46.4936044 50.4832376,46.4936044 L47.7119853,46.4936044 L47.7119853,48.8967997 L48.6429529,48.8967997 C48.9460586,48.8967997 49.1192619,49.070003 49.1192619,49.3731087 L49.1192619,56.3878412 C49.1192619,59.7869553 51.5224572,62.1251995 55.1813763,62.1251995 Z M68.1499711,61.8653946 L68.1499711,56.1280363 L69.5788981,56.1280363 C70.3799632,56.1280363 70.7047194,56.2362883 71.0294755,56.8424997 L72.9996627,60.7179229 C73.4976221,61.6921913 73.9955815,61.8653946 75.1430531,61.8653946 L76.6369313,61.8653946 L76.6369313,59.4621992 L76.355476,59.4621992 C75.879167,59.4621992 75.5111101,59.4188984 75.2729556,58.9642398 L73.7790774,55.9981338 C73.4976221,55.4352232 73.0213131,55.2187191 73.0213131,55.2187191 L73.0213131,55.1754183 C73.6708254,55.0455158 75.5760613,53.8980442 75.5760613,51.1267918 C75.5760613,48.2256371 73.6058741,46.4936044 70.791321,46.4936044 L63.906491,46.4936044 L63.906491,48.8967997 L65.3137676,48.8967997 L65.3137676,61.8653946 L68.1499711,61.8653946 Z M70.4016136,53.7031905 L68.1499711,53.7031905 L68.1499711,48.8967997 L70.4449145,48.8967997 C71.8305406,48.8967997 72.6749066,49.7628161 72.6749066,51.2783447 C72.6749066,52.8155237 71.8305406,53.7031905 70.4016136,53.7031905 Z M82.8289482,62.1251995 C86.0548591,62.1251995 87.9384447,60.0467602 87.9384447,57.6002641 C87.9384447,52.5557188 80.7072082,53.0753286 80.7072082,50.4556292 C80.7072082,49.4813608 81.6598262,48.8101981 82.9588507,48.8101981 C83.9764199,48.8101981 84.9939891,49.2865071 84.9939891,50.0009706 L84.9939891,50.6937837 L87.5487373,50.6937837 L87.5487373,49.2648567 C87.5487373,47.0781654 84.777485,46.2337995 82.9805011,46.2337995 C80.0143951,46.2337995 77.8493542,48.0740842 77.8493542,50.5638812 C77.8493542,55.3486215 85.0805907,55.1321175 85.0805907,57.7518169 C85.0805907,58.9425894 84.0413711,59.5704512 82.8722491,59.5704512 C80.7288586,59.5704512 79.1483788,57.7518169 79.1483788,57.7518169 L77.5462485,59.7436545 C77.5462485,59.7436545 79.4298341,62.1251995 82.8289482,62.1251995 Z" id="HOURS"></path>
                    </g>
                </g>
            </g>
        </g>
    </g>
</svg>