<?xml version="1.0" encoding="UTF-8"?>
<svg width="187px" height="40px" viewBox="0 0 187 40" version="1.1" xmlns="http://www.w3.org/2000/svg" xmlns:xlink="http://www.w3.org/1999/xlink">
    <title>HOURS</title>
    <g id="Rollover" stroke="none" stroke-width="1" fill="none" fill-rule="evenodd" fill-opacity="0.04">
        <g id="MILIPOLQATAR-HOMEPAGE01" transform="translate(-866.000000, -806.000000)" fill="#0B1626" fill-rule="nonzero">
            <g id="DATE-+-LINKS" transform="translate(-2.000000, 573.000000)">
                <g id="DATE" transform="translate(258.488932, 178.000000)">
                    <g id="Group-7-Copy-2" transform="translate(544.000000, 0.000000)">
                        <path d="M78.917,94 L78.917,79.16 L91.743,79.16 L91.743,94 L101.23,94 L101.23,65.221 C101.23,64.479 101.654,64.055 102.396,64.055 L104.675,64.055 L104.675,56.105 L95.612,56.105 C92.909,56.105 91.743,57.271 91.743,59.974 L91.743,71.263 L78.917,71.263 L78.917,59.974 C78.917,57.271 77.751,56.105 75.048,56.105 L65.985,56.105 L65.985,64.055 L68.264,64.055 C69.006,64.055 69.43,64.479 69.43,65.221 L69.43,94 L78.917,94 Z M127.253,94.636 C138.701,94.636 147.075,85.944 147.075,74.814 C147.075,63.949 138.701,55.469 127.253,55.469 C115.805,55.469 107.431,63.949 107.431,74.814 C107.431,85.944 115.805,94.636 127.253,94.636 Z M127.253,85.891 C121.741,85.891 117.289,81.121 117.289,74.814 C117.289,68.772 121.741,64.214 127.253,64.214 C132.765,64.214 137.217,68.772 137.217,74.814 C137.217,81.121 132.765,85.891 127.253,85.891 Z M168.487,94.636 C177.868,94.636 184.016,88.594 184.016,80.061 L184.016,65.221 C184.016,64.479 184.44,64.055 185.182,64.055 L187.461,64.055 L187.461,56.105 L178.398,56.105 C175.695,56.105 174.529,57.271 174.529,59.974 L174.529,79.796 C174.529,83.771 172.038,85.891 168.434,85.891 C164.83,85.891 162.339,83.771 162.339,79.796 L162.339,59.974 C162.339,57.271 161.173,56.105 158.47,56.105 L149.407,56.105 L149.407,64.055 L151.686,64.055 C152.428,64.055 152.852,64.479 152.852,65.221 L152.852,80.061 C152.852,88.594 159,94.636 168.487,94.636 Z M202.937,94 L202.937,81.227 L204.209,81.227 C206.17,81.227 206.965,81.492 207.601,82.658 L212.053,91.191 C213.272,93.523 214.756,94 217.406,94 L222.6,94 L222.6,86.05 L221.964,86.05 C220.904,86.05 219.95,85.944 219.367,84.831 L216.982,80.273 C216.134,78.63 214.65,77.994 214.65,77.994 L214.65,77.888 C214.65,77.888 220.215,75.609 220.215,68.03 C220.215,60.398 215.074,56.105 207.707,56.105 L190.005,56.105 L190.005,64.055 L193.45,64.055 L193.45,94 L202.937,94 Z M206.223,73.277 L202.937,73.277 L202.937,64.055 L206.382,64.055 C209.032,64.055 210.516,65.592 210.516,68.613 C210.516,71.634 209.032,73.277 206.223,73.277 Z M238.447,94.636 C246.98,94.636 251.909,89.23 251.909,82.923 C251.909,70.468 234.737,71.104 234.737,66.493 C234.737,64.744 236.698,63.949 238.606,63.949 C240.355,63.949 242.316,64.797 242.316,66.175 L242.316,67.818 L250.796,67.818 L250.796,63.684 C250.796,57.907 243.747,55.469 238.712,55.469 C231.186,55.469 225.197,60.027 225.197,66.864 C225.197,78.736 242.369,79.213 242.369,83.4 C242.369,85.52 240.461,86.209 238.553,86.209 C233.783,86.209 229.861,81.757 229.861,81.757 L224.614,88.382 C224.614,88.382 229.543,94.636 238.447,94.636 Z" id="HOURS"></path>
                    </g>
                </g>
            </g>
        </g>
    </g>
</svg>