<?xml version="1.0" encoding="UTF-8"?>
<svg width="140px" height="30px" viewBox="0 0 140 30" version="1.1" xmlns="http://www.w3.org/2000/svg" xmlns:xlink="http://www.w3.org/1999/xlink">
    <title>hours</title>
    <g id="Page-1" stroke="none" stroke-width="1" fill="none" fill-rule="evenodd">
        <g id="hours">
            <rect id="Rectangle" x="0" y="0" width="140" height="30"></rect>
            <path d="M35.0959,23 L35.0959,16.532 L40.6861,16.532 L40.6861,23 L44.821,23 L44.821,10.4567 C44.821,10.1333 45.0058,9.9485 45.3292,9.9485 L46.3225,9.9485 L46.3225,6.4835 L42.3724,6.4835 C41.1943,6.4835 40.6861,6.9917 40.6861,8.1698 L40.6861,13.0901 L35.0959,13.0901 L35.0959,8.1698 C35.0959,6.9917 34.5877,6.4835 33.4096,6.4835 L29.4595,6.4835 L29.4595,9.9485 L30.4528,9.9485 C30.7762,9.9485 30.961,10.1333 30.961,10.4567 L30.961,23 L35.0959,23 Z M56.1631,23.2772 C61.1527,23.2772 64.8025,19.4888 64.8025,14.6378 C64.8025,9.9023 61.1527,6.2063 56.1631,6.2063 C51.1735,6.2063 47.5237,9.9023 47.5237,14.6378 C47.5237,19.4888 51.1735,23.2772 56.1631,23.2772 Z M56.1631,19.4657 C53.7607,19.4657 51.8203,17.3867 51.8203,14.6378 C51.8203,12.0044 53.7607,10.0178 56.1631,10.0178 C58.5655,10.0178 60.5059,12.0044 60.5059,14.6378 C60.5059,17.3867 58.5655,19.4657 56.1631,19.4657 Z M74.1349,23.2772 C78.2236,23.2772 80.9032,20.6438 80.9032,16.9247 L80.9032,10.4567 C80.9032,10.1333 81.088,9.9485 81.4114,9.9485 L82.4047,9.9485 L82.4047,6.4835 L78.4546,6.4835 C77.2765,6.4835 76.7683,6.9917 76.7683,8.1698 L76.7683,16.8092 C76.7683,18.5417 75.6826,19.4657 74.1118,19.4657 C72.541,19.4657 71.4553,18.5417 71.4553,16.8092 L71.4553,8.1698 C71.4553,6.9917 70.9471,6.4835 69.769,6.4835 L65.8189,6.4835 L65.8189,9.9485 L66.8122,9.9485 C67.1356,9.9485 67.3204,10.1333 67.3204,10.4567 L67.3204,16.9247 C67.3204,20.6438 70,23.2772 74.1349,23.2772 Z M89.1499,23 L89.1499,17.4329 L89.7043,17.4329 C90.559,17.4329 90.9055,17.5484 91.1827,18.0566 L93.1231,21.7757 C93.6544,22.7921 94.3012,23 95.4562,23 L97.72,23 L97.72,19.535 L97.4428,19.535 C96.9808,19.535 96.565,19.4888 96.3109,19.0037 L95.2714,17.0171 C94.9018,16.301 94.255,16.0238 94.255,16.0238 L94.255,15.9776 C94.255,15.9776 96.6805,14.9843 96.6805,11.681 C96.6805,8.3546 94.4398,6.4835 91.2289,6.4835 L83.5135,6.4835 L83.5135,9.9485 L85.015,9.9485 L85.015,23 L89.1499,23 Z M90.5821,13.9679 L89.1499,13.9679 L89.1499,9.9485 L90.6514,9.9485 C91.8064,9.9485 92.4532,10.6184 92.4532,11.9351 C92.4532,13.2518 91.8064,13.9679 90.5821,13.9679 Z M104.6269,23.2772 C108.346,23.2772 110.4943,20.921 110.4943,18.1721 C110.4943,12.7436 103.0099,13.0208 103.0099,11.0111 C103.0099,10.2488 103.8646,9.9023 104.6962,9.9023 C105.4585,9.9023 106.3132,10.2719 106.3132,10.8725 L106.3132,11.5886 L110.0092,11.5886 L110.0092,9.7868 C110.0092,7.2689 106.9369,6.2063 104.7424,6.2063 C101.4622,6.2063 98.8519,8.1929 98.8519,11.1728 C98.8519,16.3472 106.3363,16.5551 106.3363,18.38 C106.3363,19.304 105.5047,19.6043 104.6731,19.6043 C102.5941,19.6043 100.8847,17.6639 100.8847,17.6639 L98.5978,20.5514 L98.6423156,20.6050326 C98.9678812,20.9867708 101.0695,23.2772 104.6269,23.2772 Z" id="HOURS" fill-opacity="0.04" fill="#0B1626" fill-rule="nonzero"></path>
        </g>
    </g>
</svg>