<?xml version="1.0" encoding="UTF-8"?>
<svg width="681px" height="540px" viewBox="0 0 681 540" version="1.1" xmlns="http://www.w3.org/2000/svg" xmlns:xlink="http://www.w3.org/1999/xlink">
    <!-- Generator: Sketch 61.2 (89653) - https://sketch.com -->
    <title>Fill 1</title>
    <desc>Created with Sketch.</desc>
    <g id="Desktop--🖥" stroke="none" stroke-width="1" fill="none" fill-rule="evenodd" opacity="0.346516927">
        <g id="MILIPOLQATAR-HOMEPAGE01" transform="translate(0.000000, -4818.000000)" fill="#FFFFFF">
            <g id="DATE-+-LINKS-Copy-5" transform="translate(0.000000, 4604.000000)">
                <g id="Group-20" transform="translate(-682.000000, 34.000000)">
                    <path d="M1257.35396,762.430343 C1256.46191,761.042421 1255.11959,759.980901 1253.51107,759.438788 L1285.24254,642.714241 C1285.5229,642.773845 1285.80043,642.839125 1286.09495,642.858993 C1288.70313,643.029291 1291.04228,641.607309 1292.1892,639.430343 L1387.19389,681.828672 C1386.89654,682.59501 1386.67566,683.398245 1386.61902,684.263922 C1386.51707,685.793759 1386.86823,687.235609 1387.51107,688.512838 L1257.35396,762.430343 Z M1257.51107,860.600463 C1255.29953,860.849244 1253.32738,861.889599 1251.85967,863.430343 L1214.73369,831.710811 C1215.48607,830.729824 1215.9677,829.528327 1216.05605,828.205266 C1216.20425,825.954932 1215.18112,823.896838 1213.51107,822.613356 L1247.63038,772.430343 C1248.60505,773.007062 1249.71082,773.391541 1250.92204,773.473525 C1251.11584,773.484833 1251.29823,773.453736 1251.48918,773.453736 L1257.51107,860.600463 Z M1292.44912,887.792848 C1292.23513,888.30366 1292.08027,888.842539 1292.04367,889.423518 C1291.98454,890.293582 1292.17319,891.113126 1292.51107,891.854085 L1244.72936,918.430343 C1243.95787,917.220673 1242.84287,916.246762 1241.51107,915.646137 L1255.91034,878.488772 C1256.64523,878.732952 1257.39982,878.918191 1258.20792,878.971518 C1261.79506,879.20447 1264.99928,877.326815 1266.69431,874.430343 L1292.44912,887.792848 Z M1180.41569,1121.43034 C1180.14863,1121.37667 1179.88726,1121.31451 1179.61169,1121.29756 C1179.12304,1121.26649 1178.65427,1121.31451 1178.19403,1121.39644 L1150.32957,1014.33911 L1139.51107,972.753578 C1144.08507,971.400353 1147.56528,967.368929 1147.892,962.354369 C1147.99427,960.783611 1147.77268,959.27218 1147.29539,957.868104 L1225.2494,928.631099 L1231.12457,926.430343 C1231.95983,928.297737 1233.52805,929.763966 1235.51107,930.453291 L1180.41569,1121.43034 Z M1075.88374,1102.28677 C1075.92053,1102.04958 1075.9856,1101.82368 1075.99975,1101.57801 C1076.17517,1098.87284 1074.73217,1096.45005 1072.51107,1095.20477 L1131.7932,972.430343 C1133.00703,972.96121 1134.31139,973.333947 1135.71196,973.424308 C1136.84373,973.497726 1137.9274,973.359361 1138.98277,973.127812 L1146.67881,1002.81122 L1177.51107,1121.69733 C1175.78229,1122.28185 1174.41851,1123.66549 1173.86111,1125.43034 L1075.88374,1102.28677 Z M1005.51107,1053.01073 C1005.74881,1052.58773 1005.92146,1052.12525 1005.95543,1051.60637 C1005.99222,1050.98879 1005.81674,1050.43043 1005.55635,1049.91719 L1127.52598,968.430343 C1128.5732,969.871365 1129.91477,971.081147 1131.51107,971.921508 L1072.21595,1094.51838 C1071.55083,1094.24766 1070.84891,1094.05026 1070.09321,1093.9995 C1067.83745,1093.85568 1065.77981,1094.82858 1064.42975,1096.43034 L1005.51107,1053.01073 Z M967.194816,1024.20816 C967.969965,1023.05486 968.483891,1021.70934 968.583269,1020.22531 C968.764989,1017.45795 967.532701,1014.92803 965.511068,1013.31398 L975.267152,999.807899 L1005.16575,958.430343 C1005.86423,958.860005 1006.65358,959.14833 1007.51107,959.261399 L1007.13627,965.420826 L1002.13614,1047.43816 C1001.28148,1047.4947 1000.52621,1047.84521 999.958337,1048.43034 L967.194816,1024.20816 Z M908.173712,1112.43034 C907.785358,1112.26371 907.365822,1112.14509 906.917939,1112.11684 C906.475725,1112.08578 906.047685,1112.14791 905.645157,1112.26371 L847.511068,967.904071 C849.608748,966.966396 851.35776,965.410193 852.519988,963.430343 L953.48077,1017.01058 C953.055565,1017.90589 952.777764,1018.88876 952.706896,1019.93658 C952.505633,1023.02074 954.070389,1025.78293 956.511068,1027.33631 L908.173712,1112.43034 Z M854.328356,1138.43034 C853.117634,1136.04039 850.741452,1134.31997 847.870231,1134.13069 C847.776881,1134.12787 847.68636,1134.14482 847.587352,1134.14199 L845.856134,1063.94358 L843.511068,969.003818 C844.552062,968.938843 845.567597,968.769343 846.51807,968.430343 L904.511068,1112.77935 C903.38521,1113.3839 902.581834,1114.52802 902.494142,1115.8925 C902.460196,1116.3784 902.530916,1116.84452 902.666698,1117.2824 L854.328356,1138.43034 Z M616.57365,1057.10929 C616.842436,1056.27087 617.046148,1055.40413 617.105564,1054.48073 C617.297958,1051.51794 616.287887,1048.76192 614.511068,1046.6602 L658.883455,1006.02517 C660.793253,1007.96826 663.362285,1009.27121 666.296301,1009.46665 C670.056481,1009.71025 673.4828,1008.09006 675.757581,1005.43034 L841.511068,1136.96594 C841.188524,1137.42197 840.922567,1137.90916 840.701879,1138.43034 L616.57365,1057.10929 Z M587.511068,1031.32128 C589.109809,1029.89829 590.177519,1027.87511 590.327225,1025.57014 C590.386542,1024.64309 590.256609,1023.75548 590.036288,1022.90168 L655.43214,1002.43034 C655.901028,1003.74907 656.61566,1004.95509 657.511068,1006.00614 L613.215208,1046.43034 C611.390497,1044.58468 608.938717,1043.34767 606.145157,1043.16733 C603.430687,1042.9898 600.908292,1043.85205 598.888681,1045.35958 L587.511068,1031.32128 Z M321.961003,1006.49205 C322.133619,1005.93607 322.263789,1005.36023 322.303406,1004.75036 C322.393959,1003.37743 322.082683,1002.08676 321.511068,1000.94076 L467.54459,917.430343 C469.228308,920.116632 472.109022,921.997319 475.507585,922.221413 C476.432922,922.278145 477.321473,922.17319 478.187385,922.000155 L516.511068,1078.28434 C515.964921,1078.51695 515.514986,1078.91408 515.220689,1079.43034 L321.961003,1006.49205 Z M254.638691,979.42763 C254.89961,978.686283 255.100971,977.916641 255.154857,977.093237 C255.242775,975.737874 254.990365,974.447592 254.511068,973.264832 L290.285316,956.861832 L352.298929,928.430343 C352.817931,929.383907 353.583671,930.176186 354.511068,930.753417 L344.604658,949.253127 L318.569491,997.873577 C317.755538,997.494415 316.86501,997.242584 315.914925,997.180333 C312.769718,996.976604 309.959168,998.750743 308.680098,1001.43034 L254.638691,979.42763 Z M150.986353,1032.43034 C150.353339,1031.50367 149.515943,1030.72719 148.511068,1030.19159 L198.431216,920.943272 C198.896751,921.113304 199.384996,921.243662 199.904465,921.277668 C201.093851,921.354183 202.206594,921.025454 203.137665,920.430343 L240.511068,969.640403 C238.734085,971.125348 237.536184,973.293255 237.371543,975.784222 C237.260836,977.476039 237.661083,979.071505 238.404804,980.462932 L150.986353,1032.43034 Z M217.298147,807.827751 C218.617039,807.895367 219.81706,807.340348 220.635,806.430343 L252.282744,829.298813 C251.841226,830.011603 251.546881,830.825819 251.487446,831.71892 C251.368576,833.536114 252.180855,835.195536 253.511068,836.24641 L240.268375,855.919999 L202.900716,911.430343 C202.470519,911.18805 202.00636,911.004922 201.511068,910.889411 L217.298147,807.827751 Z M179.511068,776.188402 C180.134413,775.189428 180.553754,774.047344 180.635922,772.793015 C180.655756,772.473119 180.621755,772.164447 180.601922,771.850163 L286.145561,759.430343 C286.224896,759.795136 286.346731,760.143093 286.511068,760.468602 L221.048511,800.430343 C220.334498,799.50994 219.252144,798.872955 217.988454,798.791577 C216.614261,798.704588 215.359071,799.291064 214.523222,800.256364 L179.511068,776.188402 Z M267.10202,724.430343 C268.057722,726.013732 269.742925,727.120978 271.7335,727.247762 C272.632651,727.309745 273.492218,727.143517 274.275441,726.830784 L287.511068,753.999155 C286.292406,754.734502 285.438495,756.027697 285.339532,757.554738 C285.328222,757.692791 285.350842,757.822393 285.350842,757.960446 L180.039814,770.430343 C179.935196,769.835867 179.74858,769.269566 179.511068,768.731439 L267.10202,724.430343 Z M327.23127,714.430343 C327.437507,715.37916 327.875407,716.24891 328.511068,716.949227 L293.094863,754.430343 C292.402699,753.888161 291.549501,753.540826 290.605897,753.478701 C289.94481,753.43352 289.311974,753.546474 288.727166,753.763911 L275.511068,726.547533 C277.146835,725.601539 278.29385,723.890279 278.426633,721.86557 C278.443584,721.608599 278.415332,721.362923 278.398381,721.111599 L327.23127,714.430343 Z M423.118837,686.430343 C423.756475,688.199672 424.960901,689.689187 426.511068,690.73213 L412.616242,713.572301 C412.023948,713.278355 411.366473,713.091813 410.666489,713.049416 C407.977076,712.871353 405.664578,714.813093 405.293332,717.430343 L375.50575,715.748632 L337.638595,713.611871 C337.630094,713.241612 337.590418,712.885485 337.511068,712.537837 L423.118837,686.430343 Z M474.511068,537.652391 C475.876246,537.24426 477.071837,536.470511 478.01022,535.430343 L504.516721,556.936598 L574.511068,613.732043 C573.643346,614.928095 573.075228,616.367892 572.973476,617.955069 C572.96217,618.142129 572.990435,618.320687 572.993261,618.507747 L553.59247,619.58476 L502.317738,622.430343 C501.910729,618.655128 498.866636,615.596977 494.954821,615.341895 C494.287778,615.296547 493.643346,615.364569 493.013046,615.480773 L474.511068,537.652391 Z M592.094357,295.074601 C594.720758,295.233293 597.055649,293.711546 598.098361,291.430343 L616.469157,298.537496 C616.267341,299.158096 616.11598,299.804201 616.073935,300.487145 C615.855302,303.84519 617.702472,306.84901 620.511068,308.248904 L608.542301,336.422474 L580.072333,403.430343 C579.570598,403.243312 579.052045,403.101623 578.511068,403.005274 L592.094357,295.074601 Z M775.739049,281.430343 C776.095451,283.294625 777.085458,284.941407 778.511068,286.113645 L657.300282,450.430343 C656.078331,449.619663 654.658378,449.071677 653.085681,448.969988 C652.519963,448.936092 651.962731,448.961514 651.419641,449.032131 L626.511068,309.369153 C629.874263,308.586719 632.493538,305.719679 632.728311,302.095628 C632.753768,301.694525 632.719825,301.301896 632.685882,300.906442 L775.739049,281.430343 Z M1255.44653,319.480263 C1255.3957,319.737335 1255.33076,319.991582 1255.31382,320.262779 C1255.21216,321.830635 1255.6809,323.288317 1256.51107,324.486103 L1137.42966,418.430343 C1136.00933,416.800337 1133.96497,415.715551 1131.64106,415.563002 C1130.24615,415.472604 1128.92747,415.76075 1127.73305,416.286194 L1066.3654,293.28718 L1055.51107,271.537767 C1056.28476,271.049048 1056.87774,270.311732 1057.20247,269.430343 L1255.44653,319.480263 Z M1347.51107,400.079977 C1346.70909,401.070438 1346.18484,402.29861 1346.09699,403.668276 C1346.06865,404.104079 1346.08565,404.531392 1346.13949,404.953045 L1299.97076,414.430343 C1299.26797,411.897592 1297.04909,409.950629 1294.27193,409.772346 C1293.57198,409.724238 1292.90036,409.823284 1292.25992,409.990247 L1274.33028,356.225192 L1264.51107,326.788689 C1265.29887,326.468912 1266.013,326.00764 1266.62227,325.430343 L1347.51107,400.079977 Z M1243.65216,554.430343 C1242.8487,554.169692 1242.01996,553.977037 1241.14066,553.917541 C1240.9412,553.903375 1240.75579,553.940206 1240.55633,553.937373 L1237.51107,452.099493 C1239.87929,451.830343 1241.79241,449.895296 1241.94973,447.413449 C1242.00592,446.5805 1241.83455,445.790049 1241.52553,445.07326 L1288.52199,419.538003 L1288.71864,419.430343 C1289.38163,420.49561 1290.35083,421.339892 1291.51107,421.85836 L1243.65216,554.430343 Z M1283.51107,631.497901 C1282.04594,632.58482 1281.0277,634.260485 1280.90042,636.224863 C1280.87779,636.581508 1280.90325,636.929662 1280.93719,637.272154 L1051.81937,675.430343 C1051.743,675.130308 1051.64118,674.844426 1051.51107,674.572696 L1231.69687,569.430343 C1233.4505,572.178774 1236.41753,574.103525 1239.91914,574.329966 C1242.11684,574.474323 1244.20423,573.933694 1245.97201,572.894895 L1283.51107,631.497901 Z M1008.87403,959.573893 C1011.83896,959.542925 1014.32486,957.355438 1014.70752,954.430343 L1125.77633,960.759134 C1125.7253,963.081755 1126.35174,965.269242 1127.51107,967.124524 L1005.43005,1048.43034 C1004.94818,1047.87854 1004.26506,1047.53789 1003.51107,1047.39713 L1007.50211,982.065312 L1008.87403,959.573893 Z M964.941499,1013.43034 C964.202172,1012.94837 963.394861,1012.56906 962.511068,1012.34661 L972.691684,960.15623 C972.921131,960.190453 973.139246,960.256048 973.377191,960.270307 C978.059594,960.578316 982.093316,957.090402 982.577703,952.430343 L1002.38373,953.536893 C1002.41206,955.333611 1003.21654,956.953509 1004.51107,958.042947 L1001.84269,961.77898 L964.941499,1013.43034 Z M846.511068,1133.82285 C844.442542,1133.98688 842.597565,1134.95126 841.281745,1136.43034 L675.511068,1005.10555 C676.767464,1003.39739 677.588083,1001.33571 677.735228,999.061937 C677.800312,998.057968 677.692782,997.090764 677.51168,996.146185 L832.011581,960.430343 C833.211382,964.833666 837.054143,968.213223 841.867497,968.52714 C842.057088,968.538453 842.24102,968.504516 842.430611,968.507344 L845.667811,1099.64831 L846.511068,1133.82285 Z M518.246528,1077.76081 C518.107823,1077.75514 517.986102,1077.80336 517.850228,1077.81755 L479.511068,921.492846 C480.937747,921.075806 482.254028,920.386414 483.355174,919.430343 L576.511068,1018.61775 C575.16648,1020.01355 574.263483,1021.8491 574.130439,1023.93713 C573.986073,1026.10744 574.699412,1028.12455 575.939264,1029.71611 L519.780773,1078.43034 C519.356167,1078.07004 518.843808,1077.80053 518.246528,1077.76081 L518.246528,1077.76081 Z M254.155484,972.430343 C253.014741,970.245817 250.99303,968.591215 248.511068,967.982367 L260.319446,907.864225 C260.457803,907.881137 260.584866,907.923418 260.726047,907.931875 C263.764262,908.129187 266.432582,906.201167 267.322022,903.430343 L351.217411,924.421519 C351.175057,924.655475 351.115761,924.880974 351.098819,925.123386 C351.039523,926.053571 351.197646,926.947112 351.511068,927.767366 L277.707296,961.623284 L254.155484,972.430343 Z M494.014843,630.581905 C494.433898,630.609993 494.838891,630.573478 495.243885,630.536964 L495.511068,632.373937 C492.313308,633.022776 489.804599,635.713633 489.579603,639.12355 C489.481167,640.654361 489.852411,642.106525 490.572399,643.336792 L465.412188,659.951008 L438.938561,677.430343 C438.795126,677.233725 438.671378,677.017445 438.511068,676.834871 L489.143673,628.430343 C490.431776,629.643756 492.110811,630.458316 494.014843,630.581905 L494.014843,630.581905 Z M495.39852,464.559773 C497.698353,464.709602 499.740127,463.397898 500.647583,461.430343 L556.870117,482.044443 L568.443009,486.287691 C568.366442,486.567558 568.315398,486.858734 568.295547,487.15839 C568.258682,487.740742 568.34092,488.303304 568.511068,488.831943 L534.447461,503.243721 L479.63999,526.430343 C478.792086,524.714386 477.33165,523.365932 475.511068,522.662022 L478.34403,513.966332 L494.493901,464.407118 C494.788824,464.480619 495.086582,464.537158 495.39852,464.559773 L495.39852,464.559773 Z M576.511068,420.414913 L572.778862,482.869035 C571.044935,482.928337 569.535566,483.933658 568.816413,485.430343 L525.638794,469.6502 L500.869223,460.599492 C500.971553,460.243677 501.036931,459.873741 501.062513,459.495334 C501.125049,458.529549 500.909018,457.620242 500.511068,456.806949 L569.976154,416.430343 C571.400248,418.601948 573.745313,420.1184 576.511068,420.414913 L576.511068,420.414913 Z M807.285677,265.77523 C808.591028,265.856994 809.789012,265.355129 810.65077,264.503649 L935.458719,368.136058 L970.511068,397.241438 C970.465861,397.300647 970.434781,397.371134 970.3924,397.430343 L790.968788,283.93825 C791.539526,282.92888 791.923785,281.792634 792.002898,280.554887 C792.127217,278.646106 791.542352,276.87266 790.511068,275.429092 L804.420685,264.430343 C805.152473,265.191599 806.149852,265.701923 807.285677,265.77523 L807.285677,265.77523 Z M1050.51107,270.915531 L980.319587,394.615834 C979.355232,394.135357 978.283412,393.830112 977.140892,393.756628 C974.544768,393.587047 972.177715,394.658229 970.540291,396.430343 L810.511068,263.349426 C810.892851,262.792637 811.147373,262.14258 811.235041,261.430343 L1048.76335,267.809386 C1048.8595,269.084064 1049.5156,270.20612 1050.51107,270.915531 L1050.51107,270.915531 Z M1127.51107,416.659155 C1125.39985,417.851924 1123.86957,419.937144 1123.39348,422.430343 L985.328265,403.164718 C985.333933,403.099555 985.35377,403.042891 985.359437,402.977728 C985.563475,399.849897 983.979352,397.042216 981.511068,395.466968 L1051.86708,271.430343 C1052.30917,271.622999 1052.77958,271.758992 1053.28401,271.790157 C1053.90462,271.829821 1054.49973,271.724994 1055.04383,271.518171 L1074.195,309.873764 L1127.51107,416.659155 Z M1240.33027,443.430343 C1239.67881,442.439726 1238.6945,441.680536 1237.51107,441.339041 L1261.0205,326.585568 C1261.17981,326.608146 1261.33343,326.656124 1261.50127,326.667413 C1262.24661,326.71257 1262.96634,326.608146 1263.65478,326.430343 L1291.51107,409.410708 C1289.31773,410.299722 1287.70473,412.345868 1287.53973,414.849221 C1287.46861,415.93015 1287.70188,416.957456 1288.12576,417.880338 L1279.09067,422.709241 L1240.33027,443.430343 Z M1253.62309,758.779456 C1253.27877,758.708728 1252.9373,758.626684 1252.5759,758.60688 C1250.03477,758.439962 1247.70706,759.57161 1246.24725,761.430343 L1207.46719,734.774364 C1208.00502,733.880362 1208.3721,732.870365 1208.44609,731.76135 C1208.57414,729.778136 1207.80867,727.96184 1206.51107,726.646299 L1283.61589,641.430343 C1284.17363,641.866027 1284.81674,642.194205 1285.51107,642.431852 L1270.51467,697.141395 L1253.62309,758.779456 Z M1143.51107,951.524041 L1177.51494,901.644719 C1178.75026,902.398883 1180.16448,902.910132 1181.71218,903.011817 C1185.33009,903.246258 1188.56748,901.350962 1190.26852,898.430343 L1231.51107,919.688159 C1231.15325,920.484692 1230.90619,921.340541 1230.84371,922.261355 C1230.78124,923.213239 1230.92039,924.131229 1231.19017,924.987078 L1147.37889,956.430343 C1146.54966,954.472906 1145.22347,952.772507 1143.51107,951.524041 L1143.51107,951.524041 Z M589.636812,1021.43034 C588.771611,1019.10932 586.896061,1017.27619 584.511068,1016.43013 L607.851559,940.42009 L619.136165,903.66724 C619.477691,903.749025 619.822064,903.81953 620.183513,903.842092 C621.136941,903.904136 622.047679,903.746205 622.887265,903.430343 L624.865272,907.748069 L661.511068,987.703568 C657.956346,989.466193 655.392051,992.954781 655.113138,997.17098 C655.027756,998.479553 655.215596,999.734542 655.545738,1000.93031 L594.156346,1020.02588 L589.636812,1021.43034 Z M256.004395,837.117804 C256.08307,837.123462 256.156126,837.109317 256.234801,837.109317 L259.511068,894.714627 C256.482066,895.085234 254.04594,897.571977 253.838012,900.749011 C253.804294,901.29219 253.854871,901.809908 253.944786,902.321968 L205.250355,914.430343 C204.924415,913.437343 204.314681,912.568822 203.511068,911.926625 L253.756527,836.430343 C254.428077,836.812266 255.183923,837.066881 256.004395,837.117804 L256.004395,837.117804 Z M405.511068,719.30268 L301.63435,753.960416 L294.232572,756.430343 C294.045829,756.014 293.813816,755.617349 293.511068,755.27696 L328.977923,717.9355 C329.82958,718.61909 330.884956,719.066378 332.059168,719.139519 C334.950842,719.330812 337.440736,717.243471 337.822709,714.430343 L405.369597,718.230879 C405.380914,718.599398 405.426185,718.956666 405.511068,719.30268 L405.511068,719.30268 Z M573.511068,619.187005 L543.701068,627.06723 L504.49594,637.430343 C503.590555,634.550422 501.049273,632.378253 497.910042,632.168229 C497.523632,632.142336 497.151324,632.17686 496.776196,632.211385 L496.511068,630.329798 C499.940811,629.630676 502.634401,626.68746 502.874145,622.955933 C502.885427,622.77468 502.854401,622.596303 502.854401,622.415049 L573.381324,618.430343 C573.409529,618.689277 573.460299,618.936703 573.511068,619.187005 L573.511068,619.187005 Z M479.973688,530.202885 C480.047529,529.104291 479.877127,528.053832 479.524962,527.082653 L568.506223,489.430343 C569.227593,490.763945 570.590812,491.712473 572.215314,491.817235 C572.280635,491.822898 572.337436,491.808741 572.399917,491.811573 L580.511068,609.794285 C578.528721,610.032125 576.765056,611.006135 575.478519,612.430343 L478.511068,534.203691 C479.334679,533.068289 479.877127,531.703541 479.973688,530.202885 L479.973688,530.202885 Z M623.884567,308.945508 C624.40604,308.979475 624.916116,308.951169 625.414793,308.891727 L650.511068,448.846831 C648.333987,449.342182 646.46466,450.630095 645.23934,452.430343 L584.452041,415.777187 C585.059002,414.673261 585.457944,413.439129 585.546281,412.103097 C585.791345,408.375225 583.691202,405.046465 580.511068,403.506631 L621.619148,308.430343 C622.334394,308.693587 623.083834,308.894558 623.884567,308.945508 L623.884567,308.945508 Z M1050.2202,673.430343 C1049.40513,672.279095 1048.10895,671.477737 1046.58636,671.376156 C1045.47414,671.305614 1044.43549,671.627286 1043.57798,672.20291 L987.511068,602.727377 C989.044977,601.361682 990.066639,599.420362 990.210974,597.210983 C990.239274,596.827234 990.199653,596.449128 990.171352,596.073844 L1229.41865,565.430343 C1229.6111,566.561839 1229.9875,567.631257 1230.51107,568.613204 L1093.97339,647.992851 L1050.2202,673.430343 Z M1280.87263,638.430343 C1281.14146,639.578116 1281.71024,640.612529 1282.51107,641.437225 L1205.83555,726.800383 C1204.80551,725.978521 1203.52362,725.445727 1202.10874,725.355039 C1199.18841,725.162327 1196.61049,726.885404 1195.52386,729.430343 L1051.51107,678.231153 C1051.58464,677.936416 1051.64124,677.638845 1051.66105,677.327104 C1051.67519,677.091881 1051.65539,676.862327 1051.63558,676.629938 L1149.02503,660.402408 L1280.87263,638.430343 Z M1210.47893,821.526107 C1210.27923,821.511889 1210.09095,821.543168 1209.89696,821.546012 L1208.69593,807.931291 L1202.51107,737.918413 C1204.23416,737.65681 1205.7604,736.749731 1206.80738,735.430343 L1245.69384,762.227571 C1245.08619,763.214269 1244.67539,764.343142 1244.59551,765.580068 C1244.42434,768.156287 1245.59684,770.505026 1247.51107,771.955215 L1213.36025,822.430343 C1212.50441,821.932729 1211.53446,821.597195 1210.47893,821.526107 L1210.47893,821.526107 Z M1249.56883,869.063255 C1249.5039,870.082479 1249.64505,871.059469 1249.89348,871.994226 L1191.19728,890.430343 C1190.37013,888.183547 1188.68762,886.345003 1186.51107,885.314518 L1207.99988,834.023935 C1208.53908,834.206945 1209.09522,834.347721 1209.68805,834.384323 C1211.66134,834.513838 1213.46525,833.733935 1214.74972,832.430343 L1251.51107,864.009372 C1250.40727,865.414323 1249.69587,867.148692 1249.56883,869.063255 L1249.56883,869.063255 Z M1238.30262,915.749551 C1235.39839,915.559994 1232.80121,917.079276 1231.41248,919.430343 L1190.51107,898.134937 C1190.96741,897.141887 1191.27445,896.055473 1191.35332,894.895501 C1191.41811,893.874159 1191.27445,892.892425 1191.02656,891.95313 L1249.59557,873.430343 C1250.4491,875.764435 1252.22938,877.651513 1254.51107,878.664367 L1240.10543,916.117347 C1239.52797,915.93062 1238.9336,915.791989 1238.30262,915.749551 L1238.30262,915.749551 Z M982.310039,952.331409 C982.338146,947.757238 978.855702,943.888311 974.265846,943.585254 C972.787424,943.486123 971.393322,943.806174 970.134133,944.386796 L938.511068,882.682221 C939.140662,882.322519 939.736528,881.90617 940.284613,881.430343 L1003.51107,950.125044 C1002.68473,951.011555 1002.13102,952.147309 1001.968,953.430343 L995.598978,953.076305 L982.310039,952.331409 Z M854.370769,959.430343 L884.088236,963.922592 L912.272336,968.187279 C912.258242,968.308083 912.218781,968.42046 912.210325,968.544074 C911.880538,973.578539 915.708321,977.924699 920.759417,978.2534 C922.943903,978.39668 924.973361,977.72804 926.630752,976.556515 L929.60729,980.360459 L955.511068,1013.45814 C954.865587,1014.01721 954.332855,1014.69147 953.887501,1015.43034 L853.511068,962.141425 C853.919778,961.301411 854.187554,960.379924 854.370769,959.430343 L854.370769,959.430343 Z M678.119256,995.430343 C677.197446,992.033897 674.762851,989.257549 671.511068,987.893333 L692.814486,931.723725 C693.408289,931.909755 694.021887,932.053505 694.672243,932.095784 C698.430173,932.341005 701.735681,929.900073 702.722526,926.430343 L727.580284,932.050686 L832.511068,955.783529 C832.434722,956.209142 832.327271,956.629117 832.296167,957.071642 C832.233959,958.024338 832.335754,958.940392 832.505413,959.836715 L767.944803,974.721887 L678.119256,995.430343 Z M584.119261,1016.66472 C583.632958,1016.54002 583.132518,1016.4465 582.612287,1016.40965 C580.319311,1016.25945 578.187494,1017.04732 576.564599,1018.43034 L483.511068,919.340078 C485.156582,917.653809 486.262073,915.426233 486.428886,912.892579 C486.45716,912.453299 486.409095,912.033857 486.383649,911.608747 L614.442521,898.430343 C614.827039,900.689093 616.387733,902.556742 618.511068,903.358783 L592.397723,989.395342 L584.119261,1016.66472 Z M266.979933,902.215105 C267.0223,901.967256 267.084439,901.727955 267.101386,901.47156 C267.174822,900.354818 266.937566,899.300751 266.511068,898.349242 L307.245829,876.430343 C308.344554,878.219408 310.239786,879.470045 312.479604,879.618184 C314.120632,879.726439 315.645855,879.202255 316.874507,878.282082 L352.426333,920.726803 L352.511068,920.826512 C351.779526,921.53872 351.220277,922.427555 350.898285,923.430343 L292.742085,908.730379 L266.979933,902.215105 Z M405.452993,720.430343 C406.021083,721.744371 407.12052,722.773599 408.511068,723.236046 L381.680844,833.261915 C381.358643,833.199879 381.044922,833.120925 380.708591,833.098366 C378.303395,832.943277 376.093215,833.870992 374.499173,835.430343 L293.511068,761.399251 C294.03111,760.714039 294.364616,759.882198 294.423968,758.965762 C294.455058,758.508954 294.392879,758.071885 294.293958,757.648914 L353.852929,737.707272 L405.452993,720.430343 Z M431.067297,691.573915 C433.486496,691.732698 435.738168,690.901922 437.43615,689.430343 L517.511068,773.284836 C517.181693,773.636427 516.889232,774.016373 516.633682,774.430343 L415.183495,719.593462 C415.416329,719.060405 415.581016,718.490487 415.620768,717.880873 C415.740025,716.060538 414.885355,714.415999 413.511068,713.415098 L427.42998,690.502129 C428.523163,691.097565 429.74412,691.488852 431.067297,691.573915 L431.067297,691.573915 Z M496.946675,647.399392 C499.242175,647.547426 501.336712,646.631294 502.808549,645.109062 L529.511068,667.559882 C528.704388,668.615668 528.180754,669.90328 528.087349,671.322167 C528.070366,671.590304 528.104331,671.85006 528.115653,672.11261 L452.115087,680.209765 L440.637589,681.430343 C440.459271,680.318695 440.077159,679.268495 439.511068,678.330018 L491.472574,644.430343 C492.734957,646.100608 494.67665,647.251359 496.946675,647.399392 L496.946675,647.399392 Z M573.659783,620.430343 C574.289942,622.448065 575.676855,624.135666 577.511068,625.137412 L560.201384,662.256098 C559.787842,662.102421 559.35742,661.98574 558.896054,661.954436 C557.011203,661.829217 555.323276,662.856577 554.473687,664.430343 L504.511068,642.517142 C504.750191,641.8569 504.935863,641.168199 504.980874,640.428273 C505.025885,639.756648 504.949929,639.107789 504.826147,638.47316 L534.9275,630.584408 L573.659783,620.430343 Z M576.252585,420.347163 C579.359126,420.383954 582.129671,418.844395 583.772636,416.430343 L644.511068,453.076953 C643.927346,454.14672 643.540096,455.343841 643.454673,456.640014 C643.38064,457.769213 643.542943,458.858791 643.876092,459.871957 L575.913741,485.430343 C575.273071,484.128509 574.028746,483.177605 572.511068,482.945539 L574.176812,455.097625 L576.252585,420.347163 Z M782.511068,287.698687 L770.901029,483.55757 C765.653121,483.436103 761.094161,486.701594 759.378881,491.430343 L660.425627,459.707616 C660.570221,459.162426 660.669452,458.603112 660.709145,458.021199 C660.899101,455.117284 659.614767,452.464778 657.511068,450.752937 L779.003957,286.430343 C780.03029,287.105475 781.215393,287.551796 782.511068,287.698687 L782.511068,287.698687 Z M969.511068,398.136557 C968.915376,399.187405 968.517307,400.368196 968.435435,401.653507 C968.345093,403.060286 968.641527,404.390795 969.186402,405.59136 L899.738888,441.430343 C898.722542,439.755202 896.943935,438.582885 894.840663,438.444467 C893.564584,438.359721 892.359084,438.670456 891.328622,439.266501 L788.511068,286.17893 C789.171693,285.687405 789.753269,285.105484 790.230387,284.430343 L925.065675,369.947292 L969.511068,398.136557 Z M1234.09972,555.430343 L1136.51107,429.621143 C1137.76748,428.539372 1138.70907,427.09417 1139.16002,425.430343 L1226.56126,444.572875 L1231.71169,445.702915 C1231.69751,445.816487 1231.66348,445.921541 1231.6578,446.035113 C1231.47345,448.82898 1233.58921,451.242381 1236.37997,451.426936 C1236.40266,451.426936 1236.41968,451.424096 1236.43953,451.424096 L1239.51107,553.482586 C1237.50592,553.624551 1235.65959,554.317339 1234.09972,555.430343 L1234.09972,555.430343 Z M1014.51107,952.340013 L1068.00205,930.430343 C1069.43054,933.497247 1072.4115,935.734878 1076.03204,935.97101 C1079.55678,936.198709 1082.72651,934.475508 1084.56918,931.748746 C1085.62294,933.100883 1087.2064,934.028544 1089.04907,934.155043 L1126.51107,956.022547 C1125.7926,957.352194 1125.33052,958.839263 1125.17837,960.430343 L1014.78719,954.111002 C1014.77873,953.495373 1014.69421,952.902232 1014.51107,952.340013 L1014.51107,952.340013 Z M960.835312,1011.97063 C959.701677,1011.89685 958.61003,1012.06428 957.599555,1012.43034 L940.511068,970.582601 C943.469713,969.175095 945.625018,966.257927 945.851745,962.713625 C945.910526,961.77718 945.792964,960.880463 945.594228,960.006447 L965.411835,954.430343 C966.32714,957.234002 968.611203,959.419041 971.511068,960.145495 L961.451113,1012.07563 C961.246779,1012.04441 961.050842,1011.98482 960.835312,1011.97063 L960.835312,1011.97063 Z M702.698067,925.103456 C702.746113,924.8359 702.813941,924.579611 702.833725,924.303606 C702.949598,922.523659 702.435232,920.861999 701.511068,919.484793 L734.857276,894.683816 C735.527083,895.401991 736.454073,895.883591 737.513894,895.951184 C738.878944,896.041308 740.128119,895.432971 740.910974,894.430343 L833.511068,951.853362 C833.044747,952.658844 832.657559,953.509389 832.41168,954.430343 L783.289683,943.325386 L702.698067,925.103456 Z M626.374944,899.430343 L687.138543,921.137767 C686.973757,921.691673 686.854429,922.268303 686.817494,922.870498 C686.593043,926.262105 688.570481,929.267399 691.511068,930.568367 L670.10587,987.169013 C669.176815,986.859394 668.213667,986.617948 667.188013,986.549775 C665.369679,986.433312 663.645103,986.782699 662.065426,987.430343 L623.511068,902.549258 C624.783902,901.867528 625.792509,900.773919 626.374944,899.430343 L626.374944,899.430343 Z M363.509625,923.430343 C363.016117,920.671516 360.676206,918.484539 357.706647,918.294852 C357.230156,918.264168 356.767847,918.297642 356.314046,918.36459 L350.511068,893.161354 C352.788581,892.505819 354.60662,890.73169 355.224924,888.430343 L466.511068,910.322429 C466.462852,910.620906 466.3806,910.911015 466.360746,911.220651 C466.329548,911.666973 466.377764,912.096558 466.406126,912.534511 L420.711219,917.371524 L363.509625,923.430343 Z M317.511068,878.416532 C318.111158,877.853872 318.605518,877.184307 318.959857,876.430343 L341.983319,885.264102 C341.811865,885.781749 341.686132,886.321903 341.646126,886.890189 C341.397517,890.645944 344.28938,893.889678 348.101382,894.134435 C348.635748,894.168194 349.155827,894.128808 349.661617,894.047223 L355.511068,919.468194 C354.799532,919.676379 354.150863,920.005535 353.565061,920.430343 L336.608225,900.669729 L317.511068,878.416532 Z M1122.51107,423.977645 L939.344314,443.430343 C939.20544,442.784952 938.922023,442.190738 938.511068,441.698876 L970.868789,408.118665 C972.195181,409.278662 973.87301,410.054836 975.766236,410.179934 C979.991983,410.452875 983.648063,407.496019 984.421792,403.430343 L1122.50823,422.760786 C1122.50257,422.831864 1122.47989,422.89157 1122.47422,422.959805 C1122.45155,423.306667 1122.49123,423.639313 1122.51107,423.977645 L1122.51107,423.977645 Z M990.901891,595.430343 C990.591027,593.713593 989.73474,592.191671 988.511068,591.0227 L1093.43032,468.755091 L1126.3112,430.430343 C1127.59422,431.424251 1129.17963,432.059561 1130.91764,432.175329 C1132.90716,432.305214 1134.75821,431.703787 1136.27014,430.644937 L1233.51107,555.758736 C1231.38307,557.551723 1229.95027,560.157908 1229.75527,563.150926 C1229.71853,563.701528 1229.76658,564.232366 1229.81179,564.76885 L1145.17497,575.628423 L990.901891,595.430343 Z M1203.33687,826.430343 L1060.34524,788.15461 L1003.51107,772.939218 C1003.60155,772.521541 1003.69485,772.103863 1003.72313,771.669138 C1003.76271,771.055408 1003.73726,770.455884 1003.65809,769.870568 L1194.5577,733.430343 C1195.2589,736.177922 1197.61981,738.297563 1200.59144,738.490775 C1200.79501,738.504982 1200.99293,738.476568 1201.19368,738.470885 L1208.51107,822.040468 C1206.09927,822.409842 1204.10876,824.123172 1203.33687,826.430343 L1203.33687,826.430343 Z M1184.99737,885.228598 C1184.19764,884.934705 1183.35834,884.711458 1182.46253,884.65494 C1179.20142,884.442998 1176.24551,885.97181 1174.45388,888.430343 L1002.51107,775.216312 C1002.84453,774.656783 1003.11864,774.063344 1003.32211,773.430343 L1046.0019,784.801764 L1203.03519,826.633562 C1202.97867,826.9105 1202.91368,827.181786 1202.8939,827.470028 C1202.71586,830.180066 1204.21925,832.61034 1206.51107,833.746352 L1195.60303,859.84919 L1184.99737,885.228598 Z M1137.31012,949.846397 C1133.27742,949.57843 1129.58902,951.422841 1127.2947,954.430343 L1094.51107,930.854949 C1095.03032,930.005437 1095.38026,929.036194 1095.44798,927.972878 C1095.49596,927.228842 1095.39154,926.516164 1095.19682,925.837695 L1117.86627,917.61909 L1173.5451,897.430343 C1174.17724,898.97828 1175.19035,900.326667 1176.51107,901.324416 L1142.71715,951.665151 C1141.13116,950.655999 1139.31094,949.97753 1137.31012,949.846397 L1137.31012,949.846397 Z M930.693696,969.447809 C930.716208,969.099127 930.673998,968.767593 930.659928,968.430343 C932.199183,969.962258 934.230888,970.994014 936.54962,971.14549 C937.877825,971.236948 939.152565,971.025452 940.328815,970.593887 L956.824453,1011.0553 L957.511068,1012.73869 C957.100225,1012.93876 956.711893,1013.1674 956.34326,1013.43034 L927.511068,975.889854 C929.314839,974.320784 930.52767,972.045776 930.693696,969.447809 L930.693696,969.447809 Z M853.564916,956.856531 L938.148304,951.430343 C938.210654,951.8685 938.343857,952.274739 938.511068,952.669371 C938.032107,952.559106 937.547478,952.451743 937.040176,952.416922 C931.867963,952.07162 927.398605,956.087579 927.061348,961.386092 C927.035841,961.769117 927.078353,962.137633 927.098191,962.509052 C925.584788,961.011772 923.592423,960.001979 921.325152,959.85109 C916.660241,959.537706 912.61883,962.857256 911.728926,967.430343 L853.511068,958.385729 C853.530907,958.205823 853.587588,958.040426 853.598925,957.860521 C853.621597,957.521021 853.573418,957.193128 853.564916,956.856531 L853.564916,956.856531 Z M260.818769,835.430343 L263.685443,837.524425 L307.511068,869.527957 C306.917378,870.443065 306.518758,871.501335 306.442426,872.666273 C306.366094,873.797527 306.609225,874.867025 307.053079,875.829854 L266.277889,897.430343 C265.20642,895.715216 263.360327,894.5194 261.180637,894.376239 C261.053418,894.367817 260.931853,894.393081 260.804633,894.390274 L257.511068,837.229682 C258.82284,837.055643 259.981949,836.390365 260.818769,835.430343 L260.818769,835.430343 Z M533.511068,679.23057 L522.802425,771.690842 C520.839647,771.577335 519.013213,772.249866 517.624214,773.430343 L437.511068,689.50015 C438.894386,688.052931 439.826066,686.157358 439.96525,684.000717 C439.990815,683.626143 439.948207,683.265757 439.928324,682.899696 L527.727833,673.430343 C528.222078,676.367346 530.520033,678.705598 533.511068,679.23057 L533.511068,679.23057 Z M577.982756,625.056039 C578.774473,625.3787 579.61443,625.616451 580.51398,625.675888 C583.780167,625.888166 586.708668,624.127679 588.167243,621.430343 L613.638393,633.448067 L713.511068,680.567963 C713.267026,681.159509 713.093927,681.779359 712.988932,682.430343 L562.843653,666.135939 C562.877706,664.381113 561.946942,662.830074 560.511068,661.986625 L570.162069,641.591024 L577.982756,625.056039 Z M575.892408,491.430343 L624.094015,533.898447 L653.511068,559.817084 C652.885294,560.645688 652.483212,561.658113 652.409592,562.76669 C652.33314,563.951622 652.644611,565.068683 653.225081,566.004752 L587.994486,613.430343 C586.624012,611.744854 584.599448,610.593857 582.254918,610.443973 C582.034057,610.429833 581.818858,610.460941 581.597997,610.463769 L573.511068,492.606792 C574.422829,492.456907 575.24115,492.038363 575.892408,491.430343 L575.892408,491.430343 Z M644.017852,460.430343 C645.281658,463.311862 648.03931,465.425543 651.404725,465.646545 C651.600686,465.657878 651.785287,465.626711 651.978408,465.626711 L656.511068,556.905999 C655.301223,557.059 654.216338,557.611504 653.372854,558.430343 L602.760989,513.88154 L575.511068,489.900043 C576.00523,489.228539 576.326152,488.415366 576.385792,487.520027 C576.419872,486.99869 576.346032,486.50002 576.215391,486.021184 L583.289862,483.349332 L644.017852,460.430343 Z M783.11799,287.540912 C784.631566,287.552216 786.065779,287.165071 787.287411,286.430343 L890.511068,439.567398 C889.153384,440.62145 888.218028,442.206766 888.096148,444.054889 C888.042294,444.882871 888.161339,445.68542 888.410768,446.428625 L781.264283,490.430343 C779.535291,486.646495 775.921415,483.885614 771.511068,483.47021 L780.737083,327.719219 L783.11799,287.540912 Z M1042.93239,673.430343 L1032.82678,667.421735 L1003.06322,649.71408 C1003.44429,648.976379 1003.68423,648.148576 1003.74069,647.26446 C1003.96651,643.789942 1001.33002,640.788454 997.843866,640.560386 C997.234142,640.520967 996.649823,640.596989 996.076795,640.720878 L985.511068,604.545342 C986.261932,604.283486 986.939403,603.886479 987.574532,603.430343 L1043.51107,672.777111 C1043.29936,672.977022 1043.10741,673.193828 1042.93239,673.430343 L1042.93239,673.430343 Z M1194.31037,732.17253 L1003.44013,768.430343 C1002.89458,766.157516 1001.47277,764.22957 999.511068,763.030965 L1035.92693,696.262425 L1044.3306,680.852996 C1044.83374,681.070667 1045.37081,681.226146 1045.95027,681.262896 C1048.02222,681.398587 1049.85672,680.208463 1050.6708,678.430343 L1194.51107,729.498283 C1194.38387,729.94776 1194.29624,730.414198 1194.26232,730.903252 C1194.23406,731.33294 1194.25667,731.756975 1194.31037,732.17253 L1194.31037,732.17253 Z M1094.6897,925.430343 C1094.06583,923.995546 1092.9423,922.839737 1091.51107,922.196356 L1166.51107,899.430343 L1128.39002,913.228876 L1094.6897,925.430343 Z M1090.51107,933.667387 C1092.03013,933.402512 1093.36359,932.593491 1094.31158,931.430343 L1127.51107,955.260477 C1127.4768,955.318059 1127.44254,955.372761 1127.40542,955.430343 L1118.71079,950.302704 L1090.51107,933.667387 Z M965.164942,951.430343 L947.714849,951.054461 C947.555148,948.628312 945.641598,946.63215 943.146283,946.472685 C942.969473,946.461295 942.798365,946.484076 942.624406,946.486923 L934.511068,883.364353 C935.537712,883.196345 936.50732,882.863177 937.425596,882.430343 L969.511068,944.467981 C967.084196,945.877539 965.375975,948.423286 965.164942,951.430343 L965.164942,951.430343 Z M477.511068,902.841303 L479.263037,889.187515 C479.370938,889.196041 479.47316,889.23299 479.5839,889.241516 C485.711532,889.642262 491.007192,885.333531 492.086201,879.430343 L614.502549,897.461074 C614.502549,897.492338 614.491191,897.523602 614.488352,897.56055 C614.474154,897.782239 614.502549,897.995402 614.511068,898.214249 L485.927334,911.430343 C485.305484,907.078979 481.915126,903.594478 477.511068,902.841303 L477.511068,902.841303 Z M761.511068,502.705668 L725.203137,533.430343 C723.746189,531.871273 721.727357,530.828134 719.428993,530.678711 C717.31416,530.537746 715.351798,531.200281 713.764967,532.356191 L658.511068,463.858605 C659.547308,462.939515 660.329429,461.758231 660.829196,460.430343 L759.370823,492.091023 C759.144939,492.886064 758.992468,493.709298 758.935997,494.563545 C758.735526,497.628118 759.746354,500.472787 761.511068,502.705668 L761.511068,502.705668 Z M982.951813,588.752373 C982.090753,588.695684 981.266514,588.811895 980.473433,589.007469 L937.511068,447.493929 C938.856474,446.921379 939.844994,445.640226 939.946961,444.081301 C939.952626,443.9906 939.938464,443.908402 939.938464,443.823369 L1122.96471,424.430343 C1123.25928,426.301053 1124.18266,427.962016 1125.51107,429.223328 L987.39307,590.430343 C986.155296,589.472313 984.628614,588.862915 982.951813,588.752373 L982.951813,588.752373 Z M1042.51107,674.612411 C1042.38619,674.873575 1042.27834,675.146219 1042.19887,675.430343 L1039.9113,674.994113 L984.864878,664.513112 C984.881907,664.378225 984.921641,664.251948 984.932994,664.117061 C985.043683,662.38075 984.484562,660.767847 983.511068,659.490726 L991.446608,652.459387 L992.726625,651.322892 C993.779588,652.384768 995.184485,653.099382 996.785216,653.20557 C999.09833,653.360546 1001.18155,652.226922 1002.41048,650.430343 L1025.51323,664.363875 L1042.51107,674.612411 Z M998.848718,763.430343 C997.862608,762.950623 996.777886,762.635541 995.617093,762.561738 C994.783126,762.504967 993.98015,762.612833 993.199714,762.783147 L986.511068,737.746895 C988.567812,737.017381 990.103327,735.107019 990.25547,732.776547 C990.345629,731.345904 989.886383,730.023127 989.083407,728.970014 L1042.88559,680.430343 C1043.08,680.617689 1043.28567,680.782326 1043.51107,680.93561 L1018.13422,727.811875 L998.848718,763.430343 Z M944.511068,957.130259 C946.328592,956.710728 947.749412,955.100083 947.87602,953.058172 L947.87602,953.052304 L964.897724,952.442078 L965.322563,952.430343 C965.356325,952.849873 965.423849,953.257669 965.511068,953.662531 L945.594267,959.430343 C945.335425,958.605951 944.961229,957.843168 944.511068,957.130259 L944.511068,957.130259 Z M853.789026,956.430343 C853.324577,951.840859 850.005464,948.028967 845.511068,946.921743 L861.265527,871.433324 C861.344823,871.441776 861.421287,871.467132 861.503415,871.472767 C862.741003,871.551653 863.890798,871.145953 864.788544,870.430343 L939.511068,948.088131 C938.825722,948.862906 938.366937,949.848983 938.293305,950.964659 C938.287641,951.032276 938.301801,951.097075 938.298969,951.161874 L930.400499,951.654913 L853.789026,956.430343 Z M741.869592,891.665432 L825.473465,870.430343 C826.503869,873.764708 829.479337,876.292964 833.177499,876.535361 C833.530377,876.557909 833.866317,876.515631 834.210726,876.498719 L841.511068,946.703605 C838.402918,947.14612 835.718221,948.918999 834.010292,951.430343 L741.511068,893.962565 C741.728441,893.511594 741.869592,893.021163 741.903468,892.491273 C741.923229,892.209416 741.909114,891.936015 741.869592,891.665432 L741.869592,891.665432 Z M695.528342,916.611533 C694.126575,916.518045 692.801424,916.832505 691.620989,917.3991 L654.511068,849.886492 C655.087097,849.50404 655.575162,849.011103 655.958236,848.430343 L734.269873,890.941954 C734.108131,891.335737 733.988952,891.752185 733.957739,892.199795 C733.903825,893.035522 734.113806,893.828755 734.511068,894.497337 L701.047442,919.430343 C699.716615,917.832545 697.767195,916.756015 695.528342,916.611533 L695.528342,916.611533 Z M624.511068,891.772644 L635.203931,873.541578 L649.342555,849.430343 C649.912616,849.707256 650.544762,849.885272 651.213595,849.930482 C652.071507,849.984169 652.878623,849.806154 653.609541,849.478379 L690.511068,916.805039 C689.148003,917.655559 688.075612,918.918622 687.443466,920.430343 L627.087628,898.833933 C627.208977,898.404434 627.293639,897.957982 627.324682,897.491751 C627.477075,895.135162 626.328488,893.013102 624.511068,891.772644 L624.511068,891.772644 Z M355.570709,887.027187 L469.565167,878.430343 C470.147379,883.741333 474.191629,888.04546 479.511068,888.92397 L477.758749,902.623586 C477.687747,902.617882 477.619586,902.595063 477.545744,902.592211 C472.501792,902.258491 468.099694,905.66129 466.949468,910.430343 L355.511068,888.04546 C355.533788,887.882879 355.579229,887.731707 355.59059,887.563421 C355.60195,887.380873 355.573549,887.206883 355.570709,887.027187 L355.570709,887.027187 Z M319.990086,872.980636 C320.057712,871.952611 319.868922,870.972598 319.511068,870.077312 L373.380848,844.430343 C373.91622,845.416004 374.631929,846.29152 375.511068,846.980636 L352.098368,880.487479 C351.182599,879.925455 350.14003,879.544182 348.996023,879.470751 C346.099374,879.281527 343.523949,880.939359 342.371489,883.430343 L319.67168,874.565038 C319.832292,874.059498 319.953455,873.534188 319.990086,872.980636 L319.990086,872.980636 Z M262.245392,832.430343 L372.895823,840.753033 C372.867471,841.903597 373.088619,843.003771 373.511068,844.008765 L319.304349,869.430343 C318.232633,867.532333 316.250809,866.185809 313.8919,866.031841 C311.677587,865.89187 309.658905,866.838075 308.334853,868.397355 L261.511068,834.398339 C261.879647,833.810459 262.131983,833.146996 262.245392,832.430343 L262.245392,832.430343 Z M588.511068,613.869052 L653.800401,566.430343 C654.735697,567.522253 656.084791,568.25208 657.629446,568.353916 C658.527898,568.410492 659.381001,568.232278 660.154746,567.895653 L717.511068,677.168755 C716.198819,677.943842 715.121812,679.075355 714.393414,680.430343 L589.205454,621.322899 C589.531391,620.530839 589.769466,619.693519 589.828985,618.793966 C589.945189,616.977886 589.432193,615.280616 588.511068,613.869052 L588.511068,613.869052 Z M652.511068,466.055446 C654.094662,465.902562 655.54724,465.322168 656.777659,464.430343 L712.511068,533.219773 C710.844876,534.689161 709.736929,536.78141 709.580279,539.165273 C709.506226,540.297749 709.668573,541.390588 709.998963,542.409817 L661.901555,560.430343 C661.072731,558.675005 659.355272,557.395307 657.267548,557.25941 C657.199191,557.256578 657.130834,557.270734 657.05963,557.267903 L653.288624,481.612837 L652.511068,466.055446 Z M888.525775,447.430343 C888.789086,447.956362 889.111854,448.448627 889.511068,448.879007 L837.647285,503.146236 C836.973435,502.623029 836.141033,502.288289 835.223691,502.226405 C833.100215,502.088571 831.231556,503.469724 830.687946,505.430343 L782.108473,496.988711 C782.150942,496.701791 782.23305,496.431749 782.252869,496.136391 C782.366121,494.406433 782.08016,492.746798 781.511068,491.222185 L800.489283,483.455659 L888.525775,447.430343 Z M1173.50822,896.255212 L1090.30574,921.175854 C1090.09044,921.139206 1089.8808,921.082824 1089.657,921.068729 C1088.03658,920.964423 1086.52947,921.497228 1085.35098,922.430343 C1084.05918,919.01644 1080.87216,916.484909 1076.97691,916.231192 C1075.297,916.121248 1073.70774,916.490547 1072.28278,917.15585 L1023.39814,824.233432 L999.511068,778.823739 C1000.54508,778.217638 1001.43178,777.397286 1002.14001,776.430343 L1174.51107,889.373845 C1173.79151,890.574772 1173.30425,891.942025 1173.20793,893.436135 C1173.14561,894.414355 1173.27875,895.353108 1173.50822,896.255212 L1173.50822,896.255212 Z M943.93073,876.323798 C944.2186,875.44466 944.438737,874.531491 944.500827,873.567275 C944.768941,869.41831 942.728446,865.686226 939.511068,863.539428 L942.753847,858.199372 L991.183857,778.430343 C992.267605,779.023052 993.475533,779.41441 994.787885,779.502324 C996.300617,779.601582 997.731504,779.272614 999.01281,778.671397 L1071.51107,917.827629 C1069.73304,918.868415 1068.34167,920.490567 1067.52886,922.430343 L1012.35929,901.850001 L943.93073,876.323798 Z M516.259395,781.430343 C516.971936,782.826457 518.097297,783.981373 519.511068,784.682268 L486.669173,862.362427 L485.246919,865.719345 C484.155488,865.299375 483.007506,864.98156 481.777526,864.902107 C476.492851,864.555916 471.83589,867.748251 469.97254,872.430343 L388.700513,843.211253 C388.875821,842.626701 389.00306,842.025123 389.042646,841.392331 C389.121817,840.1835 388.915406,839.028584 388.511068,837.964472 L443.800815,813.498415 L516.259395,781.430343 Z M716.511068,691.134748 L680.108446,752.791073 C679.262991,752.355819 678.324225,752.081665 677.317597,752.013833 C675.027235,751.864038 672.94046,752.833468 671.526656,754.430343 L562.511068,669.06396 C562.82776,668.575005 563.056796,668.026698 563.175556,667.430343 L712.753177,683.698681 C712.575038,686.779378 714.104774,689.543526 716.511068,691.134748 L716.511068,691.134748 Z M761.772077,503.430343 C763.715286,505.575824 766.425625,507.008984 769.511068,507.295615 L767.962706,535.246474 C764.454213,535.260664 761.504145,537.905623 761.109299,541.430343 L727.299158,539.673659 C727.304799,537.678588 726.647662,535.836765 725.511068,534.346848 L746.358962,516.569999 L761.772077,503.430343 Z M1042.51107,679.682176 L988.118616,728.430343 C987.187199,727.535149 985.962401,726.933601 984.572397,726.842371 C984.401495,726.830967 984.239138,726.856626 984.071084,726.859477 L978.511068,670.476501 C981.174293,670.046009 983.353295,668.064608 984.016965,665.430343 L1041.55402,676.275306 C1041.54832,676.332325 1041.52838,676.380791 1041.52553,676.44066 C1041.44863,677.65516 1041.83316,678.778429 1042.51107,679.682176 L1042.51107,679.682176 Z M940.487893,947.430343 L865.511068,869.714204 C866.070851,869.079798 866.454459,868.304413 866.613585,867.430343 L875.044428,868.177532 L922.216803,872.342055 C921.907075,878.412615 926.550148,883.628841 932.685029,884.023583 C933.276069,884.063057 933.85006,884.015124 934.421209,883.964372 L942.511068,946.480144 C941.75806,946.64086 941.070408,946.965112 940.487893,947.430343 L940.487893,947.430343 Z M947.612998,951.606343 L958.511068,951.855343 L947.511068,952.254343 C947.55637,952.041343 947.590347,951.825343 947.612998,951.606343 L947.612998,951.606343 Z M621.475402,890.762008 C621.14829,890.742269 620.832362,890.770468 620.516433,890.795848 L611.511068,831.252048 C612.503587,830.98415 613.342336,830.324275 613.842789,829.430343 L629.203073,836.000888 L646.632271,843.451265 C646.500867,843.854522 646.400217,844.266238 646.372259,844.708975 C646.252038,846.541959 647.121541,848.200105 648.511068,849.189917 L623.918957,891.430343 C623.178062,891.055286 622.353292,890.818408 621.475402,890.762008 L621.475402,890.762008 Z M492.511068,873.231699 L549.009102,851.589478 L606.85535,829.430343 C607.453303,830.6005 608.615361,831.441195 610.014344,831.532081 C610.15255,831.543442 610.285115,831.52356 610.423321,831.51788 L613.61616,852.594904 L619.511068,891.494099 C617.091053,892.033734 615.164631,893.939499 614.637192,896.430343 L493.035686,878.4122 C493.05543,878.227587 493.111841,878.060016 493.125943,877.872564 C493.230303,876.247977 493.00184,874.680194 492.511068,873.231699 L492.511068,873.231699 Z M519.839258,785.370112 C520.468197,785.593852 521.122634,785.766613 521.8224,785.811928 C524.584634,785.993185 527.057895,784.6026 528.454594,782.430343 L592.036963,818.138065 L606.511068,826.26633 C606.34675,826.657166 606.227762,827.073492 606.199431,827.520972 C606.171101,827.942962 606.227762,828.347959 606.329752,828.735963 L491.434997,872.430343 C490.29044,869.719977 488.196809,867.505237 485.511068,866.250596 L492.505893,849.770326 L519.839258,785.370112 Z M934.511068,447.592094 L910.644343,515.925627 L902.435748,539.430343 C902.125351,539.348109 901.800844,539.28856 901.465051,539.265875 C901.383219,539.260204 901.304209,539.277218 901.216733,539.274382 L895.511068,450.475952 C898.386475,450.093139 900.686236,447.722534 900.88094,444.705401 C900.883762,444.694058 900.88094,444.682716 900.88094,444.671373 L932.264921,444.430343 C932.420119,445.819812 933.28641,447.00795 934.511068,447.592094 L934.511068,447.592094 Z M975.678245,592.430343 L960.727395,582.847111 L904.97827,547.114175 C905.318966,546.481134 905.540418,545.77744 905.588683,545.017225 C905.733479,542.795927 904.441675,540.826151 902.511068,539.969849 L934.789118,448.430343 C935.004892,448.478386 935.220666,448.523603 935.447796,448.537734 C935.79417,448.560342 936.132026,448.523603 936.458526,448.46143 L979.511068,589.533612 C977.963743,590.09035 976.635031,591.110564 975.678245,592.430343 L975.678245,592.430343 Z M978.0957,656.827053 C975.914528,656.821418 973.938107,657.818782 972.684005,659.430343 L885.511068,601.202859 C886.113947,600.205495 886.520606,599.075712 886.600232,597.838868 C886.603076,597.805059 886.594544,597.77125 886.597388,597.737441 L974.336235,597.430343 C974.552362,601.326826 977.546852,604.535859 981.511068,604.997915 L979.557398,634.651192 L978.0957,656.827053 Z M989.118832,764.430343 L978.590541,754.574025 C979.661773,753.226371 980.367688,751.543931 980.485798,749.668563 C980.664337,746.820048 979.472247,744.226877 977.511068,742.516066 L981.999257,736.430343 C982.760107,736.94387 983.639066,737.287167 984.611416,737.349585 C985.086604,737.383631 985.542564,737.329725 985.987537,737.24461 L992.511068,762.262747 C991.211855,762.696834 990.063714,763.448683 989.118832,764.430343 L989.118832,764.430343 Z M934.046813,861.00434 C932.008729,860.874447 930.080889,861.340369 928.370707,862.187499 L907.158804,823.304224 L880.511068,774.441757 C882.910975,772.981869 884.595716,770.434831 884.830336,767.430343 L903.633851,768.02051 L986.697787,770.629671 C986.745842,773.546623 988.218577,776.133193 990.511068,777.689089 L938.756172,862.430343 C937.345626,861.645336 935.768302,861.117291 934.046813,861.00434 L934.046813,861.00434 Z M739.511068,888.19634 L751.61737,850.420364 C752.11237,850.549465 752.618685,850.639274 753.1448,850.675759 C756.810634,850.911508 760.032381,848.680312 761.248668,845.430343 L825.511068,865.401654 C825.375296,865.920863 825.276296,866.456911 825.242353,867.009799 C825.18861,867.795629 825.279125,868.547781 825.429039,869.283093 L741.643814,890.430343 C741.270442,889.431216 740.501069,888.62574 739.511068,888.19634 L739.511068,888.19634 Z M656.948382,844.889629 L662.390829,844.738595 L745.31126,842.430343 C745.562363,845.610601 747.616329,848.300712 750.511068,849.400694 L747.2298,859.824874 L738.424265,887.786069 C738.246518,887.751873 738.074414,887.709128 737.888203,887.697729 C736.443655,887.603689 735.140176,888.310413 734.369939,889.430343 L656.511068,846.673537 C656.748064,846.137794 656.911704,845.559307 656.951204,844.940923 C656.951204,844.920975 656.948382,844.903877 656.948382,844.889629 L656.948382,844.889629 Z M761.170492,542.186921 C761.198568,545.07293 762.956136,547.567328 765.511068,548.597437 L723.770223,676.430343 C723.239584,676.279941 722.680868,676.186295 722.108114,676.146566 C722.015462,676.140891 721.925619,676.160755 721.835775,676.157917 L719.511068,548.242716 C723.674764,547.961777 727.094442,544.706858 727.518392,540.430343 L745.363607,541.36113 L761.170492,542.186921 Z M831.511068,508.020106 L824.999267,511.500538 L774.632709,538.430343 C773.557727,536.634451 771.700429,535.372474 769.511068,535.112655 L771.053188,506.983685 C776.810814,507.103602 781.735469,503.043574 782.903316,497.430343 L831.187448,505.998658 C831.187448,506.018644 831.18182,506.035775 831.179005,506.05005 C831.13398,506.752418 831.266242,507.411958 831.511068,508.020106 L831.511068,508.020106 Z M894.349294,450.85298 C894.480517,450.861448 894.606034,450.841689 894.737257,450.841689 L897.093565,486.949565 L900.511068,539.242756 C899.053352,539.454458 897.79247,540.270216 896.982311,541.430343 L839.192857,508.574208 C839.40966,508.105641 839.555146,507.597557 839.592231,507.0556 C839.669253,505.853133 839.252763,504.729702 838.511068,503.888539 L890.769189,449.430343 C891.750508,450.237633 892.980011,450.765476 894.349294,450.85298 L894.349294,450.85298 Z M975.511068,593.077351 C975.439992,593.199759 975.351858,593.305088 975.289312,593.430343 L958.961795,586.176924 L897.270903,558.771639 C897.438642,558.304778 897.563735,557.820837 897.597851,557.302736 C897.720102,555.42106 896.881408,553.704493 895.511068,552.622743 L898.061265,548.799611 C898.715162,549.166836 899.448663,549.408807 900.244712,549.462894 C902.047192,549.579609 903.693306,548.762603 904.713954,547.430343 L920.089056,557.34259 L975.511068,593.077351 Z M862.185506,861.727283 C861.690791,861.696111 861.215978,861.761289 860.758225,861.871809 L839.511068,798.997455 C840.381084,798.640391 841.151588,798.10763 841.791306,797.430343 L910.60787,854.48116 L924.511068,866.009212 C923.325458,867.53665 922.574856,869.398481 922.313282,871.430343 L866.643627,866.496632 C866.643627,864.000021 864.718788,861.894479 862.185506,861.727283 L862.185506,861.727283 Z M613.511068,824.880907 L672.275584,764.430343 C672.928773,764.99409 673.680504,765.433812 674.511068,765.732598 L652.74466,839.83147 C652.516607,839.786371 652.291369,839.729996 652.054869,839.715902 C649.988313,839.580603 648.135733,840.708096 647.229152,842.430343 L614.226198,828.418417 C614.307846,828.147819 614.366971,827.863127 614.383864,827.569979 C614.451435,826.552416 614.110763,825.60814 613.511068,824.880907 L613.511068,824.880907 Z M530.20763,777.927294 L669.782353,760.430343 C670.0277,761.760802 670.6312,762.966707 671.511068,763.937659 L612.661426,824.629237 C612.074848,824.167822 611.350084,823.873423 610.549179,823.819638 C609.175795,823.731884 607.932135,824.385791 607.184811,825.430343 L529.511068,781.629933 C529.917161,780.797689 530.176609,779.87486 530.241471,778.892585 C530.264032,778.564216 530.227371,778.250001 530.20763,777.927294 L530.20763,777.927294 Z M721.027593,693.005262 C723.57242,693.175037 725.897914,692.145069 727.540101,690.430343 L758.511068,717.537738 C757.763086,718.522433 757.285052,719.730664 757.197881,721.057738 C757.136018,721.99433 757.285052,722.891307 757.585932,723.717545 L683.853434,756.430343 C683.305101,755.360761 682.500879,754.455295 681.511068,753.784684 L717.712288,692.057352 C718.713347,692.586484 719.829696,692.928864 721.027593,693.005262 L721.027593,693.005262 Z M831.895676,509.430343 C832.63083,510.54682 833.851356,511.330911 835.287604,511.424661 C836.556383,511.507047 837.728656,511.035456 838.588702,510.228638 L855.778254,525.367843 L888.511068,554.197388 C888.028534,554.842275 887.702114,555.603638 887.534647,556.430343 L775.1412,542.98432 C775.212161,541.811025 774.962379,540.70307 774.511068,539.70307 L797.215697,527.722956 L831.895676,509.430343 Z M972.511068,660.889681 C971.992115,661.772214 971.640475,662.770722 971.566744,663.862573 C971.544058,664.244439 971.56958,664.617818 971.609281,664.988369 L914.459267,674.430343 C913.815539,671.675255 911.461819,669.533981 908.484222,669.341634 C907.690196,669.28789 906.924529,669.401035 906.204234,669.616011 L882.511068,604.795079 C883.724793,604.274611 884.791057,603.474108 885.585082,602.430343 L936.045428,636.36827 L972.511068,660.889681 Z M982.247851,727.430343 L958.511068,681.716328 C960.263989,680.608645 961.491035,678.689419 961.63572,676.428492 C961.70528,675.309418 961.479905,674.25299 961.068107,673.293377 L972.133772,667.430343 C973.221697,669.284075 975.141563,670.582542 977.409231,670.730613 C977.63739,670.747698 977.854418,670.716376 978.079794,670.707833 L983.511068,727.028843 C983.068664,727.108574 982.648519,727.248102 982.247851,727.430343 L982.247851,727.430343 Z M884.511068,766.088876 L961.26583,751.799525 L963.24123,751.430343 C964.090256,755.064926 967.158069,757.883875 971.032457,758.138582 C973.607835,758.307433 975.968127,757.291466 977.663348,755.577202 L988.511068,765.522224 C987.407334,766.87303 986.688493,768.555813 986.538498,770.430343 L884.550689,767.187836 C884.545029,766.821516 884.559179,766.44661 884.511068,766.088876 L884.511068,766.088876 Z M924.936512,865.430343 L842.511068,796.801662 C843.221974,795.826355 843.68647,794.64975 843.771439,793.354067 C843.862073,791.993174 843.527862,790.697491 842.887763,789.600271 L850.583108,784.414703 L868.375584,772.430343 C869.905023,774.491528 872.264325,775.91763 875.028645,776.096247 C876.654382,776.203985 878.192318,775.83541 879.560317,775.169139 L927.511068,863.26142 C926.539591,863.8398 925.689902,864.591126 924.936512,865.430343 L924.936512,865.430343 Z M761.193991,844.289323 C761.318674,843.805327 761.409353,843.31001 761.443357,842.79488 C761.545371,841.24949 761.182656,839.794672 760.511068,838.515338 L831.815617,796.430343 C832.864088,797.964411 834.538808,799.037127 836.511068,799.257897 L833.694364,858.763912 C829.996377,858.769573 826.805624,861.084828 825.575796,864.430343 L770.097496,847.071591 L761.193991,844.289323 Z M653.511068,840.246929 L661.055359,814.532239 L675.344602,765.848401 C675.714614,765.930484 676.08745,766.012568 676.477234,766.035211 C678.347065,766.159751 680.084145,765.53139 681.43144,764.430343 L747.511068,836.52488 C746.200491,837.860855 745.316416,839.635551 745.186489,841.656496 C745.178015,841.769714 745.200611,841.877272 745.197787,841.98766 L656.736669,844.430343 C656.52483,842.525446 655.26227,840.926239 653.511068,840.246929 L653.511068,840.246929 Z M896.048704,542.48928 C895.776108,543.063033 895.600056,543.690752 895.554624,544.358236 C895.438202,546.12494 896.224755,547.741104 897.511068,548.766473 L894.961159,552.581075 C894.268311,552.189106 893.487437,551.927793 892.638414,551.873826 C891.022715,551.768733 889.540474,552.385091 888.464288,553.430343 L838.511068,509.461587 C838.519587,509.450225 838.522426,509.438864 838.530945,509.430343 L868.573297,526.699725 L896.048704,542.48928 Z M972.524319,740.607538 C970.319646,740.463185 968.271636,741.179287 966.653736,742.430343 L934.030842,704.751486 L912.511068,679.894535 C912.664882,679.750183 912.810151,679.594508 912.949724,679.430343 L980.471396,728.86403 C979.987166,729.63391 979.659598,730.511347 979.596933,731.482189 C979.480148,733.290842 980.243523,734.93533 981.511068,736.053355 L976.85391,742.130316 C975.606304,741.278352 974.145067,740.712264 972.524319,740.607538 L972.524319,740.607538 Z M757.4362,723.99235 C758.45119,725.957948 760.407866,727.367245 762.753622,727.52415 C765.615331,727.709584 768.138709,725.980771 769.164977,723.430343 L784.511068,728.596814 C784.30807,729.321432 784.16146,730.068873 784.110711,730.8534 C784.051503,731.780569 784.150182,732.673504 784.316528,733.549322 L689.846299,755.958284 L683.649219,757.430343 C683.604109,757.27629 683.564637,757.122237 683.511068,756.97389 L690.787985,753.72452 L757.4362,723.99235 Z M727.511068,689.449392 C728.522383,688.182174 729.171098,686.612839 729.287243,684.881255 C729.298574,684.707817 729.267413,684.542771 729.270246,684.37213 L901.343932,676.430343 C901.377926,676.718474 901.440248,676.987023 901.511068,677.261167 L769.38574,718.430343 C768.493404,716.170052 766.357461,714.497214 763.745605,714.32937 C761.785297,714.203488 759.989293,714.964378 758.706027,716.242785 L741.590159,701.542505 L727.511068,689.449392 Z M767.776469,548.935089 C770.512821,549.110326 772.964255,547.663205 774.244981,545.430343 L872.375661,594.115219 C872.048427,594.884002 871.814285,595.709313 871.757866,596.591153 C871.667594,597.936523 871.966618,599.211233 872.511068,600.344622 L854.933529,610.005285 L728.604313,679.430343 C727.662105,677.895603 726.226225,676.711338 724.511068,676.044306 L766.453428,548.708976 C766.879397,548.822032 767.31947,548.903998 767.776469,548.935089 L767.776469,548.935089 Z M960.338012,672.462345 C959.25104,670.646995 957.335499,669.372569 955.080103,669.22247 C951.431586,668.984577 948.28302,671.759994 948.024619,675.430343 L914.522303,675.166961 C914.516685,675.073503 914.519494,674.977213 914.511068,674.883755 L971.117848,665.430343 C971.210536,665.846655 971.342545,666.248808 971.511068,666.6368 L969.418578,667.724311 L960.338012,672.462345 Z M837.494976,786.850936 C836.123839,786.760031 834.825755,787.109444 833.72997,787.771341 L801.511068,740.217072 C802.83444,739.222807 803.938654,737.950148 804.677607,736.430343 L866.842358,764.244193 C866.519242,765.087898 866.274797,765.974214 866.212984,766.925867 C866.089357,768.860423 866.583865,770.687029 867.511068,772.22956 L842.229331,789.430343 C841.122307,787.978716 839.447722,786.97877 837.494976,786.850936 L837.494976,786.850936 Z M785.471236,734.430343 C786.331643,737.528632 788.553418,740.057675 791.511068,741.312284 L756.339096,834.954832 C755.724923,834.759419 755.088109,834.612151 754.417331,834.566838 C752.263483,834.428066 750.2653,835.153077 748.722794,836.430343 L682.511068,764.300234 C683.646013,763.124923 684.41019,761.57861 684.523402,759.819892 C684.563026,759.244981 684.512081,758.68423 684.418681,758.140472 L762.678938,739.780132 L785.471236,734.430343 Z M756.511068,835.474683 L781.085112,770.225662 L791.901222,741.501769 C792.741336,741.780283 793.612777,741.99059 794.535478,742.053113 C796.850775,742.200896 799.029375,741.578503 800.857691,740.430343 L833.511068,787.999406 C832.08145,789.121988 831.098944,790.80444 830.970791,792.756881 C830.893899,793.987458 831.175836,795.146986 831.699839,796.170099 L760.039546,838.430343 C759.17665,837.137242 757.963468,836.105603 756.511068,835.474683 L756.511068,835.474683 Z M876.206707,757.457827 C872.44326,757.212584 869.071485,759.281647 867.484934,762.430343 L804.689874,734.830625 C805.087221,733.838377 805.379556,732.789751 805.453349,731.667834 C805.569715,729.897573 805.195073,728.220336 804.511068,726.706594 L851.491706,703.535346 L902.380539,678.430343 C903.08725,679.645283 904.191307,680.595248 905.511068,681.156206 L878.23034,757.841196 C877.583231,757.646692 876.910579,757.505748 876.206707,757.457827 L876.206707,757.457827 Z M769.513896,719.102673 L901.437527,677.430343 C901.460155,677.486974 901.48844,677.535111 901.511068,677.591743 L803.976226,726.085343 C802.298931,723.030071 799.167792,720.855419 795.431356,720.609072 C790.690806,720.30043 786.52161,723.199966 784.923513,727.430343 L769.511068,722.299524 C769.612894,721.903103 769.689263,721.495356 769.714719,721.070619 C769.759975,720.388209 769.669463,719.734114 769.513896,719.102673 L769.513896,719.102673 Z M980.260933,728.430343 L914.237497,680.007077 L913.511068,679.474491 C914.085454,678.585914 914.474009,677.559985 914.552847,676.430343 L948.140359,676.693833 C948.320558,679.995865 950.925005,682.720462 954.320641,682.941906 C955.45252,683.017589 956.522455,682.776524 957.488212,682.339243 L981.511068,727.348353 C981.04086,727.645479 980.624148,728.012683 980.260933,728.430343 L980.260933,728.430343 Z M873.176629,601.430343 C874.430078,603.433655 876.585329,604.837106 879.129092,605.001219 C880.067761,605.063469 880.969563,604.927651 881.823156,604.670163 L905.511068,669.509018 C903.33313,670.468231 901.730871,672.547941 901.566391,675.086036 C901.560719,675.193559 901.577735,675.292593 901.577735,675.397286 L729.316451,683.430343 C729.220032,682.428686 728.936446,681.480791 728.511068,680.606464 L812.894822,634.422751 L873.176629,601.430343 Z M890.511068,562.01828 L881.549208,589.83395 C881.090352,589.715574 880.620166,589.631019 880.130153,589.597197 C877.124927,589.402722 874.434103,590.989531 873.04054,593.430343 L774.511068,544.884683 C774.706507,544.42527 774.848129,543.937671 774.938767,543.430343 L887.112133,556.767434 C887.015829,559.115236 888.432052,561.169914 890.511068,562.01828 L890.511068,562.01828 Z M965.511068,742.662059 C963.989583,744.092997 962.96769,746.061945 962.820083,748.304123 C962.783181,748.884385 962.80589,749.450563 962.879693,750.002658 L883.910069,764.430343 C883.243,761.585368 881.230439,759.250235 878.511068,758.154497 L905.795612,681.523264 C906.235594,681.647203 906.689769,681.731708 907.163813,681.759876 C908.813035,681.869731 910.340198,681.345805 911.557954,680.430343 L926.565588,697.736805 L965.511068,742.662059 Z M860.511068,862.641169 C858.909118,863.342024 857.733586,864.860542 857.612575,866.709545 C857.609694,866.738035 857.615456,866.769374 857.615456,866.797864 L842.44879,867.430343 C842.071352,863.302138 838.786777,859.940314 834.511068,859.535756 L837.374986,799.646867 C837.931059,799.63832 838.466963,799.567095 838.982699,799.430343 L842.543869,809.886183 L860.511068,862.641169 Z M974.960318,596.12414 L887.368451,596.430343 C887.192438,593.449779 885.261976,590.91307 882.511068,589.868047 L891.499071,562.127177 C891.797157,562.194598 892.095243,562.253591 892.407524,562.276064 C894.616199,562.419334 896.594923,561.239469 897.585704,559.430343 L975.511068,593.640805 C975.227176,594.379625 975.00858,595.154965 974.954641,595.989298 C974.951802,596.037055 974.960318,596.079193 974.960318,596.12414 L974.960318,596.12414 Z M558.564518,670.917863 C560.031798,671.016467 561.371612,670.422023 562.303532,669.430343 L671.511068,754.520417 C670.797256,755.545904 670.321382,756.754513 670.233571,758.092718 C670.213743,758.402618 670.247734,758.706883 670.267562,759.011148 L530.074365,776.430343 C529.612653,773.93424 527.873445,771.874814 525.511068,770.970469 L557.839376,670.799537 C558.074481,670.853065 558.315251,670.903776 558.564518,670.917863 L558.564518,670.917863 Z M352.511068,881.978428 L376.103532,848.199099 C377.213465,848.89649 378.485204,849.366161 379.881846,849.457249 C383.455774,849.693508 386.609573,847.567178 387.918216,844.430343 L469.511068,873.746371 C469.22152,874.657249 469.00294,875.602285 468.93765,876.601403 C468.912101,877.028377 468.966037,877.438272 468.983069,877.85386 L355.043191,886.430343 C354.799063,884.642745 353.865129,883.065788 352.511068,881.978428 L352.511068,881.978428 Z M843.400129,946.245913 C842.905493,946.211864 842.430988,946.265775 841.950732,946.296986 L834.511068,875.606438 C838.519916,875.002075 841.712041,871.724899 841.988117,867.570971 C841.996744,867.395053 841.967986,867.230485 841.970862,867.060242 L857.106135,866.430343 C857.350577,868.294503 858.696446,869.835202 860.511068,870.377142 L844.510183,946.430343 C844.142082,946.36792 843.782609,946.271449 843.400129,946.245913 L843.400129,946.245913 Z M660.511068,567.539394 C661.952331,566.63467 662.962062,565.090158 663.080522,563.260981 C663.122829,562.6071 663.029754,561.975767 662.854884,561.378254 L701.754898,546.725115 L710.498376,543.430343 C711.756308,546.319258 714.511914,548.435916 717.873922,548.655755 C717.975459,548.664211 718.074176,548.644482 718.178534,548.6473 L718.990831,592.925204 L720.511068,675.68909 C719.478773,675.759551 718.502889,676.01603 717.603156,676.430343 L701.856435,646.399721 L660.511068,567.539394 Z M990.348628,647.177602 C990.243645,648.764511 990.760048,650.235855 991.662336,651.40842 L982.446517,659.430343 C981.416548,658.398711 980.057441,657.702501 978.511068,657.502375 L979.055845,649.20986 L981.918764,605.650199 C982.596899,605.661473 983.252334,605.579732 983.887908,605.430343 L994.511068,641.664292 C992.2213,642.498617 990.516033,644.604161 990.348628,647.177602 L990.348628,647.177602 Z M541.738638,672.930165 C541.775576,672.360995 541.727272,671.808732 541.633506,671.270556 L553.851519,668.430343 C554.28057,669.709566 555.25517,670.740834 556.511068,671.270556 L524.090713,771.430343 C523.903181,771.382442 523.704283,771.368354 523.511068,771.334542 L534.22314,679.526335 C538.124379,679.740478 541.482912,676.804464 541.738638,672.930165 L541.738638,672.930165 Z M970.511068,407.911968 L955.102968,423.835183 L938.08388,441.421678 C937.47017,440.941995 936.711556,440.632613 935.876229,440.578685 C933.708355,440.436766 931.841653,442.046118 931.625718,444.189082 L900.002604,444.430343 C899.94862,443.726429 899.778145,443.059414 899.511068,442.434974 L969.383092,406.430343 C969.69847,406.969632 970.087722,407.45783 970.511068,407.911968 L970.511068,407.911968 Z M409.823088,722.746866 C411.724826,722.871623 413.434127,721.921764 414.410466,720.430343 L515.511068,775.261333 C515.131852,776.069423 514.879985,776.948397 514.817726,777.892586 C514.749807,778.967203 514.925265,779.996454 515.279011,780.940642 L387.423892,837.430343 C386.430573,835.462574 384.681653,833.937128 382.511068,833.284986 L409.370293,722.67031 C409.520281,722.695828 409.66744,722.735524 409.823088,722.746866 L409.823088,722.746866 Z M290.072805,762.589859 C291.343851,762.67429 292.524311,762.221178 293.404702,761.430343 L374.511068,835.318562 C373.562737,836.461193 372.937121,837.871187 372.736132,839.430343 L262.254151,831.066064 C262.245658,829.090382 261.161447,827.348293 259.511068,826.436441 L288.886683,762.333752 C289.263185,762.466027 289.653841,762.56453 290.072805,762.589859 L290.072805,762.589859 Z M1013.98088,951.430343 C1013.06986,949.599944 1011.25628,948.277206 1009.0704,948.133369 C1007.52759,948.034657 1006.09196,948.545138 1004.97786,949.444826 L941.511068,881.020632 C942.532087,880.00249 943.34439,878.789745 943.908489,877.430343 L1067.42645,923.27774 C1067.18953,924.016668 1067.01184,924.778159 1066.95825,925.584775 C1066.87082,926.944178 1067.07671,928.249994 1067.51107,929.457098 L1064.25904,930.791117 L1013.98088,951.430343 Z M503.511068,644.597556 C503.785779,644.232266 504.035002,643.844147 504.241743,643.430343 L529.257458,654.357623 L554.511068,665.390495 C554.389289,665.767199 554.292998,666.158173 554.264677,666.571977 C554.244853,666.905874 554.259013,667.234063 554.304326,667.553691 L542.123573,670.430343 C541.296608,667.64216 538.844031,665.521771 535.793887,665.322003 C533.616021,665.179312 531.627905,666.061143 530.226028,667.530861 L507.583591,648.090632 L503.511068,644.597556 Z M1260.51107,326.438253 L1239.77872,428.478131 L1237.05018,441.90301 C1236.965,441.89165 1236.88267,441.86609 1236.79181,441.85757 C1234.40398,441.701367 1232.30576,443.23499 1231.63002,445.430343 L1138.9449,425.143921 C1138.99033,424.868437 1139.06415,424.598633 1139.08402,424.308949 C1139.21463,422.289679 1138.59567,420.412411 1137.51107,418.881628 L1257.25443,324.430343 C1258.10905,325.381757 1259.22772,326.094608 1260.51107,326.438253 L1260.51107,326.438253 Z M221.658476,801.608337 L287.153209,761.430343 C287.52173,761.912783 287.978129,762.319049 288.511068,762.62657 L259.091732,826.89274 C258.623994,826.720641 258.136412,826.590862 257.617647,826.559827 C255.862919,826.446976 254.264104,827.194618 253.203896,828.430343 L221.511068,805.535573 C221.831398,804.988242 222.044006,804.373201 222.089363,803.704555 C222.137554,802.954092 221.967467,802.243127 221.658476,801.608337 L221.658476,801.608337 Z M246.738624,968.003789 C246.507792,967.972716 246.28822,967.904919 246.048943,967.88797 C244.022123,967.755202 242.13324,968.359721 240.579345,969.430343 L203.511068,920.368196 C204.518848,919.469891 205.188824,918.19023 205.284535,916.732603 C205.30987,916.317348 205.278905,915.916218 205.214159,915.520738 L253.998579,903.430343 C254.660111,905.523563 256.346312,907.181755 258.511068,907.752377 L251.172292,945.308874 L246.738624,968.003789 Z M321.881416,1000.43034 C321.27472,999.498772 320.467673,998.724809 319.511068,998.142226 L355.275101,931.378734 C355.943878,931.677062 356.669091,931.885329 357.445098,931.935988 C360.913142,932.161141 363.909939,929.540923 364.135687,926.079196 C364.149796,925.856857 364.118756,925.640147 364.11029,925.420623 L466.461342,914.430343 C466.630653,915.550479 467.003136,916.59744 467.511068,917.574041 L423.876916,942.397159 L321.881416,1000.43034 Z M1395.75933,676.70924 C1392.34951,676.485777 1389.28774,678.364001 1387.83043,681.226596 L1292.91577,638.98069 C1293.12234,638.412131 1293.28363,637.820943 1293.32608,637.190154 C1293.55529,633.65434 1290.87271,630.602225 1287.33555,630.370276 C1286.065,630.285416 1284.86237,630.590911 1283.82386,631.165127 L1246.25359,572.572446 C1248.79751,570.793224 1250.56892,567.95043 1250.78681,564.612621 C1251.09525,559.945347 1248.30797,555.832488 1244.2077,554.14944 L1292.41774,421.788364 C1292.85352,421.915653 1293.30627,422.00617 1293.77884,422.034457 C1297.28204,422.263577 1300.30701,419.610302 1300.53622,416.105604 C1300.56452,415.669991 1300.54754,415.242865 1300.49378,414.827053 L1346.59567,405.348243 C1347.30027,407.888372 1349.51878,409.837312 1352.29757,410.015518 C1355.81209,410.244638 1358.84555,407.585706 1359.07476,404.07535 C1359.30397,400.564994 1356.64403,397.53268 1353.12951,397.30073 C1351.28452,397.181927 1349.58669,397.869289 1348.34444,399.048837 L1267.57274,324.431846 C1268.42449,323.385245 1268.97912,322.086894 1269.0725,320.644282 C1269.31303,316.947235 1266.51443,313.756517 1262.81598,313.516081 C1259.68347,313.312418 1256.93015,315.303789 1256.01331,318.166384 L1057.35807,268.053999 C1057.37505,267.940853 1057.40335,267.833364 1057.41183,267.717389 C1057.56464,265.403553 1055.81021,263.406525 1053.49832,263.256606 C1051.27133,263.109517 1049.35561,264.730334 1049.07546,266.914052 L811.403958,260.524129 C811.253982,258.360211 809.547658,256.583818 807.323493,256.439557 C804.898418,256.283981 802.807251,258.116947 802.648786,260.541101 C802.586532,261.519815 802.858186,262.436298 803.356217,263.205691 L789.453774,274.21763 C788.101165,272.684501 786.162803,271.660529 783.961276,271.516268 C779.538415,271.227746 775.718285,274.576869 775.429653,278.99805 C775.404185,279.402548 775.440972,279.790073 775.472099,280.180427 L632.361543,299.683977 C631.693728,296.162306 628.742324,293.393056 624.998597,293.146964 C621.535012,292.9235 618.46476,294.931843 617.134788,297.924556 L598.588765,290.833127 C598.730251,290.372057 598.832121,289.896844 598.866078,289.399001 C599.092456,285.936732 596.4693,282.946848 593.005716,282.720555 C589.542131,282.494263 586.551111,285.119252 586.324733,288.581521 C586.118163,291.769411 588.336668,294.524517 591.389942,295.124191 L577.679921,402.853373 C577.637475,402.850544 577.597859,402.833572 577.555413,402.830743 C572.637349,402.511106 568.39276,406.233611 568.073001,411.152635 C567.962642,412.846997 568.358804,414.450843 569.094532,415.853854 L499.944522,456.297909 C499.039009,454.999558 497.59019,454.094389 495.886695,453.984072 C492.918312,453.791724 490.351751,456.040501 490.1565,459.013414 C490.003695,461.378166 491.407239,463.462882 493.481428,464.322792 L474.547732,522.590179 C474.072338,522.462889 473.582796,522.375201 473.073445,522.341257 C468.826026,522.066878 465.161531,525.283055 464.884218,529.526031 C464.606905,533.771837 467.824303,537.437769 472.071722,537.717805 C472.71407,537.757406 473.33378,537.695176 473.942171,537.587687 L492.462726,615.26245 C489.358517,616.178933 486.995696,618.925553 486.774977,622.342564 C486.630661,624.503653 487.377709,626.517653 488.685042,628.039467 L437.738658,676.791271 C436.295498,675.419375 434.408071,674.497235 432.268798,674.358631 C427.404499,674.041822 423.205186,677.724726 422.891086,682.587177 C422.828833,683.537604 422.959,684.445601 423.182548,685.319655 L337.676722,711.45922 C336.924015,709.544224 335.135628,708.127069 332.94542,707.985637 C329.926103,707.79046 327.319925,710.07601 327.121845,713.094181 C327.104866,713.32613 327.133163,713.546765 327.144482,713.773057 L278.232671,720.465646 C277.703512,717.96229 275.586877,716.002034 272.907127,715.829487 C269.67558,715.614509 266.8883,718.064121 266.67607,721.291612 C266.613816,722.230724 266.800578,723.121749 267.142975,723.933572 L179.497876,768.402798 C178.281094,766.312425 176.082397,764.844355 173.487538,764.674636 C169.34482,764.403085 165.768046,767.542888 165.499222,771.684034 C165.439798,772.600517 165.569966,773.480227 165.818981,774.314679 C165.637879,774.580572 165.499222,774.877581 165.476585,775.222676 C165.408671,776.240991 166.181186,777.120701 167.202717,777.18576 C167.267801,777.191417 167.324396,777.163131 167.38665,777.160302 C168.654367,778.585943 170.456902,779.533541 172.508453,779.666487 C175.083504,779.836206 177.440666,778.682117 178.917782,776.792578 L213.859237,801.03129 C213.564946,801.557419 213.372524,802.148607 213.330079,802.79354 C213.197081,804.841483 214.55818,806.640505 216.482393,807.135519 L200.701012,910.596266 C200.689693,910.596266 200.675545,910.590609 200.661396,910.590609 C197.715651,910.398261 195.171728,912.630066 194.979306,915.574692 C194.84065,917.704667 195.9782,919.611178 197.72697,920.581405 L147.960582,1029.64005 C147.318234,1029.39396 146.644759,1029.2101 145.926009,1029.16201 C142.0889,1028.91026 138.775291,1031.81811 138.526275,1035.65377 C138.27443,1039.48942 141.180558,1042.79894 145.017667,1043.05069 C148.854775,1043.29961 152.168384,1040.39458 152.420229,1036.55893 C152.505121,1035.24927 152.199511,1034.01315 151.636395,1032.92695 L238.783463,981.055139 C240.243601,983.25583 242.648868,984.791788 245.487083,984.97565 C249.199684,985.216085 252.501974,983.103083 253.98475,979.923679 L307.908006,1001.91927 C307.695777,1002.53309 307.534482,1003.16953 307.489207,1003.84841 C307.220383,1007.96127 310.34157,1011.51688 314.455992,1011.78561 C317.66773,1011.99493 320.517264,1010.12802 321.748195,1007.34462 L515.03262,1080.08622 C515.007152,1080.20785 514.944898,1080.31534 514.936409,1080.44263 C514.840199,1081.93333 515.972089,1083.22036 517.463354,1083.3222 C518.95745,1083.41837 520.244975,1082.28691 520.344015,1080.79338 C520.383632,1080.20785 520.18838,1079.68172 519.902578,1079.21782 L576.03868,1030.64988 C577.456372,1032.13492 579.394735,1033.12778 581.601921,1033.27204 C583.667621,1033.40782 585.586175,1032.76288 587.136865,1031.63142 L598.520852,1045.71245 C596.395728,1047.56804 594.978035,1050.23546 594.779954,1053.27909 C594.383792,1059.34089 598.982097,1064.57672 605.046199,1064.96991 C609.89635,1065.28954 614.174895,1062.38735 615.912347,1058.11891 L840.07191,1139.32949 C839.902127,1139.89239 839.774789,1140.47509 839.738003,1141.08608 C839.45503,1145.4026 842.726193,1149.13077 847.047185,1149.41363 C851.365346,1149.69367 855.092095,1146.42092 855.375068,1142.1044 C855.45147,1140.95879 855.259049,1139.85845 854.879866,1138.84579 L903.211583,1117.68182 C903.831293,1118.75388 904.954695,1119.5063 906.281836,1119.59399 C908.395641,1119.73259 910.223644,1118.12875 910.362301,1116.01575 C910.450022,1114.65234 909.804845,1113.41339 908.771995,1112.66662 L957.004672,1027.47896 C957.95263,1027.95418 959.008118,1028.25401 960.131519,1028.32756 C962.859375,1028.50576 965.346704,1027.31207 966.968137,1025.35465 L999.597706,1049.57922 C999.357179,1050.00351 999.181736,1050.47024 999.150609,1050.99354 C999.028931,1052.84348 1000.43247,1054.4445 1002.28312,1054.5633 C1003.31314,1054.63119 1004.2328,1054.1984 1004.89778,1053.50538 L1063.82682,1097.07227 C1063.20994,1098.0227 1062.7968,1099.12021 1062.71474,1100.32522 C1062.47138,1104.09015 1065.32375,1107.3431 1069.09011,1107.58919 C1072.32449,1107.80134 1075.16553,1105.72228 1076.06539,1102.74937 L1174.04748,1125.93017 C1174.01635,1126.1112 1173.97107,1126.28375 1173.95692,1126.47044 C1173.75035,1129.65267 1176.16411,1132.40778 1179.35321,1132.61427 C1182.54231,1132.82359 1185.29564,1130.40792 1185.50504,1127.22003 C1185.67482,1124.60353 1184.06187,1122.30384 1181.71886,1121.4411 L1236.59574,930.227106 C1236.97209,930.311965 1237.35693,930.393996 1237.76158,930.422283 C1241.89864,930.691004 1245.46693,927.556859 1245.73858,923.421371 C1245.8263,922.074933 1245.52352,920.80204 1244.97172,919.664922 L1292.99783,892.871938 C1293.85524,894.147659 1295.25595,895.035856 1296.90568,895.143345 C1299.73258,895.330036 1302.17463,893.185918 1302.36139,890.360095 C1302.54533,887.531444 1300.40322,885.093147 1297.57633,884.906456 C1295.63231,884.779167 1293.89202,885.766366 1292.9186,887.302323 L1267.04359,873.837944 C1267.51049,872.836601 1267.82176,871.744742 1267.89816,870.576509 C1268.22641,865.504737 1264.38647,861.125985 1259.31277,860.797862 C1259.03829,860.778061 1258.78079,860.817662 1258.50913,860.823319 L1252.53275,773.627317 C1255.96804,773.197362 1258.72985,770.388511 1258.96472,766.801782 C1259.05244,765.46383 1258.74683,764.199422 1258.1922,763.076448 L1388.24357,689.412713 C1389.61599,691.565316 1391.9392,693.070159 1394.6812,693.248364 C1399.24838,693.545372 1403.19585,690.085932 1403.49297,685.51766 C1403.79292,680.952217 1400.32933,677.006249 1395.75933,676.70924 L1395.75933,676.70924 Z" id="Fill-1" transform="translate(771.011068, 702.930343) rotate(-150.000000) translate(-771.011068, -702.930343) "></path>
                </g>
            </g>
        </g>
    </g>
</svg>