<?xml version="1.0" encoding="UTF-8"?>
<svg width="140px" height="30px" viewBox="0 0 140 30" version="1.1" xmlns="http://www.w3.org/2000/svg" xmlns:xlink="http://www.w3.org/1999/xlink">
    <title>months</title>
    <g id="Page-1" stroke="none" stroke-width="1" fill="none" fill-rule="evenodd">
        <g id="months">
            <rect id="Rectangle-Copy-2" x="0" y="0" width="140" height="30"></rect>
            <path d="M21.7903,23 C22.9684,23 23.3842,22.4918 23.4766,21.3137 L23.8462,16.0238 C23.9386,14.7764 23.8462,13.2518 23.8462,13.2518 L23.8924,13.2518 C23.8924,13.2518 24.3775,15.0074 24.8164,16.0238 L26.6644,20.3435 L29.8984,20.3435 L31.7464,16.0238 C32.1853,15.0074 32.6704,13.2518 32.6704,13.2518 L32.7166,13.2518 C32.7166,13.2518 32.6242,14.7764 32.7166,16.0238 L33.0862,21.3137 C33.1786,22.4918 33.5944,23 34.7725,23 L38.1913,23 L38.1913,19.535 L37.6138,19.535 C37.2904,19.535 37.1287,19.3502 37.1056,19.0268 L36.0892,6.4835 L31.7695,6.4835 L29.1361,12.9977 C28.7203,14.0372 28.3045,15.377 28.3045,15.377 L28.2583,15.377 C28.2583,15.377 27.8425,14.0372 27.4267,12.9977 L24.7933,6.4835 L20.4736,6.4835 L19.4572,19.0268 C19.4341,19.3502 19.2724,19.535 18.949,19.535 L18.3715,19.535 L18.3715,23 L21.7903,23 Z M47.7547,23.2772 C52.7443,23.2772 56.3941,19.4888 56.3941,14.6378 C56.3941,9.9023 52.7443,6.2063 47.7547,6.2063 C42.7651,6.2063 39.1153,9.9023 39.1153,14.6378 C39.1153,19.4888 42.7651,23.2772 47.7547,23.2772 Z M47.7547,19.4657 C45.3523,19.4657 43.4119,17.3867 43.4119,14.6378 C43.4119,12.0044 45.3523,10.0178 47.7547,10.0178 C50.1571,10.0178 52.0975,12.0044 52.0975,14.6378 C52.0975,17.3867 50.1571,19.4657 47.7547,19.4657 Z M61.5454,23 C62.7235,23 63.2317,22.4918 63.2317,21.3137 L63.2317,15.9314 C63.2317,14.8919 63.0469,13.4597 63.0469,13.4597 L63.0931,13.4597 C63.0931,13.4597 63.7861,14.8919 64.4791,15.9314 L69.076,23 L72.772,23 L72.772,10.4567 C72.772,10.1333 72.9568,9.9485 73.2802,9.9485 L74.2735,9.9485 L74.2735,6.4835 L70.3234,6.4835 C69.1453,6.4835 68.6371,6.9917 68.6371,8.1698 L68.6371,13.5752 C68.6371,14.6147 68.8219,16.0469 68.8219,16.0469 L68.7757,16.0469 C68.7757,16.0469 68.0827,14.6378 67.3897,13.5752 L62.8159,6.4835 L59.0968,6.4835 L59.0968,19.0268 C59.0968,19.3502 58.912,19.535 58.5886,19.535 L57.5953,19.535 L57.5953,23 L61.5454,23 Z M84.8302,23 L84.8302,9.9485 L86.17,9.9485 C86.4934,9.9485 86.6782,10.1333 86.6782,10.4567 L86.6782,11.3576 L90.2587,11.3576 L90.2587,8.0774 C90.2587,6.8993 89.8429,6.4835 88.6648,6.4835 L76.8607,6.4835 C75.6826,6.4835 75.2668,6.8993 75.2668,8.0774 L75.2668,11.3576 L78.8473,11.3576 L78.8473,10.4567 C78.8473,10.1333 79.0321,9.9485 79.3555,9.9485 L80.6953,9.9485 L80.6953,23 L84.8302,23 Z M96.8884,23 L96.8884,16.532 L102.4786,16.532 L102.4786,23 L106.6135,23 L106.6135,10.4567 C106.6135,10.1333 106.7983,9.9485 107.1217,9.9485 L108.115,9.9485 L108.115,6.4835 L104.1649,6.4835 C102.9868,6.4835 102.4786,6.9917 102.4786,8.1698 L102.4786,13.0901 L96.8884,13.0901 L96.8884,8.1698 C96.8884,6.9917 96.3802,6.4835 95.2021,6.4835 L91.252,6.4835 L91.252,9.9485 L92.2453,9.9485 C92.5687,9.9485 92.7535,10.1333 92.7535,10.4567 L92.7535,23 L96.8884,23 Z M115.4377,23.2772 C119.1568,23.2772 121.3051,20.921 121.3051,18.1721 C121.3051,12.7436 113.8207,13.0208 113.8207,11.0111 C113.8207,10.2488 114.6754,9.9023 115.507,9.9023 C116.2693,9.9023 117.124,10.2719 117.124,10.8725 L117.124,11.5886 L120.82,11.5886 L120.82,9.7868 C120.82,7.2689 117.7477,6.2063 115.5532,6.2063 C112.273,6.2063 109.6627,8.1929 109.6627,11.1728 C109.6627,16.3472 117.1471,16.5551 117.1471,18.38 C117.1471,19.304 116.3155,19.6043 115.4839,19.6043 C113.4049,19.6043 111.6955,17.6639 111.6955,17.6639 L109.4086,20.5514 L109.453116,20.6050326 C109.778681,20.9867708 111.8803,23.2772 115.4377,23.2772 Z" id="MONTHS" fill-opacity="0.04" fill="#0B1626" fill-rule="nonzero"></path>
        </g>
    </g>
</svg>