<?xml version="1.0" encoding="UTF-8"?>
<svg width="237px" height="40px" viewBox="0 0 237 40" version="1.1" xmlns="http://www.w3.org/2000/svg" xmlns:xlink="http://www.w3.org/1999/xlink">
    <title>MONTHS</title>
    <g id="Rollover" stroke="none" stroke-width="1" fill="none" fill-rule="evenodd" fill-opacity="0.04">
        <g id="MILIPOLQATAR-HOMEPAGE01" transform="translate(-365.000000, -806.000000)" fill="#0B1626" fill-rule="nonzero">
            <g id="DATE-+-LINKS" transform="translate(-2.000000, 573.000000)">
                <g id="DATE" transform="translate(258.488932, 178.000000)">
                    <g id="Group-7">
                        <path d="M116.389,94 C119.092,94 120.046,92.834 120.258,90.131 L121.106,77.994 C121.318,75.132 121.106,71.634 121.106,71.634 L121.212,71.634 C121.212,71.634 122.325,75.662 123.332,77.994 L127.572,87.905 L134.992,87.905 L139.232,77.994 C140.239,75.662 141.352,71.634 141.352,71.634 L141.458,71.634 C141.458,71.634 141.246,75.132 141.458,77.994 L142.306,90.131 C142.518,92.834 143.472,94 146.175,94 L154.019,94 L154.019,86.05 L152.694,86.05 C151.952,86.05 151.581,85.626 151.528,84.884 L149.196,56.105 L139.285,56.105 L133.243,71.051 C132.289,73.436 131.335,76.51 131.335,76.51 L131.229,76.51 C131.229,76.51 130.275,73.436 129.321,71.051 L123.279,56.105 L113.368,56.105 L111.036,84.884 C110.983,85.626 110.612,86.05 109.87,86.05 L108.545,86.05 L108.545,94 L116.389,94 Z M175.961,94.636 C187.409,94.636 195.783,85.944 195.783,74.814 C195.783,63.949 187.409,55.469 175.961,55.469 C164.513,55.469 156.139,63.949 156.139,74.814 C156.139,85.944 164.513,94.636 175.961,94.636 Z M175.961,85.891 C170.449,85.891 165.997,81.121 165.997,74.814 C165.997,68.772 170.449,64.214 175.961,64.214 C181.473,64.214 185.925,68.772 185.925,74.814 C185.925,81.121 181.473,85.891 175.961,85.891 Z M207.602,94 C210.305,94 211.471,92.834 211.471,90.131 L211.471,77.782 C211.471,75.397 211.047,72.111 211.047,72.111 L211.153,72.111 C211.153,72.111 212.743,75.397 214.333,77.782 L224.88,94 L233.36,94 L233.36,65.221 C233.36,64.479 233.784,64.055 234.526,64.055 L236.805,64.055 L236.805,56.105 L227.742,56.105 C225.039,56.105 223.873,57.271 223.873,59.974 L223.873,72.376 C223.873,74.761 224.297,78.047 224.297,78.047 L224.191,78.047 C224.191,78.047 222.601,74.814 221.011,72.376 L210.517,56.105 L201.984,56.105 L201.984,84.884 C201.984,85.626 201.56,86.05 200.818,86.05 L198.539,86.05 L198.539,94 L207.602,94 Z M261.026,94 L261.026,64.055 L264.1,64.055 C264.842,64.055 265.266,64.479 265.266,65.221 L265.266,67.288 L273.481,67.288 L273.481,59.762 C273.481,57.059 272.527,56.105 269.824,56.105 L242.741,56.105 C240.038,56.105 239.084,57.059 239.084,59.762 L239.084,67.288 L247.299,67.288 L247.299,65.221 C247.299,64.479 247.723,64.055 248.465,64.055 L251.539,64.055 L251.539,94 L261.026,94 Z M288.692,94 L288.692,79.16 L301.518,79.16 L301.518,94 L311.005,94 L311.005,65.221 C311.005,64.479 311.429,64.055 312.171,64.055 L314.45,64.055 L314.45,56.105 L305.387,56.105 C302.684,56.105 301.518,57.271 301.518,59.974 L301.518,71.263 L288.692,71.263 L288.692,59.974 C288.692,57.271 287.526,56.105 284.823,56.105 L275.76,56.105 L275.76,64.055 L278.039,64.055 C278.781,64.055 279.205,64.479 279.205,65.221 L279.205,94 L288.692,94 Z M331.251,94.636 C339.784,94.636 344.713,89.23 344.713,82.923 C344.713,70.468 327.541,71.104 327.541,66.493 C327.541,64.744 329.502,63.949 331.41,63.949 C333.159,63.949 335.12,64.797 335.12,66.175 L335.12,67.818 L343.6,67.818 L343.6,63.684 C343.6,57.907 336.551,55.469 331.516,55.469 C323.99,55.469 318.001,60.027 318.001,66.864 C318.001,78.736 335.173,79.213 335.173,83.4 C335.173,85.52 333.265,86.209 331.357,86.209 C326.587,86.209 322.665,81.757 322.665,81.757 L317.418,88.382 C317.418,88.382 322.347,94.636 331.251,94.636 Z" id="MONTHS"></path>
                    </g>
                </g>
            </g>
        </g>
    </g>
</svg>