<?xml version="1.0" encoding="UTF-8"?>
<svg width="95px" height="17px" viewBox="0 0 95 17" version="1.1" xmlns="http://www.w3.org/2000/svg" xmlns:xlink="http://www.w3.org/1999/xlink">
    <title>MONTHS</title>
    <g id="Mobile-📱" stroke="none" stroke-width="1" fill="none" fill-rule="evenodd" fill-opacity="0.04">
        <g id="MILIPOLQATAR-Mobile-HOMEPAGE" transform="translate(-14.000000, -952.000000)" fill="#0B1626" fill-rule="nonzero">
            <g id="Group-8" transform="translate(1.000000, 581.000000)">
                <g id="Group-7" transform="translate(-86.000000, 325.000000)">
                    <path d="M102.092343,61.8653946 C103.109913,61.8653946 103.47797,61.4323864 103.564571,60.3931668 L104.062531,53.5516376 C104.149132,52.5340684 104.084181,51.1484423 104.084181,51.1484423 L104.127482,51.1484423 C104.127482,51.1484423 104.58214,52.6856213 104.971848,53.5516376 L107.526596,59.2240447 L109.821539,59.2240447 L112.376288,53.5516376 C112.765995,52.6856213 113.220654,51.1700927 113.220654,51.1700927 L113.263954,51.1700927 C113.263954,51.1700927 113.199003,52.5340684 113.285605,53.5516376 L113.805215,60.3931668 C113.891816,61.4323864 114.238223,61.8653946 115.255792,61.8653946 L117.702288,61.8653946 L117.702288,59.4621992 L117.031125,59.4621992 C116.72802,59.4621992 116.576467,59.2889959 116.554817,58.9858902 L115.558898,46.4936044 L112.614442,46.4936044 L109.453482,53.8114425 C109.085425,54.6991093 108.695718,55.8682314 108.695718,55.8682314 L108.652417,55.8682314 C108.652417,55.8682314 108.26271,54.6991093 107.894653,53.8114425 L104.733693,46.4936044 L101.789238,46.4936044 L100.793319,58.9858902 C100.771669,59.2889959 100.620116,59.4621992 100.31701,59.4621992 L99.6458473,59.4621992 L99.6458473,61.8653946 L102.092343,61.8653946 Z M126.687208,62.1251995 C131.212143,62.1251995 134.632908,58.5961829 134.632908,54.0712474 C134.632908,49.6762145 131.212143,46.2337995 126.687208,46.2337995 C122.162272,46.2337995 118.741508,49.6762145 118.741508,54.0712474 C118.741508,58.5961829 122.162272,62.1251995 126.687208,62.1251995 Z M126.687208,59.4838496 C123.915955,59.4838496 121.685963,57.1456055 121.685963,54.0712474 C121.685963,51.1267918 123.915955,48.8751493 126.687208,48.8751493 C129.45846,48.8751493 131.688452,51.1267918 131.688452,54.0712474 C131.688452,57.1456055 129.45846,59.4838496 126.687208,59.4838496 Z M138.789786,61.8653946 C139.829006,61.8653946 140.262014,61.4323864 140.262014,60.3931668 L140.262014,53.3784344 C140.262014,52.4907676 140.110461,51.2133935 140.110461,51.2133935 L140.153762,51.2133935 C140.153762,51.2133935 140.824925,52.512418 141.431136,53.3784344 L147.276746,61.8653946 L149.809844,61.8653946 L149.809844,49.3731087 C149.809844,49.070003 149.983048,48.8967997 150.286153,48.8967997 L151.217121,48.8967997 L151.217121,46.4936044 L148.445869,46.4936044 C147.406649,46.4936044 146.973641,46.948263 146.973641,47.9658322 L146.973641,55.002215 C146.973641,55.8898818 147.125194,57.1672559 147.125194,57.1672559 L147.081893,57.1672559 C147.081893,57.1672559 146.41073,55.8898818 145.804519,55.002215 L139.980559,46.4936044 L137.425811,46.4936044 L137.425811,58.9858902 C137.425811,59.2889959 137.252607,59.4621992 136.949502,59.4621992 L136.018534,59.4621992 L136.018534,61.8653946 L138.789786,61.8653946 Z M160.440195,61.8653946 L160.440195,48.8967997 L162.80009,48.8967997 C163.103195,48.8967997 163.276399,49.070003 163.276399,49.3731087 L163.276399,50.3040763 L165.766196,50.3040763 L165.766196,47.8792305 C165.766196,46.8616613 165.419789,46.4936044 164.380569,46.4936044 L153.663617,46.4936044 C152.624397,46.4936044 152.277991,46.8616613 152.277991,47.8792305 L152.277991,50.3040763 L154.767788,50.3040763 L154.767788,49.3731087 C154.767788,49.070003 154.940991,48.8967997 155.244097,48.8967997 L157.603991,48.8967997 L157.603991,61.8653946 L160.440195,61.8653946 Z M171.070546,61.8653946 L171.070546,55.4135728 L177.847124,55.4135728 L177.847124,61.8653946 L180.683327,61.8653946 L180.683327,49.3731087 C180.683327,49.070003 180.85653,48.8967997 181.159636,48.8967997 L182.090604,48.8967997 L182.090604,46.4936044 L179.319351,46.4936044 C178.301782,46.4936044 177.847124,46.948263 177.847124,47.9658322 L177.847124,53.0103774 L171.070546,53.0103774 L171.070546,47.9658322 C171.070546,46.948263 170.637537,46.4936044 169.598318,46.4936044 L166.827066,46.4936044 L166.827066,48.8967997 L167.758033,48.8967997 C168.061139,48.8967997 168.234342,49.070003 168.234342,49.3731087 L168.234342,61.8653946 L171.070546,61.8653946 Z M188.80223,62.1251995 C192.028141,62.1251995 193.911727,60.0467602 193.911727,57.6002641 C193.911727,52.5557188 186.68049,53.0753286 186.68049,50.4556292 C186.68049,49.4813608 187.633108,48.8101981 188.932133,48.8101981 C189.949702,48.8101981 190.967271,49.2865071 190.967271,50.0009706 L190.967271,50.6937837 L193.52202,50.6937837 L193.52202,49.2648567 C193.52202,47.0781654 190.750767,46.2337995 188.953783,46.2337995 C185.987677,46.2337995 183.822636,48.0740842 183.822636,50.5638812 C183.822636,55.3486215 191.053873,55.1321175 191.053873,57.7518169 C191.053873,58.9425894 190.014653,59.5704512 188.845531,59.5704512 C186.702141,59.5704512 185.121661,57.7518169 185.121661,57.7518169 L183.519531,59.7436545 C183.519531,59.7436545 185.403116,62.1251995 188.80223,62.1251995 Z" id="MONTHS"></path>
                </g>
            </g>
        </g>
    </g>
</svg>