<?xml version="1.0" encoding="UTF-8"?>
<svg width="15px" height="15px" viewBox="0 0 15 15" version="1.1" xmlns="http://www.w3.org/2000/svg" xmlns:xlink="http://www.w3.org/1999/xlink">
    <!-- Generator: Sketch 61.2 (89653) - https://sketch.com -->
    <title>Group 12</title>
    <desc>Created with Sketch.</desc>
    <defs>
        <polygon id="path-1" points="5.28301887e-06 0.050310219 13.9641133 0.050310219 13.9641133 12.3516022 5.28301887e-06 12.3516022"></polygon>
    </defs>
    <g id="Symbols" stroke="none" stroke-width="1" fill="none" fill-rule="evenodd">
        <g id="MENU" transform="translate(-625.000000, -18.000000)">
            <g transform="translate(-2.000000, 0.000000)" id="TOP-BAR-">
                <g transform="translate(-1.500000, 0.000000)">
                    <g id="Group-5-Copy" transform="translate(629.000000, 18.000000)">
                        <g id="Group-38">
                            <g id="Group-12" transform="translate(0.000000, 0.004434)">
                                <path d="M8.07347774,13.6638394 C6.64288906,12.9571423 5.3715834,11.9790219 4.3175683,10.7928723 C3.48052679,9.85088321 2.78031547,8.77624818 2.24245132,7.60263504 C2.25074566,7.61971533 2.25761358,7.63805474 2.26537962,7.65513504 C2.14202113,7.84646715 2.02780226,8.04420438 1.92240604,8.24741606 C1.8120966,8.45862044 1.7125117,8.67601095 1.62338717,8.8999708 C2.14022491,9.86462409 2.76441358,10.7648978 3.49077585,11.5816861 C4.70312302,12.9464672 6.17803623,14.0591496 7.84213434,14.8378358 L8.07347774,14.9452445 L8.07585509,14.9443686 L8.07585509,13.6620876 C8.0751683,13.6625803 8.07458717,13.6631825 8.07347774,13.6638394" id="Fill-1" fill="#D62C34"></path>
                                <g id="Group-7">
                                    <mask id="mask-2" fill="white">
                                        <use xlink:href="#path-1"></use>
                                    </mask>
                                    <g id="Clip-6"></g>
                                    <g id="Group-11" mask="url(#mask-2)" fill="#D62C34">
                                        <g transform="translate(0.000005, 0.050288)">
                                            <path d="M3.49762264,6.15624088 C3.34769057,6.29118613 3.20330566,6.4330292 3.06473208,6.58051095 C3.45435472,7.53793796 3.96522264,8.4479562 4.58444528,9.26364964 C5.46655094,10.4251642 6.55696604,11.3991241 7.79372075,12.1351095 L8.07324528,12.3013139 L8.3534566,12.1351095 C10.5427396,10.8320255 12.2316679,8.80664234 13.1679245,6.3795438 C13.6993434,5.0044708 13.9675094,3.54218978 13.964108,2.06222628 L13.9625962,1.7254927 L13.6843396,1.55841241 C11.9770264,0.534142336 10.0436528,1.77635684e-15 8.07324528,1.77635684e-15 C5.01733585,1.77635684e-15 2.11584906,1.28069343 3.01092484e-13,3.55543796 C0.0259396226,3.80627737 0.0583245283,4.05640511 0.0968377358,4.30631387 C0.136037736,4.55277372 0.180996226,4.79874088 0.23229434,5.04388686 C2.14242264,2.60156934 5.00338868,1.16775547 8.07324528,1.16775547 C9.74532075,1.16775547 11.3635623,1.58479927 12.8367321,2.40240876 C12.7992755,3.62173358 12.5621736,4.81231752 12.1243698,5.94580292 C11.3239396,8.02220803 9.90597736,9.77841241 8.07324528,10.9542701 C7.07406792,10.3132664 6.19581887,9.49959854 5.46924528,8.54315693 C4.87036226,7.75412409 4.38178868,6.87771898 4.02264906,5.94580292 C3.96971321,5.81074818 3.92322264,5.67492701 3.87720755,5.53932482 C3.90393962,5.61854015 3.92876981,5.69720803 3.9581434,5.77560219 C3.79923019,5.89554745 3.64607547,6.02277372 3.49762264,6.15624088" id="Fill-5"></path>
                                            <path d="M1.87185811,6.66054197 C2.07683925,6.3852865 2.29851472,6.12448358 2.53461283,5.87955657 C2.60033358,5.81189234 2.66674113,5.74537774 2.73399396,5.68012226 C2.8835034,5.53608942 3.03792604,5.3982427 3.1971034,5.26663686 C3.35326943,5.13798723 3.51323925,5.01546898 3.67838642,4.89962956 C4.00075623,4.67287774 4.33982038,4.47059672 4.6938883,4.29519526 C4.86479396,4.21012226 5.03918642,4.13134489 5.21759396,4.05935584 C5.39198642,3.98802372 5.57039396,3.92353467 5.7512317,3.86583394 C6.5138883,3.62096168 7.26682415,3.50304197 8.07327698,3.50304197 C8.86625811,3.50304197 9.6399034,3.62035949 10.3960619,3.86364416 C10.3279109,4.17618066 10.2400543,4.48866241 10.1327562,4.7992281 C9.81276377,5.7287354 9.3396166,6.57941058 8.72292981,7.3317646 C8.51816,7.58200182 8.30097509,7.81614416 8.07327698,8.03435584 C7.84642415,7.81614416 7.6288166,7.58200182 7.42404679,7.3317646 C6.80741283,6.57941058 6.33442415,5.7287354 6.01374491,4.7992281 C5.97480906,4.68530474 5.94115623,4.57187409 5.90708075,4.45734854 C5.93302038,4.5432427 5.95679396,4.62973905 5.98526943,4.71503102 C5.80511849,4.77300547 5.62840151,4.83902737 5.45538264,4.91183759 C5.27998642,4.98519526 5.10839396,5.06566971 4.94086943,5.15298723 C4.94520151,5.1657427 4.94858264,5.17904562 4.95349585,5.19147263 C5.3144317,6.23747628 5.87152604,7.2377135 6.56576755,8.08417336 C6.91745811,8.51386314 7.30433358,8.90506752 7.71920906,9.25658212 L8.07327698,9.55696533 L8.42824302,9.25658212 C8.84264302,8.90506752 9.22994113,8.51386314 9.58126189,8.08417336 C10.2748166,7.2377135 10.8331789,6.23747628 11.1936392,5.19147263 C11.3753751,4.66368066 11.5096694,4.12165511 11.5955185,3.57130839 L11.6696392,3.10143613 L11.2389147,2.93298723 C10.2345072,2.5397573 9.14747321,2.33534124 8.07327698,2.33534124 C5.06126943,2.33534124 2.27690717,3.88937409 0.612809057,6.47632664 C0.688461887,6.70893613 0.769397736,6.94006752 0.856778868,7.17004927 C0.944001509,7.3987719 1.03756377,7.62481204 1.13609208,7.84789599 C1.24360151,7.63548723 1.36014491,7.42849818 1.48566943,7.22736679 C1.60665057,7.03253102 1.73518642,6.8432792 1.87185811,6.66054197" id="Fill-12"></path>
                                        </g>
                                    </g>
                                </g>
                                <path d="M2.73401509,5.73042701 C2.80855849,5.96593796 2.88991698,6.19942336 2.97909434,6.42978832 C3.00540377,6.49794526 3.03683774,6.56363869 3.06473208,6.63124818 C3.20330566,6.48327372 3.34769057,6.3414854 3.49762264,6.20604745 C3.64607547,6.07279927 3.79923019,5.94584672 3.9581434,5.82590146 C3.92876981,5.7475073 3.90399245,5.66851095 3.87720755,5.58978832 C3.85961509,5.53832847 3.84096604,5.48703285 3.82363774,5.43579197 C3.77181132,5.27385766 3.72230943,5.11214234 3.67840755,4.94993431 C3.51326038,5.06577372 3.35329057,5.18829197 3.19712453,5.31655839 C3.03794717,5.44854745 2.88352453,5.58639416 2.73401509,5.73042701" id="Fill-20" fill="#912827"></path>
                                <path d="M2.26535321,7.65511861 C2.25764,7.63803832 2.25119472,7.61975365 2.24242491,7.60267336 C2.15419849,7.40898723 2.06866642,7.21311131 1.98905132,7.01411496 C1.94879472,6.91343978 1.90996453,6.8122719 1.87187396,6.71083029 C1.73520226,6.89356752 1.60666642,7.08281934 1.48499849,7.27803832 C1.36016075,7.4787865 1.24361736,7.68577555 1.13610792,7.89818431 C1.20568528,8.0567792 1.27727019,8.21433394 1.35244755,8.37024635 C1.35820604,8.38135949 1.3626966,8.39323905 1.36845509,8.40413321 C1.44986642,8.57126825 1.53597962,8.73615876 1.62277962,8.89995438 C1.71248528,8.67599453 1.81212302,8.45860401 1.92195698,8.24739964 C2.02782868,8.04391423 2.14241736,7.84645073 2.26535321,7.65511861" id="Fill-28" fill="#912827"></path>
                                <path d="M4.80976604,4.78741971 C4.76713208,4.64141606 4.72861887,4.49366058 4.69390943,4.3455219 C4.72861887,4.49366058 4.76713208,4.64092336 4.80976604,4.78741971" id="Fill-32" fill="#D62C34"></path>
                                <path d="M5.98529057,4.76534124 C5.95681509,4.67999453 5.93304151,4.59355292 5.90710189,4.50765876 C5.89299623,4.45992153 5.8766717,4.41141788 5.86341132,4.36340693 C5.82162264,4.21433759 5.78379623,4.06515876 5.7512,3.91614416 C5.57036226,3.97384489 5.39200755,4.03833394 5.21761509,4.10944708 C5.03920755,4.18160036 4.86481509,4.26037774 4.69390943,4.34550547 C4.72861887,4.49347993 4.76713208,4.64096168 4.80976604,4.78740328 C4.82392453,4.83535949 4.84019623,4.88254927 4.85435472,4.93061496 C4.88240755,5.02149088 4.90998491,5.1132427 4.94083774,5.20329745 C5.10836226,5.11592518 5.27995472,5.03550547 5.45540377,4.96214781 C5.62842264,4.88933759 5.80513962,4.82331569 5.98529057,4.76534124" id="Fill-36" fill="#912827"></path>
                            </g>
                        </g>
                    </g>
                </g>
            </g>
        </g>
    </g>
</svg>