<?xml version="1.0" encoding="UTF-8"?>
<svg width="13px" height="13px" viewBox="0 0 13 13" version="1.1" xmlns="http://www.w3.org/2000/svg" xmlns:xlink="http://www.w3.org/1999/xlink">
    <!-- Generator: Sketch 61.2 (89653) - https://sketch.com -->
    <title>Group 10</title>
    <desc>Created with Sketch.</desc>
    <g id="Symbols" stroke="none" stroke-width="1" fill="none" fill-rule="evenodd">
        <g id="MENU" transform="translate(-448.000000, -18.000000)">
            <g transform="translate(-2.000000, 0.000000)" id="TOP-BAR-">
                <g transform="translate(-1.500000, 0.000000)">
                    <g id="Group-5" transform="translate(451.000000, 18.000000)">
                        <g id="Group-9" transform="translate(0.500000, 0.000000)">
                            <g id="Group-10" transform="translate(0.500000, 0.000000)">
                                <polygon id="Path-2" fill="#FDC619" points="0 1.00573725 0 13 12 13 12 -1.80411242e-16"></polygon>
                                <path d="M8.61171836,2 C10.070465,2 11.4166391,2.48575681 12.4996786,3.30552836 L12.4996865,12.99975 L3.88624155,13.0007059 C3.33277381,12.4065618 2.88836721,11.7080057 2.58522975,10.9374979 L6.18136153,10.9383831 C6.78690772,11.5067316 7.59752755,11.8541667 8.48828085,11.8541667 C10.3630289,11.8541667 11.8828124,10.3151455 11.8828124,8.41666667 C11.8828124,6.51818784 10.3630289,4.97916667 8.48828085,4.97916667 C7.45175349,4.97916667 6.52373385,5.44962408 5.90108853,6.19118034 L5.77241038,6.35416207 L2.49998131,6.35421996 C3.38959746,3.81747123 5.79006156,2 8.61171836,2 Z" id="Combined-Shape" fill="#FFFFFF"></path>
                            </g>
                        </g>
                    </g>
                </g>
            </g>
        </g>
    </g>
</svg>