<?xml version="1.0" encoding="UTF-8"?>
<svg width="345px" height="226px" viewBox="0 0 345 226" version="1.1" xmlns="http://www.w3.org/2000/svg" xmlns:xlink="http://www.w3.org/1999/xlink">
    <!-- Generator: Sketch 61.2 (89653) - https://sketch.com -->
    <title>Fill 1</title>
    <desc>Created with Sketch.</desc>
    <g id="Desktop--🖥" stroke="none" stroke-width="1" fill="none" fill-rule="evenodd" opacity="0.11328125">
        <g id="MILIPOLQATAR-HOMEPAGE01" transform="translate(0.000000, -691.000000)" fill="#A6945D">
            <g id="DATE-+-LINKS" transform="translate(-2.000000, 573.000000)">
                <path d="M574.842893,697.430343 C573.950843,696.042421 572.608521,694.980901 571,694.438788 L602.731476,577.714241 C603.011835,577.773845 603.289361,577.839125 603.583879,577.858993 C606.192062,578.029291 608.531214,576.607309 609.678135,574.430343 L704.682827,616.828672 C704.385477,617.59501 704.164589,618.398245 704.10795,619.263922 C704.006002,620.793759 704.357158,622.235609 705,623.512838 L574.842893,697.430343 Z M575,795.600463 C572.788458,795.849244 570.816309,796.889599 569.348598,798.430343 L532.222618,766.710811 C532.974998,765.729824 533.456636,764.528327 533.544983,763.205266 C533.69318,760.954932 532.670056,758.896838 531,757.613356 L565.119308,707.430343 C566.093983,708.007062 567.199754,708.391541 568.410972,708.473525 C568.604767,708.484833 568.787162,708.453736 568.978107,708.453736 L575,795.600463 Z M609.938056,822.792848 C609.724066,823.30366 609.569204,823.842539 609.532601,824.423518 C609.473472,825.293582 609.662121,826.113126 610,826.854085 L562.218296,853.430343 C561.446806,852.220673 560.331806,851.246762 559,850.646137 L573.399271,813.488772 C574.134158,813.732952 574.888754,813.918191 575.696848,813.971518 C579.283995,814.20447 582.488213,812.326815 584.183239,809.430343 L609.938056,822.792848 Z M497.90462,1056.43034 C497.637566,1056.37667 497.376195,1056.31451 497.100619,1056.29756 C496.611968,1056.26649 496.143204,1056.31451 495.682963,1056.39644 L467.818502,949.339114 L457,907.753578 C461.573999,906.400353 465.054216,902.368929 465.38093,897.354369 C465.483206,895.783611 465.261608,894.27218 464.784321,892.868104 L542.738333,863.631099 L548.613507,861.430343 C549.448759,863.297737 551.016987,864.763966 553,865.453291 L497.90462,1056.43034 Z M393.372676,1037.28677 C393.409458,1037.04958 393.474535,1036.82368 393.488682,1036.57801 C393.664107,1033.87284 392.221099,1031.45005 390,1030.20477 L449.282134,907.430343 C450.495958,907.96121 451.800323,908.333947 453.200889,908.424308 C454.33266,908.497726 455.41633,908.359361 456.471706,908.127812 L464.167745,937.811219 L495,1056.69733 C493.271221,1057.28185 491.907437,1058.66549 491.35004,1060.43034 L393.372676,1037.28677 Z M323,988.010735 C323.237747,987.587734 323.410396,987.125254 323.44436,986.606373 C323.481154,985.988792 323.305674,985.430431 323.045285,984.91719 L445.014915,903.430343 C446.062132,904.871365 447.403702,906.081147 449,906.921508 L389.704883,1029.51838 C389.039759,1029.24766 388.337841,1029.05026 387.582147,1028.9995 C385.326385,1028.85568 383.268745,1029.82858 381.918685,1031.43034 L323,988.010735 Z M284.683748,959.208162 C285.458897,958.05486 285.972823,956.70934 286.072201,955.225311 C286.253921,952.45795 285.021633,949.928034 283,948.313976 L292.756084,934.807899 L322.654678,893.430343 C323.353164,893.860005 324.142509,894.14833 325,894.261399 L324.625203,900.420826 L319.625068,982.438163 C318.770416,982.494698 318.015143,982.845211 317.447269,983.430343 L284.683748,959.208162 Z M225.662644,1047.43034 C225.27429,1047.26371 224.854754,1047.14509 224.406871,1047.11684 C223.964657,1047.08578 223.536617,1047.14791 223.134089,1047.26371 L165,902.904071 C167.09768,901.966396 168.846692,900.410193 170.00892,898.430343 L270.969702,952.01058 C270.544497,952.905891 270.266696,953.888755 270.195829,954.936579 C269.994565,958.02074 271.559321,960.782928 274,962.336306 L225.662644,1047.43034 Z M171.817288,1073.43034 C170.606566,1071.04039 168.230384,1069.31997 165.359163,1069.13069 C165.265813,1069.12787 165.175292,1069.14482 165.076285,1069.14199 L163.345066,998.943579 L161,904.003818 C162.040994,903.938843 163.056529,903.769343 164.007002,903.430343 L222,1047.77935 C220.874142,1048.3839 220.070766,1049.52802 219.983074,1050.8925 C219.949128,1051.3784 220.019848,1051.84452 220.15563,1052.2824 L171.817288,1073.43034 Z M-65.9374182,992.109291 C-65.6686318,991.270871 -65.46492,990.404126 -65.4055041,989.480731 C-65.2131096,986.517937 -66.2231806,983.761916 -68,981.660201 L-23.6276128,941.025168 C-21.7178148,942.968262 -19.1487829,944.271212 -16.2147674,944.466654 C-12.4545874,944.710249 -9.02826838,943.09006 -6.75348681,940.430343 L159,1071.96594 C158.677456,1072.42197 158.411499,1072.90916 158.190812,1073.43034 L-65.9374182,992.109291 Z M-95,966.321281 C-93.401259,964.89829 -92.3335485,962.875107 -92.1838431,960.570144 C-92.1245259,959.643087 -92.2544589,958.755479 -92.4747801,957.901684 L-27.0789283,937.430343 C-26.6100395,938.749075 -25.895408,939.955095 -25,941.006135 L-69.2958599,981.430343 C-71.1205714,979.584682 -73.5723509,978.347666 -76.3659107,978.167326 C-79.0803809,977.989805 -81.6027762,978.852053 -83.6223872,980.359577 L-95,966.321281 Z M-360.550065,941.492048 C-360.377449,940.936069 -360.247279,940.360232 -360.207662,939.750357 C-360.117109,938.377427 -360.428385,937.08676 -361,935.940761 L-214.966478,852.430343 C-213.28276,855.116632 -210.402046,856.997319 -207.003483,857.221413 C-206.078145,857.278145 -205.189595,857.17319 -204.323683,857.000155 L-166,1013.28434 C-166.546147,1013.51695 -166.996082,1013.91408 -167.290379,1014.43034 L-360.550065,941.492048 Z M-427.872377,914.42763 C-427.611458,913.686283 -427.410096,912.916641 -427.356211,912.093237 C-427.268293,910.737874 -427.520703,909.447592 -428,908.264832 L-392.225752,891.861832 L-330.212138,863.430343 C-329.693137,864.383907 -328.927396,865.176186 -328,865.753417 L-337.90641,884.253127 L-363.941577,932.873577 C-364.75553,932.494415 -365.646058,932.242584 -366.596143,932.180333 C-369.74135,931.976604 -372.5519,933.750743 -373.83097,936.430343 L-427.872377,914.42763 Z M-531.524715,967.430343 C-532.157729,966.503669 -532.995125,965.72719 -534,965.19159 L-484.079852,855.943272 C-483.614317,856.113304 -483.126072,856.243662 -482.606603,856.277668 C-481.417217,856.354183 -480.304474,856.025454 -479.373403,855.430343 L-442,904.640403 C-443.776982,906.125348 -444.974884,908.293255 -445.139525,910.784222 C-445.250231,912.476039 -444.849985,914.071505 -444.106263,915.462932 L-531.524715,967.430343 Z M-465.212921,742.827751 C-463.894029,742.895367 -462.694008,742.340348 -461.876068,741.430343 L-430.228324,764.298813 C-430.669842,765.011603 -430.964187,765.825819 -431.023622,766.71892 C-431.142492,768.536114 -430.330213,770.195536 -429,771.24641 L-442.242693,790.919999 L-479.610352,846.430343 C-480.040549,846.18805 -480.504708,846.004922 -481,845.889411 L-465.212921,742.827751 Z M-503,711.188402 C-502.376655,710.189428 -501.957314,709.047344 -501.875146,707.793015 C-501.855312,707.473119 -501.889313,707.164447 -501.909146,706.850163 L-396.365507,694.430343 C-396.286172,694.795136 -396.164336,695.143093 -396,695.468602 L-461.462557,735.430343 C-462.17657,734.50994 -463.258924,733.872955 -464.522614,733.791577 C-465.896806,733.704588 -467.151997,734.291064 -467.987846,735.256364 L-503,711.188402 Z M-415.409048,659.430343 C-414.453346,661.013732 -412.768143,662.120978 -410.777568,662.247762 C-409.878417,662.309745 -409.01885,662.143517 -408.235627,661.830784 L-395,688.999155 C-396.218662,689.734502 -397.072573,691.027697 -397.171536,692.554738 C-397.182846,692.692791 -397.160226,692.822393 -397.160226,692.960446 L-502.471254,705.430343 C-502.575872,704.835867 -502.762488,704.269566 -503,703.731439 L-415.409048,659.430343 Z M-355.279797,649.430343 C-355.073561,650.37916 -354.635661,651.24891 -354,651.949227 L-389.416205,689.430343 C-390.108369,688.888161 -390.961567,688.540826 -391.905171,688.478701 C-392.566258,688.43352 -393.199094,688.546474 -393.783902,688.763911 L-407,661.547533 C-405.364232,660.601539 -404.217217,658.890279 -404.084435,656.86557 C-404.067484,656.608599 -404.095736,656.362923 -404.112687,656.111599 L-355.279797,649.430343 Z M-259.392231,621.430343 C-258.754593,623.199672 -257.550167,624.689187 -256,625.73213 L-269.894826,648.572301 C-270.48712,648.278355 -271.144595,648.091813 -271.844579,648.049416 C-274.533991,647.871353 -276.846489,649.813093 -277.217736,652.430343 L-307.005318,650.748632 L-344.872473,648.611871 C-344.880974,648.241612 -344.92065,647.885485 -345,647.537837 L-259.392231,621.430343 Z M-208,472.652391 C-206.634822,472.24426 -205.439231,471.470511 -204.500848,470.430343 L-177.994347,491.936598 L-108,548.732043 C-108.867722,549.928095 -109.435839,551.367892 -109.537592,552.955069 C-109.548898,553.142129 -109.520633,553.320687 -109.517807,553.507747 L-128.918598,554.58476 L-180.19333,557.430343 C-180.600339,553.655128 -183.644432,550.596977 -187.556246,550.341895 C-188.22329,550.296547 -188.867722,550.364569 -189.498021,550.480773 L-208,472.652391 Z M-90.4167112,230.074601 C-87.7903097,230.233293 -85.4554191,228.711546 -84.4127069,226.430343 L-66.0419114,233.537496 C-66.2437266,234.158096 -66.3950881,234.804201 -66.4371329,235.487145 C-66.6557662,238.84519 -64.8085958,241.84901 -62,243.248904 L-73.9687667,271.422474 L-102.438735,338.430343 C-102.94047,338.243312 -103.459023,338.101623 -104,338.005274 L-90.4167112,230.074601 Z M93.2279807,216.430343 C93.5843832,218.294625 94.5743901,219.941407 96,221.113645 L-25.2107859,385.430343 C-26.4327372,384.619663 -27.85269,384.071677 -29.4253866,383.969988 C-29.9911048,383.936092 -30.5483373,383.961514 -31.0914268,384.032131 L-56,244.369153 C-52.6368052,243.586719 -50.0175298,240.719679 -49.7827568,237.095628 C-49.7572994,236.694525 -49.7912425,236.301896 -49.8251856,235.906442 L93.2279807,216.430343 Z M572.935462,254.480263 C572.884635,254.737335 572.81969,254.991582 572.802748,255.262779 C572.701094,256.830635 573.16983,258.288317 574,259.486103 L454.91859,353.430343 C453.498265,351.800337 451.453901,350.715551 449.129989,350.563002 C447.735077,350.472604 446.416406,350.76075 445.221977,351.286194 L383.854333,228.28718 L373,206.537767 C373.773696,206.049048 374.366675,205.311732 374.691401,204.430343 L572.935462,254.480263 Z M665,335.079977 C664.198027,336.070438 663.673768,337.29861 663.58592,338.668276 C663.557581,339.104079 663.574584,339.531392 663.628427,339.953045 L617.459695,349.430343 C616.756905,346.897592 614.538018,344.950629 611.760866,344.772346 C611.06091,344.724238 610.389293,344.823284 609.748848,344.990247 L591.819215,291.225192 L582,261.788689 C582.787804,261.468912 583.501929,261.00764 584.111202,260.430343 L665,335.079977 Z M561.141088,489.430343 C560.337634,489.169692 559.508896,488.977037 558.629591,488.917541 C558.430132,488.903375 558.24472,488.940206 558.045261,488.937373 L555,387.099493 C557.368224,386.830343 559.281344,384.895296 559.438664,382.413449 C559.49485,381.5805 559.323484,380.790049 559.014463,380.07326 L606.010925,354.538003 L606.207575,354.430343 C606.870565,355.49561 607.839767,356.339892 609,356.85836 L561.141088,489.430343 Z M601,566.497901 C599.534868,567.58482 598.516629,569.260485 598.389349,571.224863 C598.366722,571.581508 598.392178,571.929662 598.426119,572.272154 L369.3083,610.430343 C369.231932,610.130308 369.130108,609.844426 369,609.572696 L549.185799,504.430343 C550.939432,507.178774 553.906466,509.103525 557.408076,509.329966 C559.605774,509.474323 561.693163,508.933694 563.460938,507.894895 L601,566.497901 Z M326.362959,894.573893 C329.327893,894.542925 331.813789,892.355438 332.196452,889.430343 L443.265259,895.759134 C443.214237,898.081755 443.840671,900.269242 445,902.124524 L322.918987,983.430343 C322.437114,982.878544 321.753989,982.537893 321,982.397128 L324.991039,917.065312 L326.362959,894.573893 Z M282.430431,948.430343 C281.691104,947.948366 280.883793,947.569059 280,947.346608 L290.180616,895.15623 C290.410063,895.190453 290.628178,895.256048 290.866123,895.270307 C295.548526,895.578316 299.582249,892.090402 300.066635,887.430343 L319.872665,888.536893 C319.900991,890.333611 320.70547,891.953509 322,893.042947 L319.331625,896.77898 L282.430431,948.430343 Z M164,1068.82285 C161.931474,1068.98688 160.086497,1069.95126 158.770677,1071.43034 L-7,940.105547 C-5.74360417,938.397386 -4.92298527,936.335715 -4.77583981,934.061937 C-4.71075625,933.057968 -4.81828562,932.090764 -4.99938772,931.146185 L149.500513,895.430343 C150.700314,899.833666 154.543075,903.213223 159.356429,903.52714 C159.54602,903.538453 159.729952,903.504516 159.919543,903.507344 L163.156743,1034.64831 L164,1068.82285 Z M-164.26454,1012.76081 C-164.403245,1012.75514 -164.524966,1012.80336 -164.66084,1012.81755 L-203,856.492846 C-201.573321,856.075806 -200.25704,855.386414 -199.155893,854.430343 L-106,953.617746 C-107.344588,955.013553 -108.247585,956.849096 -108.380629,958.937132 C-108.524995,961.107442 -107.811656,963.124553 -106.571804,964.716113 L-162.730294,1013.43034 C-163.154901,1013.07004 -163.66726,1012.80053 -164.26454,1012.76081 L-164.26454,1012.76081 Z M-428.355584,907.430343 C-429.496327,905.245817 -431.518038,903.591215 -434,902.982367 L-422.191622,842.864225 C-422.053265,842.881137 -421.926202,842.923418 -421.785021,842.931875 C-418.746806,843.129187 -416.078486,841.201167 -415.189045,838.430343 L-331.293656,859.421519 C-331.336011,859.655475 -331.395307,859.880974 -331.412248,860.123386 C-331.471544,861.053571 -331.313422,861.947112 -331,862.767366 L-404.803772,896.623284 L-428.355584,907.430343 Z M-188.496225,565.581905 C-188.07717,565.609993 -187.672176,565.573478 -187.267183,565.536964 L-187,567.373937 C-190.19776,568.022776 -192.706469,570.713633 -192.931465,574.12355 C-193.029901,575.654361 -192.658657,577.106525 -191.938669,578.336792 L-217.09888,594.951008 L-243.572507,612.430343 C-243.715942,612.233725 -243.83969,612.017445 -244,611.834871 L-193.367395,563.430343 C-192.079291,564.643756 -190.400257,565.458316 -188.496225,565.581905 L-188.496225,565.581905 Z M-187.112548,399.559773 C-184.812715,399.709602 -182.770941,398.397898 -181.863485,396.430343 L-125.640951,417.044443 L-114.068059,421.287691 C-114.144626,421.567558 -114.19567,421.858734 -114.215521,422.15839 C-114.252386,422.740742 -114.170148,423.303304 -114,423.831943 L-148.063607,438.243721 L-202.871078,461.430343 C-203.718982,459.714386 -205.179418,458.365932 -207,457.662022 L-204.167038,448.966332 L-188.017167,399.407118 C-187.722244,399.480619 -187.424485,399.537158 -187.112548,399.559773 L-187.112548,399.559773 Z M-106,355.414913 L-109.732206,417.869035 C-111.466133,417.928337 -112.975502,418.933658 -113.694655,420.430343 L-156.872274,404.6502 L-181.641845,395.599492 C-181.539515,395.243677 -181.474137,394.873741 -181.448554,394.495334 C-181.386019,393.529549 -181.60205,392.620242 -182,391.806949 L-112.534914,351.430343 C-111.11082,353.601948 -108.765755,355.1184 -106,355.414913 L-106,355.414913 Z M124.774609,200.77523 C126.07996,200.856994 127.277944,200.355129 128.139702,199.503649 L252.947651,303.136058 L288,332.241438 C287.954793,332.300647 287.923713,332.371134 287.881332,332.430343 L108.457721,218.93825 C109.028458,217.92888 109.412718,216.792634 109.49183,215.554887 C109.616149,213.646106 109.031284,211.87266 108,210.429092 L121.909617,199.430343 C122.641405,200.191599 123.638784,200.701923 124.774609,200.77523 L124.774609,200.77523 Z M368,205.915531 L297.808519,329.615834 C296.844164,329.135357 295.772344,328.830112 294.629824,328.756628 C292.033701,328.587047 289.666647,329.658229 288.029223,331.430343 L128,198.349426 C128.381783,197.792637 128.636305,197.14258 128.723973,196.430343 L366.252283,202.809386 C366.348436,204.084064 367.004537,205.20612 368,205.915531 L368,205.915531 Z M445,351.659155 C442.888781,352.851924 441.358502,354.937144 440.882415,357.430343 L302.817197,338.164718 C302.822865,338.099555 302.842702,338.042891 302.84837,337.977728 C303.052407,334.849897 301.468284,332.042216 299,330.466968 L369.356017,206.430343 C369.798098,206.622999 370.268517,206.758992 370.772943,206.790157 C371.393556,206.829821 371.988665,206.724994 372.532764,206.518171 L391.683929,244.873764 L445,351.659155 Z M557.819197,378.430343 C557.167738,377.439726 556.183437,376.680536 555,376.339041 L578.50943,261.585568 C578.668739,261.608146 578.822358,261.656124 578.990201,261.667413 C579.735539,261.71257 580.455273,261.608146 581.143715,261.430343 L609,344.410708 C606.806659,345.299722 605.193657,347.345868 605.028659,349.849221 C604.957539,350.93015 605.190812,351.957456 605.614688,352.880338 L596.579602,357.709241 L557.819197,378.430343 Z M571.112024,693.779456 C570.767704,693.708728 570.42623,693.626684 570.064837,693.60688 C567.523701,693.439962 565.195987,694.57161 563.736186,696.430343 L524.956127,669.774364 C525.493949,668.880362 525.861033,667.870365 525.935019,666.76135 C526.063072,664.778136 525.297601,662.96184 524,661.646299 L601.10482,576.430343 C601.66256,576.866027 602.30567,577.194205 603,577.431852 L588.003602,632.141395 L571.112024,693.779456 Z M461,886.524041 L495.003872,836.644719 C496.239189,837.398883 497.653414,837.910132 499.20111,838.011817 C502.819027,838.246258 506.056409,836.350962 507.757454,833.430343 L549,854.688159 C548.642184,855.484692 548.395121,856.340541 548.332645,857.261355 C548.270169,858.213239 548.40932,859.131229 548.679102,859.987078 L464.86782,891.430343 C464.038596,889.472906 462.712405,887.772507 461,886.524041 L461,886.524041 Z M-92.8742561,956.430343 C-93.7394567,954.109318 -95.6150065,952.276188 -98,951.430128 L-74.6595084,875.42009 L-63.374903,838.66724 C-63.0333765,838.749025 -62.6890039,838.81953 -62.327555,838.842092 C-61.3741268,838.904136 -60.4633894,838.746205 -59.6238034,838.430343 L-57.6457956,842.748069 L-21,922.703568 C-24.5547219,924.466193 -27.1190168,927.954781 -27.3979301,932.17098 C-27.4833118,933.479553 -27.2954722,934.734542 -26.9653299,935.930307 L-88.3547219,955.025883 L-92.8742561,956.430343 Z M-426.506673,772.117804 C-426.427998,772.123462 -426.354942,772.109317 -426.276267,772.109317 L-423,829.714627 C-426.029002,830.085234 -428.465128,832.571977 -428.673056,835.749011 C-428.706774,836.29219 -428.656197,836.809908 -428.566282,837.321968 L-477.260712,849.430343 C-477.586653,848.437343 -478.196387,847.568822 -479,846.926625 L-428.754541,771.430343 C-428.08299,771.812266 -427.327145,772.066881 -426.506673,772.117804 L-426.506673,772.117804 Z M-277,654.30268 L-380.876718,688.960416 L-388.278496,691.430343 C-388.465238,691.014 -388.697251,690.617349 -389,690.27696 L-353.533145,652.9355 C-352.681487,653.61909 -351.626112,654.066378 -350.4519,654.139519 C-347.560226,654.330812 -345.070331,652.243471 -344.688359,649.430343 L-277.141471,653.230879 C-277.130154,653.599398 -277.084883,653.956666 -277,654.30268 L-277,654.30268 Z M-109,554.187005 L-138.81,562.06723 L-178.015128,572.430343 C-178.920513,569.550422 -181.461795,567.378253 -184.601026,567.168229 C-184.987436,567.142336 -185.359744,567.17686 -185.734872,567.211385 L-186,565.329798 C-182.570256,564.630676 -179.876667,561.68746 -179.636923,557.955933 C-179.625641,557.77468 -179.656667,557.596303 -179.656667,557.415049 L-109.129744,553.430343 C-109.101538,553.689277 -109.050769,553.936703 -109,554.187005 L-109,554.187005 Z M-202.53738,465.202885 C-202.463539,464.104291 -202.633941,463.053832 -202.986106,462.082653 L-114.004845,424.430343 C-113.283475,425.763945 -111.920256,426.712473 -110.295754,426.817235 C-110.230433,426.822898 -110.173632,426.808741 -110.111151,426.811573 L-102,544.794285 C-103.982347,545.032125 -105.746011,546.006135 -107.032549,547.430343 L-204,469.203691 C-203.176389,468.068289 -202.633941,466.703541 -202.53738,465.202885 L-202.53738,465.202885 Z M-58.6265011,243.945508 C-58.1050275,243.979475 -57.5949522,243.951169 -57.0962752,243.891727 L-32,383.846831 C-34.1770812,384.342182 -36.0464075,385.630095 -37.2717281,387.430343 L-98.0590271,350.777187 C-97.4520659,349.673261 -97.0531244,348.439129 -96.9647873,347.103097 C-96.7197232,343.375225 -98.8198657,340.046465 -102,338.506631 L-60.8919194,243.430343 C-60.1766741,243.693587 -59.4272339,243.894558 -58.6265011,243.945508 L-58.6265011,243.945508 Z M367.70913,608.430343 C366.894064,607.279095 365.597883,606.477737 364.075294,606.376156 C362.963069,606.305614 361.924426,606.627286 361.066909,607.20291 L305,537.727377 C306.533909,536.361682 307.555571,534.420362 307.699906,532.210983 C307.728207,531.827234 307.688585,531.449128 307.660284,531.073844 L546.907585,500.430343 C547.100031,501.561839 547.476433,502.631257 548,503.613204 L411.462318,582.992851 L367.70913,608.430343 Z M598.361562,573.430343 C598.63039,574.578116 599.199174,575.612529 600,576.437225 L523.324481,661.800383 C522.294443,660.978521 521.012556,660.445727 519.59767,660.355039 C516.677345,660.162327 514.099422,661.885404 513.012789,664.430343 L369,613.231153 C369.073574,612.936416 369.13017,612.638845 369.149978,612.327104 C369.164127,612.091881 369.144318,611.862327 369.12451,611.629938 L466.513965,595.402408 L598.361562,573.430343 Z M527.967859,756.526107 C527.768163,756.511889 527.579878,756.543168 527.385888,756.546012 L526.184861,742.931291 L520,672.918413 C521.723089,672.65681 523.249334,671.749731 524.29631,670.430343 L563.182769,697.227571 C562.575124,698.214269 562.164321,699.343142 562.084443,700.580068 C561.913275,703.156287 563.085774,705.505026 565,706.955215 L530.849182,757.430343 C529.993343,756.932729 529.023393,756.597195 527.967859,756.526107 L527.967859,756.526107 Z M567.057763,804.063255 C566.992834,805.082479 567.133985,806.059469 567.38241,806.994226 L508.686211,825.430343 C507.859066,823.183547 506.176547,821.345003 504,820.314518 L525.488817,769.023935 C526.028013,769.206945 526.584148,769.347721 527.176982,769.384323 C529.150271,769.513838 530.95418,768.733935 532.238654,767.430343 L569,799.009372 C567.8962,800.414323 567.184799,802.148692 567.057763,804.063255 L567.057763,804.063255 Z M555.791549,850.749551 C552.887324,850.559994 550.290141,852.079276 548.901408,854.430343 L508,833.134937 C508.456338,832.141887 508.76338,831.055473 508.842254,829.895501 C508.907042,828.874159 508.76338,827.892425 508.515493,826.95313 L567.084507,808.430343 C567.938028,810.764435 569.71831,812.651513 572,813.664367 L557.594366,851.117347 C557.016901,850.93062 556.422535,850.791989 555.791549,850.749551 L555.791549,850.749551 Z M299.798971,887.331409 C299.827078,882.757238 296.344634,878.888311 291.754778,878.585254 C290.276356,878.486123 288.882254,878.806174 287.623065,879.386796 L256,817.682221 C256.629594,817.322519 257.225461,816.90617 257.773545,816.430343 L321,885.125044 C320.173657,886.011555 319.619952,887.147309 319.456932,888.430343 L313.08791,888.076305 L299.798971,887.331409 Z M171.859701,894.430343 L201.577169,898.922592 L229.761268,903.187279 C229.747174,903.308083 229.707713,903.42046 229.699257,903.544074 C229.36947,908.578539 233.197253,912.924699 238.248349,913.2534 C240.432835,913.39668 242.462293,912.72804 244.119684,911.556515 L247.096222,915.360459 L273,948.458136 C272.35452,949.017209 271.821787,949.691468 271.376434,950.430343 L171,897.141425 C171.40871,896.301411 171.676486,895.379924 171.859701,894.430343 L171.859701,894.430343 Z M-4.39181215,930.430343 C-5.31362183,927.033897 -7.74821736,924.257549 -11,922.893333 L10.3034178,866.723725 C10.8972215,866.909755 11.5108188,867.053505 12.1611753,867.095784 C15.919105,867.341005 19.2246127,864.900073 20.2114581,861.430343 L45.0692156,867.050686 L150,890.783529 C149.923654,891.209142 149.816204,891.629117 149.7851,892.071642 C149.722892,893.024338 149.824687,893.940392 149.994345,894.836715 L85.4337349,909.721887 L-4.39181215,930.430343 Z M-98.391807,951.66472 C-98.8781101,951.540021 -99.3785499,951.446497 -99.8987811,951.409654 C-102.191757,951.259449 -104.323574,952.047319 -105.946469,953.430343 L-199,854.340078 C-197.354486,852.653809 -196.248995,850.426233 -196.082181,847.892579 C-196.053908,847.453299 -196.101973,847.033857 -196.127419,846.608747 L-68.0685474,833.430343 C-67.6840287,835.689093 -66.123335,837.556742 -64,838.358783 L-90.1133451,924.395342 L-98.391807,951.66472 Z M-415.531135,837.215105 C-415.488768,836.967256 -415.426629,836.727955 -415.409682,836.47156 C-415.336245,835.354818 -415.573502,834.300751 -416,833.349242 L-375.265239,811.430343 C-374.166513,813.219408 -372.271282,814.470045 -370.031463,814.618184 C-368.390436,814.726439 -366.865213,814.202255 -365.636561,813.282082 L-330.084735,855.726803 L-330,855.826512 C-330.731542,856.53872 -331.290791,857.427555 -331.612782,858.430343 L-389.768983,843.730379 L-415.531135,837.215105 Z M-277.058075,655.430343 C-276.489985,656.744371 -275.390548,657.773599 -274,658.236046 L-300.830224,768.261915 C-301.152424,768.199879 -301.466146,768.120925 -301.802477,768.098366 C-304.207673,767.943277 -306.417852,768.870992 -308.011895,770.430343 L-389,696.399251 C-388.479958,695.714039 -388.146452,694.882198 -388.0871,693.965762 C-388.05601,693.508954 -388.118189,693.071885 -388.21711,692.648914 L-328.658139,672.707272 L-277.058075,655.430343 Z M-251.443771,626.573915 C-249.024572,626.732698 -246.7729,625.901922 -245.074917,624.430343 L-165,708.284836 C-165.329375,708.636427 -165.621836,709.016373 -165.877386,709.430343 L-267.327573,654.593462 C-267.094739,654.060405 -266.930052,653.490487 -266.8903,652.880873 C-266.771043,651.060538 -267.625713,649.415999 -269,648.415098 L-255.081088,625.502129 C-253.987905,626.097565 -252.766948,626.488852 -251.443771,626.573915 L-251.443771,626.573915 Z M-185.564393,582.399392 C-183.268893,582.547426 -181.174356,581.631294 -179.702519,580.109062 L-153,602.559882 C-153.80668,603.615668 -154.330314,604.90328 -154.423719,606.322167 C-154.440702,606.590304 -154.406736,606.85006 -154.395415,607.11261 L-230.395981,615.209765 L-241.873479,616.430343 C-242.051797,615.318695 -242.433909,614.268495 -243,613.330018 L-191.038494,579.430343 C-189.776111,581.100608 -187.834418,582.251359 -185.564393,582.399392 L-185.564393,582.399392 Z M-108.851285,555.430343 C-108.221126,557.448065 -106.834213,559.135666 -105,560.137412 L-122.309684,597.256098 C-122.723226,597.102421 -123.153648,596.98574 -123.615014,596.954436 C-125.499865,596.829217 -127.187791,597.856577 -128.037381,599.430343 L-178,577.517142 C-177.760877,576.8569 -177.575205,576.168199 -177.530194,575.428273 C-177.485182,574.756648 -177.561139,574.107789 -177.68492,573.47316 L-147.583568,565.584408 L-108.851285,555.430343 Z M-106.258483,355.347163 C-103.151942,355.383954 -100.381397,353.844395 -98.7384323,351.430343 L-38,388.076953 C-38.5837222,389.14672 -38.9709721,390.343841 -39.0563948,391.640014 C-39.1304279,392.769213 -38.9681247,393.858791 -38.6349759,394.871957 L-106.597327,420.430343 C-107.237997,419.128509 -108.482322,418.177605 -110,417.945539 L-108.334256,390.097625 L-106.258483,355.347163 Z M100,222.698687 L88.3899612,418.55757 C83.1420536,418.436103 78.5830933,421.701594 76.8678128,426.430343 L-22.0854408,394.707616 C-21.9408469,394.162426 -21.8416158,393.603112 -21.8019234,393.021199 C-21.6119667,390.117284 -22.8963007,387.464778 -25,385.752937 L96.4928894,221.430343 C97.5192225,222.105475 98.7043253,222.551796 100,222.698687 L100,222.698687 Z M287,333.136557 C286.404308,334.187405 286.006239,335.368196 285.924367,336.653507 C285.834025,338.060286 286.130459,339.390795 286.675334,340.59136 L217.22782,376.430343 C216.211474,374.755202 214.432867,373.582885 212.329595,373.444467 C211.053516,373.359721 209.848016,373.670456 208.817554,374.266501 L106,221.17893 C106.660625,220.687405 107.242201,220.105484 107.719319,219.430343 L242.554608,304.947292 L287,333.136557 Z M551.58865,490.430343 L454,364.621143 C455.256409,363.539372 456.198006,362.09417 456.648952,360.430343 L544.050197,379.572875 L549.200622,380.702915 C549.186442,380.816487 549.152408,380.921541 549.146736,381.035113 C548.962387,383.82898 551.078145,386.242381 553.868904,386.426936 C553.891593,386.426936 553.90861,386.424096 553.928463,386.424096 L557,488.482586 C554.994851,488.624551 553.148525,489.317339 551.58865,490.430343 L551.58865,490.430343 Z M332,887.340013 L385.490981,865.430343 C386.919474,868.497247 389.90043,870.734878 393.520968,870.97101 C397.04571,871.198709 400.215441,869.475508 402.058112,866.748746 C403.111871,868.100883 404.695328,869.028544 406.537999,869.155043 L444,891.022547 C443.281528,892.352194 442.819451,893.839263 442.667304,895.430343 L332.276119,889.111002 C332.267666,888.495373 332.18314,887.902232 332,887.340013 L332,887.340013 Z M278.324244,946.970633 C277.190609,946.896853 276.098962,947.064278 275.088488,947.430343 L258,905.582601 C260.958646,904.175095 263.11395,901.257927 263.340677,897.713625 C263.399458,896.77718 263.281896,895.880463 263.08316,895.006447 L282.900767,889.430343 C283.816072,892.234002 286.100135,894.419041 289,895.145495 L278.940045,947.075629 C278.735711,947.044414 278.539774,946.984822 278.324244,946.970633 L278.324244,946.970633 Z M20.1869995,860.103456 C20.2350447,859.8359 20.3028733,859.579611 20.3226566,859.303606 C20.4385304,857.523659 19.9241639,855.861999 19,854.484793 L52.3462082,829.683816 C53.0160151,830.401991 53.9430052,830.883591 55.0028262,830.951184 C56.3678756,831.041308 57.6170513,830.432971 58.3999058,829.430343 L151,886.853362 C150.533679,887.658844 150.146491,888.509389 149.900612,889.430343 L100.778615,878.325386 L20.1869995,860.103456 Z M-56.1361243,834.430343 L4.62747556,856.137767 C4.46268906,856.691673 4.34336091,857.268303 4.306426,857.870498 C4.08197543,861.262105 6.05941339,864.267399 9,865.568367 L-12.4051976,922.169013 C-13.3342525,921.859394 -14.2974012,921.617948 -15.3230551,921.549775 C-17.1413888,921.433312 -18.8659647,921.782699 -20.4456422,922.430343 L-59,837.549258 C-57.7271664,836.867528 -56.7185594,835.773919 -56.1361243,834.430343 L-56.1361243,834.430343 Z M-319.001443,858.430343 C-319.494951,855.671516 -321.834861,853.484539 -324.804421,853.294852 C-325.280912,853.264168 -325.743221,853.297642 -326.197022,853.36459 L-332,828.161354 C-329.722487,827.505819 -327.904448,825.73169 -327.286144,823.430343 L-216,845.322429 C-216.048216,845.620906 -216.130468,845.911015 -216.150322,846.220651 C-216.18152,846.666973 -216.133304,847.096558 -216.104941,847.534511 L-261.799848,852.371524 L-319.001443,858.430343 Z M-365,813.416532 C-364.39991,812.853872 -363.90555,812.184307 -363.551211,811.430343 L-340.527749,820.264102 C-340.699203,820.781749 -340.824936,821.321903 -340.864942,821.890189 C-341.113551,825.645944 -338.221687,828.889678 -334.409686,829.134435 C-333.87532,829.168194 -333.355241,829.128808 -332.849451,829.047223 L-327,854.468194 C-327.711536,854.676379 -328.360205,855.005535 -328.946007,855.430343 L-345.902843,835.669729 L-365,813.416532 Z M440,358.977645 L256.833246,378.430343 C256.694372,377.784952 256.410955,377.190738 256,376.698876 L288.357722,343.118665 C289.684113,344.278662 291.361942,345.054836 293.255168,345.179934 C297.480916,345.452875 301.136995,342.496019 301.910724,338.430343 L439.997166,357.760786 C439.991497,357.831864 439.968824,357.89157 439.963156,357.959805 C439.940482,358.306667 439.980161,358.639313 440,358.977645 L440,358.977645 Z M308.390823,530.430343 C308.079959,528.713593 307.223672,527.191671 306,526.0227 L410.919256,403.755091 L443.800136,365.430343 C445.083155,366.424251 446.668558,367.059561 448.406568,367.175329 C450.396094,367.305214 452.247145,366.703787 453.759072,365.644937 L551,490.758736 C548.871998,492.551723 547.4392,495.157908 547.244204,498.150926 C547.207465,498.701528 547.255508,499.232366 547.300724,499.76885 L462.663898,510.628423 L308.390823,530.430343 Z M520.825803,761.430343 L377.834175,723.15461 L321,707.939218 C321.090478,707.521541 321.183783,707.103863 321.212057,706.669138 C321.251641,706.055408 321.226194,705.455884 321.147026,704.870568 L512.046632,668.430343 C512.747835,671.177922 515.108739,673.297563 518.080368,673.490775 C518.283943,673.504982 518.481863,673.476568 518.682611,673.470885 L526,757.040468 C523.588202,757.409842 521.597691,759.123172 520.825803,761.430343 L520.825803,761.430343 Z M502.486307,820.228598 C501.686573,819.934705 500.847276,819.711458 499.951461,819.65494 C496.690354,819.442998 493.734447,820.97181 491.942817,823.430343 L320,710.216312 C320.333458,709.656783 320.607572,709.063344 320.811038,708.430343 L363.490837,719.801764 L520.524124,761.633562 C520.467606,761.9105 520.40261,762.181786 520.382828,762.470028 C520.204796,765.180066 521.708183,767.61034 524,768.746352 L513.091967,794.84919 L502.486307,820.228598 Z M454.79905,884.846397 C450.766356,884.57843 447.07795,886.422841 444.783632,889.430343 L412,865.854949 C412.519255,865.005437 412.869188,864.036194 412.936917,862.972878 C412.984892,862.228842 412.880476,861.516164 412.685756,860.837695 L435.355198,852.61909 L491.034037,832.430343 C491.666173,833.97828 492.679286,835.326667 494,836.324416 L460.206078,886.665151 C458.620092,885.655999 456.799876,884.97753 454.79905,884.846397 L454.79905,884.846397 Z M248.182628,904.447809 C248.20514,904.099127 248.16293,903.767593 248.14886,903.430343 C249.688116,904.962258 251.71982,905.994014 254.038552,906.14549 C255.366757,906.236948 256.641497,906.025452 257.817747,905.593887 L274.313385,946.055303 L275,947.738695 C274.589157,947.938758 274.200825,948.167402 273.832192,948.430343 L245,910.889854 C246.803771,909.320784 248.016603,907.045776 248.182628,904.447809 L248.182628,904.447809 Z M171.053848,891.856531 L255.637237,886.430343 C255.699587,886.8685 255.832789,887.274739 256,887.669371 C255.521039,887.559106 255.03641,887.451743 254.529108,887.416922 C249.356895,887.07162 244.887537,891.087579 244.55028,896.386092 C244.524773,896.769117 244.567285,897.137633 244.587123,897.509052 C243.07372,896.011772 241.081355,895.001979 238.814084,894.85109 C234.149173,894.537706 230.107762,897.857256 229.217858,902.430343 L171,893.385729 C171.019839,893.205823 171.07652,893.040426 171.087857,892.860521 C171.110529,892.521021 171.06235,892.193128 171.053848,891.856531 L171.053848,891.856531 Z M-421.692299,770.430343 L-418.825625,772.524425 L-375,804.527957 C-375.59369,805.443065 -375.99231,806.501335 -376.068642,807.666273 C-376.144973,808.797527 -375.901843,809.867025 -375.457989,810.829854 L-416.233179,832.430343 C-417.304648,830.715216 -419.150741,829.5194 -421.330431,829.376239 C-421.45765,829.367817 -421.579215,829.393081 -421.706434,829.390274 L-425,772.229682 C-423.688228,772.055643 -422.529119,771.390365 -421.692299,770.430343 L-421.692299,770.430343 Z M-149,614.23057 L-159.708643,706.690842 C-161.671421,706.577335 -163.497855,707.249866 -164.886854,708.430343 L-245,624.50015 C-243.616682,623.052931 -242.685002,621.157358 -242.545818,619.000717 C-242.520253,618.626143 -242.562861,618.265757 -242.582744,617.899696 L-154.783235,608.430343 C-154.28899,611.367346 -151.991035,613.705598 -149,614.23057 L-149,614.23057 Z M-104.528312,560.056039 C-103.736595,560.3787 -102.896637,560.616451 -101.997088,560.675888 C-98.7309012,560.888166 -95.8024,559.127679 -94.3438248,556.430343 L-68.8726747,568.448067 L31,615.567963 C30.7559582,616.159509 30.5828588,616.779359 30.4778641,617.430343 L-119.667415,601.135939 C-119.633362,599.381113 -120.564126,597.830074 -122,596.986625 L-112.348999,576.591024 L-104.528312,560.056039 Z M-106.61866,426.430343 L-58.4170531,468.898447 L-29,494.817084 C-29.6257743,495.645688 -30.0278554,496.658113 -30.1014759,497.76669 C-30.177928,498.951622 -29.8664567,500.068683 -29.2859873,501.004752 L-94.5165823,548.430343 C-95.8870562,546.744854 -97.91162,545.593857 -100.25615,545.443973 C-100.477011,545.429833 -100.69221,545.460941 -100.913071,545.463769 L-109,427.606792 C-108.088238,427.456907 -107.269918,427.038363 -106.61866,426.430343 L-106.61866,426.430343 Z M-38.4932155,395.430343 C-37.2294099,398.311862 -34.4717577,400.425543 -31.1063427,400.646545 C-30.9103818,400.657878 -30.725781,400.626711 -30.5326601,400.626711 L-26,491.905999 C-27.2098454,492.059 -28.2947302,492.611504 -29.1382139,493.430343 L-79.7500789,448.88154 L-107,424.900043 C-106.505838,424.228539 -106.184916,423.415366 -106.125276,422.520027 C-106.091196,421.99869 -106.165036,421.50002 -106.295677,421.021184 L-99.2212054,418.349332 L-38.4932155,395.430343 Z M100.606922,222.540912 C102.120498,222.552216 103.554711,222.165071 104.776343,221.430343 L208,374.567398 C206.642316,375.62145 205.70696,377.206766 205.58508,379.054889 C205.531226,379.882871 205.650272,380.68542 205.8997,381.428625 L98.7532155,425.430343 C97.0242235,421.646495 93.4103468,418.885614 89,418.47021 L98.2260147,262.719219 L100.606922,222.540912 Z M360.421327,608.430343 L350.315715,602.421735 L320.552149,584.71408 C320.933226,583.976379 321.173164,583.148576 321.22962,582.26446 C321.455444,578.789942 318.818952,575.788454 315.332798,575.560386 C314.723074,575.520967 314.138755,575.596989 313.565727,575.720878 L303,539.545342 C303.750864,539.283486 304.428335,538.886479 305.063464,538.430343 L361,607.777111 C360.78829,607.977022 360.59634,608.193828 360.421327,608.430343 L360.421327,608.430343 Z M511.799307,667.17253 L320.929058,703.430343 C320.383513,701.157516 318.961702,699.22957 317,698.030965 L353.415867,631.262425 L361.819529,615.852996 C362.322674,616.070667 362.85974,616.226146 363.439205,616.262896 C365.511147,616.398587 367.34565,615.208463 368.159728,613.430343 L512,664.498283 C511.8728,664.94776 511.785174,665.414198 511.751254,665.903252 C511.722987,666.33294 511.745601,666.756975 511.799307,667.17253 L511.799307,667.17253 Z M412.178636,860.430343 C411.554765,858.995546 410.431233,857.839737 409,857.196356 L484,834.430343 L445.878952,848.228876 L412.178636,860.430343 Z M408,868.667387 C409.519062,868.402512 410.852524,867.593491 411.800509,866.430343 L445,890.260477 C444.965735,890.318059 444.931471,890.372761 444.894351,890.430343 L436.199722,885.302704 L408,868.667387 Z M282.653874,886.430343 L265.203781,886.054461 C265.044081,883.628312 263.13053,881.63215 260.635216,881.472685 C260.458405,881.461295 260.287297,881.484076 260.113338,881.486923 L252,818.364353 C253.026644,818.196345 253.996252,817.863177 254.914528,817.430343 L287,879.467981 C284.573128,880.877539 282.864907,883.423286 282.653874,886.430343 L282.653874,886.430343 Z M-205,837.841303 L-203.248031,824.187515 C-203.14013,824.196041 -203.037908,824.23299 -202.927168,824.241516 C-196.799536,824.642262 -191.503876,820.333531 -190.424867,814.430343 L-68.0085185,832.461074 C-68.0085185,832.492338 -68.0198765,832.523602 -68.022716,832.56055 C-68.0369134,832.782239 -68.0085185,832.995402 -68,833.214249 L-196.583734,846.430343 C-197.205584,842.078979 -200.595942,838.594478 -205,837.841303 L-205,837.841303 Z M79,437.705668 L42.6920694,468.430343 C41.2351216,466.871273 39.2162888,465.828134 36.9179254,465.678711 C34.8030922,465.537746 32.8407303,466.200281 31.2538995,467.356191 L-24,398.858605 C-22.96376,397.939515 -22.1816388,396.758231 -21.6818718,395.430343 L76.8597549,427.091023 C76.6338715,427.886064 76.4814003,428.709298 76.4249294,429.563545 C76.2244579,432.628118 77.2352861,435.472787 79,437.705668 L79,437.705668 Z M300.440745,523.752373 C299.579685,523.695684 298.755446,523.811895 297.962365,524.007469 L255,382.493929 C256.345406,381.921379 257.333926,380.640226 257.435894,379.081301 C257.441558,378.9906 257.427396,378.908402 257.427396,378.823369 L440.453641,359.430343 C440.748215,361.301053 441.671588,362.962016 443,364.223328 L304.882002,525.430343 C303.644228,524.472313 302.117546,523.862915 300.440745,523.752373 L300.440745,523.752373 Z M360,609.612411 C359.87512,609.873575 359.76727,610.146219 359.687801,610.430343 L357.400231,609.994113 L302.35381,599.513112 C302.370839,599.378225 302.410573,599.251948 302.421926,599.117061 C302.532615,597.38075 301.973494,595.767847 301,594.490726 L308.93554,587.459387 L310.215557,586.322892 C311.26852,587.384768 312.673417,588.099382 314.274149,588.20557 C316.587262,588.360546 318.670483,587.226922 319.899413,585.430343 L343.002165,599.363875 L360,609.612411 Z M316.33765,698.430343 C315.35154,697.950623 314.266818,697.635541 313.106025,697.561738 C312.272058,697.504967 311.469082,697.612833 310.688646,697.783147 L304,672.746895 C306.056745,672.017381 307.592259,670.107019 307.744402,667.776547 C307.834561,666.345904 307.375315,665.023127 306.572339,663.970014 L360.374524,615.430343 C360.568929,615.617689 360.774603,615.782326 361,615.93561 L335.623153,662.811875 L316.33765,698.430343 Z M262,892.130259 C263.817524,891.710728 265.238344,890.100083 265.364952,888.058172 L265.364952,888.052304 L282.386656,887.442078 L282.811495,887.430343 C282.845257,887.849873 282.912781,888.257669 283,888.662531 L263.083199,894.430343 C262.824357,893.605951 262.450161,892.843168 262,892.130259 L262,892.130259 Z M171.277959,891.430343 C170.813509,886.840859 167.494396,883.028967 163,881.921743 L178.754459,806.433324 C178.833755,806.441776 178.910219,806.467132 178.992348,806.472767 C180.229935,806.551653 181.37973,806.145953 182.277477,805.430343 L257,883.088131 C256.314654,883.862906 255.855869,884.848983 255.782237,885.964659 C255.776573,886.032276 255.790733,886.097075 255.787901,886.161874 L247.889431,886.654913 L171.277959,891.430343 Z M59.3585241,826.665432 L142.962397,805.430343 C143.992801,808.764708 146.968269,811.292964 150.666431,811.535361 C151.019309,811.557909 151.355249,811.515631 151.699658,811.498719 L159,881.703605 C155.89185,882.14612 153.207154,883.918999 151.499224,886.430343 L59,828.962565 C59.2173729,828.511594 59.3585241,828.021163 59.3924004,827.491273 C59.4121616,827.209416 59.3980465,826.936015 59.3585241,826.665432 L59.3585241,826.665432 Z M13.0172738,851.611533 C11.6155074,851.518045 10.2903558,851.832505 9.1099209,852.3991 L-28,784.886492 C-27.4239705,784.50404 -26.9359061,784.011103 -26.5528323,783.430343 L51.7588054,825.941954 C51.5970631,826.335737 51.4778846,826.752185 51.4466712,827.199795 C51.3927571,828.035522 51.6027383,828.828755 52,829.497337 L18.5363743,854.430343 C17.2055475,852.832545 15.2561274,851.756015 13.0172738,851.611533 L13.0172738,851.611533 Z M-58,826.772644 L-47.3071364,808.541578 L-33.1685124,784.430343 C-32.5984521,784.707256 -31.9663061,784.885272 -31.297473,784.930482 C-30.4395604,784.984169 -29.6324454,784.806154 -28.9015265,784.478379 L8,851.805039 C6.63693505,852.655559 5.56454441,853.918622 4.93239834,855.430343 L-55.4234404,833.833933 C-55.3020909,833.404434 -55.2174285,832.957982 -55.1863856,832.491751 C-55.0339932,830.135162 -56.1825801,828.013102 -58,826.772644 L-58,826.772644 Z M-326.940359,822.027187 L-212.945901,813.430343 C-212.363688,818.741333 -208.319438,823.04546 -203,823.92397 L-204.752319,837.623586 C-204.823321,837.617882 -204.891482,837.595063 -204.965324,837.592211 C-210.009276,837.258491 -214.411374,840.66129 -215.5616,845.430343 L-327,823.04546 C-326.977279,822.882879 -326.931838,822.731707 -326.920478,822.563421 C-326.909118,822.380873 -326.937519,822.206883 -326.940359,822.027187 L-326.940359,822.027187 Z M-362.520982,807.980636 C-362.453356,806.952611 -362.642146,805.972598 -363,805.077312 L-309.13022,779.430343 C-308.594848,780.416004 -307.879139,781.29152 -307,781.980636 L-330.4127,815.487479 C-331.328469,814.925455 -332.371038,814.544182 -333.515045,814.470751 C-336.411694,814.281527 -338.987119,815.939359 -340.139579,818.430343 L-362.839388,809.565038 C-362.678776,809.059498 -362.557613,808.534188 -362.520982,807.980636 L-362.520982,807.980636 Z M-420.265676,767.430343 L-309.615244,775.753033 C-309.643597,776.903597 -309.422449,778.003771 -309,779.008765 L-363.206718,804.430343 C-364.278435,802.532333 -366.260259,801.185809 -368.619168,801.031841 C-370.833481,800.89187 -372.852163,801.838075 -374.176214,803.397355 L-421,769.398339 C-420.63142,768.810459 -420.379085,768.146996 -420.265676,767.430343 L-420.265676,767.430343 Z M-94,548.869052 L-28.7106668,501.430343 C-27.7753708,502.522253 -26.4262771,503.25208 -24.8816214,503.353916 C-23.9831704,503.410492 -23.130067,503.232278 -22.3563221,502.895653 L35,612.168755 C33.6877513,612.943842 32.6107437,614.075355 31.8823465,615.430343 L-93.3056135,556.322899 C-92.979677,555.530839 -92.7416017,554.693519 -92.6820828,553.793966 C-92.5658794,551.977886 -93.0788751,550.280616 -94,548.869052 L-94,548.869052 Z M-30,401.055446 C-28.4164056,400.902562 -26.963828,400.322168 -25.7334093,399.430343 L30,468.219773 C28.333808,469.689161 27.2258616,471.78141 27.0692111,474.165273 C26.9951581,475.297749 27.157505,476.390588 27.4878952,477.409817 L-20.609513,495.430343 C-21.4383367,493.675005 -23.1557961,492.395307 -25.2435204,492.25941 C-25.311877,492.256578 -25.3802336,492.270734 -25.4514383,492.267903 L-29.2224437,416.612837 L-30,401.055446 Z M206.014707,382.430343 C206.278018,382.956362 206.600786,383.448627 207,383.879007 L155.136217,438.146236 C154.462367,437.623029 153.629965,437.288289 152.712623,437.226405 C150.589147,437.088571 148.720488,438.469724 148.176878,440.430343 L99.5974046,431.988711 C99.6398742,431.701791 99.7219819,431.431749 99.741801,431.136391 C99.8550531,429.406433 99.5690916,427.746798 99,426.222185 L117.978215,418.455659 L206.014707,382.430343 Z M490.997151,831.255212 L407.794671,856.175854 C407.57937,856.139206 407.369735,856.082824 407.145935,856.068729 C405.525512,855.964423 404.018406,856.497228 402.839916,857.430343 C401.548111,854.01644 398.36109,851.484909 394.465843,851.231192 C392.785929,851.121248 391.196669,851.490547 389.771716,852.15585 L340.887072,759.233432 L317,713.823739 C318.034011,713.217638 318.920711,712.397286 319.628938,711.430343 L492,824.373845 C491.280442,825.574772 490.793182,826.942025 490.696863,828.436135 C490.634539,829.414355 490.767685,830.353108 490.997151,831.255212 L490.997151,831.255212 Z M261.419662,811.323798 C261.707532,810.44466 261.927669,809.531491 261.989759,808.567275 C262.257873,804.41831 260.217378,800.686226 257,798.539428 L260.242779,793.199372 L308.672789,713.430343 C309.756537,714.023052 310.964465,714.41441 312.276817,714.502324 C313.789549,714.601582 315.220436,714.272614 316.501743,713.671397 L389,852.827629 C387.221975,853.868415 385.8306,855.490567 385.017789,857.430343 L329.848218,836.850001 L261.419662,811.323798 Z M-166.251673,716.430343 C-165.539132,717.826457 -164.413771,718.981373 -163,719.682268 L-195.841895,797.362427 L-197.264148,800.719345 C-198.35558,800.299375 -199.503561,799.98156 -200.733542,799.902107 C-206.018217,799.555916 -210.675178,802.748251 -212.538528,807.430343 L-293.810555,778.211253 C-293.635247,777.626701 -293.508008,777.025123 -293.468422,776.392331 C-293.389251,775.1835 -293.595662,774.028584 -294,772.964472 L-238.710253,748.498415 L-166.251673,716.430343 Z M34,626.134748 L-2.40262196,687.791073 C-3.24807668,687.355819 -4.18684244,687.081665 -5.1934708,687.013833 C-7.48383306,686.864038 -9.57060757,687.833468 -10.9844114,689.430343 L-120,604.06396 C-119.683308,603.575005 -119.454272,603.026698 -119.335512,602.430343 L30.2421093,618.698681 C30.06397,621.779378 31.5937058,624.543526 34,626.134748 L34,626.134748 Z M79.2610089,438.430343 C81.2042177,440.575824 83.9145568,442.008984 87,442.295615 L85.4516377,470.246474 C81.9431447,470.260664 78.9930774,472.905623 78.5982309,476.430343 L44.7880905,474.673659 C44.7937312,472.678588 44.1365938,470.836765 43,469.346848 L63.8478944,451.569999 L79.2610089,438.430343 Z M360,614.682176 L305.607548,663.430343 C304.676132,662.535149 303.451333,661.933601 302.061329,661.842371 C301.890427,661.830967 301.72807,661.856626 301.560016,661.859477 L296,605.476501 C298.663225,605.046009 300.842227,603.064608 301.505897,600.430343 L359.042948,611.275306 C359.037251,611.332325 359.017313,611.380791 359.014464,611.44066 C358.937558,612.65516 359.322088,613.778429 360,614.682176 L360,614.682176 Z M257.976825,882.430343 L183,804.714204 C183.559783,804.079798 183.943391,803.304413 184.102517,802.430343 L192.53336,803.177532 L239.705735,807.342055 C239.396007,813.412615 244.03908,818.628841 250.173961,819.023583 C250.765001,819.063057 251.338992,819.015124 251.910141,818.964372 L260,881.480144 C259.246992,881.64086 258.55934,881.965112 257.976825,882.430343 L257.976825,882.430343 Z M265.101931,886.606343 L276,886.855343 L265,887.254343 C265.045302,887.041343 265.079279,886.825343 265.101931,886.606343 L265.101931,886.606343 Z M-61.0356657,825.762008 C-61.3627777,825.742269 -61.6787064,825.770468 -61.994635,825.795848 L-71,766.252048 C-70.0074807,765.98415 -69.1687321,765.324275 -68.6682787,764.430343 L-53.3079946,771.000888 L-35.878797,778.451265 C-36.010201,778.854522 -36.1108508,779.266238 -36.1388091,779.708975 C-36.2590298,781.541959 -35.389527,783.200105 -34,784.189917 L-58.5921112,826.430343 C-59.3330059,826.055286 -60.1577754,825.818408 -61.0356657,825.762008 L-61.0356657,825.762008 Z M-190,808.231699 L-133.501965,786.589478 L-75.6557177,764.430343 C-75.0577653,765.6005 -73.895707,766.441195 -72.4967242,766.532081 C-72.3585182,766.543442 -72.2259533,766.52356 -72.0877474,766.51788 L-68.8949075,787.594904 L-63,826.494099 C-65.4200147,827.033734 -67.3464366,828.939499 -67.8738757,831.430343 L-189.475381,813.4122 C-189.455638,813.227587 -189.399227,813.060016 -189.385124,812.872564 C-189.280765,811.247977 -189.509228,809.680194 -190,808.231699 L-190,808.231699 Z M-162.67181,720.370112 C-162.042871,720.593852 -161.388434,720.766613 -160.688668,720.811928 C-157.926434,720.993185 -155.453173,719.6026 -154.056474,717.430343 L-90.4741044,753.138065 L-76,761.26633 C-76.1643175,761.657166 -76.283306,762.073492 -76.3116366,762.520972 C-76.3399672,762.942962 -76.283306,763.347959 -76.1813159,763.735963 L-191.076071,807.430343 C-192.220627,804.719977 -194.314259,802.505237 -197,801.250596 L-190.005174,784.770326 L-162.67181,720.370112 Z M252,382.592094 L228.133275,450.925627 L219.92468,474.430343 C219.614283,474.348109 219.289776,474.28856 218.953983,474.265875 C218.872151,474.260204 218.793141,474.277218 218.705665,474.274382 L213,385.475952 C215.875407,385.093139 218.175168,382.722534 218.369872,379.705401 C218.372694,379.694058 218.369872,379.682716 218.369872,379.671373 L249.753853,379.430343 C249.909051,380.819812 250.775342,382.00795 252,382.592094 L252,382.592094 Z M293.167177,527.430343 L278.216327,517.847111 L222.467203,482.114175 C222.807898,481.481134 223.02935,480.77744 223.077615,480.017225 C223.222411,477.795927 221.930607,475.826151 220,474.969849 L252.27805,383.430343 C252.493824,383.478386 252.709598,383.523603 252.936728,383.537734 C253.283102,383.560342 253.620958,383.523603 253.947458,383.46143 L297,524.533612 C295.452675,525.09035 294.123963,526.110564 293.167177,527.430343 L293.167177,527.430343 Z M295.584632,591.827053 C293.40346,591.821418 291.42704,592.818782 290.172937,594.430343 L203,536.202859 C203.602879,535.205495 204.009538,534.075712 204.089164,532.838868 C204.092008,532.805059 204.083477,532.77125 204.08632,532.737441 L291.825167,532.430343 C292.041294,536.326826 295.035784,539.535859 299,539.997915 L297.04633,569.651192 L295.584632,591.827053 Z M306.607764,699.430343 L296.079473,689.574025 C297.150705,688.226371 297.85662,686.543931 297.97473,684.668563 C298.153269,681.820048 296.961179,679.226877 295,677.516066 L299.488189,671.430343 C300.249039,671.94387 301.127999,672.287167 302.100348,672.349585 C302.575536,672.383631 303.031496,672.329725 303.47647,672.24461 L310,697.262747 C308.700787,697.696834 307.552646,698.448683 306.607764,699.430343 L306.607764,699.430343 Z M251.535745,796.00434 C249.497662,795.874447 247.569821,796.340369 245.859639,797.187499 L224.647736,758.304224 L198,709.441757 C200.399907,707.981869 202.084648,705.434831 202.319268,702.430343 L221.122784,703.02051 L304.186719,705.629671 C304.234774,708.546623 305.707509,711.133193 308,712.689089 L256.245105,797.430343 C254.834558,796.645336 253.257234,796.117291 251.535745,796.00434 L251.535745,796.00434 Z M57,823.19634 L69.1063018,785.420364 C69.6013025,785.549465 70.1076174,785.639274 70.6337324,785.675759 C74.2995658,785.911508 77.521313,783.680312 78.7376003,780.430343 L143,800.401654 C142.864228,800.920863 142.765228,801.456911 142.731285,802.009799 C142.677542,802.795629 142.768057,803.547781 142.917971,804.283093 L59.1327457,825.430343 C58.7593738,824.431216 57.9900013,823.62574 57,823.19634 L57,823.19634 Z M-25.5626857,779.889629 L-20.1202389,779.738595 L62.8001921,777.430343 C63.0512951,780.610601 65.1052616,783.300712 68,784.400694 L64.7187322,794.824874 L55.9131975,822.786069 C55.7354504,822.751873 55.563346,822.709128 55.3771348,822.697729 C53.932587,822.603689 52.6291083,823.310413 51.8588708,824.430343 L-26,781.673537 C-25.7630039,781.137794 -25.5993637,780.559307 -25.5598643,779.940923 C-25.5598643,779.920975 -25.5626857,779.903877 -25.5626857,779.889629 L-25.5626857,779.889629 Z M78.6594238,477.186921 C78.6875,480.07293 80.4450684,482.567328 83,483.597437 L41.2591553,611.430343 C40.7285156,611.279941 40.1697998,611.186295 39.5970459,611.146566 C39.5043945,611.140891 39.4145508,611.160755 39.324707,611.157917 L37,483.242716 C41.1636963,482.961777 44.583374,479.706858 45.0073242,475.430343 L62.8525391,476.36113 L78.6594238,477.186921 Z M149,443.020106 L142.488199,446.500538 L92.1216412,473.430343 C91.0466594,471.634451 89.1893609,470.372474 87,470.112655 L88.5421206,441.983685 C94.2997458,442.103602 99.2244009,438.043574 100.392248,432.430343 L148.67638,440.998658 C148.67638,441.018644 148.670752,441.035775 148.667938,441.05005 C148.622912,441.752418 148.755174,442.411958 149,443.020106 L149,443.020106 Z M211.838226,385.85298 C211.969449,385.861448 212.094966,385.841689 212.226189,385.841689 L214.582497,421.949565 L218,474.242756 C216.542284,474.454458 215.281402,475.270216 214.471243,476.430343 L156.681789,443.574208 C156.898592,443.105641 157.044078,442.597557 157.081163,442.0556 C157.158185,440.853133 156.741695,439.729702 156,438.888539 L208.258121,384.430343 C209.239441,385.237633 210.468943,385.765476 211.838226,385.85298 L211.838226,385.85298 Z M293,528.077351 C292.928924,528.199759 292.84079,528.305088 292.778244,528.430343 L276.450727,521.176924 L214.759835,493.771639 C214.927574,493.304778 215.052667,492.820837 215.086783,492.302736 C215.209034,490.42106 214.37034,488.704493 213,487.622743 L215.550197,483.799611 C216.204094,484.166836 216.937596,484.408807 217.733644,484.462894 C219.536124,484.579609 221.182238,483.762603 222.202886,482.430343 L237.577988,492.34259 L293,528.077351 Z M179.674438,796.727283 C179.179723,796.696111 178.70491,796.761289 178.247157,796.871809 L157,733.997455 C157.870016,733.640391 158.64052,733.10763 159.280238,732.430343 L228.096802,789.48116 L242,801.009212 C240.81439,802.53665 240.063788,804.398481 239.802214,806.430343 L184.13256,801.496632 C184.13256,799.000021 182.20772,796.894479 179.674438,796.727283 L179.674438,796.727283 Z M-69,759.880907 L-10.2354842,699.430343 C-9.58229484,699.99409 -8.83056402,700.433812 -8,700.732598 L-29.7664082,774.83147 C-29.9944614,774.786371 -30.2196991,774.729996 -30.4561987,774.715902 C-32.5227545,774.580603 -34.3753346,775.708096 -35.2819164,777.430343 L-68.2848703,763.418417 C-68.2032216,763.147819 -68.1440967,762.863127 -68.1272039,762.569979 C-68.0596326,761.552416 -68.4003046,760.60814 -69,759.880907 L-69,759.880907 Z M-152.303438,712.927294 L-12.7287153,695.430343 C-12.4833674,696.760802 -11.8798681,697.966707 -11,698.937659 L-69.8496415,759.629237 C-70.4362203,759.167822 -71.1609835,758.873423 -71.9618891,758.819638 C-73.335273,758.731884 -74.5789327,759.385791 -75.3262566,760.430343 L-153,716.629933 C-152.593907,715.797689 -152.334459,714.87486 -152.269597,713.892585 C-152.247036,713.564216 -152.283697,713.250001 -152.303438,712.927294 L-152.303438,712.927294 Z M38.5165249,628.005262 C41.0613519,628.175037 43.3868459,627.145069 45.0290326,625.430343 L76,652.537738 C75.2520177,653.522433 74.7739839,654.730664 74.686813,656.057738 C74.6249498,656.99433 74.7739839,657.891307 75.074864,658.717545 L1.3423657,691.430343 C0.794032794,690.360761 -0.0101888033,689.455295 -1,688.784684 L35.2012197,627.057352 C36.2022788,627.586484 37.3186283,627.928864 38.5165249,628.005262 L38.5165249,628.005262 Z M149.384608,444.430343 C150.119762,445.54682 151.340288,446.330911 152.776536,446.424661 C154.045315,446.507047 155.217588,446.035456 156.077634,445.228638 L173.267186,460.367843 L206,489.197388 C205.517466,489.842275 205.191046,490.603638 205.023579,491.430343 L92.6301322,477.98432 C92.701093,476.811025 92.4513109,475.70307 92,474.70307 L114.704629,462.722956 L149.384608,444.430343 Z M290,595.889681 C289.481047,596.772214 289.129407,597.770722 289.055676,598.862573 C289.03299,599.244439 289.058512,599.617818 289.098213,599.988369 L231.948199,609.430343 C231.304471,606.675255 228.950751,604.533981 225.973154,604.341634 C225.179128,604.28789 224.413461,604.401035 223.693166,604.616011 L200,539.795079 C201.213725,539.274611 202.279989,538.474108 203.074015,537.430343 L253.534361,571.36827 L290,595.889681 Z M299.736784,662.430343 L276,616.716328 C277.752922,615.608645 278.979967,613.689419 279.124652,611.428492 C279.194213,610.309418 278.968837,609.25299 278.55704,608.293377 L289.622705,602.430343 C290.710629,604.284075 292.630495,605.582542 294.898164,605.730613 C295.126322,605.747698 295.34335,605.716376 295.568726,605.707833 L301,662.028843 C300.557596,662.108574 300.137451,662.248102 299.736784,662.430343 L299.736784,662.430343 Z M202,701.088876 L278.754762,686.799525 L280.730162,686.430343 C281.579188,690.064926 284.647001,692.883875 288.521389,693.138582 C291.096767,693.307433 293.457059,692.291466 295.15228,690.577202 L306,700.522224 C304.896266,701.87303 304.177425,703.555813 304.02743,705.430343 L202.039621,702.187836 C202.033961,701.821516 202.048111,701.44661 202,701.088876 L202,701.088876 Z M242.425444,800.430343 L160,731.801662 C160.710906,730.826355 161.175402,729.64975 161.260371,728.354067 C161.351005,726.993174 161.016794,725.697491 160.376695,724.600271 L168.07204,719.414703 L185.864516,707.430343 C187.393956,709.491528 189.753257,710.91763 192.517577,711.096247 C194.143314,711.203985 195.68125,710.83541 197.049249,710.169139 L245,798.26142 C244.028523,798.8398 243.178834,799.591126 242.425444,800.430343 L242.425444,800.430343 Z M78.6829232,779.289323 C78.8076063,778.805327 78.8982849,778.31001 78.9322893,777.79488 C79.0343028,776.24949 78.6715884,774.794672 78,773.515338 L149.304549,731.430343 C150.35302,732.964411 152.02774,734.037127 154,734.257897 L151.183296,793.763912 C147.485309,793.769573 144.294556,796.084828 143.064728,799.430343 L87.586428,782.071591 L78.6829232,779.289323 Z M-29,775.246929 L-21.4557091,749.532239 L-7.16646635,700.848401 C-6.79645433,700.930484 -6.42361779,701.012568 -6.03383413,701.035211 C-4.1640024,701.159751 -2.42692308,700.53139 -1.0796274,699.430343 L65,771.52488 C63.6894231,772.860855 62.8053486,774.635551 62.6754207,776.656496 C62.6669471,776.769714 62.6895433,776.877272 62.6867187,776.98766 L-25.774399,779.430343 C-25.986238,777.525446 -27.2487981,775.926239 -29,775.246929 L-29,775.246929 Z M213.537636,477.48928 C213.26504,478.063033 213.088988,478.690752 213.043556,479.358236 C212.927134,481.12494 213.713688,482.741104 215,483.766473 L212.450091,487.581075 C211.757243,487.189106 210.976369,486.927793 210.127346,486.873826 C208.511647,486.768733 207.029406,487.385091 205.95322,488.430343 L156,444.461587 C156.008519,444.450225 156.011358,444.438864 156.019877,444.430343 L186.062229,461.699725 L213.537636,477.48928 Z M290.013251,675.607538 C287.808578,675.463185 285.760568,676.179287 284.142668,677.430343 L251.519774,639.751486 L230,614.894535 C230.153814,614.750183 230.299084,614.594508 230.438656,614.430343 L297.960329,663.86403 C297.476098,664.63391 297.14853,665.511347 297.085865,666.482189 C296.96908,668.290842 297.732455,669.93533 299,671.053355 L294.342842,677.130316 C293.095236,676.278352 291.633999,675.712264 290.013251,675.607538 L290.013251,675.607538 Z M74.9251319,658.99235 C75.9401223,660.957948 77.8967981,662.367245 80.2425537,662.52415 C83.1042626,662.709584 85.6276415,660.980771 86.6539095,658.430343 L102,663.596814 C101.797002,664.321432 101.650392,665.068873 101.599643,665.8534 C101.540435,666.780569 101.639115,667.673504 101.80546,668.549322 L7.33523156,690.958284 L1.13815147,692.430343 C1.09304078,692.27629 1.05356894,692.122237 1,691.97389 L8.27691706,688.72452 L74.9251319,658.99235 Z M45,624.449392 C46.011315,623.182174 46.6600296,621.612839 46.776175,619.881255 C46.7875063,619.707817 46.7563453,619.542771 46.7591782,619.37213 L218.832864,611.430343 C218.866858,611.718474 218.92918,611.987023 219,612.261167 L86.8746724,653.430343 C85.9823356,651.170052 83.846393,649.497214 81.2345376,649.32937 C79.2742295,649.203488 77.4782248,649.964378 76.1949595,651.242785 L59.0790909,636.542505 L45,624.449392 Z M85.265401,483.935089 C88.0017536,484.110326 90.4531869,482.663205 91.7339128,480.430343 L189.864593,529.115219 C189.537359,529.884002 189.303217,530.709313 189.246798,531.591153 C189.156526,532.936523 189.45555,534.211233 190,535.344622 L172.422461,545.005285 L46.0932449,614.430343 C45.1510369,612.895603 43.7151571,611.711338 42,611.044306 L83.9423605,483.708976 C84.3683288,483.822032 84.808402,483.903998 85.265401,483.935089 L85.265401,483.935089 Z M277.826944,607.462345 C276.739972,605.646995 274.824431,604.372569 272.569035,604.22247 C268.920518,603.984577 265.771952,606.759994 265.513551,610.430343 L232.011235,610.166961 C232.005617,610.073503 232.008426,609.977213 232,609.883755 L288.60678,600.430343 C288.699468,600.846655 288.831477,601.248808 289,601.6368 L286.90751,602.724311 L277.826944,607.462345 Z M154.983908,721.850936 C153.612771,721.760031 152.314687,722.109444 151.218902,722.771341 L119,675.217072 C120.323372,674.222807 121.427586,672.950148 122.166539,671.430343 L184.33129,699.244193 C184.008174,700.087898 183.763729,700.974214 183.701916,701.925867 C183.578289,703.860423 184.072797,705.687029 185,707.22956 L159.718263,724.430343 C158.611239,722.978716 156.936654,721.97877 154.983908,721.850936 L154.983908,721.850936 Z M102.960168,669.430343 C103.820575,672.528632 106.04235,675.057675 109,676.312284 L73.8280276,769.954832 C73.2138554,769.759419 72.5770409,769.612151 71.906263,769.566838 C69.7524148,769.428066 67.7542324,770.153077 66.2117262,771.430343 L0,699.300234 C1.13494495,698.124923 1.89912235,696.57861 2.01233382,694.819892 C2.05195783,694.244981 2.00101267,693.68423 1.90761321,693.140472 L80.1678698,674.780132 L102.960168,669.430343 Z M74,770.474683 L98.5740439,705.225662 L109.390155,676.501769 C110.230269,676.780283 111.101709,676.99059 112.02441,677.053113 C114.339707,677.200896 116.518308,676.578503 118.346623,675.430343 L151,722.999406 C149.570382,724.121988 148.587876,725.80444 148.459723,727.756881 C148.382832,728.987458 148.664768,730.146986 149.188771,731.170099 L77.5284784,773.430343 C76.6655818,772.137242 75.4524003,771.105603 74,770.474683 L74,770.474683 Z M193.695639,692.457827 C189.932192,692.212584 186.560417,694.281647 184.973866,697.430343 L122.178806,669.830625 C122.576154,668.838377 122.868488,667.789751 122.942281,666.667834 C123.058647,664.897573 122.684005,663.220336 122,661.706594 L168.980638,638.535346 L219.869471,613.430343 C220.576182,614.645283 221.680239,615.595248 223,616.156206 L195.719272,692.841196 C195.072163,692.646692 194.399511,692.505748 193.695639,692.457827 L193.695639,692.457827 Z M87.0028285,654.102673 L218.926459,612.430343 C218.949087,612.486974 218.977372,612.535111 219,612.591743 L121.465158,661.085343 C119.787863,658.030071 116.656724,655.855419 112.920288,655.609072 C108.179738,655.30043 104.010543,658.199966 102.412445,662.430343 L87,657.299524 C87.1018257,656.903103 87.1781949,656.495356 87.2036513,656.070619 C87.2489072,655.388209 87.1583955,654.734114 87.0028285,654.102673 L87.0028285,654.102673 Z M297.749865,663.430343 L231.72643,615.007077 L231,614.474491 C231.574386,613.585914 231.962941,612.559985 232.041779,611.430343 L265.629291,611.693833 C265.80949,614.995865 268.413937,617.720462 271.809573,617.941906 C272.941452,618.017589 274.011387,617.776524 274.977144,617.339243 L299,662.348353 C298.529792,662.645479 298.11308,663.012683 297.749865,663.430343 L297.749865,663.430343 Z M190.665561,536.430343 C191.91901,538.433655 194.074261,539.837106 196.618025,540.001219 C197.556693,540.063469 198.458496,539.927651 199.312088,539.670163 L223,604.509018 C220.822062,605.468231 219.219803,607.547941 219.055323,610.086036 C219.049652,610.193559 219.066667,610.292593 219.066667,610.397286 L46.8053833,618.430343 C46.7089642,617.428686 46.4253785,616.480791 46,615.606464 L130.383754,569.422751 L190.665561,536.430343 Z M208,497.01828 L199.03814,524.83395 C198.579284,524.715574 198.109098,524.631019 197.619085,524.597197 C194.613859,524.402722 191.923036,525.989531 190.529472,528.430343 L92,479.884683 C92.1954388,479.42527 92.3370611,478.937671 92.4276994,478.430343 L204.601065,491.767434 C204.504761,494.115236 205.920985,496.169914 208,497.01828 L208,497.01828 Z M283,677.662059 C281.478515,679.092997 280.456622,681.061945 280.309015,683.304123 C280.272113,683.884385 280.294822,684.450563 280.368625,685.002658 L201.399002,699.430343 C200.731933,696.585368 198.719371,694.250235 196,693.154497 L223.284544,616.523264 C223.724526,616.647203 224.178701,616.731708 224.652746,616.759876 C226.301967,616.869731 227.82913,616.345805 229.046886,615.430343 L244.054521,632.736805 L283,677.662059 Z M178,797.641169 C176.39805,798.342024 175.222518,799.860542 175.101507,801.709545 C175.098626,801.738035 175.104388,801.769374 175.104388,801.797864 L159.937722,802.430343 C159.560284,798.302138 156.275709,794.940314 152,794.535756 L154.863918,734.646867 C155.419991,734.63832 155.955895,734.567095 156.471631,734.430343 L160.032801,744.886183 L178,797.641169 Z M292.449251,531.12414 L204.857383,531.430343 C204.68137,528.449779 202.750908,525.91307 200,524.868047 L208.988003,497.127177 C209.286089,497.194598 209.584175,497.253591 209.896456,497.276064 C212.105131,497.419334 214.083855,496.239469 215.074636,494.430343 L293,528.640805 C292.716109,529.379625 292.497512,530.154965 292.443573,530.989298 C292.440734,531.037055 292.449251,531.079193 292.449251,531.12414 L292.449251,531.12414 Z M-123.946549,605.917863 C-122.47927,606.016467 -121.139456,605.422023 -120.207535,604.430343 L-11,689.520417 C-11.7138118,690.545904 -12.1896863,691.754513 -12.2774965,693.092718 C-12.2973246,693.402618 -12.2633335,693.706883 -12.2435054,694.011148 L-152.436703,711.430343 C-152.898415,708.93424 -154.637623,706.874814 -157,705.970469 L-124.671692,605.799537 C-124.436587,605.853065 -124.195817,605.903776 -123.946549,605.917863 L-123.946549,605.917863 Z M-330,816.978428 L-306.407536,783.199099 C-305.297603,783.89649 -304.025864,784.366161 -302.629222,784.457249 C-299.055294,784.693508 -295.901495,782.567178 -294.592852,779.430343 L-213,808.746371 C-213.289548,809.657249 -213.508128,810.602285 -213.573418,811.601403 C-213.598966,812.028377 -213.545031,812.438272 -213.527999,812.85386 L-327.467877,821.430343 C-327.712005,819.642745 -328.645938,818.065788 -330,816.978428 L-330,816.978428 Z M160.889061,881.245913 C160.394425,881.211864 159.91992,881.265775 159.439664,881.296986 L152,810.606438 C156.008849,810.002075 159.200973,806.724899 159.477049,802.570971 C159.485676,802.395053 159.456918,802.230485 159.459794,802.060242 L174.595067,801.430343 C174.839509,803.294503 176.185378,804.835202 178,805.377142 L161.999115,881.430343 C161.631014,881.36792 161.271541,881.271449 160.889061,881.245913 L160.889061,881.245913 Z M-22,502.539394 C-20.5587364,501.63467 -19.5490058,500.090158 -19.4305458,498.260981 C-19.3882386,497.6071 -19.4813143,496.975767 -19.6561839,496.378254 L19.2438302,481.725115 L27.9873079,478.430343 C29.2452404,481.319258 32.0008461,483.435916 35.3628543,483.655755 C35.4643915,483.664211 35.5631082,483.644482 35.6674658,483.6473 L36.4797631,527.925204 L38,610.68909 C36.9677055,610.759551 35.9918206,611.01603 35.0920886,611.430343 L19.3453674,581.399721 L-22,502.539394 Z M307.83756,582.177602 C307.732577,583.764511 308.24898,585.235855 309.151268,586.40842 L299.93545,594.430343 C298.90548,593.398711 297.546373,592.702501 296,592.502375 L296.544777,584.20986 L299.407696,540.650199 C300.085831,540.661473 300.741266,540.579732 301.37684,540.430343 L312,576.664292 C309.710232,577.498617 308.004965,579.604161 307.83756,582.177602 L307.83756,582.177602 Z M-140.77243,607.930165 C-140.735492,607.360995 -140.783795,606.808732 -140.877562,606.270556 L-128.659549,603.430343 C-128.230498,604.709566 -127.255898,605.740834 -126,606.270556 L-158.420355,706.430343 C-158.607887,706.382442 -158.806785,706.368354 -159,706.334542 L-148.287928,614.526335 C-144.386688,614.740478 -141.028156,611.804464 -140.77243,607.930165 L-140.77243,607.930165 Z M288,342.911968 L272.5919,358.835183 L255.572812,376.421678 C254.959102,375.941995 254.200488,375.632613 253.365161,375.578685 C251.197287,375.436766 249.330585,377.046118 249.11465,379.189082 L217.491536,379.430343 C217.437553,378.726429 217.267078,378.059414 217,377.434974 L286.872024,341.430343 C287.187402,341.969632 287.576654,342.45783 288,342.911968 L288,342.911968 Z M-272.68798,657.746866 C-270.786242,657.871623 -269.076941,656.921764 -268.100602,655.430343 L-167,710.261333 C-167.379216,711.069423 -167.631083,711.948397 -167.693342,712.892586 C-167.761261,713.967203 -167.585803,714.996454 -167.232057,715.940642 L-295.087176,772.430343 C-296.080494,770.462574 -297.829415,768.937128 -300,768.284986 L-273.140775,657.67031 C-272.990787,657.695828 -272.843628,657.735524 -272.68798,657.746866 L-272.68798,657.746866 Z M-392.438263,697.589859 C-391.167216,697.67429 -389.986757,697.221178 -389.106366,696.430343 L-308,770.318562 C-308.948331,771.461193 -309.573946,772.871187 -309.774936,774.430343 L-420.256917,766.066064 C-420.26541,764.090382 -421.349621,762.348293 -423,761.436441 L-393.624385,697.333752 C-393.247883,697.466027 -392.857227,697.56453 -392.438263,697.589859 L-392.438263,697.589859 Z M331.469814,886.430343 C330.558794,884.599944 328.745215,883.277206 326.559331,883.133369 C325.01652,883.034657 323.580888,883.545138 322.466792,884.444826 L259,816.020632 C260.021019,815.00249 260.833322,813.789745 261.397421,812.430343 L384.915385,858.27774 C384.678464,859.016668 384.500772,859.778159 384.447183,860.584775 C384.359747,861.944178 384.565644,863.249994 385,864.457098 L381.747969,865.791117 L331.469814,886.430343 Z M-179,579.597556 C-178.725289,579.232266 -178.476066,578.844147 -178.269325,578.430343 L-153.25361,589.357623 L-128,600.390495 C-128.121779,600.767199 -128.21807,601.158173 -128.24639,601.571977 C-128.266215,601.905874 -128.252055,602.234063 -128.206741,602.553691 L-140.387494,605.430343 C-141.21446,602.64216 -143.667037,600.521771 -146.717181,600.322003 C-148.895047,600.179312 -150.883163,601.061143 -152.28504,602.530861 L-174.927477,583.090632 L-179,579.597556 Z M578,261.438253 L557.267653,363.478131 L554.539115,376.90301 C554.453937,376.89165 554.371598,376.86609 554.280741,376.85757 C551.892916,376.701367 549.794695,378.23499 549.118949,380.430343 L456.433831,360.143921 C456.479259,359.868437 456.55308,359.598633 456.572955,359.308949 C456.703562,357.289679 456.084601,355.412411 455,353.881628 L574.743358,259.430343 C575.597978,260.381757 576.71665,261.094608 578,261.438253 L578,261.438253 Z M-460.852591,736.608337 L-395.357859,696.430343 C-394.989338,696.912783 -394.532938,697.319049 -394,697.62657 L-423.419336,761.89274 C-423.887074,761.720641 -424.374656,761.590862 -424.893421,761.559827 C-426.648149,761.446976 -428.246964,762.194618 -429.307172,763.430343 L-461,740.535573 C-460.67967,739.988242 -460.467062,739.373201 -460.421705,738.704555 C-460.373514,737.954092 -460.543601,737.243127 -460.852591,736.608337 L-460.852591,736.608337 Z M-435.772443,903.003789 C-436.003276,902.972716 -436.222848,902.904919 -436.462125,902.88797 C-438.488945,902.755202 -440.377828,903.359721 -441.931723,904.430343 L-479,855.368196 C-477.99222,854.469891 -477.322244,853.19023 -477.226533,851.732603 C-477.201198,851.317348 -477.232163,850.916218 -477.296909,850.520738 L-428.512488,838.430343 C-427.850957,840.523563 -426.164756,842.181755 -424,842.752377 L-431.338776,880.308874 L-435.772443,903.003789 Z M-360.629652,935.430343 C-361.236348,934.498772 -362.043395,933.724809 -363,933.142226 L-327.235967,866.378734 C-326.56719,866.677062 -325.841977,866.885329 -325.06597,866.935988 C-321.597926,867.161141 -318.601129,864.540923 -318.375381,861.079196 C-318.361272,860.856857 -318.392312,860.640147 -318.400778,860.420623 L-216.049725,849.430343 C-215.880415,850.550479 -215.507932,851.59744 -215,852.574041 L-258.634152,877.397159 L-360.629652,935.430343 Z M713.248258,611.70924 C709.838438,611.485777 706.776675,613.364001 705.319366,616.226596 L610.404701,573.98069 C610.611271,573.412131 610.772566,572.820943 610.815012,572.190154 C611.044219,568.65434 608.361639,565.602225 604.824482,565.370276 C603.553935,565.285416 602.351302,565.590911 601.312792,566.165127 L563.742522,507.572446 C566.286446,505.793224 568.057854,502.95043 568.275743,499.612621 C568.584183,494.945347 565.796903,490.832488 561.69663,489.14944 L609.90667,356.788364 C610.342447,356.915653 610.795204,357.00617 611.267768,357.034457 C614.770968,357.263577 617.795945,354.610302 618.025153,351.105604 C618.05345,350.669991 618.036472,350.242865 617.982707,349.827053 L664.084601,340.348243 C664.789203,342.888372 667.007708,344.837312 669.786499,345.015518 C673.301018,345.244638 676.334484,342.585706 676.563692,339.07535 C676.7929,335.564994 674.132957,332.53268 670.618438,332.30073 C668.773457,332.181927 667.075621,332.869289 665.833372,334.048837 L585.061677,259.431846 C585.913424,258.385245 586.46805,257.086894 586.561431,255.644282 C586.801958,251.947235 584.003359,248.756517 580.304907,248.516081 C577.172401,248.312418 574.419078,250.303789 573.502246,253.166384 L374.847002,203.053999 C374.86398,202.940853 374.892278,202.833364 374.900767,202.717389 C375.053572,200.403553 373.299142,198.406525 370.987256,198.256606 C368.760262,198.109517 366.844537,199.730334 366.564394,201.914052 L128.89289,195.524129 C128.742914,193.360211 127.03659,191.583818 124.812425,191.439557 C122.38735,191.283981 120.296183,193.116947 120.137718,195.541101 C120.075464,196.519815 120.347118,197.436298 120.845149,198.205691 L106.942706,209.21763 C105.590097,207.684501 103.651735,206.660529 101.450208,206.516268 C97.0273469,206.227746 93.207217,209.576869 92.918585,213.99805 C92.8931175,214.402548 92.9299039,214.790073 92.9610309,215.180427 L-50.1495247,234.683977 C-50.81734,231.162306 -53.7687441,228.393056 -57.5124714,228.146964 C-60.9760558,227.9235 -64.0463084,229.931843 -65.3762795,232.924556 L-83.9223028,225.833127 C-83.7808165,225.372057 -83.6789464,224.896844 -83.6449897,224.399001 C-83.4186116,220.936732 -86.0417675,217.946848 -89.5053519,217.720555 C-92.9689364,217.494263 -95.9599566,220.119252 -96.1863347,223.581521 C-96.3929047,226.769411 -94.1743996,229.524517 -91.1211254,230.124191 L-104.831147,337.853373 C-104.873593,337.850544 -104.913209,337.833572 -104.955655,337.830743 C-109.873719,337.511106 -114.118307,341.233611 -114.438066,346.152635 C-114.548426,347.846997 -114.152264,349.450843 -113.416535,350.853854 L-182.566546,391.297909 C-183.472059,389.999558 -184.920878,389.094389 -186.624373,388.984072 C-189.592756,388.791724 -192.159317,391.040501 -192.354568,394.013414 C-192.507373,396.378166 -191.103829,398.462882 -189.02964,399.322792 L-207.963336,457.590179 C-208.43873,457.462889 -208.928272,457.375201 -209.437623,457.341257 C-213.685042,457.066878 -217.349537,460.283055 -217.62685,464.526031 C-217.904163,468.771837 -214.686764,472.437769 -210.439346,472.717805 C-209.796998,472.757406 -209.177288,472.695176 -208.568897,472.587687 L-190.048341,550.26245 C-193.152551,551.178933 -195.515372,553.925553 -195.73609,557.342564 C-195.880406,559.503653 -195.133359,561.517653 -193.826025,563.039467 L-244.77241,611.791271 C-246.21557,610.419375 -248.102997,609.497235 -250.24227,609.358631 C-255.106569,609.041822 -259.305882,612.724726 -259.619981,617.587177 C-259.682235,618.537604 -259.552068,619.445601 -259.32852,620.319655 L-344.834346,646.45922 C-345.587053,644.544224 -347.37544,643.127069 -349.565648,642.985637 C-352.584965,642.79046 -355.191143,645.07601 -355.389223,648.094181 C-355.406202,648.32613 -355.377904,648.546765 -355.366586,648.773057 L-404.278397,655.465646 C-404.807556,652.96229 -406.924191,651.002034 -409.603941,650.829487 C-412.835488,650.614509 -415.622768,653.064121 -415.834997,656.291612 C-415.897251,657.230724 -415.710489,658.121749 -415.368093,658.933572 L-503.013192,703.402798 C-504.229974,701.312425 -506.428671,699.844355 -509.023529,699.674636 C-513.166248,699.403085 -516.743022,702.542888 -517.011846,706.684034 C-517.07127,707.600517 -516.941102,708.480227 -516.692086,709.314679 C-516.873189,709.580572 -517.011846,709.877581 -517.034483,710.222676 C-517.102397,711.240991 -516.329882,712.120701 -515.308351,712.18576 C-515.243267,712.191417 -515.186672,712.163131 -515.124418,712.160302 C-513.856701,713.585943 -512.054166,714.533541 -510.002615,714.666487 C-507.427564,714.836206 -505.070402,713.682117 -503.593285,711.792578 L-468.651831,736.03129 C-468.946122,736.557419 -469.138543,737.148607 -469.180989,737.79354 C-469.313986,739.841483 -467.952888,741.640505 -466.028675,742.135519 L-481.810056,845.596266 C-481.821375,845.596266 -481.835523,845.590609 -481.849672,845.590609 C-484.795417,845.398261 -487.33934,847.630066 -487.531762,850.574692 C-487.670418,852.704667 -486.532868,854.611178 -484.784098,855.581405 L-534.550486,964.640053 C-535.192834,964.39396 -535.866309,964.210098 -536.585059,964.162011 C-540.422168,963.910261 -543.735777,966.818114 -543.984792,970.653765 C-544.236638,974.489416 -541.33051,977.798938 -537.493401,978.050688 C-533.656293,978.299609 -530.342684,975.394585 -530.090838,971.558934 C-530.005947,970.249268 -530.311557,969.013147 -530.874672,967.926945 L-443.727605,916.055139 C-442.267467,918.25583 -439.8622,919.791788 -437.023985,919.97565 C-433.311384,920.216085 -430.009094,918.103083 -428.526318,914.923679 L-374.603062,936.919271 C-374.815291,937.533088 -374.976586,938.169535 -375.021861,938.848411 C-375.290685,942.96127 -372.169498,946.516884 -368.055076,946.785606 C-364.843337,946.994926 -361.993804,945.128017 -360.762873,942.344624 L-167.478448,1015.08622 C-167.503916,1015.20785 -167.566169,1015.31534 -167.574659,1015.44263 C-167.670869,1016.93333 -166.538979,1018.22036 -165.047713,1018.3222 C-163.553618,1018.41837 -162.266093,1017.28691 -162.167053,1015.79338 C-162.127436,1015.20785 -162.322687,1014.68172 -162.60849,1014.21782 L-106.472388,965.649881 C-105.054696,967.134923 -103.116333,968.12778 -100.909147,968.272041 C-98.8434473,968.407816 -96.9248931,967.762884 -95.3742034,966.631423 L-83.9902162,980.712449 C-86.1153404,982.568044 -87.533033,985.235462 -87.7311138,988.279091 C-88.1272755,994.34089 -83.5289709,999.576724 -77.4648684,999.969906 C-72.6147183,1000.28954 -68.3361728,997.387348 -66.5987211,993.118913 L157.560843,1074.32949 C157.391059,1074.89239 157.263721,1075.47509 157.226935,1076.08608 C156.943962,1080.4026 160.215125,1084.13077 164.536117,1084.41363 C168.854278,1084.69367 172.581027,1081.42092 172.864,1077.1044 C172.940403,1075.95879 172.747981,1074.85845 172.368798,1073.84579 L220.700516,1052.68182 C221.320226,1053.75388 222.443627,1054.5063 223.770768,1054.59399 C225.884573,1054.73259 227.712576,1053.12875 227.851233,1051.01575 C227.938954,1049.65234 227.293777,1048.41339 226.260927,1047.66662 L274.493604,962.478963 C275.441562,962.954177 276.49705,963.254014 277.620451,963.327559 C280.348307,963.505764 282.835636,962.312073 284.457069,960.354646 L317.086638,984.579215 C316.846111,985.003513 316.670668,985.47024 316.639541,985.993541 C316.517863,987.843479 317.921407,989.444495 319.772048,989.563299 C320.802068,989.631186 321.721729,989.198403 322.386714,988.505383 L381.315755,1032.07227 C380.698875,1033.0227 380.285735,1034.12021 380.203673,1035.32522 C379.960317,1039.09015 382.81268,1042.3431 386.579045,1042.58919 C389.813422,1042.80134 392.654467,1040.72228 393.55432,1037.74937 L491.536407,1060.93017 C491.50528,1061.1112 491.460005,1061.28375 491.445856,1061.47044 C491.239286,1064.65267 493.653042,1067.40778 496.842143,1067.61427 C500.031244,1067.82359 502.784568,1065.40792 502.993967,1062.22003 C503.163751,1059.60353 501.550807,1057.30384 499.207794,1056.4411 L554.084668,865.227106 C554.461021,865.311965 554.845864,865.393996 555.250515,865.422283 C559.387574,865.691004 562.955858,862.556859 563.227512,858.421371 C563.315233,857.074933 563.012453,855.80204 562.460656,854.664922 L610.486763,827.871938 C611.34417,829.147659 612.744885,830.035856 614.394615,830.143345 C617.221511,830.330036 619.663564,828.185918 619.850326,825.360095 C620.034259,822.531444 617.892156,820.093147 615.06526,819.906456 C613.121238,819.779167 611.380957,820.766366 610.407531,822.302323 L584.532518,808.837944 C584.999423,807.836601 585.310693,806.744742 585.387095,805.576509 C585.715343,800.504737 581.875405,796.125985 576.801707,795.797862 C576.527223,795.778061 576.269718,795.817662 575.998065,795.823319 L570.021684,708.627317 C573.456971,708.197362 576.218783,705.388511 576.453651,701.801782 C576.541372,700.46383 576.235762,699.199422 575.681135,698.076448 L705.732506,624.412713 C707.104923,626.565316 709.428128,628.070159 712.170132,628.248364 C716.73731,628.545372 720.684778,625.085932 720.981899,620.51766 C721.28185,615.952217 717.818265,612.006249 713.248258,611.70924 L713.248258,611.70924 Z" id="Fill-1" transform="translate(88.500000, 637.930343) rotate(-150.000000) translate(-88.500000, -637.930343) "></path>
            </g>
        </g>
    </g>
</svg>