<?xml version="1.0" encoding="UTF-8"?>
<svg width="18px" height="22px" viewBox="0 0 18 22" version="1.1" xmlns="http://www.w3.org/2000/svg" xmlns:xlink="http://www.w3.org/1999/xlink">
    <!-- Generator: Sketch 61.2 (89653) - https://sketch.com -->
    <title>Group 9</title>
    <desc>Created with Sketch.</desc>
    <defs>
        <path d="M3.75000002,16.5625001 C3.23046877,16.5625001 2.81250001,16.1445313 2.81250001,15.6250001 C2.81250001,15.1054688 3.23046877,14.6875001 3.75000002,14.6875001 C4.26953127,14.6875001 4.68750002,15.1054688 4.68750002,15.6250001 C4.68750002,16.1445313 4.26953127,16.5625001 3.75000002,16.5625001 Z M3.75000002,12.8125001 C3.23046877,12.8125001 2.81250001,12.3945313 2.81250001,11.8750001 C2.81250001,11.3554688 3.23046877,10.9375001 3.75000002,10.9375001 C4.26953127,10.9375001 4.68750002,11.3554688 4.68750002,11.8750001 C4.68750002,12.3945313 4.26953127,12.8125001 3.75000002,12.8125001 Z M3.75000002,9.06250005 C3.23046877,9.06250005 2.81250001,8.64453129 2.81250001,8.12500004 C2.81250001,7.60546879 3.23046877,7.18750004 3.75000002,7.18750004 C4.26953127,7.18750004 4.68750002,7.60546879 4.68750002,8.12500004 C4.68750002,8.64453129 4.26953127,9.06250005 3.75000002,9.06250005 Z M12.5000001,15.9375001 C12.5000001,16.1093751 12.3593751,16.2500001 12.1875001,16.2500001 L6.56250003,16.2500001 C6.39062503,16.2500001 6.25000003,16.1093751 6.25000003,15.9375001 L6.25000003,15.3125001 C6.25000003,15.1406251 6.39062503,15.0000001 6.56250003,15.0000001 L12.1875001,15.0000001 C12.3593751,15.0000001 12.5000001,15.1406251 12.5000001,15.3125001 L12.5000001,15.9375001 Z M12.5000001,12.1875001 C12.5000001,12.3593751 12.3593751,12.5000001 12.1875001,12.5000001 L6.56250003,12.5000001 C6.39062503,12.5000001 6.25000003,12.3593751 6.25000003,12.1875001 L6.25000003,11.5625001 C6.25000003,11.3906251 6.39062503,11.2500001 6.56250003,11.2500001 L12.1875001,11.2500001 C12.3593751,11.2500001 12.5000001,11.3906251 12.5000001,11.5625001 L12.5000001,12.1875001 Z M12.5000001,8.43750004 C12.5000001,8.60937504 12.3593751,8.75000004 12.1875001,8.75000004 L6.56250003,8.75000004 C6.39062503,8.75000004 6.25000003,8.60937504 6.25000003,8.43750004 L6.25000003,7.81250004 C6.25000003,7.64062504 6.39062503,7.50000004 6.56250003,7.50000004 L12.1875001,7.50000004 C12.3593751,7.50000004 12.5000001,7.64062504 12.5000001,7.81250004 L12.5000001,8.43750004 Z" id="path-1"></path>
    </defs>
    <g id="Desktop--🖥" stroke="none" stroke-width="1" fill="none" fill-rule="evenodd">
        <g id="MILIPOLQATAR-HOMEPAGE01" transform="translate(-879.000000, -1471.000000)">
            <g id="DATE-+-LINKS-Copy" transform="translate(-1.000000, 1420.000000)">
                <g id="LINKS-01" transform="translate(-45.511068, 35.000000)">
                    <g id="Group-11-Copy-2" transform="translate(927.000000, 17.000000)">
                        <g id="Group-10">
                            <g id="Group-9">
                                <mask id="mask-2" fill="white">
                                    <use xlink:href="#path-1"></use>
                                </mask>
                                <use id="clipboard-list" fill="#9A1C36" fill-rule="nonzero" xlink:href="#path-1"></use>
                                <path d="M7.50000004,1.56250001 C8.01953129,1.56250001 8.43750004,1.98046876 8.43750004,2.50000001 C8.43750004,3.01953127 8.01953129,3.43750002 7.50000004,3.43750002 C6.98046878,3.43750002 6.56250003,3.01953127 6.56250003,2.50000001 C6.56250003,1.98046876 6.98046878,1.56250001 7.50000004,1.56250001 Z" id="Path" fill="#9A1C36"></path>
                                <path d="M13.1250001,2.5 L10,2.5 C10,1.12109376 8.87890629,-7.46069873e-14 7.5,-7.46069873e-14 C6.12109378,-7.46069873e-14 5,1.12109376 5,2.5 L1.87500001,2.5 C0.839843754,2.5 -5.59552404e-14,3.33984377 -5.59552404e-14,4.37500002 L-5.59552404e-14,18.1250001 C-5.59552404e-14,19.1601563 0.839843754,20 1.87500001,20 L13.1250001,20 C14.1601563,20 15,19.1601563 15,18.1250001 L15,4.37500002 C15,3.33984377 14.1601563,2.5 13.1250001,2.5 Z" id="Path" stroke="#9A1C36" stroke-width="2"></path>
                            </g>
                        </g>
                    </g>
                </g>
            </g>
        </g>
    </g>
</svg>