<?xml version="1.0" encoding="UTF-8"?>
<svg width="18px" height="22px" viewBox="0 0 18 22" version="1.1" xmlns="http://www.w3.org/2000/svg" xmlns:xlink="http://www.w3.org/1999/xlink">
    <!-- Generator: Sketch 61.2 (89653) - https://sketch.com -->
    <title>Group 26</title>
    <desc>Created with Sketch.</desc>
    <g id="Desktop--🖥" stroke="none" stroke-width="1" fill="none" fill-rule="evenodd">
        <g id="MILIPOLQATAR-HOMEPAGE01" transform="translate(-1055.000000, -1473.000000)" fill-rule="nonzero" stroke="#9A1C36">
            <g id="DATE-+-LINKS-Copy" transform="translate(-1.000000, 1420.000000)">
                <g id="LINKS-01" transform="translate(-45.511068, 35.000000)">
                    <g id="Group-11-Copy-3" transform="translate(1103.000000, 19.000000)">
                        <g id="Group-14">
                            <g id="Group-26" transform="translate(0.000000, 0.000000)">
                                <path d="M6.72921878,19.5964845 C1.05351563,11.3683985 5.77315973e-14,10.5239454 5.77315973e-14,7.5 C5.77315973e-14,3.35785158 3.35785158,7.10542736e-15 7.5,7.10542736e-15 C11.6421485,7.10542736e-15 15,3.35785158 15,7.5 C15,10.5239454 13.9464844,11.3683985 8.27078129,19.5964845 C7.89832035,20.1345314 7.10164066,20.1344923 6.72921878,19.5964845 Z" id="Path" stroke-width="2"></path>
                                <path d="M7.50000004,10.6250001 C9.22589848,10.6250001 10.6250001,9.22589848 10.6250001,7.50000004 C10.6250001,5.77410159 9.22589848,4.37500002 7.50000004,4.37500002 C5.77410159,4.37500002 4.37500002,5.77410159 4.37500002,7.50000004 C4.37500002,9.22589848 5.77410159,10.6250001 7.50000004,10.6250001 Z" id="Path"></path>
                            </g>
                        </g>
                    </g>
                </g>
            </g>
        </g>
    </g>
</svg>