<?xml version="1.0" encoding="UTF-8"?>
<svg width="23px" height="16px" viewBox="0 0 23 16" version="1.1" xmlns="http://www.w3.org/2000/svg" xmlns:xlink="http://www.w3.org/1999/xlink">
    <!-- Generator: Sketch 61.2 (89653) - https://sketch.com -->
    <title>Group 5</title>
    <desc>Created with Sketch.</desc>
    <g id="Desktop--🖥" stroke="none" stroke-width="1" fill="none" fill-rule="evenodd" stroke-linejoin="round">
        <g id="MILIPOLQATAR-HOMEPAGE01" transform="translate(-450.000000, -1477.000000)" fill-rule="nonzero" stroke="#9A1C36">
            <g id="DATE-+-LINKS-Copy" transform="translate(-1.000000, 1420.000000)">
                <g id="LINKS-01" transform="translate(-45.511068, 35.000000)">
                    <g id="Group-11" transform="translate(498.000000, 23.000000)">
                        <g id="Group-10">
                            <g id="Group-5" transform="translate(-0.000000, -0.000000)">
                                <path d="M18.3333334,6.6666667 C18.3333334,7.58715282 19.079514,8.33333337 20,8.33333337 L20,11.6666667 C20,12.5871528 19.2538195,13.3333334 18.3333334,13.3333334 L1.66666667,13.3333334 C0.746180559,13.3333334 -1.77635684e-14,12.5871528 -1.77635684e-14,11.6666667 L-1.77635684e-14,8.33333337 C0.920486116,8.33333337 1.66666667,7.58715282 1.66666667,6.6666667 C1.66666667,5.74618058 0.920486116,5 -1.77635684e-14,5 L-1.77635684e-14,1.66666667 C-1.77635684e-14,0.746180559 0.746180559,-4.97379915e-14 1.66666667,-4.97379915e-14 L18.3333334,-4.97379915e-14 C19.2538195,-4.97379915e-14 20,0.746180559 20,1.66666667 L20,5 C19.079514,5 18.3333334,5.74618058 18.3333334,6.6666667 Z" id="Path" stroke-width="2"></path>
                                <polygon id="Path" points="4.44444447 3.33333335 15.5555556 3.33333335 15.5555556 10 4.44444447 10"></polygon>
                            </g>
                        </g>
                    </g>
                </g>
            </g>
        </g>
    </g>
</svg>