<?xml version="1.0" encoding="UTF-8"?>
<svg width="25px" height="20px" viewBox="0 0 25 20" version="1.1" xmlns="http://www.w3.org/2000/svg" xmlns:xlink="http://www.w3.org/1999/xlink">
    <!-- Generator: Sketch 61.2 (89653) - https://sketch.com -->
    <title>book-open</title>
    <desc>Created with Sketch.</desc>
    <defs>
        <path d="M18.8270834,0.00188562994 C16.9243056,0.109871742 13.1423612,0.502927299 10.8076389,1.93209397 C10.6465278,2.03070508 10.5552084,2.20605231 10.5552084,2.38938564 L10.5552084,15.0237607 C10.5552084,15.4248024 10.9937501,15.6782746 11.3635417,15.4921635 C13.7656251,14.2831357 17.2395834,13.9532746 18.9572918,13.8629968 C19.5437501,13.832094 19.999653,13.3619551 19.999653,12.7984135 L19.999653,1.06785786 C20.0000001,0.452927299 19.4666668,-0.0342254813 18.8270834,0.00188562994 Z M9.19201393,1.93209397 C6.85763892,0.502927299 3.07569446,0.110218964 1.17291667,0.00188562994 C0.533333336,-0.0342254813 3.90798505e-14,0.452927299 3.90798505e-14,1.06785786 L3.90798505e-14,12.7987607 C3.90798505e-14,13.3626496 0.45590278,13.8327885 1.04236112,13.863344 C2.7607639,13.9536218 6.23645836,14.2838301 8.63854171,15.4935524 C9.00729171,15.6793163 9.44444449,15.4261913 9.44444449,15.0261913 L9.44444449,2.38313564 C9.44444449,2.19945509 9.35347227,2.03105231 9.19201393,1.93209397 Z" id="path-1"></path>
    </defs>
    <g id="Desktop--🖥" stroke="none" stroke-width="1" fill="none" fill-rule="evenodd">
        <g id="MILIPOLQATAR-HOMEPAGE01" transform="translate(-693.000000, -1475.000000)">
            <g id="DATE-+-LINKS-Copy" transform="translate(-1.000000, 1420.000000)">
                <g id="LINKS-01" transform="translate(-45.511068, 35.000000)">
                    <g id="Group-11-Copy" transform="translate(742.000000, 22.000000)">
                        <g id="Group-10">
                            <mask id="mask-2" fill="white">
                                <use xlink:href="#path-1"></use>
                            </mask>
                            <path stroke="#9A1C36" stroke-width="2" d="M18.7704228,-0.996507865 L18.7707128,-0.996524284 C19.9747647,-1.0645055 21.0003297,-0.130788496 20.999653,1.06785786 L20.999653,12.7984135 C20.999653,13.901749 20.1196815,14.8031333 19.0097764,14.8616185 C16.2756079,15.0053185 13.6217946,15.4750539 11.8131022,16.3854134 C10.7910382,16.8998043 9.55520839,16.1843238 9.55520839,15.0237607 L9.55520839,2.38938564 C9.55520839,1.8591144 9.82621916,1.36034508 10.2855529,1.07920117 C12.3794197,-0.202529323 15.4575154,-0.808494327 18.7704228,-0.996507865 Z M9.7141565,1.07923575 L9.71457599,1.07949272 C10.1722414,1.35999733 10.4444445,1.85100875 10.4444445,2.38313564 L10.4444445,15.0261913 C10.4444445,16.1855782 9.20992235,16.9011183 8.18874792,16.3866848 C6.3801037,15.4758267 3.72460753,15.0056372 0.990329855,14.8619895 C-0.119808019,14.8041493 -1,13.9025389 -1,12.7987607 L-1,1.06785786 C-1,-0.13109196 0.025428261,-1.06449461 1.22975893,-0.996497542 C4.54546354,-0.807720199 7.62080454,-0.202370174 9.7141565,1.07923575 Z"></path>
                        </g>
                    </g>
                </g>
            </g>
        </g>
    </g>
</svg>