<?xml version="1.0" encoding="UTF-8"?>
<svg width="399px" height="496px" viewBox="0 0 399 496" version="1.1" xmlns="http://www.w3.org/2000/svg" xmlns:xlink="http://www.w3.org/1999/xlink">
    <title>Fill 1</title>
    <g id="Desktop--🖥" stroke="none" stroke-width="1" fill="none" fill-rule="evenodd" opacity="0.11328125">
        <g id="Menu-Ouvert" transform="translate(-1041.000000, -3037.000000)" fill="#A6945D">
            <g id="DATE-+-LINKS-Copy-2" transform="translate(0.000000, 2251.000000)">
                <path d="M2085.35396,1401.43034 C2084.46191,1400.04242 2083.11959,1398.9809 2081.51107,1398.43879 L2113.24254,1281.71424 C2113.5229,1281.77384 2113.80043,1281.83913 2114.09495,1281.85899 C2116.70313,1282.02929 2119.04228,1280.60731 2120.1892,1278.43034 L2215.19389,1320.82867 C2214.89654,1321.59501 2214.67566,1322.39824 2214.61902,1323.26392 C2214.51707,1324.79376 2214.86823,1326.23561 2215.51107,1327.51284 L2085.35396,1401.43034 Z M2085.51107,1499.60046 C2083.29953,1499.84924 2081.32738,1500.8896 2079.85967,1502.43034 L2042.73369,1470.71081 C2043.48607,1469.72982 2043.9677,1468.52833 2044.05605,1467.20527 C2044.20425,1464.95493 2043.18112,1462.89684 2041.51107,1461.61336 L2075.63038,1411.43034 C2076.60505,1412.00706 2077.71082,1412.39154 2078.92204,1412.47353 C2079.11584,1412.48483 2079.29823,1412.45374 2079.48918,1412.45374 L2085.51107,1499.60046 Z M2120.44912,1526.79285 C2120.23513,1527.30366 2120.08027,1527.84254 2120.04367,1528.42352 C2119.98454,1529.29358 2120.17319,1530.11313 2120.51107,1530.85408 L2072.72936,1557.43034 C2071.95787,1556.22067 2070.84287,1555.24676 2069.51107,1554.64614 L2083.91034,1517.48877 C2084.64523,1517.73295 2085.39982,1517.91819 2086.20792,1517.97152 C2089.79506,1518.20447 2092.99928,1516.32682 2094.69431,1513.43034 L2120.44912,1526.79285 Z M2008.41569,1760.43034 C2008.14863,1760.37667 2007.88726,1760.31451 2007.61169,1760.29756 C2007.12304,1760.26649 2006.65427,1760.31451 2006.19403,1760.39644 L1978.32957,1653.33911 L1967.51107,1611.75358 C1972.08507,1610.40035 1975.56528,1606.36893 1975.892,1601.35437 C1975.99427,1599.78361 1975.77268,1598.27218 1975.29539,1596.8681 L2053.2494,1567.6311 L2059.12457,1565.43034 C2059.95983,1567.29774 2061.52805,1568.76397 2063.51107,1569.45329 L2008.41569,1760.43034 Z M1903.88374,1741.28677 C1903.92053,1741.04958 1903.9856,1740.82368 1903.99975,1740.57801 C1904.17517,1737.87284 1902.73217,1735.45005 1900.51107,1734.20477 L1959.7932,1611.43034 C1961.00703,1611.96121 1962.31139,1612.33395 1963.71196,1612.42431 C1964.84373,1612.49773 1965.9274,1612.35936 1966.98277,1612.12781 L1974.67881,1641.81122 L2005.51107,1760.69733 C2003.78229,1761.28185 2002.41851,1762.66549 2001.86111,1764.43034 L1903.88374,1741.28677 Z M1833.51107,1692.01073 C1833.74881,1691.58773 1833.92146,1691.12525 1833.95543,1690.60637 C1833.99222,1689.98879 1833.81674,1689.43043 1833.55635,1688.91719 L1955.52598,1607.43034 C1956.5732,1608.87137 1957.91477,1610.08115 1959.51107,1610.92151 L1900.21595,1733.51838 C1899.55083,1733.24766 1898.84891,1733.05026 1898.09321,1732.9995 C1895.83745,1732.85568 1893.77981,1733.82858 1892.42975,1735.43034 L1833.51107,1692.01073 Z M1795.19482,1663.20816 C1795.96996,1662.05486 1796.48389,1660.70934 1796.58327,1659.22531 C1796.76499,1656.45795 1795.5327,1653.92803 1793.51107,1652.31398 L1803.26715,1638.8079 L1833.16575,1597.43034 C1833.86423,1597.86 1834.65358,1598.14833 1835.51107,1598.2614 L1835.13627,1604.42083 L1830.13614,1686.43816 C1829.28148,1686.4947 1828.52621,1686.84521 1827.95834,1687.43034 L1795.19482,1663.20816 Z M1736.17371,1751.43034 C1735.78536,1751.26371 1735.36582,1751.14509 1734.91794,1751.11684 C1734.47573,1751.08578 1734.04768,1751.14791 1733.64516,1751.26371 L1675.51107,1606.90407 C1677.60875,1605.9664 1679.35776,1604.41019 1680.51999,1602.43034 L1781.48077,1656.01058 C1781.05556,1656.90589 1780.77776,1657.88876 1780.7069,1658.93658 C1780.50563,1662.02074 1782.07039,1664.78293 1784.51107,1666.33631 L1736.17371,1751.43034 Z M1682.32836,1777.43034 C1681.11763,1775.04039 1678.74145,1773.31997 1675.87023,1773.13069 C1675.77688,1773.12787 1675.68636,1773.14482 1675.58735,1773.14199 L1673.85613,1702.94358 L1671.51107,1608.00382 C1672.55206,1607.93884 1673.5676,1607.76934 1674.51807,1607.43034 L1732.51107,1751.77935 C1731.38521,1752.3839 1730.58183,1753.52802 1730.49414,1754.8925 C1730.4602,1755.3784 1730.53092,1755.84452 1730.6667,1756.2824 L1682.32836,1777.43034 Z M1444.57365,1696.10929 C1444.84244,1695.27087 1445.04615,1694.40413 1445.10556,1693.48073 C1445.29796,1690.51794 1444.28789,1687.76192 1442.51107,1685.6602 L1486.88346,1645.02517 C1488.79325,1646.96826 1491.36229,1648.27121 1494.2963,1648.46665 C1498.05648,1648.71025 1501.4828,1647.09006 1503.75758,1644.43034 L1669.51107,1775.96594 C1669.18852,1776.42197 1668.92257,1776.90916 1668.70188,1777.43034 L1444.57365,1696.10929 Z M1415.51107,1670.32128 C1417.10981,1668.89829 1418.17752,1666.87511 1418.32722,1664.57014 C1418.38654,1663.64309 1418.25661,1662.75548 1418.03629,1661.90168 L1483.43214,1641.43034 C1483.90103,1642.74907 1484.61566,1643.95509 1485.51107,1645.00614 L1441.21521,1685.43034 C1439.3905,1683.58468 1436.93872,1682.34767 1434.14516,1682.16733 C1431.43069,1681.9898 1428.90829,1682.85205 1426.88868,1684.35958 L1415.51107,1670.32128 Z M1149.961,1645.49205 C1150.13362,1644.93607 1150.26379,1644.36023 1150.30341,1643.75036 C1150.39396,1642.37743 1150.08268,1641.08676 1149.51107,1639.94076 L1295.54459,1556.43034 C1297.22831,1559.11663 1300.10902,1560.99732 1303.50759,1561.22141 C1304.43292,1561.27815 1305.32147,1561.17319 1306.18738,1561.00016 L1344.51107,1717.28434 C1343.96492,1717.51695 1343.51499,1717.91408 1343.22069,1718.43034 L1149.961,1645.49205 Z M1082.63869,1618.42763 C1082.89961,1617.68628 1083.10097,1616.91664 1083.15486,1616.09324 C1083.24278,1614.73787 1082.99036,1613.44759 1082.51107,1612.26483 L1118.28532,1595.86183 L1180.29893,1567.43034 C1180.81793,1568.38391 1181.58367,1569.17619 1182.51107,1569.75342 L1172.60466,1588.25313 L1146.56949,1636.87358 C1145.75554,1636.49442 1144.86501,1636.24258 1143.91492,1636.18033 C1140.76972,1635.9766 1137.95917,1637.75074 1136.6801,1640.43034 L1082.63869,1618.42763 Z M978.986353,1671.43034 C978.353339,1670.50367 977.515943,1669.72719 976.511068,1669.19159 L1026.43122,1559.94327 C1026.89675,1560.1133 1027.385,1560.24366 1027.90446,1560.27767 C1029.09385,1560.35418 1030.20659,1560.02545 1031.13766,1559.43034 L1068.51107,1608.6404 C1066.73409,1610.12535 1065.53618,1612.29325 1065.37154,1614.78422 C1065.26084,1616.47604 1065.66108,1618.0715 1066.4048,1619.46293 L978.986353,1671.43034 Z M1045.29815,1446.82775 C1046.61704,1446.89537 1047.81706,1446.34035 1048.635,1445.43034 L1080.28274,1468.29881 C1079.84123,1469.0116 1079.54688,1469.82582 1079.48745,1470.71892 C1079.36858,1472.53611 1080.18086,1474.19554 1081.51107,1475.24641 L1068.26837,1494.92 L1030.90072,1550.43034 C1030.47052,1550.18805 1030.00636,1550.00492 1029.51107,1549.88941 L1045.29815,1446.82775 Z M1007.51107,1415.1884 C1008.13441,1414.18943 1008.55375,1413.04734 1008.63592,1411.79301 C1008.65576,1411.47312 1008.62176,1411.16445 1008.60192,1410.85016 L1114.14556,1398.43034 C1114.2249,1398.79514 1114.34673,1399.14309 1114.51107,1399.4686 L1049.04851,1439.43034 C1048.3345,1438.50994 1047.25214,1437.87295 1045.98845,1437.79158 C1044.61426,1437.70459 1043.35907,1438.29106 1042.52322,1439.25636 L1007.51107,1415.1884 Z M1095.10202,1363.43034 C1096.05772,1365.01373 1097.74292,1366.12098 1099.7335,1366.24776 C1100.63265,1366.30975 1101.49222,1366.14352 1102.27544,1365.83078 L1115.51107,1392.99916 C1114.29241,1393.7345 1113.43849,1395.0277 1113.33953,1396.55474 C1113.32822,1396.69279 1113.35084,1396.82239 1113.35084,1396.96045 L1008.03981,1409.43034 C1007.9352,1408.83587 1007.74858,1408.26957 1007.51107,1407.73144 L1095.10202,1363.43034 Z M1155.23127,1353.43034 C1155.43751,1354.37916 1155.87541,1355.24891 1156.51107,1355.94923 L1121.09486,1393.43034 C1120.4027,1392.88816 1119.5495,1392.54083 1118.6059,1392.4787 C1117.94481,1392.43352 1117.31197,1392.54647 1116.72717,1392.76391 L1103.51107,1365.54753 C1105.14684,1364.60154 1106.29385,1362.89028 1106.42663,1360.86557 C1106.44358,1360.6086 1106.41533,1360.36292 1106.39838,1360.1116 L1155.23127,1353.43034 Z M1251.11884,1325.43034 C1251.75647,1327.19967 1252.9609,1328.68919 1254.51107,1329.73213 L1240.61624,1352.5723 C1240.02395,1352.27836 1239.36647,1352.09181 1238.66649,1352.04942 C1235.97708,1351.87135 1233.66458,1353.81309 1233.29333,1356.43034 L1203.50575,1354.74863 L1165.6386,1352.61187 C1165.63009,1352.24161 1165.59042,1351.88549 1165.51107,1351.53784 L1251.11884,1325.43034 Z M1302.51107,1176.65239 C1303.87625,1176.24426 1305.07184,1175.47051 1306.01022,1174.43034 L1332.51672,1195.9366 L1402.51107,1252.73204 C1401.64335,1253.92809 1401.07523,1255.36789 1400.97348,1256.95507 C1400.96217,1257.14213 1400.99043,1257.32069 1400.99326,1257.50775 L1381.59247,1258.58476 L1330.31774,1261.43034 C1329.91073,1257.65513 1326.86664,1254.59698 1322.95482,1254.34189 C1322.28778,1254.29655 1321.64335,1254.36457 1321.01305,1254.48077 L1302.51107,1176.65239 Z M1420.09436,934.074601 C1422.72076,934.233293 1425.05565,932.711546 1426.09836,930.430343 L1444.46916,937.537496 C1444.26734,938.158096 1444.11598,938.804201 1444.07393,939.487145 C1443.8553,942.84519 1445.70247,945.84901 1448.51107,947.248904 L1436.5423,975.422474 L1408.07233,1042.43034 C1407.5706,1042.24331 1407.05204,1042.10162 1406.51107,1042.00527 L1420.09436,934.074601 Z M1603.73905,920.430343 C1604.09545,922.294625 1605.08546,923.941407 1606.51107,925.113645 L1485.30028,1089.43034 C1484.07833,1088.61966 1482.65838,1088.07168 1481.08568,1087.96999 C1480.51996,1087.93609 1479.96273,1087.96151 1479.41964,1088.03213 L1454.51107,948.369153 C1457.87426,947.586719 1460.49354,944.719679 1460.72831,941.095628 C1460.75377,940.694525 1460.71983,940.301896 1460.68588,939.906442 L1603.73905,920.430343 Z M2083.44653,958.480263 C2083.3957,958.737335 2083.33076,958.991582 2083.31382,959.262779 C2083.21216,960.830635 2083.6809,962.288317 2084.51107,963.486103 L1965.42966,1057.43034 C1964.00933,1055.80034 1961.96497,1054.71555 1959.64106,1054.563 C1958.24615,1054.4726 1956.92747,1054.76075 1955.73305,1055.28619 L1894.3654,932.28718 L1883.51107,910.537767 C1884.28476,910.049048 1884.87774,909.311732 1885.20247,908.430343 L2083.44653,958.480263 Z M2175.51107,1039.07998 C2174.70909,1040.07044 2174.18484,1041.29861 2174.09699,1042.66828 C2174.06865,1043.10408 2174.08565,1043.53139 2174.13949,1043.95305 L2127.97076,1053.43034 C2127.26797,1050.89759 2125.04909,1048.95063 2122.27193,1048.77235 C2121.57198,1048.72424 2120.90036,1048.82328 2120.25992,1048.99025 L2102.33028,995.225192 L2092.51107,965.788689 C2093.29887,965.468912 2094.013,965.00764 2094.62227,964.430343 L2175.51107,1039.07998 Z M2071.65216,1193.43034 C2070.8487,1193.16969 2070.01996,1192.97704 2069.14066,1192.91754 C2068.9412,1192.90338 2068.75579,1192.94021 2068.55633,1192.93737 L2065.51107,1091.09949 C2067.87929,1090.83034 2069.79241,1088.8953 2069.94973,1086.41345 C2070.00592,1085.5805 2069.83455,1084.79005 2069.52553,1084.07326 L2116.52199,1058.538 L2116.71864,1058.43034 C2117.38163,1059.49561 2118.35083,1060.33989 2119.51107,1060.85836 L2071.65216,1193.43034 Z M2111.51107,1270.4979 C2110.04594,1271.58482 2109.0277,1273.26049 2108.90042,1275.22486 C2108.87779,1275.58151 2108.90325,1275.92966 2108.93719,1276.27215 L1879.81937,1314.43034 C1879.743,1314.13031 1879.64118,1313.84443 1879.51107,1313.5727 L2059.69687,1208.43034 C2061.4505,1211.17877 2064.41753,1213.10352 2067.91914,1213.32997 C2070.11684,1213.47432 2072.20423,1212.93369 2073.97201,1211.89489 L2111.51107,1270.4979 Z M1836.87403,1598.57389 C1839.83896,1598.54292 1842.32486,1596.35544 1842.70752,1593.43034 L1953.77633,1599.75913 C1953.7253,1602.08175 1954.35174,1604.26924 1955.51107,1606.12452 L1833.43005,1687.43034 C1832.94818,1686.87854 1832.26506,1686.53789 1831.51107,1686.39713 L1835.50211,1621.06531 L1836.87403,1598.57389 Z M1792.9415,1652.43034 C1792.20217,1651.94837 1791.39486,1651.56906 1790.51107,1651.34661 L1800.69168,1599.15623 C1800.92113,1599.19045 1801.13925,1599.25605 1801.37719,1599.27031 C1806.05959,1599.57832 1810.09332,1596.0904 1810.5777,1591.43034 L1830.38373,1592.53689 C1830.41206,1594.33361 1831.21654,1595.95351 1832.51107,1597.04295 L1829.84269,1600.77898 L1792.9415,1652.43034 Z M1674.51107,1772.82285 C1672.44254,1772.98688 1670.59756,1773.95126 1669.28174,1775.43034 L1503.51107,1644.10555 C1504.76746,1642.39739 1505.58808,1640.33571 1505.73523,1638.06194 C1505.80031,1637.05797 1505.69278,1636.09076 1505.51168,1635.14618 L1660.01158,1599.43034 C1661.21138,1603.83367 1665.05414,1607.21322 1669.8675,1607.52714 C1670.05709,1607.53845 1670.24102,1607.50452 1670.43061,1607.50734 L1673.66781,1738.64831 L1674.51107,1772.82285 Z M1346.24653,1716.76081 C1346.10782,1716.75514 1345.9861,1716.80336 1345.85023,1716.81755 L1307.51107,1560.49285 C1308.93775,1560.07581 1310.25403,1559.38641 1311.35517,1558.43034 L1404.51107,1657.61775 C1403.16648,1659.01355 1402.26348,1660.8491 1402.13044,1662.93713 C1401.98607,1665.10744 1402.69941,1667.12455 1403.93926,1668.71611 L1347.78077,1717.43034 C1347.35617,1717.07004 1346.84381,1716.80053 1346.24653,1716.76081 L1346.24653,1716.76081 Z M1082.15548,1611.43034 C1081.01474,1609.24582 1078.99303,1607.59122 1076.51107,1606.98237 L1088.31945,1546.86422 C1088.4578,1546.88114 1088.58487,1546.92342 1088.72605,1546.93187 C1091.76426,1547.12919 1094.43258,1545.20117 1095.32202,1542.43034 L1179.21741,1563.42152 C1179.17506,1563.65547 1179.11576,1563.88097 1179.09882,1564.12339 C1179.03952,1565.05357 1179.19765,1565.94711 1179.51107,1566.76737 L1105.7073,1600.62328 L1082.15548,1611.43034 Z M1322.01484,1269.5819 C1322.4339,1269.60999 1322.83889,1269.57348 1323.24388,1269.53696 L1323.51107,1271.37394 C1320.31331,1272.02278 1317.8046,1274.71363 1317.5796,1278.12355 C1317.48117,1279.65436 1317.85241,1281.10653 1318.5724,1282.33679 L1293.41219,1298.95101 L1266.93856,1316.43034 C1266.79513,1316.23372 1266.67138,1316.01745 1266.51107,1315.83487 L1317.14367,1267.43034 C1318.43178,1268.64376 1320.11081,1269.45832 1322.01484,1269.5819 L1322.01484,1269.5819 Z M1323.39852,1103.55977 C1325.69835,1103.7096 1327.74013,1102.3979 1328.64758,1100.43034 L1384.87012,1121.04444 L1396.44301,1125.28769 C1396.36644,1125.56756 1396.3154,1125.85873 1396.29555,1126.15839 C1396.25868,1126.74074 1396.34092,1127.3033 1396.51107,1127.83194 L1362.44746,1142.24372 L1307.63999,1165.43034 C1306.79209,1163.71439 1305.33165,1162.36593 1303.51107,1161.66202 L1306.34403,1152.96633 L1322.4939,1103.40712 C1322.78882,1103.48062 1323.08658,1103.53716 1323.39852,1103.55977 L1323.39852,1103.55977 Z M1404.51107,1059.41491 L1400.77886,1121.86903 C1399.04493,1121.92834 1397.53557,1122.93366 1396.81641,1124.43034 L1353.63879,1108.6502 L1328.86922,1099.59949 C1328.97155,1099.24368 1329.03693,1098.87374 1329.06251,1098.49533 C1329.12505,1097.52955 1328.90902,1096.62024 1328.51107,1095.80695 L1397.97615,1055.43034 C1399.40025,1057.60195 1401.74531,1059.1184 1404.51107,1059.41491 L1404.51107,1059.41491 Z M1635.28568,904.77523 C1636.59103,904.856994 1637.78901,904.355129 1638.65077,903.503649 L1763.45872,1007.13606 L1798.51107,1036.24144 C1798.46586,1036.30065 1798.43478,1036.37113 1798.3924,1036.43034 L1618.96879,922.93825 C1619.53953,921.92888 1619.92379,920.792634 1620.0029,919.554887 C1620.12722,917.646106 1619.54235,915.87266 1618.51107,914.429092 L1632.42069,903.430343 C1633.15247,904.191599 1634.14985,904.701923 1635.28568,904.77523 L1635.28568,904.77523 Z M1878.51107,909.915531 L1808.31959,1033.61583 C1807.35523,1033.13536 1806.28341,1032.83011 1805.14089,1032.75663 C1802.54477,1032.58705 1800.17771,1033.65823 1798.54029,1035.43034 L1638.51107,902.349426 C1638.89285,901.792637 1639.14737,901.14258 1639.23504,900.430343 L1876.76335,906.809386 C1876.8595,908.084064 1877.5156,909.20612 1878.51107,909.915531 L1878.51107,909.915531 Z M1955.51107,1055.65915 C1953.39985,1056.85192 1951.86957,1058.93714 1951.39348,1061.43034 L1813.32827,1042.16472 C1813.33393,1042.09955 1813.35377,1042.04289 1813.35944,1041.97773 C1813.56347,1038.8499 1811.97935,1036.04222 1809.51107,1034.46697 L1879.86708,910.430343 C1880.30917,910.622999 1880.77958,910.758992 1881.28401,910.790157 C1881.90462,910.829821 1882.49973,910.724994 1883.04383,910.518171 L1902.195,948.873764 L1955.51107,1055.65915 Z M2068.33027,1082.43034 C2067.67881,1081.43973 2066.6945,1080.68054 2065.51107,1080.33904 L2089.0205,965.585568 C2089.17981,965.608146 2089.33343,965.656124 2089.50127,965.667413 C2090.24661,965.71257 2090.96634,965.608146 2091.65478,965.430343 L2119.51107,1048.41071 C2117.31773,1049.29972 2115.70473,1051.34587 2115.53973,1053.84922 C2115.46861,1054.93015 2115.70188,1055.95746 2116.12576,1056.88034 L2107.09067,1061.70924 L2068.33027,1082.43034 Z M2081.62309,1397.77946 C2081.27877,1397.70873 2080.9373,1397.62668 2080.5759,1397.60688 C2078.03477,1397.43996 2075.70706,1398.57161 2074.24725,1400.43034 L2035.46719,1373.77436 C2036.00502,1372.88036 2036.3721,1371.87037 2036.44609,1370.76135 C2036.57414,1368.77814 2035.80867,1366.96184 2034.51107,1365.6463 L2111.61589,1280.43034 C2112.17363,1280.86603 2112.81674,1281.19421 2113.51107,1281.43185 L2098.51467,1336.1414 L2081.62309,1397.77946 Z M1971.51107,1590.52404 L2005.51494,1540.64472 C2006.75026,1541.39888 2008.16448,1541.91013 2009.71218,1542.01182 C2013.33009,1542.24626 2016.56748,1540.35096 2018.26852,1537.43034 L2059.51107,1558.68816 C2059.15325,1559.48469 2058.90619,1560.34054 2058.84371,1561.26135 C2058.78124,1562.21324 2058.92039,1563.13123 2059.19017,1563.98708 L1975.37889,1595.43034 C1974.54966,1593.47291 1973.22347,1591.77251 1971.51107,1590.52404 L1971.51107,1590.52404 Z M1417.63681,1660.43034 C1416.77161,1658.10932 1414.89606,1656.27619 1412.51107,1655.43013 L1435.85156,1579.42009 L1447.13616,1542.66724 C1447.47769,1542.74903 1447.82206,1542.81953 1448.18351,1542.84209 C1449.13694,1542.90414 1450.04768,1542.74621 1450.88726,1542.43034 L1452.86527,1546.74807 L1489.51107,1626.70357 C1485.95635,1628.46619 1483.39205,1631.95478 1483.11314,1636.17098 C1483.02776,1637.47955 1483.2156,1638.73454 1483.54574,1639.93031 L1422.15635,1659.02588 L1417.63681,1660.43034 Z M1084.00439,1476.1178 C1084.08307,1476.12346 1084.15613,1476.10932 1084.2348,1476.10932 L1087.51107,1533.71463 C1084.48207,1534.08523 1082.04594,1536.57198 1081.83801,1539.74901 C1081.80429,1540.29219 1081.85487,1540.80991 1081.94479,1541.32197 L1033.25036,1553.43034 C1032.92441,1552.43734 1032.31468,1551.56882 1031.51107,1550.92663 L1081.75653,1475.43034 C1082.42808,1475.81227 1083.18392,1476.06688 1084.00439,1476.1178 L1084.00439,1476.1178 Z M1233.51107,1358.30268 L1129.63435,1392.96042 L1122.23257,1395.43034 C1122.04583,1395.014 1121.81382,1394.61735 1121.51107,1394.27696 L1156.97792,1356.9355 C1157.82958,1357.61909 1158.88496,1358.06638 1160.05917,1358.13952 C1162.95084,1358.33081 1165.44074,1356.24347 1165.82271,1353.43034 L1233.3696,1357.23088 C1233.38091,1357.5994 1233.42619,1357.95667 1233.51107,1358.30268 L1233.51107,1358.30268 Z M1401.51107,1258.18701 L1371.70107,1266.06723 L1332.49594,1276.43034 C1331.59056,1273.55042 1329.04927,1271.37825 1325.91004,1271.16823 C1325.52363,1271.14234 1325.15132,1271.17686 1324.7762,1271.21138 L1324.51107,1269.3298 C1327.94081,1268.63068 1330.6344,1265.68746 1330.87414,1261.95593 C1330.88543,1261.77468 1330.8544,1261.5963 1330.8544,1261.41505 L1401.38132,1257.43034 C1401.40953,1257.68928 1401.4603,1257.9367 1401.51107,1258.18701 L1401.51107,1258.18701 Z M1307.97369,1169.20288 C1308.04753,1168.10429 1307.87713,1167.05383 1307.52496,1166.08265 L1396.50622,1128.43034 C1397.22759,1129.76394 1398.59081,1130.71247 1400.21531,1130.81724 C1400.28063,1130.8229 1400.33744,1130.80874 1400.39992,1130.81157 L1408.51107,1248.79428 C1406.52872,1249.03212 1404.76506,1250.00614 1403.47852,1251.43034 L1306.51107,1173.20369 C1307.33468,1172.06829 1307.87713,1170.70354 1307.97369,1169.20288 L1307.97369,1169.20288 Z M1451.88457,947.945508 C1452.40604,947.979475 1452.91612,947.951169 1453.41479,947.891727 L1478.51107,1087.84683 C1476.33399,1088.34218 1474.46466,1089.6301 1473.23934,1091.43034 L1412.45204,1054.77719 C1413.059,1053.67326 1413.45794,1052.43913 1413.54628,1051.1031 C1413.79134,1047.37523 1411.6912,1044.04647 1408.51107,1042.50663 L1449.61915,947.430343 C1450.33439,947.693587 1451.08383,947.894558 1451.88457,947.945508 L1451.88457,947.945508 Z M1878.2202,1312.43034 C1877.40513,1311.2791 1876.10895,1310.47774 1874.58636,1310.37616 C1873.47414,1310.30561 1872.43549,1310.62729 1871.57798,1311.20291 L1815.51107,1241.72738 C1817.04498,1240.36168 1818.06664,1238.42036 1818.21097,1236.21098 C1818.23927,1235.82723 1818.19965,1235.44913 1818.17135,1235.07384 L2057.41865,1204.43034 C2057.6111,1205.56184 2057.9875,1206.63126 2058.51107,1207.6132 L1921.97339,1286.99285 L1878.2202,1312.43034 Z M2108.87263,1277.43034 C2109.14146,1278.57812 2109.71024,1279.61253 2110.51107,1280.43723 L2033.83555,1365.80038 C2032.80551,1364.97852 2031.52362,1364.44573 2030.10874,1364.35504 C2027.18841,1364.16233 2024.61049,1365.8854 2023.52386,1368.43034 L1879.51107,1317.23115 C1879.58464,1316.93642 1879.64124,1316.63884 1879.66105,1316.3271 C1879.67519,1316.09188 1879.65539,1315.86233 1879.63558,1315.62994 L1977.02503,1299.40241 L2108.87263,1277.43034 Z M2038.47893,1460.52611 C2038.27923,1460.51189 2038.09095,1460.54317 2037.89696,1460.54601 L2036.69593,1446.93129 L2030.51107,1376.91841 C2032.23416,1376.65681 2033.7604,1375.74973 2034.80738,1374.43034 L2073.69384,1401.22757 C2073.08619,1402.21427 2072.67539,1403.34314 2072.59551,1404.58007 C2072.42434,1407.15629 2073.59684,1409.50503 2075.51107,1410.95522 L2041.36025,1461.43034 C2040.50441,1460.93273 2039.53446,1460.59719 2038.47893,1460.52611 L2038.47893,1460.52611 Z M2077.56883,1508.06326 C2077.5039,1509.08248 2077.64505,1510.05947 2077.89348,1510.99423 L2019.19728,1529.43034 C2018.37013,1527.18355 2016.68762,1525.345 2014.51107,1524.31452 L2035.99988,1473.02394 C2036.53908,1473.20694 2037.09522,1473.34772 2037.68805,1473.38432 C2039.66134,1473.51384 2041.46525,1472.73394 2042.74972,1471.43034 L2079.51107,1503.00937 C2078.40727,1504.41432 2077.69587,1506.14869 2077.56883,1508.06326 L2077.56883,1508.06326 Z M2066.30262,1554.74955 C2063.39839,1554.55999 2060.80121,1556.07928 2059.41248,1558.43034 L2018.51107,1537.13494 C2018.96741,1536.14189 2019.27445,1535.05547 2019.35332,1533.8955 C2019.41811,1532.87416 2019.27445,1531.89243 2019.02656,1530.95313 L2077.59557,1512.43034 C2078.4491,1514.76443 2080.22938,1516.65151 2082.51107,1517.66437 L2068.10543,1555.11735 C2067.52797,1554.93062 2066.9336,1554.79199 2066.30262,1554.74955 L2066.30262,1554.74955 Z M1810.31004,1591.33141 C1810.33815,1586.75724 1806.8557,1582.88831 1802.26585,1582.58525 C1800.78742,1582.48612 1799.39332,1582.80617 1798.13413,1583.3868 L1766.51107,1521.68222 C1767.14066,1521.32252 1767.73653,1520.90617 1768.28461,1520.43034 L1831.51107,1589.12504 C1830.68473,1590.01156 1830.13102,1591.14731 1829.968,1592.43034 L1823.59898,1592.0763 L1810.31004,1591.33141 Z M1682.37077,1598.43034 L1712.08824,1602.92259 L1740.27234,1607.18728 C1740.25824,1607.30808 1740.21878,1607.42046 1740.21032,1607.54407 C1739.88054,1612.57854 1743.70832,1616.9247 1748.75942,1617.2534 C1750.9439,1617.39668 1752.97336,1616.72804 1754.63075,1615.55652 L1757.60729,1619.36046 L1783.51107,1652.45814 C1782.86559,1653.01721 1782.33285,1653.69147 1781.8875,1654.43034 L1681.51107,1601.14142 C1681.91978,1600.30141 1682.18755,1599.37992 1682.37077,1598.43034 L1682.37077,1598.43034 Z M1506.11926,1634.43034 C1505.19745,1631.0339 1502.76285,1628.25755 1499.51107,1626.89333 L1520.81449,1570.72373 C1521.40829,1570.90975 1522.02189,1571.0535 1522.67224,1571.09578 C1526.43017,1571.341 1529.73568,1568.90007 1530.72253,1565.43034 L1555.58028,1571.05069 L1660.51107,1594.78353 C1660.43472,1595.20914 1660.32727,1595.62912 1660.29617,1596.07164 C1660.23396,1597.02434 1660.33575,1597.94039 1660.50541,1598.83672 L1595.9448,1613.72189 L1506.11926,1634.43034 Z M1412.11926,1655.66472 C1411.63296,1655.54002 1411.13252,1655.4465 1410.61229,1655.40965 C1408.31931,1655.25945 1406.18749,1656.04732 1404.5646,1657.43034 L1311.51107,1558.34008 C1313.15658,1556.65381 1314.26207,1554.42623 1314.42889,1551.89258 C1314.45716,1551.4533 1314.4091,1551.03386 1314.38365,1550.60875 L1442.44252,1537.43034 C1442.82704,1539.68909 1444.38773,1541.55674 1446.51107,1542.35878 L1420.39772,1628.39534 L1412.11926,1655.66472 Z M1094.97993,1541.2151 C1095.0223,1540.96726 1095.08444,1540.72795 1095.10139,1540.47156 C1095.17482,1539.35482 1094.93757,1538.30075 1094.51107,1537.34924 L1135.24583,1515.43034 C1136.34455,1517.21941 1138.23979,1518.47004 1140.4796,1518.61818 C1142.12063,1518.72644 1143.64586,1518.20225 1144.87451,1517.28208 L1180.42633,1559.7268 L1180.51107,1559.82651 C1179.77953,1560.53872 1179.22028,1561.42755 1178.89829,1562.43034 L1120.74208,1547.73038 L1094.97993,1541.2151 Z M1233.45299,1359.43034 C1234.02108,1360.74437 1235.12052,1361.7736 1236.51107,1362.23605 L1209.68084,1472.26191 C1209.35864,1472.19988 1209.04492,1472.12092 1208.70859,1472.09837 C1206.3034,1471.94328 1204.09322,1472.87099 1202.49917,1474.43034 L1121.51107,1400.39925 C1122.03111,1399.71404 1122.36462,1398.8822 1122.42397,1397.96576 C1122.45506,1397.50895 1122.39288,1397.07188 1122.29396,1396.64891 L1181.85293,1376.70727 L1233.45299,1359.43034 Z M1259.0673,1330.57391 C1261.4865,1330.7327 1263.73817,1329.90192 1265.43615,1328.43034 L1345.51107,1412.28484 C1345.18169,1412.63643 1344.88923,1413.01637 1344.63368,1413.43034 L1243.1835,1358.59346 C1243.41633,1358.0604 1243.58102,1357.49049 1243.62077,1356.88087 C1243.74002,1355.06054 1242.88535,1353.416 1241.51107,1352.4151 L1255.42998,1329.50213 C1256.52316,1330.09757 1257.74412,1330.48885 1259.0673,1330.57391 L1259.0673,1330.57391 Z M1324.94668,1286.39939 C1327.24217,1286.54743 1329.33671,1285.63129 1330.80855,1284.10906 L1357.51107,1306.55988 C1356.70439,1307.61567 1356.18075,1308.90328 1356.08735,1310.32217 C1356.07037,1310.5903 1356.10433,1310.85006 1356.11565,1311.11261 L1280.11509,1319.20976 L1268.63759,1320.43034 C1268.45927,1319.31869 1268.07716,1318.26849 1267.51107,1317.33002 L1319.47257,1283.43034 C1320.73496,1285.10061 1322.67665,1286.25136 1324.94668,1286.39939 L1324.94668,1286.39939 Z M1401.65978,1259.43034 C1402.28994,1261.44806 1403.67685,1263.13567 1405.51107,1264.13741 L1388.20138,1301.2561 C1387.78784,1301.10242 1387.35742,1300.98574 1386.89605,1300.95444 C1385.0112,1300.82922 1383.32328,1301.85658 1382.47369,1303.43034 L1332.51107,1281.51714 C1332.75019,1280.8569 1332.93586,1280.1682 1332.98087,1279.42827 C1333.02589,1278.75665 1332.94993,1278.10779 1332.82615,1277.47316 L1362.9275,1269.58441 L1401.65978,1259.43034 Z M1404.25258,1059.34716 C1407.35913,1059.38395 1410.12967,1057.84439 1411.77264,1055.43034 L1472.51107,1092.07695 C1471.92735,1093.14672 1471.5401,1094.34384 1471.45467,1095.64001 C1471.38064,1096.76921 1471.54294,1097.85879 1471.87609,1098.87196 L1403.91374,1124.43034 C1403.27307,1123.12851 1402.02875,1122.17761 1400.51107,1121.94554 L1402.17681,1094.09762 L1404.25258,1059.34716 Z M1610.51107,926.698687 L1598.90103,1122.55757 C1593.65312,1122.4361 1589.09416,1125.70159 1587.37888,1130.43034 L1488.42563,1098.70762 C1488.57022,1098.16243 1488.66945,1097.60311 1488.70914,1097.0212 C1488.8991,1094.11728 1487.61477,1091.46478 1485.51107,1089.75294 L1607.00396,925.430343 C1608.03029,926.105475 1609.21539,926.551796 1610.51107,926.698687 L1610.51107,926.698687 Z M1797.51107,1037.13656 C1796.91538,1038.1874 1796.51731,1039.3682 1796.43543,1040.65351 C1796.34509,1042.06029 1796.64153,1043.39079 1797.1864,1044.59136 L1727.73889,1080.43034 C1726.72254,1078.7552 1724.94394,1077.58289 1722.84066,1077.44447 C1721.56458,1077.35972 1720.35908,1077.67046 1719.32862,1078.2665 L1616.51107,925.17893 C1617.17169,924.687405 1617.75327,924.105484 1618.23039,923.430343 L1753.06568,1008.94729 L1797.51107,1037.13656 Z M2062.09972,1194.43034 L1964.51107,1068.62114 C1965.76748,1067.53937 1966.70907,1066.09417 1967.16002,1064.43034 L2054.56126,1083.57288 L2059.71169,1084.70292 C2059.69751,1084.81649 2059.66348,1084.92154 2059.6578,1085.03511 C2059.47345,1087.82898 2061.58921,1090.24238 2064.37997,1090.42694 C2064.40266,1090.42694 2064.41968,1090.4241 2064.43953,1090.4241 L2067.51107,1192.48259 C2065.50592,1192.62455 2063.65959,1193.31734 2062.09972,1194.43034 L2062.09972,1194.43034 Z M1842.51107,1591.34001 L1896.00205,1569.43034 C1897.43054,1572.49725 1900.4115,1574.73488 1904.03204,1574.97101 C1907.55678,1575.19871 1910.72651,1573.47551 1912.56918,1570.74875 C1913.62294,1572.10088 1915.2064,1573.02854 1917.04907,1573.15504 L1954.51107,1595.02255 C1953.7926,1596.35219 1953.33052,1597.83926 1953.17837,1599.43034 L1842.78719,1593.111 C1842.77873,1592.49537 1842.69421,1591.90223 1842.51107,1591.34001 L1842.51107,1591.34001 Z M1788.83531,1650.97063 C1787.70168,1650.89685 1786.61003,1651.06428 1785.59956,1651.43034 L1768.51107,1609.5826 C1771.46971,1608.1751 1773.62502,1605.25793 1773.85175,1601.71362 C1773.91053,1600.77718 1773.79296,1599.88046 1773.59423,1599.00645 L1793.41184,1593.43034 C1794.32714,1596.234 1796.6112,1598.41904 1799.51107,1599.1455 L1789.45111,1651.07563 C1789.24678,1651.04441 1789.05084,1650.98482 1788.83531,1650.97063 L1788.83531,1650.97063 Z M1530.69807,1564.10346 C1530.74611,1563.8359 1530.81394,1563.57961 1530.83372,1563.30361 C1530.9496,1561.52366 1530.43523,1559.862 1529.51107,1558.48479 L1562.85728,1533.68382 C1563.52708,1534.40199 1564.45407,1534.88359 1565.51389,1534.95118 C1566.87894,1535.04131 1568.12812,1534.43297 1568.91097,1533.43034 L1661.51107,1590.85336 C1661.04475,1591.65884 1660.65756,1592.50939 1660.41168,1593.43034 L1611.28968,1582.32539 L1530.69807,1564.10346 Z M1454.37494,1538.43034 L1515.13854,1560.13777 C1514.97376,1560.69167 1514.85443,1561.2683 1514.81749,1561.8705 C1514.59304,1565.26211 1516.57048,1568.2674 1519.51107,1569.56837 L1498.10587,1626.16901 C1497.17682,1625.85939 1496.21367,1625.61795 1495.18801,1625.54977 C1493.36968,1625.43331 1491.6451,1625.7827 1490.06543,1626.43034 L1451.51107,1541.54926 C1452.7839,1540.86753 1453.79251,1539.77392 1454.37494,1538.43034 L1454.37494,1538.43034 Z M1191.50963,1562.43034 C1191.01612,1559.67152 1188.67621,1557.48454 1185.70665,1557.29485 C1185.23016,1557.26417 1184.76785,1557.29764 1184.31405,1557.36459 L1178.51107,1532.16135 C1180.78858,1531.50582 1182.60662,1529.73169 1183.22492,1527.43034 L1294.51107,1549.32243 C1294.46285,1549.62091 1294.3806,1549.91102 1294.36075,1550.22065 C1294.32955,1550.66697 1294.37776,1551.09656 1294.40613,1551.53451 L1248.71122,1556.37152 L1191.50963,1562.43034 Z M1145.51107,1517.41653 C1146.11116,1516.85387 1146.60552,1516.18431 1146.95986,1515.43034 L1169.98332,1524.2641 C1169.81187,1524.78175 1169.68613,1525.3219 1169.64613,1525.89019 C1169.39752,1529.64594 1172.28938,1532.88968 1176.10138,1533.13443 C1176.63575,1533.16819 1177.15583,1533.12881 1177.66162,1533.04722 L1183.51107,1558.46819 C1182.79953,1558.67638 1182.15086,1559.00553 1181.56506,1559.43034 L1164.60823,1539.66973 L1145.51107,1517.41653 Z M1950.51107,1062.97765 L1767.34431,1082.43034 C1767.20544,1081.78495 1766.92202,1081.19074 1766.51107,1080.69888 L1798.86879,1047.11866 C1800.19518,1048.27866 1801.87301,1049.05484 1803.76624,1049.17993 C1807.99198,1049.45287 1811.64806,1046.49602 1812.42179,1042.43034 L1950.50823,1061.76079 C1950.50257,1061.83186 1950.47989,1061.89157 1950.47422,1061.9598 C1950.45155,1062.30667 1950.49123,1062.63931 1950.51107,1062.97765 L1950.51107,1062.97765 Z M1818.90189,1234.43034 C1818.59103,1232.71359 1817.73474,1231.19167 1816.51107,1230.0227 L1921.43032,1107.75509 L1954.3112,1069.43034 C1955.59422,1070.42425 1957.17963,1071.05956 1958.91764,1071.17533 C1960.90716,1071.30521 1962.75821,1070.70379 1964.27014,1069.64494 L2061.51107,1194.75874 C2059.38307,1196.55172 2057.95027,1199.15791 2057.75527,1202.15093 C2057.71853,1202.70153 2057.76658,1203.23237 2057.81179,1203.76885 L1973.17497,1214.62842 L1818.90189,1234.43034 Z M2031.33687,1465.43034 L1888.34524,1427.15461 L1831.51107,1411.93922 C1831.60155,1411.52154 1831.69485,1411.10386 1831.72313,1410.66914 C1831.76271,1410.05541 1831.73726,1409.45588 1831.65809,1408.87057 L2022.5577,1372.43034 C2023.2589,1375.17792 2025.61981,1377.29756 2028.59144,1377.49077 C2028.79501,1377.50498 2028.99293,1377.47657 2029.19368,1377.47089 L2036.51107,1461.04047 C2034.09927,1461.40984 2032.10876,1463.12317 2031.33687,1465.43034 L2031.33687,1465.43034 Z M2012.99737,1524.2286 C2012.19764,1523.9347 2011.35834,1523.71146 2010.46253,1523.65494 C2007.20142,1523.443 2004.24551,1524.97181 2002.45388,1527.43034 L1830.51107,1414.21631 C1830.84453,1413.65678 1831.11864,1413.06334 1831.32211,1412.43034 L1874.0019,1423.80176 L2031.03519,1465.63356 C2030.97867,1465.9105 2030.91368,1466.18179 2030.8939,1466.47003 C2030.71586,1469.18007 2032.21925,1471.61034 2034.51107,1472.74635 L2023.60303,1498.84919 L2012.99737,1524.2286 Z M1965.31012,1588.8464 C1961.27742,1588.57843 1957.58902,1590.42284 1955.2947,1593.43034 L1922.51107,1569.85495 C1923.03032,1569.00544 1923.38026,1568.03619 1923.44798,1566.97288 C1923.49596,1566.22884 1923.39154,1565.51616 1923.19682,1564.83769 L1945.86627,1556.61909 L2001.5451,1536.43034 C2002.17724,1537.97828 2003.19035,1539.32667 2004.51107,1540.32442 L1970.71715,1590.66515 C1969.13116,1589.656 1967.31094,1588.97753 1965.31012,1588.8464 L1965.31012,1588.8464 Z M1758.6937,1608.44781 C1758.71621,1608.09913 1758.674,1607.76759 1758.65993,1607.43034 C1760.19918,1608.96226 1762.23089,1609.99401 1764.54962,1610.14549 C1765.87783,1610.23695 1767.15256,1610.02545 1768.32881,1609.59389 L1784.82445,1650.0553 L1785.51107,1651.73869 C1785.10022,1651.93876 1784.71189,1652.1674 1784.34326,1652.43034 L1755.51107,1614.88985 C1757.31484,1613.32078 1758.52767,1611.04578 1758.6937,1608.44781 L1758.6937,1608.44781 Z M1681.56492,1595.85653 L1766.1483,1590.43034 C1766.21065,1590.8685 1766.34386,1591.27474 1766.51107,1591.66937 C1766.03211,1591.55911 1765.54748,1591.45174 1765.04018,1591.41692 C1759.86796,1591.07162 1755.3986,1595.08758 1755.06135,1600.38609 C1755.03584,1600.76912 1755.07835,1601.13763 1755.09819,1601.50905 C1753.58479,1600.01177 1751.59242,1599.00198 1749.32515,1598.85109 C1744.66024,1598.53771 1740.61883,1601.85726 1739.72893,1606.43034 L1681.51107,1597.38573 C1681.53091,1597.20582 1681.58759,1597.04043 1681.59892,1596.86052 C1681.6216,1596.52102 1681.57342,1596.19313 1681.56492,1595.85653 L1681.56492,1595.85653 Z M1088.81877,1474.43034 L1091.68544,1476.52443 L1135.51107,1508.52796 C1134.91738,1509.44307 1134.51876,1510.50133 1134.44243,1511.66627 C1134.36609,1512.79753 1134.60922,1513.86703 1135.05308,1514.82985 L1094.27789,1536.43034 C1093.20642,1534.71522 1091.36033,1533.5194 1089.18064,1533.37624 C1089.05342,1533.36782 1088.93185,1533.39308 1088.80463,1533.39027 L1085.51107,1476.22968 C1086.82284,1476.05564 1087.98195,1475.39036 1088.81877,1474.43034 L1088.81877,1474.43034 Z M1361.51107,1318.23057 L1350.80243,1410.69084 C1348.83965,1410.57733 1347.01321,1411.24987 1345.62421,1412.43034 L1265.51107,1328.50015 C1266.89439,1327.05293 1267.82607,1325.15736 1267.96525,1323.00072 C1267.99081,1322.62614 1267.94821,1322.26576 1267.92832,1321.8997 L1355.72783,1312.43034 C1356.22208,1315.36735 1358.52003,1317.7056 1361.51107,1318.23057 L1361.51107,1318.23057 Z M1405.98276,1264.05604 C1406.77447,1264.3787 1407.61443,1264.61645 1408.51398,1264.67589 C1411.78017,1264.88817 1414.70867,1263.12768 1416.16724,1260.43034 L1441.63839,1272.44807 L1541.51107,1319.56796 C1541.26703,1320.15951 1541.09393,1320.77936 1540.98893,1321.43034 L1390.84365,1305.13594 C1390.87771,1303.38111 1389.94694,1301.83007 1388.51107,1300.98663 L1398.16207,1280.59102 L1405.98276,1264.05604 Z M1403.89241,1130.43034 L1452.09401,1172.89845 L1481.51107,1198.81708 C1480.88529,1199.64569 1480.48321,1200.65811 1480.40959,1201.76669 C1480.33314,1202.95162 1480.64461,1204.06868 1481.22508,1205.00475 L1415.99449,1252.43034 C1414.62401,1250.74485 1412.59945,1249.59386 1410.25492,1249.44397 C1410.03406,1249.42983 1409.81886,1249.46094 1409.598,1249.46377 L1401.51107,1131.60679 C1402.42283,1131.45691 1403.24115,1131.03836 1403.89241,1130.43034 L1403.89241,1130.43034 Z M1472.01785,1099.43034 C1473.28166,1102.31186 1476.03931,1104.42554 1479.40473,1104.64654 C1479.60069,1104.65788 1479.78529,1104.62671 1479.97841,1104.62671 L1484.51107,1195.906 C1483.30122,1196.059 1482.21634,1196.6115 1481.37285,1197.43034 L1430.76099,1152.88154 L1403.51107,1128.90004 C1404.00523,1128.22854 1404.32615,1127.41537 1404.38579,1126.52003 C1404.41987,1125.99869 1404.34603,1125.50002 1404.21539,1125.02118 L1411.28986,1122.34933 L1472.01785,1099.43034 Z M1611.11799,926.540912 C1612.63157,926.552216 1614.06578,926.165071 1615.28741,925.430343 L1718.51107,1078.5674 C1717.15338,1079.62145 1716.21803,1081.20677 1716.09615,1083.05489 C1716.04229,1083.88287 1716.16134,1084.68542 1716.41077,1085.42863 L1609.26428,1129.43034 C1607.53529,1125.64649 1603.92141,1122.88561 1599.51107,1122.47021 L1608.73708,966.719219 L1611.11799,926.540912 Z M1870.93239,1312.43034 L1860.82678,1306.42173 L1831.06322,1288.71408 C1831.44429,1287.97638 1831.68423,1287.14858 1831.74069,1286.26446 C1831.96651,1282.78994 1829.33002,1279.78845 1825.84387,1279.56039 C1825.23414,1279.52097 1824.64982,1279.59699 1824.0768,1279.72088 L1813.51107,1243.54534 C1814.26193,1243.28349 1814.9394,1242.88648 1815.57453,1242.43034 L1871.51107,1311.77711 C1871.29936,1311.97702 1871.10741,1312.19383 1870.93239,1312.43034 L1870.93239,1312.43034 Z M2022.31037,1371.17253 L1831.44013,1407.43034 C1830.89458,1405.15752 1829.47277,1403.22957 1827.51107,1402.03096 L1863.92693,1335.26242 L1872.3306,1319.853 C1872.83374,1320.07067 1873.37081,1320.22615 1873.95027,1320.2629 C1876.02222,1320.39859 1877.85672,1319.20846 1878.6708,1317.43034 L2022.51107,1368.49828 C2022.38387,1368.94776 2022.29624,1369.4142 2022.26232,1369.90325 C2022.23406,1370.33294 2022.25667,1370.75698 2022.31037,1371.17253 L2022.31037,1371.17253 Z M1922.6897,1564.43034 C1922.06583,1562.99555 1920.9423,1561.83974 1919.51107,1561.19636 L1994.51107,1538.43034 L1956.39002,1552.22888 L1922.6897,1564.43034 Z M1918.51107,1572.66739 C1920.03013,1572.40251 1921.36359,1571.59349 1922.31158,1570.43034 L1955.51107,1594.26048 C1955.4768,1594.31806 1955.44254,1594.37276 1955.40542,1594.43034 L1946.71079,1589.3027 L1918.51107,1572.66739 Z M1793.16494,1590.43034 L1775.71485,1590.05446 C1775.55515,1587.62831 1773.6416,1585.63215 1771.14628,1585.47269 C1770.96947,1585.46129 1770.79837,1585.48408 1770.62441,1585.48692 L1762.51107,1522.36435 C1763.53771,1522.19635 1764.50732,1521.86318 1765.4256,1521.43034 L1797.51107,1583.46798 C1795.0842,1584.87754 1793.37597,1587.42329 1793.16494,1590.43034 L1793.16494,1590.43034 Z M1305.51107,1541.8413 L1307.26304,1528.18751 C1307.37094,1528.19604 1307.47316,1528.23299 1307.5839,1528.24152 C1313.71153,1528.64226 1319.00719,1524.33353 1320.0862,1518.43034 L1442.50255,1536.46107 C1442.50255,1536.49234 1442.49119,1536.5236 1442.48835,1536.56055 C1442.47415,1536.78224 1442.50255,1536.9954 1442.51107,1537.21425 L1313.92733,1550.43034 C1313.30548,1546.07898 1309.91513,1542.59448 1305.51107,1541.8413 L1305.51107,1541.8413 Z M1589.51107,1141.70567 L1553.20314,1172.43034 C1551.74619,1170.87127 1549.72736,1169.82813 1547.42899,1169.67871 C1545.31416,1169.53775 1543.3518,1170.20028 1541.76497,1171.35619 L1486.51107,1102.85861 C1487.54731,1101.93952 1488.32943,1100.75823 1488.8292,1099.43034 L1587.37082,1131.09102 C1587.14494,1131.88606 1586.99247,1132.7093 1586.936,1133.56354 C1586.73553,1136.62812 1587.74635,1139.47279 1589.51107,1141.70567 L1589.51107,1141.70567 Z M1810.95181,1227.75237 C1810.09075,1227.69568 1809.26651,1227.8119 1808.47343,1228.00747 L1765.51107,1086.49393 C1766.85647,1085.92138 1767.84499,1084.64023 1767.94696,1083.0813 C1767.95263,1082.9906 1767.93846,1082.9084 1767.93846,1082.82337 L1950.96471,1063.43034 C1951.25928,1065.30105 1952.18266,1066.96202 1953.51107,1068.22333 L1815.39307,1229.43034 C1814.1553,1228.47231 1812.62861,1227.86291 1810.95181,1227.75237 L1810.95181,1227.75237 Z M1870.51107,1313.61241 C1870.38619,1313.87358 1870.27834,1314.14622 1870.19887,1314.43034 L1867.9113,1313.99411 L1812.86488,1303.51311 C1812.88191,1303.37822 1812.92164,1303.25195 1812.93299,1303.11706 C1813.04368,1301.38075 1812.48456,1299.76785 1811.51107,1298.49073 L1819.44661,1291.45939 L1820.72662,1290.32289 C1821.77959,1291.38477 1823.18449,1292.09938 1824.78522,1292.20557 C1827.09833,1292.36055 1829.18155,1291.22692 1830.41048,1289.43034 L1853.51323,1303.36388 L1870.51107,1313.61241 Z M1826.84872,1402.43034 C1825.86261,1401.95062 1824.77789,1401.63554 1823.61709,1401.56174 C1822.78313,1401.50497 1821.98015,1401.61283 1821.19971,1401.78315 L1814.51107,1376.7469 C1816.56781,1376.01738 1818.10333,1374.10702 1818.25547,1371.77655 C1818.34563,1370.3459 1817.88638,1369.02313 1817.08341,1367.97001 L1870.88559,1319.43034 C1871.08,1319.61769 1871.28567,1319.78233 1871.51107,1319.93561 L1846.13422,1366.81187 L1826.84872,1402.43034 Z M1772.51107,1596.13026 C1774.32859,1595.71073 1775.74941,1594.10008 1775.87602,1592.05817 L1775.87602,1592.0523 L1792.89772,1591.44208 L1793.32256,1591.43034 C1793.35633,1591.84987 1793.42385,1592.25767 1793.51107,1592.66253 L1773.59427,1598.43034 C1773.33542,1597.60595 1772.96123,1596.84317 1772.51107,1596.13026 L1772.51107,1596.13026 Z M1681.78903,1595.43034 C1681.32458,1590.84086 1678.00546,1587.02897 1673.51107,1585.92174 L1689.26553,1510.43332 C1689.34482,1510.44178 1689.42129,1510.46713 1689.50342,1510.47277 C1690.741,1510.55165 1691.8908,1510.14595 1692.78854,1509.43034 L1767.51107,1587.08813 C1766.82572,1587.86291 1766.36694,1588.84898 1766.2933,1589.96466 C1766.28764,1590.03228 1766.3018,1590.09707 1766.29897,1590.16187 L1758.4005,1590.65491 L1681.78903,1595.43034 Z M1569.86959,1530.66543 L1653.47347,1509.43034 C1654.50387,1512.76471 1657.47934,1515.29296 1661.1775,1515.53536 C1661.53038,1515.55791 1661.86632,1515.51563 1662.21073,1515.49872 L1669.51107,1585.7036 C1666.40292,1586.14612 1663.71822,1587.919 1662.01029,1590.43034 L1569.51107,1532.96256 C1569.72844,1532.51159 1569.86959,1532.02116 1569.90347,1531.49127 C1569.92323,1531.20942 1569.90911,1530.93601 1569.86959,1530.66543 L1569.86959,1530.66543 Z M1523.52834,1555.61153 C1522.12658,1555.51805 1520.80142,1555.83251 1519.62099,1556.3991 L1482.51107,1488.88649 C1483.0871,1488.50404 1483.57516,1488.0111 1483.95824,1487.43034 L1562.26987,1529.94195 C1562.10813,1530.33574 1561.98895,1530.75218 1561.95774,1531.19979 C1561.90382,1532.03552 1562.11381,1532.82875 1562.51107,1533.49734 L1529.04744,1558.43034 C1527.71662,1556.83255 1525.7672,1555.75602 1523.52834,1555.61153 L1523.52834,1555.61153 Z M1452.51107,1530.77264 L1463.20393,1512.54158 L1477.34256,1488.43034 C1477.91262,1488.70726 1478.54476,1488.88527 1479.21359,1488.93048 C1480.07151,1488.98417 1480.87862,1488.80615 1481.60954,1488.47838 L1518.51107,1555.80504 C1517.148,1556.65556 1516.07561,1557.91862 1515.44347,1559.43034 L1455.08763,1537.83393 C1455.20898,1537.40443 1455.29364,1536.95798 1455.32468,1536.49175 C1455.47707,1534.13516 1454.32849,1532.0131 1452.51107,1530.77264 L1452.51107,1530.77264 Z M1183.57071,1526.02719 L1297.56517,1517.43034 C1298.14738,1522.74133 1302.19163,1527.04546 1307.51107,1527.92397 L1305.75875,1541.62359 C1305.68775,1541.61788 1305.61959,1541.59506 1305.54574,1541.59221 C1300.50179,1541.25849 1296.09969,1544.66129 1294.94947,1549.43034 L1183.51107,1527.04546 C1183.53379,1526.88288 1183.57923,1526.73171 1183.59059,1526.56342 C1183.60195,1526.38087 1183.57355,1526.20688 1183.57071,1526.02719 L1183.57071,1526.02719 Z M1147.99009,1511.98064 C1148.05771,1510.95261 1147.86892,1509.9726 1147.51107,1509.07731 L1201.38085,1483.43034 C1201.91622,1484.416 1202.63193,1485.29152 1203.51107,1485.98064 L1180.09837,1519.48748 C1179.1826,1518.92545 1178.14003,1518.54418 1176.99602,1518.47075 C1174.09937,1518.28153 1171.52395,1519.93936 1170.37149,1522.43034 L1147.67168,1513.56504 C1147.83229,1513.0595 1147.95345,1512.53419 1147.99009,1511.98064 L1147.99009,1511.98064 Z M1090.24539,1471.43034 L1200.89582,1479.75303 C1200.86747,1480.9036 1201.08862,1482.00377 1201.51107,1483.00876 L1147.30435,1508.43034 C1146.23263,1506.53233 1144.25081,1505.18581 1141.8919,1505.03184 C1139.67759,1504.89187 1137.6589,1505.83808 1136.33485,1507.39735 L1089.51107,1473.39834 C1089.87965,1472.81046 1090.13198,1472.147 1090.24539,1471.43034 L1090.24539,1471.43034 Z M1416.51107,1252.86905 L1481.8004,1205.43034 C1482.7357,1206.52225 1484.08479,1207.25208 1485.62945,1207.35392 C1486.5279,1207.41049 1487.381,1207.23228 1488.15475,1206.89565 L1545.51107,1316.16875 C1544.19882,1316.94384 1543.12181,1318.07536 1542.39341,1319.43034 L1417.20545,1260.3229 C1417.53139,1259.53084 1417.76947,1258.69352 1417.82899,1257.79397 C1417.94519,1255.97789 1417.43219,1254.28062 1416.51107,1252.86905 L1416.51107,1252.86905 Z M1480.51107,1105.05545 C1482.09466,1104.90256 1483.54724,1104.32217 1484.77766,1103.43034 L1540.51107,1172.21977 C1538.84488,1173.68916 1537.73693,1175.78141 1537.58028,1178.16527 C1537.50623,1179.29775 1537.66857,1180.39059 1537.99896,1181.40982 L1489.90155,1199.43034 C1489.07273,1197.675 1487.35527,1196.39531 1485.26755,1196.25941 C1485.19919,1196.25658 1485.13083,1196.27073 1485.05963,1196.2679 L1481.28862,1120.61284 L1480.51107,1105.05545 Z M1716.52577,1086.43034 C1716.78909,1086.95636 1717.11185,1087.44863 1717.51107,1087.87901 L1665.64728,1142.14624 C1664.97344,1141.62303 1664.14103,1141.28829 1663.22369,1141.2264 C1661.10021,1141.08857 1659.23156,1142.46972 1658.68795,1144.43034 L1610.10847,1135.98871 C1610.15094,1135.70179 1610.23305,1135.43175 1610.25287,1135.13639 C1610.36612,1133.40643 1610.08016,1131.7468 1609.51107,1130.22219 L1628.48928,1122.45566 L1716.52577,1086.43034 Z M2001.50822,1535.25521 L1918.30574,1560.17585 C1918.09044,1560.13921 1917.8808,1560.08282 1917.657,1560.06873 C1916.03658,1559.96442 1914.52947,1560.49723 1913.35098,1561.43034 C1912.05918,1558.01644 1908.87216,1555.48491 1904.97691,1555.23119 C1903.297,1555.12125 1901.70774,1555.49055 1900.28278,1556.15585 L1851.39814,1463.23343 L1827.51107,1417.82374 C1828.54508,1417.21764 1829.43178,1416.39729 1830.14001,1415.43034 L2002.51107,1528.37385 C2001.79151,1529.57477 2001.30425,1530.94202 2001.20793,1532.43614 C2001.14561,1533.41436 2001.27875,1534.35311 2001.50822,1535.25521 L2001.50822,1535.25521 Z M1771.93073,1515.3238 C1772.2186,1514.44466 1772.43874,1513.53149 1772.50083,1512.56727 C1772.76894,1508.41831 1770.72845,1504.68623 1767.51107,1502.53943 L1770.75385,1497.19937 L1819.18386,1417.43034 C1820.26761,1418.02305 1821.47553,1418.41441 1822.78788,1418.50232 C1824.30062,1418.60158 1825.7315,1418.27261 1827.01281,1417.6714 L1899.51107,1556.82763 C1897.73304,1557.86842 1896.34167,1559.49057 1895.52886,1561.43034 L1840.35929,1540.85 L1771.93073,1515.3238 Z M1344.2594,1420.43034 C1344.97194,1421.82646 1346.0973,1422.98137 1347.51107,1423.68227 L1314.66917,1501.36243 L1313.24692,1504.71934 C1312.15549,1504.29938 1311.00751,1503.98156 1309.77753,1503.90211 C1304.49285,1503.55592 1299.83589,1506.74825 1297.97254,1511.43034 L1216.70051,1482.21125 C1216.87582,1481.6267 1217.00306,1481.02512 1217.04265,1480.39233 C1217.12182,1479.1835 1216.91541,1478.02858 1216.51107,1476.96447 L1271.80082,1452.49841 L1344.2594,1420.43034 Z M1544.51107,1330.13475 L1508.10845,1391.79107 C1507.26299,1391.35582 1506.32423,1391.08166 1505.3176,1391.01383 C1503.02723,1390.86404 1500.94046,1391.83347 1499.52666,1393.43034 L1390.51107,1308.06396 C1390.82776,1307.57501 1391.0568,1307.0267 1391.17556,1306.43034 L1540.75318,1322.69868 C1540.57504,1325.77938 1542.10477,1328.54353 1544.51107,1330.13475 L1544.51107,1330.13475 Z M1589.77208,1142.43034 C1591.71529,1144.57582 1594.42562,1146.00898 1597.51107,1146.29562 L1595.96271,1174.24647 C1592.45421,1174.26066 1589.50415,1176.90562 1589.1093,1180.43034 L1555.29916,1178.67366 C1555.3048,1176.67859 1554.64766,1174.83677 1553.51107,1173.34685 L1574.35896,1155.57 L1589.77208,1142.43034 Z M1870.51107,1318.68218 L1816.11862,1367.43034 C1815.1872,1366.53515 1813.9624,1365.9336 1812.5724,1365.84237 C1812.40149,1365.83097 1812.23914,1365.85663 1812.07108,1365.85948 L1806.51107,1309.4765 C1809.17429,1309.04601 1811.35329,1307.06461 1812.01696,1304.43034 L1869.55402,1315.27531 C1869.54832,1315.33232 1869.52838,1315.38079 1869.52553,1315.44066 C1869.44863,1316.65516 1869.83316,1317.77843 1870.51107,1318.68218 L1870.51107,1318.68218 Z M1768.48789,1586.43034 L1693.51107,1508.7142 C1694.07085,1508.0798 1694.45446,1507.30441 1694.61358,1506.43034 L1703.04443,1507.17753 L1750.2168,1511.34205 C1749.90707,1517.41261 1754.55015,1522.62884 1760.68503,1523.02358 C1761.27607,1523.06306 1761.85006,1523.01512 1762.42121,1522.96437 L1770.51107,1585.48014 C1769.75806,1585.64086 1769.07041,1585.96511 1768.48789,1586.43034 L1768.48789,1586.43034 Z M1775.613,1590.60634 L1786.51107,1590.85534 L1775.51107,1591.25434 C1775.55637,1591.04134 1775.59035,1590.82534 1775.613,1590.60634 L1775.613,1590.60634 Z M1449.4754,1529.76201 C1449.14829,1529.74227 1448.83236,1529.77047 1448.51643,1529.79585 L1439.51107,1470.25205 C1440.50359,1469.98415 1441.34234,1469.32428 1441.84279,1468.43034 L1457.20307,1475.00089 L1474.63227,1482.45127 C1474.50087,1482.85452 1474.40022,1483.26624 1474.37226,1483.70897 C1474.25204,1485.54196 1475.12154,1487.20011 1476.51107,1488.18992 L1451.91896,1530.43034 C1451.17806,1530.05529 1450.35329,1529.81841 1449.4754,1529.76201 L1449.4754,1529.76201 Z M1320.51107,1512.2317 L1377.0091,1490.58948 L1434.85535,1468.43034 C1435.4533,1469.6005 1436.61536,1470.44119 1438.01434,1470.53208 C1438.15255,1470.54344 1438.28511,1470.52356 1438.42332,1470.51788 L1441.61616,1491.5949 L1447.51107,1530.4941 C1445.09105,1531.03373 1443.16463,1532.9395 1442.63719,1535.43034 L1321.03569,1517.4122 C1321.05543,1517.22759 1321.11184,1517.06002 1321.12594,1516.87256 C1321.2303,1515.24798 1321.00184,1513.68019 1320.51107,1512.2317 L1320.51107,1512.2317 Z M1347.83926,1424.37011 C1348.4682,1424.59385 1349.12263,1424.76661 1349.8224,1424.81193 C1352.58463,1424.99319 1355.0579,1423.6026 1356.45459,1421.43034 L1420.03696,1457.13807 L1434.51107,1465.26633 C1434.34675,1465.65717 1434.22776,1466.07349 1434.19943,1466.52097 C1434.1711,1466.94296 1434.22776,1467.34796 1434.32975,1467.73596 L1319.435,1511.43034 C1318.29044,1508.71998 1316.19681,1506.50524 1313.51107,1505.2506 L1320.50589,1488.77033 L1347.83926,1424.37011 Z M1762.51107,1086.59209 L1738.64434,1154.92563 L1730.43575,1178.43034 C1730.12535,1178.34811 1729.80084,1178.28856 1729.46505,1178.26587 C1729.38322,1178.2602 1729.30421,1178.27722 1729.21673,1178.27438 L1723.51107,1089.47595 C1726.38647,1089.09314 1728.68624,1086.72253 1728.88094,1083.7054 C1728.88376,1083.69406 1728.88094,1083.68272 1728.88094,1083.67137 L1760.26492,1083.43034 C1760.42012,1084.81981 1761.28641,1086.00795 1762.51107,1086.59209 L1762.51107,1086.59209 Z M1803.67824,1231.43034 L1788.72739,1221.84711 L1732.97827,1186.11418 C1733.31897,1185.48113 1733.54042,1184.77744 1733.58868,1184.01723 C1733.73348,1181.79593 1732.44168,1179.82615 1730.51107,1178.96985 L1762.78912,1087.43034 C1763.00489,1087.47839 1763.22067,1087.5236 1763.4478,1087.53773 C1763.79417,1087.56034 1764.13203,1087.5236 1764.45853,1087.46143 L1807.51107,1228.53361 C1805.96374,1229.09035 1804.63503,1230.11056 1803.67824,1231.43034 L1803.67824,1231.43034 Z M1806.0957,1295.82705 C1803.91453,1295.82142 1801.93811,1296.81878 1800.684,1298.43034 L1713.51107,1240.20286 C1714.11395,1239.2055 1714.52061,1238.07571 1714.60023,1236.83887 C1714.60308,1236.80506 1714.59454,1236.77125 1714.59739,1236.73744 L1802.33624,1236.43034 C1802.55236,1240.32683 1805.54685,1243.53586 1809.51107,1243.99792 L1807.5574,1273.65119 L1806.0957,1295.82705 Z M1817.11883,1403.43034 L1806.59054,1393.57403 C1807.66177,1392.22637 1808.36769,1390.54393 1808.4858,1388.66856 C1808.66434,1385.82005 1807.47225,1383.22688 1805.51107,1381.51607 L1809.99926,1375.43034 C1810.76011,1375.94387 1811.63907,1376.28717 1812.61142,1376.34958 C1813.0866,1376.38363 1813.54256,1376.32972 1813.98754,1376.24461 L1820.51107,1401.26275 C1819.21186,1401.69683 1818.06371,1402.44868 1817.11883,1403.43034 L1817.11883,1403.43034 Z M1762.04681,1500.00434 C1760.00873,1499.87445 1758.08089,1500.34037 1756.37071,1501.1875 L1735.1588,1462.30422 L1708.51107,1413.44176 C1710.91098,1411.98187 1712.59572,1409.43483 1712.83034,1406.43034 L1731.63385,1407.02051 L1814.69779,1409.62967 C1814.74584,1412.54662 1816.21858,1415.13319 1818.51107,1416.68909 L1766.75617,1501.43034 C1765.34563,1500.64534 1763.7683,1500.11729 1762.04681,1500.00434 L1762.04681,1500.00434 Z M1567.51107,1527.19634 L1579.61737,1489.42036 C1580.11237,1489.54946 1580.61869,1489.63927 1581.1448,1489.67576 C1584.81063,1489.91151 1588.03238,1487.68031 1589.24867,1484.43034 L1653.51107,1504.40165 C1653.3753,1504.92086 1653.2763,1505.45691 1653.24235,1506.0098 C1653.18861,1506.79563 1653.27912,1507.54778 1653.42904,1508.28309 L1569.64381,1529.43034 C1569.27044,1528.43122 1568.50107,1527.62574 1567.51107,1527.19634 L1567.51107,1527.19634 Z M1484.94838,1483.88963 L1490.39083,1483.73859 L1573.31126,1481.43034 C1573.56236,1484.6106 1575.61633,1487.30071 1578.51107,1488.40069 L1575.2298,1498.82487 L1566.42427,1526.78607 C1566.24652,1526.75187 1566.07441,1526.70913 1565.8882,1526.69773 C1564.44365,1526.60369 1563.14018,1527.31041 1562.36994,1528.43034 L1484.51107,1485.67354 C1484.74806,1485.13779 1484.9117,1484.55931 1484.9512,1483.94092 C1484.9512,1483.92098 1484.94838,1483.90388 1484.94838,1483.88963 L1484.94838,1483.88963 Z M1589.17049,1181.18692 C1589.19857,1184.07293 1590.95614,1186.56733 1593.51107,1187.59744 L1551.77022,1315.43034 C1551.23958,1315.27994 1550.68087,1315.18629 1550.10811,1315.14657 C1550.01546,1315.14089 1549.92562,1315.16075 1549.83577,1315.15792 L1547.51107,1187.24272 C1551.67476,1186.96178 1555.09444,1183.70686 1555.51839,1179.43034 L1573.36361,1180.36113 L1589.17049,1181.18692 Z M1659.51107,1147.02011 L1652.99927,1150.50054 L1602.63271,1177.43034 C1601.55773,1175.63445 1599.70043,1174.37247 1597.51107,1174.11265 L1599.05319,1145.98369 C1604.81081,1146.1036 1609.73547,1142.04357 1610.90332,1136.43034 L1659.18745,1144.99866 C1659.18745,1145.01864 1659.18182,1145.03577 1659.17901,1145.05005 C1659.13398,1145.75242 1659.26624,1146.41196 1659.51107,1147.02011 L1659.51107,1147.02011 Z M1722.34929,1089.85298 C1722.48052,1089.86145 1722.60603,1089.84169 1722.73726,1089.84169 L1725.09357,1125.94956 L1728.51107,1178.24276 C1727.05335,1178.45446 1725.79247,1179.27022 1724.98231,1180.43034 L1667.19286,1147.57421 C1667.40966,1147.10564 1667.55515,1146.59756 1667.59223,1146.0556 C1667.66925,1144.85313 1667.25276,1143.7297 1666.51107,1142.88854 L1718.76919,1088.43034 C1719.75051,1089.23763 1720.98001,1089.76548 1722.34929,1089.85298 L1722.34929,1089.85298 Z M1803.51107,1232.07735 C1803.43999,1232.19976 1803.35186,1232.30509 1803.28931,1232.43034 L1786.96179,1225.17692 L1725.2709,1197.77164 C1725.43864,1197.30478 1725.56374,1196.82084 1725.59785,1196.30274 C1725.7201,1194.42106 1724.88141,1192.70449 1723.51107,1191.62274 L1726.06127,1187.79961 C1726.71516,1188.16684 1727.44866,1188.40881 1728.24471,1188.46289 C1730.04719,1188.57961 1731.69331,1187.7626 1732.71395,1186.43034 L1748.08906,1196.34259 L1803.51107,1232.07735 Z M1690.18551,1500.72728 C1689.69079,1500.69611 1689.21598,1500.76129 1688.75822,1500.87181 L1667.51107,1437.99745 C1668.38108,1437.64039 1669.15159,1437.10763 1669.79131,1436.43034 L1738.60787,1493.48116 L1752.51107,1505.00921 C1751.32546,1506.53665 1750.57486,1508.39848 1750.31328,1510.43034 L1694.64363,1505.49663 C1694.64363,1503.00002 1692.71879,1500.89448 1690.18551,1500.72728 L1690.18551,1500.72728 Z M1441.51107,1463.88091 L1500.27558,1403.43034 C1500.92877,1403.99409 1501.6805,1404.43381 1502.51107,1404.7326 L1480.74466,1478.83147 C1480.51661,1478.78637 1480.29137,1478.73 1480.05487,1478.7159 C1477.98831,1478.5806 1476.13573,1479.7081 1475.22915,1481.43034 L1442.2262,1467.41842 C1442.30785,1467.14782 1442.36697,1466.86313 1442.38386,1466.56998 C1442.45144,1465.55242 1442.11076,1464.60814 1441.51107,1463.88091 L1441.51107,1463.88091 Z M1358.20763,1416.92729 L1497.78235,1399.43034 C1498.0277,1400.7608 1498.6312,1401.96671 1499.51107,1402.93766 L1440.66143,1463.62924 C1440.07485,1463.16782 1439.35008,1462.87342 1438.54918,1462.81964 C1437.17579,1462.73188 1435.93214,1463.38579 1435.18481,1464.43034 L1357.51107,1420.62993 C1357.91716,1419.79769 1358.17661,1418.87486 1358.24147,1417.89258 C1358.26403,1417.56422 1358.22737,1417.25 1358.20763,1416.92729 L1358.20763,1416.92729 Z M1549.02759,1332.00526 C1551.57242,1332.17504 1553.89791,1331.14507 1555.5401,1329.43034 L1586.51107,1356.53774 C1585.76309,1357.52243 1585.28505,1358.73066 1585.19788,1360.05774 C1585.13602,1360.99433 1585.28505,1361.89131 1585.58593,1362.71755 L1511.85343,1395.43034 C1511.3051,1394.36076 1510.50088,1393.45529 1509.51107,1392.78468 L1545.71229,1331.05735 C1546.71335,1331.58648 1547.8297,1331.92886 1549.02759,1332.00526 L1549.02759,1332.00526 Z M1659.89568,1148.43034 C1660.63083,1149.54682 1661.85136,1150.33091 1663.2876,1150.42466 C1664.55638,1150.50705 1665.72866,1150.03546 1666.5887,1149.22864 L1683.77825,1164.36784 L1716.51107,1193.19739 C1716.02853,1193.84227 1715.70211,1194.60364 1715.53465,1195.43034 L1603.1412,1181.98432 C1603.21216,1180.81102 1602.96238,1179.70307 1602.51107,1178.70307 L1625.2157,1166.72296 L1659.89568,1148.43034 Z M1800.51107,1299.88968 C1799.99212,1300.77221 1799.64048,1301.77072 1799.56674,1302.86257 C1799.54406,1303.24444 1799.56958,1303.61782 1799.60928,1303.98837 L1742.45927,1313.43034 C1741.81554,1310.67526 1739.46182,1308.53398 1736.48422,1308.34163 C1735.6902,1308.28789 1734.92453,1308.40104 1734.20423,1308.61601 L1710.51107,1243.79508 C1711.72479,1243.27461 1712.79106,1242.47411 1713.58508,1241.43034 L1764.04543,1275.36827 L1800.51107,1299.88968 Z M1810.24785,1366.43034 L1786.51107,1320.71633 C1788.26399,1319.60864 1789.49103,1317.68942 1789.63572,1315.42849 C1789.70528,1314.30942 1789.4799,1313.25299 1789.06811,1312.29338 L1800.13377,1306.43034 C1801.2217,1308.28408 1803.14156,1309.58254 1805.40923,1309.73061 C1805.63739,1309.7477 1805.85442,1309.71638 1806.07979,1309.70783 L1811.51107,1366.02884 C1811.06866,1366.10857 1810.64852,1366.2481 1810.24785,1366.43034 L1810.24785,1366.43034 Z M1712.51107,1405.08888 L1789.26583,1390.79952 L1791.24123,1390.43034 C1792.09026,1394.06493 1795.15807,1396.88387 1799.03246,1397.13858 C1801.60784,1397.30743 1803.96813,1396.29147 1805.66335,1394.5772 L1816.51107,1404.52222 C1815.40733,1405.87303 1814.68849,1407.55581 1814.5385,1409.43034 L1712.55069,1406.18784 C1712.54503,1405.82152 1712.55918,1405.44661 1712.51107,1405.08888 L1712.51107,1405.08888 Z M1752.93651,1504.43034 L1670.51107,1435.80166 C1671.22197,1434.82636 1671.68647,1433.64975 1671.77144,1432.35407 C1671.86207,1430.99317 1671.52786,1429.69749 1670.88776,1428.60027 L1678.58311,1423.4147 L1696.37558,1411.43034 C1697.90502,1413.49153 1700.26433,1414.91763 1703.02864,1415.09625 C1704.65438,1415.20398 1706.19232,1414.83541 1707.56032,1414.16914 L1755.51107,1502.26142 C1754.53959,1502.8398 1753.6899,1503.59113 1752.93651,1504.43034 L1752.93651,1504.43034 Z M1589.19399,1483.28932 C1589.31867,1482.80533 1589.40935,1482.31001 1589.44336,1481.79488 C1589.54537,1480.24949 1589.18266,1478.79467 1588.51107,1477.51534 L1659.81562,1435.43034 C1660.86409,1436.96441 1662.53881,1438.03713 1664.51107,1438.2579 L1661.69436,1497.76391 C1657.99638,1497.76957 1654.80562,1500.08483 1653.5758,1503.43034 L1598.0975,1486.07159 L1589.19399,1483.28932 Z M1481.51107,1479.24693 L1489.05536,1453.53224 L1503.3446,1404.8484 C1503.71461,1404.93048 1504.08745,1405.01257 1504.47723,1405.03521 C1506.34707,1405.15975 1508.08414,1404.53139 1509.43144,1403.43034 L1575.51107,1475.52488 C1574.20049,1476.86086 1573.31642,1478.63555 1573.18649,1480.6565 C1573.17802,1480.76971 1573.20061,1480.87727 1573.19779,1480.98766 L1484.73667,1483.43034 C1484.52483,1481.52545 1483.26227,1479.92624 1481.51107,1479.24693 L1481.51107,1479.24693 Z M1724.0487,1181.48928 C1723.77611,1182.06303 1723.60006,1182.69075 1723.55462,1183.35824 C1723.4382,1185.12494 1724.22476,1186.7411 1725.51107,1187.76647 L1722.96116,1191.58108 C1722.26831,1191.18911 1721.48744,1190.92779 1720.63841,1190.87383 C1719.02271,1190.76873 1717.54047,1191.38509 1716.46429,1192.43034 L1666.51107,1148.46159 C1666.51959,1148.45023 1666.52243,1148.43886 1666.53094,1148.43034 L1696.5733,1165.69973 L1724.0487,1181.48928 Z M1800.52432,1379.60754 C1798.31965,1379.46318 1796.27164,1380.17929 1794.65374,1381.43034 L1762.03084,1343.75149 L1740.51107,1318.89454 C1740.66488,1318.75018 1740.81015,1318.59451 1740.94972,1318.43034 L1808.4714,1367.86403 C1807.98717,1368.63391 1807.6596,1369.51135 1807.59693,1370.48219 C1807.48015,1372.29084 1808.24352,1373.93533 1809.51107,1375.05335 L1804.85391,1381.13032 C1803.6063,1380.27835 1802.14507,1379.71226 1800.52432,1379.60754 L1800.52432,1379.60754 Z M1585.4362,1362.99235 C1586.45119,1364.95795 1588.40787,1366.36724 1590.75362,1366.52415 C1593.61533,1366.70958 1596.13871,1364.98077 1597.16498,1362.43034 L1612.51107,1367.59681 C1612.30807,1368.32143 1612.16146,1369.06887 1612.11071,1369.8534 C1612.0515,1370.78057 1612.15018,1371.6735 1612.31653,1372.54932 L1517.8463,1394.95828 L1511.64922,1396.43034 C1511.60411,1396.27629 1511.56464,1396.12224 1511.51107,1395.97389 L1518.78798,1392.72452 L1585.4362,1362.99235 Z M1555.51107,1328.44939 C1556.52238,1327.18217 1557.1711,1325.61284 1557.28724,1323.88126 C1557.29857,1323.70782 1557.26741,1323.54277 1557.27025,1323.37213 L1729.34393,1315.43034 C1729.37793,1315.71847 1729.44025,1315.98702 1729.51107,1316.26117 L1597.38574,1357.43034 C1596.4934,1355.17005 1594.35746,1353.49721 1591.74561,1353.32937 C1589.7853,1353.20349 1587.98929,1353.96438 1586.70603,1355.24278 L1569.59016,1340.5425 L1555.51107,1328.44939 Z M1595.77647,1187.93509 C1598.51282,1188.11033 1600.96425,1186.66321 1602.24498,1184.43034 L1700.37566,1233.11522 C1700.04843,1233.884 1699.81429,1234.70931 1699.75787,1235.59115 C1699.66759,1236.93652 1699.96662,1238.21123 1700.51107,1239.34462 L1682.93353,1249.00528 L1556.60431,1318.43034 C1555.6621,1316.8956 1554.22622,1315.71134 1552.51107,1315.04431 L1594.45343,1187.70898 C1594.8794,1187.82203 1595.31947,1187.904 1595.77647,1187.93509 L1595.77647,1187.93509 Z M1788.33801,1311.46235 C1787.25104,1309.647 1785.3355,1308.37257 1783.0801,1308.22247 C1779.43159,1307.98458 1776.28302,1310.75999 1776.02462,1314.43034 L1742.5223,1314.16696 C1742.51669,1314.0735 1742.51949,1313.97721 1742.51107,1313.88376 L1799.11785,1304.43034 C1799.21054,1304.84666 1799.34255,1305.24881 1799.51107,1305.6368 L1797.41858,1306.72431 L1788.33801,1311.46235 Z M1665.49498,1425.85094 C1664.12384,1425.76003 1662.82575,1426.10944 1661.72997,1426.77134 L1629.51107,1379.21707 C1630.83444,1378.22281 1631.93865,1376.95015 1632.67761,1375.43034 L1694.84236,1403.24419 C1694.51924,1404.0879 1694.2748,1404.97421 1694.21298,1405.92587 C1694.08936,1407.86042 1694.58386,1409.68703 1695.51107,1411.22956 L1670.22933,1428.43034 C1669.12231,1426.97872 1667.44772,1425.97877 1665.49498,1425.85094 L1665.49498,1425.85094 Z M1613.47124,1373.43034 C1614.33164,1376.52863 1616.55342,1379.05768 1619.51107,1380.31228 L1584.3391,1473.95483 C1583.72492,1473.75942 1583.08811,1473.61215 1582.41733,1473.56684 C1580.26348,1473.42807 1578.2653,1474.15308 1576.72279,1475.43034 L1510.51107,1403.30023 C1511.64601,1402.12492 1512.41019,1400.57861 1512.5234,1398.81989 C1512.56303,1398.24498 1512.51208,1397.68423 1512.41868,1397.14047 L1590.67894,1378.78013 L1613.47124,1373.43034 Z M1584.51107,1474.47468 L1609.08511,1409.22566 L1619.90122,1380.50177 C1620.74134,1380.78028 1621.61278,1380.99059 1622.53548,1381.05311 C1624.85077,1381.2009 1627.02938,1380.5785 1628.85769,1379.43034 L1661.51107,1426.99941 C1660.08145,1428.12199 1659.09894,1429.80444 1658.97079,1431.75688 C1658.8939,1432.98746 1659.17584,1434.14699 1659.69984,1435.1701 L1588.03955,1477.43034 C1587.17665,1476.13724 1585.96347,1475.1056 1584.51107,1474.47468 L1584.51107,1474.47468 Z M1704.20671,1396.45783 C1700.44326,1396.21258 1697.07148,1398.28165 1695.48493,1401.43034 L1632.68987,1373.83062 C1633.08722,1372.83838 1633.37956,1371.78975 1633.45335,1370.66783 C1633.56971,1368.89757 1633.19507,1367.22034 1632.51107,1365.70659 L1679.49171,1342.53535 L1730.38054,1317.43034 C1731.08725,1318.64528 1732.19131,1319.59525 1733.51107,1320.15621 L1706.23034,1396.8412 C1705.58323,1396.64669 1704.91058,1396.50575 1704.20671,1396.45783 L1704.20671,1396.45783 Z M1597.5139,1358.10267 L1729.43753,1316.43034 C1729.46016,1316.48697 1729.48844,1316.53511 1729.51107,1316.59174 L1631.97623,1365.08534 C1630.29893,1362.03007 1627.16779,1359.85542 1623.43136,1359.60907 C1618.69081,1359.30043 1614.52161,1362.19997 1612.92351,1366.43034 L1597.51107,1361.29952 C1597.61289,1360.9031 1597.68926,1360.49536 1597.71472,1360.07062 C1597.75998,1359.38821 1597.66946,1358.73411 1597.5139,1358.10267 L1597.5139,1358.10267 Z M1808.26093,1367.43034 L1742.2375,1319.00708 L1741.51107,1318.47449 C1742.08545,1317.58591 1742.47401,1316.55999 1742.55285,1315.43034 L1776.14036,1315.69383 C1776.32056,1318.99586 1778.92501,1321.72046 1782.32064,1321.94191 C1783.45252,1322.01759 1784.52245,1321.77652 1785.48821,1321.33924 L1809.51107,1366.34835 C1809.04086,1366.64548 1808.62415,1367.01268 1808.26093,1367.43034 L1808.26093,1367.43034 Z M1701.17663,1240.43034 C1702.43008,1242.43366 1704.58533,1243.83711 1707.12909,1244.00122 C1708.06776,1244.06347 1708.96956,1243.92765 1709.82316,1243.67016 L1733.51107,1308.50902 C1731.33313,1309.46823 1729.73087,1311.54794 1729.56639,1314.08604 C1729.56072,1314.19356 1729.57773,1314.29259 1729.57773,1314.39729 L1557.31645,1322.43034 C1557.22003,1321.42869 1556.93645,1320.48079 1556.51107,1319.60646 L1640.89482,1273.42275 L1701.17663,1240.43034 Z M1718.51107,1201.01828 L1709.54921,1228.83395 C1709.09035,1228.71557 1708.62017,1228.63102 1708.13015,1228.5972 C1705.12493,1228.40272 1702.4341,1229.98953 1701.04054,1232.43034 L1602.51107,1183.88468 C1602.70651,1183.42527 1602.84813,1182.93767 1602.93877,1182.43034 L1715.11213,1195.76743 C1715.01583,1198.11524 1716.43205,1200.16991 1718.51107,1201.01828 L1718.51107,1201.01828 Z M1793.51107,1381.66206 C1791.98958,1383.093 1790.96769,1385.06194 1790.82008,1387.30412 C1790.78318,1387.88439 1790.80589,1388.45056 1790.87969,1389.00266 L1711.91007,1403.43034 C1711.243,1400.58537 1709.23044,1398.25023 1706.51107,1397.1545 L1733.79561,1320.52326 C1734.23559,1320.6472 1734.68977,1320.73171 1735.16381,1320.75988 C1736.81304,1320.86973 1738.3402,1320.34581 1739.55795,1319.43034 L1754.56559,1336.7368 L1793.51107,1381.66206 Z M1688.51107,1501.64117 C1686.90912,1502.34202 1685.73359,1503.86054 1685.61257,1505.70955 C1685.60969,1505.73804 1685.61546,1505.76937 1685.61546,1505.79786 L1670.44879,1506.43034 C1670.07135,1502.30214 1666.78678,1498.94031 1662.51107,1498.53576 L1665.37499,1438.64687 C1665.93106,1438.63832 1666.46696,1438.56709 1666.9827,1438.43034 L1670.54387,1448.88618 L1688.51107,1501.64117 Z M1802.96032,1235.12414 L1715.36845,1235.43034 C1715.19244,1232.44978 1713.26198,1229.91307 1710.51107,1228.86805 L1719.49907,1201.12718 C1719.79716,1201.1946 1720.09524,1201.25359 1720.40752,1201.27606 C1722.6162,1201.41933 1724.59492,1200.23947 1725.5857,1198.43034 L1803.51107,1232.64081 C1803.22718,1233.37963 1803.00858,1234.15497 1802.95464,1234.9893 C1802.9518,1235.03705 1802.96032,1235.07919 1802.96032,1235.12414 L1802.96032,1235.12414 Z M1386.56452,1309.91786 C1388.0318,1310.01647 1389.37161,1309.42202 1390.30353,1308.43034 L1499.51107,1393.52042 C1498.79726,1394.5459 1498.32138,1395.75451 1498.23357,1397.09272 C1498.21374,1397.40262 1498.24773,1397.70688 1498.26756,1398.01115 L1358.07436,1415.43034 C1357.61265,1412.93424 1355.87344,1410.87481 1353.51107,1409.97047 L1385.83938,1309.79954 C1386.07448,1309.85307 1386.31525,1309.90378 1386.56452,1309.91786 L1386.56452,1309.91786 Z M1180.51107,1520.97843 L1204.10353,1487.1991 C1205.21347,1487.89649 1206.4852,1488.36616 1207.88185,1488.45725 C1211.45577,1488.69351 1214.60957,1486.56718 1215.91822,1483.43034 L1297.51107,1512.74637 C1297.22152,1513.65725 1297.00294,1514.60228 1296.93765,1515.6014 C1296.9121,1516.02838 1296.96604,1516.43827 1296.98307,1516.85386 L1183.04319,1525.43034 C1182.79906,1523.64275 1181.86513,1522.06579 1180.51107,1520.97843 L1180.51107,1520.97843 Z M1671.40013,1585.24591 C1670.90549,1585.21186 1670.43099,1585.26577 1669.95073,1585.29699 L1662.51107,1514.60644 C1666.51992,1514.00208 1669.71204,1510.7249 1669.98812,1506.57097 C1669.99674,1506.39505 1669.96799,1506.23048 1669.97086,1506.06024 L1685.10613,1505.43034 C1685.35058,1507.2945 1686.69645,1508.8352 1688.51107,1509.37714 L1672.51018,1585.43034 C1672.14208,1585.36792 1671.78261,1585.27145 1671.40013,1585.24591 L1671.40013,1585.24591 Z M1488.51107,1206.53939 C1489.95233,1205.63467 1490.96206,1204.09016 1491.08052,1202.26098 C1491.12283,1201.6071 1491.02975,1200.97577 1490.85488,1200.37825 L1529.7549,1185.72511 L1538.49838,1182.43034 C1539.75631,1185.31926 1542.51191,1187.43592 1545.87392,1187.65576 C1545.97546,1187.66421 1546.07418,1187.64448 1546.17853,1187.6473 L1546.99083,1231.9252 L1548.51107,1314.68909 C1547.47877,1314.75955 1546.50289,1315.01603 1545.60316,1315.43034 L1529.85644,1285.39972 L1488.51107,1206.53939 Z M1818.34863,1286.1776 C1818.24364,1287.76451 1818.76005,1289.23585 1819.66234,1290.40842 L1810.44652,1298.43034 C1809.41655,1297.39871 1808.05744,1296.7025 1806.51107,1296.50238 L1807.05585,1288.20986 L1809.91876,1244.6502 C1810.5969,1244.66147 1811.25233,1244.57973 1811.88791,1244.43034 L1822.51107,1280.66429 C1820.2213,1281.49862 1818.51603,1283.60416 1818.34863,1286.1776 L1818.34863,1286.1776 Z M1369.73864,1311.93016 C1369.77558,1311.361 1369.72727,1310.80873 1369.63351,1310.27056 L1381.85152,1307.43034 C1382.28057,1308.70957 1383.25517,1309.74083 1384.51107,1310.27056 L1352.09071,1410.43034 C1351.90318,1410.38244 1351.70428,1410.36835 1351.51107,1410.33454 L1362.22314,1318.52634 C1366.12438,1318.74048 1369.48291,1315.80446 1369.73864,1311.93016 L1369.73864,1311.93016 Z M1798.51107,1046.91197 L1783.10297,1062.83518 L1766.08388,1080.42168 C1765.47017,1079.942 1764.71156,1079.63261 1763.87623,1079.57868 C1761.70835,1079.43677 1759.84165,1081.04612 1759.62572,1083.18908 L1728.0026,1083.43034 C1727.94862,1082.72643 1727.77815,1082.05941 1727.51107,1081.43497 L1797.38309,1045.43034 C1797.69847,1045.96963 1798.08772,1046.45783 1798.51107,1046.91197 L1798.51107,1046.91197 Z M1237.82309,1361.74687 C1239.72483,1361.87162 1241.43413,1360.92176 1242.41047,1359.43034 L1343.51107,1414.26133 C1343.13185,1415.06942 1342.87999,1415.9484 1342.81773,1416.89259 C1342.74981,1417.9672 1342.92526,1418.99645 1343.27901,1419.94064 L1215.42389,1476.43034 C1214.43057,1474.46257 1212.68165,1472.93713 1210.51107,1472.28499 L1237.37029,1361.67031 C1237.52028,1361.69583 1237.66744,1361.73552 1237.82309,1361.74687 L1237.82309,1361.74687 Z M1118.0728,1401.58986 C1119.34385,1401.67429 1120.52431,1401.22118 1121.4047,1400.43034 L1202.51107,1474.31856 C1201.56274,1475.46119 1200.93712,1476.87119 1200.73613,1478.43034 L1090.25415,1470.06606 C1090.24566,1468.09038 1089.16145,1466.34829 1087.51107,1465.43644 L1116.88668,1401.33375 C1117.26318,1401.46603 1117.65384,1401.56453 1118.0728,1401.58986 L1118.0728,1401.58986 Z M1841.98088,1590.43034 C1841.06986,1588.59994 1839.25628,1587.27721 1837.0704,1587.13337 C1835.52759,1587.03466 1834.09196,1587.54514 1832.97786,1588.44483 L1769.51107,1520.02063 C1770.53209,1519.00249 1771.34439,1517.78975 1771.90849,1516.43034 L1895.42645,1562.27774 C1895.18953,1563.01667 1895.01184,1563.77816 1894.95825,1564.58478 C1894.87082,1565.94418 1895.07671,1567.24999 1895.51107,1568.4571 L1892.25904,1569.79112 L1841.98088,1590.43034 Z M1331.51107,1283.59756 C1331.78578,1283.23227 1332.035,1282.84415 1332.24174,1282.43034 L1357.25746,1293.35762 L1382.51107,1304.39049 C1382.38929,1304.7672 1382.293,1305.15817 1382.26468,1305.57198 C1382.24485,1305.90587 1382.25901,1306.23406 1382.30433,1306.55369 L1370.12357,1309.43034 C1369.29661,1306.64216 1366.84403,1304.52177 1363.79389,1304.322 C1361.61602,1304.17931 1359.6279,1305.06114 1358.22603,1306.53086 L1335.58359,1287.09063 L1331.51107,1283.59756 Z M2088.51107,965.438253 L2067.77872,1067.47813 L2065.05018,1080.90301 C2064.965,1080.89165 2064.88267,1080.86609 2064.79181,1080.85757 C2062.40398,1080.70137 2060.30576,1082.23499 2059.63002,1084.43034 L1966.9449,1064.14392 C1966.99033,1063.86844 1967.06415,1063.59863 1967.08402,1063.30895 C1967.21463,1061.28968 1966.59567,1059.41241 1965.51107,1057.88163 L2085.25443,963.430343 C2086.10905,964.381757 2087.22772,965.094608 2088.51107,965.438253 L2088.51107,965.438253 Z M1049.65848,1440.60834 L1115.15321,1400.43034 C1115.52173,1400.91278 1115.97813,1401.31905 1116.51107,1401.62657 L1087.09173,1465.89274 C1086.62399,1465.72064 1086.13641,1465.59086 1085.61765,1465.55983 C1083.86292,1465.44698 1082.2641,1466.19462 1081.2039,1467.43034 L1049.51107,1444.53557 C1049.8314,1443.98824 1050.04401,1443.3732 1050.08936,1442.70456 C1050.13755,1441.95409 1049.96747,1441.24313 1049.65848,1440.60834 L1049.65848,1440.60834 Z M1074.73862,1607.00379 C1074.50779,1606.97272 1074.28822,1606.90492 1074.04894,1606.88797 C1072.02212,1606.7552 1070.13324,1607.35972 1068.57935,1608.43034 L1031.51107,1559.3682 C1032.51885,1558.46989 1033.18882,1557.19023 1033.28453,1555.7326 C1033.30987,1555.31735 1033.2789,1554.91622 1033.21416,1554.52074 L1081.99858,1542.43034 C1082.66011,1544.52356 1084.34631,1546.18176 1086.51107,1546.75238 L1079.17229,1584.30887 L1074.73862,1607.00379 Z M1149.88142,1639.43034 C1149.27472,1638.49877 1148.46767,1637.72481 1147.51107,1637.14223 L1183.2751,1570.37873 C1183.94388,1570.67706 1184.66909,1570.88533 1185.4451,1570.93599 C1188.91314,1571.16114 1191.90994,1568.54092 1192.13569,1565.0792 C1192.1498,1564.85686 1192.11876,1564.64015 1192.11029,1564.42062 L1294.46134,1553.43034 C1294.63065,1554.55048 1295.00314,1555.59744 1295.51107,1556.57404 L1251.87692,1581.39716 L1149.88142,1639.43034 Z M2223.75933,1315.70924 C2220.34951,1315.48578 2217.28774,1317.364 2215.83043,1320.2266 L2120.91577,1277.98069 C2121.12234,1277.41213 2121.28363,1276.82094 2121.32608,1276.19015 C2121.55529,1272.65434 2118.87271,1269.60223 2115.33555,1269.37028 C2114.065,1269.28542 2112.86237,1269.59091 2111.82386,1270.16513 L2074.25359,1211.57245 C2076.79751,1209.79322 2078.56892,1206.95043 2078.78681,1203.61262 C2079.09525,1198.94535 2076.30797,1194.83249 2072.2077,1193.14944 L2120.41774,1060.78836 C2120.85352,1060.91565 2121.30627,1061.00617 2121.77884,1061.03446 C2125.28204,1061.26358 2128.30701,1058.6103 2128.53622,1055.1056 C2128.56452,1054.66999 2128.54754,1054.24286 2128.49378,1053.82705 L2174.59567,1044.34824 C2175.30027,1046.88837 2177.51878,1048.83731 2180.29757,1049.01552 C2183.81209,1049.24464 2186.84555,1046.58571 2187.07476,1043.07535 C2187.30397,1039.56499 2184.64403,1036.53268 2181.12951,1036.30073 C2179.28452,1036.18193 2177.58669,1036.86929 2176.34444,1038.04884 L2095.57274,963.431846 C2096.42449,962.385245 2096.97912,961.086894 2097.0725,959.644282 C2097.31303,955.947235 2094.51443,952.756517 2090.81598,952.516081 C2087.68347,952.312418 2084.93015,954.303789 2084.01331,957.166384 L1885.35807,907.053999 C1885.37505,906.940853 1885.40335,906.833364 1885.41183,906.717389 C1885.56464,904.403553 1883.81021,902.406525 1881.49832,902.256606 C1879.27133,902.109517 1877.35561,903.730334 1877.07546,905.914052 L1639.40396,899.524129 C1639.25398,897.360211 1637.54766,895.583818 1635.32349,895.439557 C1632.89842,895.283981 1630.80725,897.116947 1630.64879,899.541101 C1630.58653,900.519815 1630.85819,901.436298 1631.35622,902.205691 L1617.45377,913.21763 C1616.10117,911.684501 1614.1628,910.660529 1611.96128,910.516268 C1607.53841,910.227746 1603.71828,913.576869 1603.42965,917.99805 C1603.40419,918.402548 1603.44097,918.790073 1603.4721,919.180427 L1460.36154,938.683977 C1459.69373,935.162306 1456.74232,932.393056 1452.9986,932.146964 C1449.53501,931.9235 1446.46476,933.931843 1445.13479,936.924556 L1426.58877,929.833127 C1426.73025,929.372057 1426.83212,928.896844 1426.86608,928.399001 C1427.09246,924.936732 1424.4693,921.946848 1421.00572,921.720555 C1417.54213,921.494263 1414.55111,924.119252 1414.32473,927.581521 C1414.11816,930.769411 1416.33667,933.524517 1419.38994,934.124191 L1405.67992,1041.85337 C1405.63747,1041.85054 1405.59786,1041.83357 1405.55541,1041.83074 C1400.63735,1041.51111 1396.39276,1045.23361 1396.073,1050.15264 C1395.96264,1051.847 1396.3588,1053.45084 1397.09453,1054.85385 L1327.94452,1095.29791 C1327.03901,1093.99956 1325.59019,1093.09439 1323.88669,1092.98407 C1320.91831,1092.79172 1318.35175,1095.0405 1318.1565,1098.01341 C1318.00369,1100.37817 1319.40724,1102.46288 1321.48143,1103.32279 L1302.54773,1161.59018 C1302.07234,1161.46289 1301.5828,1161.3752 1301.07344,1161.34126 C1296.82603,1161.06688 1293.16153,1164.28305 1292.88422,1168.52603 C1292.60691,1172.77184 1295.8243,1176.43777 1300.07172,1176.71781 C1300.71407,1176.75741 1301.33378,1176.69518 1301.94217,1176.58769 L1320.46273,1254.26245 C1317.35852,1255.17893 1314.9957,1257.92555 1314.77498,1261.34256 C1314.63066,1263.50365 1315.37771,1265.51765 1316.68504,1267.03947 L1265.73866,1315.79127 C1264.2955,1314.41938 1262.40807,1313.49724 1260.2688,1313.35863 C1255.4045,1313.04182 1251.20519,1316.72473 1250.89109,1321.58718 C1250.82883,1322.5376 1250.959,1323.4456 1251.18255,1324.31965 L1165.67672,1350.45922 C1164.92401,1348.54422 1163.13563,1347.12707 1160.94542,1346.98564 C1157.9261,1346.79046 1155.31993,1349.07601 1155.12184,1352.09418 C1155.10487,1352.32613 1155.13316,1352.54677 1155.14448,1352.77306 L1106.23267,1359.46565 C1105.70351,1356.96229 1103.58688,1355.00203 1100.90713,1354.82949 C1097.67558,1354.61451 1094.8883,1357.06412 1094.67607,1360.29161 C1094.61382,1361.23072 1094.80058,1362.12175 1095.14298,1362.93357 L1007.49788,1407.4028 C1006.28109,1405.31242 1004.0824,1403.84435 1001.48754,1403.67464 C997.34482,1403.40309 993.768046,1406.54289 993.499222,1410.68403 C993.439798,1411.60052 993.569966,1412.48023 993.818981,1413.31468 C993.637879,1413.58057 993.499222,1413.87758 993.476585,1414.22268 C993.408671,1415.24099 994.181186,1416.1207 995.202717,1416.18576 C995.267801,1416.19142 995.324396,1416.16313 995.38665,1416.1603 C996.654367,1417.58594 998.456902,1418.53354 1000.50845,1418.66649 C1003.0835,1418.83621 1005.44067,1417.68212 1006.91778,1415.79258 L1041.85924,1440.03129 C1041.56495,1440.55742 1041.37252,1441.14861 1041.33008,1441.79354 C1041.19708,1443.84148 1042.55818,1445.64051 1044.48239,1446.13552 L1028.70101,1549.59627 C1028.68969,1549.59627 1028.67554,1549.59061 1028.6614,1549.59061 C1025.71565,1549.39826 1023.17173,1551.63007 1022.97931,1554.57469 C1022.84065,1556.70467 1023.9782,1558.61118 1025.72697,1559.5814 L975.960582,1668.64005 C975.318234,1668.39396 974.644759,1668.2101 973.926009,1668.16201 C970.0889,1667.91026 966.775291,1670.81811 966.526275,1674.65377 C966.27443,1678.48942 969.180558,1681.79894 973.017667,1682.05069 C976.854775,1682.29961 980.168384,1679.39458 980.420229,1675.55893 C980.505121,1674.24927 980.199511,1673.01315 979.636395,1671.92695 L1066.78346,1620.05514 C1068.2436,1622.25583 1070.64887,1623.79179 1073.48708,1623.97565 C1077.19968,1624.21609 1080.50197,1622.10308 1081.98475,1618.92368 L1135.90801,1640.91927 C1135.69578,1641.53309 1135.53448,1642.16953 1135.48921,1642.84841 C1135.22038,1646.96127 1138.34157,1650.51688 1142.45599,1650.78561 C1145.66773,1650.99493 1148.51726,1649.12802 1149.7482,1646.34462 L1343.03262,1719.08622 C1343.00715,1719.20785 1342.9449,1719.31534 1342.93641,1719.44263 C1342.8402,1720.93333 1343.97209,1722.22036 1345.46335,1722.3222 C1346.95745,1722.41837 1348.24497,1721.28691 1348.34402,1719.79338 C1348.38363,1719.20785 1348.18838,1718.68172 1347.90258,1718.21782 L1404.03868,1669.64988 C1405.45637,1671.13492 1407.39473,1672.12778 1409.60192,1672.27204 C1411.66762,1672.40782 1413.58617,1671.76288 1415.13686,1670.63142 L1426.52085,1684.71245 C1424.39573,1686.56804 1422.97803,1689.23546 1422.77995,1692.27909 C1422.38379,1698.34089 1426.9821,1703.57672 1433.0462,1703.96991 C1437.89635,1704.28954 1442.1749,1701.38735 1443.91235,1697.11891 L1668.07191,1778.32949 C1667.90213,1778.89239 1667.77479,1779.47509 1667.738,1780.08608 C1667.45503,1784.4026 1670.72619,1788.13077 1675.04718,1788.41363 C1679.36535,1788.69367 1683.0921,1785.42092 1683.37507,1781.1044 C1683.45147,1779.95879 1683.25905,1778.85845 1682.87987,1777.84579 L1731.21158,1756.68182 C1731.83129,1757.75388 1732.95469,1758.5063 1734.28184,1758.59399 C1736.39564,1758.73259 1738.22364,1757.12875 1738.3623,1755.01575 C1738.45002,1753.65234 1737.80484,1752.41339 1736.77199,1751.66662 L1785.00467,1666.47896 C1785.95263,1666.95418 1787.00812,1667.25401 1788.13152,1667.32756 C1790.85937,1667.50576 1793.3467,1666.31207 1794.96814,1664.35465 L1827.59771,1688.57922 C1827.35718,1689.00351 1827.18174,1689.47024 1827.15061,1689.99354 C1827.02893,1691.84348 1828.43247,1693.4445 1830.28312,1693.5633 C1831.31314,1693.63119 1832.2328,1693.1984 1832.89778,1692.50538 L1891.82682,1736.07227 C1891.20994,1737.0227 1890.7968,1738.12021 1890.71474,1739.32522 C1890.47138,1743.09015 1893.32375,1746.3431 1897.09011,1746.58919 C1900.32449,1746.80134 1903.16553,1744.72228 1904.06539,1741.74937 L2002.04748,1764.93017 C2002.01635,1765.1112 2001.97107,1765.28375 2001.95692,1765.47044 C2001.75035,1768.65267 2004.16411,1771.40778 2007.35321,1771.61427 C2010.54231,1771.82359 2013.29564,1769.40792 2013.50504,1766.22003 C2013.67482,1763.60353 2012.06187,1761.30384 2009.71886,1760.4411 L2064.59574,1569.22711 C2064.97209,1569.31197 2065.35693,1569.394 2065.76158,1569.42228 C2069.89864,1569.691 2073.46693,1566.55686 2073.73858,1562.42137 C2073.8263,1561.07493 2073.52352,1559.80204 2072.97172,1558.66492 L2120.99783,1531.87194 C2121.85524,1533.14766 2123.25595,1534.03586 2124.90568,1534.14334 C2127.73258,1534.33004 2130.17463,1532.18592 2130.36139,1529.3601 C2130.54533,1526.53144 2128.40322,1524.09315 2125.57633,1523.90646 C2123.63231,1523.77917 2121.89202,1524.76637 2120.9186,1526.30232 L2095.04359,1512.83794 C2095.51049,1511.8366 2095.82176,1510.74474 2095.89816,1509.57651 C2096.22641,1504.50474 2092.38647,1500.12599 2087.31277,1499.79786 C2087.03829,1499.77806 2086.78079,1499.81766 2086.50913,1499.82332 L2080.53275,1412.62732 C2083.96804,1412.19736 2086.72985,1409.38851 2086.96472,1405.80178 C2087.05244,1404.46383 2086.74683,1403.19942 2086.1922,1402.07645 L2216.24357,1328.41271 C2217.61599,1330.56532 2219.9392,1332.07016 2222.6812,1332.24836 C2227.24838,1332.54537 2231.19585,1329.08593 2231.49297,1324.51766 C2231.79292,1319.95222 2228.32933,1316.00625 2223.75933,1315.70924 L2223.75933,1315.70924 Z" id="Fill-1" transform="translate(1599.011068, 1341.930343) rotate(-150.000000) translate(-1599.011068, -1341.930343) "></path>
            </g>
        </g>
    </g>
</svg>