<?xml version="1.0" encoding="UTF-8"?>
<svg width="90px" height="50px" viewBox="0 0 90 50" version="1.1" xmlns="http://www.w3.org/2000/svg" xmlns:xlink="http://www.w3.org/1999/xlink">
    <!-- Generator: Sketch 61.2 (89653) - https://sketch.com -->
    <title>Group 18</title>
    <desc>Created with Sketch.</desc>
    <defs>
        <polygon id="path-1" points="0 0.125733333 16.914596 0.125733333 16.914596 15.8599 0 15.8599"></polygon>
    </defs>
    <g id="Symbols" stroke="none" stroke-width="1" fill="none" fill-rule="evenodd">
        <g id="FOOTER" transform="translate(-1189.000000, -185.000000)">
            <g id="Group-18">
                <g transform="translate(1189.000000, 184.475507)">
                    <path d="M55.8877097,15.2589709 C55.2050599,16.0601961 54.2675961,16.5654834 53.0748216,16.7753128 C52.7329172,16.8351726 52.3608789,16.8798274 51.9590377,16.9100774 C51.5555408,16.9400073 51.1291952,16.9553724 50.6803318,16.9553724 L50.6803318,15.7420108 C51.1760518,15.637016 51.5126579,15.4639987 51.6911436,15.2234391 C51.868967,14.9827194 51.9590377,14.5771452 51.9590377,14.0054359 L51.9590377,10.4661843 C51.9590377,9.95465495 51.8616819,9.57564949 51.6681292,9.32756736 C51.4735831,9.07932519 51.1447588,8.92535422 50.6803318,8.8651743 L50.6803318,7.67373989 L50.865937,7.67373989 C50.9584913,7.68894492 51.0523702,7.69614731 51.1447588,7.69614731 C51.2383065,7.69614731 51.323079,7.7039899 51.4000695,7.71903488 C51.7414772,7.71903488 52.0746064,7.73744098 52.4001192,7.77505343 C52.7254665,7.81234577 53.0120701,7.85331934 53.2602613,7.89861433 C54.3916089,8.09387897 55.2832094,8.58428131 55.9340696,9.37030151 C56.5847641,10.157282 56.9099459,11.1270431 56.9099459,12.2813452 C56.9099459,13.4644568 56.569366,14.4577456 55.8877097,15.2589709 L55.8877097,15.2589709 Z M50.8245443,22.5165734 C50.6849678,22.6142057 50.4756859,22.6627018 50.1966985,22.6627018 L49.8943656,22.6627018 L44.802722,22.6627018 L44.4080004,22.6627018 C44.0665927,22.6627018 43.8144279,22.6142057 43.6528304,22.5165734 C43.4895773,22.4199014 43.4081163,22.2667307 43.4081163,22.0559409 C43.4081163,21.9070916 43.4548074,21.7835307 43.5476928,21.6854182 C43.6405782,21.5884261 43.7723728,21.524565 43.9430766,21.4947951 C44.0045035,21.4795901 44.0593076,21.4687065 44.1058331,21.461184 C44.1516963,21.4535015 44.1906055,21.4418176 44.222064,21.4270927 C44.4853221,21.352348 44.647913,21.2623982 44.7098366,21.1567632 C44.7715946,21.0525687 44.802722,20.8651467 44.802722,20.5957775 L44.802722,7.67373989 L49.8943656,7.67373989 C49.8943656,7.67373989 49.8706889,9.4717751 49.8706889,9.69600933 L49.8706889,20.6633199 C49.8706889,20.902439 49.890723,21.0674537 49.9294667,21.1567632 C49.9680448,21.2476733 50.072189,21.3304207 50.2425617,21.4050054 C50.2897495,21.4194102 50.3437257,21.4381364 50.406146,21.461184 C50.4674073,21.4832713 50.5296621,21.5019975 50.5915857,21.5164023 C50.7463947,21.5621774 50.8593142,21.6338812 50.9286885,21.7303931 C50.9985595,21.8283456 51.0336606,21.9435837 51.0336606,22.0783483 C51.0336606,22.2734529 50.9641207,22.4199014 50.8245443,22.5165734 L50.8245443,22.5165734 Z M40.6650993,22.6627018 L36.2476613,10.033401 C36.2317665,9.98826608 36.2127258,9.93928987 36.1893803,9.88727265 C36.1668626,9.83461521 36.1471596,9.77827656 36.1319271,9.7185768 C36.0231468,9.47913754 35.9074126,9.30692053 35.7829031,9.20176572 C35.6588903,9.09693102 35.4881865,9.02170611 35.2711227,8.97673123 C35.0232627,8.93207644 34.8371608,8.85365048 34.7139759,8.74049302 C34.5893008,8.62861599 34.5275428,8.48232756 34.5275428,8.30306822 C34.5275428,8.10844379 34.6005596,7.95847415 34.7484147,7.85331934 C34.8952763,7.74912485 35.0934649,7.69614731 35.3408282,7.69614731 L40.6650993,7.67373989 L42.8966671,13.8312983 L43.8733712,10.5053973 L43.8733712,14.1458024 L41.2457572,22.6627018 L40.6650993,22.6627018 Z M38.9564051,22.539621 C38.8092124,22.6217282 38.5957912,22.6627018 38.3169694,22.6627018 L35.4807358,22.6627018 C35.2020796,22.6627018 34.9893207,22.6217282 34.8414656,22.539621 C34.6936106,22.4573538 34.6207593,22.3182677 34.6207593,22.1238034 C34.6207593,22.0495388 34.6320181,21.9858377 34.6553637,21.9336604 C34.6787092,21.8806829 34.721261,21.8312265 34.7833502,21.7860916 C34.7985827,21.7712066 34.8255708,21.7529606 34.86448,21.7303931 C34.902727,21.7078257 34.9464377,21.6818971 34.9931288,21.6521272 C35.4259318,21.4270927 35.7444906,21.1271534 35.9456596,20.7531096 C36.1471596,20.3782655 36.2476613,19.9214743 36.2476613,19.3820958 L36.2476613,12.7302938 L37.4331507,16.0561948 L37.4331507,19.3595283 C37.4331507,19.8694571 37.5033528,20.273911 37.6429293,20.5733701 C37.7821746,20.8726692 38.0065235,21.1204312 38.3169694,21.3150556 L38.7350365,21.5388097 C38.8905078,21.6441246 39.0025995,21.7415968 39.0726361,21.8312265 C39.1420104,21.9214964 39.1767803,22.0266512 39.1767803,22.1466909 C39.1767803,22.3261103 39.1034323,22.4573538 38.9564051,22.539621 L38.9564051,22.539621 Z M50.645893,0.524493243 L39.354107,0.524493243 C34.1879564,0.524493243 30,4.57303345 30,9.56700663 L30,20.4816598 C30,25.475953 34.1879564,29.5244932 39.354107,29.5244932 L50.645893,29.5244932 C55.8120436,29.5244932 60,25.475953 60,20.4816598 L60,9.56700663 C60,4.57303345 55.8120436,0.524493243 50.645893,0.524493243 L50.645893,0.524493243 Z" id="Fill-1" fill="#FEFEFE"></path>
                    <g id="Group-5" transform="translate(0.000000, 34.524493)">
                        <mask id="mask-2" fill="white">
                            <use xlink:href="#path-1"></use>
                        </mask>
                        <g id="Clip-4"></g>
                        <path d="M15.7473188,0.125733333 L16.0570218,0.125733333 C16.3428238,0.1574 16.5572594,0.220066667 16.7001604,0.3144 C16.8430614,0.408566667 16.914596,0.566066667 16.914596,0.786066667 C16.914596,0.927733333 16.8789129,1.04956667 16.8073782,1.1519 C16.7358436,1.25423333 16.6203782,1.32873333 16.4619921,1.37573333 C16.3982,1.39173333 16.3345762,1.41123333 16.2712891,1.43473333 C16.2076653,1.4584 16.1522891,1.4784 16.1046554,1.49373333 C15.9296059,1.5729 15.8223881,1.65906667 15.783002,1.7534 C15.7432792,1.84773333 15.7234178,2.01273333 15.7234178,2.24856667 L15.7234178,13.7605667 C15.7234178,14.0122333 15.7432792,14.1852333 15.783002,14.2794 C15.8223881,14.3737333 15.9296059,14.4604 16.1046554,14.5390667 C16.1522891,14.5549 16.2076653,14.5742333 16.2712891,14.5979 C16.3345762,14.6215667 16.3982,14.6415667 16.4619921,14.6570667 C16.6203782,14.7042333 16.7358436,14.7790667 16.8073782,14.8810667 C16.8789129,14.9834 16.914596,15.1050667 16.914596,15.2467333 C16.914596,15.4514 16.8430614,15.6047333 16.7001604,15.7067333 C16.5572594,15.8090667 16.3428238,15.8599 16.0570218,15.8599 L15.7473188,15.8599 L10.5298337,15.8599 L10.1250317,15.8599 C9.77543762,15.8599 9.51740792,15.8090667 9.35060594,15.7067333 C9.18397228,15.6047333 9.10048713,15.4435667 9.10048713,15.2230667 C9.10048713,15.0660667 9.14812079,14.9362333 9.24338812,14.8339 C9.33882376,14.7319 9.47364554,14.6650667 9.64852673,14.6334 C9.71181386,14.6179 9.76752673,14.6062333 9.8151604,14.5979 C9.86279406,14.5902333 9.90234851,14.5785667 9.93432871,14.5625667 C10.2041406,14.4839 10.3711109,14.3895667 10.4345663,14.2794 C10.4980218,14.1695667 10.5298337,13.9729 10.5298337,13.6897333 L10.5298337,0.125733333 L15.7473188,0.125733333 Z M2.97796238,8.92456667 L2.97796238,12.3924 C2.97796238,12.9270667 3.04949703,13.3515667 3.19239802,13.6660667 C3.33529901,13.9810667 3.56538812,14.2404 3.88333861,14.4445667 L4.31204158,14.6805667 C4.47059604,14.7907333 4.58589307,14.8930667 4.65742772,14.9870667 C4.72896238,15.0814 4.76464554,15.1917333 4.76464554,15.3172333 C4.76464554,15.5062333 4.6892396,15.6439 4.53825941,15.7304 C4.38727921,15.8167333 4.16914059,15.8599 3.88333861,15.8599 L0.976675248,15.8599 C0.690873267,15.8599 0.472229703,15.8167333 0.321754455,15.7304 C0.170437624,15.6439 0.0953683168,15.4984 0.0953683168,15.2939 C0.0953683168,15.2152333 0.107150495,15.1487333 0.131051485,15.0934 C0.154784158,15.0384 0.198378218,14.9870667 0.26200198,14.9402333 C0.277823762,14.9244 0.30559604,14.9047333 0.345487129,14.8810667 C0.384873267,14.8575667 0.428635644,14.8302333 0.476269307,14.7985667 C0.920962376,14.5625667 1.24665545,14.2480667 1.4531802,13.8549 C1.65953663,13.4619 1.76288317,12.9820667 1.76288317,12.4159 L1.76288317,5.4334 L2.97796238,8.92456667 Z M8.57634851,6.58906667 L9.57699208,3.0979 L9.57699208,6.91956667 L6.88510099,15.8599 L6.28942772,15.8599 L1.76288317,2.60256667 C1.74689307,2.5554 1.7272,2.5044 1.70329901,2.44923333 C1.67956634,2.3944 1.65953663,2.3354 1.64388317,2.27223333 C1.53262574,2.0209 1.41345743,1.84006667 1.28637822,1.7299 C1.15913069,1.62006667 0.984586139,1.5409 0.762407921,1.49373333 C0.508081188,1.44656667 0.317546535,1.36406667 0.190635644,1.24606667 C0.063219802,1.1284 -6.73267327e-05,0.975066667 -6.73267327e-05,0.786066667 C-6.73267327e-05,0.5819 0.0753386139,0.4244 0.226318812,0.3144 C0.377130693,0.204733333 0.579615842,0.1494 0.833774257,0.1494 L6.28942772,0.125733333 L8.57634851,6.58906667 Z" id="Fill-3" fill="#FEFEFE" mask="url(#mask-2)"></path>
                    </g>
                    <path d="M19.2578538,49.5244932 L18.9308154,49.5244932 C18.6121306,49.5244932 18.3775161,49.475946 18.2264386,49.3786927 C18.0755388,49.2815982 18,49.135639 18,48.9406566 C18,48.8059617 18.0417685,48.6901463 18.1258387,48.5927344 C18.2097312,48.4956399 18.3353921,48.4242468 18.5031771,48.3793485 C18.5700067,48.3645939 18.632926,48.3455558 18.6917574,48.323186 C18.7505888,48.3006575 18.8049767,48.2822539 18.8552766,48.2670234 C19.0397689,48.1922987 19.1529882,48.1098 19.1949345,48.0200034 C19.236703,47.9303655 19.2578538,47.7731421 19.2578538,47.5484919 L19.2578538,36.5452343 C19.2578538,36.3358146 19.236703,36.1862065 19.1949345,36.0962512 C19.1529882,36.0066132 19.0397689,35.9244319 18.8552766,35.8492312 C18.8049767,35.8346353 18.7505888,35.8155971 18.6917574,35.7930687 C18.632926,35.7706988 18.5700067,35.751978 18.5031771,35.7369061 C18.3353921,35.6904213 18.2097312,35.6163312 18.1258387,35.5152703 C18.0417685,35.4143681 18,35.2934759 18,35.1530695 C18,34.9436499 18.079449,34.7903927 18.2392357,34.6929809 C18.3983115,34.5957277 18.6290158,34.5470217 18.9308154,34.5470217 L19.2578538,34.5244932 L24.7419685,34.5244932 L25.0691846,34.5244932 C25.3875139,34.5547956 25.6226616,34.6144485 25.7735614,34.7040865 C25.9244612,34.7937244 26,34.9436499 26,35.1530695 C26,35.2934759 25.957876,35.4143681 25.874339,35.5152703 C25.7900911,35.6163312 25.6642524,35.6904213 25.4970007,35.7369061 C25.4296379,35.751978 25.3665408,35.7706988 25.3080649,35.7930687 C25.2492335,35.8155971 25.1948456,35.8346353 25.1445457,35.8492312 C24.9598756,35.9244319 24.8466563,36.0066132 24.8050655,36.0962512 C24.7629416,36.1862065 24.7419685,36.3432712 24.7419685,36.5677627 L24.7419685,47.5259634 C24.7419685,47.7656855 24.7629416,47.9303655 24.8050655,48.0200034 C24.8466563,48.1098 24.9598756,48.1922987 25.1445457,48.2670234 C25.1948456,48.2822539 25.2492335,48.3006575 25.3080649,48.323186 C25.3665408,48.3455558 25.4296379,48.3645939 25.4970007,48.3793485 C25.6642524,48.4242468 25.7900911,48.4956399 25.874339,48.5927344 C25.957876,48.6901463 26,48.8059617 26,48.9406566 C26,49.135639 25.9201955,49.2815982 25.760942,49.3786927 C25.6011553,49.475946 25.3709842,49.5244932 25.0691846,49.5244932 L24.7419685,49.5244932 L19.2578538,49.5244932 Z" id="Fill-6" fill="#FEFEFE"></path>
                    <path d="M33.7967287,48.2895519 C34.0796427,48.2597255 34.3031622,48.2187934 34.467445,48.1659626 C34.6312539,48.1137663 34.7876386,48.0501472 34.9370728,47.9751051 C34.9516055,47.9603505 34.962821,47.9490863 34.9705612,47.9416297 C34.9779855,47.9340144 34.989043,47.9303655 35.0042076,47.9303655 C35.3765294,47.7057153 35.7117296,47.3654083 36.010282,46.9084927 C36.3080447,46.4520531 36.5467287,45.924379 36.7257022,45.3253119 C36.7704061,45.2058475 36.8075277,45.09733 36.837383,44.9997595 C36.8670802,44.9025063 36.8967775,44.8241326 36.9267907,44.7640038 C37.0011919,44.5994824 37.0793842,44.4911236 37.1616836,44.4384514 C37.2433511,44.3860965 37.3517146,44.3597604 37.4858263,44.3597604 C37.6793325,44.3597604 37.8134442,44.4159229 37.8881613,44.528248 C37.9627204,44.6404144 38,44.8241326 38,45.0786092 L38,49.5244932 L33.7967287,49.5244932 L33.7967287,48.2895519 Z M28.1177552,49.5244932 L27.8271009,49.5244932 C27.543713,49.5244932 27.3353581,49.4761046 27.2010885,49.3786927 C27.0668189,49.2815982 27,49.135639 27,48.9406566 C27,48.8059617 27.0368057,48.6901463 27.1116807,48.5927344 C27.1860819,48.4956399 27.2977627,48.4244055 27.4470389,48.3793485 C27.5064335,48.3647526 27.5623528,48.3457144 27.614639,48.323186 C27.6667672,48.3006575 27.7154202,48.2822539 27.7599661,48.2670234 C27.923933,48.1922987 28.0245563,48.1098 28.0618358,48.0200034 C28.0989574,47.9303655 28.1177552,47.7731421 28.1177552,47.5484919 L28.1177552,36.5453929 C28.1177552,36.3358146 28.0989574,36.1862065 28.0618358,36.0964099 C28.0245563,36.0066132 27.923933,35.9245905 27.7599661,35.8492312 C27.7154202,35.8346353 27.6667672,35.8155971 27.614639,35.7930687 C27.5623528,35.7706988 27.5064335,35.7521366 27.4470389,35.7369061 C27.2977627,35.6904213 27.1860819,35.6163312 27.1116807,35.5152703 C27.0368057,35.4143681 27,35.2934759 27,35.1530695 C27,34.9436499 27.0704521,34.7903927 27.212304,34.6929809 C27.35384,34.5958863 27.5588776,34.5470217 27.8271009,34.5470217 L28.1177552,34.5244932 L33.0141737,34.5244932 L33.3719628,34.5244932 C33.7145873,34.5547956 33.9605377,34.6182561 34.1096559,34.7153507 C34.2584583,34.8127626 34.3333333,34.9660197 34.3333333,35.175598 C34.3333333,35.3256821 34.2886294,35.4492714 34.1992217,35.5470006 C34.1096559,35.6444124 33.9829686,35.7156468 33.8191596,35.7605452 C33.7594491,35.7757757 33.7073209,35.7906889 33.662617,35.8056021 C33.6179131,35.8203567 33.5732093,35.8279719 33.5285054,35.8279719 C33.2898214,35.903014 33.1407031,35.9926519 33.0813085,36.0976791 C33.021598,36.2028648 32.9917428,36.382934 32.9917428,36.6378866 L32.9917428,49.5244932 L28.1177552,49.5244932 Z" id="Fill-8" fill="#FEFEFE"></path>
                    <path d="M41.2578818,49.5244932 L40.9306583,49.5244932 C40.6119665,49.5244932 40.3773468,49.475946 40.2262659,49.3786927 C40.0753627,49.2815982 40,49.135639 40,48.9406566 C40,48.8059617 40.0415917,48.6901463 40.1256638,48.5927344 C40.2095581,48.4956399 40.3352218,48.4242468 40.5031883,48.3793485 C40.5700193,48.3645939 40.6327623,48.3455558 40.6917728,48.323186 C40.7504277,48.3006575 40.8049946,48.2822539 40.8551179,48.2670234 C41.0396143,48.1922987 41.1528361,48.1098 41.194961,48.0200034 C41.2365527,47.9303655 41.2578818,47.7731421 41.2578818,47.5484919 L41.2578818,36.5452343 C41.2578818,36.3358146 41.2365527,36.1862065 41.194961,36.0962512 C41.1528361,36.0066132 41.0396143,35.9244319 40.8551179,35.8492312 C40.8049946,35.8346353 40.7504277,35.8155971 40.6917728,35.7930687 C40.6327623,35.7706988 40.5700193,35.751978 40.5031883,35.7369061 C40.3352218,35.6904213 40.2095581,35.6163312 40.1256638,35.5152703 C40.0415917,35.4143681 40,35.2934759 40,35.1530695 C40,34.9436499 40.0794508,34.7903927 40.2390633,34.6929809 C40.3981426,34.5957277 40.6290297,34.5470217 40.9306583,34.5470217 L41.2578818,34.5244932 L46.7419405,34.5244932 L47.0691639,34.5244932 C47.3875003,34.5547956 47.6226532,34.6144485 47.7735564,34.7040865 C47.9246373,34.7937244 48,34.9436499 48,35.1530695 C48,35.2934759 47.9578751,35.4143681 47.8743362,35.5152703 C47.7902642,35.6163312 47.6642449,35.6904213 47.4969895,35.7369061 C47.4296252,35.751978 47.3667044,35.7706988 47.3082272,35.7930687 C47.2492168,35.8155971 47.1950054,35.8346353 47.1447044,35.8492312 C46.9598525,35.9244319 46.8466307,36.0066132 46.805039,36.0962512 C46.7629141,36.1862065 46.7419405,36.3432712 46.7419405,36.5677627 L46.7419405,47.5259634 C46.7419405,47.7656855 46.7629141,47.9303655 46.805039,48.0200034 C46.8466307,48.1098 46.9598525,48.1922987 47.1447044,48.2670234 C47.1950054,48.2822539 47.2492168,48.3006575 47.3082272,48.323186 C47.3667044,48.3455558 47.4296252,48.3645939 47.4969895,48.3793485 C47.6642449,48.4242468 47.7902642,48.4956399 47.8743362,48.5927344 C47.9578751,48.6901463 48,48.8059617 48,48.9406566 C48,49.135639 47.920016,49.2815982 47.7611144,49.3786927 C47.6013242,49.475946 47.3713257,49.5244932 47.0691639,49.5244932 L46.7419405,49.5244932 L41.2578818,49.5244932 Z" id="Fill-10" fill="#FEFEFE"></path>
                    <path d="M56.9515007,34.5244932 L57.1320053,34.5244932 C57.2222577,34.5395878 57.3126694,34.5470556 57.4027623,34.5470556 C57.4930146,34.5470556 57.575613,34.5546823 57.6511953,34.5694591 C57.9819078,34.5694591 58.3056043,34.5882081 58.6216468,34.6257061 C58.9375299,34.6630452 59.2157813,34.7043566 59.4565604,34.7491635 C60.5548959,34.9442803 61.4201062,35.4352501 62.0520318,36.2225495 C62.6839575,37.0093722 63,37.9803483 63,39.1348423 C63,40.3193664 62.6688091,41.3125871 62.0069057,42.1146633 C61.3446834,42.9165805 60.4345064,43.4228037 59.2760558,43.6323795 C58.9450243,43.6924399 58.5838557,43.7374057 58.1927092,43.767277 C57.8012438,43.797625 57.3876139,43.8122428 56.9515007,43.8122428 L56.9515007,42.5981652 C57.4328995,42.4928212 57.7599446,42.3201079 57.9331142,42.0792308 C58.1059649,41.8386715 58.1927092,41.4323901 58.1927092,40.8608631 L58.1927092,37.3182542 C58.1927092,36.8071054 58.0984704,36.4271997 57.9106308,36.1790137 C57.7223129,35.9309865 57.4027623,35.7768634 56.9515007,35.7161674 L56.9515007,34.5244932 Z M56.0486587,47.4330256 C56.0486587,47.718233 56.0826229,47.913032 56.1502324,48.0177404 C56.2178419,48.1227666 56.3793713,48.2126983 56.6356176,48.2876943 C56.6805843,48.3029478 56.7218835,48.3140701 56.7596747,48.321379 C56.7969875,48.3293235 56.8386056,48.3404458 56.8837318,48.3552225 C57.049088,48.3854116 57.1771315,48.4491265 57.2673838,48.5463671 C57.3576361,48.6439255 57.4027623,48.7677007 57.4027623,48.917375 C57.4027623,49.1275863 57.3273394,49.2812328 57.1771315,49.3784734 C57.0266047,49.4760318 56.7783311,49.5244932 56.4323108,49.5244932 L56.0711421,49.5244932 L51.1284728,49.5244932 L50.8352325,49.5244932 C50.5491678,49.5244932 50.3385259,49.4760318 50.2033069,49.3784734 C50.067769,49.2812328 50,49.1350541 50,48.9399373 C50,48.8048809 50.0374722,48.6888913 50.1128951,48.5913329 C50.1879991,48.4940923 50.3008942,48.4227508 50.451421,48.3777849 C50.5113766,48.3630082 50.5678242,48.3439414 50.6207637,48.321379 C50.6733843,48.2988166 50.7223374,48.2803854 50.7674635,48.2652909 C50.9328198,48.1902948 51.034553,48.1076721 51.0721847,48.0177404 C51.1094975,47.9279676 51.1284728,47.7705078 51.1284728,47.5455197 L51.1284728,36.5258703 C51.1284728,36.3159767 51.1094975,36.1661436 51.0721847,36.0762119 C51.034553,35.9862802 50.9328198,35.9041342 50.7674635,35.8286615 C50.7223374,35.8140436 50.6733843,35.7949768 50.6207637,35.7724144 C50.5678242,35.750011 50.5113766,35.7314208 50.451421,35.7161674 C50.3008942,35.6713605 50.1879991,35.6003367 50.1128951,35.5027783 C50.0374722,35.4052199 50,35.2890714 50,35.154015 C50,34.9442803 50.0714365,34.7906338 50.2144688,34.6932343 C50.3573417,34.5958348 50.5643161,34.5470556 50.8352325,34.5470556 L51.1284728,34.5244932 L56.0486587,34.5244932 L56.0486587,47.4330256 Z" id="Fill-12" fill="#FEFEFE"></path>
                    <path d="M70.4712515,35.7482357 L70.4712515,34.5244932 C72.4353546,34.632317 74.0142969,35.4249276 75.2085782,36.9024881 C76.4025263,38.3802117 77,40.2657407 77,42.5590751 C77,44.8372392 76.4143493,46.6958531 75.2440469,48.1349167 C74.0734115,49.5744698 72.4823132,50.3705059 70.4712515,50.5244932 L70.4712515,49.2779137 C70.8637391,49.2010832 71.1389966,49.0164289 71.2961915,48.7236246 C71.4530533,48.4314728 71.5318172,48.000341 71.5318172,47.4307184 L71.5318172,37.3182864 C71.5318172,36.8874808 71.4530533,36.552591 71.2961915,36.3139433 C71.1389966,36.0752956 70.8637391,35.8945562 70.4712515,35.771399 L70.4712515,35.7482357 Z M68.703642,36.3139433 C68.5462807,36.552591 68.4680163,36.8949844 68.4680163,37.3414498 L68.4680163,47.4077182 C68.4680163,48.0390009 68.5462807,48.48514 68.703642,48.746788 C68.8605038,49.0087622 69.1355948,49.1934164 69.528582,49.3010771 L69.528582,50.5244932 C67.5328401,50.3705059 65.9460713,49.5744698 64.7676095,48.1349167 C63.5891477,46.6958531 63,44.8372392 63,42.5590751 C63,40.2657407 63.6009706,38.3802117 64.8029117,36.9024881 C66.0050194,35.4249276 67.5801318,34.6398206 69.528582,34.5476566 L69.528582,35.7482357 C69.1355948,35.8867264 68.8605038,36.0752956 68.703642,36.3139433 L68.703642,36.3139433 Z" id="Fill-14" fill="#FEFEFE"></path>
                    <path d="M85.7967891,48.2895519 C86.079699,48.2597255 86.3033732,48.2187934 86.4674957,48.1659626 C86.6313023,48.1137663 86.7878427,48.0501472 86.9371168,47.9751051 C86.9518072,47.9603505 86.9628646,47.9490863 86.9706047,47.9416297 C86.9780289,47.9340144 86.9890863,47.9303655 87.0040927,47.9303655 C87.3764091,47.7057153 87.7119204,47.3654083 88.0103106,46.9084927 C88.308069,46.4520531 88.5467496,45.924379 88.7255626,45.3253119 C88.7702658,45.2058475 88.8073869,45.09733 88.8373997,44.9997595 C88.8670965,44.9025063 88.8967934,44.8241326 88.9268062,44.7640038 C89.0012063,44.5994824 89.0795554,44.4911236 89.1616957,44.4384514 C89.243362,44.3860965 89.3517239,44.3597604 89.4858337,44.3597604 C89.6793371,44.3597604 89.8134469,44.4159229 89.8881629,44.528248 C89.962563,44.6404144 90,44.8241326 90,45.0786092 L90,49.5244932 L85.7967891,49.5244932 L85.7967891,48.2895519 Z M80.1178971,49.5244932 L79.827247,49.5244932 C79.5438632,49.5244932 79.3353533,49.4761046 79.2012436,49.3786927 C79.0669759,49.2815982 79,49.135639 79,48.9406566 C79,48.8059617 79.0369631,48.6901463 79.1118371,48.5927344 C79.1860792,48.4956399 79.2979163,48.4244055 79.4471904,48.3793485 C79.5065841,48.3647526 79.5623447,48.3457144 79.6147881,48.323186 C79.6669156,48.3006575 79.7154099,48.2822539 79.7601132,48.2670234 C79.9239198,48.1922987 80.0246995,48.1098 80.0619785,48.0200034 C80.0990996,47.9303655 80.1178971,47.7731421 80.1178971,47.5484919 L80.1178971,36.5453929 C80.1178971,36.3358146 80.0990996,36.1862065 80.0619785,36.0964099 C80.0246995,36.0066132 79.9239198,35.9245905 79.7601132,35.8492312 C79.7154099,35.8346353 79.6669156,35.8155971 79.6147881,35.7930687 C79.5623447,35.7706988 79.5065841,35.7521366 79.4471904,35.7369061 C79.2979163,35.6904213 79.1860792,35.6163312 79.1118371,35.5152703 C79.0369631,35.4143681 79,35.2934759 79,35.1530695 C79,34.9436499 79.070609,34.7903927 79.2123009,34.6929809 C79.3538349,34.5958863 79.5590275,34.5470217 79.827247,34.5470217 L80.1178971,34.5244932 L85.0142453,34.5244932 L85.3720292,34.5244932 C85.7146488,34.5547956 85.9605957,34.6182561 86.1097118,34.7153507 C86.25867,34.8127626 86.333228,34.9660197 86.333228,35.175598 C86.333228,35.3256821 86.2885248,35.4492714 86.1992762,35.5470006 C86.1097118,35.6444124 85.9830263,35.7156468 85.8192197,35.7605452 C85.75951,35.7757757 85.7073826,35.7906889 85.6625214,35.8056021 C85.6178181,35.8203567 85.5732728,35.8279719 85.5285696,35.8279719 C85.289889,35.903014 85.1407729,35.9926519 85.0813792,36.0976791 C85.0216695,36.2028648 84.9918147,36.382934 84.9918147,36.6378866 L84.9918147,49.5244932 L80.1178971,49.5244932 Z" id="Fill-16" fill="#FEFEFE"></path>
                </g>
            </g>
        </g>
    </g>
</svg>