<?xml version="1.0" encoding="UTF-8"?>
<svg width="13px" height="17px" viewBox="0 0 13 17" version="1.1" xmlns="http://www.w3.org/2000/svg" xmlns:xlink="http://www.w3.org/1999/xlink">
    <!-- Generator: Sketch 61.2 (89653) - https://sketch.com -->
    <title>Group 3</title>
    <desc>Created with Sketch.</desc>
    <g id="Symbols" stroke="none" stroke-width="1" fill="none" fill-rule="evenodd">
        <g id="MENU" transform="translate(-1178.000000, -14.000000)" stroke="#FFFFFF">
            <g id="TOP-BAR-">
                <g transform="translate(-3.500000, 0.000000)">
                    <g id="ICON-" transform="translate(1152.000000, 14.000000)">
                        <g id="Group-3" transform="translate(29.647953, 1.000000)">
                            <path d="M2.70410959,4 C2.18157328,4 1.74713181,4.40230633 1.7070551,4.9233035 L1.01474741,13.9233035 C1.01278446,13.9488219 1.01180189,13.9744062 1.01180189,14 C1.01180189,14.5522847 1.45951714,15 2.01180189,15 L10.6922927,15 C10.7178865,15 10.7434708,14.9990174 10.7689892,14.9970545 C11.3196472,14.9546962 11.7317055,14.4739615 11.6893472,13.9233035 L10.9970395,4.9233035 C10.9569628,4.40230633 10.5225213,4 9.99998503,4 L2.70410959,4 Z" id="Rectangle" stroke-width="2"></path>
                            <path d="M9.85204731,3.5 C9.85204731,1.56700338 8.28504393,0 6.35204731,0 C4.41905068,0 2.85204731,1.56700338 2.85204731,3.5" id="Oval"></path>
                        </g>
                    </g>
                </g>
            </g>
        </g>
    </g>
</svg>